<?xml version="1.0" encoding="utf-8" standalone="no"?>
<!DOCTYPE svg PUBLIC "-//W3C//DTD SVG 1.1//EN"
  "http://www.w3.org/Graphics/SVG/1.1/DTD/svg11.dtd">
<!-- Created with matplotlib (https://matplotlib.org/) -->
<svg height="326.429187pt" version="1.1" viewBox="0 0 433.533281 326.429187" width="433.533281pt" xmlns="http://www.w3.org/2000/svg" xmlns:xlink="http://www.w3.org/1999/xlink">
 <defs>
  <style type="text/css">*{stroke-linecap:butt;stroke-linejoin:round;}</style>
 </defs>
 <g id="figure_1">
  <g id="patch_1">
   <path d="M 0 326.429187 
L 433.533281 326.429187 
L 433.533281 0 
L 0 0 
z
" style="fill:none;"/>
  </g>
  <g id="axes_1">
   <g id="patch_2">
    <path d="M 69.213281 273.312 
L 426.333281 273.312 
L 426.333281 7.2 
L 69.213281 7.2 
z
" style="fill:none;"/>
   </g>
   <g id="matplotlib.axis_1">
    <g id="xtick_1">
     <g id="line2d_1">
      <path clip-path="url(#p2bbff23bf6)" d="M 104.925281 273.312 
L 104.925281 7.2 
" style="fill:none;stroke:#b0b0b0;stroke-linecap:square;stroke-width:0.8;"/>
     </g>
     <g id="line2d_2">
      <defs>
       <path d="M 0 0 
L 0 3.5 
" id="m005f0a59be" style="stroke:#000000;stroke-width:0.8;"/>
      </defs>
      <g>
       <use style="stroke:#000000;stroke-width:0.8;" x="104.925281" xlink:href="#m005f0a59be" y="273.312"/>
      </g>
     </g>
     <g id="text_1">
      <!-- −0.4 -->
      <g transform="translate(86.713172 291.709656)scale(0.15 -0.15)">
       <defs>
        <path d="M 10.59375 35.5 
L 73.1875 35.5 
L 73.1875 27.203125 
L 10.59375 27.203125 
z
" id="DejaVuSans-8722"/>
        <path d="M 31.78125 66.40625 
Q 24.171875 66.40625 20.328125 58.90625 
Q 16.5 51.421875 16.5 36.375 
Q 16.5 21.390625 20.328125 13.890625 
Q 24.171875 6.390625 31.78125 6.390625 
Q 39.453125 6.390625 43.28125 13.890625 
Q 47.125 21.390625 47.125 36.375 
Q 47.125 51.421875 43.28125 58.90625 
Q 39.453125 66.40625 31.78125 66.40625 
z
M 31.78125 74.21875 
Q 44.046875 74.21875 50.515625 64.515625 
Q 56.984375 54.828125 56.984375 36.375 
Q 56.984375 17.96875 50.515625 8.265625 
Q 44.046875 -1.421875 31.78125 -1.421875 
Q 19.53125 -1.421875 13.0625 8.265625 
Q 6.59375 17.96875 6.59375 36.375 
Q 6.59375 54.828125 13.0625 64.515625 
Q 19.53125 74.21875 31.78125 74.21875 
z
" id="DejaVuSans-48"/>
        <path d="M 10.6875 12.40625 
L 21 12.40625 
L 21 0 
L 10.6875 0 
z
" id="DejaVuSans-46"/>
        <path d="M 37.796875 64.3125 
L 12.890625 25.390625 
L 37.796875 25.390625 
z
M 35.203125 72.90625 
L 47.609375 72.90625 
L 47.609375 25.390625 
L 58.015625 25.390625 
L 58.015625 17.1875 
L 47.609375 17.1875 
L 47.609375 0 
L 37.796875 0 
L 37.796875 17.1875 
L 4.890625 17.1875 
L 4.890625 26.703125 
z
" id="DejaVuSans-52"/>
       </defs>
       <use xlink:href="#DejaVuSans-8722"/>
       <use x="83.789062" xlink:href="#DejaVuSans-48"/>
       <use x="147.412109" xlink:href="#DejaVuSans-46"/>
       <use x="179.199219" xlink:href="#DejaVuSans-52"/>
      </g>
     </g>
    </g>
    <g id="xtick_2">
     <g id="line2d_3">
      <path clip-path="url(#p2bbff23bf6)" d="M 176.349281 273.312 
L 176.349281 7.2 
" style="fill:none;stroke:#b0b0b0;stroke-linecap:square;stroke-width:0.8;"/>
     </g>
     <g id="line2d_4">
      <g>
       <use style="stroke:#000000;stroke-width:0.8;" x="176.349281" xlink:href="#m005f0a59be" y="273.312"/>
      </g>
     </g>
     <g id="text_2">
      <!-- −0.2 -->
      <g transform="translate(158.137172 291.709656)scale(0.15 -0.15)">
       <defs>
        <path d="M 19.1875 8.296875 
L 53.609375 8.296875 
L 53.609375 0 
L 7.328125 0 
L 7.328125 8.296875 
Q 12.9375 14.109375 22.625 23.890625 
Q 32.328125 33.6875 34.8125 36.53125 
Q 39.546875 41.84375 41.421875 45.53125 
Q 43.3125 49.21875 43.3125 52.78125 
Q 43.3125 58.59375 39.234375 62.25 
Q 35.15625 65.921875 28.609375 65.921875 
Q 23.96875 65.921875 18.8125 64.3125 
Q 13.671875 62.703125 7.8125 59.421875 
L 7.8125 69.390625 
Q 13.765625 71.78125 18.9375 73 
Q 24.125 74.21875 28.421875 74.21875 
Q 39.75 74.21875 46.484375 68.546875 
Q 53.21875 62.890625 53.21875 53.421875 
Q 53.21875 48.921875 51.53125 44.890625 
Q 49.859375 40.875 45.40625 35.40625 
Q 44.1875 33.984375 37.640625 27.21875 
Q 31.109375 20.453125 19.1875 8.296875 
z
" id="DejaVuSans-50"/>
       </defs>
       <use xlink:href="#DejaVuSans-8722"/>
       <use x="83.789062" xlink:href="#DejaVuSans-48"/>
       <use x="147.412109" xlink:href="#DejaVuSans-46"/>
       <use x="179.199219" xlink:href="#DejaVuSans-50"/>
      </g>
     </g>
    </g>
    <g id="xtick_3">
     <g id="line2d_5">
      <path clip-path="url(#p2bbff23bf6)" d="M 247.773281 273.312 
L 247.773281 7.2 
" style="fill:none;stroke:#b0b0b0;stroke-linecap:square;stroke-width:0.8;"/>
     </g>
     <g id="line2d_6">
      <g>
       <use style="stroke:#000000;stroke-width:0.8;" x="247.773281" xlink:href="#m005f0a59be" y="273.312"/>
      </g>
     </g>
     <g id="text_3">
      <!-- 0.0 -->
      <g transform="translate(235.845938 291.709656)scale(0.15 -0.15)">
       <use xlink:href="#DejaVuSans-48"/>
       <use x="63.623047" xlink:href="#DejaVuSans-46"/>
       <use x="95.410156" xlink:href="#DejaVuSans-48"/>
      </g>
     </g>
    </g>
    <g id="xtick_4">
     <g id="line2d_7">
      <path clip-path="url(#p2bbff23bf6)" d="M 319.197281 273.312 
L 319.197281 7.2 
" style="fill:none;stroke:#b0b0b0;stroke-linecap:square;stroke-width:0.8;"/>
     </g>
     <g id="line2d_8">
      <g>
       <use style="stroke:#000000;stroke-width:0.8;" x="319.197281" xlink:href="#m005f0a59be" y="273.312"/>
      </g>
     </g>
     <g id="text_4">
      <!-- 0.2 -->
      <g transform="translate(307.269938 291.709656)scale(0.15 -0.15)">
       <use xlink:href="#DejaVuSans-48"/>
       <use x="63.623047" xlink:href="#DejaVuSans-46"/>
       <use x="95.410156" xlink:href="#DejaVuSans-50"/>
      </g>
     </g>
    </g>
    <g id="xtick_5">
     <g id="line2d_9">
      <path clip-path="url(#p2bbff23bf6)" d="M 390.621281 273.312 
L 390.621281 7.2 
" style="fill:none;stroke:#b0b0b0;stroke-linecap:square;stroke-width:0.8;"/>
     </g>
     <g id="line2d_10">
      <g>
       <use style="stroke:#000000;stroke-width:0.8;" x="390.621281" xlink:href="#m005f0a59be" y="273.312"/>
      </g>
     </g>
     <g id="text_5">
      <!-- 0.4 -->
      <g transform="translate(378.693938 291.709656)scale(0.15 -0.15)">
       <use xlink:href="#DejaVuSans-48"/>
       <use x="63.623047" xlink:href="#DejaVuSans-46"/>
       <use x="95.410156" xlink:href="#DejaVuSans-52"/>
      </g>
     </g>
    </g>
    <g id="text_6">
     <!-- $a / \beta_{rel,z}$ -->
     <g transform="translate(215.173281 314.229187)scale(0.2 -0.2)">
      <defs>
       <path d="M 53.71875 31.203125 
L 47.609375 0 
L 38.625 0 
L 40.28125 8.296875 
Q 36.328125 3.421875 31.265625 1 
Q 26.21875 -1.421875 20.015625 -1.421875 
Q 13.03125 -1.421875 8.5625 2.84375 
Q 4.109375 7.125 4.109375 13.8125 
Q 4.109375 23.390625 11.75 28.953125 
Q 19.390625 34.515625 32.8125 34.515625 
L 45.3125 34.515625 
L 45.796875 36.921875 
Q 45.90625 37.3125 45.953125 37.765625 
Q 46 38.234375 46 39.203125 
Q 46 43.5625 42.453125 45.96875 
Q 38.921875 48.390625 32.515625 48.390625 
Q 28.125 48.390625 23.5 47.265625 
Q 18.890625 46.140625 14.015625 43.890625 
L 15.578125 52.203125 
Q 20.65625 54.109375 25.515625 55.046875 
Q 30.375 56 34.90625 56 
Q 44.578125 56 49.625 51.796875 
Q 54.6875 47.609375 54.6875 39.59375 
Q 54.6875 37.984375 54.4375 35.8125 
Q 54.203125 33.640625 53.71875 31.203125 
z
M 44 27.484375 
L 35.015625 27.484375 
Q 23.96875 27.484375 18.671875 24.53125 
Q 13.375 21.578125 13.375 15.375 
Q 13.375 11.078125 16.078125 8.640625 
Q 18.796875 6.203125 23.578125 6.203125 
Q 30.90625 6.203125 36.375 11.453125 
Q 41.84375 16.703125 43.609375 25.484375 
z
" id="DejaVuSans-Oblique-97"/>
       <path d="M 25.390625 72.90625 
L 33.6875 72.90625 
L 8.296875 -9.28125 
L 0 -9.28125 
z
" id="DejaVuSans-47"/>
       <path d="M 13.625 3.375 
L 8.9375 -20.796875 
L -0.09375 -20.796875 
L 14.5 54.34375 
Q 18.84375 76.609375 39.65625 76.609375 
Q 60.75 76.609375 57.171875 57.8125 
Q 54.734375 44.4375 45.21875 39.546875 
Q 58.015625 35.15625 55.515625 22.125 
Q 51.125 -1.078125 27.484375 -1.03125 
Q 17.140625 -0.984375 13.625 3.375 
z
M 15.921875 15.09375 
Q 19.671875 6.59375 29.296875 6.640625 
Q 43.359375 6.640625 46.34375 21.96875 
Q 49.03125 35.75 26.171875 34.671875 
L 27.78125 42.96875 
Q 45.453125 42.671875 48.53125 58.59375 
Q 50.640625 69.34375 39.203125 69.28125 
Q 26.421875 69.28125 23.484375 54.046875 
z
" id="DejaVuSans-Oblique-946"/>
       <path d="M 44.578125 46.390625 
Q 43.21875 47.125 41.453125 47.515625 
Q 39.703125 47.90625 37.703125 47.90625 
Q 30.515625 47.90625 25.140625 42.453125 
Q 19.78125 37.015625 18.015625 27.875 
L 12.5 0 
L 3.515625 0 
L 14.203125 54.6875 
L 23.1875 54.6875 
L 21.484375 46.1875 
Q 25.046875 50.921875 30 53.453125 
Q 34.96875 56 40.578125 56 
Q 42.046875 56 43.453125 55.828125 
Q 44.875 55.671875 46.296875 55.28125 
z
" id="DejaVuSans-Oblique-114"/>
       <path d="M 48.09375 32.234375 
Q 48.25 33.015625 48.3125 33.84375 
Q 48.390625 34.671875 48.390625 35.5 
Q 48.390625 41.453125 44.890625 44.921875 
Q 41.40625 48.390625 35.40625 48.390625 
Q 28.71875 48.390625 23.578125 44.15625 
Q 18.453125 39.9375 15.828125 32.171875 
z
M 55.90625 25.203125 
L 14.109375 25.203125 
Q 13.8125 23.34375 13.71875 22.265625 
Q 13.625 21.1875 13.625 20.40625 
Q 13.625 13.625 17.796875 9.90625 
Q 21.96875 6.203125 29.59375 6.203125 
Q 35.453125 6.203125 40.671875 7.515625 
Q 45.90625 8.84375 50.390625 11.375 
L 48.6875 2.484375 
Q 43.84375 0.53125 38.6875 -0.4375 
Q 33.546875 -1.421875 28.21875 -1.421875 
Q 16.84375 -1.421875 10.71875 4.015625 
Q 4.59375 9.46875 4.59375 19.484375 
Q 4.59375 28.03125 7.640625 35.375 
Q 10.6875 42.71875 16.609375 48.484375 
Q 20.40625 52.09375 25.65625 54.046875 
Q 30.90625 56 36.8125 56 
Q 46.09375 56 51.578125 50.4375 
Q 57.078125 44.875 57.078125 35.5 
Q 57.078125 33.25 56.78125 30.6875 
Q 56.5 28.125 55.90625 25.203125 
z
" id="DejaVuSans-Oblique-101"/>
       <path d="M 18.3125 75.984375 
L 27.296875 75.984375 
L 12.5 0 
L 3.515625 0 
z
" id="DejaVuSans-Oblique-108"/>
       <path d="M 11.71875 12.40625 
L 22.015625 12.40625 
L 22.015625 4 
L 14.015625 -11.625 
L 7.71875 -11.625 
L 11.71875 4 
z
" id="DejaVuSans-44"/>
       <path d="M 11.625 54.6875 
L 54.296875 54.6875 
L 52.6875 46.484375 
L 11.53125 7.171875 
L 45.515625 7.171875 
L 44.09375 0 
L -0.296875 0 
L 1.3125 8.203125 
L 42.484375 47.515625 
L 10.203125 47.515625 
z
" id="DejaVuSans-Oblique-122"/>
      </defs>
      <use transform="translate(0 0.390625)" xlink:href="#DejaVuSans-Oblique-97"/>
      <use transform="translate(61.279297 0.390625)" xlink:href="#DejaVuSans-47"/>
      <use transform="translate(94.970703 0.390625)" xlink:href="#DejaVuSans-Oblique-946"/>
      <use transform="translate(158.789062 -16.015625)scale(0.7)" xlink:href="#DejaVuSans-Oblique-114"/>
      <use transform="translate(187.568359 -16.015625)scale(0.7)" xlink:href="#DejaVuSans-Oblique-101"/>
      <use transform="translate(230.634766 -16.015625)scale(0.7)" xlink:href="#DejaVuSans-Oblique-108"/>
      <use transform="translate(250.083008 -16.015625)scale(0.7)" xlink:href="#DejaVuSans-44"/>
      <use transform="translate(285.97168 -16.015625)scale(0.7)" xlink:href="#DejaVuSans-Oblique-122"/>
     </g>
    </g>
   </g>
   <g id="matplotlib.axis_2">
    <g id="ytick_1">
     <g id="line2d_11">
      <path clip-path="url(#p2bbff23bf6)" d="M 69.213281 246.7008 
L 426.333281 246.7008 
" style="fill:none;stroke:#b0b0b0;stroke-linecap:square;stroke-width:0.8;"/>
     </g>
     <g id="line2d_12">
      <defs>
       <path d="M 0 0 
L -3.5 0 
" id="mc3ce260a5b" style="stroke:#000000;stroke-width:0.8;"/>
      </defs>
      <g>
       <use style="stroke:#000000;stroke-width:0.8;" x="69.213281" xlink:href="#mc3ce260a5b" y="246.7008"/>
      </g>
     </g>
     <g id="text_7">
      <!-- −40 -->
      <g transform="translate(30.55625 252.399628)scale(0.15 -0.15)">
       <use xlink:href="#DejaVuSans-8722"/>
       <use x="83.789062" xlink:href="#DejaVuSans-52"/>
       <use x="147.412109" xlink:href="#DejaVuSans-48"/>
      </g>
     </g>
    </g>
    <g id="ytick_2">
     <g id="line2d_13">
      <path clip-path="url(#p2bbff23bf6)" d="M 69.213281 193.4784 
L 426.333281 193.4784 
" style="fill:none;stroke:#b0b0b0;stroke-linecap:square;stroke-width:0.8;"/>
     </g>
     <g id="line2d_14">
      <g>
       <use style="stroke:#000000;stroke-width:0.8;" x="69.213281" xlink:href="#mc3ce260a5b" y="193.4784"/>
      </g>
     </g>
     <g id="text_8">
      <!-- −20 -->
      <g transform="translate(30.55625 199.177228)scale(0.15 -0.15)">
       <use xlink:href="#DejaVuSans-8722"/>
       <use x="83.789062" xlink:href="#DejaVuSans-50"/>
       <use x="147.412109" xlink:href="#DejaVuSans-48"/>
      </g>
     </g>
    </g>
    <g id="ytick_3">
     <g id="line2d_15">
      <path clip-path="url(#p2bbff23bf6)" d="M 69.213281 140.256 
L 426.333281 140.256 
" style="fill:none;stroke:#b0b0b0;stroke-linecap:square;stroke-width:0.8;"/>
     </g>
     <g id="line2d_16">
      <g>
       <use style="stroke:#000000;stroke-width:0.8;" x="69.213281" xlink:href="#mc3ce260a5b" y="140.256"/>
      </g>
     </g>
     <g id="text_9">
      <!-- 0 -->
      <g transform="translate(52.669531 145.954828)scale(0.15 -0.15)">
       <use xlink:href="#DejaVuSans-48"/>
      </g>
     </g>
    </g>
    <g id="ytick_4">
     <g id="line2d_17">
      <path clip-path="url(#p2bbff23bf6)" d="M 69.213281 87.0336 
L 426.333281 87.0336 
" style="fill:none;stroke:#b0b0b0;stroke-linecap:square;stroke-width:0.8;"/>
     </g>
     <g id="line2d_18">
      <g>
       <use style="stroke:#000000;stroke-width:0.8;" x="69.213281" xlink:href="#mc3ce260a5b" y="87.0336"/>
      </g>
     </g>
     <g id="text_10">
      <!-- 20 -->
      <g transform="translate(43.125781 92.732428)scale(0.15 -0.15)">
       <use xlink:href="#DejaVuSans-50"/>
       <use x="63.623047" xlink:href="#DejaVuSans-48"/>
      </g>
     </g>
    </g>
    <g id="ytick_5">
     <g id="line2d_19">
      <path clip-path="url(#p2bbff23bf6)" d="M 69.213281 33.8112 
L 426.333281 33.8112 
" style="fill:none;stroke:#b0b0b0;stroke-linecap:square;stroke-width:0.8;"/>
     </g>
     <g id="line2d_20">
      <g>
       <use style="stroke:#000000;stroke-width:0.8;" x="69.213281" xlink:href="#mc3ce260a5b" y="33.8112"/>
      </g>
     </g>
     <g id="text_11">
      <!-- 40 -->
      <g transform="translate(43.125781 39.510028)scale(0.15 -0.15)">
       <use xlink:href="#DejaVuSans-52"/>
       <use x="63.623047" xlink:href="#DejaVuSans-48"/>
      </g>
     </g>
    </g>
    <g id="text_12">
     <!-- Energies (kHz) -->
     <g transform="translate(22.396875 213.031)rotate(-90)scale(0.2 -0.2)">
      <defs>
       <path d="M 9.8125 72.90625 
L 55.90625 72.90625 
L 55.90625 64.59375 
L 19.671875 64.59375 
L 19.671875 43.015625 
L 54.390625 43.015625 
L 54.390625 34.71875 
L 19.671875 34.71875 
L 19.671875 8.296875 
L 56.78125 8.296875 
L 56.78125 0 
L 9.8125 0 
z
" id="DejaVuSans-69"/>
       <path d="M 54.890625 33.015625 
L 54.890625 0 
L 45.90625 0 
L 45.90625 32.71875 
Q 45.90625 40.484375 42.875 44.328125 
Q 39.84375 48.1875 33.796875 48.1875 
Q 26.515625 48.1875 22.3125 43.546875 
Q 18.109375 38.921875 18.109375 30.90625 
L 18.109375 0 
L 9.078125 0 
L 9.078125 54.6875 
L 18.109375 54.6875 
L 18.109375 46.1875 
Q 21.34375 51.125 25.703125 53.5625 
Q 30.078125 56 35.796875 56 
Q 45.21875 56 50.046875 50.171875 
Q 54.890625 44.34375 54.890625 33.015625 
z
" id="DejaVuSans-110"/>
       <path d="M 56.203125 29.59375 
L 56.203125 25.203125 
L 14.890625 25.203125 
Q 15.484375 15.921875 20.484375 11.0625 
Q 25.484375 6.203125 34.421875 6.203125 
Q 39.59375 6.203125 44.453125 7.46875 
Q 49.3125 8.734375 54.109375 11.28125 
L 54.109375 2.78125 
Q 49.265625 0.734375 44.1875 -0.34375 
Q 39.109375 -1.421875 33.890625 -1.421875 
Q 20.796875 -1.421875 13.15625 6.1875 
Q 5.515625 13.8125 5.515625 26.8125 
Q 5.515625 40.234375 12.765625 48.109375 
Q 20.015625 56 32.328125 56 
Q 43.359375 56 49.78125 48.890625 
Q 56.203125 41.796875 56.203125 29.59375 
z
M 47.21875 32.234375 
Q 47.125 39.59375 43.09375 43.984375 
Q 39.0625 48.390625 32.421875 48.390625 
Q 24.90625 48.390625 20.390625 44.140625 
Q 15.875 39.890625 15.1875 32.171875 
z
" id="DejaVuSans-101"/>
       <path d="M 41.109375 46.296875 
Q 39.59375 47.171875 37.8125 47.578125 
Q 36.03125 48 33.890625 48 
Q 26.265625 48 22.1875 43.046875 
Q 18.109375 38.09375 18.109375 28.8125 
L 18.109375 0 
L 9.078125 0 
L 9.078125 54.6875 
L 18.109375 54.6875 
L 18.109375 46.1875 
Q 20.953125 51.171875 25.484375 53.578125 
Q 30.03125 56 36.53125 56 
Q 37.453125 56 38.578125 55.875 
Q 39.703125 55.765625 41.0625 55.515625 
z
" id="DejaVuSans-114"/>
       <path d="M 45.40625 27.984375 
Q 45.40625 37.75 41.375 43.109375 
Q 37.359375 48.484375 30.078125 48.484375 
Q 22.859375 48.484375 18.828125 43.109375 
Q 14.796875 37.75 14.796875 27.984375 
Q 14.796875 18.265625 18.828125 12.890625 
Q 22.859375 7.515625 30.078125 7.515625 
Q 37.359375 7.515625 41.375 12.890625 
Q 45.40625 18.265625 45.40625 27.984375 
z
M 54.390625 6.78125 
Q 54.390625 -7.171875 48.1875 -13.984375 
Q 42 -20.796875 29.203125 -20.796875 
Q 24.46875 -20.796875 20.265625 -20.09375 
Q 16.0625 -19.390625 12.109375 -17.921875 
L 12.109375 -9.1875 
Q 16.0625 -11.328125 19.921875 -12.34375 
Q 23.78125 -13.375 27.78125 -13.375 
Q 36.625 -13.375 41.015625 -8.765625 
Q 45.40625 -4.15625 45.40625 5.171875 
L 45.40625 9.625 
Q 42.625 4.78125 38.28125 2.390625 
Q 33.9375 0 27.875 0 
Q 17.828125 0 11.671875 7.65625 
Q 5.515625 15.328125 5.515625 27.984375 
Q 5.515625 40.671875 11.671875 48.328125 
Q 17.828125 56 27.875 56 
Q 33.9375 56 38.28125 53.609375 
Q 42.625 51.21875 45.40625 46.390625 
L 45.40625 54.6875 
L 54.390625 54.6875 
z
" id="DejaVuSans-103"/>
       <path d="M 9.421875 54.6875 
L 18.40625 54.6875 
L 18.40625 0 
L 9.421875 0 
z
M 9.421875 75.984375 
L 18.40625 75.984375 
L 18.40625 64.59375 
L 9.421875 64.59375 
z
" id="DejaVuSans-105"/>
       <path d="M 44.28125 53.078125 
L 44.28125 44.578125 
Q 40.484375 46.53125 36.375 47.5 
Q 32.28125 48.484375 27.875 48.484375 
Q 21.1875 48.484375 17.84375 46.4375 
Q 14.5 44.390625 14.5 40.28125 
Q 14.5 37.15625 16.890625 35.375 
Q 19.28125 33.59375 26.515625 31.984375 
L 29.59375 31.296875 
Q 39.15625 29.25 43.1875 25.515625 
Q 47.21875 21.78125 47.21875 15.09375 
Q 47.21875 7.46875 41.1875 3.015625 
Q 35.15625 -1.421875 24.609375 -1.421875 
Q 20.21875 -1.421875 15.453125 -0.5625 
Q 10.6875 0.296875 5.421875 2 
L 5.421875 11.28125 
Q 10.40625 8.6875 15.234375 7.390625 
Q 20.0625 6.109375 24.8125 6.109375 
Q 31.15625 6.109375 34.5625 8.28125 
Q 37.984375 10.453125 37.984375 14.40625 
Q 37.984375 18.0625 35.515625 20.015625 
Q 33.0625 21.96875 24.703125 23.78125 
L 21.578125 24.515625 
Q 13.234375 26.265625 9.515625 29.90625 
Q 5.8125 33.546875 5.8125 39.890625 
Q 5.8125 47.609375 11.28125 51.796875 
Q 16.75 56 26.8125 56 
Q 31.78125 56 36.171875 55.265625 
Q 40.578125 54.546875 44.28125 53.078125 
z
" id="DejaVuSans-115"/>
       <path id="DejaVuSans-32"/>
       <path d="M 31 75.875 
Q 24.46875 64.65625 21.28125 53.65625 
Q 18.109375 42.671875 18.109375 31.390625 
Q 18.109375 20.125 21.3125 9.0625 
Q 24.515625 -2 31 -13.1875 
L 23.1875 -13.1875 
Q 15.875 -1.703125 12.234375 9.375 
Q 8.59375 20.453125 8.59375 31.390625 
Q 8.59375 42.28125 12.203125 53.3125 
Q 15.828125 64.359375 23.1875 75.875 
z
" id="DejaVuSans-40"/>
       <path d="M 9.078125 75.984375 
L 18.109375 75.984375 
L 18.109375 31.109375 
L 44.921875 54.6875 
L 56.390625 54.6875 
L 27.390625 29.109375 
L 57.625 0 
L 45.90625 0 
L 18.109375 26.703125 
L 18.109375 0 
L 9.078125 0 
z
" id="DejaVuSans-107"/>
       <path d="M 9.8125 72.90625 
L 19.671875 72.90625 
L 19.671875 43.015625 
L 55.515625 43.015625 
L 55.515625 72.90625 
L 65.375 72.90625 
L 65.375 0 
L 55.515625 0 
L 55.515625 34.71875 
L 19.671875 34.71875 
L 19.671875 0 
L 9.8125 0 
z
" id="DejaVuSans-72"/>
       <path d="M 5.515625 54.6875 
L 48.1875 54.6875 
L 48.1875 46.484375 
L 14.40625 7.171875 
L 48.1875 7.171875 
L 48.1875 0 
L 4.296875 0 
L 4.296875 8.203125 
L 38.09375 47.515625 
L 5.515625 47.515625 
z
" id="DejaVuSans-122"/>
       <path d="M 8.015625 75.875 
L 15.828125 75.875 
Q 23.140625 64.359375 26.78125 53.3125 
Q 30.421875 42.28125 30.421875 31.390625 
Q 30.421875 20.453125 26.78125 9.375 
Q 23.140625 -1.703125 15.828125 -13.1875 
L 8.015625 -13.1875 
Q 14.5 -2 17.703125 9.0625 
Q 20.90625 20.125 20.90625 31.390625 
Q 20.90625 42.671875 17.703125 53.65625 
Q 14.5 64.65625 8.015625 75.875 
z
" id="DejaVuSans-41"/>
      </defs>
      <use xlink:href="#DejaVuSans-69"/>
      <use x="63.183594" xlink:href="#DejaVuSans-110"/>
      <use x="126.5625" xlink:href="#DejaVuSans-101"/>
      <use x="188.085938" xlink:href="#DejaVuSans-114"/>
      <use x="227.449219" xlink:href="#DejaVuSans-103"/>
      <use x="290.925781" xlink:href="#DejaVuSans-105"/>
      <use x="318.708984" xlink:href="#DejaVuSans-101"/>
      <use x="380.232422" xlink:href="#DejaVuSans-115"/>
      <use x="432.332031" xlink:href="#DejaVuSans-32"/>
      <use x="464.119141" xlink:href="#DejaVuSans-40"/>
      <use x="503.132812" xlink:href="#DejaVuSans-107"/>
      <use x="561.042969" xlink:href="#DejaVuSans-72"/>
      <use x="636.238281" xlink:href="#DejaVuSans-122"/>
      <use x="688.728516" xlink:href="#DejaVuSans-41"/>
     </g>
    </g>
   </g>
   <g id="line2d_21">
    <path clip-path="url(#p2bbff23bf6)" d="M 69.213281 325.078175 
L 384.243222 -1 
" style="fill:none;stroke:#808080;stroke-dasharray:1.5,2.475;stroke-dashoffset:0;stroke-width:1.5;"/>
   </g>
   <g id="line2d_22">
    <path clip-path="url(#p2bbff23bf6)" d="M -1 291.585952 
L 12.901659 288.350823 
L 24.306689 285.483493 
L 35.711719 282.402399 
L 47.116749 279.084038 
L 58.521778 275.501627 
L 69.926808 271.624607 
L 78.480581 268.502691 
L 87.034353 265.17901 
L 95.588126 261.635338 
L 104.141898 257.851597 
L 112.695671 253.805738 
L 121.249443 249.473661 
L 129.803216 244.829211 
L 138.356988 239.844306 
L 146.910761 234.48927 
L 152.613276 230.698513 
L 158.31579 226.720573 
L 164.018305 222.546634 
L 169.72082 218.168455 
L 175.423335 213.57878 
L 181.12585 208.771888 
L 186.828365 203.744289 
L 192.53088 198.495607 
L 198.233395 193.029655 
L 206.787168 184.44548 
L 215.34094 175.456892 
L 226.74597 163.037084 
L 241.002258 147.410598 
L 249.55603 138.399103 
L 255.258545 132.699852 
L 260.96106 127.324861 
L 266.663575 122.324817 
L 272.36609 117.732136 
L 278.068605 113.559975 
L 283.77112 109.803901 
L 289.473635 106.445468 
L 295.17615 103.456603 
L 300.878665 100.803841 
L 306.58118 98.451803 
L 312.283695 96.36569 
L 317.98621 94.512859 
L 323.688725 92.863652 
L 329.39124 91.391709 
L 337.945012 89.46652 
L 346.498784 87.823676 
L 355.052557 86.411052 
L 363.606329 85.18723 
L 375.011359 83.79326 
L 386.416389 82.616939 
L 400.672677 81.385208 
L 417.780222 80.174984 
L 434.533281 79.203736 
L 434.533281 79.203736 
" style="fill:none;stroke:#1f77b4;stroke-linecap:square;stroke-width:1.5;"/>
   </g>
   <g id="line2d_23">
    <path clip-path="url(#p2bbff23bf6)" d="M -1 229.32589 
L 12.901659 226.093677 
L 24.306689 223.229035 
L 35.711719 220.150944 
L 47.116749 216.835957 
L 58.521778 213.257367 
L 69.926808 209.384703 
L 78.480581 206.266478 
L 87.034353 202.946921 
L 95.588126 199.407883 
L 104.141898 195.629386 
L 112.695671 191.589508 
L 121.249443 187.264309 
L 129.803216 182.627848 
L 138.356988 177.652327 
L 146.910761 172.308461 
L 152.613276 168.526401 
L 158.31579 164.558405 
L 164.018305 160.395936 
L 169.72082 156.031123 
L 175.423335 151.457207 
L 181.12585 146.669152 
L 186.828365 141.664436 
L 192.53088 136.444103 
L 201.084653 128.224169 
L 209.638425 119.585455 
L 221.043455 107.619848 
L 229.597228 98.666612 
L 232.448485 95.822584 
L 235.299743 93.164954 
L 238.151 90.8455 
L 241.002258 89.061372 
L 243.853515 87.891325 
L 246.704773 87.193431 
L 249.55603 86.773873 
L 255.258545 86.325935 
L 263.812317 86.026045 
L 278.068605 85.818391 
L 306.58118 85.671966 
L 380.713874 85.581927 
L 434.533281 85.56385 
L 434.533281 85.56385 
" style="fill:none;stroke:#ff7f0e;stroke-dasharray:5.55,2.4;stroke-dashoffset:0;stroke-width:1.5;"/>
   </g>
   <g id="line2d_24">
    <path clip-path="url(#p2bbff23bf6)" d="M -1 102.935626 
L 12.901659 99.702489 
L 24.306689 96.837203 
L 35.711719 93.758618 
L 47.116749 90.443357 
L 58.521778 86.864878 
L 61.373036 85.925913 
L 64.224293 85.405944 
L 186.828365 85.229898 
L 212.489683 85.009091 
L 223.894713 84.71188 
L 229.597228 84.371502 
L 232.448485 84.072424 
L 235.299743 83.595473 
L 238.151 82.79793 
L 241.002258 81.492066 
L 243.853515 79.608755 
L 246.704773 77.299589 
L 252.407287 72.148649 
L 260.96106 64.367789 
L 266.663575 59.501794 
L 272.36609 54.997488 
L 278.068605 50.887959 
L 283.77112 47.178641 
L 289.473635 43.85649 
L 295.17615 40.896633 
L 300.878665 38.267614 
L 306.58118 35.935379 
L 312.283695 33.866042 
L 317.98621 32.027605 
L 323.688725 30.390886 
L 329.39124 28.929879 
L 337.945012 27.018759 
L 346.498784 25.387768 
L 355.052557 23.985262 
L 366.457587 22.400945 
L 377.862617 21.075869 
L 389.267647 19.954513 
L 403.523934 18.776995 
L 420.631479 17.616495 
L 434.533281 16.829625 
L 434.533281 16.829625 
" style="fill:none;stroke:#2ca02c;stroke-dasharray:5.55,2.4;stroke-dashoffset:0;stroke-width:1.5;"/>
   </g>
   <g id="line2d_25">
    <path clip-path="url(#p2bbff23bf6)" d="M -1 165.194527 
L 12.901659 161.958406 
L 24.306689 159.090366 
L 35.711719 156.008699 
L 47.116749 152.68996 
L 58.521778 149.107446 
L 69.926808 145.230705 
L 78.480581 142.109338 
L 87.034353 138.786592 
L 95.588126 135.244353 
L 104.141898 131.462692 
L 112.695671 127.419759 
L 121.249443 123.091723 
L 129.803216 118.4528 
L 138.356988 113.475421 
L 146.910761 108.130646 
L 152.613276 104.348756 
L 158.31579 100.381798 
L 164.018305 96.221535 
L 169.72082 91.860506 
L 175.423335 87.292534 
L 181.12585 82.51342 
L 186.828365 77.52191 
L 192.53088 72.321052 
L 201.084653 64.150351 
L 209.638425 55.614012 
L 218.192198 46.991575 
L 221.043455 44.336661 
L 223.894713 42.201758 
L 226.74597 40.713658 
L 232.448485 38.360802 
L 246.704773 32.558275 
L 255.258545 29.171765 
L 260.96106 27.241766 
L 266.663575 25.734521 
L 272.36609 24.656727 
L 278.068605 23.914925 
L 283.77112 23.40163 
L 292.324892 22.893746 
L 303.729922 22.486111 
L 320.837467 22.147815 
L 346.498784 21.894282 
L 392.118904 21.698139 
L 434.533281 21.613692 
L 434.533281 21.613692 
" style="fill:none;stroke:#d62728;stroke-linecap:square;stroke-width:1.5;"/>
   </g>
   <g id="line2d_26">
    <path clip-path="url(#p2bbff23bf6)" d="M -1 62.432647 
L 32.860461 61.569551 
L 61.373036 60.634041 
L 84.183096 59.689955 
L 104.141898 58.665763 
L 121.249443 57.588697 
L 135.505731 56.505208 
L 149.762018 55.200596 
L 161.167048 53.952575 
L 172.572078 52.472783 
L 181.12585 51.17439 
L 189.679623 49.678207 
L 198.233395 47.942721 
L 206.787168 45.911296 
L 212.489683 44.342874 
L 218.192198 42.480531 
L 221.043455 41.265391 
L 223.894713 39.49721 
L 226.74597 37.06802 
L 235.299743 29.061217 
L 238.151 26.665627 
L 241.002258 24.581123 
L 243.853515 22.878073 
L 246.704773 21.540892 
L 249.55603 20.473117 
L 263.812317 15.843016 
L 269.514832 13.468141 
L 275.217347 10.747361 
L 283.77112 6.328574 
L 295.17615 0.436152 
L 298.08624 -1 
L 298.08624 -1 
" style="fill:none;stroke:#9467bd;stroke-linecap:square;stroke-width:1.5;"/>
   </g>
   <g id="line2d_27">
    <path clip-path="url(#p2bbff23bf6)" d="M -1 40.677168 
L 12.901659 37.447046 
L 24.306689 34.584545 
L 35.711719 31.509079 
L 47.116749 28.197336 
L 58.521778 24.622814 
L 69.926808 20.756793 
L 72.778066 20.218782 
L 158.31579 19.910664 
L 189.679623 19.577423 
L 206.787168 19.192654 
L 218.192198 18.709287 
L 223.894713 18.311153 
L 229.597228 17.693955 
L 232.448485 17.24058 
L 235.299743 16.628004 
L 238.151 15.780795 
L 241.002258 14.608071 
L 243.853515 13.045536 
L 246.704773 11.11056 
L 249.55603 8.897578 
L 255.258545 4.061934 
L 261.125945 -1 
L 261.125945 -1 
" style="fill:none;stroke:#8c564b;stroke-linecap:square;stroke-width:1.5;"/>
   </g>
   <g id="line2d_28">
    <path clip-path="url(#p2bbff23bf6)" d="M -1 85.426856 
L 61.373036 85.406207 
L 64.224293 84.96681 
L 72.778066 81.974477 
L 81.331838 78.791864 
L 89.885611 75.402486 
L 98.439383 71.787741 
L 106.993156 67.92719 
L 115.546928 63.798475 
L 124.100701 59.377301 
L 132.654473 54.637521 
L 141.208246 49.551404 
L 149.762018 44.090204 
L 155.464533 40.226786 
L 161.167048 36.175684 
L 166.869563 31.929403 
L 172.572078 27.481622 
L 178.274593 22.827881 
L 183.977108 17.966574 
L 189.679623 12.900447 
L 198.233395 4.941153 
L 204.378802 -1 
L 204.378802 -1 
" style="fill:none;stroke:#e377c2;stroke-dasharray:5.55,2.4;stroke-dashoffset:0;stroke-width:1.5;"/>
   </g>
   <g id="line2d_29">
    <path clip-path="url(#p2bbff23bf6)" d="M -1 1.454466 
L 35.711719 0.574089 
L 64.224293 -0.31425 
L 82.118777 -1 
L 82.118777 -1 
" style="fill:none;stroke:#7f7f7f;stroke-dasharray:5.55,2.4;stroke-dashoffset:0;stroke-width:1.5;"/>
   </g>
   <g id="line2d_30">
    <path clip-path="url(#p2bbff23bf6)" d="M 0 0 
" style="fill:none;stroke:#bcbd22;stroke-dasharray:5.55,2.4;stroke-dashoffset:0;stroke-width:1.5;"/>
   </g>
   <g id="line2d_31">
    <path clip-path="url(#p2bbff23bf6)" d="M 0 0 
" style="fill:none;stroke:#17becf;stroke-dasharray:5.55,2.4;stroke-dashoffset:0;stroke-width:1.5;"/>
   </g>
   <g id="patch_3">
    <path d="M 69.213281 273.312 
L 69.213281 7.2 
" style="fill:none;stroke:#000000;stroke-linecap:square;stroke-linejoin:miter;stroke-width:0.8;"/>
   </g>
   <g id="patch_4">
    <path d="M 426.333281 273.312 
L 426.333281 7.2 
" style="fill:none;stroke:#000000;stroke-linecap:square;stroke-linejoin:miter;stroke-width:0.8;"/>
   </g>
   <g id="patch_5">
    <path d="M 69.213281 273.312 
L 426.333281 273.312 
" style="fill:none;stroke:#000000;stroke-linecap:square;stroke-linejoin:miter;stroke-width:0.8;"/>
   </g>
   <g id="patch_6">
    <path d="M 69.213281 7.2 
L 426.333281 7.2 
" style="fill:none;stroke:#000000;stroke-linecap:square;stroke-linejoin:miter;stroke-width:0.8;"/>
   </g>
   <g id="text_13">
    <!-- $|m_{rel,z},m_{COM,z}\rangle\!=\!|0,0\rangle$ -->
    <g style="fill:#1f77b4;" transform="translate(224.560481 183.898368)scale(0.14 -0.14)">
     <defs>
      <path d="M 21 76.421875 
L 21 -23.578125 
L 12.703125 -23.578125 
L 12.703125 76.421875 
z
" id="DejaVuSans-124"/>
      <path d="M 89.796875 33.015625 
L 83.40625 0 
L 74.421875 0 
L 80.71875 32.71875 
Q 81.109375 34.8125 81.296875 36.328125 
Q 81.5 37.84375 81.5 38.921875 
Q 81.5 43.3125 79.046875 45.75 
Q 76.609375 48.1875 72.21875 48.1875 
Q 65.671875 48.1875 60.546875 43.28125 
Q 55.421875 38.375 53.90625 30.515625 
L 47.90625 0 
L 38.921875 0 
L 45.3125 32.71875 
Q 45.703125 34.515625 45.890625 36.046875 
Q 46.09375 37.59375 46.09375 38.8125 
Q 46.09375 43.265625 43.65625 45.71875 
Q 41.21875 48.1875 36.921875 48.1875 
Q 30.28125 48.1875 25.140625 43.28125 
Q 20.015625 38.375 18.5 30.515625 
L 12.5 0 
L 3.515625 0 
L 14.203125 54.6875 
L 23.1875 54.6875 
L 21.484375 46.1875 
Q 25.140625 50.984375 30.046875 53.484375 
Q 34.96875 56 40.578125 56 
Q 46.53125 56 50.359375 52.875 
Q 54.203125 49.75 54.984375 44.1875 
Q 59.078125 49.953125 64.46875 52.96875 
Q 69.875 56 75.875 56 
Q 82.90625 56 86.734375 51.953125 
Q 90.578125 47.90625 90.578125 40.484375 
Q 90.578125 38.875 90.375 36.9375 
Q 90.1875 35.015625 89.796875 33.015625 
z
" id="DejaVuSans-Oblique-109"/>
      <path d="M 69.484375 67.28125 
L 67.484375 56.890625 
Q 62.796875 61.625 57.546875 63.921875 
Q 52.296875 66.21875 46.1875 66.21875 
Q 37.84375 66.21875 31.515625 62.203125 
Q 25.203125 58.203125 20.609375 50 
Q 17.671875 44.734375 16.125 38.84375 
Q 14.59375 32.953125 14.59375 27 
Q 14.59375 17.046875 19.75 11.8125 
Q 24.90625 6.59375 34.71875 6.59375 
Q 41.5 6.59375 47.75 8.765625 
Q 54 10.9375 59.90625 15.28125 
L 57.625 3.609375 
Q 51.8125 1.125 45.875 -0.140625 
Q 39.9375 -1.421875 33.984375 -1.421875 
Q 19.96875 -1.421875 12.078125 6.1875 
Q 4.203125 13.8125 4.203125 27.390625 
Q 4.203125 36.078125 7.203125 44.46875 
Q 10.203125 52.875 15.828125 59.8125 
Q 21.78125 67.1875 29.421875 70.703125 
Q 37.0625 74.21875 47.21875 74.21875 
Q 53.46875 74.21875 59.0625 72.484375 
Q 64.65625 70.75 69.484375 67.28125 
z
" id="DejaVuSans-Oblique-67"/>
      <path d="M 45.609375 66.21875 
Q 37.5 66.21875 31.296875 62.28125 
Q 25.09375 58.34375 20.515625 50.296875 
Q 17.578125 45.171875 16.03125 39.40625 
Q 14.5 33.640625 14.5 27.78125 
Q 14.5 17.625 19.359375 12.109375 
Q 24.21875 6.59375 33.109375 6.59375 
Q 41.109375 6.59375 47.375 10.5625 
Q 53.65625 14.546875 58.109375 22.40625 
Q 61.078125 27.6875 62.640625 33.46875 
Q 64.203125 39.265625 64.203125 45.015625 
Q 64.203125 55.125 59.3125 60.671875 
Q 54.4375 66.21875 45.609375 66.21875 
z
M 32.8125 -1.421875 
Q 19.390625 -1.421875 11.6875 6.53125 
Q 4 14.5 4 28.328125 
Q 4 36.234375 7 44.484375 
Q 10.015625 52.734375 15.28125 59.1875 
Q 21.484375 66.75 29.09375 70.484375 
Q 36.71875 74.21875 45.90625 74.21875 
Q 59.28125 74.21875 66.984375 66.328125 
Q 74.703125 58.453125 74.703125 44.828125 
Q 74.703125 36.421875 71.765625 28.3125 
Q 68.84375 20.21875 63.375 13.625 
Q 57.125 6 49.578125 2.28125 
Q 42.046875 -1.421875 32.8125 -1.421875 
z
" id="DejaVuSans-Oblique-79"/>
      <path d="M 16.890625 72.90625 
L 31.6875 72.90625 
L 40.1875 23.78125 
L 68.40625 72.90625 
L 83.59375 72.90625 
L 69.390625 0 
L 59.8125 0 
L 72.21875 63.921875 
L 43.609375 14.015625 
L 33.984375 14.015625 
L 24.703125 64.109375 
L 12.3125 0 
L 2.6875 0 
z
" id="DejaVuSans-Oblique-77"/>
      <path d="M 30.078125 31.34375 
L 16.3125 -13.1875 
L 8.015625 -13.1875 
L 21.78125 31.34375 
L 8.015625 75.875 
L 16.3125 75.875 
z
" id="DejaVuSans-10217"/>
      <path d="M 10.59375 45.40625 
L 73.1875 45.40625 
L 73.1875 37.203125 
L 10.59375 37.203125 
z
M 10.59375 25.484375 
L 73.1875 25.484375 
L 73.1875 17.1875 
L 10.59375 17.1875 
z
" id="DejaVuSans-61"/>
     </defs>
     <use transform="translate(0 0.578125)" xlink:href="#DejaVuSans-124"/>
     <use transform="translate(33.691406 0.578125)" xlink:href="#DejaVuSans-Oblique-109"/>
     <use transform="translate(131.103516 -15.828125)scale(0.7)" xlink:href="#DejaVuSans-Oblique-114"/>
     <use transform="translate(159.882812 -15.828125)scale(0.7)" xlink:href="#DejaVuSans-Oblique-101"/>
     <use transform="translate(202.949219 -15.828125)scale(0.7)" xlink:href="#DejaVuSans-Oblique-108"/>
     <use transform="translate(222.397461 -15.828125)scale(0.7)" xlink:href="#DejaVuSans-44"/>
     <use transform="translate(258.286133 -15.828125)scale(0.7)" xlink:href="#DejaVuSans-Oblique-122"/>
     <use transform="translate(297.763672 0.578125)" xlink:href="#DejaVuSans-44"/>
     <use transform="translate(349.033203 0.578125)" xlink:href="#DejaVuSans-Oblique-109"/>
     <use transform="translate(446.445312 -15.828125)scale(0.7)" xlink:href="#DejaVuSans-Oblique-67"/>
     <use transform="translate(495.322266 -15.828125)scale(0.7)" xlink:href="#DejaVuSans-Oblique-79"/>
     <use transform="translate(550.419922 -15.828125)scale(0.7)" xlink:href="#DejaVuSans-Oblique-77"/>
     <use transform="translate(610.81543 -15.828125)scale(0.7)" xlink:href="#DejaVuSans-44"/>
     <use transform="translate(646.704102 -15.828125)scale(0.7)" xlink:href="#DejaVuSans-Oblique-122"/>
     <use transform="translate(686.181641 0.578125)" xlink:href="#DejaVuSans-10217"/>
     <use transform="translate(728.442058 0.578125)" xlink:href="#DejaVuSans-61"/>
     <use transform="translate(815.477866 0.578125)" xlink:href="#DejaVuSans-124"/>
     <use transform="translate(849.169272 0.578125)" xlink:href="#DejaVuSans-48"/>
     <use transform="translate(912.792319 0.578125)" xlink:href="#DejaVuSans-44"/>
     <use transform="translate(964.061851 0.578125)" xlink:href="#DejaVuSans-48"/>
     <use transform="translate(1027.684897 0.578125)" xlink:href="#DejaVuSans-10217"/>
    </g>
   </g>
   <g id="text_14">
    <!-- $|0,1\rangle$ -->
    <g style="fill:#ff7f0e;" transform="translate(176.349281 166.8672)scale(0.14 -0.14)">
     <defs>
      <path d="M 12.40625 8.296875 
L 28.515625 8.296875 
L 28.515625 63.921875 
L 10.984375 60.40625 
L 10.984375 69.390625 
L 28.421875 72.90625 
L 38.28125 72.90625 
L 38.28125 8.296875 
L 54.390625 8.296875 
L 54.390625 0 
L 12.40625 0 
z
" id="DejaVuSans-49"/>
     </defs>
     <use transform="translate(0 0.578125)" xlink:href="#DejaVuSans-124"/>
     <use transform="translate(33.691406 0.578125)" xlink:href="#DejaVuSans-48"/>
     <use transform="translate(97.314453 0.578125)" xlink:href="#DejaVuSans-44"/>
     <use transform="translate(148.583984 0.578125)" xlink:href="#DejaVuSans-49"/>
     <use transform="translate(212.207031 0.578125)" xlink:href="#DejaVuSans-10217"/>
    </g>
   </g>
   <g id="text_15">
    <!-- $|1,0\rangle$ -->
    <g style="fill:#2ca02c;" transform="translate(79.926881 100.3392)scale(0.14 -0.14)">
     <use transform="translate(0 0.578125)" xlink:href="#DejaVuSans-124"/>
     <use transform="translate(33.691406 0.578125)" xlink:href="#DejaVuSans-49"/>
     <use transform="translate(97.314453 0.578125)" xlink:href="#DejaVuSans-44"/>
     <use transform="translate(148.583984 0.578125)" xlink:href="#DejaVuSans-48"/>
     <use transform="translate(212.207031 0.578125)" xlink:href="#DejaVuSans-10217"/>
    </g>
   </g>
   <g id="text_16">
    <!-- $|0,2\rangle$ -->
    <g style="fill:#d62728;" transform="translate(122.781281 134.667648)scale(0.14 -0.14)">
     <use transform="translate(0 0.578125)" xlink:href="#DejaVuSans-124"/>
     <use transform="translate(33.691406 0.578125)" xlink:href="#DejaVuSans-48"/>
     <use transform="translate(97.314453 0.578125)" xlink:href="#DejaVuSans-44"/>
     <use transform="translate(148.583984 0.578125)" xlink:href="#DejaVuSans-50"/>
     <use transform="translate(212.207031 0.578125)" xlink:href="#DejaVuSans-10217"/>
    </g>
   </g>
   <g id="text_17">
    <!-- $|2,0\rangle$ -->
    <g style="fill:#9467bd;" transform="translate(149.208161 67.873536)scale(0.14 -0.14)">
     <use transform="translate(0 0.578125)" xlink:href="#DejaVuSans-124"/>
     <use transform="translate(33.691406 0.578125)" xlink:href="#DejaVuSans-50"/>
     <use transform="translate(97.314453 0.578125)" xlink:href="#DejaVuSans-44"/>
     <use transform="translate(148.583984 0.578125)" xlink:href="#DejaVuSans-48"/>
     <use transform="translate(212.207031 0.578125)" xlink:href="#DejaVuSans-10217"/>
    </g>
   </g>
   <g id="text_18">
    <!-- $|1,1\rangle$ -->
    <g style="fill:#8c564b;" transform="translate(72.784481 34.875648)scale(0.14 -0.14)">
     <use transform="translate(0 0.578125)" xlink:href="#DejaVuSans-124"/>
     <use transform="translate(33.691406 0.578125)" xlink:href="#DejaVuSans-49"/>
     <use transform="translate(97.314453 0.578125)" xlink:href="#DejaVuSans-44"/>
     <use transform="translate(148.583984 0.578125)" xlink:href="#DejaVuSans-49"/>
     <use transform="translate(212.207031 0.578125)" xlink:href="#DejaVuSans-10217"/>
    </g>
   </g>
   <g id="text_19">
    <!-- $|0,3\rangle$ -->
    <g style="fill:#e377c2;" transform="translate(115.638881 41.79456)scale(0.14 -0.14)">
     <defs>
      <path d="M 40.578125 39.3125 
Q 47.65625 37.796875 51.625 33 
Q 55.609375 28.21875 55.609375 21.1875 
Q 55.609375 10.40625 48.1875 4.484375 
Q 40.765625 -1.421875 27.09375 -1.421875 
Q 22.515625 -1.421875 17.65625 -0.515625 
Q 12.796875 0.390625 7.625 2.203125 
L 7.625 11.71875 
Q 11.71875 9.328125 16.59375 8.109375 
Q 21.484375 6.890625 26.8125 6.890625 
Q 36.078125 6.890625 40.9375 10.546875 
Q 45.796875 14.203125 45.796875 21.1875 
Q 45.796875 27.640625 41.28125 31.265625 
Q 36.765625 34.90625 28.71875 34.90625 
L 20.21875 34.90625 
L 20.21875 43.015625 
L 29.109375 43.015625 
Q 36.375 43.015625 40.234375 45.921875 
Q 44.09375 48.828125 44.09375 54.296875 
Q 44.09375 59.90625 40.109375 62.90625 
Q 36.140625 65.921875 28.71875 65.921875 
Q 24.65625 65.921875 20.015625 65.03125 
Q 15.375 64.15625 9.8125 62.3125 
L 9.8125 71.09375 
Q 15.4375 72.65625 20.34375 73.4375 
Q 25.25 74.21875 29.59375 74.21875 
Q 40.828125 74.21875 47.359375 69.109375 
Q 53.90625 64.015625 53.90625 55.328125 
Q 53.90625 49.265625 50.4375 45.09375 
Q 46.96875 40.921875 40.578125 39.3125 
z
" id="DejaVuSans-51"/>
     </defs>
     <use transform="translate(0 0.578125)" xlink:href="#DejaVuSans-124"/>
     <use transform="translate(33.691406 0.578125)" xlink:href="#DejaVuSans-48"/>
     <use transform="translate(97.314453 0.578125)" xlink:href="#DejaVuSans-44"/>
     <use transform="translate(148.583984 0.578125)" xlink:href="#DejaVuSans-51"/>
     <use transform="translate(212.207031 0.578125)" xlink:href="#DejaVuSans-10217"/>
    </g>
   </g>
  </g>
 </g>
 <defs>
  <clipPath id="p2bbff23bf6">
   <rect height="266.112" width="357.12" x="69.213281" y="7.2"/>
  </clipPath>
 </defs>
</svg>
