<?xml version="1.0" encoding="utf-8" standalone="no"?>
<!DOCTYPE svg PUBLIC "-//W3C//DTD SVG 1.1//EN"
  "http://www.w3.org/Graphics/SVG/1.1/DTD/svg11.dtd">
<!-- Created with matplotlib (https://matplotlib.org/) -->
<svg height="331.128016pt" version="1.1" viewBox="0 0 425.730937 331.128016" width="425.730937pt" xmlns="http://www.w3.org/2000/svg" xmlns:xlink="http://www.w3.org/1999/xlink">
 <defs>
  <style type="text/css">*{stroke-linecap:butt;stroke-linejoin:round;}</style>
 </defs>
 <g id="figure_1">
  <g id="patch_1">
   <path d="M 0 331.128016 
L 425.730937 331.128016 
L 425.730937 0 
L 0 0 
z
" style="fill:none;"/>
  </g>
  <g id="axes_1">
   <g id="patch_2">
    <path d="M 61.410938 279.010828 
L 418.530938 279.010828 
L 418.530938 12.898828 
L 61.410938 12.898828 
z
" style="fill:none;"/>
   </g>
   <g id="matplotlib.axis_1">
    <g id="xtick_1">
     <g id="line2d_1">
      <path clip-path="url(#p304c686b55)" d="M 61.410938 279.010828 
L 61.410938 12.898828 
" style="fill:none;stroke:#b0b0b0;stroke-linecap:square;stroke-width:0.8;"/>
     </g>
     <g id="line2d_2">
      <defs>
       <path d="M 0 0 
L 0 3.5 
" id="m005f0a59be" style="stroke:#000000;stroke-width:0.8;"/>
      </defs>
      <g>
       <use style="stroke:#000000;stroke-width:0.8;" x="61.410938" xlink:href="#m005f0a59be" y="279.010828"/>
      </g>
     </g>
     <g id="text_1">
      <!-- 0 -->
      <g transform="translate(56.639063 297.408484)scale(0.15 -0.15)">
       <defs>
        <path d="M 31.78125 66.40625 
Q 24.171875 66.40625 20.328125 58.90625 
Q 16.5 51.421875 16.5 36.375 
Q 16.5 21.390625 20.328125 13.890625 
Q 24.171875 6.390625 31.78125 6.390625 
Q 39.453125 6.390625 43.28125 13.890625 
Q 47.125 21.390625 47.125 36.375 
Q 47.125 51.421875 43.28125 58.90625 
Q 39.453125 66.40625 31.78125 66.40625 
z
M 31.78125 74.21875 
Q 44.046875 74.21875 50.515625 64.515625 
Q 56.984375 54.828125 56.984375 36.375 
Q 56.984375 17.96875 50.515625 8.265625 
Q 44.046875 -1.421875 31.78125 -1.421875 
Q 19.53125 -1.421875 13.0625 8.265625 
Q 6.59375 17.96875 6.59375 36.375 
Q 6.59375 54.828125 13.0625 64.515625 
Q 19.53125 74.21875 31.78125 74.21875 
z
" id="DejaVuSans-48"/>
       </defs>
       <use xlink:href="#DejaVuSans-48"/>
      </g>
     </g>
    </g>
    <g id="xtick_2">
     <g id="line2d_3">
      <path clip-path="url(#p304c686b55)" d="M 155.389885 279.010828 
L 155.389885 12.898828 
" style="fill:none;stroke:#b0b0b0;stroke-linecap:square;stroke-width:0.8;"/>
     </g>
     <g id="line2d_4">
      <g>
       <use style="stroke:#000000;stroke-width:0.8;" x="155.389885" xlink:href="#m005f0a59be" y="279.010828"/>
      </g>
     </g>
     <g id="text_2">
      <!-- 50 -->
      <g transform="translate(145.846135 297.408484)scale(0.15 -0.15)">
       <defs>
        <path d="M 10.796875 72.90625 
L 49.515625 72.90625 
L 49.515625 64.59375 
L 19.828125 64.59375 
L 19.828125 46.734375 
Q 21.96875 47.46875 24.109375 47.828125 
Q 26.265625 48.1875 28.421875 48.1875 
Q 40.625 48.1875 47.75 41.5 
Q 54.890625 34.8125 54.890625 23.390625 
Q 54.890625 11.625 47.5625 5.09375 
Q 40.234375 -1.421875 26.90625 -1.421875 
Q 22.3125 -1.421875 17.546875 -0.640625 
Q 12.796875 0.140625 7.71875 1.703125 
L 7.71875 11.625 
Q 12.109375 9.234375 16.796875 8.0625 
Q 21.484375 6.890625 26.703125 6.890625 
Q 35.15625 6.890625 40.078125 11.328125 
Q 45.015625 15.765625 45.015625 23.390625 
Q 45.015625 31 40.078125 35.4375 
Q 35.15625 39.890625 26.703125 39.890625 
Q 22.75 39.890625 18.8125 39.015625 
Q 14.890625 38.140625 10.796875 36.28125 
z
" id="DejaVuSans-53"/>
       </defs>
       <use xlink:href="#DejaVuSans-53"/>
       <use x="63.623047" xlink:href="#DejaVuSans-48"/>
      </g>
     </g>
    </g>
    <g id="xtick_3">
     <g id="line2d_5">
      <path clip-path="url(#p304c686b55)" d="M 249.368832 279.010828 
L 249.368832 12.898828 
" style="fill:none;stroke:#b0b0b0;stroke-linecap:square;stroke-width:0.8;"/>
     </g>
     <g id="line2d_6">
      <g>
       <use style="stroke:#000000;stroke-width:0.8;" x="249.368832" xlink:href="#m005f0a59be" y="279.010828"/>
      </g>
     </g>
     <g id="text_3">
      <!-- 100 -->
      <g transform="translate(235.053207 297.408484)scale(0.15 -0.15)">
       <defs>
        <path d="M 12.40625 8.296875 
L 28.515625 8.296875 
L 28.515625 63.921875 
L 10.984375 60.40625 
L 10.984375 69.390625 
L 28.421875 72.90625 
L 38.28125 72.90625 
L 38.28125 8.296875 
L 54.390625 8.296875 
L 54.390625 0 
L 12.40625 0 
z
" id="DejaVuSans-49"/>
       </defs>
       <use xlink:href="#DejaVuSans-49"/>
       <use x="63.623047" xlink:href="#DejaVuSans-48"/>
       <use x="127.246094" xlink:href="#DejaVuSans-48"/>
      </g>
     </g>
    </g>
    <g id="xtick_4">
     <g id="line2d_7">
      <path clip-path="url(#p304c686b55)" d="M 343.34778 279.010828 
L 343.34778 12.898828 
" style="fill:none;stroke:#b0b0b0;stroke-linecap:square;stroke-width:0.8;"/>
     </g>
     <g id="line2d_8">
      <g>
       <use style="stroke:#000000;stroke-width:0.8;" x="343.34778" xlink:href="#m005f0a59be" y="279.010828"/>
      </g>
     </g>
     <g id="text_4">
      <!-- 150 -->
      <g transform="translate(329.032155 297.408484)scale(0.15 -0.15)">
       <use xlink:href="#DejaVuSans-49"/>
       <use x="63.623047" xlink:href="#DejaVuSans-53"/>
       <use x="127.246094" xlink:href="#DejaVuSans-48"/>
      </g>
     </g>
    </g>
    <g id="text_5">
     <!-- Time ($\mu s$) -->
     <g transform="translate(192.570938 319.728016)scale(0.2 -0.2)">
      <defs>
       <path d="M -0.296875 72.90625 
L 61.375 72.90625 
L 61.375 64.59375 
L 35.5 64.59375 
L 35.5 0 
L 25.59375 0 
L 25.59375 64.59375 
L -0.296875 64.59375 
z
" id="DejaVuSans-84"/>
       <path d="M 9.421875 54.6875 
L 18.40625 54.6875 
L 18.40625 0 
L 9.421875 0 
z
M 9.421875 75.984375 
L 18.40625 75.984375 
L 18.40625 64.59375 
L 9.421875 64.59375 
z
" id="DejaVuSans-105"/>
       <path d="M 52 44.1875 
Q 55.375 50.25 60.0625 53.125 
Q 64.75 56 71.09375 56 
Q 79.640625 56 84.28125 50.015625 
Q 88.921875 44.046875 88.921875 33.015625 
L 88.921875 0 
L 79.890625 0 
L 79.890625 32.71875 
Q 79.890625 40.578125 77.09375 44.375 
Q 74.3125 48.1875 68.609375 48.1875 
Q 61.625 48.1875 57.5625 43.546875 
Q 53.515625 38.921875 53.515625 30.90625 
L 53.515625 0 
L 44.484375 0 
L 44.484375 32.71875 
Q 44.484375 40.625 41.703125 44.40625 
Q 38.921875 48.1875 33.109375 48.1875 
Q 26.21875 48.1875 22.15625 43.53125 
Q 18.109375 38.875 18.109375 30.90625 
L 18.109375 0 
L 9.078125 0 
L 9.078125 54.6875 
L 18.109375 54.6875 
L 18.109375 46.1875 
Q 21.1875 51.21875 25.484375 53.609375 
Q 29.78125 56 35.6875 56 
Q 41.65625 56 45.828125 52.96875 
Q 50 49.953125 52 44.1875 
z
" id="DejaVuSans-109"/>
       <path d="M 56.203125 29.59375 
L 56.203125 25.203125 
L 14.890625 25.203125 
Q 15.484375 15.921875 20.484375 11.0625 
Q 25.484375 6.203125 34.421875 6.203125 
Q 39.59375 6.203125 44.453125 7.46875 
Q 49.3125 8.734375 54.109375 11.28125 
L 54.109375 2.78125 
Q 49.265625 0.734375 44.1875 -0.34375 
Q 39.109375 -1.421875 33.890625 -1.421875 
Q 20.796875 -1.421875 13.15625 6.1875 
Q 5.515625 13.8125 5.515625 26.8125 
Q 5.515625 40.234375 12.765625 48.109375 
Q 20.015625 56 32.328125 56 
Q 43.359375 56 49.78125 48.890625 
Q 56.203125 41.796875 56.203125 29.59375 
z
M 47.21875 32.234375 
Q 47.125 39.59375 43.09375 43.984375 
Q 39.0625 48.390625 32.421875 48.390625 
Q 24.90625 48.390625 20.390625 44.140625 
Q 15.875 39.890625 15.1875 32.171875 
z
" id="DejaVuSans-101"/>
       <path id="DejaVuSans-32"/>
       <path d="M 31 75.875 
Q 24.46875 64.65625 21.28125 53.65625 
Q 18.109375 42.671875 18.109375 31.390625 
Q 18.109375 20.125 21.3125 9.0625 
Q 24.515625 -2 31 -13.1875 
L 23.1875 -13.1875 
Q 15.875 -1.703125 12.234375 9.375 
Q 8.59375 20.453125 8.59375 31.390625 
Q 8.59375 42.28125 12.203125 53.3125 
Q 15.828125 64.359375 23.1875 75.875 
z
" id="DejaVuSans-40"/>
       <path d="M -1.3125 -20.796875 
L 13.375 54.6875 
L 22.40625 54.6875 
L 15.765625 20.65625 
Q 15.578125 19.625 15.421875 18.359375 
Q 15.28125 17.09375 15.28125 15.828125 
Q 15.28125 11.28125 18.140625 8.828125 
Q 21 6.390625 26.3125 6.390625 
Q 33.546875 6.390625 37.984375 10.484375 
Q 42.4375 14.59375 44 22.796875 
L 50.203125 54.6875 
L 59.1875 54.6875 
L 51.03125 12.640625 
Q 50.828125 11.71875 50.75 11.03125 
Q 50.6875 10.359375 50.6875 9.8125 
Q 50.6875 8.296875 51.296875 7.59375 
Q 51.90625 6.890625 53.21875 6.890625 
Q 53.71875 6.890625 54.5625 7.125 
Q 55.421875 7.375 56.984375 8.015625 
L 55.609375 0.78125 
Q 53.46875 -0.296875 51.515625 -0.859375 
Q 49.5625 -1.421875 47.703125 -1.421875 
Q 44.484375 -1.421875 42.65625 0.625 
Q 40.828125 2.6875 40.828125 6.296875 
Q 38.09375 2.390625 34.296875 0.484375 
Q 30.515625 -1.421875 25.390625 -1.421875 
Q 20.84375 -1.421875 17.453125 0.671875 
Q 14.0625 2.78125 12.984375 6.203125 
L 7.71875 -20.796875 
z
" id="DejaVuSans-Oblique-956"/>
       <path d="M 50 53.078125 
L 48.296875 44.578125 
Q 44.734375 46.53125 40.765625 47.5 
Q 36.8125 48.484375 32.625 48.484375 
Q 25.53125 48.484375 21.453125 46.0625 
Q 17.390625 43.65625 17.390625 39.5 
Q 17.390625 34.671875 26.859375 32.078125 
Q 27.59375 31.890625 27.9375 31.78125 
L 30.8125 30.90625 
Q 39.796875 28.421875 42.796875 25.6875 
Q 45.796875 22.953125 45.796875 18.21875 
Q 45.796875 9.515625 38.890625 4.046875 
Q 31.984375 -1.421875 20.796875 -1.421875 
Q 16.453125 -1.421875 11.671875 -0.578125 
Q 6.890625 0.25 1.125 2 
L 2.875 11.28125 
Q 7.8125 8.734375 12.59375 7.421875 
Q 17.390625 6.109375 21.78125 6.109375 
Q 28.375 6.109375 32.5 8.9375 
Q 36.625 11.765625 36.625 16.109375 
Q 36.625 20.796875 25.78125 23.6875 
L 24.859375 23.921875 
L 21.78125 24.703125 
Q 14.9375 26.515625 11.765625 29.46875 
Q 8.59375 32.421875 8.59375 37.015625 
Q 8.59375 45.75 15.15625 50.875 
Q 21.734375 56 33.015625 56 
Q 37.453125 56 41.671875 55.265625 
Q 45.90625 54.546875 50 53.078125 
z
" id="DejaVuSans-Oblique-115"/>
       <path d="M 8.015625 75.875 
L 15.828125 75.875 
Q 23.140625 64.359375 26.78125 53.3125 
Q 30.421875 42.28125 30.421875 31.390625 
Q 30.421875 20.453125 26.78125 9.375 
Q 23.140625 -1.703125 15.828125 -13.1875 
L 8.015625 -13.1875 
Q 14.5 -2 17.703125 9.0625 
Q 20.90625 20.125 20.90625 31.390625 
Q 20.90625 42.671875 17.703125 53.65625 
Q 14.5 64.65625 8.015625 75.875 
z
" id="DejaVuSans-41"/>
      </defs>
      <use transform="translate(0 0.015625)" xlink:href="#DejaVuSans-84"/>
      <use transform="translate(61.083984 0.015625)" xlink:href="#DejaVuSans-105"/>
      <use transform="translate(88.867188 0.015625)" xlink:href="#DejaVuSans-109"/>
      <use transform="translate(186.279297 0.015625)" xlink:href="#DejaVuSans-101"/>
      <use transform="translate(247.802734 0.015625)" xlink:href="#DejaVuSans-32"/>
      <use transform="translate(279.589844 0.015625)" xlink:href="#DejaVuSans-40"/>
      <use transform="translate(318.603516 0.015625)" xlink:href="#DejaVuSans-Oblique-956"/>
      <use transform="translate(382.226562 0.015625)" xlink:href="#DejaVuSans-Oblique-115"/>
      <use transform="translate(434.326172 0.015625)" xlink:href="#DejaVuSans-41"/>
     </g>
    </g>
   </g>
   <g id="matplotlib.axis_2">
    <g id="ytick_1">
     <g id="line2d_9">
      <path clip-path="url(#p304c686b55)" d="M 61.410938 279.010828 
L 418.530938 279.010828 
" style="fill:none;stroke:#b0b0b0;stroke-linecap:square;stroke-width:0.8;"/>
     </g>
     <g id="line2d_10">
      <defs>
       <path d="M 0 0 
L -3.5 0 
" id="mc3ce260a5b" style="stroke:#000000;stroke-width:0.8;"/>
      </defs>
      <g>
       <use style="stroke:#000000;stroke-width:0.8;" x="61.410938" xlink:href="#mc3ce260a5b" y="279.010828"/>
      </g>
     </g>
     <g id="text_6">
      <!-- 0.0 -->
      <g transform="translate(30.55625 284.709656)scale(0.15 -0.15)">
       <defs>
        <path d="M 10.6875 12.40625 
L 21 12.40625 
L 21 0 
L 10.6875 0 
z
" id="DejaVuSans-46"/>
       </defs>
       <use xlink:href="#DejaVuSans-48"/>
       <use x="63.623047" xlink:href="#DejaVuSans-46"/>
       <use x="95.410156" xlink:href="#DejaVuSans-48"/>
      </g>
     </g>
    </g>
    <g id="ytick_2">
     <g id="line2d_11">
      <path clip-path="url(#p304c686b55)" d="M 61.410938 225.788428 
L 418.530938 225.788428 
" style="fill:none;stroke:#b0b0b0;stroke-linecap:square;stroke-width:0.8;"/>
     </g>
     <g id="line2d_12">
      <g>
       <use style="stroke:#000000;stroke-width:0.8;" x="61.410938" xlink:href="#mc3ce260a5b" y="225.788428"/>
      </g>
     </g>
     <g id="text_7">
      <!-- 0.2 -->
      <g transform="translate(30.55625 231.487256)scale(0.15 -0.15)">
       <defs>
        <path d="M 19.1875 8.296875 
L 53.609375 8.296875 
L 53.609375 0 
L 7.328125 0 
L 7.328125 8.296875 
Q 12.9375 14.109375 22.625 23.890625 
Q 32.328125 33.6875 34.8125 36.53125 
Q 39.546875 41.84375 41.421875 45.53125 
Q 43.3125 49.21875 43.3125 52.78125 
Q 43.3125 58.59375 39.234375 62.25 
Q 35.15625 65.921875 28.609375 65.921875 
Q 23.96875 65.921875 18.8125 64.3125 
Q 13.671875 62.703125 7.8125 59.421875 
L 7.8125 69.390625 
Q 13.765625 71.78125 18.9375 73 
Q 24.125 74.21875 28.421875 74.21875 
Q 39.75 74.21875 46.484375 68.546875 
Q 53.21875 62.890625 53.21875 53.421875 
Q 53.21875 48.921875 51.53125 44.890625 
Q 49.859375 40.875 45.40625 35.40625 
Q 44.1875 33.984375 37.640625 27.21875 
Q 31.109375 20.453125 19.1875 8.296875 
z
" id="DejaVuSans-50"/>
       </defs>
       <use xlink:href="#DejaVuSans-48"/>
       <use x="63.623047" xlink:href="#DejaVuSans-46"/>
       <use x="95.410156" xlink:href="#DejaVuSans-50"/>
      </g>
     </g>
    </g>
    <g id="ytick_3">
     <g id="line2d_13">
      <path clip-path="url(#p304c686b55)" d="M 61.410938 172.566028 
L 418.530938 172.566028 
" style="fill:none;stroke:#b0b0b0;stroke-linecap:square;stroke-width:0.8;"/>
     </g>
     <g id="line2d_14">
      <g>
       <use style="stroke:#000000;stroke-width:0.8;" x="61.410938" xlink:href="#mc3ce260a5b" y="172.566028"/>
      </g>
     </g>
     <g id="text_8">
      <!-- 0.4 -->
      <g transform="translate(30.55625 178.264856)scale(0.15 -0.15)">
       <defs>
        <path d="M 37.796875 64.3125 
L 12.890625 25.390625 
L 37.796875 25.390625 
z
M 35.203125 72.90625 
L 47.609375 72.90625 
L 47.609375 25.390625 
L 58.015625 25.390625 
L 58.015625 17.1875 
L 47.609375 17.1875 
L 47.609375 0 
L 37.796875 0 
L 37.796875 17.1875 
L 4.890625 17.1875 
L 4.890625 26.703125 
z
" id="DejaVuSans-52"/>
       </defs>
       <use xlink:href="#DejaVuSans-48"/>
       <use x="63.623047" xlink:href="#DejaVuSans-46"/>
       <use x="95.410156" xlink:href="#DejaVuSans-52"/>
      </g>
     </g>
    </g>
    <g id="ytick_4">
     <g id="line2d_15">
      <path clip-path="url(#p304c686b55)" d="M 61.410938 119.343628 
L 418.530938 119.343628 
" style="fill:none;stroke:#b0b0b0;stroke-linecap:square;stroke-width:0.8;"/>
     </g>
     <g id="line2d_16">
      <g>
       <use style="stroke:#000000;stroke-width:0.8;" x="61.410938" xlink:href="#mc3ce260a5b" y="119.343628"/>
      </g>
     </g>
     <g id="text_9">
      <!-- 0.6 -->
      <g transform="translate(30.55625 125.042456)scale(0.15 -0.15)">
       <defs>
        <path d="M 33.015625 40.375 
Q 26.375 40.375 22.484375 35.828125 
Q 18.609375 31.296875 18.609375 23.390625 
Q 18.609375 15.53125 22.484375 10.953125 
Q 26.375 6.390625 33.015625 6.390625 
Q 39.65625 6.390625 43.53125 10.953125 
Q 47.40625 15.53125 47.40625 23.390625 
Q 47.40625 31.296875 43.53125 35.828125 
Q 39.65625 40.375 33.015625 40.375 
z
M 52.59375 71.296875 
L 52.59375 62.3125 
Q 48.875 64.0625 45.09375 64.984375 
Q 41.3125 65.921875 37.59375 65.921875 
Q 27.828125 65.921875 22.671875 59.328125 
Q 17.53125 52.734375 16.796875 39.40625 
Q 19.671875 43.65625 24.015625 45.921875 
Q 28.375 48.1875 33.59375 48.1875 
Q 44.578125 48.1875 50.953125 41.515625 
Q 57.328125 34.859375 57.328125 23.390625 
Q 57.328125 12.15625 50.6875 5.359375 
Q 44.046875 -1.421875 33.015625 -1.421875 
Q 20.359375 -1.421875 13.671875 8.265625 
Q 6.984375 17.96875 6.984375 36.375 
Q 6.984375 53.65625 15.1875 63.9375 
Q 23.390625 74.21875 37.203125 74.21875 
Q 40.921875 74.21875 44.703125 73.484375 
Q 48.484375 72.75 52.59375 71.296875 
z
" id="DejaVuSans-54"/>
       </defs>
       <use xlink:href="#DejaVuSans-48"/>
       <use x="63.623047" xlink:href="#DejaVuSans-46"/>
       <use x="95.410156" xlink:href="#DejaVuSans-54"/>
      </g>
     </g>
    </g>
    <g id="ytick_5">
     <g id="line2d_17">
      <path clip-path="url(#p304c686b55)" d="M 61.410938 66.121228 
L 418.530938 66.121228 
" style="fill:none;stroke:#b0b0b0;stroke-linecap:square;stroke-width:0.8;"/>
     </g>
     <g id="line2d_18">
      <g>
       <use style="stroke:#000000;stroke-width:0.8;" x="61.410938" xlink:href="#mc3ce260a5b" y="66.121228"/>
      </g>
     </g>
     <g id="text_10">
      <!-- 0.8 -->
      <g transform="translate(30.55625 71.820056)scale(0.15 -0.15)">
       <defs>
        <path d="M 31.78125 34.625 
Q 24.75 34.625 20.71875 30.859375 
Q 16.703125 27.09375 16.703125 20.515625 
Q 16.703125 13.921875 20.71875 10.15625 
Q 24.75 6.390625 31.78125 6.390625 
Q 38.8125 6.390625 42.859375 10.171875 
Q 46.921875 13.96875 46.921875 20.515625 
Q 46.921875 27.09375 42.890625 30.859375 
Q 38.875 34.625 31.78125 34.625 
z
M 21.921875 38.8125 
Q 15.578125 40.375 12.03125 44.71875 
Q 8.5 49.078125 8.5 55.328125 
Q 8.5 64.0625 14.71875 69.140625 
Q 20.953125 74.21875 31.78125 74.21875 
Q 42.671875 74.21875 48.875 69.140625 
Q 55.078125 64.0625 55.078125 55.328125 
Q 55.078125 49.078125 51.53125 44.71875 
Q 48 40.375 41.703125 38.8125 
Q 48.828125 37.15625 52.796875 32.3125 
Q 56.78125 27.484375 56.78125 20.515625 
Q 56.78125 9.90625 50.3125 4.234375 
Q 43.84375 -1.421875 31.78125 -1.421875 
Q 19.734375 -1.421875 13.25 4.234375 
Q 6.78125 9.90625 6.78125 20.515625 
Q 6.78125 27.484375 10.78125 32.3125 
Q 14.796875 37.15625 21.921875 38.8125 
z
M 18.3125 54.390625 
Q 18.3125 48.734375 21.84375 45.5625 
Q 25.390625 42.390625 31.78125 42.390625 
Q 38.140625 42.390625 41.71875 45.5625 
Q 45.3125 48.734375 45.3125 54.390625 
Q 45.3125 60.0625 41.71875 63.234375 
Q 38.140625 66.40625 31.78125 66.40625 
Q 25.390625 66.40625 21.84375 63.234375 
Q 18.3125 60.0625 18.3125 54.390625 
z
" id="DejaVuSans-56"/>
       </defs>
       <use xlink:href="#DejaVuSans-48"/>
       <use x="63.623047" xlink:href="#DejaVuSans-46"/>
       <use x="95.410156" xlink:href="#DejaVuSans-56"/>
      </g>
     </g>
    </g>
    <g id="ytick_6">
     <g id="line2d_19">
      <path clip-path="url(#p304c686b55)" d="M 61.410938 12.898828 
L 418.530938 12.898828 
" style="fill:none;stroke:#b0b0b0;stroke-linecap:square;stroke-width:0.8;"/>
     </g>
     <g id="line2d_20">
      <g>
       <use style="stroke:#000000;stroke-width:0.8;" x="61.410938" xlink:href="#mc3ce260a5b" y="12.898828"/>
      </g>
     </g>
     <g id="text_11">
      <!-- 1.0 -->
      <g transform="translate(30.55625 18.597656)scale(0.15 -0.15)">
       <use xlink:href="#DejaVuSans-49"/>
       <use x="63.623047" xlink:href="#DejaVuSans-46"/>
       <use x="95.410156" xlink:href="#DejaVuSans-48"/>
      </g>
     </g>
    </g>
    <g id="text_12">
     <!-- F=1 population -->
     <g transform="translate(22.396875 222.840766)rotate(-90)scale(0.2 -0.2)">
      <defs>
       <path d="M 9.8125 72.90625 
L 51.703125 72.90625 
L 51.703125 64.59375 
L 19.671875 64.59375 
L 19.671875 43.109375 
L 48.578125 43.109375 
L 48.578125 34.8125 
L 19.671875 34.8125 
L 19.671875 0 
L 9.8125 0 
z
" id="DejaVuSans-70"/>
       <path d="M 10.59375 45.40625 
L 73.1875 45.40625 
L 73.1875 37.203125 
L 10.59375 37.203125 
z
M 10.59375 25.484375 
L 73.1875 25.484375 
L 73.1875 17.1875 
L 10.59375 17.1875 
z
" id="DejaVuSans-61"/>
       <path d="M 18.109375 8.203125 
L 18.109375 -20.796875 
L 9.078125 -20.796875 
L 9.078125 54.6875 
L 18.109375 54.6875 
L 18.109375 46.390625 
Q 20.953125 51.265625 25.265625 53.625 
Q 29.59375 56 35.59375 56 
Q 45.5625 56 51.78125 48.09375 
Q 58.015625 40.1875 58.015625 27.296875 
Q 58.015625 14.40625 51.78125 6.484375 
Q 45.5625 -1.421875 35.59375 -1.421875 
Q 29.59375 -1.421875 25.265625 0.953125 
Q 20.953125 3.328125 18.109375 8.203125 
z
M 48.6875 27.296875 
Q 48.6875 37.203125 44.609375 42.84375 
Q 40.53125 48.484375 33.40625 48.484375 
Q 26.265625 48.484375 22.1875 42.84375 
Q 18.109375 37.203125 18.109375 27.296875 
Q 18.109375 17.390625 22.1875 11.75 
Q 26.265625 6.109375 33.40625 6.109375 
Q 40.53125 6.109375 44.609375 11.75 
Q 48.6875 17.390625 48.6875 27.296875 
z
" id="DejaVuSans-112"/>
       <path d="M 30.609375 48.390625 
Q 23.390625 48.390625 19.1875 42.75 
Q 14.984375 37.109375 14.984375 27.296875 
Q 14.984375 17.484375 19.15625 11.84375 
Q 23.34375 6.203125 30.609375 6.203125 
Q 37.796875 6.203125 41.984375 11.859375 
Q 46.1875 17.53125 46.1875 27.296875 
Q 46.1875 37.015625 41.984375 42.703125 
Q 37.796875 48.390625 30.609375 48.390625 
z
M 30.609375 56 
Q 42.328125 56 49.015625 48.375 
Q 55.71875 40.765625 55.71875 27.296875 
Q 55.71875 13.875 49.015625 6.21875 
Q 42.328125 -1.421875 30.609375 -1.421875 
Q 18.84375 -1.421875 12.171875 6.21875 
Q 5.515625 13.875 5.515625 27.296875 
Q 5.515625 40.765625 12.171875 48.375 
Q 18.84375 56 30.609375 56 
z
" id="DejaVuSans-111"/>
       <path d="M 8.5 21.578125 
L 8.5 54.6875 
L 17.484375 54.6875 
L 17.484375 21.921875 
Q 17.484375 14.15625 20.5 10.265625 
Q 23.53125 6.390625 29.59375 6.390625 
Q 36.859375 6.390625 41.078125 11.03125 
Q 45.3125 15.671875 45.3125 23.6875 
L 45.3125 54.6875 
L 54.296875 54.6875 
L 54.296875 0 
L 45.3125 0 
L 45.3125 8.40625 
Q 42.046875 3.421875 37.71875 1 
Q 33.40625 -1.421875 27.6875 -1.421875 
Q 18.265625 -1.421875 13.375 4.4375 
Q 8.5 10.296875 8.5 21.578125 
z
M 31.109375 56 
z
" id="DejaVuSans-117"/>
       <path d="M 9.421875 75.984375 
L 18.40625 75.984375 
L 18.40625 0 
L 9.421875 0 
z
" id="DejaVuSans-108"/>
       <path d="M 34.28125 27.484375 
Q 23.390625 27.484375 19.1875 25 
Q 14.984375 22.515625 14.984375 16.5 
Q 14.984375 11.71875 18.140625 8.90625 
Q 21.296875 6.109375 26.703125 6.109375 
Q 34.1875 6.109375 38.703125 11.40625 
Q 43.21875 16.703125 43.21875 25.484375 
L 43.21875 27.484375 
z
M 52.203125 31.203125 
L 52.203125 0 
L 43.21875 0 
L 43.21875 8.296875 
Q 40.140625 3.328125 35.546875 0.953125 
Q 30.953125 -1.421875 24.3125 -1.421875 
Q 15.921875 -1.421875 10.953125 3.296875 
Q 6 8.015625 6 15.921875 
Q 6 25.140625 12.171875 29.828125 
Q 18.359375 34.515625 30.609375 34.515625 
L 43.21875 34.515625 
L 43.21875 35.40625 
Q 43.21875 41.609375 39.140625 45 
Q 35.0625 48.390625 27.6875 48.390625 
Q 23 48.390625 18.546875 47.265625 
Q 14.109375 46.140625 10.015625 43.890625 
L 10.015625 52.203125 
Q 14.9375 54.109375 19.578125 55.046875 
Q 24.21875 56 28.609375 56 
Q 40.484375 56 46.34375 49.84375 
Q 52.203125 43.703125 52.203125 31.203125 
z
" id="DejaVuSans-97"/>
       <path d="M 18.3125 70.21875 
L 18.3125 54.6875 
L 36.8125 54.6875 
L 36.8125 47.703125 
L 18.3125 47.703125 
L 18.3125 18.015625 
Q 18.3125 11.328125 20.140625 9.421875 
Q 21.96875 7.515625 27.59375 7.515625 
L 36.8125 7.515625 
L 36.8125 0 
L 27.59375 0 
Q 17.1875 0 13.234375 3.875 
Q 9.28125 7.765625 9.28125 18.015625 
L 9.28125 47.703125 
L 2.6875 47.703125 
L 2.6875 54.6875 
L 9.28125 54.6875 
L 9.28125 70.21875 
z
" id="DejaVuSans-116"/>
       <path d="M 54.890625 33.015625 
L 54.890625 0 
L 45.90625 0 
L 45.90625 32.71875 
Q 45.90625 40.484375 42.875 44.328125 
Q 39.84375 48.1875 33.796875 48.1875 
Q 26.515625 48.1875 22.3125 43.546875 
Q 18.109375 38.921875 18.109375 30.90625 
L 18.109375 0 
L 9.078125 0 
L 9.078125 54.6875 
L 18.109375 54.6875 
L 18.109375 46.1875 
Q 21.34375 51.125 25.703125 53.5625 
Q 30.078125 56 35.796875 56 
Q 45.21875 56 50.046875 50.171875 
Q 54.890625 44.34375 54.890625 33.015625 
z
" id="DejaVuSans-110"/>
      </defs>
      <use xlink:href="#DejaVuSans-70"/>
      <use x="57.519531" xlink:href="#DejaVuSans-61"/>
      <use x="141.308594" xlink:href="#DejaVuSans-49"/>
      <use x="204.931641" xlink:href="#DejaVuSans-32"/>
      <use x="236.71875" xlink:href="#DejaVuSans-112"/>
      <use x="300.195312" xlink:href="#DejaVuSans-111"/>
      <use x="361.376953" xlink:href="#DejaVuSans-112"/>
      <use x="424.853516" xlink:href="#DejaVuSans-117"/>
      <use x="488.232422" xlink:href="#DejaVuSans-108"/>
      <use x="516.015625" xlink:href="#DejaVuSans-97"/>
      <use x="577.294922" xlink:href="#DejaVuSans-116"/>
      <use x="616.503906" xlink:href="#DejaVuSans-105"/>
      <use x="644.287109" xlink:href="#DejaVuSans-111"/>
      <use x="705.46875" xlink:href="#DejaVuSans-110"/>
     </g>
    </g>
   </g>
   <g id="LineCollection_1">
    <path clip-path="url(#p304c686b55)" d="M 61.410938 279.010828 
L 61.410938 277.828108 
" style="fill:none;stroke:#1f77b4;stroke-width:1.5;"/>
    <path clip-path="url(#p304c686b55)" d="M 72.688411 233.724327 
L 72.688411 219.11973 
" style="fill:none;stroke:#1f77b4;stroke-width:1.5;"/>
    <path clip-path="url(#p304c686b55)" d="M 83.965885 143.396797 
L 83.965885 126.244073 
" style="fill:none;stroke:#1f77b4;stroke-width:1.5;"/>
    <path clip-path="url(#p304c686b55)" d="M 95.243359 47.534715 
L 95.243359 36.474941 
" style="fill:none;stroke:#1f77b4;stroke-width:1.5;"/>
    <path clip-path="url(#p304c686b55)" d="M 106.520832 49.304225 
L 106.520832 37.504475 
" style="fill:none;stroke:#1f77b4;stroke-width:1.5;"/>
    <path clip-path="url(#p304c686b55)" d="M 117.798306 122.5775 
L 117.798306 104.970184 
" style="fill:none;stroke:#1f77b4;stroke-width:1.5;"/>
    <path clip-path="url(#p304c686b55)" d="M 129.07578 189.370912 
L 129.07578 171.851637 
" style="fill:none;stroke:#1f77b4;stroke-width:1.5;"/>
    <path clip-path="url(#p304c686b55)" d="M 140.353253 227.574564 
L 140.353253 212.835092 
" style="fill:none;stroke:#1f77b4;stroke-width:1.5;"/>
    <path clip-path="url(#p304c686b55)" d="M 151.630727 198.254093 
L 151.630727 181.986858 
" style="fill:none;stroke:#1f77b4;stroke-width:1.5;"/>
    <path clip-path="url(#p304c686b55)" d="M 162.908201 120.373779 
L 162.908201 103.592388 
" style="fill:none;stroke:#1f77b4;stroke-width:1.5;"/>
    <path clip-path="url(#p304c686b55)" d="M 174.185674 61.376425 
L 174.185674 48.127823 
" style="fill:none;stroke:#1f77b4;stroke-width:1.5;"/>
    <path clip-path="url(#p304c686b55)" d="M 185.463148 46.173713 
L 185.463148 35.705397 
" style="fill:none;stroke:#1f77b4;stroke-width:1.5;"/>
    <path clip-path="url(#p304c686b55)" d="M 196.740622 94.710697 
L 196.740622 78.21619 
" style="fill:none;stroke:#1f77b4;stroke-width:1.5;"/>
    <path clip-path="url(#p304c686b55)" d="M 208.018095 150.091357 
L 208.018095 132.439903 
" style="fill:none;stroke:#1f77b4;stroke-width:1.5;"/>
    <path clip-path="url(#p304c686b55)" d="M 219.295569 246.578381 
L 219.295569 233.827275 
" style="fill:none;stroke:#1f77b4;stroke-width:1.5;"/>
    <path clip-path="url(#p304c686b55)" d="M 230.573043 249.424998 
L 230.573043 237.230258 
" style="fill:none;stroke:#1f77b4;stroke-width:1.5;"/>
    <path clip-path="url(#p304c686b55)" d="M 241.850516 181.294811 
L 241.850516 164.069658 
" style="fill:none;stroke:#1f77b4;stroke-width:1.5;"/>
    <path clip-path="url(#p304c686b55)" d="M 253.12799 79.517377 
L 253.12799 64.414111 
" style="fill:none;stroke:#1f77b4;stroke-width:1.5;"/>
    <path clip-path="url(#p304c686b55)" d="M 264.405464 45.769903 
L 264.405464 35.422496 
" style="fill:none;stroke:#1f77b4;stroke-width:1.5;"/>
    <path clip-path="url(#p304c686b55)" d="M 275.682938 90.201979 
L 275.682938 74.591677 
" style="fill:none;stroke:#1f77b4;stroke-width:1.5;"/>
    <path clip-path="url(#p304c686b55)" d="M 286.960411 179.448594 
L 286.960411 162.212436 
" style="fill:none;stroke:#1f77b4;stroke-width:1.5;"/>
    <path clip-path="url(#p304c686b55)" d="M 298.237885 252.031273 
L 298.237885 240.08414 
" style="fill:none;stroke:#1f77b4;stroke-width:1.5;"/>
    <path clip-path="url(#p304c686b55)" d="M 309.515359 234.759467 
L 309.515359 220.820844 
" style="fill:none;stroke:#1f77b4;stroke-width:1.5;"/>
    <path clip-path="url(#p304c686b55)" d="M 320.792832 170.005568 
L 320.792832 151.888539 
" style="fill:none;stroke:#1f77b4;stroke-width:1.5;"/>
    <path clip-path="url(#p304c686b55)" d="M 332.070306 81.447616 
L 332.070306 66.108833 
" style="fill:none;stroke:#1f77b4;stroke-width:1.5;"/>
    <path clip-path="url(#p304c686b55)" d="M 343.34778 41.520484 
L 343.34778 31.163572 
" style="fill:none;stroke:#1f77b4;stroke-width:1.5;"/>
    <path clip-path="url(#p304c686b55)" d="M 354.625253 69.126463 
L 354.625253 55.61027 
" style="fill:none;stroke:#1f77b4;stroke-width:1.5;"/>
    <path clip-path="url(#p304c686b55)" d="M 365.902727 143.028574 
L 365.902727 125.435091 
" style="fill:none;stroke:#1f77b4;stroke-width:1.5;"/>
    <path clip-path="url(#p304c686b55)" d="M 377.180201 216.170886 
L 377.180201 200.32757 
" style="fill:none;stroke:#1f77b4;stroke-width:1.5;"/>
    <path clip-path="url(#p304c686b55)" d="M 388.457674 232.381492 
L 388.457674 217.985764 
" style="fill:none;stroke:#1f77b4;stroke-width:1.5;"/>
    <path clip-path="url(#p304c686b55)" d="M 399.735148 185.207707 
L 399.735148 168.537103 
" style="fill:none;stroke:#1f77b4;stroke-width:1.5;"/>
   </g>
   <g id="LineCollection_2">
    <path clip-path="url(#p304c686b55)" d="M 61.410938 274.780846 
L 61.410938 267.789145 
" style="fill:none;stroke:#d62728;stroke-width:1.5;"/>
    <path clip-path="url(#p304c686b55)" d="M 72.688411 205.362532 
L 72.688411 186.339125 
" style="fill:none;stroke:#d62728;stroke-width:1.5;"/>
    <path clip-path="url(#p304c686b55)" d="M 83.965885 83.68147 
L 83.965885 65.078282 
" style="fill:none;stroke:#d62728;stroke-width:1.5;"/>
    <path clip-path="url(#p304c686b55)" d="M 95.243359 116.112645 
L 95.243359 96.287938 
" style="fill:none;stroke:#d62728;stroke-width:1.5;"/>
    <path clip-path="url(#p304c686b55)" d="M 106.520832 196.713543 
L 106.520832 176.692913 
" style="fill:none;stroke:#d62728;stroke-width:1.5;"/>
    <path clip-path="url(#p304c686b55)" d="M 117.798306 159.743592 
L 117.798306 138.777543 
" style="fill:none;stroke:#d62728;stroke-width:1.5;"/>
    <path clip-path="url(#p304c686b55)" d="M 129.07578 139.971453 
L 129.07578 119.286424 
" style="fill:none;stroke:#d62728;stroke-width:1.5;"/>
    <path clip-path="url(#p304c686b55)" d="M 140.353253 186.753956 
L 140.353253 165.304303 
" style="fill:none;stroke:#d62728;stroke-width:1.5;"/>
    <path clip-path="url(#p304c686b55)" d="M 151.630727 157.155879 
L 151.630727 136.376412 
" style="fill:none;stroke:#d62728;stroke-width:1.5;"/>
    <path clip-path="url(#p304c686b55)" d="M 162.908201 153.229479 
L 162.908201 131.723001 
" style="fill:none;stroke:#d62728;stroke-width:1.5;"/>
    <path clip-path="url(#p304c686b55)" d="M 174.185674 126.605353 
L 174.185674 105.1557 
" style="fill:none;stroke:#d62728;stroke-width:1.5;"/>
    <path clip-path="url(#p304c686b55)" d="M 185.463148 141.224476 
L 185.463148 120.943251 
" style="fill:none;stroke:#d62728;stroke-width:1.5;"/>
    <path clip-path="url(#p304c686b55)" d="M 196.740622 137.351633 
L 196.740622 114.541182 
" style="fill:none;stroke:#d62728;stroke-width:1.5;"/>
    <path clip-path="url(#p304c686b55)" d="M 208.018095 152.33771 
L 208.018095 131.042715 
" style="fill:none;stroke:#d62728;stroke-width:1.5;"/>
    <path clip-path="url(#p304c686b55)" d="M 219.295569 182.191503 
L 219.295569 161.223702 
" style="fill:none;stroke:#d62728;stroke-width:1.5;"/>
    <path clip-path="url(#p304c686b55)" d="M 230.573043 215.607072 
L 230.573043 196.806131 
" style="fill:none;stroke:#d62728;stroke-width:1.5;"/>
   </g>
   <g id="line2d_21">
    <path clip-path="url(#p304c686b55)" d="M 61.410938 278.518987 
L 62.482298 278.518987 
L 62.839418 277.530367 
L 63.196538 278.147587 
L 63.553658 276.652764 
L 63.910778 276.592337 
L 64.625018 274.567986 
L 64.982138 274.048236 
L 66.767738 266.785877 
L 67.124858 266.37366 
L 67.839098 262.495548 
L 68.196218 261.228748 
L 68.910458 256.490186 
L 69.267578 255.630481 
L 69.624698 253.891776 
L 70.696058 245.890218 
L 71.053178 244.316668 
L 72.124538 236.187088 
L 75.695738 207.128855 
L 81.052538 156.776212 
L 81.409658 152.051398 
L 82.123898 145.796243 
L 82.838138 137.684359 
L 83.195258 135.581328 
L 84.980858 118.271061 
L 85.695098 112.519314 
L 86.052218 108.008306 
L 86.409338 105.782961 
L 87.123578 98.551565 
L 87.480698 95.752648 
L 87.837818 94.180254 
L 88.552058 86.566956 
L 88.909178 84.876211 
L 89.266298 80.984006 
L 89.980538 76.771369 
L 90.337658 73.428756 
L 90.694778 71.864311 
L 91.051898 68.562276 
L 92.123258 62.145053 
L 92.480378 59.774748 
L 92.837498 58.388436 
L 93.194618 55.320465 
L 93.551738 53.982582 
L 93.908858 51.368366 
L 94.623098 48.560139 
L 94.980218 46.221297 
L 95.337338 45.545942 
L 95.694458 43.064124 
L 96.051578 43.01556 
L 96.765818 39.11321 
L 97.122938 39.474497 
L 97.480058 37.477623 
L 97.837178 37.030043 
L 98.194298 36.299534 
L 98.551418 34.185883 
L 98.908538 34.489369 
L 99.265658 35.415598 
L 99.622778 33.988403 
L 99.979898 33.848204 
L 100.337018 33.353806 
L 101.051258 33.097818 
L 101.408378 32.354885 
L 101.765498 33.134388 
L 102.122618 33.353806 
L 102.479738 32.437165 
L 103.551098 35.985231 
L 103.908218 35.763182 
L 104.265338 36.038605 
L 104.622458 37.174545 
L 105.336698 38.862606 
L 105.693818 40.989321 
L 106.050938 41.413016 
L 106.765178 43.413356 
L 107.122298 44.826295 
L 108.550778 52.177391 
L 108.907898 53.449531 
L 110.693498 63.701323 
L 111.050618 67.380809 
L 111.407738 68.438062 
L 112.479098 75.544158 
L 113.193338 81.548884 
L 113.550458 84.224493 
L 113.907578 85.327641 
L 114.978938 94.976015 
L 115.336058 96.866205 
L 116.050298 103.635854 
L 117.478778 115.809738 
L 117.835898 118.149719 
L 118.193018 122.781457 
L 118.550138 124.792101 
L 119.264378 131.882391 
L 122.121338 157.423759 
L 122.835578 163.766888 
L 123.192698 168.342211 
L 123.549818 169.625699 
L 124.264058 176.872724 
L 124.621178 178.873667 
L 126.049658 191.035909 
L 127.121018 200.097292 
L 127.478138 202.297803 
L 128.549498 211.718321 
L 129.263738 215.402216 
L 129.620858 219.222251 
L 131.406458 231.357404 
L 131.763578 232.749534 
L 133.549178 243.828259 
L 134.263418 245.793233 
L 134.620538 248.299943 
L 134.977658 249.255516 
L 135.334778 251.091465 
L 135.691898 251.944313 
L 136.049018 254.701403 
L 136.406138 254.724638 
L 137.120378 257.254319 
L 137.477498 259.157104 
L 137.834618 259.955537 
L 138.191738 259.812425 
L 138.905978 261.667516 
L 139.263098 262.199696 
L 139.977338 264.082306 
L 140.334458 263.920722 
L 141.048698 264.372743 
L 141.405818 264.873191 
L 141.762938 265.680303 
L 142.120058 264.930159 
L 142.477178 264.759254 
L 142.834298 264.873191 
L 143.191418 264.372743 
L 143.548538 263.428059 
L 143.905658 263.784607 
L 144.262778 262.136363 
L 144.619898 262.056729 
L 145.334138 260.403699 
L 145.691258 259.351817 
L 146.048378 259.564725 
L 146.405498 257.254319 
L 146.762618 257.578739 
L 148.548218 249.625763 
L 149.262458 248.168278 
L 149.619578 246.688487 
L 149.976698 243.1997 
L 150.333818 241.939675 
L 150.690938 240.054927 
L 151.048058 238.791114 
L 152.119418 232.061259 
L 154.976378 214.517774 
L 155.690618 208.759397 
L 156.047738 206.594565 
L 156.404858 203.119053 
L 156.761978 201.712336 
L 157.476218 194.806497 
L 158.190458 190.804601 
L 158.547578 186.726682 
L 158.904698 183.980335 
L 159.261818 182.912591 
L 159.976058 175.574498 
L 160.333178 173.36191 
L 162.118778 158.26557 
L 162.475898 156.533382 
L 163.904378 143.744429 
L 164.261498 141.708453 
L 164.618618 137.721237 
L 164.975738 135.630704 
L 165.332858 132.396891 
L 165.689978 130.21993 
L 166.404218 124.046502 
L 167.475578 115.739202 
L 168.189818 110.982836 
L 171.046778 91.044388 
L 171.761018 86.60579 
L 172.832378 80.740105 
L 173.546618 75.034034 
L 173.903738 74.235486 
L 174.617978 70.365183 
L 176.760698 61.657913 
L 177.117818 60.303191 
L 177.474938 56.840291 
L 177.832058 57.203186 
L 178.189178 55.251341 
L 178.546298 55.609048 
L 178.903418 53.744848 
L 179.617658 52.125834 
L 179.974778 51.773546 
L 180.331898 50.537088 
L 180.689018 50.420914 
L 181.403258 48.737414 
L 181.760378 49.584775 
L 182.117498 47.717274 
L 182.474618 47.081473 
L 182.831738 47.263948 
L 183.903098 48.460141 
L 184.617338 47.597538 
L 184.974457 49.500478 
L 185.331578 49.166325 
L 185.688698 49.743299 
L 186.045818 50.58715 
L 186.402938 50.351209 
L 187.117178 52.764503 
L 187.474298 52.956737 
L 187.831418 54.675251 
L 188.188538 55.448839 
L 188.545658 55.901653 
L 188.902778 57.541052 
L 189.259898 57.873291 
L 189.974138 60.350165 
L 190.331258 61.311036 
L 190.688378 63.954354 
L 191.045498 64.992751 
L 191.402618 66.673052 
L 191.759738 69.238706 
L 192.116858 70.14107 
L 192.473978 73.013879 
L 192.831098 74.451297 
L 195.330938 88.810542 
L 195.688058 91.049668 
L 196.045178 94.283433 
L 196.402298 95.661494 
L 198.545018 110.340499 
L 199.259258 116.175645 
L 199.616378 117.140735 
L 199.973498 121.823132 
L 200.330618 123.633622 
L 201.044858 129.468124 
L 202.116218 138.386682 
L 203.187578 146.47212 
L 203.901818 152.93008 
L 204.258938 155.09857 
L 206.044538 170.572061 
L 206.401658 172.485892 
L 206.758778 176.190674 
L 207.115898 177.471834 
L 207.473018 182.027681 
L 208.187258 185.910039 
L 208.544378 189.933648 
L 208.901498 192.458043 
L 209.258618 194.182592 
L 209.615738 198.250846 
L 212.115578 215.893756 
L 212.472698 217.324583 
L 212.829818 220.102045 
L 213.186938 221.91182 
L 213.544058 225.012444 
L 213.901178 226.731542 
L 214.258298 230.366727 
L 214.615418 230.835896 
L 214.972538 232.899379 
L 215.329658 235.663961 
L 216.401018 240.627862 
L 217.115258 244.418822 
L 217.472378 245.309425 
L 217.829498 247.80712 
L 218.543738 250.308898 
L 218.900858 250.9184 
L 219.257978 252.269137 
L 219.615098 253.100394 
L 219.972218 255.483855 
L 220.329338 256.29269 
L 220.686458 257.526767 
L 221.043578 257.938142 
L 221.400698 258.133783 
L 221.757818 259.769492 
L 222.114938 260.052889 
L 222.472058 260.067411 
L 222.829178 260.630485 
L 223.186298 261.745886 
L 223.543418 261.475615 
L 223.900538 262.329199 
L 224.257658 262.594294 
L 224.614778 262.393951 
L 224.971898 261.38304 
L 225.329018 262.102569 
L 225.686138 262.086381 
L 226.043258 261.68319 
L 226.757498 260.462653 
L 227.114618 260.750178 
L 227.471738 260.052889 
L 227.828858 258.925385 
L 228.185978 259.007674 
L 228.900218 256.440812 
L 229.614458 254.147881 
L 229.971578 253.530473 
L 230.685818 250.826778 
L 231.042938 250.448543 
L 231.757178 246.321342 
L 232.114298 245.50168 
L 232.471418 243.682872 
L 232.828538 242.485824 
L 234.971258 229.916598 
L 235.328378 229.040137 
L 236.399738 221.537604 
L 237.113978 216.616323 
L 237.828218 211.040145 
L 238.185338 208.824895 
L 238.899578 203.384714 
L 239.256698 200.811177 
L 239.613818 199.193609 
L 239.970938 194.88841 
L 240.328058 192.956285 
L 241.399418 183.911639 
L 242.113658 178.574038 
L 242.827898 171.42401 
L 243.542138 166.693914 
L 243.899258 162.535549 
L 244.256378 160.548173 
L 244.970618 153.728149 
L 245.327738 151.656395 
L 245.684858 147.508195 
L 246.041978 145.407715 
L 248.898938 119.855277 
L 249.256058 118.149254 
L 249.970298 111.682436 
L 250.327418 110.031049 
L 250.684538 106.301943 
L 251.041658 104.802902 
L 251.398778 100.449799 
L 251.755898 99.036666 
L 252.827258 90.416096 
L 253.541498 86.110166 
L 253.898618 83.361185 
L 254.255738 81.748479 
L 254.969978 75.926652 
L 255.327098 74.647132 
L 255.684218 71.898363 
L 256.398458 68.821765 
L 256.755578 65.761212 
L 257.112698 63.876524 
L 257.469818 62.794296 
L 258.541178 57.817918 
L 259.255418 55.419214 
L 259.612538 54.388478 
L 259.969658 52.492083 
L 260.326777 51.785702 
L 260.683898 50.215452 
L 261.041018 49.64812 
L 261.398138 48.647637 
L 261.755258 48.310145 
L 262.112378 46.814588 
L 262.469498 46.609932 
L 262.826617 46.113784 
L 263.183738 44.78208 
L 263.540858 45.089759 
L 263.897978 44.69365 
L 264.255098 43.816787 
L 264.612218 43.816787 
L 264.969337 45.031673 
L 265.326458 44.199091 
L 265.683578 44.017366 
L 266.040698 45.046194 
L 266.397818 44.320625 
L 266.754938 45.046194 
L 267.112057 44.930021 
L 267.469178 45.474387 
L 268.897658 48.774444 
L 269.254778 51.124127 
L 269.611897 50.839761 
L 269.969018 52.485431 
L 270.326138 53.3865 
L 270.683258 55.36984 
L 271.754617 58.661427 
L 272.468858 62.794296 
L 273.897337 69.380792 
L 274.611578 74.081685 
L 276.754298 87.607949 
L 277.111418 90.996861 
L 277.468538 93.035108 
L 278.897018 104.238707 
L 279.254138 106.348524 
L 280.682617 118.788742 
L 281.039738 120.662386 
L 281.396858 123.149101 
L 282.468218 133.584654 
L 283.182457 139.198724 
L 284.253818 148.297393 
L 284.968058 154.836578 
L 285.325177 158.463881 
L 285.682298 160.908371 
L 286.039418 164.625042 
L 286.396538 166.624544 
L 287.110778 173.9262 
L 287.467897 176.387339 
L 288.182138 182.027681 
L 289.610618 194.572159 
L 289.967737 196.452942 
L 290.324858 200.266579 
L 290.681978 202.412297 
L 291.753338 211.625258 
L 292.110457 213.50724 
L 292.467578 216.002142 
L 292.824698 219.409967 
L 293.538938 223.070875 
L 294.967418 233.10229 
L 295.324538 234.660353 
L 296.038778 239.461267 
L 296.395898 240.385792 
L 297.467258 246.589738 
L 298.181498 248.92122 
L 298.538618 252.028354 
L 298.895737 253.221086 
L 299.252858 253.936661 
L 299.609978 256.453155 
L 299.967098 256.061122 
L 300.324218 257.819645 
L 300.681338 258.043473 
L 301.038457 258.801951 
L 301.752698 261.881534 
L 302.109818 262.151133 
L 302.466938 261.698864 
L 302.824058 264.562353 
L 303.181177 263.590643 
L 303.538297 264.336171 
L 303.895418 264.136167 
L 304.252538 264.562353 
L 304.609658 264.409316 
L 304.966778 265.512416 
L 305.323898 265.138133 
L 305.681018 264.010491 
L 306.395258 263.643542 
L 306.752378 264.208168 
L 307.109498 263.57301 
L 307.466618 262.396802 
L 307.823737 261.68319 
L 308.180858 259.826736 
L 308.537978 260.081933 
L 309.609338 256.805114 
L 310.323578 253.84689 
L 310.680698 254.12518 
L 311.037818 251.345824 
L 311.394938 250.660922 
L 312.466297 245.8285 
L 312.823418 243.315876 
L 313.180538 241.851362 
L 313.537658 239.317314 
L 313.894778 238.215364 
L 314.251898 236.443948 
L 314.966138 231.298154 
L 315.680378 227.807673 
L 316.394618 222.458894 
L 317.465978 215.359513 
L 317.823098 213.486229 
L 318.180218 209.761392 
L 318.537338 207.907937 
L 318.894458 204.794645 
L 319.251578 202.692412 
L 319.608698 199.01579 
L 319.965818 197.649944 
L 322.108538 179.609415 
L 322.465657 177.23231 
L 323.179898 170.255236 
L 323.537018 167.702994 
L 324.608378 157.804193 
L 326.036857 146.969922 
L 326.393978 143.1186 
L 326.751098 141.732836 
L 327.822458 131.791109 
L 329.608058 118.497274 
L 329.965177 114.143761 
L 330.322297 112.919655 
L 333.893498 87.928864 
L 334.964857 82.255402 
L 336.036218 76.411854 
L 336.750458 71.50248 
L 337.107578 71.324182 
L 337.464697 69.231601 
L 337.821818 68.147622 
L 339.250297 61.67465 
L 339.607417 60.958179 
L 339.964538 59.036255 
L 340.321658 59.466108 
L 340.678778 57.494907 
L 341.035898 57.249766 
L 341.750138 55.911334 
L 342.464378 54.86646 
L 342.821498 54.876434 
L 343.178618 53.630508 
L 343.535737 53.869433 
L 343.892857 53.084154 
L 344.607098 52.646434 
L 344.964218 53.344479 
L 345.321338 53.640902 
L 345.678458 52.78597 
L 346.035578 52.797466 
L 346.392697 54.116304 
L 346.749818 54.70548 
L 347.106938 54.034013 
L 347.464058 55.687264 
L 347.821178 55.569939 
L 348.178297 56.485782 
L 348.535417 56.896504 
L 349.606778 59.342672 
L 350.321018 62.090241 
L 350.678138 62.688626 
L 351.035258 64.930546 
L 351.749498 66.860078 
L 352.106618 69.883556 
L 352.463737 69.827128 
L 355.320698 84.367196 
L 355.677818 87.140011 
L 356.034938 88.680321 
L 356.749178 92.348949 
L 357.106297 96.037681 
L 357.463417 98.472565 
L 357.820538 100.00094 
L 358.891898 106.825325 
L 359.249018 110.335948 
L 359.606138 111.565198 
L 359.963257 115.558452 
L 360.320378 117.581683 
L 360.677498 120.313093 
L 361.034618 121.77161 
L 361.748857 127.915711 
L 363.534458 139.957719 
L 363.891578 144.351404 
L 364.248698 146.124064 
L 364.605818 149.745867 
L 366.034297 159.402825 
L 366.391417 163.271101 
L 366.748537 165.241215 
L 367.462778 171.651261 
L 367.819898 172.988482 
L 368.177018 175.738763 
L 368.534138 179.439163 
L 369.248378 183.915932 
L 369.962618 188.69336 
L 370.676857 193.785333 
L 372.819578 208.359076 
L 373.176698 209.964369 
L 374.248058 216.131651 
L 375.319417 222.63316 
L 375.676537 223.278682 
L 376.033658 227.583156 
L 376.390778 227.009648 
L 376.747898 229.421017 
L 377.105018 229.994049 
L 377.462138 233.115817 
L 378.176378 235.088194 
L 379.247738 240.047212 
L 379.604857 240.479099 
L 380.319097 243.299279 
L 380.676218 243.741452 
L 381.033338 244.616071 
L 381.390458 246.072246 
L 382.461818 247.360423 
L 382.818938 248.121255 
L 383.176058 249.332966 
L 383.533178 250.089457 
L 383.890298 249.983665 
L 384.247417 251.491197 
L 384.604537 250.590387 
L 384.961658 250.826778 
L 385.318778 250.439241 
L 386.033018 251.314965 
L 386.390138 250.938761 
L 386.747258 251.284106 
L 387.461498 250.419088 
L 387.818618 249.28456 
L 388.175738 249.216791 
L 388.532858 248.844522 
L 388.889977 248.021386 
L 389.247097 247.704644 
L 389.604218 246.223483 
L 389.961338 246.944594 
L 390.318458 244.804983 
L 390.675578 244.572053 
L 391.032698 243.937981 
L 391.389818 242.040533 
L 391.746938 241.875447 
L 392.461178 239.226161 
L 392.818298 239.043854 
L 393.532537 235.472771 
L 394.246778 231.961174 
L 394.603898 231.416654 
L 394.961018 229.161185 
L 395.675258 226.873867 
L 396.389498 222.412424 
L 396.746618 221.184839 
L 397.460858 217.335494 
L 397.817977 214.04413 
L 398.175097 211.945809 
L 398.532218 210.629943 
L 398.889338 209.766456 
L 399.246458 206.001723 
L 399.960698 202.650825 
L 400.674937 197.220794 
L 401.032058 195.993937 
L 401.746298 189.52014 
L 402.103417 188.302745 
L 402.817657 183.701257 
L 403.174778 180.24515 
L 403.889018 176.521238 
L 406.031738 160.042277 
L 406.388858 158.419363 
L 411.745657 121.020304 
L 412.102778 119.863939 
L 412.459898 116.605286 
L 412.817018 115.312606 
L 413.174138 111.916913 
L 413.531258 109.7216 
L 413.888378 108.753129 
L 414.245497 106.811417 
L 414.602618 103.953945 
L 414.959738 102.59475 
L 416.031097 95.871417 
L 416.388218 94.970925 
L 416.745338 91.602963 
L 417.816698 88.021613 
L 418.530938 84.08179 
L 418.530938 84.08179 
" style="fill:none;stroke:#1f77b4;stroke-linecap:square;stroke-width:1.5;"/>
   </g>
   <g id="line2d_22">
    <path clip-path="url(#p304c686b55)" d="M 61.410938 278.50696 
L 61.768058 278.50696 
L 62.125178 278.168864 
L 62.482298 277.410055 
L 62.839418 277.410055 
L 63.553658 274.743876 
L 63.910778 273.736659 
L 66.767738 252.691622 
L 67.124858 249.545749 
L 67.839098 240.835794 
L 68.553338 233.256886 
L 71.053178 200.5246 
L 77.481338 110.440432 
L 79.266938 90.428947 
L 80.695418 77.761045 
L 81.052538 73.743671 
L 81.409658 71.632869 
L 81.766778 68.435682 
L 83.195258 59.352206 
L 83.552378 60.398139 
L 83.909498 56.892697 
L 84.266618 56.70095 
L 84.980858 54.378039 
L 85.337978 54.224116 
L 85.695098 53.310091 
L 86.052218 53.356074 
L 86.409338 54.079597 
L 86.766458 53.466435 
L 87.480698 55.754248 
L 88.194938 56.785961 
L 88.552058 59.051755 
L 89.266298 61.457843 
L 89.623418 63.682089 
L 89.980538 64.983431 
L 90.694778 69.933859 
L 91.409018 74.261352 
L 91.766138 75.519238 
L 93.908858 92.997033 
L 94.265978 97.216729 
L 94.623098 98.88519 
L 95.337338 107.221262 
L 95.694458 109.622752 
L 96.051578 113.1646 
L 96.408698 115.116005 
L 96.765818 119.467951 
L 97.122938 122.387936 
L 97.837178 130.219081 
L 98.551418 135.951347 
L 98.908538 137.401945 
L 99.622778 145.030622 
L 100.337018 151.655668 
L 100.694138 151.771286 
L 101.051258 155.823005 
L 101.408378 158.157278 
L 101.765498 161.924158 
L 102.122618 162.960896 
L 102.479738 165.799784 
L 103.193978 169.343503 
L 104.265338 175.406515 
L 104.622458 175.492613 
L 105.336698 179.699982 
L 105.693818 180.164205 
L 106.050938 181.665387 
L 106.408058 182.52144 
L 106.765178 182.82593 
L 107.122298 183.349506 
L 107.479418 184.256174 
L 107.836538 183.704473 
L 108.193658 183.682287 
L 108.550778 183.793215 
L 108.907898 184.741947 
L 109.265018 184.118018 
L 109.622138 183.096592 
L 109.979258 184.269544 
L 110.336378 182.990102 
L 110.693498 183.03891 
L 111.050618 181.282717 
L 112.121978 178.667243 
L 112.479098 176.762268 
L 113.193338 175.6562 
L 113.550458 174.323739 
L 113.907578 172.012208 
L 114.264698 170.544729 
L 114.621818 169.555146 
L 114.978938 167.342961 
L 115.336058 166.757044 
L 115.693178 164.611823 
L 116.050298 163.659023 
L 116.407418 160.749037 
L 116.764538 159.862276 
L 117.478778 157.116599 
L 117.835898 154.620627 
L 118.193018 153.729208 
L 118.550138 151.564825 
L 119.264378 149.491962 
L 119.621498 146.336653 
L 119.978618 145.366458 
L 120.335738 144.727954 
L 121.407098 140.02049 
L 121.764218 139.187851 
L 122.121338 139.075445 
L 122.478458 138.276111 
L 123.549818 134.299917 
L 123.906938 134.073239 
L 124.264058 132.592573 
L 124.621178 133.338634 
L 124.978298 132.687983 
L 125.335418 131.163609 
L 125.692538 131.665222 
L 126.049658 131.066659 
L 126.406778 131.859123 
L 126.763898 131.707374 
L 127.478138 131.947643 
L 127.835258 132.860091 
L 128.192378 133.166526 
L 128.549498 132.571497 
L 128.906618 134.371279 
L 129.263738 134.786855 
L 129.620858 135.545848 
L 129.977978 137.510084 
L 130.335098 137.309976 
L 130.692218 138.525903 
L 131.049338 138.438476 
L 131.406458 141.071065 
L 131.763578 141.576893 
L 132.120698 142.526357 
L 132.477818 144.765269 
L 132.834938 144.897945 
L 133.192058 147.109408 
L 133.549178 147.402582 
L 133.906298 150.359096 
L 134.263418 151.300556 
L 134.620538 153.468002 
L 134.977658 154.521119 
L 135.691898 157.663888 
L 136.049018 158.788172 
L 136.406138 160.798995 
L 137.120378 162.89401 
L 137.477498 166.383271 
L 137.834618 168.386874 
L 138.191738 168.657778 
L 138.905978 172.844583 
L 139.263098 172.921418 
L 139.620218 174.907145 
L 139.977338 175.677725 
L 140.334458 178.081898 
L 140.691578 178.850388 
L 141.048698 181.080386 
L 141.405818 181.15516 
L 142.120058 183.859534 
L 142.477178 184.345306 
L 142.834298 185.466304 
L 143.191418 185.846393 
L 143.548538 186.480364 
L 143.905658 188.209133 
L 144.262778 188.286255 
L 144.619898 188.168304 
L 144.977018 189.135326 
L 145.334138 189.076085 
L 145.691258 189.868485 
L 146.048378 189.085199 
L 146.405498 188.647727 
L 146.762618 189.964615 
L 147.119738 189.996658 
L 147.476858 189.062414 
L 147.833978 189.23558 
L 148.191098 188.395133 
L 148.548218 187.927866 
L 149.262458 186.039732 
L 149.619578 186.606258 
L 149.976698 185.810983 
L 150.333818 184.153671 
L 150.690938 183.371692 
L 151.048058 182.123846 
L 151.405178 181.3311 
L 151.762298 179.936473 
L 152.119418 179.621152 
L 152.476538 177.043283 
L 152.833658 176.178621 
L 153.190778 175.776738 
L 153.905018 171.807316 
L 154.619258 170.119664 
L 155.333498 165.60249 
L 156.047738 163.203359 
L 156.404858 160.228637 
L 156.761978 159.808155 
L 157.119098 158.517564 
L 157.476218 156.22518 
L 158.190458 153.434833 
L 158.547578 151.32946 
L 158.904698 150.210445 
L 159.261818 147.860924 
L 159.618938 147.336514 
L 159.976058 145.577911 
L 160.333178 144.976722 
L 160.690298 142.688057 
L 161.761658 138.138726 
L 162.118778 137.543389 
L 162.475898 134.989855 
L 162.833018 133.863352 
L 163.190138 133.120351 
L 163.547258 132.969232 
L 163.904378 131.066659 
L 164.261498 131.838047 
L 164.618618 128.964818 
L 164.975738 128.867053 
L 165.332858 129.414835 
L 165.689978 127.489841 
L 166.047098 127.268844 
L 166.404218 127.426081 
L 167.118458 125.477051 
L 167.475578 125.954119 
L 167.832698 125.198417 
L 168.189818 125.996804 
L 168.546938 125.425611 
L 168.904058 125.18127 
L 169.618298 125.108397 
L 170.332538 126.2828 
L 170.689658 125.729965 
L 171.046778 127.264576 
L 171.403898 128.127439 
L 171.761018 126.9487 
L 172.475258 127.698123 
L 172.832378 129.698438 
L 173.189498 129.592616 
L 173.546618 130.045533 
L 173.903738 131.193116 
L 174.260858 131.715805 
L 174.617978 131.968719 
L 174.975098 133.548521 
L 175.332218 133.758408 
L 175.689338 134.434245 
L 176.046458 136.549143 
L 176.403578 136.106021 
L 177.117818 139.749882 
L 177.474938 139.658292 
L 177.832058 139.878941 
L 178.189178 141.80493 
L 178.546298 141.581039 
L 178.903418 142.600988 
L 179.260538 144.334071 
L 179.617658 144.338217 
L 179.974778 145.789364 
L 180.331898 144.972576 
L 180.689018 146.849268 
L 181.046138 147.175475 
L 181.403258 148.66612 
L 181.760378 148.56289 
L 182.117498 148.959294 
L 182.474618 149.640614 
L 182.831738 149.615838 
L 183.188858 151.919937 
L 183.545978 150.738983 
L 183.903098 151.564825 
L 184.260218 151.065191 
L 184.617338 151.379011 
L 184.974457 152.151173 
L 185.331578 152.262662 
L 185.688698 152.870959 
L 186.045818 152.039685 
L 186.402938 152.386538 
L 186.760058 151.791932 
L 187.117178 151.990134 
L 187.474298 152.332858 
L 187.831418 151.379011 
L 188.188538 152.336988 
L 188.545658 150.536652 
L 188.902778 150.738983 
L 189.259898 149.549771 
L 189.617018 149.880108 
L 189.974138 149.161625 
L 190.688378 148.414238 
L 191.045498 147.728789 
L 191.759738 145.532304 
L 192.116858 144.8399 
L 192.473978 143.786782 
L 192.831098 143.811659 
L 193.902458 141.137403 
L 194.259578 139.770698 
L 194.616698 139.658292 
L 194.973818 137.163662 
L 195.330938 137.789018 
L 195.688058 136.875214 
L 196.045178 135.499864 
L 196.759418 134.417454 
L 197.116538 132.314368 
L 197.473658 132.826509 
L 197.830778 130.957063 
L 198.187898 131.239483 
L 198.545018 130.278341 
L 198.902138 130.705861 
L 199.259258 129.309013 
L 199.616378 128.697027 
L 199.973498 127.766134 
L 200.330618 127.320067 
L 200.687738 126.611481 
L 201.044858 126.786494 
L 201.401978 125.738538 
L 201.759098 125.858565 
L 202.116218 125.674238 
L 202.473338 125.837132 
L 202.830458 125.742825 
L 203.187578 125.871425 
L 203.544698 125.541351 
L 203.901818 124.786896 
L 204.258938 126.086445 
L 204.616058 126.658436 
L 204.973178 126.159011 
L 205.330298 126.069371 
L 205.687418 127.498342 
L 206.044538 127.659867 
L 206.401658 127.328605 
L 206.758778 128.012672 
L 207.115898 128.964818 
L 207.473018 130.430724 
L 207.830138 130.540779 
L 208.187258 132.847498 
L 208.544378 131.918136 
L 208.901498 131.825401 
L 209.258618 134.893706 
L 209.615738 135.031659 
L 209.972858 135.98479 
L 210.687098 138.825653 
L 211.044218 138.983855 
L 211.401338 141.10838 
L 211.758458 142.190521 
L 212.115578 144.727954 
L 212.472698 145.457673 
L 212.829818 146.692358 
L 213.186938 148.740446 
L 213.901178 151.38314 
L 214.615418 155.068409 
L 214.972538 156.258349 
L 215.686778 159.895582 
L 216.043898 159.85395 
L 216.758138 164.695778 
L 217.115258 165.715829 
L 217.472378 167.625382 
L 217.829498 167.975246 
L 218.186618 170.61274 
L 218.543738 171.267341 
L 218.900858 174.023671 
L 219.257978 175.643286 
L 219.615098 176.537456 
L 219.972218 177.821385 
L 220.329338 179.578605 
L 220.686458 180.054718 
L 221.400698 182.150353 
L 222.114938 185.564784 
L 223.543418 189.335834 
L 223.900538 190.69108 
L 224.257658 190.548529 
L 224.614778 190.824435 
L 224.971898 190.442765 
L 225.686138 192.831395 
L 226.043258 192.595583 
L 226.400378 192.803423 
L 226.757498 193.80003 
L 227.471738 193.762562 
L 227.828858 193.376849 
L 228.185978 194.155983 
L 228.543098 193.973323 
L 228.900218 193.940538 
L 229.257338 194.405952 
L 229.971578 191.558144 
L 230.328698 191.927698 
L 230.685818 191.595099 
L 231.042938 189.854752 
L 231.400058 190.060745 
L 231.757178 189.754044 
L 232.114298 189.85933 
L 232.471418 188.684183 
L 232.828538 186.390439 
L 233.185658 186.192604 
L 233.542778 186.282529 
L 233.899898 184.077909 
L 234.257018 183.597983 
L 234.614138 181.995733 
L 235.328378 180.917641 
L 236.042618 178.689046 
L 236.399738 177.890855 
L 237.471098 173.170623 
L 238.542458 170.41721 
L 238.899578 167.920448 
L 239.256698 167.283948 
L 239.970938 165.019004 
L 239.970938 165.019004 
" style="fill:none;stroke:#d62728;stroke-linecap:square;stroke-width:1.5;"/>
   </g>
   <g id="line2d_23">
    <path clip-path="url(#p304c686b55)" d="M 61.410938 23.543308 
L 418.530938 23.543308 
" style="fill:none;stroke:#99aaaa;stroke-dasharray:9.6,2.4,1.5,2.4;stroke-dashoffset:0;stroke-width:1.5;"/>
   </g>
   <g id="line2d_24">
    <defs>
     <path d="M -3 3 
L 3 3 
L 3 -3 
L -3 -3 
z
" id="m9e0ac68bfd" style="stroke:#1f77b4;stroke-linejoin:miter;"/>
    </defs>
    <g clip-path="url(#p304c686b55)">
     <use style="fill:#1f77b4;stroke:#1f77b4;stroke-linejoin:miter;" x="61.410938" xlink:href="#m9e0ac68bfd" y="278.419468"/>
     <use style="fill:#1f77b4;stroke:#1f77b4;stroke-linejoin:miter;" x="72.688411" xlink:href="#m9e0ac68bfd" y="226.422028"/>
     <use style="fill:#1f77b4;stroke:#1f77b4;stroke-linejoin:miter;" x="83.965885" xlink:href="#m9e0ac68bfd" y="134.820435"/>
     <use style="fill:#1f77b4;stroke:#1f77b4;stroke-linejoin:miter;" x="95.243359" xlink:href="#m9e0ac68bfd" y="42.004828"/>
     <use style="fill:#1f77b4;stroke:#1f77b4;stroke-linejoin:miter;" x="106.520832" xlink:href="#m9e0ac68bfd" y="43.40435"/>
     <use style="fill:#1f77b4;stroke:#1f77b4;stroke-linejoin:miter;" x="117.798306" xlink:href="#m9e0ac68bfd" y="113.773842"/>
     <use style="fill:#1f77b4;stroke:#1f77b4;stroke-linejoin:miter;" x="129.07578" xlink:href="#m9e0ac68bfd" y="180.611275"/>
     <use style="fill:#1f77b4;stroke:#1f77b4;stroke-linejoin:miter;" x="140.353253" xlink:href="#m9e0ac68bfd" y="220.204828"/>
     <use style="fill:#1f77b4;stroke:#1f77b4;stroke-linejoin:miter;" x="151.630727" xlink:href="#m9e0ac68bfd" y="190.120475"/>
     <use style="fill:#1f77b4;stroke:#1f77b4;stroke-linejoin:miter;" x="162.908201" xlink:href="#m9e0ac68bfd" y="111.983083"/>
     <use style="fill:#1f77b4;stroke:#1f77b4;stroke-linejoin:miter;" x="174.185674" xlink:href="#m9e0ac68bfd" y="54.752124"/>
     <use style="fill:#1f77b4;stroke:#1f77b4;stroke-linejoin:miter;" x="185.463148" xlink:href="#m9e0ac68bfd" y="40.939555"/>
     <use style="fill:#1f77b4;stroke:#1f77b4;stroke-linejoin:miter;" x="196.740622" xlink:href="#m9e0ac68bfd" y="86.463444"/>
     <use style="fill:#1f77b4;stroke:#1f77b4;stroke-linejoin:miter;" x="208.018095" xlink:href="#m9e0ac68bfd" y="141.26563"/>
     <use style="fill:#1f77b4;stroke:#1f77b4;stroke-linejoin:miter;" x="219.295569" xlink:href="#m9e0ac68bfd" y="240.202828"/>
     <use style="fill:#1f77b4;stroke:#1f77b4;stroke-linejoin:miter;" x="230.573043" xlink:href="#m9e0ac68bfd" y="243.327628"/>
     <use style="fill:#1f77b4;stroke:#1f77b4;stroke-linejoin:miter;" x="241.850516" xlink:href="#m9e0ac68bfd" y="172.682234"/>
     <use style="fill:#1f77b4;stroke:#1f77b4;stroke-linejoin:miter;" x="253.12799" xlink:href="#m9e0ac68bfd" y="71.965744"/>
     <use style="fill:#1f77b4;stroke:#1f77b4;stroke-linejoin:miter;" x="264.405464" xlink:href="#m9e0ac68bfd" y="40.5962"/>
     <use style="fill:#1f77b4;stroke:#1f77b4;stroke-linejoin:miter;" x="275.682938" xlink:href="#m9e0ac68bfd" y="82.396828"/>
     <use style="fill:#1f77b4;stroke:#1f77b4;stroke-linejoin:miter;" x="286.960411" xlink:href="#m9e0ac68bfd" y="170.830515"/>
     <use style="fill:#1f77b4;stroke:#1f77b4;stroke-linejoin:miter;" x="298.237885" xlink:href="#m9e0ac68bfd" y="246.057707"/>
     <use style="fill:#1f77b4;stroke:#1f77b4;stroke-linejoin:miter;" x="309.515359" xlink:href="#m9e0ac68bfd" y="227.790156"/>
     <use style="fill:#1f77b4;stroke:#1f77b4;stroke-linejoin:miter;" x="320.792832" xlink:href="#m9e0ac68bfd" y="160.947053"/>
     <use style="fill:#1f77b4;stroke:#1f77b4;stroke-linejoin:miter;" x="332.070306" xlink:href="#m9e0ac68bfd" y="73.778224"/>
     <use style="fill:#1f77b4;stroke:#1f77b4;stroke-linejoin:miter;" x="343.34778" xlink:href="#m9e0ac68bfd" y="36.342028"/>
     <use style="fill:#1f77b4;stroke:#1f77b4;stroke-linejoin:miter;" x="354.625253" xlink:href="#m9e0ac68bfd" y="62.368367"/>
     <use style="fill:#1f77b4;stroke:#1f77b4;stroke-linejoin:miter;" x="365.902727" xlink:href="#m9e0ac68bfd" y="134.231833"/>
     <use style="fill:#1f77b4;stroke:#1f77b4;stroke-linejoin:miter;" x="377.180201" xlink:href="#m9e0ac68bfd" y="208.249228"/>
     <use style="fill:#1f77b4;stroke:#1f77b4;stroke-linejoin:miter;" x="388.457674" xlink:href="#m9e0ac68bfd" y="225.183628"/>
     <use style="fill:#1f77b4;stroke:#1f77b4;stroke-linejoin:miter;" x="399.735148" xlink:href="#m9e0ac68bfd" y="176.872405"/>
    </g>
   </g>
   <g id="line2d_25">
    <defs>
     <path d="M 0 3 
C 0.795609 3 1.55874 2.683901 2.12132 2.12132 
C 2.683901 1.55874 3 0.795609 3 0 
C 3 -0.795609 2.683901 -1.55874 2.12132 -2.12132 
C 1.55874 -2.683901 0.795609 -3 0 -3 
C -0.795609 -3 -1.55874 -2.683901 -2.12132 -2.12132 
C -2.683901 -1.55874 -3 -0.795609 -3 0 
C -3 0.795609 -2.683901 1.55874 -2.12132 2.12132 
C -1.55874 2.683901 -0.795609 3 0 3 
z
" id="m4d17eb6f4c" style="stroke:#d62728;"/>
    </defs>
    <g clip-path="url(#p304c686b55)">
     <use style="fill:#d62728;stroke:#d62728;" x="61.410938" xlink:href="#m4d17eb6f4c" y="271.284996"/>
     <use style="fill:#d62728;stroke:#d62728;" x="72.688411" xlink:href="#m4d17eb6f4c" y="195.850828"/>
     <use style="fill:#d62728;stroke:#d62728;" x="83.965885" xlink:href="#m4d17eb6f4c" y="74.379876"/>
     <use style="fill:#d62728;stroke:#d62728;" x="95.243359" xlink:href="#m4d17eb6f4c" y="106.200292"/>
     <use style="fill:#d62728;stroke:#d62728;" x="106.520832" xlink:href="#m4d17eb6f4c" y="186.703228"/>
     <use style="fill:#d62728;stroke:#d62728;" x="117.798306" xlink:href="#m4d17eb6f4c" y="149.260567"/>
     <use style="fill:#d62728;stroke:#d62728;" x="129.07578" xlink:href="#m4d17eb6f4c" y="129.628939"/>
     <use style="fill:#d62728;stroke:#d62728;" x="140.353253" xlink:href="#m4d17eb6f4c" y="176.029129"/>
     <use style="fill:#d62728;stroke:#d62728;" x="151.630727" xlink:href="#m4d17eb6f4c" y="146.766145"/>
     <use style="fill:#d62728;stroke:#d62728;" x="162.908201" xlink:href="#m4d17eb6f4c" y="142.47624"/>
     <use style="fill:#d62728;stroke:#d62728;" x="174.185674" xlink:href="#m4d17eb6f4c" y="115.880527"/>
     <use style="fill:#d62728;stroke:#d62728;" x="185.463148" xlink:href="#m4d17eb6f4c" y="131.083863"/>
     <use style="fill:#d62728;stroke:#d62728;" x="196.740622" xlink:href="#m4d17eb6f4c" y="125.946407"/>
     <use style="fill:#d62728;stroke:#d62728;" x="208.018095" xlink:href="#m4d17eb6f4c" y="141.690213"/>
     <use style="fill:#d62728;stroke:#d62728;" x="219.295569" xlink:href="#m4d17eb6f4c" y="171.707602"/>
     <use style="fill:#d62728;stroke:#d62728;" x="230.573043" xlink:href="#m4d17eb6f4c" y="206.206602"/>
    </g>
   </g>
   <g id="patch_3">
    <path d="M 61.410938 279.010828 
L 61.410938 12.898828 
" style="fill:none;stroke:#000000;stroke-linecap:square;stroke-linejoin:miter;stroke-width:0.8;"/>
   </g>
   <g id="patch_4">
    <path d="M 418.530938 279.010828 
L 418.530938 12.898828 
" style="fill:none;stroke:#000000;stroke-linecap:square;stroke-linejoin:miter;stroke-width:0.8;"/>
   </g>
   <g id="patch_5">
    <path d="M 61.410938 279.010828 
L 418.530938 279.010828 
" style="fill:none;stroke:#000000;stroke-linecap:square;stroke-linejoin:miter;stroke-width:0.8;"/>
   </g>
   <g id="patch_6">
    <path d="M 61.410938 12.898828 
L 418.530938 12.898828 
" style="fill:none;stroke:#000000;stroke-linecap:square;stroke-linejoin:miter;stroke-width:0.8;"/>
   </g>
  </g>
 </g>
 <defs>
  <clipPath id="p304c686b55">
   <rect height="266.112" width="357.12" x="61.410938" y="12.898828"/>
  </clipPath>
 </defs>
</svg>
