<?xml version="1.0" encoding="utf-8" standalone="no"?>
<!DOCTYPE svg PUBLIC "-//W3C//DTD SVG 1.1//EN"
  "http://www.w3.org/Graphics/SVG/1.1/DTD/svg11.dtd">
<!-- Created with matplotlib (https://matplotlib.org/) -->
<svg height="331.128016pt" version="1.1" viewBox="0 0 425.730937 331.128016" width="425.730937pt" xmlns="http://www.w3.org/2000/svg" xmlns:xlink="http://www.w3.org/1999/xlink">
 <defs>
  <style type="text/css">*{stroke-linecap:butt;stroke-linejoin:round;}</style>
 </defs>
 <g id="figure_1">
  <g id="patch_1">
   <path d="M 0 331.128016 
L 425.730937 331.128016 
L 425.730937 0 
L 0 0 
z
" style="fill:none;"/>
  </g>
  <g id="axes_1">
   <g id="patch_2">
    <path d="M 61.410938 279.010828 
L 418.530938 279.010828 
L 418.530938 12.898828 
L 61.410938 12.898828 
z
" style="fill:none;"/>
   </g>
   <g id="matplotlib.axis_1">
    <g id="xtick_1">
     <g id="line2d_1">
      <path clip-path="url(#p304c686b55)" d="M 61.410938 279.010828 
L 61.410938 12.898828 
" style="fill:none;stroke:#b0b0b0;stroke-linecap:square;stroke-width:0.8;"/>
     </g>
     <g id="line2d_2">
      <defs>
       <path d="M 0 0 
L 0 3.5 
" id="m005f0a59be" style="stroke:#000000;stroke-width:0.8;"/>
      </defs>
      <g>
       <use style="stroke:#000000;stroke-width:0.8;" x="61.410938" xlink:href="#m005f0a59be" y="279.010828"/>
      </g>
     </g>
     <g id="text_1">
      <!-- 0 -->
      <g transform="translate(56.639063 297.408484)scale(0.15 -0.15)">
       <defs>
        <path d="M 31.78125 66.40625 
Q 24.171875 66.40625 20.328125 58.90625 
Q 16.5 51.421875 16.5 36.375 
Q 16.5 21.390625 20.328125 13.890625 
Q 24.171875 6.390625 31.78125 6.390625 
Q 39.453125 6.390625 43.28125 13.890625 
Q 47.125 21.390625 47.125 36.375 
Q 47.125 51.421875 43.28125 58.90625 
Q 39.453125 66.40625 31.78125 66.40625 
z
M 31.78125 74.21875 
Q 44.046875 74.21875 50.515625 64.515625 
Q 56.984375 54.828125 56.984375 36.375 
Q 56.984375 17.96875 50.515625 8.265625 
Q 44.046875 -1.421875 31.78125 -1.421875 
Q 19.53125 -1.421875 13.0625 8.265625 
Q 6.59375 17.96875 6.59375 36.375 
Q 6.59375 54.828125 13.0625 64.515625 
Q 19.53125 74.21875 31.78125 74.21875 
z
" id="DejaVuSans-48"/>
       </defs>
       <use xlink:href="#DejaVuSans-48"/>
      </g>
     </g>
    </g>
    <g id="xtick_2">
     <g id="line2d_3">
      <path clip-path="url(#p304c686b55)" d="M 129.433795 279.010828 
L 129.433795 12.898828 
" style="fill:none;stroke:#b0b0b0;stroke-linecap:square;stroke-width:0.8;"/>
     </g>
     <g id="line2d_4">
      <g>
       <use style="stroke:#000000;stroke-width:0.8;" x="129.433795" xlink:href="#m005f0a59be" y="279.010828"/>
      </g>
     </g>
     <g id="text_2">
      <!-- 20 -->
      <g transform="translate(119.890045 297.408484)scale(0.15 -0.15)">
       <defs>
        <path d="M 19.1875 8.296875 
L 53.609375 8.296875 
L 53.609375 0 
L 7.328125 0 
L 7.328125 8.296875 
Q 12.9375 14.109375 22.625 23.890625 
Q 32.328125 33.6875 34.8125 36.53125 
Q 39.546875 41.84375 41.421875 45.53125 
Q 43.3125 49.21875 43.3125 52.78125 
Q 43.3125 58.59375 39.234375 62.25 
Q 35.15625 65.921875 28.609375 65.921875 
Q 23.96875 65.921875 18.8125 64.3125 
Q 13.671875 62.703125 7.8125 59.421875 
L 7.8125 69.390625 
Q 13.765625 71.78125 18.9375 73 
Q 24.125 74.21875 28.421875 74.21875 
Q 39.75 74.21875 46.484375 68.546875 
Q 53.21875 62.890625 53.21875 53.421875 
Q 53.21875 48.921875 51.53125 44.890625 
Q 49.859375 40.875 45.40625 35.40625 
Q 44.1875 33.984375 37.640625 27.21875 
Q 31.109375 20.453125 19.1875 8.296875 
z
" id="DejaVuSans-50"/>
       </defs>
       <use xlink:href="#DejaVuSans-50"/>
       <use x="63.623047" xlink:href="#DejaVuSans-48"/>
      </g>
     </g>
    </g>
    <g id="xtick_3">
     <g id="line2d_5">
      <path clip-path="url(#p304c686b55)" d="M 197.456652 279.010828 
L 197.456652 12.898828 
" style="fill:none;stroke:#b0b0b0;stroke-linecap:square;stroke-width:0.8;"/>
     </g>
     <g id="line2d_6">
      <g>
       <use style="stroke:#000000;stroke-width:0.8;" x="197.456652" xlink:href="#m005f0a59be" y="279.010828"/>
      </g>
     </g>
     <g id="text_3">
      <!-- 40 -->
      <g transform="translate(187.912902 297.408484)scale(0.15 -0.15)">
       <defs>
        <path d="M 37.796875 64.3125 
L 12.890625 25.390625 
L 37.796875 25.390625 
z
M 35.203125 72.90625 
L 47.609375 72.90625 
L 47.609375 25.390625 
L 58.015625 25.390625 
L 58.015625 17.1875 
L 47.609375 17.1875 
L 47.609375 0 
L 37.796875 0 
L 37.796875 17.1875 
L 4.890625 17.1875 
L 4.890625 26.703125 
z
" id="DejaVuSans-52"/>
       </defs>
       <use xlink:href="#DejaVuSans-52"/>
       <use x="63.623047" xlink:href="#DejaVuSans-48"/>
      </g>
     </g>
    </g>
    <g id="xtick_4">
     <g id="line2d_7">
      <path clip-path="url(#p304c686b55)" d="M 265.479509 279.010828 
L 265.479509 12.898828 
" style="fill:none;stroke:#b0b0b0;stroke-linecap:square;stroke-width:0.8;"/>
     </g>
     <g id="line2d_8">
      <g>
       <use style="stroke:#000000;stroke-width:0.8;" x="265.479509" xlink:href="#m005f0a59be" y="279.010828"/>
      </g>
     </g>
     <g id="text_4">
      <!-- 60 -->
      <g transform="translate(255.935759 297.408484)scale(0.15 -0.15)">
       <defs>
        <path d="M 33.015625 40.375 
Q 26.375 40.375 22.484375 35.828125 
Q 18.609375 31.296875 18.609375 23.390625 
Q 18.609375 15.53125 22.484375 10.953125 
Q 26.375 6.390625 33.015625 6.390625 
Q 39.65625 6.390625 43.53125 10.953125 
Q 47.40625 15.53125 47.40625 23.390625 
Q 47.40625 31.296875 43.53125 35.828125 
Q 39.65625 40.375 33.015625 40.375 
z
M 52.59375 71.296875 
L 52.59375 62.3125 
Q 48.875 64.0625 45.09375 64.984375 
Q 41.3125 65.921875 37.59375 65.921875 
Q 27.828125 65.921875 22.671875 59.328125 
Q 17.53125 52.734375 16.796875 39.40625 
Q 19.671875 43.65625 24.015625 45.921875 
Q 28.375 48.1875 33.59375 48.1875 
Q 44.578125 48.1875 50.953125 41.515625 
Q 57.328125 34.859375 57.328125 23.390625 
Q 57.328125 12.15625 50.6875 5.359375 
Q 44.046875 -1.421875 33.015625 -1.421875 
Q 20.359375 -1.421875 13.671875 8.265625 
Q 6.984375 17.96875 6.984375 36.375 
Q 6.984375 53.65625 15.1875 63.9375 
Q 23.390625 74.21875 37.203125 74.21875 
Q 40.921875 74.21875 44.703125 73.484375 
Q 48.484375 72.75 52.59375 71.296875 
z
" id="DejaVuSans-54"/>
       </defs>
       <use xlink:href="#DejaVuSans-54"/>
       <use x="63.623047" xlink:href="#DejaVuSans-48"/>
      </g>
     </g>
    </g>
    <g id="xtick_5">
     <g id="line2d_9">
      <path clip-path="url(#p304c686b55)" d="M 333.502366 279.010828 
L 333.502366 12.898828 
" style="fill:none;stroke:#b0b0b0;stroke-linecap:square;stroke-width:0.8;"/>
     </g>
     <g id="line2d_10">
      <g>
       <use style="stroke:#000000;stroke-width:0.8;" x="333.502366" xlink:href="#m005f0a59be" y="279.010828"/>
      </g>
     </g>
     <g id="text_5">
      <!-- 80 -->
      <g transform="translate(323.958616 297.408484)scale(0.15 -0.15)">
       <defs>
        <path d="M 31.78125 34.625 
Q 24.75 34.625 20.71875 30.859375 
Q 16.703125 27.09375 16.703125 20.515625 
Q 16.703125 13.921875 20.71875 10.15625 
Q 24.75 6.390625 31.78125 6.390625 
Q 38.8125 6.390625 42.859375 10.171875 
Q 46.921875 13.96875 46.921875 20.515625 
Q 46.921875 27.09375 42.890625 30.859375 
Q 38.875 34.625 31.78125 34.625 
z
M 21.921875 38.8125 
Q 15.578125 40.375 12.03125 44.71875 
Q 8.5 49.078125 8.5 55.328125 
Q 8.5 64.0625 14.71875 69.140625 
Q 20.953125 74.21875 31.78125 74.21875 
Q 42.671875 74.21875 48.875 69.140625 
Q 55.078125 64.0625 55.078125 55.328125 
Q 55.078125 49.078125 51.53125 44.71875 
Q 48 40.375 41.703125 38.8125 
Q 48.828125 37.15625 52.796875 32.3125 
Q 56.78125 27.484375 56.78125 20.515625 
Q 56.78125 9.90625 50.3125 4.234375 
Q 43.84375 -1.421875 31.78125 -1.421875 
Q 19.734375 -1.421875 13.25 4.234375 
Q 6.78125 9.90625 6.78125 20.515625 
Q 6.78125 27.484375 10.78125 32.3125 
Q 14.796875 37.15625 21.921875 38.8125 
z
M 18.3125 54.390625 
Q 18.3125 48.734375 21.84375 45.5625 
Q 25.390625 42.390625 31.78125 42.390625 
Q 38.140625 42.390625 41.71875 45.5625 
Q 45.3125 48.734375 45.3125 54.390625 
Q 45.3125 60.0625 41.71875 63.234375 
Q 38.140625 66.40625 31.78125 66.40625 
Q 25.390625 66.40625 21.84375 63.234375 
Q 18.3125 60.0625 18.3125 54.390625 
z
" id="DejaVuSans-56"/>
       </defs>
       <use xlink:href="#DejaVuSans-56"/>
       <use x="63.623047" xlink:href="#DejaVuSans-48"/>
      </g>
     </g>
    </g>
    <g id="xtick_6">
     <g id="line2d_11">
      <path clip-path="url(#p304c686b55)" d="M 401.525223 279.010828 
L 401.525223 12.898828 
" style="fill:none;stroke:#b0b0b0;stroke-linecap:square;stroke-width:0.8;"/>
     </g>
     <g id="line2d_12">
      <g>
       <use style="stroke:#000000;stroke-width:0.8;" x="401.525223" xlink:href="#m005f0a59be" y="279.010828"/>
      </g>
     </g>
     <g id="text_6">
      <!-- 100 -->
      <g transform="translate(387.209598 297.408484)scale(0.15 -0.15)">
       <defs>
        <path d="M 12.40625 8.296875 
L 28.515625 8.296875 
L 28.515625 63.921875 
L 10.984375 60.40625 
L 10.984375 69.390625 
L 28.421875 72.90625 
L 38.28125 72.90625 
L 38.28125 8.296875 
L 54.390625 8.296875 
L 54.390625 0 
L 12.40625 0 
z
" id="DejaVuSans-49"/>
       </defs>
       <use xlink:href="#DejaVuSans-49"/>
       <use x="63.623047" xlink:href="#DejaVuSans-48"/>
       <use x="127.246094" xlink:href="#DejaVuSans-48"/>
      </g>
     </g>
    </g>
    <g id="text_7">
     <!-- Time ($\mathrm{\mu s}$) -->
     <g transform="translate(192.570938 319.728016)scale(0.2 -0.2)">
      <defs>
       <path d="M -0.296875 72.90625 
L 61.375 72.90625 
L 61.375 64.59375 
L 35.5 64.59375 
L 35.5 0 
L 25.59375 0 
L 25.59375 64.59375 
L -0.296875 64.59375 
z
" id="DejaVuSans-84"/>
       <path d="M 9.421875 54.6875 
L 18.40625 54.6875 
L 18.40625 0 
L 9.421875 0 
z
M 9.421875 75.984375 
L 18.40625 75.984375 
L 18.40625 64.59375 
L 9.421875 64.59375 
z
" id="DejaVuSans-105"/>
       <path d="M 52 44.1875 
Q 55.375 50.25 60.0625 53.125 
Q 64.75 56 71.09375 56 
Q 79.640625 56 84.28125 50.015625 
Q 88.921875 44.046875 88.921875 33.015625 
L 88.921875 0 
L 79.890625 0 
L 79.890625 32.71875 
Q 79.890625 40.578125 77.09375 44.375 
Q 74.3125 48.1875 68.609375 48.1875 
Q 61.625 48.1875 57.5625 43.546875 
Q 53.515625 38.921875 53.515625 30.90625 
L 53.515625 0 
L 44.484375 0 
L 44.484375 32.71875 
Q 44.484375 40.625 41.703125 44.40625 
Q 38.921875 48.1875 33.109375 48.1875 
Q 26.21875 48.1875 22.15625 43.53125 
Q 18.109375 38.875 18.109375 30.90625 
L 18.109375 0 
L 9.078125 0 
L 9.078125 54.6875 
L 18.109375 54.6875 
L 18.109375 46.1875 
Q 21.1875 51.21875 25.484375 53.609375 
Q 29.78125 56 35.6875 56 
Q 41.65625 56 45.828125 52.96875 
Q 50 49.953125 52 44.1875 
z
" id="DejaVuSans-109"/>
       <path d="M 56.203125 29.59375 
L 56.203125 25.203125 
L 14.890625 25.203125 
Q 15.484375 15.921875 20.484375 11.0625 
Q 25.484375 6.203125 34.421875 6.203125 
Q 39.59375 6.203125 44.453125 7.46875 
Q 49.3125 8.734375 54.109375 11.28125 
L 54.109375 2.78125 
Q 49.265625 0.734375 44.1875 -0.34375 
Q 39.109375 -1.421875 33.890625 -1.421875 
Q 20.796875 -1.421875 13.15625 6.1875 
Q 5.515625 13.8125 5.515625 26.8125 
Q 5.515625 40.234375 12.765625 48.109375 
Q 20.015625 56 32.328125 56 
Q 43.359375 56 49.78125 48.890625 
Q 56.203125 41.796875 56.203125 29.59375 
z
M 47.21875 32.234375 
Q 47.125 39.59375 43.09375 43.984375 
Q 39.0625 48.390625 32.421875 48.390625 
Q 24.90625 48.390625 20.390625 44.140625 
Q 15.875 39.890625 15.1875 32.171875 
z
" id="DejaVuSans-101"/>
       <path id="DejaVuSans-32"/>
       <path d="M 31 75.875 
Q 24.46875 64.65625 21.28125 53.65625 
Q 18.109375 42.671875 18.109375 31.390625 
Q 18.109375 20.125 21.3125 9.0625 
Q 24.515625 -2 31 -13.1875 
L 23.1875 -13.1875 
Q 15.875 -1.703125 12.234375 9.375 
Q 8.59375 20.453125 8.59375 31.390625 
Q 8.59375 42.28125 12.203125 53.3125 
Q 15.828125 64.359375 23.1875 75.875 
z
" id="DejaVuSans-40"/>
       <path d="M 8.5 -20.796875 
L 8.5 54.6875 
L 17.484375 54.6875 
L 17.484375 20.703125 
Q 17.484375 13.625 20.84375 10 
Q 24.21875 6.390625 30.8125 6.390625 
Q 38.03125 6.390625 41.671875 10.484375 
Q 45.3125 14.59375 45.3125 22.796875 
L 45.3125 54.6875 
L 54.296875 54.6875 
L 54.296875 12.59375 
Q 54.296875 9.671875 55.140625 8.28125 
Q 56 6.890625 57.8125 6.890625 
Q 58.25 6.890625 59.03125 7.15625 
Q 59.8125 7.421875 61.1875 8.015625 
L 61.1875 0.78125 
Q 59.1875 -0.34375 57.390625 -0.875 
Q 55.609375 -1.421875 53.90625 -1.421875 
Q 50.53125 -1.421875 48.53125 0.484375 
Q 46.53125 2.390625 45.796875 6.296875 
Q 43.359375 2.4375 39.8125 0.5 
Q 36.28125 -1.421875 31.5 -1.421875 
Q 26.515625 -1.421875 23.015625 0.484375 
Q 19.53125 2.390625 17.484375 6.203125 
L 17.484375 -20.796875 
z
" id="DejaVuSans-956"/>
       <path d="M 44.28125 53.078125 
L 44.28125 44.578125 
Q 40.484375 46.53125 36.375 47.5 
Q 32.28125 48.484375 27.875 48.484375 
Q 21.1875 48.484375 17.84375 46.4375 
Q 14.5 44.390625 14.5 40.28125 
Q 14.5 37.15625 16.890625 35.375 
Q 19.28125 33.59375 26.515625 31.984375 
L 29.59375 31.296875 
Q 39.15625 29.25 43.1875 25.515625 
Q 47.21875 21.78125 47.21875 15.09375 
Q 47.21875 7.46875 41.1875 3.015625 
Q 35.15625 -1.421875 24.609375 -1.421875 
Q 20.21875 -1.421875 15.453125 -0.5625 
Q 10.6875 0.296875 5.421875 2 
L 5.421875 11.28125 
Q 10.40625 8.6875 15.234375 7.390625 
Q 20.0625 6.109375 24.8125 6.109375 
Q 31.15625 6.109375 34.5625 8.28125 
Q 37.984375 10.453125 37.984375 14.40625 
Q 37.984375 18.0625 35.515625 20.015625 
Q 33.0625 21.96875 24.703125 23.78125 
L 21.578125 24.515625 
Q 13.234375 26.265625 9.515625 29.90625 
Q 5.8125 33.546875 5.8125 39.890625 
Q 5.8125 47.609375 11.28125 51.796875 
Q 16.75 56 26.8125 56 
Q 31.78125 56 36.171875 55.265625 
Q 40.578125 54.546875 44.28125 53.078125 
z
" id="DejaVuSans-115"/>
       <path d="M 8.015625 75.875 
L 15.828125 75.875 
Q 23.140625 64.359375 26.78125 53.3125 
Q 30.421875 42.28125 30.421875 31.390625 
Q 30.421875 20.453125 26.78125 9.375 
Q 23.140625 -1.703125 15.828125 -13.1875 
L 8.015625 -13.1875 
Q 14.5 -2 17.703125 9.0625 
Q 20.90625 20.125 20.90625 31.390625 
Q 20.90625 42.671875 17.703125 53.65625 
Q 14.5 64.65625 8.015625 75.875 
z
" id="DejaVuSans-41"/>
      </defs>
      <use transform="translate(0 0.015625)" xlink:href="#DejaVuSans-84"/>
      <use transform="translate(61.083984 0.015625)" xlink:href="#DejaVuSans-105"/>
      <use transform="translate(88.867188 0.015625)" xlink:href="#DejaVuSans-109"/>
      <use transform="translate(186.279297 0.015625)" xlink:href="#DejaVuSans-101"/>
      <use transform="translate(247.802734 0.015625)" xlink:href="#DejaVuSans-32"/>
      <use transform="translate(279.589844 0.015625)" xlink:href="#DejaVuSans-40"/>
      <use transform="translate(318.603516 0.015625)" xlink:href="#DejaVuSans-956"/>
      <use transform="translate(382.226562 0.015625)" xlink:href="#DejaVuSans-115"/>
      <use transform="translate(434.326172 0.015625)" xlink:href="#DejaVuSans-41"/>
     </g>
    </g>
   </g>
   <g id="matplotlib.axis_2">
    <g id="ytick_1">
     <g id="line2d_13">
      <path clip-path="url(#p304c686b55)" d="M 61.410938 279.010828 
L 418.530938 279.010828 
" style="fill:none;stroke:#b0b0b0;stroke-linecap:square;stroke-width:0.8;"/>
     </g>
     <g id="line2d_14">
      <defs>
       <path d="M 0 0 
L -3.5 0 
" id="mc3ce260a5b" style="stroke:#000000;stroke-width:0.8;"/>
      </defs>
      <g>
       <use style="stroke:#000000;stroke-width:0.8;" x="61.410938" xlink:href="#mc3ce260a5b" y="279.010828"/>
      </g>
     </g>
     <g id="text_8">
      <!-- 0.0 -->
      <g transform="translate(30.55625 284.709656)scale(0.15 -0.15)">
       <defs>
        <path d="M 10.6875 12.40625 
L 21 12.40625 
L 21 0 
L 10.6875 0 
z
" id="DejaVuSans-46"/>
       </defs>
       <use xlink:href="#DejaVuSans-48"/>
       <use x="63.623047" xlink:href="#DejaVuSans-46"/>
       <use x="95.410156" xlink:href="#DejaVuSans-48"/>
      </g>
     </g>
    </g>
    <g id="ytick_2">
     <g id="line2d_15">
      <path clip-path="url(#p304c686b55)" d="M 61.410938 225.788428 
L 418.530938 225.788428 
" style="fill:none;stroke:#b0b0b0;stroke-linecap:square;stroke-width:0.8;"/>
     </g>
     <g id="line2d_16">
      <g>
       <use style="stroke:#000000;stroke-width:0.8;" x="61.410938" xlink:href="#mc3ce260a5b" y="225.788428"/>
      </g>
     </g>
     <g id="text_9">
      <!-- 0.2 -->
      <g transform="translate(30.55625 231.487256)scale(0.15 -0.15)">
       <use xlink:href="#DejaVuSans-48"/>
       <use x="63.623047" xlink:href="#DejaVuSans-46"/>
       <use x="95.410156" xlink:href="#DejaVuSans-50"/>
      </g>
     </g>
    </g>
    <g id="ytick_3">
     <g id="line2d_17">
      <path clip-path="url(#p304c686b55)" d="M 61.410938 172.566028 
L 418.530938 172.566028 
" style="fill:none;stroke:#b0b0b0;stroke-linecap:square;stroke-width:0.8;"/>
     </g>
     <g id="line2d_18">
      <g>
       <use style="stroke:#000000;stroke-width:0.8;" x="61.410938" xlink:href="#mc3ce260a5b" y="172.566028"/>
      </g>
     </g>
     <g id="text_10">
      <!-- 0.4 -->
      <g transform="translate(30.55625 178.264856)scale(0.15 -0.15)">
       <use xlink:href="#DejaVuSans-48"/>
       <use x="63.623047" xlink:href="#DejaVuSans-46"/>
       <use x="95.410156" xlink:href="#DejaVuSans-52"/>
      </g>
     </g>
    </g>
    <g id="ytick_4">
     <g id="line2d_19">
      <path clip-path="url(#p304c686b55)" d="M 61.410938 119.343628 
L 418.530938 119.343628 
" style="fill:none;stroke:#b0b0b0;stroke-linecap:square;stroke-width:0.8;"/>
     </g>
     <g id="line2d_20">
      <g>
       <use style="stroke:#000000;stroke-width:0.8;" x="61.410938" xlink:href="#mc3ce260a5b" y="119.343628"/>
      </g>
     </g>
     <g id="text_11">
      <!-- 0.6 -->
      <g transform="translate(30.55625 125.042456)scale(0.15 -0.15)">
       <use xlink:href="#DejaVuSans-48"/>
       <use x="63.623047" xlink:href="#DejaVuSans-46"/>
       <use x="95.410156" xlink:href="#DejaVuSans-54"/>
      </g>
     </g>
    </g>
    <g id="ytick_5">
     <g id="line2d_21">
      <path clip-path="url(#p304c686b55)" d="M 61.410938 66.121228 
L 418.530938 66.121228 
" style="fill:none;stroke:#b0b0b0;stroke-linecap:square;stroke-width:0.8;"/>
     </g>
     <g id="line2d_22">
      <g>
       <use style="stroke:#000000;stroke-width:0.8;" x="61.410938" xlink:href="#mc3ce260a5b" y="66.121228"/>
      </g>
     </g>
     <g id="text_12">
      <!-- 0.8 -->
      <g transform="translate(30.55625 71.820056)scale(0.15 -0.15)">
       <use xlink:href="#DejaVuSans-48"/>
       <use x="63.623047" xlink:href="#DejaVuSans-46"/>
       <use x="95.410156" xlink:href="#DejaVuSans-56"/>
      </g>
     </g>
    </g>
    <g id="ytick_6">
     <g id="line2d_23">
      <path clip-path="url(#p304c686b55)" d="M 61.410938 12.898828 
L 418.530938 12.898828 
" style="fill:none;stroke:#b0b0b0;stroke-linecap:square;stroke-width:0.8;"/>
     </g>
     <g id="line2d_24">
      <g>
       <use style="stroke:#000000;stroke-width:0.8;" x="61.410938" xlink:href="#mc3ce260a5b" y="12.898828"/>
      </g>
     </g>
     <g id="text_13">
      <!-- 1.0 -->
      <g transform="translate(30.55625 18.597656)scale(0.15 -0.15)">
       <use xlink:href="#DejaVuSans-49"/>
       <use x="63.623047" xlink:href="#DejaVuSans-46"/>
       <use x="95.410156" xlink:href="#DejaVuSans-48"/>
      </g>
     </g>
    </g>
    <g id="text_14">
     <!-- F=1 Population -->
     <g transform="translate(22.396875 222.159516)rotate(-90)scale(0.2 -0.2)">
      <defs>
       <path d="M 9.8125 72.90625 
L 51.703125 72.90625 
L 51.703125 64.59375 
L 19.671875 64.59375 
L 19.671875 43.109375 
L 48.578125 43.109375 
L 48.578125 34.8125 
L 19.671875 34.8125 
L 19.671875 0 
L 9.8125 0 
z
" id="DejaVuSans-70"/>
       <path d="M 10.59375 45.40625 
L 73.1875 45.40625 
L 73.1875 37.203125 
L 10.59375 37.203125 
z
M 10.59375 25.484375 
L 73.1875 25.484375 
L 73.1875 17.1875 
L 10.59375 17.1875 
z
" id="DejaVuSans-61"/>
       <path d="M 19.671875 64.796875 
L 19.671875 37.40625 
L 32.078125 37.40625 
Q 38.96875 37.40625 42.71875 40.96875 
Q 46.484375 44.53125 46.484375 51.125 
Q 46.484375 57.671875 42.71875 61.234375 
Q 38.96875 64.796875 32.078125 64.796875 
z
M 9.8125 72.90625 
L 32.078125 72.90625 
Q 44.34375 72.90625 50.609375 67.359375 
Q 56.890625 61.8125 56.890625 51.125 
Q 56.890625 40.328125 50.609375 34.8125 
Q 44.34375 29.296875 32.078125 29.296875 
L 19.671875 29.296875 
L 19.671875 0 
L 9.8125 0 
z
" id="DejaVuSans-80"/>
       <path d="M 30.609375 48.390625 
Q 23.390625 48.390625 19.1875 42.75 
Q 14.984375 37.109375 14.984375 27.296875 
Q 14.984375 17.484375 19.15625 11.84375 
Q 23.34375 6.203125 30.609375 6.203125 
Q 37.796875 6.203125 41.984375 11.859375 
Q 46.1875 17.53125 46.1875 27.296875 
Q 46.1875 37.015625 41.984375 42.703125 
Q 37.796875 48.390625 30.609375 48.390625 
z
M 30.609375 56 
Q 42.328125 56 49.015625 48.375 
Q 55.71875 40.765625 55.71875 27.296875 
Q 55.71875 13.875 49.015625 6.21875 
Q 42.328125 -1.421875 30.609375 -1.421875 
Q 18.84375 -1.421875 12.171875 6.21875 
Q 5.515625 13.875 5.515625 27.296875 
Q 5.515625 40.765625 12.171875 48.375 
Q 18.84375 56 30.609375 56 
z
" id="DejaVuSans-111"/>
       <path d="M 18.109375 8.203125 
L 18.109375 -20.796875 
L 9.078125 -20.796875 
L 9.078125 54.6875 
L 18.109375 54.6875 
L 18.109375 46.390625 
Q 20.953125 51.265625 25.265625 53.625 
Q 29.59375 56 35.59375 56 
Q 45.5625 56 51.78125 48.09375 
Q 58.015625 40.1875 58.015625 27.296875 
Q 58.015625 14.40625 51.78125 6.484375 
Q 45.5625 -1.421875 35.59375 -1.421875 
Q 29.59375 -1.421875 25.265625 0.953125 
Q 20.953125 3.328125 18.109375 8.203125 
z
M 48.6875 27.296875 
Q 48.6875 37.203125 44.609375 42.84375 
Q 40.53125 48.484375 33.40625 48.484375 
Q 26.265625 48.484375 22.1875 42.84375 
Q 18.109375 37.203125 18.109375 27.296875 
Q 18.109375 17.390625 22.1875 11.75 
Q 26.265625 6.109375 33.40625 6.109375 
Q 40.53125 6.109375 44.609375 11.75 
Q 48.6875 17.390625 48.6875 27.296875 
z
" id="DejaVuSans-112"/>
       <path d="M 8.5 21.578125 
L 8.5 54.6875 
L 17.484375 54.6875 
L 17.484375 21.921875 
Q 17.484375 14.15625 20.5 10.265625 
Q 23.53125 6.390625 29.59375 6.390625 
Q 36.859375 6.390625 41.078125 11.03125 
Q 45.3125 15.671875 45.3125 23.6875 
L 45.3125 54.6875 
L 54.296875 54.6875 
L 54.296875 0 
L 45.3125 0 
L 45.3125 8.40625 
Q 42.046875 3.421875 37.71875 1 
Q 33.40625 -1.421875 27.6875 -1.421875 
Q 18.265625 -1.421875 13.375 4.4375 
Q 8.5 10.296875 8.5 21.578125 
z
M 31.109375 56 
z
" id="DejaVuSans-117"/>
       <path d="M 9.421875 75.984375 
L 18.40625 75.984375 
L 18.40625 0 
L 9.421875 0 
z
" id="DejaVuSans-108"/>
       <path d="M 34.28125 27.484375 
Q 23.390625 27.484375 19.1875 25 
Q 14.984375 22.515625 14.984375 16.5 
Q 14.984375 11.71875 18.140625 8.90625 
Q 21.296875 6.109375 26.703125 6.109375 
Q 34.1875 6.109375 38.703125 11.40625 
Q 43.21875 16.703125 43.21875 25.484375 
L 43.21875 27.484375 
z
M 52.203125 31.203125 
L 52.203125 0 
L 43.21875 0 
L 43.21875 8.296875 
Q 40.140625 3.328125 35.546875 0.953125 
Q 30.953125 -1.421875 24.3125 -1.421875 
Q 15.921875 -1.421875 10.953125 3.296875 
Q 6 8.015625 6 15.921875 
Q 6 25.140625 12.171875 29.828125 
Q 18.359375 34.515625 30.609375 34.515625 
L 43.21875 34.515625 
L 43.21875 35.40625 
Q 43.21875 41.609375 39.140625 45 
Q 35.0625 48.390625 27.6875 48.390625 
Q 23 48.390625 18.546875 47.265625 
Q 14.109375 46.140625 10.015625 43.890625 
L 10.015625 52.203125 
Q 14.9375 54.109375 19.578125 55.046875 
Q 24.21875 56 28.609375 56 
Q 40.484375 56 46.34375 49.84375 
Q 52.203125 43.703125 52.203125 31.203125 
z
" id="DejaVuSans-97"/>
       <path d="M 18.3125 70.21875 
L 18.3125 54.6875 
L 36.8125 54.6875 
L 36.8125 47.703125 
L 18.3125 47.703125 
L 18.3125 18.015625 
Q 18.3125 11.328125 20.140625 9.421875 
Q 21.96875 7.515625 27.59375 7.515625 
L 36.8125 7.515625 
L 36.8125 0 
L 27.59375 0 
Q 17.1875 0 13.234375 3.875 
Q 9.28125 7.765625 9.28125 18.015625 
L 9.28125 47.703125 
L 2.6875 47.703125 
L 2.6875 54.6875 
L 9.28125 54.6875 
L 9.28125 70.21875 
z
" id="DejaVuSans-116"/>
       <path d="M 54.890625 33.015625 
L 54.890625 0 
L 45.90625 0 
L 45.90625 32.71875 
Q 45.90625 40.484375 42.875 44.328125 
Q 39.84375 48.1875 33.796875 48.1875 
Q 26.515625 48.1875 22.3125 43.546875 
Q 18.109375 38.921875 18.109375 30.90625 
L 18.109375 0 
L 9.078125 0 
L 9.078125 54.6875 
L 18.109375 54.6875 
L 18.109375 46.1875 
Q 21.34375 51.125 25.703125 53.5625 
Q 30.078125 56 35.796875 56 
Q 45.21875 56 50.046875 50.171875 
Q 54.890625 44.34375 54.890625 33.015625 
z
" id="DejaVuSans-110"/>
      </defs>
      <use xlink:href="#DejaVuSans-70"/>
      <use x="57.519531" xlink:href="#DejaVuSans-61"/>
      <use x="141.308594" xlink:href="#DejaVuSans-49"/>
      <use x="204.931641" xlink:href="#DejaVuSans-32"/>
      <use x="236.71875" xlink:href="#DejaVuSans-80"/>
      <use x="293.396484" xlink:href="#DejaVuSans-111"/>
      <use x="354.578125" xlink:href="#DejaVuSans-112"/>
      <use x="418.054688" xlink:href="#DejaVuSans-117"/>
      <use x="481.433594" xlink:href="#DejaVuSans-108"/>
      <use x="509.216797" xlink:href="#DejaVuSans-97"/>
      <use x="570.496094" xlink:href="#DejaVuSans-116"/>
      <use x="609.705078" xlink:href="#DejaVuSans-105"/>
      <use x="637.488281" xlink:href="#DejaVuSans-111"/>
      <use x="698.669922" xlink:href="#DejaVuSans-110"/>
     </g>
    </g>
   </g>
   <g id="LineCollection_1">
    <path clip-path="url(#p304c686b55)" d="M 61.410938 279.010828 
L 61.410938 277.828108 
" style="fill:none;stroke:#1f77b4;stroke-width:1.5;"/>
    <path clip-path="url(#p304c686b55)" d="M 69.913795 223.291573 
L 69.913795 208.792305 
" style="fill:none;stroke:#1f77b4;stroke-width:1.5;"/>
    <path clip-path="url(#p304c686b55)" d="M 78.416652 80.135688 
L 78.416652 64.91027 
" style="fill:none;stroke:#1f77b4;stroke-width:1.5;"/>
    <path clip-path="url(#p304c686b55)" d="M 86.919509 46.209127 
L 86.919509 35.551997 
" style="fill:none;stroke:#1f77b4;stroke-width:1.5;"/>
    <path clip-path="url(#p304c686b55)" d="M 95.422366 157.313684 
L 95.422366 140.139972 
" style="fill:none;stroke:#1f77b4;stroke-width:1.5;"/>
    <path clip-path="url(#p304c686b55)" d="M 103.925223 274.154652 
L 103.925223 268.213357 
" style="fill:none;stroke:#1f77b4;stroke-width:1.5;"/>
    <path clip-path="url(#p304c686b55)" d="M 112.42808 231.620047 
L 112.42808 218.025352 
" style="fill:none;stroke:#1f77b4;stroke-width:1.5;"/>
    <path clip-path="url(#p304c686b55)" d="M 120.930938 106.526666 
L 120.930938 90.006565 
" style="fill:none;stroke:#1f77b4;stroke-width:1.5;"/>
    <path clip-path="url(#p304c686b55)" d="M 129.433795 47.893253 
L 129.433795 36.911847 
" style="fill:none;stroke:#1f77b4;stroke-width:1.5;"/>
    <path clip-path="url(#p304c686b55)" d="M 137.936652 155.306702 
L 137.936652 137.759963 
" style="fill:none;stroke:#1f77b4;stroke-width:1.5;"/>
    <path clip-path="url(#p304c686b55)" d="M 146.439509 265.204699 
L 146.439509 256.314869 
" style="fill:none;stroke:#1f77b4;stroke-width:1.5;"/>
    <path clip-path="url(#p304c686b55)" d="M 154.942366 244.603448 
L 154.942366 231.631493 
" style="fill:none;stroke:#1f77b4;stroke-width:1.5;"/>
    <path clip-path="url(#p304c686b55)" d="M 163.445223 114.491977 
L 163.445223 98.031327 
" style="fill:none;stroke:#1f77b4;stroke-width:1.5;"/>
    <path clip-path="url(#p304c686b55)" d="M 171.94808 37.865832 
L 171.94808 28.787193 
" style="fill:none;stroke:#1f77b4;stroke-width:1.5;"/>
    <path clip-path="url(#p304c686b55)" d="M 180.450938 152.386103 
L 180.450938 134.955107 
" style="fill:none;stroke:#1f77b4;stroke-width:1.5;"/>
    <path clip-path="url(#p304c686b55)" d="M 188.953795 259.133198 
L 188.953795 249.199496 
" style="fill:none;stroke:#1f77b4;stroke-width:1.5;"/>
    <path clip-path="url(#p304c686b55)" d="M 197.456652 257.018719 
L 197.456652 246.386063 
" style="fill:none;stroke:#1f77b4;stroke-width:1.5;"/>
    <path clip-path="url(#p304c686b55)" d="M 205.959509 125.260711 
L 205.959509 108.033967 
" style="fill:none;stroke:#1f77b4;stroke-width:1.5;"/>
    <path clip-path="url(#p304c686b55)" d="M 214.462366 48.446071 
L 214.462366 36.909985 
" style="fill:none;stroke:#1f77b4;stroke-width:1.5;"/>
    <path clip-path="url(#p304c686b55)" d="M 222.965223 112.646022 
L 222.965223 95.73072 
" style="fill:none;stroke:#1f77b4;stroke-width:1.5;"/>
    <path clip-path="url(#p304c686b55)" d="M 231.46808 228.478179 
L 231.46808 213.790724 
" style="fill:none;stroke:#1f77b4;stroke-width:1.5;"/>
    <path clip-path="url(#p304c686b55)" d="M 239.970938 257.408808 
L 239.970938 246.671227 
" style="fill:none;stroke:#1f77b4;stroke-width:1.5;"/>
    <path clip-path="url(#p304c686b55)" d="M 248.473795 152.495417 
L 248.473795 134.597732 
" style="fill:none;stroke:#1f77b4;stroke-width:1.5;"/>
    <path clip-path="url(#p304c686b55)" d="M 256.976652 46.448476 
L 256.976652 35.89798 
" style="fill:none;stroke:#1f77b4;stroke-width:1.5;"/>
    <path clip-path="url(#p304c686b55)" d="M 265.479509 90.750202 
L 265.479509 75.168375 
" style="fill:none;stroke:#1f77b4;stroke-width:1.5;"/>
    <path clip-path="url(#p304c686b55)" d="M 273.982366 216.174146 
L 273.982366 200.621405 
" style="fill:none;stroke:#1f77b4;stroke-width:1.5;"/>
    <path clip-path="url(#p304c686b55)" d="M 282.485223 253.960456 
L 282.485223 242.262679 
" style="fill:none;stroke:#1f77b4;stroke-width:1.5;"/>
    <path clip-path="url(#p304c686b55)" d="M 290.98808 179.251198 
L 290.98808 161.895039 
" style="fill:none;stroke:#1f77b4;stroke-width:1.5;"/>
    <path clip-path="url(#p304c686b55)" d="M 299.490938 74.530696 
L 299.490938 60.290819 
" style="fill:none;stroke:#1f77b4;stroke-width:1.5;"/>
    <path clip-path="url(#p304c686b55)" d="M 307.993795 92.127523 
L 307.993795 76.315754 
" style="fill:none;stroke:#1f77b4;stroke-width:1.5;"/>
    <path clip-path="url(#p304c686b55)" d="M 316.496652 214.175533 
L 316.496652 198.371563 
" style="fill:none;stroke:#1f77b4;stroke-width:1.5;"/>
    <path clip-path="url(#p304c686b55)" d="M 324.999509 258.775721 
L 324.999509 248.388975 
" style="fill:none;stroke:#1f77b4;stroke-width:1.5;"/>
    <path clip-path="url(#p304c686b55)" d="M 333.502366 185.722453 
L 333.502366 168.073715 
" style="fill:none;stroke:#1f77b4;stroke-width:1.5;"/>
    <path clip-path="url(#p304c686b55)" d="M 342.005223 67.652155 
L 342.005223 54.177223 
" style="fill:none;stroke:#1f77b4;stroke-width:1.5;"/>
    <path clip-path="url(#p304c686b55)" d="M 350.50808 72.054685 
L 350.50808 58.703481 
" style="fill:none;stroke:#1f77b4;stroke-width:1.5;"/>
    <path clip-path="url(#p304c686b55)" d="M 359.010938 180.940234 
L 359.010938 163.966304 
" style="fill:none;stroke:#1f77b4;stroke-width:1.5;"/>
    <path clip-path="url(#p304c686b55)" d="M 367.513795 242.785629 
L 367.513795 229.43356 
" style="fill:none;stroke:#1f77b4;stroke-width:1.5;"/>
    <path clip-path="url(#p304c686b55)" d="M 376.016652 198.342675 
L 376.016652 181.003781 
" style="fill:none;stroke:#1f77b4;stroke-width:1.5;"/>
    <path clip-path="url(#p304c686b55)" d="M 384.519509 94.170723 
L 384.519509 78.718376 
" style="fill:none;stroke:#1f77b4;stroke-width:1.5;"/>
    <path clip-path="url(#p304c686b55)" d="M 393.022366 82.43563 
L 393.022366 67.047886 
" style="fill:none;stroke:#1f77b4;stroke-width:1.5;"/>
    <path clip-path="url(#p304c686b55)" d="M 401.525223 185.761045 
L 401.525223 168.555407 
" style="fill:none;stroke:#1f77b4;stroke-width:1.5;"/>
   </g>
   <g id="LineCollection_2">
    <path clip-path="url(#p304c686b55)" d="M 61.410938 274.780846 
L 61.410938 267.789145 
" style="fill:none;stroke:#d62728;stroke-width:1.5;"/>
    <path clip-path="url(#p304c686b55)" d="M 69.913795 237.845983 
L 69.913795 221.794873 
" style="fill:none;stroke:#d62728;stroke-width:1.5;"/>
    <path clip-path="url(#p304c686b55)" d="M 78.416652 137.513864 
L 78.416652 117.478521 
" style="fill:none;stroke:#d62728;stroke-width:1.5;"/>
    <path clip-path="url(#p304c686b55)" d="M 86.919509 88.584288 
L 86.919509 70.269368 
" style="fill:none;stroke:#d62728;stroke-width:1.5;"/>
    <path clip-path="url(#p304c686b55)" d="M 95.422366 109.242968 
L 95.422366 90.434688 
" style="fill:none;stroke:#d62728;stroke-width:1.5;"/>
    <path clip-path="url(#p304c686b55)" d="M 103.925223 198.010646 
L 103.925223 177.172154 
" style="fill:none;stroke:#d62728;stroke-width:1.5;"/>
    <path clip-path="url(#p304c686b55)" d="M 112.42808 191.843153 
L 112.42808 171.584103 
" style="fill:none;stroke:#d62728;stroke-width:1.5;"/>
    <path clip-path="url(#p304c686b55)" d="M 120.930938 149.052816 
L 120.930938 128.429082 
" style="fill:none;stroke:#d62728;stroke-width:1.5;"/>
    <path clip-path="url(#p304c686b55)" d="M 129.433795 133.181616 
L 129.433795 112.07204 
" style="fill:none;stroke:#d62728;stroke-width:1.5;"/>
    <path clip-path="url(#p304c686b55)" d="M 137.936652 134.606332 
L 137.936652 113.788155 
" style="fill:none;stroke:#d62728;stroke-width:1.5;"/>
    <path clip-path="url(#p304c686b55)" d="M 146.439509 167.368943 
L 146.439509 146.849504 
" style="fill:none;stroke:#d62728;stroke-width:1.5;"/>
    <path clip-path="url(#p304c686b55)" d="M 154.942366 194.092099 
L 154.942366 174.72854 
" style="fill:none;stroke:#d62728;stroke-width:1.5;"/>
    <path clip-path="url(#p304c686b55)" d="M 163.445223 180.209268 
L 163.445223 158.970283 
" style="fill:none;stroke:#d62728;stroke-width:1.5;"/>
    <path clip-path="url(#p304c686b55)" d="M 171.94808 132.151673 
L 171.94808 109.981638 
" style="fill:none;stroke:#d62728;stroke-width:1.5;"/>
    <path clip-path="url(#p304c686b55)" d="M 180.450938 139.536973 
L 180.450938 118.473066 
" style="fill:none;stroke:#d62728;stroke-width:1.5;"/>
    <path clip-path="url(#p304c686b55)" d="M 188.953795 157.155879 
L 188.953795 136.376412 
" style="fill:none;stroke:#d62728;stroke-width:1.5;"/>
   </g>
   <g id="line2d_25">
    <path clip-path="url(#p304c686b55)" d="M 61.410938 278.518987 
L 62.125178 278.518987 
L 62.482298 277.098432 
L 62.839418 276.652764 
L 63.553658 273.198929 
L 64.982138 263.497354 
L 65.339258 258.618852 
L 65.696378 256.109887 
L 67.124858 239.422992 
L 68.196218 223.331584 
L 68.910458 212.138569 
L 71.767418 164.230164 
L 74.624378 112.806589 
L 76.409978 85.254284 
L 77.124218 73.969768 
L 78.195578 59.949525 
L 78.909818 52.481232 
L 79.266938 47.571552 
L 79.624058 45.10428 
L 80.338298 38.327988 
L 81.409658 32.819812 
L 81.766778 30.120591 
L 82.123898 28.941594 
L 82.481018 26.696269 
L 83.195258 28.240204 
L 83.552378 26.696269 
L 83.909498 27.870063 
L 84.266618 27.487208 
L 84.623738 29.28944 
L 84.980858 31.74705 
L 85.337978 32.819812 
L 85.695098 34.956455 
L 86.052218 36.22158 
L 86.766458 42.918433 
L 87.123578 45.10428 
L 87.837818 52.721569 
L 89.266298 70.031681 
L 89.623418 75.544158 
L 89.980538 79.026598 
L 91.051898 96.775977 
L 93.194618 132.504771 
L 95.337338 170.308726 
L 98.194298 218.74816 
L 98.551418 222.778715 
L 99.265658 232.939961 
L 99.979898 242.485824 
L 101.408378 258.414012 
L 102.122618 263.837507 
L 102.479738 266.614148 
L 102.836858 267.902205 
L 103.193978 270.713478 
L 103.551098 271.764111 
L 103.908218 274.845724 
L 104.265338 276.008084 
L 104.622458 276.273663 
L 104.979578 276.394909 
L 105.336698 276.273663 
L 105.693818 276.394909 
L 106.050938 276.183919 
L 106.408058 274.375953 
L 106.765178 273.674483 
L 107.122298 272.632413 
L 108.193658 266.310631 
L 108.550778 262.643667 
L 109.265018 258.082972 
L 111.050618 236.717852 
L 113.550458 200.830077 
L 114.621818 182.369675 
L 115.693178 164.17327 
L 116.764538 144.201658 
L 117.478778 132.927692 
L 118.193018 120.295844 
L 119.978618 91.12888 
L 122.478458 58.607564 
L 123.192698 50.281505 
L 123.549818 47.623524 
L 123.906938 44.032795 
L 124.264058 42.530985 
L 125.335418 35.279902 
L 125.692538 34.73622 
L 126.049658 32.313745 
L 126.406778 31.634806 
L 126.763898 32.064179 
L 127.121018 31.540773 
L 127.478138 31.881689 
L 127.835258 31.681822 
L 128.549498 34.05423 
L 128.906618 33.889664 
L 129.263738 37.004428 
L 129.620858 38.087339 
L 130.335098 43.096499 
L 130.692218 45.51732 
L 131.406458 52.329312 
L 132.477818 63.844669 
L 132.834938 67.49135 
L 133.549178 78.624786 
L 133.906298 82.331364 
L 136.763258 127.171928 
L 138.191738 152.474617 
L 138.905978 164.461817 
L 139.263098 172.006599 
L 139.620218 175.964718 
L 140.691578 195.678484 
L 142.120058 215.942784 
L 142.834298 227.957673 
L 143.191418 230.914373 
L 144.619898 248.854109 
L 144.977018 251.366396 
L 145.334138 256.243989 
L 145.691258 258.01714 
L 147.476858 270.258802 
L 147.833978 270.509893 
L 148.548218 272.553424 
L 148.905338 271.869902 
L 149.262458 273.151077 
L 149.619578 273.108149 
L 149.976698 271.333004 
L 150.333818 270.74533 
L 150.690938 271.161026 
L 151.405178 265.781063 
L 151.762298 264.52509 
L 152.119418 262.495548 
L 152.833658 256.830113 
L 153.190778 253.745898 
L 155.690618 224.255045 
L 156.404858 213.675325 
L 156.761978 209.36639 
L 164.261498 87.278781 
L 166.047098 64.151853 
L 168.189818 45.706959 
L 168.546938 44.214283 
L 169.261178 39.514801 
L 169.618298 38.154664 
L 169.975418 37.524644 
L 170.332538 36.521765 
L 170.689658 36.247564 
L 171.046778 36.445809 
L 171.403898 36.17204 
L 171.761018 36.143625 
L 172.118138 37.53697 
L 172.475258 37.97513 
L 173.189498 41.60698 
L 173.903738 45.118802 
L 174.260858 49.032223 
L 174.617978 51.078726 
L 176.403578 69.650755 
L 177.117818 78.150061 
L 177.832058 87.580518 
L 178.903418 102.235221 
L 179.617658 114.419552 
L 180.331898 125.436312 
L 181.046138 136.868947 
L 182.474618 160.831475 
L 183.188858 172.905498 
L 185.688698 211.837236 
L 188.188538 242.996141 
L 189.259898 251.975828 
L 189.974138 257.951308 
L 190.688378 262.24826 
L 191.402618 264.10026 
L 191.759738 265.650659 
L 192.116858 267.96846 
L 192.473978 268.309571 
L 192.831098 268.210828 
L 193.188218 267.374777 
L 193.545338 266.953097 
L 193.902458 267.620081 
L 194.616698 264.618246 
L 194.973818 261.993022 
L 195.330938 260.894631 
L 195.688058 259.395444 
L 197.116538 247.434254 
L 197.473658 242.922079 
L 197.830778 241.346696 
L 198.187898 235.784735 
L 198.902138 228.519365 
L 200.330618 209.665173 
L 201.044858 199.034422 
L 201.759098 187.699116 
L 202.116218 181.134702 
L 202.473338 177.400397 
L 203.187578 165.184086 
L 206.401658 113.393301 
L 208.544378 82.36058 
L 208.901498 79.320489 
L 210.329978 62.326094 
L 210.687098 60.225231 
L 211.401338 53.982582 
L 212.472698 47.678801 
L 213.544058 42.571589 
L 213.901178 41.925788 
L 214.615418 41.804522 
L 214.972538 40.019038 
L 216.043898 43.832216 
L 216.401018 44.360347 
L 216.758138 45.905163 
L 217.115258 48.610137 
L 217.472378 49.596818 
L 219.615098 66.80023 
L 219.972218 72.092675 
L 220.686458 78.716789 
L 221.043578 84.668568 
L 221.757818 93.035108 
L 225.686138 153.200134 
L 226.043258 159.746834 
L 226.400378 163.754696 
L 227.114618 175.49533 
L 229.257338 208.057559 
L 230.685818 226.867695 
L 231.042938 229.671098 
L 232.114298 242.044044 
L 232.471418 245.283209 
L 232.828538 247.315165 
L 233.542778 254.215983 
L 233.899898 255.762948 
L 234.257018 257.845978 
L 234.614138 258.88424 
L 234.971258 260.67537 
L 235.328378 261.897461 
L 235.685498 262.594294 
L 236.042618 263.884815 
L 236.399738 263.341439 
L 236.756858 263.837507 
L 237.113978 263.049753 
L 237.471098 262.758871 
L 237.828218 262.24826 
L 238.185338 260.600561 
L 238.542458 258.360635 
L 238.899578 257.102797 
L 239.970938 250.288949 
L 240.328058 247.508085 
L 240.685178 245.80205 
L 241.042298 241.330769 
L 241.756538 234.808052 
L 244.613498 197.838225 
L 245.684858 182.288451 
L 246.041978 177.589494 
L 246.756218 164.474059 
L 247.470458 155.110662 
L 247.827578 148.596884 
L 248.184698 144.132857 
L 248.898938 132.168686 
L 249.613178 122.020634 
L 249.970298 114.81221 
L 250.684538 105.511514 
L 251.398778 95.529827 
L 252.113018 87.151045 
L 252.470138 81.642675 
L 252.827258 78.747457 
L 253.184378 73.976352 
L 254.255738 64.104453 
L 254.612858 62.931897 
L 254.969978 58.65245 
L 255.684218 53.630508 
L 257.112698 48.635137 
L 257.469818 46.07206 
L 257.826938 45.460076 
L 258.184058 45.692852 
L 258.541178 46.468165 
L 258.898298 46.221297 
L 259.255418 47.675496 
L 259.612538 47.730099 
L 259.969658 48.910222 
L 260.326778 49.392097 
L 260.683898 52.372717 
L 261.041018 53.228923 
L 261.398138 54.936282 
L 262.112378 61.724861 
L 262.469498 63.685396 
L 263.897978 78.063655 
L 264.969338 91.508415 
L 266.040698 105.539595 
L 268.183418 136.369047 
L 269.254778 154.3529 
L 269.611898 157.953938 
L 271.754618 191.022564 
L 272.111738 195.641909 
L 272.468858 202.364591 
L 273.183098 209.796841 
L 273.897338 219.938401 
L 276.754298 248.187087 
L 278.182778 257.052157 
L 278.539898 257.242056 
L 278.897018 258.200505 
L 279.254138 259.705792 
L 279.611258 260.169062 
L 279.968378 260.096454 
L 280.325498 260.645446 
L 280.682618 260.212627 
L 281.039738 259.18492 
L 281.396858 259.254461 
L 281.753978 257.064817 
L 282.468218 254.250034 
L 282.825338 251.574354 
L 283.182458 250.796237 
L 283.896698 245.388075 
L 284.253818 241.44226 
L 284.610938 238.738347 
L 285.682298 227.502417 
L 286.039418 224.95858 
L 287.110778 209.665173 
L 287.467898 206.772316 
L 288.896378 187.000748 
L 289.253498 182.344025 
L 290.324858 164.482121 
L 291.039098 154.808363 
L 293.896058 111.754583 
L 295.681658 88.06526 
L 297.824378 66.628166 
L 298.538618 60.53049 
L 299.252858 57.203186 
L 299.967098 52.582033 
L 300.324218 51.762451 
L 300.681338 50.050872 
L 301.038458 49.909861 
L 301.395578 49.600531 
L 301.752698 47.597538 
L 302.109818 48.435142 
L 302.466938 49.862272 
L 302.824058 49.524563 
L 303.181178 50.121407 
L 303.895418 52.431764 
L 304.252538 55.73615 
L 304.609658 57.231134 
L 305.323898 61.590964 
L 305.681018 65.222047 
L 306.038138 66.673052 
L 306.395258 70.386193 
L 306.752378 72.8755 
L 307.466618 80.811491 
L 308.537978 92.67129 
L 309.252218 101.931701 
L 311.752058 137.614701 
L 312.823418 154.485911 
L 313.537658 164.567913 
L 314.251898 175.12866 
L 315.323258 191.142667 
L 316.751738 211.513325 
L 318.180218 226.418731 
L 318.537338 231.469321 
L 318.894458 234.376608 
L 319.608698 241.641352 
L 320.680058 248.574362 
L 321.037178 252.078011 
L 321.394298 252.755727 
L 322.108538 255.678651 
L 322.465658 258.200505 
L 322.822778 257.721663 
L 323.179898 258.829381 
L 323.537018 259.254461 
L 324.251258 258.400668 
L 324.608378 257.115457 
L 324.965498 257.459509 
L 325.322618 255.543341 
L 325.679738 255.750905 
L 326.393978 250.298924 
L 326.751098 248.177683 
L 327.108218 247.406567 
L 329.250938 226.923242 
L 330.322298 214.613339 
L 331.036538 205.316978 
L 332.465018 184.125956 
L 332.822138 181.00275 
L 333.179258 176.249255 
L 333.536378 169.354134 
L 333.893498 164.80867 
L 334.607738 153.869222 
L 335.679098 138.008066 
L 337.107578 116.363895 
L 337.821818 107.643759 
L 338.536058 97.616538 
L 340.321658 77.420084 
L 341.393018 67.594521 
L 342.821498 56.793053 
L 343.178618 54.986155 
L 343.892858 52.47038 
L 344.249978 52.081946 
L 344.964218 49.380054 
L 345.321338 49.007841 
L 345.678458 50.339592 
L 346.392698 50.828279 
L 346.749818 51.806832 
L 347.106938 51.93931 
L 347.464058 53.58893 
L 348.178298 57.771773 
L 348.892538 62.558049 
L 349.249658 65.32234 
L 349.606778 69.551295 
L 349.963898 71.296751 
L 351.035258 81.164526 
L 352.106618 94.738811 
L 353.535098 113.241377 
L 354.249338 123.616596 
L 354.606458 128.187711 
L 355.320698 139.100789 
L 356.034938 149.572252 
L 357.463418 171.853721 
L 357.820538 175.47033 
L 358.891898 192.359292 
L 359.606138 201.479702 
L 360.320378 211.266448 
L 362.463098 235.197682 
L 362.820218 237.650212 
L 363.177338 241.666709 
L 363.534458 244.257078 
L 363.891578 247.71396 
L 365.320058 255.678651 
L 366.391418 257.591732 
L 366.748538 259.536511 
L 367.105658 259.254461 
L 367.462778 259.226645 
L 367.819898 259.337909 
L 368.177018 257.924976 
L 368.534138 257.760642 
L 368.891258 256.880112 
L 369.248378 254.910517 
L 369.605498 253.597045 
L 371.391098 240.674885 
L 372.105338 234.058951 
L 372.462458 231.331071 
L 374.248058 210.035632 
L 376.033658 185.784435 
L 377.105018 170.637895 
L 377.819258 158.994061 
L 378.533498 148.904469 
L 379.247738 137.016459 
L 379.961978 128.096404 
L 380.676218 116.021347 
L 381.033338 112.447495 
L 382.104698 97.417042 
L 384.247418 73.680602 
L 385.318778 63.174723 
L 385.675898 62.704949 
L 386.390138 57.112811 
L 387.461498 52.2425 
L 387.818618 51.15516 
L 388.532858 49.755196 
L 388.889978 48.947253 
L 389.247098 49.82658 
L 389.604218 49.380054 
L 389.961338 49.683812 
L 390.318458 51.368366 
L 390.675578 51.244931 
L 391.032698 54.054586 
L 391.746938 57.510612 
L 392.104058 58.442793 
L 393.175418 66.934888 
L 394.603898 81.294617 
L 395.318138 89.348334 
L 395.675258 93.040305 
L 396.032378 99.213533 
L 396.389498 102.888829 
L 404.246138 216.730265 
L 404.960378 224.33238 
L 405.317498 229.218524 
L 406.031738 236.008194 
L 407.103098 245.916669 
L 407.460218 248.441431 
L 407.817338 249.70398 
L 408.174458 252.929351 
L 408.531578 253.992768 
L 409.245818 258.28057 
L 409.602938 259.18492 
L 409.960058 259.007674 
L 410.317178 259.994803 
L 410.674298 260.038368 
L 411.031418 260.765139 
L 411.388538 260.038368 
L 411.745658 259.74087 
L 412.102778 259.18492 
L 412.817018 257.026837 
L 413.174138 254.170582 
L 413.531258 253.027014 
L 414.245498 248.612342 
L 414.959738 242.74698 
L 415.316858 238.557166 
L 415.673978 236.458364 
L 417.816698 211.5699 
L 418.530938 202.994417 
L 418.530938 202.994417 
" style="fill:none;stroke:#1f77b4;stroke-linecap:square;stroke-width:1.5;"/>
   </g>
   <g id="line2d_26">
    <path clip-path="url(#p304c686b55)" d="M 61.410938 278.50696 
L 62.499303 278.50696 
L 63.85976 274.375001 
L 64.131852 272.061268 
L 64.403943 272.557365 
L 64.948126 268.61563 
L 65.220218 267.698445 
L 65.7644 262.993777 
L 66.036492 261.672534 
L 66.308583 259.767838 
L 66.580675 256.50224 
L 66.852766 254.957311 
L 69.57368 228.536873 
L 70.389955 218.73094 
L 72.566686 191.474994 
L 72.838778 187.264112 
L 73.110869 184.831079 
L 76.920149 134.931329 
L 77.736423 125.318444 
L 78.280606 118.720368 
L 80.729429 93.377636 
L 81.273612 89.040081 
L 81.817795 84.654983 
L 82.361978 80.527988 
L 82.634069 78.452799 
L 83.178252 75.690912 
L 83.994526 70.536017 
L 84.266618 69.563379 
L 84.538709 67.324003 
L 84.8108 67.607845 
L 85.082892 65.981747 
L 85.354983 66.344051 
L 85.627075 64.885461 
L 85.899166 65.364992 
L 86.171258 64.106131 
L 86.443349 64.393068 
L 86.71544 64.334844 
L 86.987532 64.400346 
L 87.259623 63.408871 
L 87.531715 64.113462 
L 87.803806 63.512251 
L 88.075898 63.571325 
L 88.62008 64.196561 
L 89.164263 66.002971 
L 89.436355 66.052492 
L 89.708446 67.337862 
L 89.980538 68.079244 
L 90.252629 69.590001 
L 90.52472 70.257851 
L 90.796812 72.809661 
L 91.068903 73.232164 
L 91.340995 75.240765 
L 91.613086 75.818733 
L 91.885178 77.653727 
L 92.157269 78.582952 
L 94.061909 92.443102 
L 94.334 93.565733 
L 96.23864 111.791944 
L 96.510732 111.773878 
L 97.054915 117.196779 
L 98.959555 135.876099 
L 99.503738 139.912247 
L 101.136286 154.118945 
L 101.408378 155.78569 
L 101.680469 159.362693 
L 102.768835 168.143856 
L 103.040926 171.029304 
L 103.313018 171.811585 
L 104.401383 178.186102 
L 104.673475 181.674184 
L 104.945566 181.960391 
L 105.489749 185.708027 
L 106.033932 188.811779 
L 106.306023 189.60756 
L 106.578115 191.544285 
L 106.850206 192.433161 
L 107.122298 194.678863 
L 107.394389 194.160666 
L 107.938572 196.654085 
L 108.210663 197.87475 
L 108.482755 197.702146 
L 108.754846 198.710212 
L 109.026938 200.148284 
L 109.299029 199.2233 
L 109.57112 200.431743 
L 109.843212 199.968096 
L 110.387395 200.831137 
L 110.659486 200.757473 
L 110.931578 201.456499 
L 111.203669 201.451564 
L 111.47576 200.880247 
L 111.747852 200.762384 
L 112.019943 200.806583 
L 112.292035 199.831912 
L 112.564126 200.299788 
L 112.836218 199.165215 
L 113.108309 199.00548 
L 113.3804 197.26584 
L 113.652492 197.313786 
L 113.924583 195.891338 
L 114.468766 194.777676 
L 114.740858 193.241651 
L 115.012949 192.728831 
L 115.28504 191.17935 
L 115.557132 190.847427 
L 115.829223 188.684183 
L 116.101315 188.141085 
L 116.373406 187.2054 
L 116.917589 184.416613 
L 117.18968 181.876455 
L 117.461772 181.458657 
L 118.005955 177.12975 
L 118.278046 176.844411 
L 119.638503 169.034503 
L 120.182686 164.317981 
L 120.454778 163.458364 
L 121.815235 155.541068 
L 122.087326 154.64965 
L 122.359418 152.684383 
L 122.9036 147.604913 
L 123.447783 145.295974 
L 123.991966 141.91273 
L 125.352423 134.421652 
L 125.624515 133.506543 
L 125.896606 131.437599 
L 126.440789 129.122767 
L 126.71288 126.987117 
L 126.984972 126.91882 
L 127.257063 124.996943 
L 127.529155 124.023012 
L 127.801246 123.545166 
L 128.073338 121.589832 
L 128.345429 121.437866 
L 128.889612 118.847372 
L 129.161703 118.659055 
L 129.705886 116.671072 
L 129.977978 117.086337 
L 130.250069 115.679531 
L 131.066343 114.416314 
L 131.338435 115.488737 
L 131.882618 112.611562 
L 132.154709 114.005853 
L 132.698892 112.822886 
L 132.970983 113.271731 
L 133.243075 114.072998 
L 133.515166 113.406022 
L 133.787258 113.602981 
L 134.059349 115.258008 
L 134.33144 113.101653 
L 134.603532 114.358377 
L 135.147715 115.231386 
L 135.419806 114.960023 
L 135.691898 116.216048 
L 136.508172 117.412073 
L 137.052355 120.300823 
L 137.324446 120.026106 
L 137.596538 120.968944 
L 137.868629 121.281559 
L 138.14072 123.614045 
L 138.412812 124.315746 
L 139.501178 128.983082 
L 139.773269 128.97757 
L 140.04536 131.424954 
L 140.317452 131.36594 
L 140.589543 133.573707 
L 140.861635 134.413256 
L 141.405818 137.03825 
L 141.677909 137.826486 
L 142.222092 141.406902 
L 142.494183 141.950045 
L 143.310458 146.419576 
L 144.126732 149.987467 
L 144.398823 150.280641 
L 144.670915 153.090704 
L 144.943006 153.812131 
L 145.215098 155.594968 
L 145.487189 156.502971 
L 146.031372 158.804825 
L 146.575555 160.882259 
L 146.847646 161.519228 
L 147.391829 164.939247 
L 147.66392 166.60951 
L 147.936012 166.407179 
L 148.480195 169.902242 
L 148.752286 169.54668 
L 149.024378 170.072907 
L 149.296469 171.700601 
L 149.840652 172.49029 
L 150.112743 173.294936 
L 150.384835 173.087893 
L 150.656926 174.954499 
L 151.201109 175.940838 
L 151.4732 176.732005 
L 151.745292 176.952494 
L 152.017383 176.541779 
L 152.289475 178.364119 
L 152.561566 178.181761 
L 152.833658 177.708497 
L 153.105749 178.671604 
L 153.37784 178.614916 
L 153.649932 179.085859 
L 153.922023 178.501541 
L 154.194115 179.572978 
L 154.738298 177.942958 
L 155.010389 179.347494 
L 155.28248 179.46523 
L 155.554572 178.527704 
L 155.826663 178.514623 
L 156.370846 177.021667 
L 156.642938 177.304703 
L 156.915029 176.425049 
L 157.18712 177.209182 
L 157.459212 175.923545 
L 157.731303 175.423735 
L 158.003395 175.66481 
L 158.819669 172.682377 
L 159.09176 172.464679 
L 159.363852 171.467122 
L 159.635943 171.85427 
L 159.908035 169.995365 
L 160.180126 168.979476 
L 160.724309 168.148071 
L 161.268492 166.152395 
L 161.540583 164.788128 
L 161.812675 164.313783 
L 162.084766 162.647367 
L 162.356858 162.095554 
L 162.628949 160.012151 
L 162.90104 159.050453 
L 163.173132 159.158696 
L 163.445223 157.995579 
L 163.717315 156.337126 
L 163.989406 156.017873 
L 164.261498 154.077483 
L 164.533589 154.052606 
L 164.80568 152.213111 
L 165.077772 152.002522 
L 165.621955 149.079041 
L 165.894046 148.430755 
L 166.438229 146.067155 
L 166.71032 145.673272 
L 167.254503 142.779272 
L 167.526595 142.596842 
L 167.798686 141.581039 
L 168.342869 139.083771 
L 168.61496 138.946386 
L 169.431235 135.713064 
L 169.703326 135.512405 
L 169.975418 135.048381 
L 170.247509 133.246283 
L 171.335875 131.361725 
L 171.607966 130.81796 
L 171.880058 129.871985 
L 172.152149 129.588383 
L 172.696332 128.416484 
L 172.968423 128.599262 
L 173.512606 126.291337 
L 173.784698 127.383575 
L 174.056789 126.850523 
L 174.32888 125.434184 
L 174.600972 126.308412 
L 174.873063 126.739539 
L 175.145155 124.928356 
L 175.417246 125.605651 
L 175.961429 126.137668 
L 176.23352 126.005342 
L 176.505612 125.408464 
L 176.777703 126.406589 
L 177.049795 125.468478 
L 177.321886 126.257188 
L 177.593978 126.483424 
L 177.866069 127.179204 
L 178.13816 127.132249 
L 178.410252 127.982917 
L 178.682343 127.579105 
L 178.954435 128.671523 
L 179.226526 129.169329 
L 179.498618 129.198959 
L 179.770709 130.231779 
L 180.0428 130.066697 
L 180.314892 131.669437 
L 180.586983 132.605219 
L 180.859075 132.027732 
L 181.131166 132.428179 
L 181.94744 135.717244 
L 182.219532 136.085119 
L 182.491623 135.917903 
L 182.763715 137.025709 
L 183.035806 138.921407 
L 183.307898 138.775695 
L 184.124172 142.489042 
L 184.396263 142.584403 
L 184.940446 145.167444 
L 185.212538 145.250367 
L 185.75672 146.956627 
L 186.028812 148.831288 
L 186.300903 149.65713 
L 186.572995 151.056933 
L 186.845086 150.429293 
L 187.117178 152.242016 
L 187.66136 154.110652 
L 187.933452 154.41332 
L 188.205543 155.889343 
L 188.477635 155.702767 
L 188.749726 157.28659 
L 189.021818 157.77998 
L 189.566 161.165356 
L 189.838092 160.291085 
L 190.110183 160.682426 
L 190.382275 162.697531 
L 190.654366 162.513594 
L 190.926458 162.835484 
L 191.198549 163.366395 
L 191.742732 165.258275 
L 192.014823 165.279264 
L 192.286915 166.929868 
L 192.831098 167.081617 
L 193.103189 168.839791 
L 193.647372 168.110134 
L 194.191555 170.145168 
L 194.463646 170.024995 
L 194.735738 171.45862 
L 195.27992 170.791267 
L 195.552012 171.105816 
L 195.824103 171.06756 
L 196.096195 171.637148 
L 196.368286 170.782766 
L 196.640378 171.331101 
L 196.912469 172.507365 
L 197.18456 172.532976 
L 197.456652 172.042088 
L 197.456652 172.042088 
" style="fill:none;stroke:#d62728;stroke-linecap:square;stroke-width:1.5;"/>
   </g>
   <g id="line2d_27">
    <path clip-path="url(#p304c686b55)" d="M 61.410938 23.543308 
L 418.530938 23.543308 
" style="fill:none;stroke:#99aaaa;stroke-dasharray:9.6,2.4,1.5,2.4;stroke-dashoffset:0;stroke-width:1.5;"/>
   </g>
   <g id="line2d_28">
    <defs>
     <path d="M -3 3 
L 3 3 
L 3 -3 
L -3 -3 
z
" id="m9e0ac68bfd" style="stroke:#1f77b4;stroke-linejoin:miter;"/>
    </defs>
    <g clip-path="url(#p304c686b55)">
     <use style="fill:#1f77b4;stroke:#1f77b4;stroke-linejoin:miter;" x="61.410938" xlink:href="#m9e0ac68bfd" y="278.419468"/>
     <use style="fill:#1f77b4;stroke:#1f77b4;stroke-linejoin:miter;" x="69.913795" xlink:href="#m9e0ac68bfd" y="216.041939"/>
     <use style="fill:#1f77b4;stroke:#1f77b4;stroke-linejoin:miter;" x="78.416652" xlink:href="#m9e0ac68bfd" y="72.522979"/>
     <use style="fill:#1f77b4;stroke:#1f77b4;stroke-linejoin:miter;" x="86.919509" xlink:href="#m9e0ac68bfd" y="40.880562"/>
     <use style="fill:#1f77b4;stroke:#1f77b4;stroke-linejoin:miter;" x="95.422366" xlink:href="#m9e0ac68bfd" y="148.726828"/>
     <use style="fill:#1f77b4;stroke:#1f77b4;stroke-linejoin:miter;" x="103.925223" xlink:href="#m9e0ac68bfd" y="271.184005"/>
     <use style="fill:#1f77b4;stroke:#1f77b4;stroke-linejoin:miter;" x="112.42808" xlink:href="#m9e0ac68bfd" y="224.822699"/>
     <use style="fill:#1f77b4;stroke:#1f77b4;stroke-linejoin:miter;" x="120.930938" xlink:href="#m9e0ac68bfd" y="98.266616"/>
     <use style="fill:#1f77b4;stroke:#1f77b4;stroke-linejoin:miter;" x="129.433795" xlink:href="#m9e0ac68bfd" y="42.40255"/>
     <use style="fill:#1f77b4;stroke:#1f77b4;stroke-linejoin:miter;" x="137.936652" xlink:href="#m9e0ac68bfd" y="146.533332"/>
     <use style="fill:#1f77b4;stroke:#1f77b4;stroke-linejoin:miter;" x="146.439509" xlink:href="#m9e0ac68bfd" y="260.759784"/>
     <use style="fill:#1f77b4;stroke:#1f77b4;stroke-linejoin:miter;" x="154.942366" xlink:href="#m9e0ac68bfd" y="238.11747"/>
     <use style="fill:#1f77b4;stroke:#1f77b4;stroke-linejoin:miter;" x="163.445223" xlink:href="#m9e0ac68bfd" y="106.261652"/>
     <use style="fill:#1f77b4;stroke:#1f77b4;stroke-linejoin:miter;" x="171.94808" xlink:href="#m9e0ac68bfd" y="33.326513"/>
     <use style="fill:#1f77b4;stroke:#1f77b4;stroke-linejoin:miter;" x="180.450938" xlink:href="#m9e0ac68bfd" y="143.670605"/>
     <use style="fill:#1f77b4;stroke:#1f77b4;stroke-linejoin:miter;" x="188.953795" xlink:href="#m9e0ac68bfd" y="254.166347"/>
     <use style="fill:#1f77b4;stroke:#1f77b4;stroke-linejoin:miter;" x="197.456652" xlink:href="#m9e0ac68bfd" y="251.702391"/>
     <use style="fill:#1f77b4;stroke:#1f77b4;stroke-linejoin:miter;" x="205.959509" xlink:href="#m9e0ac68bfd" y="116.647339"/>
     <use style="fill:#1f77b4;stroke:#1f77b4;stroke-linejoin:miter;" x="214.462366" xlink:href="#m9e0ac68bfd" y="42.678028"/>
     <use style="fill:#1f77b4;stroke:#1f77b4;stroke-linejoin:miter;" x="222.965223" xlink:href="#m9e0ac68bfd" y="104.188371"/>
     <use style="fill:#1f77b4;stroke:#1f77b4;stroke-linejoin:miter;" x="231.46808" xlink:href="#m9e0ac68bfd" y="221.134451"/>
     <use style="fill:#1f77b4;stroke:#1f77b4;stroke-linejoin:miter;" x="239.970938" xlink:href="#m9e0ac68bfd" y="252.040017"/>
     <use style="fill:#1f77b4;stroke:#1f77b4;stroke-linejoin:miter;" x="248.473795" xlink:href="#m9e0ac68bfd" y="143.546575"/>
     <use style="fill:#1f77b4;stroke:#1f77b4;stroke-linejoin:miter;" x="256.976652" xlink:href="#m9e0ac68bfd" y="41.173228"/>
     <use style="fill:#1f77b4;stroke:#1f77b4;stroke-linejoin:miter;" x="265.479509" xlink:href="#m9e0ac68bfd" y="82.959288"/>
     <use style="fill:#1f77b4;stroke:#1f77b4;stroke-linejoin:miter;" x="273.982366" xlink:href="#m9e0ac68bfd" y="208.397775"/>
     <use style="fill:#1f77b4;stroke:#1f77b4;stroke-linejoin:miter;" x="282.485223" xlink:href="#m9e0ac68bfd" y="248.111567"/>
     <use style="fill:#1f77b4;stroke:#1f77b4;stroke-linejoin:miter;" x="290.98808" xlink:href="#m9e0ac68bfd" y="170.573119"/>
     <use style="fill:#1f77b4;stroke:#1f77b4;stroke-linejoin:miter;" x="299.490938" xlink:href="#m9e0ac68bfd" y="67.410758"/>
     <use style="fill:#1f77b4;stroke:#1f77b4;stroke-linejoin:miter;" x="307.993795" xlink:href="#m9e0ac68bfd" y="84.221639"/>
     <use style="fill:#1f77b4;stroke:#1f77b4;stroke-linejoin:miter;" x="316.496652" xlink:href="#m9e0ac68bfd" y="206.273548"/>
     <use style="fill:#1f77b4;stroke:#1f77b4;stroke-linejoin:miter;" x="324.999509" xlink:href="#m9e0ac68bfd" y="253.582348"/>
     <use style="fill:#1f77b4;stroke:#1f77b4;stroke-linejoin:miter;" x="333.502366" xlink:href="#m9e0ac68bfd" y="176.898084"/>
     <use style="fill:#1f77b4;stroke:#1f77b4;stroke-linejoin:miter;" x="342.005223" xlink:href="#m9e0ac68bfd" y="60.914689"/>
     <use style="fill:#1f77b4;stroke:#1f77b4;stroke-linejoin:miter;" x="350.50808" xlink:href="#m9e0ac68bfd" y="65.379083"/>
     <use style="fill:#1f77b4;stroke:#1f77b4;stroke-linejoin:miter;" x="359.010938" xlink:href="#m9e0ac68bfd" y="172.453269"/>
     <use style="fill:#1f77b4;stroke:#1f77b4;stroke-linejoin:miter;" x="367.513795" xlink:href="#m9e0ac68bfd" y="236.109594"/>
     <use style="fill:#1f77b4;stroke:#1f77b4;stroke-linejoin:miter;" x="376.016652" xlink:href="#m9e0ac68bfd" y="189.673228"/>
     <use style="fill:#1f77b4;stroke:#1f77b4;stroke-linejoin:miter;" x="384.519509" xlink:href="#m9e0ac68bfd" y="86.44455"/>
     <use style="fill:#1f77b4;stroke:#1f77b4;stroke-linejoin:miter;" x="393.022366" xlink:href="#m9e0ac68bfd" y="74.741758"/>
     <use style="fill:#1f77b4;stroke:#1f77b4;stroke-linejoin:miter;" x="401.525223" xlink:href="#m9e0ac68bfd" y="177.158226"/>
    </g>
   </g>
   <g id="line2d_29">
    <defs>
     <path d="M 0 3 
C 0.795609 3 1.55874 2.683901 2.12132 2.12132 
C 2.683901 1.55874 3 0.795609 3 0 
C 3 -0.795609 2.683901 -1.55874 2.12132 -2.12132 
C 1.55874 -2.683901 0.795609 -3 0 -3 
C -0.795609 -3 -1.55874 -2.683901 -2.12132 -2.12132 
C -2.683901 -1.55874 -3 -0.795609 -3 0 
C -3 0.795609 -2.683901 1.55874 -2.12132 2.12132 
C -1.55874 2.683901 -0.795609 3 0 3 
z
" id="m4d17eb6f4c" style="stroke:#d62728;"/>
    </defs>
    <g clip-path="url(#p304c686b55)">
     <use style="fill:#d62728;stroke:#d62728;" x="61.410938" xlink:href="#m4d17eb6f4c" y="271.284996"/>
     <use style="fill:#d62728;stroke:#d62728;" x="69.913795" xlink:href="#m4d17eb6f4c" y="229.820428"/>
     <use style="fill:#d62728;stroke:#d62728;" x="78.416652" xlink:href="#m4d17eb6f4c" y="127.496192"/>
     <use style="fill:#d62728;stroke:#d62728;" x="86.919509" xlink:href="#m4d17eb6f4c" y="79.426828"/>
     <use style="fill:#d62728;stroke:#d62728;" x="95.422366" xlink:href="#m4d17eb6f4c" y="99.838828"/>
     <use style="fill:#d62728;stroke:#d62728;" x="103.925223" xlink:href="#m4d17eb6f4c" y="187.5914"/>
     <use style="fill:#d62728;stroke:#d62728;" x="112.42808" xlink:href="#m4d17eb6f4c" y="181.713628"/>
     <use style="fill:#d62728;stroke:#d62728;" x="120.930938" xlink:href="#m4d17eb6f4c" y="138.740949"/>
     <use style="fill:#d62728;stroke:#d62728;" x="129.433795" xlink:href="#m4d17eb6f4c" y="122.626828"/>
     <use style="fill:#d62728;stroke:#d62728;" x="137.936652" xlink:href="#m4d17eb6f4c" y="124.197243"/>
     <use style="fill:#d62728;stroke:#d62728;" x="146.439509" xlink:href="#m4d17eb6f4c" y="157.109223"/>
     <use style="fill:#d62728;stroke:#d62728;" x="154.942366" xlink:href="#m4d17eb6f4c" y="184.410319"/>
     <use style="fill:#d62728;stroke:#d62728;" x="163.445223" xlink:href="#m4d17eb6f4c" y="169.589775"/>
     <use style="fill:#d62728;stroke:#d62728;" x="171.94808" xlink:href="#m4d17eb6f4c" y="121.066655"/>
     <use style="fill:#d62728;stroke:#d62728;" x="180.450938" xlink:href="#m4d17eb6f4c" y="129.005019"/>
     <use style="fill:#d62728;stroke:#d62728;" x="188.953795" xlink:href="#m4d17eb6f4c" y="146.766145"/>
    </g>
   </g>
   <g id="patch_3">
    <path d="M 61.410938 279.010828 
L 61.410938 12.898828 
" style="fill:none;stroke:#000000;stroke-linecap:square;stroke-linejoin:miter;stroke-width:0.8;"/>
   </g>
   <g id="patch_4">
    <path d="M 418.530938 279.010828 
L 418.530938 12.898828 
" style="fill:none;stroke:#000000;stroke-linecap:square;stroke-linejoin:miter;stroke-width:0.8;"/>
   </g>
   <g id="patch_5">
    <path d="M 61.410938 279.010828 
L 418.530938 279.010828 
" style="fill:none;stroke:#000000;stroke-linecap:square;stroke-linejoin:miter;stroke-width:0.8;"/>
   </g>
   <g id="patch_6">
    <path d="M 61.410938 12.898828 
L 418.530938 12.898828 
" style="fill:none;stroke:#000000;stroke-linecap:square;stroke-linejoin:miter;stroke-width:0.8;"/>
   </g>
  </g>
 </g>
 <defs>
  <clipPath id="p304c686b55">
   <rect height="266.112" width="357.12" x="61.410938" y="12.898828"/>
  </clipPath>
 </defs>
</svg>
