<?xml version="1.0" encoding="utf-8" standalone="no"?>
<!DOCTYPE svg PUBLIC "-//W3C//DTD SVG 1.1//EN"
  "http://www.w3.org/Graphics/SVG/1.1/DTD/svg11.dtd">
<!-- Created with matplotlib (https://matplotlib.org/) -->
<svg height="331.128016pt" version="1.1" viewBox="0 0 426.311178 331.128016" width="426.311178pt" xmlns="http://www.w3.org/2000/svg" xmlns:xlink="http://www.w3.org/1999/xlink">
 <defs>
  <style type="text/css">*{stroke-linecap:butt;stroke-linejoin:round;}</style>
 </defs>
 <g id="figure_1">
  <g id="patch_1">
   <path d="M 0 331.128016 
L 426.311178 331.128016 
L 426.311178 0 
L 0 0 
z
" style="fill:none;"/>
  </g>
  <g id="axes_1">
   <g id="patch_2">
    <path d="M 61.410938 279.010828 
L 418.530938 279.010828 
L 418.530938 12.898828 
L 61.410938 12.898828 
z
" style="fill:none;"/>
   </g>
   <g id="matplotlib.axis_1">
    <g id="xtick_1">
     <g id="line2d_1">
      <path clip-path="url(#p304c686b55)" d="M 61.410938 279.010828 
L 61.410938 12.898828 
" style="fill:none;stroke:#b0b0b0;stroke-linecap:square;stroke-width:0.8;"/>
     </g>
     <g id="line2d_2">
      <defs>
       <path d="M 0 0 
L 0 3.5 
" id="m005f0a59be" style="stroke:#000000;stroke-width:0.8;"/>
      </defs>
      <g>
       <use style="stroke:#000000;stroke-width:0.8;" x="61.410938" xlink:href="#m005f0a59be" y="279.010828"/>
      </g>
     </g>
     <g id="text_1">
      <!-- 0 -->
      <g transform="translate(56.639063 297.408484)scale(0.15 -0.15)">
       <defs>
        <path d="M 31.78125 66.40625 
Q 24.171875 66.40625 20.328125 58.90625 
Q 16.5 51.421875 16.5 36.375 
Q 16.5 21.390625 20.328125 13.890625 
Q 24.171875 6.390625 31.78125 6.390625 
Q 39.453125 6.390625 43.28125 13.890625 
Q 47.125 21.390625 47.125 36.375 
Q 47.125 51.421875 43.28125 58.90625 
Q 39.453125 66.40625 31.78125 66.40625 
z
M 31.78125 74.21875 
Q 44.046875 74.21875 50.515625 64.515625 
Q 56.984375 54.828125 56.984375 36.375 
Q 56.984375 17.96875 50.515625 8.265625 
Q 44.046875 -1.421875 31.78125 -1.421875 
Q 19.53125 -1.421875 13.0625 8.265625 
Q 6.59375 17.96875 6.59375 36.375 
Q 6.59375 54.828125 13.0625 64.515625 
Q 19.53125 74.21875 31.78125 74.21875 
z
" id="DejaVuSans-48"/>
       </defs>
       <use xlink:href="#DejaVuSans-48"/>
      </g>
     </g>
    </g>
    <g id="xtick_2">
     <g id="line2d_3">
      <path clip-path="url(#p304c686b55)" d="M 130.087861 279.010828 
L 130.087861 12.898828 
" style="fill:none;stroke:#b0b0b0;stroke-linecap:square;stroke-width:0.8;"/>
     </g>
     <g id="line2d_4">
      <g>
       <use style="stroke:#000000;stroke-width:0.8;" x="130.087861" xlink:href="#m005f0a59be" y="279.010828"/>
      </g>
     </g>
     <g id="text_2">
      <!-- 100 -->
      <g transform="translate(115.772236 297.408484)scale(0.15 -0.15)">
       <defs>
        <path d="M 12.40625 8.296875 
L 28.515625 8.296875 
L 28.515625 63.921875 
L 10.984375 60.40625 
L 10.984375 69.390625 
L 28.421875 72.90625 
L 38.28125 72.90625 
L 38.28125 8.296875 
L 54.390625 8.296875 
L 54.390625 0 
L 12.40625 0 
z
" id="DejaVuSans-49"/>
       </defs>
       <use xlink:href="#DejaVuSans-49"/>
       <use x="63.623047" xlink:href="#DejaVuSans-48"/>
       <use x="127.246094" xlink:href="#DejaVuSans-48"/>
      </g>
     </g>
    </g>
    <g id="xtick_3">
     <g id="line2d_5">
      <path clip-path="url(#p304c686b55)" d="M 198.764784 279.010828 
L 198.764784 12.898828 
" style="fill:none;stroke:#b0b0b0;stroke-linecap:square;stroke-width:0.8;"/>
     </g>
     <g id="line2d_6">
      <g>
       <use style="stroke:#000000;stroke-width:0.8;" x="198.764784" xlink:href="#m005f0a59be" y="279.010828"/>
      </g>
     </g>
     <g id="text_3">
      <!-- 200 -->
      <g transform="translate(184.449159 297.408484)scale(0.15 -0.15)">
       <defs>
        <path d="M 19.1875 8.296875 
L 53.609375 8.296875 
L 53.609375 0 
L 7.328125 0 
L 7.328125 8.296875 
Q 12.9375 14.109375 22.625 23.890625 
Q 32.328125 33.6875 34.8125 36.53125 
Q 39.546875 41.84375 41.421875 45.53125 
Q 43.3125 49.21875 43.3125 52.78125 
Q 43.3125 58.59375 39.234375 62.25 
Q 35.15625 65.921875 28.609375 65.921875 
Q 23.96875 65.921875 18.8125 64.3125 
Q 13.671875 62.703125 7.8125 59.421875 
L 7.8125 69.390625 
Q 13.765625 71.78125 18.9375 73 
Q 24.125 74.21875 28.421875 74.21875 
Q 39.75 74.21875 46.484375 68.546875 
Q 53.21875 62.890625 53.21875 53.421875 
Q 53.21875 48.921875 51.53125 44.890625 
Q 49.859375 40.875 45.40625 35.40625 
Q 44.1875 33.984375 37.640625 27.21875 
Q 31.109375 20.453125 19.1875 8.296875 
z
" id="DejaVuSans-50"/>
       </defs>
       <use xlink:href="#DejaVuSans-50"/>
       <use x="63.623047" xlink:href="#DejaVuSans-48"/>
       <use x="127.246094" xlink:href="#DejaVuSans-48"/>
      </g>
     </g>
    </g>
    <g id="xtick_4">
     <g id="line2d_7">
      <path clip-path="url(#p304c686b55)" d="M 267.441707 279.010828 
L 267.441707 12.898828 
" style="fill:none;stroke:#b0b0b0;stroke-linecap:square;stroke-width:0.8;"/>
     </g>
     <g id="line2d_8">
      <g>
       <use style="stroke:#000000;stroke-width:0.8;" x="267.441707" xlink:href="#m005f0a59be" y="279.010828"/>
      </g>
     </g>
     <g id="text_4">
      <!-- 300 -->
      <g transform="translate(253.126082 297.408484)scale(0.15 -0.15)">
       <defs>
        <path d="M 40.578125 39.3125 
Q 47.65625 37.796875 51.625 33 
Q 55.609375 28.21875 55.609375 21.1875 
Q 55.609375 10.40625 48.1875 4.484375 
Q 40.765625 -1.421875 27.09375 -1.421875 
Q 22.515625 -1.421875 17.65625 -0.515625 
Q 12.796875 0.390625 7.625 2.203125 
L 7.625 11.71875 
Q 11.71875 9.328125 16.59375 8.109375 
Q 21.484375 6.890625 26.8125 6.890625 
Q 36.078125 6.890625 40.9375 10.546875 
Q 45.796875 14.203125 45.796875 21.1875 
Q 45.796875 27.640625 41.28125 31.265625 
Q 36.765625 34.90625 28.71875 34.90625 
L 20.21875 34.90625 
L 20.21875 43.015625 
L 29.109375 43.015625 
Q 36.375 43.015625 40.234375 45.921875 
Q 44.09375 48.828125 44.09375 54.296875 
Q 44.09375 59.90625 40.109375 62.90625 
Q 36.140625 65.921875 28.71875 65.921875 
Q 24.65625 65.921875 20.015625 65.03125 
Q 15.375 64.15625 9.8125 62.3125 
L 9.8125 71.09375 
Q 15.4375 72.65625 20.34375 73.4375 
Q 25.25 74.21875 29.59375 74.21875 
Q 40.828125 74.21875 47.359375 69.109375 
Q 53.90625 64.015625 53.90625 55.328125 
Q 53.90625 49.265625 50.4375 45.09375 
Q 46.96875 40.921875 40.578125 39.3125 
z
" id="DejaVuSans-51"/>
       </defs>
       <use xlink:href="#DejaVuSans-51"/>
       <use x="63.623047" xlink:href="#DejaVuSans-48"/>
       <use x="127.246094" xlink:href="#DejaVuSans-48"/>
      </g>
     </g>
    </g>
    <g id="xtick_5">
     <g id="line2d_9">
      <path clip-path="url(#p304c686b55)" d="M 336.11863 279.010828 
L 336.11863 12.898828 
" style="fill:none;stroke:#b0b0b0;stroke-linecap:square;stroke-width:0.8;"/>
     </g>
     <g id="line2d_10">
      <g>
       <use style="stroke:#000000;stroke-width:0.8;" x="336.11863" xlink:href="#m005f0a59be" y="279.010828"/>
      </g>
     </g>
     <g id="text_5">
      <!-- 400 -->
      <g transform="translate(321.803005 297.408484)scale(0.15 -0.15)">
       <defs>
        <path d="M 37.796875 64.3125 
L 12.890625 25.390625 
L 37.796875 25.390625 
z
M 35.203125 72.90625 
L 47.609375 72.90625 
L 47.609375 25.390625 
L 58.015625 25.390625 
L 58.015625 17.1875 
L 47.609375 17.1875 
L 47.609375 0 
L 37.796875 0 
L 37.796875 17.1875 
L 4.890625 17.1875 
L 4.890625 26.703125 
z
" id="DejaVuSans-52"/>
       </defs>
       <use xlink:href="#DejaVuSans-52"/>
       <use x="63.623047" xlink:href="#DejaVuSans-48"/>
       <use x="127.246094" xlink:href="#DejaVuSans-48"/>
      </g>
     </g>
    </g>
    <g id="xtick_6">
     <g id="line2d_11">
      <path clip-path="url(#p304c686b55)" d="M 404.795553 279.010828 
L 404.795553 12.898828 
" style="fill:none;stroke:#b0b0b0;stroke-linecap:square;stroke-width:0.8;"/>
     </g>
     <g id="line2d_12">
      <g>
       <use style="stroke:#000000;stroke-width:0.8;" x="404.795553" xlink:href="#m005f0a59be" y="279.010828"/>
      </g>
     </g>
     <g id="text_6">
      <!-- 500 -->
      <g transform="translate(390.479928 297.408484)scale(0.15 -0.15)">
       <defs>
        <path d="M 10.796875 72.90625 
L 49.515625 72.90625 
L 49.515625 64.59375 
L 19.828125 64.59375 
L 19.828125 46.734375 
Q 21.96875 47.46875 24.109375 47.828125 
Q 26.265625 48.1875 28.421875 48.1875 
Q 40.625 48.1875 47.75 41.5 
Q 54.890625 34.8125 54.890625 23.390625 
Q 54.890625 11.625 47.5625 5.09375 
Q 40.234375 -1.421875 26.90625 -1.421875 
Q 22.3125 -1.421875 17.546875 -0.640625 
Q 12.796875 0.140625 7.71875 1.703125 
L 7.71875 11.625 
Q 12.109375 9.234375 16.796875 8.0625 
Q 21.484375 6.890625 26.703125 6.890625 
Q 35.15625 6.890625 40.078125 11.328125 
Q 45.015625 15.765625 45.015625 23.390625 
Q 45.015625 31 40.078125 35.4375 
Q 35.15625 39.890625 26.703125 39.890625 
Q 22.75 39.890625 18.8125 39.015625 
Q 14.890625 38.140625 10.796875 36.28125 
z
" id="DejaVuSans-53"/>
       </defs>
       <use xlink:href="#DejaVuSans-53"/>
       <use x="63.623047" xlink:href="#DejaVuSans-48"/>
       <use x="127.246094" xlink:href="#DejaVuSans-48"/>
      </g>
     </g>
    </g>
    <g id="text_7">
     <!-- Time ($\mathrm{\mu s}$) -->
     <g transform="translate(192.570938 319.728016)scale(0.2 -0.2)">
      <defs>
       <path d="M -0.296875 72.90625 
L 61.375 72.90625 
L 61.375 64.59375 
L 35.5 64.59375 
L 35.5 0 
L 25.59375 0 
L 25.59375 64.59375 
L -0.296875 64.59375 
z
" id="DejaVuSans-84"/>
       <path d="M 9.421875 54.6875 
L 18.40625 54.6875 
L 18.40625 0 
L 9.421875 0 
z
M 9.421875 75.984375 
L 18.40625 75.984375 
L 18.40625 64.59375 
L 9.421875 64.59375 
z
" id="DejaVuSans-105"/>
       <path d="M 52 44.1875 
Q 55.375 50.25 60.0625 53.125 
Q 64.75 56 71.09375 56 
Q 79.640625 56 84.28125 50.015625 
Q 88.921875 44.046875 88.921875 33.015625 
L 88.921875 0 
L 79.890625 0 
L 79.890625 32.71875 
Q 79.890625 40.578125 77.09375 44.375 
Q 74.3125 48.1875 68.609375 48.1875 
Q 61.625 48.1875 57.5625 43.546875 
Q 53.515625 38.921875 53.515625 30.90625 
L 53.515625 0 
L 44.484375 0 
L 44.484375 32.71875 
Q 44.484375 40.625 41.703125 44.40625 
Q 38.921875 48.1875 33.109375 48.1875 
Q 26.21875 48.1875 22.15625 43.53125 
Q 18.109375 38.875 18.109375 30.90625 
L 18.109375 0 
L 9.078125 0 
L 9.078125 54.6875 
L 18.109375 54.6875 
L 18.109375 46.1875 
Q 21.1875 51.21875 25.484375 53.609375 
Q 29.78125 56 35.6875 56 
Q 41.65625 56 45.828125 52.96875 
Q 50 49.953125 52 44.1875 
z
" id="DejaVuSans-109"/>
       <path d="M 56.203125 29.59375 
L 56.203125 25.203125 
L 14.890625 25.203125 
Q 15.484375 15.921875 20.484375 11.0625 
Q 25.484375 6.203125 34.421875 6.203125 
Q 39.59375 6.203125 44.453125 7.46875 
Q 49.3125 8.734375 54.109375 11.28125 
L 54.109375 2.78125 
Q 49.265625 0.734375 44.1875 -0.34375 
Q 39.109375 -1.421875 33.890625 -1.421875 
Q 20.796875 -1.421875 13.15625 6.1875 
Q 5.515625 13.8125 5.515625 26.8125 
Q 5.515625 40.234375 12.765625 48.109375 
Q 20.015625 56 32.328125 56 
Q 43.359375 56 49.78125 48.890625 
Q 56.203125 41.796875 56.203125 29.59375 
z
M 47.21875 32.234375 
Q 47.125 39.59375 43.09375 43.984375 
Q 39.0625 48.390625 32.421875 48.390625 
Q 24.90625 48.390625 20.390625 44.140625 
Q 15.875 39.890625 15.1875 32.171875 
z
" id="DejaVuSans-101"/>
       <path id="DejaVuSans-32"/>
       <path d="M 31 75.875 
Q 24.46875 64.65625 21.28125 53.65625 
Q 18.109375 42.671875 18.109375 31.390625 
Q 18.109375 20.125 21.3125 9.0625 
Q 24.515625 -2 31 -13.1875 
L 23.1875 -13.1875 
Q 15.875 -1.703125 12.234375 9.375 
Q 8.59375 20.453125 8.59375 31.390625 
Q 8.59375 42.28125 12.203125 53.3125 
Q 15.828125 64.359375 23.1875 75.875 
z
" id="DejaVuSans-40"/>
       <path d="M 8.5 -20.796875 
L 8.5 54.6875 
L 17.484375 54.6875 
L 17.484375 20.703125 
Q 17.484375 13.625 20.84375 10 
Q 24.21875 6.390625 30.8125 6.390625 
Q 38.03125 6.390625 41.671875 10.484375 
Q 45.3125 14.59375 45.3125 22.796875 
L 45.3125 54.6875 
L 54.296875 54.6875 
L 54.296875 12.59375 
Q 54.296875 9.671875 55.140625 8.28125 
Q 56 6.890625 57.8125 6.890625 
Q 58.25 6.890625 59.03125 7.15625 
Q 59.8125 7.421875 61.1875 8.015625 
L 61.1875 0.78125 
Q 59.1875 -0.34375 57.390625 -0.875 
Q 55.609375 -1.421875 53.90625 -1.421875 
Q 50.53125 -1.421875 48.53125 0.484375 
Q 46.53125 2.390625 45.796875 6.296875 
Q 43.359375 2.4375 39.8125 0.5 
Q 36.28125 -1.421875 31.5 -1.421875 
Q 26.515625 -1.421875 23.015625 0.484375 
Q 19.53125 2.390625 17.484375 6.203125 
L 17.484375 -20.796875 
z
" id="DejaVuSans-956"/>
       <path d="M 44.28125 53.078125 
L 44.28125 44.578125 
Q 40.484375 46.53125 36.375 47.5 
Q 32.28125 48.484375 27.875 48.484375 
Q 21.1875 48.484375 17.84375 46.4375 
Q 14.5 44.390625 14.5 40.28125 
Q 14.5 37.15625 16.890625 35.375 
Q 19.28125 33.59375 26.515625 31.984375 
L 29.59375 31.296875 
Q 39.15625 29.25 43.1875 25.515625 
Q 47.21875 21.78125 47.21875 15.09375 
Q 47.21875 7.46875 41.1875 3.015625 
Q 35.15625 -1.421875 24.609375 -1.421875 
Q 20.21875 -1.421875 15.453125 -0.5625 
Q 10.6875 0.296875 5.421875 2 
L 5.421875 11.28125 
Q 10.40625 8.6875 15.234375 7.390625 
Q 20.0625 6.109375 24.8125 6.109375 
Q 31.15625 6.109375 34.5625 8.28125 
Q 37.984375 10.453125 37.984375 14.40625 
Q 37.984375 18.0625 35.515625 20.015625 
Q 33.0625 21.96875 24.703125 23.78125 
L 21.578125 24.515625 
Q 13.234375 26.265625 9.515625 29.90625 
Q 5.8125 33.546875 5.8125 39.890625 
Q 5.8125 47.609375 11.28125 51.796875 
Q 16.75 56 26.8125 56 
Q 31.78125 56 36.171875 55.265625 
Q 40.578125 54.546875 44.28125 53.078125 
z
" id="DejaVuSans-115"/>
       <path d="M 8.015625 75.875 
L 15.828125 75.875 
Q 23.140625 64.359375 26.78125 53.3125 
Q 30.421875 42.28125 30.421875 31.390625 
Q 30.421875 20.453125 26.78125 9.375 
Q 23.140625 -1.703125 15.828125 -13.1875 
L 8.015625 -13.1875 
Q 14.5 -2 17.703125 9.0625 
Q 20.90625 20.125 20.90625 31.390625 
Q 20.90625 42.671875 17.703125 53.65625 
Q 14.5 64.65625 8.015625 75.875 
z
" id="DejaVuSans-41"/>
      </defs>
      <use transform="translate(0 0.015625)" xlink:href="#DejaVuSans-84"/>
      <use transform="translate(61.083984 0.015625)" xlink:href="#DejaVuSans-105"/>
      <use transform="translate(88.867188 0.015625)" xlink:href="#DejaVuSans-109"/>
      <use transform="translate(186.279297 0.015625)" xlink:href="#DejaVuSans-101"/>
      <use transform="translate(247.802734 0.015625)" xlink:href="#DejaVuSans-32"/>
      <use transform="translate(279.589844 0.015625)" xlink:href="#DejaVuSans-40"/>
      <use transform="translate(318.603516 0.015625)" xlink:href="#DejaVuSans-956"/>
      <use transform="translate(382.226562 0.015625)" xlink:href="#DejaVuSans-115"/>
      <use transform="translate(434.326172 0.015625)" xlink:href="#DejaVuSans-41"/>
     </g>
    </g>
   </g>
   <g id="matplotlib.axis_2">
    <g id="ytick_1">
     <g id="line2d_13">
      <path clip-path="url(#p304c686b55)" d="M 61.410938 279.010828 
L 418.530938 279.010828 
" style="fill:none;stroke:#b0b0b0;stroke-linecap:square;stroke-width:0.8;"/>
     </g>
     <g id="line2d_14">
      <defs>
       <path d="M 0 0 
L -3.5 0 
" id="mc3ce260a5b" style="stroke:#000000;stroke-width:0.8;"/>
      </defs>
      <g>
       <use style="stroke:#000000;stroke-width:0.8;" x="61.410938" xlink:href="#mc3ce260a5b" y="279.010828"/>
      </g>
     </g>
     <g id="text_8">
      <!-- 0.0 -->
      <g transform="translate(30.55625 284.709656)scale(0.15 -0.15)">
       <defs>
        <path d="M 10.6875 12.40625 
L 21 12.40625 
L 21 0 
L 10.6875 0 
z
" id="DejaVuSans-46"/>
       </defs>
       <use xlink:href="#DejaVuSans-48"/>
       <use x="63.623047" xlink:href="#DejaVuSans-46"/>
       <use x="95.410156" xlink:href="#DejaVuSans-48"/>
      </g>
     </g>
    </g>
    <g id="ytick_2">
     <g id="line2d_15">
      <path clip-path="url(#p304c686b55)" d="M 61.410938 225.788428 
L 418.530938 225.788428 
" style="fill:none;stroke:#b0b0b0;stroke-linecap:square;stroke-width:0.8;"/>
     </g>
     <g id="line2d_16">
      <g>
       <use style="stroke:#000000;stroke-width:0.8;" x="61.410938" xlink:href="#mc3ce260a5b" y="225.788428"/>
      </g>
     </g>
     <g id="text_9">
      <!-- 0.2 -->
      <g transform="translate(30.55625 231.487256)scale(0.15 -0.15)">
       <use xlink:href="#DejaVuSans-48"/>
       <use x="63.623047" xlink:href="#DejaVuSans-46"/>
       <use x="95.410156" xlink:href="#DejaVuSans-50"/>
      </g>
     </g>
    </g>
    <g id="ytick_3">
     <g id="line2d_17">
      <path clip-path="url(#p304c686b55)" d="M 61.410938 172.566028 
L 418.530938 172.566028 
" style="fill:none;stroke:#b0b0b0;stroke-linecap:square;stroke-width:0.8;"/>
     </g>
     <g id="line2d_18">
      <g>
       <use style="stroke:#000000;stroke-width:0.8;" x="61.410938" xlink:href="#mc3ce260a5b" y="172.566028"/>
      </g>
     </g>
     <g id="text_10">
      <!-- 0.4 -->
      <g transform="translate(30.55625 178.264856)scale(0.15 -0.15)">
       <use xlink:href="#DejaVuSans-48"/>
       <use x="63.623047" xlink:href="#DejaVuSans-46"/>
       <use x="95.410156" xlink:href="#DejaVuSans-52"/>
      </g>
     </g>
    </g>
    <g id="ytick_4">
     <g id="line2d_19">
      <path clip-path="url(#p304c686b55)" d="M 61.410938 119.343628 
L 418.530938 119.343628 
" style="fill:none;stroke:#b0b0b0;stroke-linecap:square;stroke-width:0.8;"/>
     </g>
     <g id="line2d_20">
      <g>
       <use style="stroke:#000000;stroke-width:0.8;" x="61.410938" xlink:href="#mc3ce260a5b" y="119.343628"/>
      </g>
     </g>
     <g id="text_11">
      <!-- 0.6 -->
      <g transform="translate(30.55625 125.042456)scale(0.15 -0.15)">
       <defs>
        <path d="M 33.015625 40.375 
Q 26.375 40.375 22.484375 35.828125 
Q 18.609375 31.296875 18.609375 23.390625 
Q 18.609375 15.53125 22.484375 10.953125 
Q 26.375 6.390625 33.015625 6.390625 
Q 39.65625 6.390625 43.53125 10.953125 
Q 47.40625 15.53125 47.40625 23.390625 
Q 47.40625 31.296875 43.53125 35.828125 
Q 39.65625 40.375 33.015625 40.375 
z
M 52.59375 71.296875 
L 52.59375 62.3125 
Q 48.875 64.0625 45.09375 64.984375 
Q 41.3125 65.921875 37.59375 65.921875 
Q 27.828125 65.921875 22.671875 59.328125 
Q 17.53125 52.734375 16.796875 39.40625 
Q 19.671875 43.65625 24.015625 45.921875 
Q 28.375 48.1875 33.59375 48.1875 
Q 44.578125 48.1875 50.953125 41.515625 
Q 57.328125 34.859375 57.328125 23.390625 
Q 57.328125 12.15625 50.6875 5.359375 
Q 44.046875 -1.421875 33.015625 -1.421875 
Q 20.359375 -1.421875 13.671875 8.265625 
Q 6.984375 17.96875 6.984375 36.375 
Q 6.984375 53.65625 15.1875 63.9375 
Q 23.390625 74.21875 37.203125 74.21875 
Q 40.921875 74.21875 44.703125 73.484375 
Q 48.484375 72.75 52.59375 71.296875 
z
" id="DejaVuSans-54"/>
       </defs>
       <use xlink:href="#DejaVuSans-48"/>
       <use x="63.623047" xlink:href="#DejaVuSans-46"/>
       <use x="95.410156" xlink:href="#DejaVuSans-54"/>
      </g>
     </g>
    </g>
    <g id="ytick_5">
     <g id="line2d_21">
      <path clip-path="url(#p304c686b55)" d="M 61.410938 66.121228 
L 418.530938 66.121228 
" style="fill:none;stroke:#b0b0b0;stroke-linecap:square;stroke-width:0.8;"/>
     </g>
     <g id="line2d_22">
      <g>
       <use style="stroke:#000000;stroke-width:0.8;" x="61.410938" xlink:href="#mc3ce260a5b" y="66.121228"/>
      </g>
     </g>
     <g id="text_12">
      <!-- 0.8 -->
      <g transform="translate(30.55625 71.820056)scale(0.15 -0.15)">
       <defs>
        <path d="M 31.78125 34.625 
Q 24.75 34.625 20.71875 30.859375 
Q 16.703125 27.09375 16.703125 20.515625 
Q 16.703125 13.921875 20.71875 10.15625 
Q 24.75 6.390625 31.78125 6.390625 
Q 38.8125 6.390625 42.859375 10.171875 
Q 46.921875 13.96875 46.921875 20.515625 
Q 46.921875 27.09375 42.890625 30.859375 
Q 38.875 34.625 31.78125 34.625 
z
M 21.921875 38.8125 
Q 15.578125 40.375 12.03125 44.71875 
Q 8.5 49.078125 8.5 55.328125 
Q 8.5 64.0625 14.71875 69.140625 
Q 20.953125 74.21875 31.78125 74.21875 
Q 42.671875 74.21875 48.875 69.140625 
Q 55.078125 64.0625 55.078125 55.328125 
Q 55.078125 49.078125 51.53125 44.71875 
Q 48 40.375 41.703125 38.8125 
Q 48.828125 37.15625 52.796875 32.3125 
Q 56.78125 27.484375 56.78125 20.515625 
Q 56.78125 9.90625 50.3125 4.234375 
Q 43.84375 -1.421875 31.78125 -1.421875 
Q 19.734375 -1.421875 13.25 4.234375 
Q 6.78125 9.90625 6.78125 20.515625 
Q 6.78125 27.484375 10.78125 32.3125 
Q 14.796875 37.15625 21.921875 38.8125 
z
M 18.3125 54.390625 
Q 18.3125 48.734375 21.84375 45.5625 
Q 25.390625 42.390625 31.78125 42.390625 
Q 38.140625 42.390625 41.71875 45.5625 
Q 45.3125 48.734375 45.3125 54.390625 
Q 45.3125 60.0625 41.71875 63.234375 
Q 38.140625 66.40625 31.78125 66.40625 
Q 25.390625 66.40625 21.84375 63.234375 
Q 18.3125 60.0625 18.3125 54.390625 
z
" id="DejaVuSans-56"/>
       </defs>
       <use xlink:href="#DejaVuSans-48"/>
       <use x="63.623047" xlink:href="#DejaVuSans-46"/>
       <use x="95.410156" xlink:href="#DejaVuSans-56"/>
      </g>
     </g>
    </g>
    <g id="ytick_6">
     <g id="line2d_23">
      <path clip-path="url(#p304c686b55)" d="M 61.410938 12.898828 
L 418.530938 12.898828 
" style="fill:none;stroke:#b0b0b0;stroke-linecap:square;stroke-width:0.8;"/>
     </g>
     <g id="line2d_24">
      <g>
       <use style="stroke:#000000;stroke-width:0.8;" x="61.410938" xlink:href="#mc3ce260a5b" y="12.898828"/>
      </g>
     </g>
     <g id="text_13">
      <!-- 1.0 -->
      <g transform="translate(30.55625 18.597656)scale(0.15 -0.15)">
       <use xlink:href="#DejaVuSans-49"/>
       <use x="63.623047" xlink:href="#DejaVuSans-46"/>
       <use x="95.410156" xlink:href="#DejaVuSans-48"/>
      </g>
     </g>
    </g>
    <g id="text_14">
     <!-- F=1 Population -->
     <g transform="translate(22.396875 222.159516)rotate(-90)scale(0.2 -0.2)">
      <defs>
       <path d="M 9.8125 72.90625 
L 51.703125 72.90625 
L 51.703125 64.59375 
L 19.671875 64.59375 
L 19.671875 43.109375 
L 48.578125 43.109375 
L 48.578125 34.8125 
L 19.671875 34.8125 
L 19.671875 0 
L 9.8125 0 
z
" id="DejaVuSans-70"/>
       <path d="M 10.59375 45.40625 
L 73.1875 45.40625 
L 73.1875 37.203125 
L 10.59375 37.203125 
z
M 10.59375 25.484375 
L 73.1875 25.484375 
L 73.1875 17.1875 
L 10.59375 17.1875 
z
" id="DejaVuSans-61"/>
       <path d="M 19.671875 64.796875 
L 19.671875 37.40625 
L 32.078125 37.40625 
Q 38.96875 37.40625 42.71875 40.96875 
Q 46.484375 44.53125 46.484375 51.125 
Q 46.484375 57.671875 42.71875 61.234375 
Q 38.96875 64.796875 32.078125 64.796875 
z
M 9.8125 72.90625 
L 32.078125 72.90625 
Q 44.34375 72.90625 50.609375 67.359375 
Q 56.890625 61.8125 56.890625 51.125 
Q 56.890625 40.328125 50.609375 34.8125 
Q 44.34375 29.296875 32.078125 29.296875 
L 19.671875 29.296875 
L 19.671875 0 
L 9.8125 0 
z
" id="DejaVuSans-80"/>
       <path d="M 30.609375 48.390625 
Q 23.390625 48.390625 19.1875 42.75 
Q 14.984375 37.109375 14.984375 27.296875 
Q 14.984375 17.484375 19.15625 11.84375 
Q 23.34375 6.203125 30.609375 6.203125 
Q 37.796875 6.203125 41.984375 11.859375 
Q 46.1875 17.53125 46.1875 27.296875 
Q 46.1875 37.015625 41.984375 42.703125 
Q 37.796875 48.390625 30.609375 48.390625 
z
M 30.609375 56 
Q 42.328125 56 49.015625 48.375 
Q 55.71875 40.765625 55.71875 27.296875 
Q 55.71875 13.875 49.015625 6.21875 
Q 42.328125 -1.421875 30.609375 -1.421875 
Q 18.84375 -1.421875 12.171875 6.21875 
Q 5.515625 13.875 5.515625 27.296875 
Q 5.515625 40.765625 12.171875 48.375 
Q 18.84375 56 30.609375 56 
z
" id="DejaVuSans-111"/>
       <path d="M 18.109375 8.203125 
L 18.109375 -20.796875 
L 9.078125 -20.796875 
L 9.078125 54.6875 
L 18.109375 54.6875 
L 18.109375 46.390625 
Q 20.953125 51.265625 25.265625 53.625 
Q 29.59375 56 35.59375 56 
Q 45.5625 56 51.78125 48.09375 
Q 58.015625 40.1875 58.015625 27.296875 
Q 58.015625 14.40625 51.78125 6.484375 
Q 45.5625 -1.421875 35.59375 -1.421875 
Q 29.59375 -1.421875 25.265625 0.953125 
Q 20.953125 3.328125 18.109375 8.203125 
z
M 48.6875 27.296875 
Q 48.6875 37.203125 44.609375 42.84375 
Q 40.53125 48.484375 33.40625 48.484375 
Q 26.265625 48.484375 22.1875 42.84375 
Q 18.109375 37.203125 18.109375 27.296875 
Q 18.109375 17.390625 22.1875 11.75 
Q 26.265625 6.109375 33.40625 6.109375 
Q 40.53125 6.109375 44.609375 11.75 
Q 48.6875 17.390625 48.6875 27.296875 
z
" id="DejaVuSans-112"/>
       <path d="M 8.5 21.578125 
L 8.5 54.6875 
L 17.484375 54.6875 
L 17.484375 21.921875 
Q 17.484375 14.15625 20.5 10.265625 
Q 23.53125 6.390625 29.59375 6.390625 
Q 36.859375 6.390625 41.078125 11.03125 
Q 45.3125 15.671875 45.3125 23.6875 
L 45.3125 54.6875 
L 54.296875 54.6875 
L 54.296875 0 
L 45.3125 0 
L 45.3125 8.40625 
Q 42.046875 3.421875 37.71875 1 
Q 33.40625 -1.421875 27.6875 -1.421875 
Q 18.265625 -1.421875 13.375 4.4375 
Q 8.5 10.296875 8.5 21.578125 
z
M 31.109375 56 
z
" id="DejaVuSans-117"/>
       <path d="M 9.421875 75.984375 
L 18.40625 75.984375 
L 18.40625 0 
L 9.421875 0 
z
" id="DejaVuSans-108"/>
       <path d="M 34.28125 27.484375 
Q 23.390625 27.484375 19.1875 25 
Q 14.984375 22.515625 14.984375 16.5 
Q 14.984375 11.71875 18.140625 8.90625 
Q 21.296875 6.109375 26.703125 6.109375 
Q 34.1875 6.109375 38.703125 11.40625 
Q 43.21875 16.703125 43.21875 25.484375 
L 43.21875 27.484375 
z
M 52.203125 31.203125 
L 52.203125 0 
L 43.21875 0 
L 43.21875 8.296875 
Q 40.140625 3.328125 35.546875 0.953125 
Q 30.953125 -1.421875 24.3125 -1.421875 
Q 15.921875 -1.421875 10.953125 3.296875 
Q 6 8.015625 6 15.921875 
Q 6 25.140625 12.171875 29.828125 
Q 18.359375 34.515625 30.609375 34.515625 
L 43.21875 34.515625 
L 43.21875 35.40625 
Q 43.21875 41.609375 39.140625 45 
Q 35.0625 48.390625 27.6875 48.390625 
Q 23 48.390625 18.546875 47.265625 
Q 14.109375 46.140625 10.015625 43.890625 
L 10.015625 52.203125 
Q 14.9375 54.109375 19.578125 55.046875 
Q 24.21875 56 28.609375 56 
Q 40.484375 56 46.34375 49.84375 
Q 52.203125 43.703125 52.203125 31.203125 
z
" id="DejaVuSans-97"/>
       <path d="M 18.3125 70.21875 
L 18.3125 54.6875 
L 36.8125 54.6875 
L 36.8125 47.703125 
L 18.3125 47.703125 
L 18.3125 18.015625 
Q 18.3125 11.328125 20.140625 9.421875 
Q 21.96875 7.515625 27.59375 7.515625 
L 36.8125 7.515625 
L 36.8125 0 
L 27.59375 0 
Q 17.1875 0 13.234375 3.875 
Q 9.28125 7.765625 9.28125 18.015625 
L 9.28125 47.703125 
L 2.6875 47.703125 
L 2.6875 54.6875 
L 9.28125 54.6875 
L 9.28125 70.21875 
z
" id="DejaVuSans-116"/>
       <path d="M 54.890625 33.015625 
L 54.890625 0 
L 45.90625 0 
L 45.90625 32.71875 
Q 45.90625 40.484375 42.875 44.328125 
Q 39.84375 48.1875 33.796875 48.1875 
Q 26.515625 48.1875 22.3125 43.546875 
Q 18.109375 38.921875 18.109375 30.90625 
L 18.109375 0 
L 9.078125 0 
L 9.078125 54.6875 
L 18.109375 54.6875 
L 18.109375 46.1875 
Q 21.34375 51.125 25.703125 53.5625 
Q 30.078125 56 35.796875 56 
Q 45.21875 56 50.046875 50.171875 
Q 54.890625 44.34375 54.890625 33.015625 
z
" id="DejaVuSans-110"/>
      </defs>
      <use xlink:href="#DejaVuSans-70"/>
      <use x="57.519531" xlink:href="#DejaVuSans-61"/>
      <use x="141.308594" xlink:href="#DejaVuSans-49"/>
      <use x="204.931641" xlink:href="#DejaVuSans-32"/>
      <use x="236.71875" xlink:href="#DejaVuSans-80"/>
      <use x="293.396484" xlink:href="#DejaVuSans-111"/>
      <use x="354.578125" xlink:href="#DejaVuSans-112"/>
      <use x="418.054688" xlink:href="#DejaVuSans-117"/>
      <use x="481.433594" xlink:href="#DejaVuSans-108"/>
      <use x="509.216797" xlink:href="#DejaVuSans-97"/>
      <use x="570.496094" xlink:href="#DejaVuSans-116"/>
      <use x="609.705078" xlink:href="#DejaVuSans-105"/>
      <use x="637.488281" xlink:href="#DejaVuSans-111"/>
      <use x="698.669922" xlink:href="#DejaVuSans-110"/>
     </g>
    </g>
   </g>
   <g id="LineCollection_1">
    <path clip-path="url(#p304c686b55)" d="M 61.410938 279.010828 
L 61.410938 277.828108 
" style="fill:none;stroke:#1f77b4;stroke-width:1.5;"/>
    <path clip-path="url(#p304c686b55)" d="M 73.086014 229.629923 
L 73.086014 214.700691 
" style="fill:none;stroke:#1f77b4;stroke-width:1.5;"/>
    <path clip-path="url(#p304c686b55)" d="M 84.761091 148.337002 
L 84.761091 130.733917 
" style="fill:none;stroke:#1f77b4;stroke-width:1.5;"/>
    <path clip-path="url(#p304c686b55)" d="M 96.436168 71.678143 
L 96.436168 58.155068 
" style="fill:none;stroke:#1f77b4;stroke-width:1.5;"/>
    <path clip-path="url(#p304c686b55)" d="M 108.111245 85.893494 
L 108.111245 69.54847 
" style="fill:none;stroke:#1f77b4;stroke-width:1.5;"/>
    <path clip-path="url(#p304c686b55)" d="M 119.786322 128.715479 
L 119.786322 111.577626 
" style="fill:none;stroke:#1f77b4;stroke-width:1.5;"/>
    <path clip-path="url(#p304c686b55)" d="M 131.461399 228.245979 
L 131.461399 213.501515 
" style="fill:none;stroke:#1f77b4;stroke-width:1.5;"/>
    <path clip-path="url(#p304c686b55)" d="M 143.136476 248.859356 
L 143.136476 236.6943 
" style="fill:none;stroke:#1f77b4;stroke-width:1.5;"/>
    <path clip-path="url(#p304c686b55)" d="M 154.811553 199.823814 
L 154.811553 183.454769 
" style="fill:none;stroke:#1f77b4;stroke-width:1.5;"/>
    <path clip-path="url(#p304c686b55)" d="M 166.48663 139.648073 
L 166.48663 121.744152 
" style="fill:none;stroke:#1f77b4;stroke-width:1.5;"/>
    <path clip-path="url(#p304c686b55)" d="M 178.161707 64.760821 
L 178.161707 51.346337 
" style="fill:none;stroke:#1f77b4;stroke-width:1.5;"/>
    <path clip-path="url(#p304c686b55)" d="M 189.836784 69.60455 
L 189.836784 55.985106 
" style="fill:none;stroke:#1f77b4;stroke-width:1.5;"/>
    <path clip-path="url(#p304c686b55)" d="M 201.511861 153.700648 
L 201.511861 135.800754 
" style="fill:none;stroke:#1f77b4;stroke-width:1.5;"/>
    <path clip-path="url(#p304c686b55)" d="M 213.186938 229.164197 
L 213.186938 214.970544 
" style="fill:none;stroke:#1f77b4;stroke-width:1.5;"/>
    <path clip-path="url(#p304c686b55)" d="M 224.862014 236.825179 
L 224.862014 223.276477 
" style="fill:none;stroke:#1f77b4;stroke-width:1.5;"/>
    <path clip-path="url(#p304c686b55)" d="M 236.537091 185.598028 
L 236.537091 167.818647 
" style="fill:none;stroke:#1f77b4;stroke-width:1.5;"/>
    <path clip-path="url(#p304c686b55)" d="M 248.212168 109.555734 
L 248.212168 92.40057 
" style="fill:none;stroke:#1f77b4;stroke-width:1.5;"/>
    <path clip-path="url(#p304c686b55)" d="M 259.887245 71.150238 
L 259.887245 56.903418 
" style="fill:none;stroke:#1f77b4;stroke-width:1.5;"/>
    <path clip-path="url(#p304c686b55)" d="M 271.562322 85.586888 
L 271.562322 70.28345 
" style="fill:none;stroke:#1f77b4;stroke-width:1.5;"/>
    <path clip-path="url(#p304c686b55)" d="M 283.237399 156.007596 
L 283.237399 138.2675 
" style="fill:none;stroke:#1f77b4;stroke-width:1.5;"/>
    <path clip-path="url(#p304c686b55)" d="M 294.912476 220.555216 
L 294.912476 205.018002 
" style="fill:none;stroke:#1f77b4;stroke-width:1.5;"/>
    <path clip-path="url(#p304c686b55)" d="M 306.587553 225.771278 
L 306.587553 211.391178 
" style="fill:none;stroke:#1f77b4;stroke-width:1.5;"/>
    <path clip-path="url(#p304c686b55)" d="M 318.26263 185.791346 
L 318.26263 168.997095 
" style="fill:none;stroke:#1f77b4;stroke-width:1.5;"/>
    <path clip-path="url(#p304c686b55)" d="M 329.937707 127.388352 
L 329.937707 109.549812 
" style="fill:none;stroke:#1f77b4;stroke-width:1.5;"/>
    <path clip-path="url(#p304c686b55)" d="M 341.612784 87.818034 
L 341.612784 72.245222 
" style="fill:none;stroke:#1f77b4;stroke-width:1.5;"/>
    <path clip-path="url(#p304c686b55)" d="M 353.287861 110.325524 
L 353.287861 93.288906 
" style="fill:none;stroke:#1f77b4;stroke-width:1.5;"/>
    <path clip-path="url(#p304c686b55)" d="M 364.962938 158.156639 
L 364.962938 139.970587 
" style="fill:none;stroke:#1f77b4;stroke-width:1.5;"/>
    <path clip-path="url(#p304c686b55)" d="M 376.638014 223.389397 
L 376.638014 207.475294 
" style="fill:none;stroke:#1f77b4;stroke-width:1.5;"/>
    <path clip-path="url(#p304c686b55)" d="M 388.313091 216.175024 
L 388.313091 200.89748 
" style="fill:none;stroke:#1f77b4;stroke-width:1.5;"/>
    <path clip-path="url(#p304c686b55)" d="M 399.988168 194.236861 
L 399.988168 177.389165 
" style="fill:none;stroke:#1f77b4;stroke-width:1.5;"/>
    <path clip-path="url(#p304c686b55)" d="M 411.663245 125.330724 
L 411.663245 107.715449 
" style="fill:none;stroke:#1f77b4;stroke-width:1.5;"/>
   </g>
   <g id="LineCollection_2">
    <path clip-path="url(#p304c686b55)" d="M 61.410938 274.780846 
L 61.410938 267.789145 
" style="fill:none;stroke:#d62728;stroke-width:1.5;"/>
    <path clip-path="url(#p304c686b55)" d="M 73.086014 244.498795 
L 73.086014 229.226513 
" style="fill:none;stroke:#d62728;stroke-width:1.5;"/>
    <path clip-path="url(#p304c686b55)" d="M 84.761091 171.788241 
L 84.761091 151.873416 
" style="fill:none;stroke:#d62728;stroke-width:1.5;"/>
    <path clip-path="url(#p304c686b55)" d="M 96.436168 193.132676 
L 96.436168 173.949861 
" style="fill:none;stroke:#d62728;stroke-width:1.5;"/>
    <path clip-path="url(#p304c686b55)" d="M 108.111245 209.353699 
L 108.111245 190.306828 
" style="fill:none;stroke:#d62728;stroke-width:1.5;"/>
    <path clip-path="url(#p304c686b55)" d="M 119.786322 208.196763 
L 119.786322 189.535209 
" style="fill:none;stroke:#d62728;stroke-width:1.5;"/>
    <path clip-path="url(#p304c686b55)" d="M 131.461399 196.798207 
L 131.461399 176.178681 
" style="fill:none;stroke:#d62728;stroke-width:1.5;"/>
    <path clip-path="url(#p304c686b55)" d="M 143.136476 173.845857 
L 143.136476 152.990999 
" style="fill:none;stroke:#d62728;stroke-width:1.5;"/>
    <path clip-path="url(#p304c686b55)" d="M 154.811553 198.91833 
L 154.811553 178.888238 
" style="fill:none;stroke:#d62728;stroke-width:1.5;"/>
    <path clip-path="url(#p304c686b55)" d="M 166.48663 189.481254 
L 166.48663 169.739084 
" style="fill:none;stroke:#d62728;stroke-width:1.5;"/>
    <path clip-path="url(#p304c686b55)" d="M 178.161707 178.990023 
L 178.161707 159.066222 
" style="fill:none;stroke:#d62728;stroke-width:1.5;"/>
    <path clip-path="url(#p304c686b55)" d="M 189.836784 160.792204 
L 189.836784 140.454715 
" style="fill:none;stroke:#d62728;stroke-width:1.5;"/>
    <path clip-path="url(#p304c686b55)" d="M 201.511861 182.052838 
L 201.511861 161.416019 
" style="fill:none;stroke:#d62728;stroke-width:1.5;"/>
    <path clip-path="url(#p304c686b55)" d="M 213.186938 189.419048 
L 213.186938 168.583785 
" style="fill:none;stroke:#d62728;stroke-width:1.5;"/>
    <path clip-path="url(#p304c686b55)" d="M 224.862014 173.882357 
L 224.862014 152.190326 
" style="fill:none;stroke:#d62728;stroke-width:1.5;"/>
    <path clip-path="url(#p304c686b55)" d="M 236.537091 172.463294 
L 236.537091 151.447173 
" style="fill:none;stroke:#d62728;stroke-width:1.5;"/>
   </g>
   <g id="line2d_25">
    <path clip-path="url(#p304c686b55)" d="M 61.410938 278.518987 
L 62.125178 278.518987 
L 62.482298 278.188961 
L 62.839418 278.188961 
L 63.196538 278.518987 
L 63.553658 276.652764 
L 63.910778 276.691051 
L 64.267898 276.273663 
L 64.625018 274.705056 
L 64.982138 273.950751 
L 66.767738 268.668173 
L 67.124858 266.678547 
L 67.839098 264.226454 
L 68.553338 259.898292 
L 68.910458 258.659433 
L 69.981818 252.407819 
L 70.338938 249.255516 
L 70.696058 248.374965 
L 71.053178 246.125624 
L 71.410298 242.971453 
L 72.124538 238.459913 
L 72.481658 234.778575 
L 72.838778 233.088762 
L 73.910138 224.044817 
L 74.267258 221.91182 
L 77.838458 191.115977 
L 78.195578 186.957246 
L 78.909818 182.262802 
L 79.624058 174.366154 
L 84.266618 132.529666 
L 84.623738 130.094929 
L 85.337978 122.259916 
L 86.409338 113.625656 
L 86.766458 110.294991 
L 87.123578 108.472952 
L 88.194938 99.3904 
L 88.552058 97.441979 
L 89.623418 89.299453 
L 89.980538 87.657324 
L 90.694778 81.777869 
L 91.051898 80.555919 
L 91.409018 78.679988 
L 91.766138 76.003103 
L 92.480378 72.707558 
L 92.837498 69.700164 
L 93.908858 65.11404 
L 94.265978 62.915709 
L 94.623098 62.574371 
L 94.980218 59.492559 
L 95.337338 59.897092 
L 96.051578 56.341973 
L 96.408698 56.03719 
L 96.765818 54.97618 
L 97.122938 53.428521 
L 97.480058 52.988591 
L 97.837178 52.88241 
L 98.194298 51.267373 
L 98.551418 52.253351 
L 98.908538 50.097895 
L 99.265658 50.793832 
L 99.622778 50.52547 
L 99.979898 49.909804 
L 100.337018 50.874208 
L 100.694138 50.432531 
L 101.051258 50.690491 
L 101.408378 50.73642 
L 101.765498 51.74026 
L 102.122618 51.729165 
L 102.479738 52.307609 
L 102.836858 53.333974 
L 103.193978 53.682481 
L 103.551098 53.786426 
L 103.908218 55.409339 
L 104.265338 55.530831 
L 104.622458 56.437845 
L 107.836538 69.013856 
L 108.193658 72.660535 
L 108.907898 74.975945 
L 111.407738 90.197366 
L 111.764858 91.876103 
L 112.836218 100.123873 
L 113.907578 107.985234 
L 114.264698 110.272238 
L 115.336058 119.690692 
L 115.693178 121.827426 
L 118.907258 148.333818 
L 119.264378 150.519751 
L 119.978618 156.658844 
L 122.121338 175.107827 
L 122.478458 177.341567 
L 123.192698 183.881584 
L 123.549818 186.126347 
L 124.264058 193.117878 
L 124.621178 194.477032 
L 124.978298 198.610539 
L 125.335418 199.769264 
L 126.049658 206.515565 
L 126.406778 208.042597 
L 127.121018 213.396933 
L 127.835258 217.837725 
L 128.549498 222.831304 
L 129.263738 226.978789 
L 129.620858 230.633092 
L 131.049338 237.657582 
L 131.406458 240.941352 
L 131.763578 241.298914 
L 132.120698 242.510308 
L 132.834938 246.971773 
L 133.192058 248.130659 
L 133.549178 248.215301 
L 134.263418 252.375318 
L 134.620538 253.122338 
L 134.977658 254.910517 
L 135.691898 256.416125 
L 136.049018 258.147128 
L 136.406138 258.788236 
L 136.763258 260.720254 
L 137.120378 259.522404 
L 137.477498 260.506868 
L 137.834618 261.929315 
L 138.191738 261.092124 
L 138.548858 263.324116 
L 139.263098 262.151133 
L 139.620218 262.086381 
L 139.977338 264.336171 
L 140.334458 263.48003 
L 140.691578 263.532001 
L 141.405818 262.717744 
L 141.762938 261.305894 
L 142.120058 263.002267 
L 142.477178 262.377763 
L 142.834298 262.544921 
L 143.548538 259.941226 
L 143.905658 260.081933 
L 144.262778 259.143196 
L 144.619898 258.632379 
L 145.334138 255.951403 
L 146.048378 254.639588 
L 146.405498 252.633223 
L 146.762618 252.017849 
L 147.119738 250.887859 
L 147.476858 247.956175 
L 147.833978 248.046018 
L 148.191098 245.466725 
L 148.905338 242.559274 
L 149.619578 238.911724 
L 149.976698 238.00747 
L 150.690938 232.967016 
L 151.405178 230.30176 
L 152.119418 224.988505 
L 152.833658 221.65243 
L 153.190778 218.312467 
L 154.262138 212.632322 
L 154.619258 209.22292 
L 155.690618 202.064046 
L 156.047738 198.241573 
L 156.404858 196.69178 
L 158.190458 183.542397 
L 158.547578 182.074705 
L 159.261818 176.316205 
L 160.690298 164.274866 
L 161.047418 164.197653 
L 161.404538 159.758975 
L 161.761658 156.873344 
L 162.118778 155.09857 
L 162.475898 150.418985 
L 162.833018 149.31728 
L 163.904378 141.107007 
L 165.332858 131.276608 
L 166.047098 126.70452 
L 166.404218 124.660715 
L 166.761338 121.13617 
L 167.118458 119.417828 
L 168.189818 112.848161 
L 168.546938 108.174429 
L 168.904058 107.916016 
L 169.261178 105.08975 
L 169.618298 104.059161 
L 169.975418 101.334763 
L 170.332538 99.971608 
L 170.689658 97.277395 
L 171.046778 95.712135 
L 171.403898 93.114341 
L 171.761018 93.202234 
L 172.475258 87.355587 
L 172.832378 86.80551 
L 173.189498 84.770724 
L 174.260858 81.043494 
L 174.617978 80.930467 
L 174.975098 77.89295 
L 176.046458 75.034034 
L 176.403578 74.287804 
L 176.760698 72.200894 
L 177.117818 72.774735 
L 177.832058 69.925878 
L 178.189178 70.344172 
L 178.546298 69.192751 
L 178.903418 69.185595 
L 179.260538 67.799972 
L 179.617658 67.542936 
L 179.974778 67.960897 
L 180.331898 66.830154 
L 180.689018 66.897483 
L 181.046138 67.557674 
L 181.403258 66.755344 
L 181.760378 68.085249 
L 182.117498 66.888521 
L 182.474618 66.919926 
L 182.831738 67.895064 
L 183.188858 68.249276 
L 183.545978 67.792657 
L 183.903098 67.975527 
L 184.260218 70.513178 
L 184.974458 71.337897 
L 185.331578 71.296751 
L 185.688698 73.24741 
L 186.045818 73.534797 
L 186.402938 73.448639 
L 186.760058 76.213345 
L 187.117178 77.332583 
L 187.474298 77.407584 
L 188.188538 80.454176 
L 188.545658 81.395141 
L 188.902778 82.922295 
L 189.259898 84.983426 
L 189.617018 85.970689 
L 190.331258 89.364435 
L 190.688378 90.570062 
L 191.402618 93.707075 
L 191.759738 96.715824 
L 192.831098 101.864262 
L 193.188218 105.141476 
L 193.545338 106.315918 
L 196.759418 126.316269 
L 197.116538 130.282431 
L 197.473658 132.118895 
L 197.830778 134.86127 
L 198.187898 136.201047 
L 198.545018 140.267845 
L 198.902138 142.122963 
L 199.259258 145.096083 
L 199.616378 146.880884 
L 200.330618 152.216655 
L 201.401978 160.115126 
L 201.759098 162.909421 
L 202.116218 164.108249 
L 202.830458 170.193516 
L 203.187578 173.187643 
L 203.544698 174.945325 
L 204.616058 183.061523 
L 204.973178 185.091903 
L 205.687418 190.447329 
L 206.758778 196.866317 
L 207.115898 198.563959 
L 207.473018 202.615713 
L 207.830138 203.620752 
L 208.187258 206.846379 
L 209.258618 212.793159 
L 209.972858 217.909045 
L 210.687098 221.236212 
L 211.044218 222.598307 
L 211.401338 225.2492 
L 212.472698 230.412204 
L 212.829818 232.953489 
L 213.186938 233.378187 
L 213.544058 235.770526 
L 213.901178 236.4007 
L 214.258298 237.694429 
L 214.615418 239.877487 
L 214.972538 241.276702 
L 215.329658 242.064815 
L 215.686778 243.87046 
L 216.043898 244.073022 
L 216.401018 245.696247 
L 217.115258 247.333452 
L 217.472378 248.863696 
L 217.829498 248.583857 
L 218.186618 249.875041 
L 218.543738 250.550081 
L 218.900858 250.358771 
L 219.615098 252.558089 
L 219.972218 252.067393 
L 220.329338 252.643957 
L 220.686458 252.558089 
L 221.043578 252.62249 
L 221.400698 253.166226 
L 221.757818 252.809985 
L 222.114938 253.597045 
L 222.472058 253.44171 
L 222.829178 252.729825 
L 223.186298 252.385936 
L 223.543418 251.605537 
L 223.900538 251.77623 
L 224.257658 251.807746 
L 224.971898 250.099431 
L 225.329018 248.707293 
L 225.686138 249.036267 
L 226.043258 248.536382 
L 226.400378 247.461941 
L 226.757498 246.83588 
L 227.471738 243.490139 
L 227.828858 243.523869 
L 228.185978 242.129569 
L 228.543098 239.93149 
L 228.900218 239.332506 
L 229.971578 234.576903 
L 231.757178 226.984961 
L 232.114298 224.540588 
L 232.828538 221.365365 
L 233.185658 219.533405 
L 233.542778 216.670581 
L 233.899898 215.400004 
L 234.257018 212.517979 
L 234.614138 211.697641 
L 234.971258 208.574623 
L 235.685498 204.692489 
L 236.399738 199.394854 
L 236.756858 198.070035 
L 238.899578 183.688376 
L 239.256698 181.854051 
L 240.328058 173.594265 
L 240.685178 171.684316 
L 241.042298 168.6946 
L 241.399418 167.096557 
L 241.756538 163.437718 
L 242.113658 161.389551 
L 242.470778 158.192721 
L 243.185018 154.876884 
L 243.542138 151.237207 
L 248.184698 121.913296 
L 248.541818 119.937569 
L 248.898938 116.886177 
L 250.684538 108.1652 
L 251.041658 106.792872 
L 251.755898 101.613772 
L 252.470138 99.653846 
L 252.827258 97.342231 
L 253.184378 96.550404 
L 254.255738 89.861081 
L 255.327098 88.712876 
L 256.041338 85.760402 
L 256.398458 84.543712 
L 256.755578 84.155996 
L 257.112698 82.156068 
L 257.469818 82.348893 
L 257.826938 80.579858 
L 258.184058 79.779394 
L 258.541178 80.615767 
L 258.898298 79.845629 
L 259.255418 78.261155 
L 259.612538 78.741324 
L 259.969658 78.581851 
L 260.326778 77.806 
L 260.683898 78.91078 
L 261.041018 77.495084 
L 261.398138 77.619679 
L 261.755258 76.74621 
L 262.112378 77.855685 
L 262.469498 76.953773 
L 262.826617 78.31053 
L 263.183738 76.777659 
L 263.540858 78.83946 
L 263.897978 77.961267 
L 264.612218 79.26433 
L 264.969338 79.032694 
L 265.326458 81.001853 
L 265.683578 81.472012 
L 266.040698 81.489752 
L 266.754938 83.008918 
L 267.469178 86.126904 
L 267.826298 86.283119 
L 268.183418 87.128978 
L 268.897658 89.847453 
L 269.611898 91.429884 
L 269.969018 93.789367 
L 270.683258 96.208982 
L 272.825978 105.759561 
L 273.183098 108.146742 
L 273.540218 109.628209 
L 273.897338 112.03866 
L 274.254458 113.040301 
L 274.611578 115.955219 
L 274.968698 117.031012 
L 275.325818 118.59733 
L 275.682938 121.544054 
L 276.040058 123.425053 
L 276.397178 126.379571 
L 277.111418 129.032951 
L 279.611258 144.792545 
L 279.968378 146.196913 
L 280.682618 151.233176 
L 281.039738 154.04657 
L 281.396858 155.461328 
L 281.753978 158.735042 
L 282.111098 159.382589 
L 282.468218 162.803761 
L 282.825338 164.250483 
L 283.182458 167.022801 
L 283.539578 168.145529 
L 283.896698 172.122291 
L 284.253818 173.4117 
L 284.968058 179.447603 
L 285.325178 179.384301 
L 285.682298 183.044349 
L 286.396538 186.296007 
L 287.110778 191.049254 
L 287.467898 193.072991 
L 287.825018 194.363786 
L 288.896378 200.473485 
L 289.253498 202.073587 
L 289.610618 205.184985 
L 289.967738 205.810118 
L 290.324858 208.759397 
L 290.681978 209.341069 
L 291.396218 213.517745 
L 291.753338 214.297607 
L 292.110458 217.308215 
L 292.467578 218.431937 
L 292.824698 220.186688 
L 293.181818 221.15059 
L 293.896058 224.195557 
L 294.253178 224.707216 
L 294.610298 225.652435 
L 294.967418 228.299222 
L 296.753018 233.561909 
L 297.110138 233.989895 
L 297.467258 235.186243 
L 297.824378 235.247057 
L 298.181498 236.828021 
L 298.538618 236.835282 
L 298.895738 238.200514 
L 299.252858 238.014895 
L 299.609978 239.652642 
L 299.967098 239.560782 
L 300.681338 240.768932 
L 301.038458 240.031783 
L 301.395578 240.667048 
L 302.109818 240.370241 
L 302.466938 241.314842 
L 302.824058 240.792444 
L 303.181178 241.237202 
L 303.538298 240.093501 
L 303.895418 238.415026 
L 304.252538 240.276935 
L 304.609658 240.401343 
L 304.966778 239.002182 
L 305.323898 239.32491 
L 305.681018 238.200514 
L 306.038138 238.222789 
L 306.395258 237.642843 
L 306.752378 237.628104 
L 307.109498 236.379076 
L 307.466618 236.051129 
L 308.180858 233.17669 
L 308.537978 232.014553 
L 308.895098 231.75999 
L 309.252218 230.142497 
L 309.609338 229.440254 
L 309.966458 228.135687 
L 310.323578 226.219136 
L 310.680698 226.304476 
L 311.037818 223.666373 
L 311.394938 222.948168 
L 311.752058 221.359624 
L 312.109178 220.49561 
L 312.466298 218.44858 
L 312.823418 217.149996 
L 313.537658 213.37067 
L 314.251898 211.323024 
L 314.609018 209.508185 
L 314.966138 208.925661 
L 315.680378 203.673741 
L 317.108858 196.236242 
L 317.465978 193.447146 
L 317.823098 193.618494 
L 318.180218 190.292339 
L 318.537338 189.634761 
L 319.251578 184.401941 
L 319.608698 184.113019 
L 320.322938 178.620459 
L 320.680058 176.709534 
L 321.037178 173.901305 
L 321.394298 172.764425 
L 321.751418 169.749137 
L 322.108538 168.223382 
L 323.537018 159.342117 
L 323.894138 158.484117 
L 324.251258 154.381114 
L 324.965498 152.019153 
L 325.322618 148.847808 
L 326.036858 145.164885 
L 327.108218 138.700889 
L 327.465338 137.91792 
L 327.822458 135.922842 
L 328.536698 131.077447 
L 329.250938 128.079596 
L 329.965178 124.306149 
L 331.393658 117.590422 
L 331.750778 114.692646 
L 332.107898 114.099279 
L 332.465018 112.335278 
L 332.822138 111.213859 
L 333.179258 108.243299 
L 333.536378 107.916016 
L 333.893498 105.834443 
L 334.250618 105.492793 
L 334.964858 102.513256 
L 335.321978 100.855532 
L 335.679098 100.260081 
L 336.750458 97.352206 
L 337.107578 95.957068 
L 337.464698 95.418416 
L 338.178938 93.393531 
L 338.536058 92.707672 
L 338.893178 91.250338 
L 339.250298 90.803665 
L 339.607418 91.054949 
L 340.321658 88.441584 
L 341.035898 90.085271 
L 341.393018 88.517546 
L 341.750138 88.387326 
L 342.107258 88.60436 
L 342.464378 87.783505 
L 342.821498 88.376474 
L 343.535738 87.536629 
L 343.892858 87.86885 
L 344.249978 88.419881 
L 344.607098 87.49274 
L 344.964218 89.121379 
L 345.321338 89.670346 
L 345.678458 89.648879 
L 346.035578 89.761583 
L 346.749818 91.928629 
L 347.106938 91.729027 
L 347.464058 92.484796 
L 347.821178 93.676215 
L 348.178298 94.128822 
L 348.535418 95.676686 
L 348.892538 95.09309 
L 349.606778 97.397092 
L 350.321018 99.469007 
L 350.678138 100.005829 
L 351.035258 101.893164 
L 351.749498 103.806768 
L 352.820858 107.791424 
L 353.177978 110.543441 
L 353.535098 110.317745 
L 353.892218 111.840257 
L 354.249338 115.007055 
L 354.606458 115.153188 
L 354.963578 118.59298 
L 355.320698 119.192607 
L 355.677818 120.140602 
L 356.034938 122.512137 
L 356.392058 123.230325 
L 357.106298 127.915711 
L 357.463418 128.90742 
L 357.820538 131.235116 
L 358.177658 132.688046 
L 358.534778 135.280961 
L 359.606138 140.145427 
L 359.963258 143.390876 
L 360.320378 144.497102 
L 360.677498 147.443441 
L 361.748858 152.998601 
L 363.891578 164.356142 
L 364.248698 166.355223 
L 364.605818 169.107256 
L 364.962938 170.140026 
L 365.320058 172.847409 
L 365.677178 173.934499 
L 366.034298 176.914568 
L 366.391418 177.904657 
L 366.748538 180.808835 
L 367.462778 184.531309 
L 367.819898 186.909393 
L 368.891258 191.08484 
L 369.605498 194.563099 
L 370.319738 198.764255 
L 370.676858 199.085661 
L 371.391098 203.779717 
L 371.748218 205.727624 
L 372.105338 206.456315 
L 372.462458 208.007685 
L 372.819578 208.122395 
L 373.176698 211.287021 
L 373.533818 212.554361 
L 373.890938 213.365417 
L 374.962298 217.771891 
L 376.033658 219.662454 
L 376.390778 221.727067 
L 377.105018 223.962032 
L 377.462138 225.405755 
L 377.819258 225.519153 
L 378.176378 226.94793 
L 378.533498 227.253989 
L 378.890618 227.403046 
L 379.247738 227.676316 
L 379.604858 227.751423 
L 380.319098 230.110226 
L 380.676218 230.194131 
L 381.033338 230.75088 
L 381.390458 231.594302 
L 381.747578 231.469321 
L 382.104698 230.258674 
L 382.461818 231.442988 
L 382.818938 231.337654 
L 383.176058 231.587674 
L 383.533178 231.68046 
L 383.890298 230.777039 
L 384.247418 230.36023 
L 386.033018 229.90369 
L 386.390138 229.32046 
L 386.747258 229.084734 
L 387.461498 226.960273 
L 387.818618 226.997305 
L 388.175738 225.876592 
L 388.889978 224.623428 
L 389.247098 224.540588 
L 389.604218 222.691248 
L 389.961338 221.859846 
L 391.032698 218.273849 
L 391.389818 217.61828 
L 391.746938 216.442696 
L 392.104058 214.549629 
L 392.818298 213.559766 
L 393.175418 210.691343 
L 393.532538 210.640177 
L 394.246778 207.808189 
L 394.603898 205.409862 
L 394.961018 204.974633 
L 395.318138 203.534045 
L 395.675258 201.212795 
L 396.032378 200.801727 
L 396.389498 198.11176 
L 396.746618 197.585341 
L 397.103738 194.436263 
L 397.817978 192.300069 
L 398.175098 189.775834 
L 398.889338 187.92633 
L 399.246458 184.643428 
L 399.603578 184.066205 
L 399.960698 181.049572 
L 400.674938 177.765985 
L 401.032058 175.428663 
L 401.389178 174.811991 
L 401.746298 171.915699 
L 402.103418 171.192628 
L 402.460538 169.765596 
L 402.817658 167.223581 
L 403.174778 163.840036 
L 403.531898 164.213908 
L 403.889018 161.147154 
L 404.246138 160.046324 
L 404.603258 158.063212 
L 404.960378 155.360562 
L 405.317498 154.884945 
L 406.031738 150.668885 
L 406.745978 147.872441 
L 407.103098 145.253922 
L 409.960058 131.965375 
L 410.317178 131.878242 
L 410.674298 128.890683 
L 411.031418 128.02917 
L 411.388538 126.501954 
L 411.745658 126.155904 
L 412.459898 122.691684 
L 412.817018 121.99058 
L 413.174138 120.019861 
L 413.888378 117.738985 
L 414.245498 115.897908 
L 414.602618 115.65544 
L 414.959738 113.379896 
L 415.316858 113.335213 
L 417.102458 107.989848 
L 417.459578 107.446574 
L 417.816698 107.284307 
L 418.173818 106.418395 
L 418.530938 106.52553 
L 418.530938 106.52553 
" style="fill:none;stroke:#2ca02c;stroke-dasharray:5.55,2.4;stroke-dashoffset:0;stroke-width:1.5;"/>
   </g>
   <g id="line2d_26">
    <path clip-path="url(#p304c686b55)" d="M 61.410938 278.518987 
L 62.125178 278.518987 
L 62.482298 278.188961 
L 62.839418 278.122749 
L 63.196538 277.728048 
L 63.553658 278.188961 
L 63.910778 275.449678 
L 64.267898 276.394909 
L 64.625018 274.742216 
L 64.982138 274.375953 
L 65.339258 273.533434 
L 65.696378 271.333004 
L 66.053498 270.509893 
L 67.124858 266.289622 
L 68.196218 261.961168 
L 68.553338 259.451871 
L 69.267578 256.805114 
L 69.624698 253.752379 
L 71.053178 245.810867 
L 71.410298 243.357367 
L 71.767418 239.923776 
L 72.124538 237.841816 
L 73.195898 228.803402 
L 73.910138 224.062556 
L 77.838458 189.458421 
L 80.338298 166.910187 
L 81.052538 158.739089 
L 82.838138 142.273325 
L 83.552378 134.709029 
L 84.266618 128.727493 
L 84.623738 124.327431 
L 86.052218 112.743747 
L 86.409338 108.174404 
L 88.194938 93.238426 
L 88.552058 89.455672 
L 89.266298 84.816126 
L 91.766138 66.163806 
L 92.123258 64.025454 
L 92.480378 60.99223 
L 93.194618 57.084597 
L 93.551738 54.755862 
L 93.908858 53.776032 
L 94.623098 49.263854 
L 94.980218 48.04916 
L 95.337338 45.877347 
L 96.051578 43.657458 
L 96.765818 39.880581 
L 97.122938 38.907492 
L 97.480058 38.71554 
L 97.837178 36.038605 
L 98.551418 35.134694 
L 99.265658 33.643916 
L 99.622778 32.192965 
L 99.979898 31.881689 
L 100.337018 31.881689 
L 100.694138 32.272605 
L 101.051258 30.784453 
L 101.408378 31.215139 
L 101.765498 30.369532 
L 102.122618 30.949005 
L 102.479738 30.414964 
L 102.836858 31.313872 
L 103.193978 31.115056 
L 103.551098 32.235893 
L 103.908218 32.235893 
L 104.265338 32.701327 
L 104.622458 34.215113 
L 104.979578 34.119559 
L 106.408058 38.284102 
L 106.765178 38.19633 
L 107.122298 39.272977 
L 107.479418 41.769874 
L 107.836538 43.429283 
L 108.193658 43.641784 
L 108.550778 46.058152 
L 109.265018 48.547639 
L 109.622138 52.016114 
L 109.979258 52.264203 
L 110.336378 54.986155 
L 110.693498 56.821301 
L 111.050618 59.704837 
L 111.407738 61.108473 
L 113.550458 75.221207 
L 113.907578 76.978933 
L 114.264698 80.680617 
L 114.621818 83.032017 
L 114.978938 86.227328 
L 115.336058 88.081627 
L 116.764538 99.619626 
L 117.121658 101.714931 
L 119.978618 127.953531 
L 121.049978 134.877728 
L 121.407098 139.888348 
L 122.121338 146.876837 
L 122.478458 148.119318 
L 123.192698 155.380715 
L 123.549818 159.350211 
L 123.906938 161.552104 
L 125.335418 174.054825 
L 125.692538 178.675321 
L 126.049658 180.062906 
L 126.763898 186.657078 
L 127.478138 192.027499 
L 127.835258 196.650443 
L 128.192378 198.05149 
L 128.906618 203.678558 
L 129.263738 206.247372 
L 129.620858 210.239241 
L 129.977978 211.559614 
L 130.692218 217.744461 
L 131.763578 224.356175 
L 134.263418 240.199179 
L 135.691898 247.618831 
L 136.049018 250.069508 
L 136.406138 250.877679 
L 137.120378 254.524765 
L 138.548858 258.980245 
L 138.905978 260.914755 
L 139.263098 261.046549 
L 139.620218 263.341439 
L 139.977338 263.590643 
L 140.334458 264.835212 
L 140.691578 264.427602 
L 141.048698 264.618246 
L 141.405818 266.506818 
L 141.762938 265.821367 
L 142.477178 267.494577 
L 142.834298 266.931154 
L 143.191418 266.742945 
L 143.905658 266.931154 
L 144.262778 266.485352 
L 144.619898 267.217684 
L 144.977018 266.821439 
L 145.334138 267.540504 
L 145.691258 267.150359 
L 146.048378 265.082075 
L 146.405498 264.987128 
L 146.762618 263.289468 
L 147.119738 263.784607 
L 147.476858 262.544921 
L 148.548218 259.841048 
L 149.976698 254.034378 
L 150.333818 253.29789 
L 150.690938 251.060924 
L 151.048058 250.278974 
L 151.762298 247.563458 
L 152.119418 243.8789 
L 152.476538 243.707978 
L 152.833658 242.153852 
L 153.190778 238.7685 
L 153.905018 235.642649 
L 155.690618 224.605474 
L 156.047738 222.453086 
L 156.761978 216.072293 
L 157.833338 209.232997 
L 158.190458 206.242459 
L 158.547578 204.408131 
L 158.904698 201.522431 
L 159.261818 197.409989 
L 159.976058 192.817137 
L 160.333178 189.110148 
L 160.690298 187.113602 
L 161.047418 182.617621 
L 161.404538 180.745261 
L 161.761658 178.224021 
L 162.475898 171.62647 
L 164.261498 157.488514 
L 164.975738 150.717253 
L 165.332858 147.253224 
L 165.689978 144.946338 
L 166.404218 137.938407 
L 167.118458 133.427644 
L 167.832698 126.518835 
L 168.904058 117.939982 
L 169.975418 109.417906 
L 171.046778 101.165338 
L 171.403898 97.87302 
L 171.761018 95.793161 
L 172.475258 89.951824 
L 172.832378 88.185288 
L 175.332218 71.344754 
L 175.689338 70.393197 
L 176.046458 66.927407 
L 176.760698 62.867143 
L 177.117818 62.106837 
L 177.474938 59.554277 
L 177.832058 58.542448 
L 178.189178 55.785478 
L 178.546298 54.926307 
L 181.046138 45.523571 
L 181.403258 44.737865 
L 181.760378 43.112687 
L 182.117498 43.301868 
L 182.474618 42.430565 
L 182.831738 40.418023 
L 183.188858 41.168858 
L 183.545978 39.133781 
L 183.903098 39.555105 
L 184.260218 39.333433 
L 184.617338 39.575257 
L 184.974458 38.493777 
L 185.331578 39.072066 
L 185.688698 39.277784 
L 186.045818 38.558176 
L 186.402938 38.967653 
L 186.760058 39.195497 
L 187.117178 39.880581 
L 187.474298 39.393889 
L 187.831418 40.559748 
L 188.188538 39.742338 
L 188.902778 42.653878 
L 189.259898 42.148478 
L 189.617018 43.317795 
L 189.974138 44.930021 
L 190.331258 44.841034 
L 190.688378 47.054784 
L 191.045498 46.677567 
L 191.402618 49.283715 
L 191.759738 50.420914 
L 192.116858 52.136806 
L 192.831098 53.449531 
L 193.545338 59.107425 
L 193.902458 60.164596 
L 194.616698 64.033354 
L 194.973818 64.930546 
L 196.402298 74.418598 
L 196.759418 75.627518 
L 197.116538 78.784258 
L 198.187898 85.288141 
L 199.973498 98.889277 
L 200.330618 102.755254 
L 200.687738 104.611975 
L 201.044858 107.597614 
L 201.401978 109.203032 
L 202.116218 116.394618 
L 203.544698 127.671986 
L 204.616058 137.590116 
L 206.044538 150.285974 
L 206.401658 151.587874 
L 207.115898 158.977872 
L 209.258618 177.375184 
L 209.615738 181.483735 
L 211.401338 195.020381 
L 211.758458 198.185939 
L 212.115578 202.374132 
L 212.472698 203.832705 
L 212.829818 207.486144 
L 213.186938 209.842418 
L 213.544058 211.446462 
L 213.901178 215.512709 
L 218.186618 243.465289 
L 218.900858 246.634624 
L 219.615098 249.815792 
L 219.972218 253.100394 
L 220.329338 253.947883 
L 220.686458 255.690693 
L 221.043578 256.514873 
L 221.400698 257.643704 
L 221.757818 259.798114 
L 222.114938 260.660408 
L 222.472058 261.19789 
L 222.829178 262.998678 
L 223.543418 264.580984 
L 223.900538 264.816223 
L 224.257658 266.843382 
L 224.614778 266.122618 
L 224.971898 266.777553 
L 225.329018 268.507057 
L 225.686138 267.44865 
L 226.043258 268.566898 
L 226.400378 268.889737 
L 226.757498 268.353799 
L 227.114618 268.507057 
L 227.471738 268.309571 
L 228.185978 267.643592 
L 228.543098 267.831674 
L 228.900218 267.128642 
L 229.257338 266.931154 
L 229.614458 265.254303 
L 229.971578 265.273665 
L 230.328698 264.89218 
L 231.042938 262.512005 
L 231.400058 262.24826 
L 231.757178 261.000974 
L 232.114298 260.624774 
L 232.471418 258.483582 
L 232.828538 257.153437 
L 233.185658 255.070338 
L 233.542778 254.490318 
L 234.257018 250.199177 
L 234.614138 249.061891 
L 234.971258 246.817761 
L 235.328378 245.527897 
L 235.685498 243.490395 
L 236.042618 242.17004 
L 237.113978 235.032165 
L 237.471098 233.561909 
L 238.542458 225.912942 
L 238.899578 224.068469 
L 241.399418 205.204539 
L 241.756538 202.836224 
L 242.470778 196.172237 
L 242.827898 192.992195 
L 243.185018 191.489629 
L 243.542138 186.391713 
L 243.899258 184.55287 
L 244.256378 180.503682 
L 244.970618 174.882825 
L 245.327738 171.73803 
L 245.684858 169.621584 
L 246.041978 165.302424 
L 246.399098 163.315803 
L 247.113338 156.513146 
L 247.470458 152.643904 
L 248.184698 146.698762 
L 248.898938 140.071976 
L 249.256058 138.057236 
L 249.970298 130.449099 
L 252.113018 114.059245 
L 252.470138 110.480023 
L 252.827258 108.077524 
L 253.541498 101.237949 
L 254.969978 90.893921 
L 255.684218 84.258742 
L 256.041338 84.013293 
L 256.755578 77.868107 
L 257.112698 76.079555 
L 258.541178 66.115079 
L 258.898298 64.930546 
L 259.255418 63.275582 
L 259.612538 60.87305 
L 259.969658 59.249766 
L 260.326778 56.981146 
L 261.041018 54.327397 
L 261.398138 51.651498 
L 261.755258 51.469358 
L 262.112378 50.062628 
L 262.469498 48.150439 
L 263.183738 46.139008 
L 263.540858 44.78208 
L 263.897978 45.417142 
L 264.255098 43.096499 
L 264.612218 42.834912 
L 264.969338 40.746059 
L 265.326458 41.007089 
L 265.683578 40.173932 
L 266.397818 39.195497 
L 266.754938 38.515243 
L 267.112058 38.673521 
L 267.469178 38.240216 
L 268.183418 37.885363 
L 268.540538 38.558176 
L 268.897658 39.595409 
L 269.254778 39.174925 
L 269.611898 39.575257 
L 269.969018 39.216068 
L 270.326138 40.361055 
L 270.683258 41.007089 
L 271.040378 41.943112 
L 271.397498 41.873817 
L 271.754618 44.27505 
L 272.111738 44.032795 
L 272.468858 45.147845 
L 272.825978 45.706959 
L 273.183098 48.163099 
L 273.540218 48.675697 
L 275.325818 56.545944 
L 275.682938 56.821301 
L 276.040058 58.805062 
L 276.397178 62.090241 
L 276.754298 62.509082 
L 277.111418 64.57172 
L 277.825658 69.728378 
L 278.182778 70.921515 
L 278.539898 73.818352 
L 278.897018 75.376109 
L 279.254138 77.520084 
L 279.968378 83.470965 
L 280.325498 84.355779 
L 280.682618 89.089002 
L 281.039738 91.12888 
L 281.396858 92.505695 
L 281.753978 96.620582 
L 282.468218 100.845851 
L 283.182458 106.735142 
L 283.539578 108.94244 
L 284.253818 116.025755 
L 286.396538 133.617709 
L 287.467898 142.553729 
L 288.182138 148.192167 
L 288.896378 155.437144 
L 289.610618 161.674018 
L 291.396218 176.014931 
L 291.753338 180.130718 
L 292.110458 181.790203 
L 293.181818 191.018116 
L 293.896058 196.852537 
L 294.610298 202.412297 
L 295.324538 206.989568 
L 295.681658 210.747625 
L 297.467258 222.760954 
L 297.824378 225.950926 
L 298.181498 227.601788 
L 298.538618 231.350821 
L 298.895738 232.642051 
L 299.252858 234.667307 
L 299.609978 235.813152 
L 300.324218 240.612187 
L 301.038458 244.265591 
L 301.395578 246.232379 
L 301.752698 247.251161 
L 302.109818 248.863696 
L 302.466938 251.191529 
L 302.824058 251.765725 
L 303.181178 254.159231 
L 303.538298 255.046827 
L 304.252538 258.01714 
L 304.609658 258.133783 
L 304.966778 259.268369 
L 305.323898 259.883981 
L 306.038138 262.512005 
L 306.395258 262.429717 
L 306.752378 262.918584 
L 307.109498 263.731708 
L 307.466618 264.930159 
L 307.823738 264.636877 
L 308.537978 265.254303 
L 308.895098 265.041324 
L 309.252218 264.968138 
L 309.609338 265.157494 
L 309.966458 266.040331 
L 310.323578 265.720607 
L 310.680698 263.884815 
L 311.037818 264.171595 
L 311.394938 263.566649 
L 312.109178 263.117854 
L 313.537658 259.035104 
L 313.894778 258.767649 
L 314.251898 256.305034 
L 314.609018 255.859287 
L 314.966138 254.747873 
L 315.323258 252.972756 
L 315.680378 252.226665 
L 316.037498 250.72138 
L 316.394618 248.517391 
L 317.465978 244.299642 
L 317.823098 241.577642 
L 318.180218 240.370241 
L 320.322938 228.267773 
L 320.680058 224.37997 
L 321.037178 223.208146 
L 321.394298 219.690508 
L 322.108538 215.362436 
L 322.822778 210.502028 
L 323.537018 204.497906 
L 323.894138 202.474314 
L 324.251258 198.964551 
L 324.608378 196.967364 
L 324.965498 194.178062 
L 325.322618 189.822941 
L 325.679738 187.668529 
L 326.751098 178.502296 
L 327.108218 176.450104 
L 327.822458 168.579869 
L 328.536698 163.693739 
L 329.965178 150.838173 
L 330.322298 149.082544 
L 331.036538 141.033859 
L 331.393658 139.084467 
L 331.750778 136.26251 
L 332.107898 132.19773 
L 332.465018 130.853269 
L 333.536378 120.278595 
L 334.607738 111.628326 
L 334.964858 109.628209 
L 335.321978 105.675318 
L 335.679098 104.229257 
L 336.036218 99.590294 
L 336.750458 96.410514 
L 337.107578 92.723264 
L 337.464698 90.437333 
L 337.821818 87.404962 
L 338.178938 86.193853 
L 338.536058 82.226186 
L 339.607418 75.614694 
L 340.321658 71.427046 
L 340.678778 70.064031 
L 341.393018 65.044607 
L 341.750138 63.199006 
L 342.107258 62.048749 
L 343.178618 56.046872 
L 343.535738 55.560162 
L 343.892858 52.956737 
L 344.249978 52.264203 
L 344.607098 50.25827 
L 344.964218 50.074384 
L 345.321338 48.51014 
L 345.678458 46.016428 
L 346.035578 46.044244 
L 346.392698 45.678745 
L 346.749818 44.420194 
L 347.106938 44.524925 
L 347.464058 42.869869 
L 347.821178 43.080312 
L 348.178298 41.330441 
L 348.535418 42.397092 
L 349.606778 39.999677 
L 349.963898 39.821334 
L 350.678138 41.465915 
L 351.035258 40.708797 
L 351.392378 40.59701 
L 352.463738 41.908464 
L 353.535098 44.649435 
L 353.892218 45.147845 
L 354.249338 46.030336 
L 354.606458 46.099876 
L 355.320698 49.755196 
L 356.392058 53.281449 
L 356.749178 54.986155 
L 357.106298 55.657933 
L 358.891898 65.6162 
L 359.249018 67.096415 
L 362.105978 84.804776 
L 363.177338 93.186724 
L 366.391418 117.856962 
L 366.748538 121.128111 
L 367.105658 122.995204 
L 367.462778 127.617358 
L 367.819898 129.536591 
L 368.534138 136.389534 
L 368.891258 138.476455 
L 369.605498 144.841111 
L 370.319738 151.249299 
L 371.033978 158.002504 
L 371.391098 160.362004 
L 372.819578 173.125405 
L 373.176698 175.391163 
L 373.890938 181.666765 
L 377.462138 209.62466 
L 377.819258 211.723492 
L 378.890618 219.91583 
L 380.319098 227.795173 
L 381.390458 235.962342 
L 382.104698 238.311886 
L 382.461818 241.714879 
L 382.818938 242.60008 
L 383.176058 243.85358 
L 384.247418 249.805917 
L 384.604538 250.278974 
L 384.961658 252.184192 
L 385.675898 253.232058 
L 386.033018 255.955626 
L 386.390138 254.999804 
L 386.747258 256.887578 
L 387.104378 258.069805 
L 387.461498 259.697936 
L 388.175738 259.912603 
L 388.532858 260.899794 
L 388.889978 262.627209 
L 389.247098 261.38304 
L 389.604218 261.833754 
L 389.961338 261.636168 
L 390.318458 260.869871 
L 390.675578 261.865607 
L 391.032698 261.849681 
L 391.389818 261.68319 
L 392.104058 260.595298 
L 392.461178 261.000974 
L 393.175418 259.254461 
L 393.532538 258.470054 
L 393.889658 258.427356 
L 394.603898 256.730116 
L 395.318138 254.204633 
L 395.675258 253.723455 
L 396.032378 251.417828 
L 396.389498 251.460013 
L 397.103738 247.232874 
L 397.460858 246.688487 
L 397.817978 245.536636 
L 398.532218 242.291453 
L 398.889338 239.537817 
L 399.246458 239.583747 
L 399.603578 235.699483 
L 399.960698 235.053176 
L 400.317818 232.892615 
L 400.674938 231.561164 
L 401.032058 228.324381 
L 401.389178 226.991133 
L 401.746298 223.837855 
L 402.103418 222.685439 
L 402.817658 217.100894 
L 403.174778 215.01789 
L 403.889018 209.781648 
L 404.246138 208.484394 
L 404.960378 201.365759 
L 405.317498 200.139614 
L 408.174458 177.085235 
L 408.888698 173.009228 
L 409.245818 168.559381 
L 409.602938 167.133435 
L 409.960058 162.4624 
L 410.317178 161.122871 
L 411.031418 154.711627 
L 412.459898 142.931664 
L 412.817018 139.492528 
L 413.174138 137.598311 
L 413.531258 134.544444 
L 413.888378 132.546263 
L 414.245498 129.915761 
L 414.959738 123.24315 
L 415.316858 121.642805 
L 416.031098 115.352461 
L 416.388218 113.281592 
L 417.102458 107.335305 
L 417.459578 105.923365 
L 417.816698 103.688078 
L 418.173818 100.119009 
L 418.530938 97.962342 
L 418.530938 97.962342 
" style="fill:none;stroke:#1f77b4;stroke-linecap:square;stroke-width:1.5;"/>
   </g>
   <g id="line2d_27">
    <path clip-path="url(#p304c686b55)" d="M 61.410938 271.333963 
L 62.56471 271.333963 
L 62.949301 270.26324 
L 63.333891 271.333963 
L 63.718482 271.333963 
L 64.103073 269.407313 
L 64.487664 268.740793 
L 64.872254 268.40569 
L 65.256845 265.794339 
L 65.641436 265.880196 
L 66.410618 264.438032 
L 67.179799 261.099861 
L 67.56439 260.055102 
L 68.718162 254.839852 
L 69.487344 252.584468 
L 70.256525 247.05366 
L 70.641116 245.711772 
L 71.025707 243.662114 
L 71.410298 242.509178 
L 71.794888 239.696154 
L 72.179479 238.264223 
L 72.56407 234.489713 
L 72.948661 232.368103 
L 73.333251 231.598552 
L 74.487024 223.060741 
L 75.256205 219.387045 
L 76.025387 213.948442 
L 76.409978 211.936803 
L 77.948341 201.977437 
L 79.486704 192.490638 
L 79.871294 188.685475 
L 80.255885 187.5185 
L 80.640476 185.681488 
L 81.025067 182.401244 
L 81.409658 180.928998 
L 81.794248 177.708515 
L 82.948021 172.454058 
L 83.332611 169.641672 
L 83.717202 167.685301 
L 84.101793 167.476966 
L 84.486384 164.371205 
L 85.255565 160.628604 
L 85.640156 158.239819 
L 86.024747 157.819515 
L 86.409338 155.350525 
L 87.947701 149.817829 
L 88.332291 149.413113 
L 88.716882 147.470174 
L 89.101473 146.414144 
L 89.486064 145.870006 
L 90.639836 142.148445 
L 91.024427 142.039171 
L 91.409018 142.059407 
L 91.793608 140.132954 
L 92.178199 140.306983 
L 92.56279 138.926898 
L 92.947381 138.999747 
L 93.331971 139.647294 
L 93.716562 138.554559 
L 94.101153 138.133653 
L 94.485744 138.299587 
L 94.870334 137.761314 
L 95.254925 138.068898 
L 95.639516 136.49032 
L 96.024107 138.259115 
L 96.408698 138.631455 
L 96.793288 137.793691 
L 97.947061 140.080341 
L 98.331651 140.221992 
L 98.716242 139.732285 
L 99.100833 141.116417 
L 99.485424 141.772058 
L 99.870014 141.589935 
L 100.254605 143.41131 
L 100.639196 143.266206 
L 101.023787 143.733762 
L 101.408378 145.640259 
L 101.792968 146.317408 
L 102.177559 147.832933 
L 102.56215 147.482266 
L 102.946741 148.80199 
L 103.331331 149.514292 
L 103.715922 149.882584 
L 104.100513 151.513593 
L 104.485104 152.436348 
L 104.869694 152.34731 
L 105.254285 153.577649 
L 105.638876 154.232974 
L 106.023467 155.842248 
L 106.408058 156.35429 
L 106.792648 157.154863 
L 107.177239 158.725412 
L 107.56183 159.337505 
L 108.331011 161.009676 
L 108.715602 161.657088 
L 109.100193 163.164848 
L 109.484784 165.379373 
L 109.869374 165.14799 
L 110.253965 166.226676 
L 110.638556 166.612551 
L 111.023147 167.514466 
L 111.407738 168.972175 
L 111.792328 169.256711 
L 112.176919 170.127127 
L 112.56151 171.524058 
L 112.946101 171.477636 
L 113.330691 172.013592 
L 114.099873 173.817726 
L 114.484464 173.500902 
L 114.869054 175.090602 
L 115.253645 175.005104 
L 115.638236 175.599319 
L 116.022827 175.488171 
L 116.407418 176.507646 
L 116.792008 176.75667 
L 117.176599 176.653625 
L 117.56119 178.027696 
L 117.945781 177.570522 
L 118.714962 178.395845 
L 119.099553 177.958397 
L 119.484144 178.44782 
L 119.868734 179.141435 
L 120.253325 179.06313 
L 120.637916 180.182009 
L 121.022507 179.363298 
L 121.407098 179.99849 
L 121.791688 178.352534 
L 122.176279 178.603742 
L 122.56087 178.551768 
L 122.945461 178.356865 
L 123.330051 179.376349 
L 123.714642 179.202338 
L 124.099233 178.837625 
L 124.483824 178.205274 
L 124.868414 178.802976 
L 125.253005 177.738701 
L 125.637596 177.10911 
L 126.022187 178.131644 
L 126.406778 177.635206 
L 126.791368 177.954314 
L 127.175959 176.507646 
L 127.56055 177.022865 
L 127.945141 175.633518 
L 128.329731 176.434656 
L 128.714322 175.197476 
L 129.098913 175.107702 
L 129.483504 175.84299 
L 129.868094 175.278699 
L 130.252685 173.992243 
L 130.637276 174.566871 
L 131.021867 173.924139 
L 131.406458 173.621927 
L 131.791048 173.617671 
L 132.56023 172.401843 
L 132.944821 172.754973 
L 133.329411 172.342761 
L 133.714002 172.29212 
L 134.098593 171.857447 
L 134.867774 171.684422 
L 135.252365 170.652398 
L 135.636956 170.824687 
L 136.021547 169.783941 
L 136.406138 170.017871 
L 136.790728 170.761654 
L 137.175319 170.362449 
L 137.55991 170.665004 
L 137.944501 169.662594 
L 138.713682 169.733728 
L 139.098273 168.637426 
L 139.482864 168.821538 
L 139.867454 169.883402 
L 140.252045 168.905225 
L 140.636636 169.118627 
L 141.021227 168.532817 
L 141.405818 169.624935 
L 141.790408 169.700253 
L 142.174999 169.445007 
L 142.55959 168.930331 
L 142.944181 169.491035 
L 143.328771 169.260896 
L 143.713362 169.36132 
L 144.097953 170.975965 
L 144.482544 169.912817 
L 144.867134 170.791069 
L 145.251725 170.774261 
L 145.636316 171.524058 
L 146.020907 170.59777 
L 146.790088 171.739284 
L 147.174679 171.713963 
L 147.55927 172.102215 
L 147.943861 172.224598 
L 148.328451 172.551538 
L 148.713042 173.962447 
L 149.097633 173.331373 
L 149.482224 173.403423 
L 149.866814 174.332763 
L 150.251405 173.72834 
L 150.635996 174.872581 
L 151.020587 174.711592 
L 151.405178 175.753216 
L 151.789768 176.344492 
L 152.174359 176.318731 
L 152.55895 176.408895 
L 153.328131 177.837883 
L 153.712722 177.169482 
L 154.481904 179.56341 
L 154.866494 178.335209 
L 155.635676 179.706968 
L 156.020267 180.426702 
L 156.404858 180.256291 
L 156.789448 180.601482 
L 157.174039 181.152833 
L 157.55863 180.645177 
L 157.943221 181.385446 
L 158.327811 181.2055 
L 159.096993 182.520274 
L 159.481584 182.251354 
L 159.866174 182.952325 
L 160.250765 182.779622 
L 160.635356 183.1206 
L 161.019947 183.244592 
L 161.404538 182.96561 
L 161.789128 182.987751 
L 162.173719 183.819747 
L 162.55831 183.664059 
L 162.942901 184.104434 
L 163.712082 183.797506 
L 164.096673 184.413513 
L 164.481264 183.014321 
L 164.865854 183.78861 
L 165.250445 184.068848 
L 165.635036 183.650715 
L 166.019627 183.579543 
L 166.404218 184.980995 
L 166.788808 182.987751 
L 167.173399 184.426918 
L 167.55799 183.514717 
L 167.942581 184.471602 
L 168.327171 184.228985 
L 168.711762 183.76192 
L 169.096353 182.242537 
L 170.250125 183.492576 
L 170.634716 182.673343 
L 171.019307 181.45128 
L 171.788488 181.766417 
L 172.173079 180.452919 
L 172.55767 180.785001 
L 172.942261 181.69267 
L 173.326851 180.570895 
L 173.711442 179.872278 
L 174.096033 180.35679 
L 174.480624 179.802674 
L 175.249805 179.489455 
L 175.634396 178.261579 
L 176.018987 178.919572 
L 176.403578 177.738701 
L 176.788168 177.911191 
L 177.172759 178.313553 
L 177.55735 177.885318 
L 177.941941 176.966806 
L 178.326531 176.962493 
L 178.711122 176.494765 
L 179.095713 175.646343 
L 179.480304 175.770316 
L 179.864894 175.146176 
L 180.249485 174.774258 
L 180.634076 175.432597 
L 181.018667 174.473228 
L 181.403258 174.647744 
L 181.787848 173.272038 
L 182.172439 173.428852 
L 182.55703 173.318658 
L 182.941621 173.877317 
L 183.710802 172.873644 
L 184.095393 173.204226 
L 184.479984 172.2879 
L 184.864574 172.6914 
L 185.249165 172.47525 
L 185.633756 172.097994 
L 186.018347 170.900326 
L 186.787528 171.739284 
L 187.55671 171.144051 
L 187.941301 171.726624 
L 188.325891 171.58736 
L 188.710482 171.26241 
L 189.095073 171.405894 
L 189.479664 171.756165 
L 189.864254 170.09351 
L 190.248845 171.329932 
L 190.633436 171.701303 
L 191.018027 171.58736 
L 191.402618 170.509524 
L 192.171799 171.58736 
L 192.55639 171.671762 
L 192.940981 172.207718 
L 193.325571 171.401674 
L 193.710162 172.2879 
L 194.094753 171.777265 
L 194.479344 172.428629 
L 194.863934 172.780402 
L 195.248525 172.445582 
L 195.633116 172.983838 
L 196.017707 172.543061 
L 196.402298 172.729544 
L 196.786888 172.47525 
L 197.171479 172.445582 
L 197.55607 173.660236 
L 197.940661 173.280514 
L 198.325251 174.030551 
L 198.709842 173.702801 
L 199.094433 174.460458 
L 199.479024 174.681796 
L 199.863614 174.605179 
L 200.248205 175.411222 
L 201.017387 175.723292 
L 201.401978 176.383134 
L 202.171159 175.154726 
L 202.55575 176.567755 
L 202.940341 176.709441 
L 203.324931 176.168458 
L 203.709522 176.675093 
L 204.094113 176.864007 
L 204.478704 176.374547 
L 204.863294 177.415281 
L 205.632476 178.19228 
L 206.017067 177.777511 
L 206.786248 178.231261 
L 207.170839 177.290225 
L 207.55543 178.74234 
L 207.940021 178.763995 
L 208.709202 179.06313 
L 209.093793 179.619963 
L 209.478384 178.872275 
L 209.862974 179.467704 
L 210.247565 178.660047 
L 210.632156 178.625398 
L 211.016747 179.411151 
L 211.401338 179.56341 
L 211.785928 179.893622 
L 212.170519 179.519907 
L 212.55511 179.876628 
L 212.939701 179.606912 
L 214.093473 180.072772 
L 214.478064 179.124034 
L 214.862654 179.785273 
L 215.247245 179.580811 
L 215.631836 180.649546 
L 216.401018 179.99849 
L 216.785608 178.74234 
L 217.170199 180.037816 
L 217.55479 179.706968 
L 217.939381 180.365529 
L 218.323971 179.306744 
L 218.708562 179.941687 
L 219.093153 178.421833 
L 219.477744 179.619963 
L 219.862334 179.841826 
L 220.631516 178.785651 
L 221.016107 180.417963 
L 221.400698 179.319795 
L 222.169879 178.131644 
L 222.55447 179.293694 
L 223.323651 179.097932 
L 223.708242 179.298044 
L 224.092833 177.816321 
L 224.477424 178.694697 
L 224.862014 178.543105 
L 225.246605 177.928078 
L 225.631196 178.1533 
L 226.015787 177.479965 
L 226.784968 178.612404 
L 227.169559 176.919823 
L 227.55415 177.152233 
L 227.938741 178.4868 
L 228.323331 178.213936 
L 228.707922 177.725764 
L 229.092513 179.254541 
L 229.477104 176.953869 
L 230.246285 177.596396 
L 230.630876 177.738701 
L 231.015467 177.087549 
L 231.400058 177.39372 
L 231.784648 176.971118 
L 232.169239 177.462716 
L 232.55383 176.314438 
L 232.938421 177.467028 
L 233.323011 176.301557 
L 233.707602 178.071007 
L 234.092193 177.160857 
L 234.476784 177.686954 
L 234.861374 176.417482 
L 235.245965 176.966806 
L 235.630556 176.692267 
L 236.015147 176.940932 
L 236.399738 177.376471 
L 236.784328 177.001304 
L 237.168919 176.357373 
L 237.938101 177.346285 
L 238.322691 177.104798 
L 238.707282 177.350597 
L 239.091873 177.924128 
L 239.476464 178.759664 
L 239.861054 177.044426 
L 240.630236 177.768887 
L 241.014827 176.902122 
L 241.399418 177.5274 
L 242.168599 177.730076 
L 242.55319 178.378521 
L 242.937781 178.11865 
L 243.706962 178.751002 
L 244.091553 178.876606 
L 244.476144 178.404508 
L 244.860734 178.205274 
L 245.245325 177.600708 
L 245.629916 180.120836 
L 246.014507 178.356865 
L 246.399098 179.258892 
L 246.783688 179.045729 
L 247.168279 178.980475 
L 247.55287 179.445953 
L 247.937461 179.276293 
L 248.322051 178.200943 
L 249.091233 178.958724 
L 249.475824 178.958724 
L 249.860414 179.789623 
L 250.245005 180.120836 
L 250.629596 179.57211 
L 251.014187 179.74612 
L 251.398778 179.624313 
L 251.783368 178.885268 
L 252.167959 180.155792 
L 252.937141 179.23714 
L 253.321731 179.324146 
L 253.706322 180.230074 
L 253.706322 180.230074 
" style="fill:none;stroke:#d62728;stroke-linecap:square;stroke-width:1.5;"/>
   </g>
   <g id="line2d_28">
    <path clip-path="url(#p304c686b55)" d="M 61.410938 23.543308 
L 418.530938 23.543308 
" style="fill:none;stroke:#99aaaa;stroke-dasharray:9.6,2.4,1.5,2.4;stroke-dashoffset:0;stroke-width:1.5;"/>
   </g>
   <g id="line2d_29">
    <defs>
     <path d="M -3 3 
L 3 3 
L 3 -3 
L -3 -3 
z
" id="m9e0ac68bfd" style="stroke:#1f77b4;stroke-linejoin:miter;"/>
    </defs>
    <g clip-path="url(#p304c686b55)">
     <use style="fill:#1f77b4;stroke:#1f77b4;stroke-linejoin:miter;" x="61.410938" xlink:href="#m9e0ac68bfd" y="278.419468"/>
     <use style="fill:#1f77b4;stroke:#1f77b4;stroke-linejoin:miter;" x="73.086014" xlink:href="#m9e0ac68bfd" y="222.165307"/>
     <use style="fill:#1f77b4;stroke:#1f77b4;stroke-linejoin:miter;" x="84.761091" xlink:href="#m9e0ac68bfd" y="139.53546"/>
     <use style="fill:#1f77b4;stroke:#1f77b4;stroke-linejoin:miter;" x="96.436168" xlink:href="#m9e0ac68bfd" y="64.916606"/>
     <use style="fill:#1f77b4;stroke:#1f77b4;stroke-linejoin:miter;" x="108.111245" xlink:href="#m9e0ac68bfd" y="77.720982"/>
     <use style="fill:#1f77b4;stroke:#1f77b4;stroke-linejoin:miter;" x="119.786322" xlink:href="#m9e0ac68bfd" y="120.146552"/>
     <use style="fill:#1f77b4;stroke:#1f77b4;stroke-linejoin:miter;" x="131.461399" xlink:href="#m9e0ac68bfd" y="220.873747"/>
     <use style="fill:#1f77b4;stroke:#1f77b4;stroke-linejoin:miter;" x="143.136476" xlink:href="#m9e0ac68bfd" y="242.776828"/>
     <use style="fill:#1f77b4;stroke:#1f77b4;stroke-linejoin:miter;" x="154.811553" xlink:href="#m9e0ac68bfd" y="191.639292"/>
     <use style="fill:#1f77b4;stroke:#1f77b4;stroke-linejoin:miter;" x="166.48663" xlink:href="#m9e0ac68bfd" y="130.696113"/>
     <use style="fill:#1f77b4;stroke:#1f77b4;stroke-linejoin:miter;" x="178.161707" xlink:href="#m9e0ac68bfd" y="58.053579"/>
     <use style="fill:#1f77b4;stroke:#1f77b4;stroke-linejoin:miter;" x="189.836784" xlink:href="#m9e0ac68bfd" y="62.794828"/>
     <use style="fill:#1f77b4;stroke:#1f77b4;stroke-linejoin:miter;" x="201.511861" xlink:href="#m9e0ac68bfd" y="144.750701"/>
     <use style="fill:#1f77b4;stroke:#1f77b4;stroke-linejoin:miter;" x="213.186938" xlink:href="#m9e0ac68bfd" y="222.06737"/>
     <use style="fill:#1f77b4;stroke:#1f77b4;stroke-linejoin:miter;" x="224.862014" xlink:href="#m9e0ac68bfd" y="230.050828"/>
     <use style="fill:#1f77b4;stroke:#1f77b4;stroke-linejoin:miter;" x="236.537091" xlink:href="#m9e0ac68bfd" y="176.708338"/>
     <use style="fill:#1f77b4;stroke:#1f77b4;stroke-linejoin:miter;" x="248.212168" xlink:href="#m9e0ac68bfd" y="100.978152"/>
     <use style="fill:#1f77b4;stroke:#1f77b4;stroke-linejoin:miter;" x="259.887245" xlink:href="#m9e0ac68bfd" y="64.026828"/>
     <use style="fill:#1f77b4;stroke:#1f77b4;stroke-linejoin:miter;" x="271.562322" xlink:href="#m9e0ac68bfd" y="77.935169"/>
     <use style="fill:#1f77b4;stroke:#1f77b4;stroke-linejoin:miter;" x="283.237399" xlink:href="#m9e0ac68bfd" y="147.137548"/>
     <use style="fill:#1f77b4;stroke:#1f77b4;stroke-linejoin:miter;" x="294.912476" xlink:href="#m9e0ac68bfd" y="212.786609"/>
     <use style="fill:#1f77b4;stroke:#1f77b4;stroke-linejoin:miter;" x="306.587553" xlink:href="#m9e0ac68bfd" y="218.581228"/>
     <use style="fill:#1f77b4;stroke:#1f77b4;stroke-linejoin:miter;" x="318.26263" xlink:href="#m9e0ac68bfd" y="177.394221"/>
     <use style="fill:#1f77b4;stroke:#1f77b4;stroke-linejoin:miter;" x="329.937707" xlink:href="#m9e0ac68bfd" y="118.469082"/>
     <use style="fill:#1f77b4;stroke:#1f77b4;stroke-linejoin:miter;" x="341.612784" xlink:href="#m9e0ac68bfd" y="80.031628"/>
     <use style="fill:#1f77b4;stroke:#1f77b4;stroke-linejoin:miter;" x="353.287861" xlink:href="#m9e0ac68bfd" y="101.807215"/>
     <use style="fill:#1f77b4;stroke:#1f77b4;stroke-linejoin:miter;" x="364.962938" xlink:href="#m9e0ac68bfd" y="149.063613"/>
     <use style="fill:#1f77b4;stroke:#1f77b4;stroke-linejoin:miter;" x="376.638014" xlink:href="#m9e0ac68bfd" y="215.432345"/>
     <use style="fill:#1f77b4;stroke:#1f77b4;stroke-linejoin:miter;" x="388.313091" xlink:href="#m9e0ac68bfd" y="208.536252"/>
     <use style="fill:#1f77b4;stroke:#1f77b4;stroke-linejoin:miter;" x="399.988168" xlink:href="#m9e0ac68bfd" y="185.813013"/>
     <use style="fill:#1f77b4;stroke:#1f77b4;stroke-linejoin:miter;" x="411.663245" xlink:href="#m9e0ac68bfd" y="116.523086"/>
    </g>
   </g>
   <g id="line2d_30">
    <defs>
     <path d="M 0 3 
C 0.795609 3 1.55874 2.683901 2.12132 2.12132 
C 2.683901 1.55874 3 0.795609 3 0 
C 3 -0.795609 2.683901 -1.55874 2.12132 -2.12132 
C 1.55874 -2.683901 0.795609 -3 0 -3 
C -0.795609 -3 -1.55874 -2.683901 -2.12132 -2.12132 
C -2.683901 -1.55874 -3 -0.795609 -3 0 
C -3 0.795609 -2.683901 1.55874 -2.12132 2.12132 
C -1.55874 2.683901 -0.795609 3 0 3 
z
" id="m4d17eb6f4c" style="stroke:#d62728;"/>
    </defs>
    <g clip-path="url(#p304c686b55)">
     <use style="fill:#d62728;stroke:#d62728;" x="61.410938" xlink:href="#m4d17eb6f4c" y="271.284996"/>
     <use style="fill:#d62728;stroke:#d62728;" x="73.086014" xlink:href="#m4d17eb6f4c" y="236.862654"/>
     <use style="fill:#d62728;stroke:#d62728;" x="84.761091" xlink:href="#m4d17eb6f4c" y="161.830828"/>
     <use style="fill:#d62728;stroke:#d62728;" x="96.436168" xlink:href="#m4d17eb6f4c" y="183.541269"/>
     <use style="fill:#d62728;stroke:#d62728;" x="108.111245" xlink:href="#m4d17eb6f4c" y="199.830264"/>
     <use style="fill:#d62728;stroke:#d62728;" x="119.786322" xlink:href="#m4d17eb6f4c" y="198.865986"/>
     <use style="fill:#d62728;stroke:#d62728;" x="131.461399" xlink:href="#m4d17eb6f4c" y="186.488444"/>
     <use style="fill:#d62728;stroke:#d62728;" x="143.136476" xlink:href="#m4d17eb6f4c" y="163.418428"/>
     <use style="fill:#d62728;stroke:#d62728;" x="154.811553" xlink:href="#m4d17eb6f4c" y="188.903284"/>
     <use style="fill:#d62728;stroke:#d62728;" x="166.48663" xlink:href="#m4d17eb6f4c" y="179.610169"/>
     <use style="fill:#d62728;stroke:#d62728;" x="178.161707" xlink:href="#m4d17eb6f4c" y="169.028123"/>
     <use style="fill:#d62728;stroke:#d62728;" x="189.836784" xlink:href="#m4d17eb6f4c" y="150.62346"/>
     <use style="fill:#d62728;stroke:#d62728;" x="201.511861" xlink:href="#m4d17eb6f4c" y="171.734428"/>
     <use style="fill:#d62728;stroke:#d62728;" x="213.186938" xlink:href="#m4d17eb6f4c" y="179.001416"/>
     <use style="fill:#d62728;stroke:#d62728;" x="224.862014" xlink:href="#m4d17eb6f4c" y="163.036342"/>
     <use style="fill:#d62728;stroke:#d62728;" x="236.537091" xlink:href="#m4d17eb6f4c" y="161.955233"/>
    </g>
   </g>
   <g id="patch_3">
    <path d="M 61.410938 279.010828 
L 61.410938 12.898828 
" style="fill:none;stroke:#000000;stroke-linecap:square;stroke-linejoin:miter;stroke-width:0.8;"/>
   </g>
   <g id="patch_4">
    <path d="M 418.530938 279.010828 
L 418.530938 12.898828 
" style="fill:none;stroke:#000000;stroke-linecap:square;stroke-linejoin:miter;stroke-width:0.8;"/>
   </g>
   <g id="patch_5">
    <path d="M 61.410938 279.010828 
L 418.530938 279.010828 
" style="fill:none;stroke:#000000;stroke-linecap:square;stroke-linejoin:miter;stroke-width:0.8;"/>
   </g>
   <g id="patch_6">
    <path d="M 61.410938 12.898828 
L 418.530938 12.898828 
" style="fill:none;stroke:#000000;stroke-linecap:square;stroke-linejoin:miter;stroke-width:0.8;"/>
   </g>
  </g>
 </g>
 <defs>
  <clipPath id="p304c686b55">
   <rect height="266.112" width="357.12" x="61.410938" y="12.898828"/>
  </clipPath>
 </defs>
</svg>
