<?xml version="1.0" encoding="utf-8" standalone="no"?>
<!DOCTYPE svg PUBLIC "-//W3C//DTD SVG 1.1//EN"
  "http://www.w3.org/Graphics/SVG/1.1/DTD/svg11.dtd">
<!-- Created with matplotlib (https://matplotlib.org/) -->
<svg height="331.128016pt" version="1.1" viewBox="0 0 425.730937 331.128016" width="425.730937pt" xmlns="http://www.w3.org/2000/svg" xmlns:xlink="http://www.w3.org/1999/xlink">
 <defs>
  <style type="text/css">*{stroke-linecap:butt;stroke-linejoin:round;}</style>
 </defs>
 <g id="figure_1">
  <g id="patch_1">
   <path d="M 0 331.128016 
L 425.730937 331.128016 
L 425.730937 0 
L 0 0 
z
" style="fill:none;"/>
  </g>
  <g id="axes_1">
   <g id="patch_2">
    <path d="M 61.410938 279.010828 
L 418.530938 279.010828 
L 418.530938 12.898828 
L 61.410938 12.898828 
z
" style="fill:none;"/>
   </g>
   <g id="matplotlib.axis_1">
    <g id="xtick_1">
     <g id="line2d_1">
      <path clip-path="url(#p304c686b55)" d="M 61.410938 279.010828 
L 61.410938 12.898828 
" style="fill:none;stroke:#b0b0b0;stroke-linecap:square;stroke-width:0.8;"/>
     </g>
     <g id="line2d_2">
      <defs>
       <path d="M 0 0 
L 0 3.5 
" id="m005f0a59be" style="stroke:#000000;stroke-width:0.8;"/>
      </defs>
      <g>
       <use style="stroke:#000000;stroke-width:0.8;" x="61.410938" xlink:href="#m005f0a59be" y="279.010828"/>
      </g>
     </g>
     <g id="text_1">
      <!-- 0 -->
      <g transform="translate(56.639063 297.408484)scale(0.15 -0.15)">
       <defs>
        <path d="M 31.78125 66.40625 
Q 24.171875 66.40625 20.328125 58.90625 
Q 16.5 51.421875 16.5 36.375 
Q 16.5 21.390625 20.328125 13.890625 
Q 24.171875 6.390625 31.78125 6.390625 
Q 39.453125 6.390625 43.28125 13.890625 
Q 47.125 21.390625 47.125 36.375 
Q 47.125 51.421875 43.28125 58.90625 
Q 39.453125 66.40625 31.78125 66.40625 
z
M 31.78125 74.21875 
Q 44.046875 74.21875 50.515625 64.515625 
Q 56.984375 54.828125 56.984375 36.375 
Q 56.984375 17.96875 50.515625 8.265625 
Q 44.046875 -1.421875 31.78125 -1.421875 
Q 19.53125 -1.421875 13.0625 8.265625 
Q 6.59375 17.96875 6.59375 36.375 
Q 6.59375 54.828125 13.0625 64.515625 
Q 19.53125 74.21875 31.78125 74.21875 
z
" id="DejaVuSans-48"/>
       </defs>
       <use xlink:href="#DejaVuSans-48"/>
      </g>
     </g>
    </g>
    <g id="xtick_2">
     <g id="line2d_3">
      <path clip-path="url(#p304c686b55)" d="M 155.389885 279.010828 
L 155.389885 12.898828 
" style="fill:none;stroke:#b0b0b0;stroke-linecap:square;stroke-width:0.8;"/>
     </g>
     <g id="line2d_4">
      <g>
       <use style="stroke:#000000;stroke-width:0.8;" x="155.389885" xlink:href="#m005f0a59be" y="279.010828"/>
      </g>
     </g>
     <g id="text_2">
      <!-- 50 -->
      <g transform="translate(145.846135 297.408484)scale(0.15 -0.15)">
       <defs>
        <path d="M 10.796875 72.90625 
L 49.515625 72.90625 
L 49.515625 64.59375 
L 19.828125 64.59375 
L 19.828125 46.734375 
Q 21.96875 47.46875 24.109375 47.828125 
Q 26.265625 48.1875 28.421875 48.1875 
Q 40.625 48.1875 47.75 41.5 
Q 54.890625 34.8125 54.890625 23.390625 
Q 54.890625 11.625 47.5625 5.09375 
Q 40.234375 -1.421875 26.90625 -1.421875 
Q 22.3125 -1.421875 17.546875 -0.640625 
Q 12.796875 0.140625 7.71875 1.703125 
L 7.71875 11.625 
Q 12.109375 9.234375 16.796875 8.0625 
Q 21.484375 6.890625 26.703125 6.890625 
Q 35.15625 6.890625 40.078125 11.328125 
Q 45.015625 15.765625 45.015625 23.390625 
Q 45.015625 31 40.078125 35.4375 
Q 35.15625 39.890625 26.703125 39.890625 
Q 22.75 39.890625 18.8125 39.015625 
Q 14.890625 38.140625 10.796875 36.28125 
z
" id="DejaVuSans-53"/>
       </defs>
       <use xlink:href="#DejaVuSans-53"/>
       <use x="63.623047" xlink:href="#DejaVuSans-48"/>
      </g>
     </g>
    </g>
    <g id="xtick_3">
     <g id="line2d_5">
      <path clip-path="url(#p304c686b55)" d="M 249.368832 279.010828 
L 249.368832 12.898828 
" style="fill:none;stroke:#b0b0b0;stroke-linecap:square;stroke-width:0.8;"/>
     </g>
     <g id="line2d_6">
      <g>
       <use style="stroke:#000000;stroke-width:0.8;" x="249.368832" xlink:href="#m005f0a59be" y="279.010828"/>
      </g>
     </g>
     <g id="text_3">
      <!-- 100 -->
      <g transform="translate(235.053207 297.408484)scale(0.15 -0.15)">
       <defs>
        <path d="M 12.40625 8.296875 
L 28.515625 8.296875 
L 28.515625 63.921875 
L 10.984375 60.40625 
L 10.984375 69.390625 
L 28.421875 72.90625 
L 38.28125 72.90625 
L 38.28125 8.296875 
L 54.390625 8.296875 
L 54.390625 0 
L 12.40625 0 
z
" id="DejaVuSans-49"/>
       </defs>
       <use xlink:href="#DejaVuSans-49"/>
       <use x="63.623047" xlink:href="#DejaVuSans-48"/>
       <use x="127.246094" xlink:href="#DejaVuSans-48"/>
      </g>
     </g>
    </g>
    <g id="xtick_4">
     <g id="line2d_7">
      <path clip-path="url(#p304c686b55)" d="M 343.34778 279.010828 
L 343.34778 12.898828 
" style="fill:none;stroke:#b0b0b0;stroke-linecap:square;stroke-width:0.8;"/>
     </g>
     <g id="line2d_8">
      <g>
       <use style="stroke:#000000;stroke-width:0.8;" x="343.34778" xlink:href="#m005f0a59be" y="279.010828"/>
      </g>
     </g>
     <g id="text_4">
      <!-- 150 -->
      <g transform="translate(329.032155 297.408484)scale(0.15 -0.15)">
       <use xlink:href="#DejaVuSans-49"/>
       <use x="63.623047" xlink:href="#DejaVuSans-53"/>
       <use x="127.246094" xlink:href="#DejaVuSans-48"/>
      </g>
     </g>
    </g>
    <g id="text_5">
     <!-- Time ($\mathrm{\mu s}$) -->
     <g transform="translate(192.570938 319.728016)scale(0.2 -0.2)">
      <defs>
       <path d="M -0.296875 72.90625 
L 61.375 72.90625 
L 61.375 64.59375 
L 35.5 64.59375 
L 35.5 0 
L 25.59375 0 
L 25.59375 64.59375 
L -0.296875 64.59375 
z
" id="DejaVuSans-84"/>
       <path d="M 9.421875 54.6875 
L 18.40625 54.6875 
L 18.40625 0 
L 9.421875 0 
z
M 9.421875 75.984375 
L 18.40625 75.984375 
L 18.40625 64.59375 
L 9.421875 64.59375 
z
" id="DejaVuSans-105"/>
       <path d="M 52 44.1875 
Q 55.375 50.25 60.0625 53.125 
Q 64.75 56 71.09375 56 
Q 79.640625 56 84.28125 50.015625 
Q 88.921875 44.046875 88.921875 33.015625 
L 88.921875 0 
L 79.890625 0 
L 79.890625 32.71875 
Q 79.890625 40.578125 77.09375 44.375 
Q 74.3125 48.1875 68.609375 48.1875 
Q 61.625 48.1875 57.5625 43.546875 
Q 53.515625 38.921875 53.515625 30.90625 
L 53.515625 0 
L 44.484375 0 
L 44.484375 32.71875 
Q 44.484375 40.625 41.703125 44.40625 
Q 38.921875 48.1875 33.109375 48.1875 
Q 26.21875 48.1875 22.15625 43.53125 
Q 18.109375 38.875 18.109375 30.90625 
L 18.109375 0 
L 9.078125 0 
L 9.078125 54.6875 
L 18.109375 54.6875 
L 18.109375 46.1875 
Q 21.1875 51.21875 25.484375 53.609375 
Q 29.78125 56 35.6875 56 
Q 41.65625 56 45.828125 52.96875 
Q 50 49.953125 52 44.1875 
z
" id="DejaVuSans-109"/>
       <path d="M 56.203125 29.59375 
L 56.203125 25.203125 
L 14.890625 25.203125 
Q 15.484375 15.921875 20.484375 11.0625 
Q 25.484375 6.203125 34.421875 6.203125 
Q 39.59375 6.203125 44.453125 7.46875 
Q 49.3125 8.734375 54.109375 11.28125 
L 54.109375 2.78125 
Q 49.265625 0.734375 44.1875 -0.34375 
Q 39.109375 -1.421875 33.890625 -1.421875 
Q 20.796875 -1.421875 13.15625 6.1875 
Q 5.515625 13.8125 5.515625 26.8125 
Q 5.515625 40.234375 12.765625 48.109375 
Q 20.015625 56 32.328125 56 
Q 43.359375 56 49.78125 48.890625 
Q 56.203125 41.796875 56.203125 29.59375 
z
M 47.21875 32.234375 
Q 47.125 39.59375 43.09375 43.984375 
Q 39.0625 48.390625 32.421875 48.390625 
Q 24.90625 48.390625 20.390625 44.140625 
Q 15.875 39.890625 15.1875 32.171875 
z
" id="DejaVuSans-101"/>
       <path id="DejaVuSans-32"/>
       <path d="M 31 75.875 
Q 24.46875 64.65625 21.28125 53.65625 
Q 18.109375 42.671875 18.109375 31.390625 
Q 18.109375 20.125 21.3125 9.0625 
Q 24.515625 -2 31 -13.1875 
L 23.1875 -13.1875 
Q 15.875 -1.703125 12.234375 9.375 
Q 8.59375 20.453125 8.59375 31.390625 
Q 8.59375 42.28125 12.203125 53.3125 
Q 15.828125 64.359375 23.1875 75.875 
z
" id="DejaVuSans-40"/>
       <path d="M 8.5 -20.796875 
L 8.5 54.6875 
L 17.484375 54.6875 
L 17.484375 20.703125 
Q 17.484375 13.625 20.84375 10 
Q 24.21875 6.390625 30.8125 6.390625 
Q 38.03125 6.390625 41.671875 10.484375 
Q 45.3125 14.59375 45.3125 22.796875 
L 45.3125 54.6875 
L 54.296875 54.6875 
L 54.296875 12.59375 
Q 54.296875 9.671875 55.140625 8.28125 
Q 56 6.890625 57.8125 6.890625 
Q 58.25 6.890625 59.03125 7.15625 
Q 59.8125 7.421875 61.1875 8.015625 
L 61.1875 0.78125 
Q 59.1875 -0.34375 57.390625 -0.875 
Q 55.609375 -1.421875 53.90625 -1.421875 
Q 50.53125 -1.421875 48.53125 0.484375 
Q 46.53125 2.390625 45.796875 6.296875 
Q 43.359375 2.4375 39.8125 0.5 
Q 36.28125 -1.421875 31.5 -1.421875 
Q 26.515625 -1.421875 23.015625 0.484375 
Q 19.53125 2.390625 17.484375 6.203125 
L 17.484375 -20.796875 
z
" id="DejaVuSans-956"/>
       <path d="M 44.28125 53.078125 
L 44.28125 44.578125 
Q 40.484375 46.53125 36.375 47.5 
Q 32.28125 48.484375 27.875 48.484375 
Q 21.1875 48.484375 17.84375 46.4375 
Q 14.5 44.390625 14.5 40.28125 
Q 14.5 37.15625 16.890625 35.375 
Q 19.28125 33.59375 26.515625 31.984375 
L 29.59375 31.296875 
Q 39.15625 29.25 43.1875 25.515625 
Q 47.21875 21.78125 47.21875 15.09375 
Q 47.21875 7.46875 41.1875 3.015625 
Q 35.15625 -1.421875 24.609375 -1.421875 
Q 20.21875 -1.421875 15.453125 -0.5625 
Q 10.6875 0.296875 5.421875 2 
L 5.421875 11.28125 
Q 10.40625 8.6875 15.234375 7.390625 
Q 20.0625 6.109375 24.8125 6.109375 
Q 31.15625 6.109375 34.5625 8.28125 
Q 37.984375 10.453125 37.984375 14.40625 
Q 37.984375 18.0625 35.515625 20.015625 
Q 33.0625 21.96875 24.703125 23.78125 
L 21.578125 24.515625 
Q 13.234375 26.265625 9.515625 29.90625 
Q 5.8125 33.546875 5.8125 39.890625 
Q 5.8125 47.609375 11.28125 51.796875 
Q 16.75 56 26.8125 56 
Q 31.78125 56 36.171875 55.265625 
Q 40.578125 54.546875 44.28125 53.078125 
z
" id="DejaVuSans-115"/>
       <path d="M 8.015625 75.875 
L 15.828125 75.875 
Q 23.140625 64.359375 26.78125 53.3125 
Q 30.421875 42.28125 30.421875 31.390625 
Q 30.421875 20.453125 26.78125 9.375 
Q 23.140625 -1.703125 15.828125 -13.1875 
L 8.015625 -13.1875 
Q 14.5 -2 17.703125 9.0625 
Q 20.90625 20.125 20.90625 31.390625 
Q 20.90625 42.671875 17.703125 53.65625 
Q 14.5 64.65625 8.015625 75.875 
z
" id="DejaVuSans-41"/>
      </defs>
      <use transform="translate(0 0.015625)" xlink:href="#DejaVuSans-84"/>
      <use transform="translate(61.083984 0.015625)" xlink:href="#DejaVuSans-105"/>
      <use transform="translate(88.867188 0.015625)" xlink:href="#DejaVuSans-109"/>
      <use transform="translate(186.279297 0.015625)" xlink:href="#DejaVuSans-101"/>
      <use transform="translate(247.802734 0.015625)" xlink:href="#DejaVuSans-32"/>
      <use transform="translate(279.589844 0.015625)" xlink:href="#DejaVuSans-40"/>
      <use transform="translate(318.603516 0.015625)" xlink:href="#DejaVuSans-956"/>
      <use transform="translate(382.226562 0.015625)" xlink:href="#DejaVuSans-115"/>
      <use transform="translate(434.326172 0.015625)" xlink:href="#DejaVuSans-41"/>
     </g>
    </g>
   </g>
   <g id="matplotlib.axis_2">
    <g id="ytick_1">
     <g id="line2d_9">
      <path clip-path="url(#p304c686b55)" d="M 61.410938 279.010828 
L 418.530938 279.010828 
" style="fill:none;stroke:#b0b0b0;stroke-linecap:square;stroke-width:0.8;"/>
     </g>
     <g id="line2d_10">
      <defs>
       <path d="M 0 0 
L -3.5 0 
" id="mc3ce260a5b" style="stroke:#000000;stroke-width:0.8;"/>
      </defs>
      <g>
       <use style="stroke:#000000;stroke-width:0.8;" x="61.410938" xlink:href="#mc3ce260a5b" y="279.010828"/>
      </g>
     </g>
     <g id="text_6">
      <!-- 0.0 -->
      <g transform="translate(30.55625 284.709656)scale(0.15 -0.15)">
       <defs>
        <path d="M 10.6875 12.40625 
L 21 12.40625 
L 21 0 
L 10.6875 0 
z
" id="DejaVuSans-46"/>
       </defs>
       <use xlink:href="#DejaVuSans-48"/>
       <use x="63.623047" xlink:href="#DejaVuSans-46"/>
       <use x="95.410156" xlink:href="#DejaVuSans-48"/>
      </g>
     </g>
    </g>
    <g id="ytick_2">
     <g id="line2d_11">
      <path clip-path="url(#p304c686b55)" d="M 61.410938 225.788428 
L 418.530938 225.788428 
" style="fill:none;stroke:#b0b0b0;stroke-linecap:square;stroke-width:0.8;"/>
     </g>
     <g id="line2d_12">
      <g>
       <use style="stroke:#000000;stroke-width:0.8;" x="61.410938" xlink:href="#mc3ce260a5b" y="225.788428"/>
      </g>
     </g>
     <g id="text_7">
      <!-- 0.2 -->
      <g transform="translate(30.55625 231.487256)scale(0.15 -0.15)">
       <defs>
        <path d="M 19.1875 8.296875 
L 53.609375 8.296875 
L 53.609375 0 
L 7.328125 0 
L 7.328125 8.296875 
Q 12.9375 14.109375 22.625 23.890625 
Q 32.328125 33.6875 34.8125 36.53125 
Q 39.546875 41.84375 41.421875 45.53125 
Q 43.3125 49.21875 43.3125 52.78125 
Q 43.3125 58.59375 39.234375 62.25 
Q 35.15625 65.921875 28.609375 65.921875 
Q 23.96875 65.921875 18.8125 64.3125 
Q 13.671875 62.703125 7.8125 59.421875 
L 7.8125 69.390625 
Q 13.765625 71.78125 18.9375 73 
Q 24.125 74.21875 28.421875 74.21875 
Q 39.75 74.21875 46.484375 68.546875 
Q 53.21875 62.890625 53.21875 53.421875 
Q 53.21875 48.921875 51.53125 44.890625 
Q 49.859375 40.875 45.40625 35.40625 
Q 44.1875 33.984375 37.640625 27.21875 
Q 31.109375 20.453125 19.1875 8.296875 
z
" id="DejaVuSans-50"/>
       </defs>
       <use xlink:href="#DejaVuSans-48"/>
       <use x="63.623047" xlink:href="#DejaVuSans-46"/>
       <use x="95.410156" xlink:href="#DejaVuSans-50"/>
      </g>
     </g>
    </g>
    <g id="ytick_3">
     <g id="line2d_13">
      <path clip-path="url(#p304c686b55)" d="M 61.410938 172.566028 
L 418.530938 172.566028 
" style="fill:none;stroke:#b0b0b0;stroke-linecap:square;stroke-width:0.8;"/>
     </g>
     <g id="line2d_14">
      <g>
       <use style="stroke:#000000;stroke-width:0.8;" x="61.410938" xlink:href="#mc3ce260a5b" y="172.566028"/>
      </g>
     </g>
     <g id="text_8">
      <!-- 0.4 -->
      <g transform="translate(30.55625 178.264856)scale(0.15 -0.15)">
       <defs>
        <path d="M 37.796875 64.3125 
L 12.890625 25.390625 
L 37.796875 25.390625 
z
M 35.203125 72.90625 
L 47.609375 72.90625 
L 47.609375 25.390625 
L 58.015625 25.390625 
L 58.015625 17.1875 
L 47.609375 17.1875 
L 47.609375 0 
L 37.796875 0 
L 37.796875 17.1875 
L 4.890625 17.1875 
L 4.890625 26.703125 
z
" id="DejaVuSans-52"/>
       </defs>
       <use xlink:href="#DejaVuSans-48"/>
       <use x="63.623047" xlink:href="#DejaVuSans-46"/>
       <use x="95.410156" xlink:href="#DejaVuSans-52"/>
      </g>
     </g>
    </g>
    <g id="ytick_4">
     <g id="line2d_15">
      <path clip-path="url(#p304c686b55)" d="M 61.410938 119.343628 
L 418.530938 119.343628 
" style="fill:none;stroke:#b0b0b0;stroke-linecap:square;stroke-width:0.8;"/>
     </g>
     <g id="line2d_16">
      <g>
       <use style="stroke:#000000;stroke-width:0.8;" x="61.410938" xlink:href="#mc3ce260a5b" y="119.343628"/>
      </g>
     </g>
     <g id="text_9">
      <!-- 0.6 -->
      <g transform="translate(30.55625 125.042456)scale(0.15 -0.15)">
       <defs>
        <path d="M 33.015625 40.375 
Q 26.375 40.375 22.484375 35.828125 
Q 18.609375 31.296875 18.609375 23.390625 
Q 18.609375 15.53125 22.484375 10.953125 
Q 26.375 6.390625 33.015625 6.390625 
Q 39.65625 6.390625 43.53125 10.953125 
Q 47.40625 15.53125 47.40625 23.390625 
Q 47.40625 31.296875 43.53125 35.828125 
Q 39.65625 40.375 33.015625 40.375 
z
M 52.59375 71.296875 
L 52.59375 62.3125 
Q 48.875 64.0625 45.09375 64.984375 
Q 41.3125 65.921875 37.59375 65.921875 
Q 27.828125 65.921875 22.671875 59.328125 
Q 17.53125 52.734375 16.796875 39.40625 
Q 19.671875 43.65625 24.015625 45.921875 
Q 28.375 48.1875 33.59375 48.1875 
Q 44.578125 48.1875 50.953125 41.515625 
Q 57.328125 34.859375 57.328125 23.390625 
Q 57.328125 12.15625 50.6875 5.359375 
Q 44.046875 -1.421875 33.015625 -1.421875 
Q 20.359375 -1.421875 13.671875 8.265625 
Q 6.984375 17.96875 6.984375 36.375 
Q 6.984375 53.65625 15.1875 63.9375 
Q 23.390625 74.21875 37.203125 74.21875 
Q 40.921875 74.21875 44.703125 73.484375 
Q 48.484375 72.75 52.59375 71.296875 
z
" id="DejaVuSans-54"/>
       </defs>
       <use xlink:href="#DejaVuSans-48"/>
       <use x="63.623047" xlink:href="#DejaVuSans-46"/>
       <use x="95.410156" xlink:href="#DejaVuSans-54"/>
      </g>
     </g>
    </g>
    <g id="ytick_5">
     <g id="line2d_17">
      <path clip-path="url(#p304c686b55)" d="M 61.410938 66.121228 
L 418.530938 66.121228 
" style="fill:none;stroke:#b0b0b0;stroke-linecap:square;stroke-width:0.8;"/>
     </g>
     <g id="line2d_18">
      <g>
       <use style="stroke:#000000;stroke-width:0.8;" x="61.410938" xlink:href="#mc3ce260a5b" y="66.121228"/>
      </g>
     </g>
     <g id="text_10">
      <!-- 0.8 -->
      <g transform="translate(30.55625 71.820056)scale(0.15 -0.15)">
       <defs>
        <path d="M 31.78125 34.625 
Q 24.75 34.625 20.71875 30.859375 
Q 16.703125 27.09375 16.703125 20.515625 
Q 16.703125 13.921875 20.71875 10.15625 
Q 24.75 6.390625 31.78125 6.390625 
Q 38.8125 6.390625 42.859375 10.171875 
Q 46.921875 13.96875 46.921875 20.515625 
Q 46.921875 27.09375 42.890625 30.859375 
Q 38.875 34.625 31.78125 34.625 
z
M 21.921875 38.8125 
Q 15.578125 40.375 12.03125 44.71875 
Q 8.5 49.078125 8.5 55.328125 
Q 8.5 64.0625 14.71875 69.140625 
Q 20.953125 74.21875 31.78125 74.21875 
Q 42.671875 74.21875 48.875 69.140625 
Q 55.078125 64.0625 55.078125 55.328125 
Q 55.078125 49.078125 51.53125 44.71875 
Q 48 40.375 41.703125 38.8125 
Q 48.828125 37.15625 52.796875 32.3125 
Q 56.78125 27.484375 56.78125 20.515625 
Q 56.78125 9.90625 50.3125 4.234375 
Q 43.84375 -1.421875 31.78125 -1.421875 
Q 19.734375 -1.421875 13.25 4.234375 
Q 6.78125 9.90625 6.78125 20.515625 
Q 6.78125 27.484375 10.78125 32.3125 
Q 14.796875 37.15625 21.921875 38.8125 
z
M 18.3125 54.390625 
Q 18.3125 48.734375 21.84375 45.5625 
Q 25.390625 42.390625 31.78125 42.390625 
Q 38.140625 42.390625 41.71875 45.5625 
Q 45.3125 48.734375 45.3125 54.390625 
Q 45.3125 60.0625 41.71875 63.234375 
Q 38.140625 66.40625 31.78125 66.40625 
Q 25.390625 66.40625 21.84375 63.234375 
Q 18.3125 60.0625 18.3125 54.390625 
z
" id="DejaVuSans-56"/>
       </defs>
       <use xlink:href="#DejaVuSans-48"/>
       <use x="63.623047" xlink:href="#DejaVuSans-46"/>
       <use x="95.410156" xlink:href="#DejaVuSans-56"/>
      </g>
     </g>
    </g>
    <g id="ytick_6">
     <g id="line2d_19">
      <path clip-path="url(#p304c686b55)" d="M 61.410938 12.898828 
L 418.530938 12.898828 
" style="fill:none;stroke:#b0b0b0;stroke-linecap:square;stroke-width:0.8;"/>
     </g>
     <g id="line2d_20">
      <g>
       <use style="stroke:#000000;stroke-width:0.8;" x="61.410938" xlink:href="#mc3ce260a5b" y="12.898828"/>
      </g>
     </g>
     <g id="text_11">
      <!-- 1.0 -->
      <g transform="translate(30.55625 18.597656)scale(0.15 -0.15)">
       <use xlink:href="#DejaVuSans-49"/>
       <use x="63.623047" xlink:href="#DejaVuSans-46"/>
       <use x="95.410156" xlink:href="#DejaVuSans-48"/>
      </g>
     </g>
    </g>
    <g id="text_12">
     <!-- F=1 Population -->
     <g transform="translate(22.396875 222.159516)rotate(-90)scale(0.2 -0.2)">
      <defs>
       <path d="M 9.8125 72.90625 
L 51.703125 72.90625 
L 51.703125 64.59375 
L 19.671875 64.59375 
L 19.671875 43.109375 
L 48.578125 43.109375 
L 48.578125 34.8125 
L 19.671875 34.8125 
L 19.671875 0 
L 9.8125 0 
z
" id="DejaVuSans-70"/>
       <path d="M 10.59375 45.40625 
L 73.1875 45.40625 
L 73.1875 37.203125 
L 10.59375 37.203125 
z
M 10.59375 25.484375 
L 73.1875 25.484375 
L 73.1875 17.1875 
L 10.59375 17.1875 
z
" id="DejaVuSans-61"/>
       <path d="M 19.671875 64.796875 
L 19.671875 37.40625 
L 32.078125 37.40625 
Q 38.96875 37.40625 42.71875 40.96875 
Q 46.484375 44.53125 46.484375 51.125 
Q 46.484375 57.671875 42.71875 61.234375 
Q 38.96875 64.796875 32.078125 64.796875 
z
M 9.8125 72.90625 
L 32.078125 72.90625 
Q 44.34375 72.90625 50.609375 67.359375 
Q 56.890625 61.8125 56.890625 51.125 
Q 56.890625 40.328125 50.609375 34.8125 
Q 44.34375 29.296875 32.078125 29.296875 
L 19.671875 29.296875 
L 19.671875 0 
L 9.8125 0 
z
" id="DejaVuSans-80"/>
       <path d="M 30.609375 48.390625 
Q 23.390625 48.390625 19.1875 42.75 
Q 14.984375 37.109375 14.984375 27.296875 
Q 14.984375 17.484375 19.15625 11.84375 
Q 23.34375 6.203125 30.609375 6.203125 
Q 37.796875 6.203125 41.984375 11.859375 
Q 46.1875 17.53125 46.1875 27.296875 
Q 46.1875 37.015625 41.984375 42.703125 
Q 37.796875 48.390625 30.609375 48.390625 
z
M 30.609375 56 
Q 42.328125 56 49.015625 48.375 
Q 55.71875 40.765625 55.71875 27.296875 
Q 55.71875 13.875 49.015625 6.21875 
Q 42.328125 -1.421875 30.609375 -1.421875 
Q 18.84375 -1.421875 12.171875 6.21875 
Q 5.515625 13.875 5.515625 27.296875 
Q 5.515625 40.765625 12.171875 48.375 
Q 18.84375 56 30.609375 56 
z
" id="DejaVuSans-111"/>
       <path d="M 18.109375 8.203125 
L 18.109375 -20.796875 
L 9.078125 -20.796875 
L 9.078125 54.6875 
L 18.109375 54.6875 
L 18.109375 46.390625 
Q 20.953125 51.265625 25.265625 53.625 
Q 29.59375 56 35.59375 56 
Q 45.5625 56 51.78125 48.09375 
Q 58.015625 40.1875 58.015625 27.296875 
Q 58.015625 14.40625 51.78125 6.484375 
Q 45.5625 -1.421875 35.59375 -1.421875 
Q 29.59375 -1.421875 25.265625 0.953125 
Q 20.953125 3.328125 18.109375 8.203125 
z
M 48.6875 27.296875 
Q 48.6875 37.203125 44.609375 42.84375 
Q 40.53125 48.484375 33.40625 48.484375 
Q 26.265625 48.484375 22.1875 42.84375 
Q 18.109375 37.203125 18.109375 27.296875 
Q 18.109375 17.390625 22.1875 11.75 
Q 26.265625 6.109375 33.40625 6.109375 
Q 40.53125 6.109375 44.609375 11.75 
Q 48.6875 17.390625 48.6875 27.296875 
z
" id="DejaVuSans-112"/>
       <path d="M 8.5 21.578125 
L 8.5 54.6875 
L 17.484375 54.6875 
L 17.484375 21.921875 
Q 17.484375 14.15625 20.5 10.265625 
Q 23.53125 6.390625 29.59375 6.390625 
Q 36.859375 6.390625 41.078125 11.03125 
Q 45.3125 15.671875 45.3125 23.6875 
L 45.3125 54.6875 
L 54.296875 54.6875 
L 54.296875 0 
L 45.3125 0 
L 45.3125 8.40625 
Q 42.046875 3.421875 37.71875 1 
Q 33.40625 -1.421875 27.6875 -1.421875 
Q 18.265625 -1.421875 13.375 4.4375 
Q 8.5 10.296875 8.5 21.578125 
z
M 31.109375 56 
z
" id="DejaVuSans-117"/>
       <path d="M 9.421875 75.984375 
L 18.40625 75.984375 
L 18.40625 0 
L 9.421875 0 
z
" id="DejaVuSans-108"/>
       <path d="M 34.28125 27.484375 
Q 23.390625 27.484375 19.1875 25 
Q 14.984375 22.515625 14.984375 16.5 
Q 14.984375 11.71875 18.140625 8.90625 
Q 21.296875 6.109375 26.703125 6.109375 
Q 34.1875 6.109375 38.703125 11.40625 
Q 43.21875 16.703125 43.21875 25.484375 
L 43.21875 27.484375 
z
M 52.203125 31.203125 
L 52.203125 0 
L 43.21875 0 
L 43.21875 8.296875 
Q 40.140625 3.328125 35.546875 0.953125 
Q 30.953125 -1.421875 24.3125 -1.421875 
Q 15.921875 -1.421875 10.953125 3.296875 
Q 6 8.015625 6 15.921875 
Q 6 25.140625 12.171875 29.828125 
Q 18.359375 34.515625 30.609375 34.515625 
L 43.21875 34.515625 
L 43.21875 35.40625 
Q 43.21875 41.609375 39.140625 45 
Q 35.0625 48.390625 27.6875 48.390625 
Q 23 48.390625 18.546875 47.265625 
Q 14.109375 46.140625 10.015625 43.890625 
L 10.015625 52.203125 
Q 14.9375 54.109375 19.578125 55.046875 
Q 24.21875 56 28.609375 56 
Q 40.484375 56 46.34375 49.84375 
Q 52.203125 43.703125 52.203125 31.203125 
z
" id="DejaVuSans-97"/>
       <path d="M 18.3125 70.21875 
L 18.3125 54.6875 
L 36.8125 54.6875 
L 36.8125 47.703125 
L 18.3125 47.703125 
L 18.3125 18.015625 
Q 18.3125 11.328125 20.140625 9.421875 
Q 21.96875 7.515625 27.59375 7.515625 
L 36.8125 7.515625 
L 36.8125 0 
L 27.59375 0 
Q 17.1875 0 13.234375 3.875 
Q 9.28125 7.765625 9.28125 18.015625 
L 9.28125 47.703125 
L 2.6875 47.703125 
L 2.6875 54.6875 
L 9.28125 54.6875 
L 9.28125 70.21875 
z
" id="DejaVuSans-116"/>
       <path d="M 54.890625 33.015625 
L 54.890625 0 
L 45.90625 0 
L 45.90625 32.71875 
Q 45.90625 40.484375 42.875 44.328125 
Q 39.84375 48.1875 33.796875 48.1875 
Q 26.515625 48.1875 22.3125 43.546875 
Q 18.109375 38.921875 18.109375 30.90625 
L 18.109375 0 
L 9.078125 0 
L 9.078125 54.6875 
L 18.109375 54.6875 
L 18.109375 46.1875 
Q 21.34375 51.125 25.703125 53.5625 
Q 30.078125 56 35.796875 56 
Q 45.21875 56 50.046875 50.171875 
Q 54.890625 44.34375 54.890625 33.015625 
z
" id="DejaVuSans-110"/>
      </defs>
      <use xlink:href="#DejaVuSans-70"/>
      <use x="57.519531" xlink:href="#DejaVuSans-61"/>
      <use x="141.308594" xlink:href="#DejaVuSans-49"/>
      <use x="204.931641" xlink:href="#DejaVuSans-32"/>
      <use x="236.71875" xlink:href="#DejaVuSans-80"/>
      <use x="293.396484" xlink:href="#DejaVuSans-111"/>
      <use x="354.578125" xlink:href="#DejaVuSans-112"/>
      <use x="418.054688" xlink:href="#DejaVuSans-117"/>
      <use x="481.433594" xlink:href="#DejaVuSans-108"/>
      <use x="509.216797" xlink:href="#DejaVuSans-97"/>
      <use x="570.496094" xlink:href="#DejaVuSans-116"/>
      <use x="609.705078" xlink:href="#DejaVuSans-105"/>
      <use x="637.488281" xlink:href="#DejaVuSans-111"/>
      <use x="698.669922" xlink:href="#DejaVuSans-110"/>
     </g>
    </g>
   </g>
   <g id="LineCollection_1">
    <path clip-path="url(#p304c686b55)" d="M 61.410938 279.010828 
L 61.410938 277.828108 
" style="fill:none;stroke:#1f77b4;stroke-width:1.5;"/>
    <path clip-path="url(#p304c686b55)" d="M 72.688411 233.724327 
L 72.688411 219.11973 
" style="fill:none;stroke:#1f77b4;stroke-width:1.5;"/>
    <path clip-path="url(#p304c686b55)" d="M 83.965885 143.396797 
L 83.965885 126.244073 
" style="fill:none;stroke:#1f77b4;stroke-width:1.5;"/>
    <path clip-path="url(#p304c686b55)" d="M 95.243359 47.534715 
L 95.243359 36.474941 
" style="fill:none;stroke:#1f77b4;stroke-width:1.5;"/>
    <path clip-path="url(#p304c686b55)" d="M 106.520832 49.304225 
L 106.520832 37.504475 
" style="fill:none;stroke:#1f77b4;stroke-width:1.5;"/>
    <path clip-path="url(#p304c686b55)" d="M 117.798306 122.5775 
L 117.798306 104.970184 
" style="fill:none;stroke:#1f77b4;stroke-width:1.5;"/>
    <path clip-path="url(#p304c686b55)" d="M 129.07578 189.370912 
L 129.07578 171.851637 
" style="fill:none;stroke:#1f77b4;stroke-width:1.5;"/>
    <path clip-path="url(#p304c686b55)" d="M 140.353253 227.574564 
L 140.353253 212.835092 
" style="fill:none;stroke:#1f77b4;stroke-width:1.5;"/>
    <path clip-path="url(#p304c686b55)" d="M 151.630727 198.254093 
L 151.630727 181.986858 
" style="fill:none;stroke:#1f77b4;stroke-width:1.5;"/>
    <path clip-path="url(#p304c686b55)" d="M 162.908201 120.373779 
L 162.908201 103.592388 
" style="fill:none;stroke:#1f77b4;stroke-width:1.5;"/>
    <path clip-path="url(#p304c686b55)" d="M 174.185674 61.376425 
L 174.185674 48.127823 
" style="fill:none;stroke:#1f77b4;stroke-width:1.5;"/>
    <path clip-path="url(#p304c686b55)" d="M 185.463148 46.173713 
L 185.463148 35.705397 
" style="fill:none;stroke:#1f77b4;stroke-width:1.5;"/>
    <path clip-path="url(#p304c686b55)" d="M 196.740622 94.710697 
L 196.740622 78.21619 
" style="fill:none;stroke:#1f77b4;stroke-width:1.5;"/>
    <path clip-path="url(#p304c686b55)" d="M 208.018095 150.091357 
L 208.018095 132.439903 
" style="fill:none;stroke:#1f77b4;stroke-width:1.5;"/>
    <path clip-path="url(#p304c686b55)" d="M 219.295569 246.578381 
L 219.295569 233.827275 
" style="fill:none;stroke:#1f77b4;stroke-width:1.5;"/>
    <path clip-path="url(#p304c686b55)" d="M 230.573043 249.424998 
L 230.573043 237.230258 
" style="fill:none;stroke:#1f77b4;stroke-width:1.5;"/>
    <path clip-path="url(#p304c686b55)" d="M 241.850516 181.294811 
L 241.850516 164.069658 
" style="fill:none;stroke:#1f77b4;stroke-width:1.5;"/>
    <path clip-path="url(#p304c686b55)" d="M 253.12799 79.517377 
L 253.12799 64.414111 
" style="fill:none;stroke:#1f77b4;stroke-width:1.5;"/>
    <path clip-path="url(#p304c686b55)" d="M 264.405464 45.769903 
L 264.405464 35.422496 
" style="fill:none;stroke:#1f77b4;stroke-width:1.5;"/>
    <path clip-path="url(#p304c686b55)" d="M 275.682938 90.201979 
L 275.682938 74.591677 
" style="fill:none;stroke:#1f77b4;stroke-width:1.5;"/>
    <path clip-path="url(#p304c686b55)" d="M 286.960411 179.448594 
L 286.960411 162.212436 
" style="fill:none;stroke:#1f77b4;stroke-width:1.5;"/>
    <path clip-path="url(#p304c686b55)" d="M 298.237885 252.031273 
L 298.237885 240.08414 
" style="fill:none;stroke:#1f77b4;stroke-width:1.5;"/>
    <path clip-path="url(#p304c686b55)" d="M 309.515359 234.759467 
L 309.515359 220.820844 
" style="fill:none;stroke:#1f77b4;stroke-width:1.5;"/>
    <path clip-path="url(#p304c686b55)" d="M 320.792832 170.005568 
L 320.792832 151.888539 
" style="fill:none;stroke:#1f77b4;stroke-width:1.5;"/>
    <path clip-path="url(#p304c686b55)" d="M 332.070306 81.447616 
L 332.070306 66.108833 
" style="fill:none;stroke:#1f77b4;stroke-width:1.5;"/>
    <path clip-path="url(#p304c686b55)" d="M 343.34778 41.520484 
L 343.34778 31.163572 
" style="fill:none;stroke:#1f77b4;stroke-width:1.5;"/>
    <path clip-path="url(#p304c686b55)" d="M 354.625253 69.126463 
L 354.625253 55.61027 
" style="fill:none;stroke:#1f77b4;stroke-width:1.5;"/>
    <path clip-path="url(#p304c686b55)" d="M 365.902727 143.028574 
L 365.902727 125.435091 
" style="fill:none;stroke:#1f77b4;stroke-width:1.5;"/>
    <path clip-path="url(#p304c686b55)" d="M 377.180201 216.170886 
L 377.180201 200.32757 
" style="fill:none;stroke:#1f77b4;stroke-width:1.5;"/>
    <path clip-path="url(#p304c686b55)" d="M 388.457674 232.381492 
L 388.457674 217.985764 
" style="fill:none;stroke:#1f77b4;stroke-width:1.5;"/>
    <path clip-path="url(#p304c686b55)" d="M 399.735148 185.207707 
L 399.735148 168.537103 
" style="fill:none;stroke:#1f77b4;stroke-width:1.5;"/>
   </g>
   <g id="LineCollection_2">
    <path clip-path="url(#p304c686b55)" d="M 61.410938 274.780846 
L 61.410938 267.789145 
" style="fill:none;stroke:#d62728;stroke-width:1.5;"/>
    <path clip-path="url(#p304c686b55)" d="M 72.688411 205.362532 
L 72.688411 186.339125 
" style="fill:none;stroke:#d62728;stroke-width:1.5;"/>
    <path clip-path="url(#p304c686b55)" d="M 83.965885 83.68147 
L 83.965885 65.078282 
" style="fill:none;stroke:#d62728;stroke-width:1.5;"/>
    <path clip-path="url(#p304c686b55)" d="M 95.243359 116.112645 
L 95.243359 96.287938 
" style="fill:none;stroke:#d62728;stroke-width:1.5;"/>
    <path clip-path="url(#p304c686b55)" d="M 106.520832 196.713543 
L 106.520832 176.692913 
" style="fill:none;stroke:#d62728;stroke-width:1.5;"/>
    <path clip-path="url(#p304c686b55)" d="M 117.798306 159.743592 
L 117.798306 138.777543 
" style="fill:none;stroke:#d62728;stroke-width:1.5;"/>
    <path clip-path="url(#p304c686b55)" d="M 129.07578 139.971453 
L 129.07578 119.286424 
" style="fill:none;stroke:#d62728;stroke-width:1.5;"/>
    <path clip-path="url(#p304c686b55)" d="M 140.353253 186.753956 
L 140.353253 165.304303 
" style="fill:none;stroke:#d62728;stroke-width:1.5;"/>
    <path clip-path="url(#p304c686b55)" d="M 151.630727 157.155879 
L 151.630727 136.376412 
" style="fill:none;stroke:#d62728;stroke-width:1.5;"/>
    <path clip-path="url(#p304c686b55)" d="M 162.908201 153.229479 
L 162.908201 131.723001 
" style="fill:none;stroke:#d62728;stroke-width:1.5;"/>
    <path clip-path="url(#p304c686b55)" d="M 174.185674 126.605353 
L 174.185674 105.1557 
" style="fill:none;stroke:#d62728;stroke-width:1.5;"/>
    <path clip-path="url(#p304c686b55)" d="M 185.463148 141.224476 
L 185.463148 120.943251 
" style="fill:none;stroke:#d62728;stroke-width:1.5;"/>
    <path clip-path="url(#p304c686b55)" d="M 196.740622 137.351633 
L 196.740622 114.541182 
" style="fill:none;stroke:#d62728;stroke-width:1.5;"/>
    <path clip-path="url(#p304c686b55)" d="M 208.018095 152.33771 
L 208.018095 131.042715 
" style="fill:none;stroke:#d62728;stroke-width:1.5;"/>
    <path clip-path="url(#p304c686b55)" d="M 219.295569 182.191503 
L 219.295569 161.223702 
" style="fill:none;stroke:#d62728;stroke-width:1.5;"/>
    <path clip-path="url(#p304c686b55)" d="M 230.573043 215.607072 
L 230.573043 196.806131 
" style="fill:none;stroke:#d62728;stroke-width:1.5;"/>
   </g>
   <g id="line2d_21">
    <path clip-path="url(#p304c686b55)" d="M 61.410938 278.518987 
L 62.839418 278.518987 
L 63.196538 278.147587 
L 63.553658 278.518987 
L 63.910778 276.008084 
L 64.267898 275.935232 
L 64.625018 275.489573 
L 64.982138 274.1002 
L 65.339258 272.190577 
L 65.696378 271.82488 
L 66.053498 270.99646 
L 66.410618 268.941707 
L 66.767738 268.490942 
L 67.481978 264.968138 
L 67.839098 263.625909 
L 68.196218 259.969848 
L 68.553338 259.062534 
L 68.910458 256.195224 
L 69.267578 256.03674 
L 69.624698 253.790784 
L 69.981818 250.58031 
L 70.696058 246.223483 
L 71.053178 245.12862 
L 71.410298 240.706234 
L 71.767418 238.17824 
L 72.124538 236.907892 
L 72.481658 234.024423 
L 72.838778 230.026321 
L 73.195898 228.051423 
L 73.553018 224.611458 
L 73.910138 222.866363 
L 75.695738 207.773277 
L 76.409978 200.271282 
L 78.195578 184.108707 
L 79.624058 169.996014 
L 79.981178 167.117045 
L 81.052538 156.403872 
L 82.123898 145.998601 
L 82.838138 138.647841 
L 83.195258 136.684558 
L 83.552378 131.616842 
L 83.909498 128.940895 
L 84.623738 121.617044 
L 84.980858 119.032356 
L 86.052218 107.892943 
L 86.409338 106.180834 
L 87.123578 100.581142 
L 87.480698 95.777969 
L 87.837818 93.676215 
L 88.552058 86.677911 
L 89.266298 81.766113 
L 90.694778 72.160312 
L 91.409018 66.544752 
L 91.766138 65.023853 
L 92.480378 59.214181 
L 93.194618 56.466607 
L 93.551738 52.459529 
L 93.908858 51.651498 
L 94.265978 50.386061 
L 94.623098 47.832693 
L 94.980218 46.907998 
L 95.337338 45.159541 
L 95.694458 44.244666 
L 96.408698 40.95223 
L 96.765818 40.503854 
L 97.122938 38.841597 
L 98.551418 34.438075 
L 98.908538 34.956455 
L 99.265658 34.218796 
L 99.622778 32.793269 
L 99.979898 32.859307 
L 100.337018 33.207527 
L 100.694138 32.396025 
L 101.051258 32.272605 
L 101.408378 33.207527 
L 101.765498 32.819812 
L 102.122618 33.345354 
L 102.479738 32.869221 
L 102.836858 34.087143 
L 103.193978 34.310668 
L 103.551098 34.374372 
L 104.265338 35.878483 
L 104.622458 37.477623 
L 104.979578 37.198629 
L 105.336698 38.064897 
L 105.693818 41.240673 
L 106.050938 41.75255 
L 106.408058 43.893933 
L 106.765178 44.001937 
L 107.122298 46.016428 
L 107.479418 46.814588 
L 107.836538 48.535139 
L 108.193658 51.010623 
L 109.622138 57.651798 
L 110.693498 63.396008 
L 111.050618 66.845116 
L 111.407738 68.075012 
L 111.764858 70.14107 
L 112.121978 72.947156 
L 112.479098 76.658729 
L 113.550458 83.36696 
L 114.264698 89.88777 
L 116.407418 106.395105 
L 117.121658 113.859074 
L 117.478778 116.750121 
L 117.835898 118.432021 
L 118.193018 122.61046 
L 118.907258 128.631253 
L 121.049978 147.204658 
L 121.764218 154.78821 
L 122.121338 156.70741 
L 122.478458 160.52389 
L 123.192698 166.547012 
L 124.264058 175.881031 
L 124.978298 183.417885 
L 125.692538 187.83894 
L 126.049658 191.527043 
L 126.763898 197.280782 
L 127.478138 203.24369 
L 128.192378 208.915584 
L 128.549498 209.959278 
L 129.263738 216.948131 
L 129.620858 218.720421 
L 131.049338 227.657684 
L 131.406458 231.62744 
L 131.763578 232.628616 
L 132.120698 235.359914 
L 132.477818 236.922414 
L 133.192058 241.290951 
L 133.549178 242.113381 
L 134.263418 246.446103 
L 134.620538 247.946859 
L 134.977658 250.119381 
L 135.334778 250.867499 
L 135.691898 252.686891 
L 136.049018 253.813226 
L 136.406138 255.376779 
L 136.763258 256.25566 
L 137.120378 258.267226 
L 137.477498 259.131108 
L 137.834618 259.592938 
L 138.191738 260.720254 
L 138.548858 260.344746 
L 139.263098 263.289468 
L 139.620218 263.134879 
L 139.977338 262.296824 
L 140.334458 264.89218 
L 140.691578 264.10026 
L 141.405818 265.196218 
L 141.762938 263.938676 
L 142.120058 264.136167 
L 142.477178 265.157494 
L 142.834298 264.949149 
L 143.191418 264.537319 
L 143.905658 262.998678 
L 144.262778 262.901847 
L 144.619898 262.429717 
L 146.048378 258.414012 
L 146.405498 257.951308 
L 146.762618 256.887578 
L 147.119738 255.305452 
L 147.476858 255.082094 
L 147.833978 254.318136 
L 148.548218 249.625763 
L 149.619578 245.484202 
L 149.976698 243.070203 
L 150.333818 242.178134 
L 150.690938 240.729746 
L 151.762298 234.21778 
L 152.476538 230.373223 
L 152.833658 227.763923 
L 153.190778 226.596604 
L 153.905018 221.116342 
L 154.262138 220.056902 
L 154.619258 216.676007 
L 154.976378 214.703595 
L 156.404858 203.562947 
L 157.476218 196.301371 
L 158.190458 188.960258 
L 158.547578 187.908852 
L 158.904698 184.156142 
L 159.261818 182.249977 
L 160.333178 172.722933 
L 160.690298 170.465081 
L 161.404538 163.035399 
L 161.761658 161.442381 
L 162.475898 156.258174 
L 162.833018 153.893405 
L 163.190138 149.495355 
L 163.547258 147.111573 
L 163.904378 143.679408 
L 164.261498 141.5459 
L 164.975738 134.293452 
L 165.332858 132.849187 
L 166.047098 126.34581 
L 166.761338 120.533018 
L 167.475578 116.091883 
L 167.832698 112.451984 
L 168.904058 105.403871 
L 169.975418 98.051665 
L 170.332538 94.268083 
L 170.689658 93.460744 
L 171.046778 90.384191 
L 171.403898 89.142964 
L 171.761018 86.138062 
L 172.475258 81.537057 
L 172.832378 79.087555 
L 173.189498 78.199436 
L 173.546618 76.941194 
L 173.903738 73.322716 
L 174.260858 72.17384 
L 174.617978 70.414207 
L 175.332218 66.318608 
L 175.689338 65.023853 
L 176.046458 64.167653 
L 177.117818 59.395573 
L 177.474938 56.943527 
L 177.832058 56.418671 
L 178.189178 56.409084 
L 178.546298 54.286676 
L 179.260538 53.3865 
L 179.617658 52.188243 
L 179.974778 52.038058 
L 180.689018 49.992094 
L 181.046138 49.980338 
L 181.760378 48.099799 
L 182.117498 47.717274 
L 182.474618 47.558559 
L 182.831738 48.51014 
L 183.545978 47.636517 
L 183.903098 48.410142 
L 184.260218 48.638666 
L 184.617338 48.289699 
L 184.974457 48.535139 
L 185.331578 48.188419 
L 185.688698 48.885535 
L 186.045818 50.191941 
L 186.402938 50.770867 
L 186.760058 51.101426 
L 187.117178 52.264203 
L 187.474298 52.496165 
L 187.831418 53.838574 
L 188.188538 53.323469 
L 188.545658 55.448839 
L 188.902778 56.495369 
L 189.259898 57.19387 
L 191.402618 66.955344 
L 191.759738 67.565044 
L 192.473978 71.932414 
L 193.188218 75.811974 
L 193.902458 80.740105 
L 194.259578 81.695577 
L 194.616698 83.603015 
L 195.330938 88.696599 
L 195.688058 90.469188 
L 197.116538 100.894258 
L 197.473658 101.970238 
L 197.830778 106.264679 
L 198.187898 107.994463 
L 198.545018 110.982836 
L 198.902138 112.69886 
L 199.973498 121.316498 
L 200.330618 125.160827 
L 202.116218 137.663872 
L 202.830458 144.262366 
L 203.187578 146.318328 
L 203.901818 153.304931 
L 205.330298 164.295185 
L 205.687418 166.012452 
L 206.401658 172.872304 
L 207.115898 178.882107 
L 207.473018 182.33975 
L 207.830138 183.722724 
L 208.901498 192.50293 
L 211.401338 210.803908 
L 211.758458 212.4764 
L 212.115578 216.442696 
L 212.472698 217.832239 
L 213.186938 223.088405 
L 213.544058 225.549445 
L 213.901178 226.322763 
L 214.615418 231.442988 
L 214.972538 232.460674 
L 215.686778 238.185665 
L 216.043898 239.05145 
L 216.401018 240.753258 
L 216.758138 243.14991 
L 217.115258 243.971741 
L 217.472378 245.379336 
L 217.829498 247.581916 
L 218.186618 248.786998 
L 218.543738 250.786057 
L 218.900858 251.376683 
L 219.257978 253.768341 
L 219.615098 253.914219 
L 219.972218 255.305395 
L 220.329338 255.483855 
L 221.043578 258.781176 
L 221.400698 257.578739 
L 221.757818 258.632379 
L 222.114938 260.67537 
L 222.472058 260.615523 
L 222.829178 261.977095 
L 223.186298 261.620494 
L 223.543418 261.929315 
L 223.900538 262.462632 
L 224.257658 261.460185 
L 224.614778 262.024876 
L 224.971898 262.818164 
L 225.686138 261.228748 
L 226.043258 261.213319 
L 226.400378 260.720254 
L 226.757498 260.894631 
L 227.114618 260.285235 
L 227.471738 259.437764 
L 227.828858 259.171012 
L 228.185978 257.938142 
L 228.543098 258.700014 
L 229.257338 254.988048 
L 229.614458 254.85243 
L 229.971578 253.155254 
L 230.328698 252.332846 
L 230.685818 250.529929 
L 231.042938 250.189203 
L 231.400058 248.431936 
L 231.757178 247.369652 
L 232.114298 245.42303 
L 232.471418 242.773955 
L 232.828538 242.315736 
L 233.185658 239.302122 
L 233.542778 238.678042 
L 234.614138 232.561439 
L 234.971258 231.179654 
L 235.685498 225.500978 
L 236.042618 223.778723 
L 240.328058 191.911322 
L 240.685178 190.920255 
L 241.399418 183.426472 
L 241.756538 181.989206 
L 242.113658 177.980296 
L 242.470778 175.839188 
L 243.185018 169.22658 
L 243.542138 166.885703 
L 243.899258 162.446145 
L 244.256378 160.580551 
L 246.399098 140.667746 
L 246.756218 138.847791 
L 249.613178 115.082335 
L 250.327418 110.511732 
L 250.684538 106.246047 
L 251.398778 101.329922 
L 253.541498 85.333981 
L 253.898618 84.213077 
L 254.612858 77.861896 
L 255.327098 74.490536 
L 255.684218 72.112967 
L 256.041337 70.893893 
L 256.398458 68.292842 
L 257.112698 65.237477 
L 258.541178 56.962336 
L 258.898298 56.783321 
L 259.255418 54.378298 
L 259.612538 53.734454 
L 260.326777 51.729165 
L 260.683898 50.374444 
L 261.041018 49.596818 
L 261.398138 48.087139 
L 261.755258 47.395611 
L 262.112378 46.221297 
L 262.469498 46.303586 
L 262.826617 45.402831 
L 263.540858 44.590482 
L 263.897978 43.863075 
L 264.255098 44.168707 
L 264.612218 43.429283 
L 264.969337 43.720155 
L 265.326458 44.199091 
L 265.683578 43.453696 
L 266.040698 44.465079 
L 266.397818 44.554848 
L 266.754938 44.420194 
L 267.112057 44.495002 
L 267.469178 46.289871 
L 268.183418 47.081473 
L 268.540538 47.506586 
L 268.897658 49.068796 
L 269.254778 48.959077 
L 269.611897 51.267373 
L 269.969018 52.136806 
L 270.326138 52.492083 
L 270.683258 55.115825 
L 271.754617 59.360305 
L 272.468858 62.44953 
L 273.540218 68.140361 
L 274.254458 71.980087 
L 275.325818 78.990024 
L 275.682938 80.250691 
L 276.040058 82.074263 
L 276.754298 88.316228 
L 277.111418 89.611311 
L 277.825658 95.858995 
L 278.182778 99.174229 
L 278.897018 103.968188 
L 281.039738 121.110861 
L 282.111098 130.607434 
L 282.468218 132.40519 
L 282.825338 136.795192 
L 283.539578 141.432113 
L 284.253818 148.677827 
L 286.039418 164.36427 
L 287.110778 172.580924 
L 287.825018 180.592685 
L 288.182138 181.419888 
L 288.539258 186.222053 
L 289.253498 191.169356 
L 289.610618 195.884214 
L 289.967737 196.609105 
L 290.681978 202.826637 
L 291.753338 211.137867 
L 292.110457 212.918557 
L 292.824698 219.4268 
L 293.181818 220.870893 
L 293.896058 226.516868 
L 294.967418 232.527851 
L 295.324538 236.179933 
L 295.681658 237.664951 
L 296.038778 240.199179 
L 296.395898 241.174003 
L 297.467258 247.609602 
L 298.181498 249.95404 
L 298.538618 250.479547 
L 298.895737 251.335537 
L 299.609978 255.835202 
L 299.967098 256.243989 
L 300.324218 258.483582 
L 300.681338 259.143196 
L 301.038457 259.435265 
L 301.395578 261.061741 
L 301.752698 261.198467 
L 302.109818 261.929315 
L 302.466938 263.358763 
L 303.538297 263.168929 
L 303.895418 264.010491 
L 304.966778 264.835212 
L 305.323898 264.469197 
L 305.681018 263.289468 
L 306.038138 263.992537 
L 306.395258 264.317885 
L 306.752378 262.701008 
L 307.109498 263.272144 
L 307.466618 262.264448 
L 307.823737 262.072656 
L 308.180858 261.228748 
L 308.537978 259.769492 
L 308.895098 259.550618 
L 311.394938 250.129355 
L 311.752058 247.890963 
L 312.109178 247.443483 
L 313.180538 241.039703 
L 313.537658 240.463548 
L 313.894778 237.628104 
L 315.323258 229.955324 
L 316.751737 219.49413 
L 317.108857 218.492963 
L 317.465978 214.464683 
L 317.823098 212.705085 
L 318.180218 209.447416 
L 318.894458 205.678737 
L 319.251578 201.745569 
L 319.608698 199.357413 
L 320.322938 193.190123 
L 320.680058 191.240528 
L 321.394297 184.315696 
L 321.751418 182.3312 
L 322.108538 178.430554 
L 323.179898 171.238078 
L 323.537018 166.828575 
L 324.251258 162.218571 
L 324.965498 155.066325 
L 325.322618 152.909927 
L 326.393978 142.805686 
L 326.751098 140.956646 
L 327.108218 137.086117 
L 327.465338 135.552526 
L 328.179578 128.936711 
L 328.893818 123.884755 
L 329.608058 116.899344 
L 329.965177 116.202096 
L 330.679417 110.399658 
L 333.179258 93.009121 
L 333.536378 91.086634 
L 334.250618 85.022926 
L 334.607737 84.019001 
L 334.964857 81.548884 
L 335.321978 80.567889 
L 336.036218 75.422323 
L 336.393338 74.464377 
L 336.750458 72.275295 
L 337.107578 71.177022 
L 338.536058 64.48551 
L 338.893178 64.446324 
L 339.250297 62.065346 
L 339.607417 61.574227 
L 340.678778 57.744087 
L 341.035898 57.119343 
L 341.750138 55.016079 
L 342.107258 55.891972 
L 342.464378 54.116304 
L 342.821498 54.347757 
L 343.178618 54.388478 
L 343.535737 54.054586 
L 343.892857 52.977973 
L 344.249977 53.073536 
L 344.964218 52.592767 
L 345.321338 52.924883 
L 345.678458 52.721569 
L 346.035578 52.775236 
L 346.392697 53.092356 
L 346.749818 54.225594 
L 347.106938 54.73571 
L 347.464058 54.99613 
L 347.821178 55.569939 
L 348.178297 57.314977 
L 348.535417 57.614883 
L 348.892538 57.605654 
L 349.249658 58.270662 
L 349.963898 61.167554 
L 350.678138 63.05331 
L 351.035258 65.016077 
L 351.392378 65.268336 
L 352.106618 68.526236 
L 352.820857 73.120636 
L 353.535098 75.130847 
L 353.892218 77.432584 
L 354.249338 78.489848 
L 355.677818 87.432393 
L 356.034938 88.851569 
L 356.749178 93.676215 
L 357.106297 95.067639 
L 357.463417 97.566664 
L 357.820538 101.121771 
L 358.177658 101.995535 
L 362.820218 136.188755 
L 363.177338 139.484367 
L 363.534458 140.948518 
L 370.319738 191.670031 
L 370.676857 193.153787 
L 372.462458 205.654294 
L 372.819578 206.678503 
L 373.176698 210.188339 
L 375.676537 223.743244 
L 376.033658 224.320482 
L 376.390778 228.026423 
L 376.747898 229.001911 
L 377.105018 230.633092 
L 377.462138 233.4531 
L 377.819258 235.018158 
L 378.176378 235.508039 
L 378.533498 236.308737 
L 379.604857 241.521897 
L 379.961977 242.60008 
L 380.319097 242.436858 
L 381.390458 245.793233 
L 381.747578 245.907852 
L 382.104698 248.650322 
L 382.461818 248.758236 
L 382.818938 249.036267 
L 383.176058 248.930807 
L 383.890298 250.620616 
L 384.247417 249.963915 
L 384.604537 250.449317 
L 384.961658 251.574354 
L 385.318778 250.479547 
L 385.675898 251.77623 
L 386.033018 251.709483 
L 386.390138 250.796237 
L 387.461498 250.836958 
L 387.818618 249.664871 
L 388.175738 250.099431 
L 388.889977 247.984122 
L 389.247097 248.196492 
L 390.318458 245.309425 
L 390.675578 244.903403 
L 391.389818 242.153852 
L 392.461178 238.911724 
L 392.818298 237.386025 
L 393.175417 236.871587 
L 393.532537 235.08119 
L 393.889657 234.21778 
L 394.246778 232.067931 
L 394.961018 229.651861 
L 395.675258 225.950926 
L 396.032377 224.796989 
L 396.746618 220.614791 
L 397.103738 219.482908 
L 397.460858 216.513232 
L 398.175097 212.99693 
L 398.532218 210.624827 
L 398.889338 207.327349 
L 399.246458 206.22772 
L 399.603578 203.798985 
L 399.960698 202.293033 
L 400.317818 199.432295 
L 400.674937 197.511508 
L 401.032058 194.010457 
L 401.389178 192.624124 
L 401.746298 189.718523 
L 402.103417 188.315912 
L 403.531898 178.198808 
L 404.246138 173.233284 
L 404.603258 170.086536 
L 405.317498 165.812501 
L 406.031738 161.572423 
L 406.388858 158.200815 
L 407.103097 153.208195 
L 407.460218 149.818418 
L 407.817338 148.936846 
L 408.174458 144.703507 
L 408.531578 142.647197 
L 408.888698 141.643432 
L 409.245818 138.819227 
L 409.602937 135.079345 
L 409.960058 134.043288 
L 410.317178 130.761602 
L 411.388537 123.561261 
L 411.745657 122.730158 
L 412.102778 118.59733 
L 412.817018 114.856493 
L 413.531258 110.031049 
L 413.888378 108.633709 
L 414.245497 104.873439 
L 414.602618 104.271782 
L 415.673977 97.412055 
L 416.388218 94.431815 
L 416.745338 91.834081 
L 417.459578 89.353415 
L 418.173818 85.192212 
L 418.530938 83.867115 
L 418.530938 83.867115 
" style="fill:none;stroke:#1f77b4;stroke-linecap:square;stroke-width:1.5;"/>
   </g>
   <g id="line2d_22">
    <path clip-path="url(#p304c686b55)" d="M 61.410938 278.50696 
L 62.125178 278.50696 
L 62.482298 278.168864 
L 62.839418 278.168864 
L 63.196538 275.290356 
L 63.553658 274.80709 
L 64.982138 267.341548 
L 66.053498 258.363992 
L 66.410618 255.813044 
L 67.839098 241.385276 
L 68.196218 238.920574 
L 68.553338 232.752651 
L 68.910458 229.456784 
L 73.195898 170.191925 
L 76.409978 124.233953 
L 76.767098 120.621595 
L 78.195578 101.36489 
L 81.052538 73.295392 
L 81.409658 71.896962 
L 82.123898 66.498608 
L 83.909498 57.40734 
L 84.266618 56.917988 
L 84.623738 55.320023 
L 84.980858 55.771541 
L 85.337978 53.989272 
L 85.695098 53.75755 
L 86.052218 54.124759 
L 86.409338 53.521615 
L 86.766458 54.8576 
L 87.123578 54.724489 
L 87.837818 57.052873 
L 88.194938 57.332094 
L 88.552058 58.615924 
L 88.909178 60.932385 
L 89.266298 60.756808 
L 89.623418 63.251811 
L 89.980538 64.589193 
L 90.337658 67.860509 
L 90.694778 69.442579 
L 91.051898 73.006901 
L 91.409018 73.257455 
L 93.908858 94.224852 
L 94.265978 96.598348 
L 96.051578 113.414975 
L 96.408698 115.586353 
L 97.122938 123.080235 
L 97.480058 125.02695 
L 98.551418 136.682916 
L 98.908538 139.237809 
L 99.265658 143.090231 
L 99.622778 144.997453 
L 99.979898 146.046424 
L 100.337018 150.503618 
L 101.051258 155.42083 
L 103.193978 170.476719 
L 103.551098 170.876281 
L 104.265338 175.798263 
L 104.622458 176.524486 
L 104.979578 178.523344 
L 105.336698 178.86783 
L 106.765178 183.163149 
L 107.122298 182.901361 
L 107.479418 184.617161 
L 108.193658 183.229705 
L 108.550778 183.841707 
L 108.907898 184.701837 
L 109.979258 182.605377 
L 110.336378 182.357985 
L 111.050618 181.282717 
L 111.764858 180.409455 
L 112.479098 177.99506 
L 113.193338 175.131 
L 113.550458 173.59929 
L 113.907578 173.032401 
L 114.264698 170.404458 
L 114.978938 168.704339 
L 115.693178 165.153332 
L 116.050298 164.072882 
L 116.407418 160.507571 
L 116.764538 159.341877 
L 117.121658 158.575849 
L 118.193018 153.302156 
L 118.550138 151.275781 
L 119.264378 149.037749 
L 119.621498 147.662722 
L 119.978618 145.35402 
L 120.335738 144.23871 
L 120.692858 143.72459 
L 121.049978 142.401973 
L 121.407098 140.241139 
L 121.764218 139.791514 
L 122.121338 138.184521 
L 122.478458 138.063789 
L 122.835578 137.335058 
L 123.192698 135.345189 
L 123.549818 134.839361 
L 123.906938 133.880143 
L 124.264058 133.485555 
L 124.621178 132.474547 
L 124.978298 133.351227 
L 125.692538 131.35751 
L 126.049658 131.273205 
L 126.763898 132.44504 
L 127.121018 132.002441 
L 127.478138 131.892845 
L 127.835258 132.293292 
L 128.192378 132.208987 
L 128.549498 132.990221 
L 128.906618 133.435182 
L 129.263738 135.031659 
L 129.620858 135.453879 
L 129.977978 137.772365 
L 130.335098 137.809834 
L 130.692218 139.383521 
L 131.049338 139.31691 
L 131.406458 140.162039 
L 132.120698 143.214615 
L 132.477818 144.752831 
L 132.834938 145.192321 
L 133.192058 147.860924 
L 133.549178 148.261457 
L 133.906298 149.673647 
L 134.263418 151.668056 
L 134.620538 152.217241 
L 134.977658 154.844518 
L 135.334778 155.599114 
L 135.691898 156.7393 
L 136.049018 159.158696 
L 137.120378 163.847141 
L 137.834618 167.684395 
L 138.191738 168.903284 
L 138.905978 172.942761 
L 139.620218 175.109476 
L 139.977338 175.406515 
L 140.691578 178.920157 
L 141.048698 179.487033 
L 141.762938 181.88529 
L 142.477178 185.354395 
L 142.834298 185.139531 
L 143.191418 185.739361 
L 143.548538 187.453798 
L 143.905658 187.571222 
L 144.262778 187.417667 
L 144.619898 189.358619 
L 144.977018 188.109329 
L 145.691258 189.868485 
L 146.048378 189.699113 
L 146.405498 190.239272 
L 146.762618 189.845597 
L 147.119738 190.014969 
L 147.476858 189.667069 
L 147.833978 189.089756 
L 148.191098 188.91659 
L 148.905338 186.789899 
L 149.262458 186.637732 
L 149.619578 187.006682 
L 150.333818 184.456722 
L 150.690938 184.26063 
L 151.048058 182.30939 
L 151.405178 180.983619 
L 151.762298 179.181792 
L 152.119418 179.439067 
L 152.833658 176.654185 
L 153.547898 173.389243 
L 153.905018 173.122042 
L 154.262138 170.077157 
L 154.619258 169.76679 
L 154.976378 168.105918 
L 155.690618 163.433281 
L 156.404858 161.26111 
L 157.476218 155.764959 
L 158.190458 152.958027 
L 158.547578 150.730725 
L 160.690298 142.530504 
L 161.047418 141.514701 
L 162.475898 136.09348 
L 163.547258 132.006656 
L 163.904378 131.568272 
L 164.261498 130.553477 
L 164.618618 130.214848 
L 164.975738 128.888307 
L 165.332858 128.790542 
L 166.047098 127.366572 
L 166.404218 127.362753 
L 166.761338 125.89009 
L 167.118458 126.696853 
L 167.475578 124.714022 
L 167.832698 125.382744 
L 168.189818 124.598282 
L 168.546938 124.624002 
L 168.904058 124.765463 
L 169.261178 125.549925 
L 169.618298 125.425611 
L 170.332538 126.500498 
L 170.689658 126.244383 
L 171.046778 126.662705 
L 171.403898 126.269994 
L 172.118138 128.293215 
L 172.475258 128.765038 
L 172.832378 128.964818 
L 173.546618 130.995 
L 173.903738 131.214192 
L 174.260858 132.626295 
L 174.975098 133.745815 
L 175.332218 133.892736 
L 175.689338 135.541668 
L 176.046458 136.494798 
L 176.403578 136.837591 
L 176.760698 136.917018 
L 177.117818 138.596677 
L 177.474938 139.450132 
L 177.832058 140.718644 
L 178.189178 141.124965 
L 178.546298 142.497335 
L 178.903418 143.098524 
L 179.260538 144.305048 
L 179.617658 144.209687 
L 179.974778 145.001599 
L 180.331898 145.42865 
L 180.689018 146.382261 
L 181.046138 147.951767 
L 181.403258 148.397721 
L 181.760378 149.120333 
L 182.117498 148.781738 
L 182.474618 149.549771 
L 182.831738 149.549771 
L 183.188858 151.197326 
L 183.545978 152.023168 
L 183.903098 151.544179 
L 184.260218 150.875247 
L 184.617338 150.829826 
L 184.974457 151.044545 
L 185.331578 151.535921 
L 185.688698 151.59373 
L 186.045818 152.659506 
L 186.402938 151.601988 
L 186.760058 151.940584 
L 187.474298 151.763027 
L 187.831418 151.201455 
L 188.545658 151.345977 
L 188.902778 150.838084 
L 189.617018 149.202917 
L 189.974138 149.698422 
L 190.331258 147.712272 
L 190.688378 148.030222 
L 191.045498 147.794857 
L 191.402618 145.967648 
L 191.759738 145.934479 
L 192.116858 143.815805 
L 192.473978 143.989942 
L 192.831098 143.280954 
L 193.188218 141.502263 
L 193.545338 141.697131 
L 194.259578 139.266952 
L 194.616698 138.759042 
L 195.330938 136.958822 
L 196.045178 136.599308 
L 196.402298 134.803646 
L 196.759418 134.329301 
L 197.116538 133.179119 
L 197.473658 133.548521 
L 197.830778 131.193116 
L 198.187898 130.024369 
L 198.545018 131.842262 
L 198.902138 129.393671 
L 199.259258 129.198959 
L 199.616378 129.753465 
L 199.973498 128.297466 
L 200.687738 127.076758 
L 201.044858 127.174935 
L 201.401978 125.781405 
L 201.759098 125.837132 
L 202.116218 124.799756 
L 202.473338 126.013879 
L 202.830458 125.279864 
L 203.187578 124.048841 
L 203.544698 125.832845 
L 203.901818 125.907164 
L 204.258938 124.825476 
L 205.330298 125.902895 
L 205.687418 127.80864 
L 206.044538 126.824911 
L 206.758778 128.629017 
L 207.473018 129.656109 
L 207.830138 129.296315 
L 208.187258 131.880199 
L 208.544378 131.880199 
L 209.258618 134.05225 
L 209.615738 135.56257 
L 209.972858 136.227253 
L 211.401338 141.539578 
L 211.758458 142.231982 
L 212.472698 145.660834 
L 212.829818 146.3408 
L 213.186938 149.285501 
L 213.544058 150.313675 
L 213.901178 151.824966 
L 214.258298 151.882775 
L 214.972538 155.715206 
L 215.329658 156.71857 
L 216.043898 161.656612 
L 216.401018 162.145719 
L 217.472378 167.524216 
L 217.829498 168.202869 
L 218.900858 174.173705 
L 219.257978 176.157004 
L 219.615098 176.714712 
L 219.972218 178.229521 
L 220.329338 178.920157 
L 221.400698 182.976791 
L 221.757818 183.260764 
L 222.114938 183.91747 
L 222.472058 186.035235 
L 223.186298 188.711525 
L 223.900538 188.661398 
L 224.257658 190.511742 
L 224.614778 190.741663 
L 224.971898 191.202448 
L 225.329018 191.90922 
L 225.686138 193.278947 
L 226.043258 193.297595 
L 226.400378 193.446779 
L 226.757498 193.743827 
L 227.114618 192.691535 
L 227.471738 193.292933 
L 228.185978 193.85155 
L 228.543098 193.617371 
L 229.257338 194.721211 
L 229.971578 192.34963 
L 230.328698 191.793734 
L 230.685818 191.558144 
L 231.042938 190.649695 
L 231.757178 189.722001 
L 232.114298 189.456499 
L 232.828538 187.8825 
L 233.185658 186.300514 
L 233.899898 185.202199 
L 234.614138 181.894125 
L 234.971258 181.630199 
L 235.328378 181.718169 
L 236.042618 178.359777 
L 236.756858 176.381816 
L 237.113978 173.950798 
L 237.471098 174.443766 
L 238.185338 170.506474 
L 238.542458 169.165722 
L 239.256698 168.004753 
L 239.613818 166.282525 
L 239.970938 165.11975 
L 239.970938 165.11975 
" style="fill:none;stroke:#d62728;stroke-linecap:square;stroke-width:1.5;"/>
   </g>
   <g id="line2d_23">
    <path clip-path="url(#p304c686b55)" d="M 61.410938 23.543308 
L 418.530938 23.543308 
" style="fill:none;stroke:#99aaaa;stroke-dasharray:9.6,2.4,1.5,2.4;stroke-dashoffset:0;stroke-width:1.5;"/>
   </g>
   <g id="line2d_24">
    <defs>
     <path d="M -3 3 
L 3 3 
L 3 -3 
L -3 -3 
z
" id="m9e0ac68bfd" style="stroke:#1f77b4;stroke-linejoin:miter;"/>
    </defs>
    <g clip-path="url(#p304c686b55)">
     <use style="fill:#1f77b4;stroke:#1f77b4;stroke-linejoin:miter;" x="61.410938" xlink:href="#m9e0ac68bfd" y="278.419468"/>
     <use style="fill:#1f77b4;stroke:#1f77b4;stroke-linejoin:miter;" x="72.688411" xlink:href="#m9e0ac68bfd" y="226.422028"/>
     <use style="fill:#1f77b4;stroke:#1f77b4;stroke-linejoin:miter;" x="83.965885" xlink:href="#m9e0ac68bfd" y="134.820435"/>
     <use style="fill:#1f77b4;stroke:#1f77b4;stroke-linejoin:miter;" x="95.243359" xlink:href="#m9e0ac68bfd" y="42.004828"/>
     <use style="fill:#1f77b4;stroke:#1f77b4;stroke-linejoin:miter;" x="106.520832" xlink:href="#m9e0ac68bfd" y="43.40435"/>
     <use style="fill:#1f77b4;stroke:#1f77b4;stroke-linejoin:miter;" x="117.798306" xlink:href="#m9e0ac68bfd" y="113.773842"/>
     <use style="fill:#1f77b4;stroke:#1f77b4;stroke-linejoin:miter;" x="129.07578" xlink:href="#m9e0ac68bfd" y="180.611275"/>
     <use style="fill:#1f77b4;stroke:#1f77b4;stroke-linejoin:miter;" x="140.353253" xlink:href="#m9e0ac68bfd" y="220.204828"/>
     <use style="fill:#1f77b4;stroke:#1f77b4;stroke-linejoin:miter;" x="151.630727" xlink:href="#m9e0ac68bfd" y="190.120475"/>
     <use style="fill:#1f77b4;stroke:#1f77b4;stroke-linejoin:miter;" x="162.908201" xlink:href="#m9e0ac68bfd" y="111.983083"/>
     <use style="fill:#1f77b4;stroke:#1f77b4;stroke-linejoin:miter;" x="174.185674" xlink:href="#m9e0ac68bfd" y="54.752124"/>
     <use style="fill:#1f77b4;stroke:#1f77b4;stroke-linejoin:miter;" x="185.463148" xlink:href="#m9e0ac68bfd" y="40.939555"/>
     <use style="fill:#1f77b4;stroke:#1f77b4;stroke-linejoin:miter;" x="196.740622" xlink:href="#m9e0ac68bfd" y="86.463444"/>
     <use style="fill:#1f77b4;stroke:#1f77b4;stroke-linejoin:miter;" x="208.018095" xlink:href="#m9e0ac68bfd" y="141.26563"/>
     <use style="fill:#1f77b4;stroke:#1f77b4;stroke-linejoin:miter;" x="219.295569" xlink:href="#m9e0ac68bfd" y="240.202828"/>
     <use style="fill:#1f77b4;stroke:#1f77b4;stroke-linejoin:miter;" x="230.573043" xlink:href="#m9e0ac68bfd" y="243.327628"/>
     <use style="fill:#1f77b4;stroke:#1f77b4;stroke-linejoin:miter;" x="241.850516" xlink:href="#m9e0ac68bfd" y="172.682234"/>
     <use style="fill:#1f77b4;stroke:#1f77b4;stroke-linejoin:miter;" x="253.12799" xlink:href="#m9e0ac68bfd" y="71.965744"/>
     <use style="fill:#1f77b4;stroke:#1f77b4;stroke-linejoin:miter;" x="264.405464" xlink:href="#m9e0ac68bfd" y="40.5962"/>
     <use style="fill:#1f77b4;stroke:#1f77b4;stroke-linejoin:miter;" x="275.682938" xlink:href="#m9e0ac68bfd" y="82.396828"/>
     <use style="fill:#1f77b4;stroke:#1f77b4;stroke-linejoin:miter;" x="286.960411" xlink:href="#m9e0ac68bfd" y="170.830515"/>
     <use style="fill:#1f77b4;stroke:#1f77b4;stroke-linejoin:miter;" x="298.237885" xlink:href="#m9e0ac68bfd" y="246.057707"/>
     <use style="fill:#1f77b4;stroke:#1f77b4;stroke-linejoin:miter;" x="309.515359" xlink:href="#m9e0ac68bfd" y="227.790156"/>
     <use style="fill:#1f77b4;stroke:#1f77b4;stroke-linejoin:miter;" x="320.792832" xlink:href="#m9e0ac68bfd" y="160.947053"/>
     <use style="fill:#1f77b4;stroke:#1f77b4;stroke-linejoin:miter;" x="332.070306" xlink:href="#m9e0ac68bfd" y="73.778224"/>
     <use style="fill:#1f77b4;stroke:#1f77b4;stroke-linejoin:miter;" x="343.34778" xlink:href="#m9e0ac68bfd" y="36.342028"/>
     <use style="fill:#1f77b4;stroke:#1f77b4;stroke-linejoin:miter;" x="354.625253" xlink:href="#m9e0ac68bfd" y="62.368367"/>
     <use style="fill:#1f77b4;stroke:#1f77b4;stroke-linejoin:miter;" x="365.902727" xlink:href="#m9e0ac68bfd" y="134.231833"/>
     <use style="fill:#1f77b4;stroke:#1f77b4;stroke-linejoin:miter;" x="377.180201" xlink:href="#m9e0ac68bfd" y="208.249228"/>
     <use style="fill:#1f77b4;stroke:#1f77b4;stroke-linejoin:miter;" x="388.457674" xlink:href="#m9e0ac68bfd" y="225.183628"/>
     <use style="fill:#1f77b4;stroke:#1f77b4;stroke-linejoin:miter;" x="399.735148" xlink:href="#m9e0ac68bfd" y="176.872405"/>
    </g>
   </g>
   <g id="line2d_25">
    <defs>
     <path d="M 0 3 
C 0.795609 3 1.55874 2.683901 2.12132 2.12132 
C 2.683901 1.55874 3 0.795609 3 0 
C 3 -0.795609 2.683901 -1.55874 2.12132 -2.12132 
C 1.55874 -2.683901 0.795609 -3 0 -3 
C -0.795609 -3 -1.55874 -2.683901 -2.12132 -2.12132 
C -2.683901 -1.55874 -3 -0.795609 -3 0 
C -3 0.795609 -2.683901 1.55874 -2.12132 2.12132 
C -1.55874 2.683901 -0.795609 3 0 3 
z
" id="m4d17eb6f4c" style="stroke:#d62728;"/>
    </defs>
    <g clip-path="url(#p304c686b55)">
     <use style="fill:#d62728;stroke:#d62728;" x="61.410938" xlink:href="#m4d17eb6f4c" y="271.284996"/>
     <use style="fill:#d62728;stroke:#d62728;" x="72.688411" xlink:href="#m4d17eb6f4c" y="195.850828"/>
     <use style="fill:#d62728;stroke:#d62728;" x="83.965885" xlink:href="#m4d17eb6f4c" y="74.379876"/>
     <use style="fill:#d62728;stroke:#d62728;" x="95.243359" xlink:href="#m4d17eb6f4c" y="106.200292"/>
     <use style="fill:#d62728;stroke:#d62728;" x="106.520832" xlink:href="#m4d17eb6f4c" y="186.703228"/>
     <use style="fill:#d62728;stroke:#d62728;" x="117.798306" xlink:href="#m4d17eb6f4c" y="149.260567"/>
     <use style="fill:#d62728;stroke:#d62728;" x="129.07578" xlink:href="#m4d17eb6f4c" y="129.628939"/>
     <use style="fill:#d62728;stroke:#d62728;" x="140.353253" xlink:href="#m4d17eb6f4c" y="176.029129"/>
     <use style="fill:#d62728;stroke:#d62728;" x="151.630727" xlink:href="#m4d17eb6f4c" y="146.766145"/>
     <use style="fill:#d62728;stroke:#d62728;" x="162.908201" xlink:href="#m4d17eb6f4c" y="142.47624"/>
     <use style="fill:#d62728;stroke:#d62728;" x="174.185674" xlink:href="#m4d17eb6f4c" y="115.880527"/>
     <use style="fill:#d62728;stroke:#d62728;" x="185.463148" xlink:href="#m4d17eb6f4c" y="131.083863"/>
     <use style="fill:#d62728;stroke:#d62728;" x="196.740622" xlink:href="#m4d17eb6f4c" y="125.946407"/>
     <use style="fill:#d62728;stroke:#d62728;" x="208.018095" xlink:href="#m4d17eb6f4c" y="141.690213"/>
     <use style="fill:#d62728;stroke:#d62728;" x="219.295569" xlink:href="#m4d17eb6f4c" y="171.707602"/>
     <use style="fill:#d62728;stroke:#d62728;" x="230.573043" xlink:href="#m4d17eb6f4c" y="206.206602"/>
    </g>
   </g>
   <g id="patch_3">
    <path d="M 61.410938 279.010828 
L 61.410938 12.898828 
" style="fill:none;stroke:#000000;stroke-linecap:square;stroke-linejoin:miter;stroke-width:0.8;"/>
   </g>
   <g id="patch_4">
    <path d="M 418.530938 279.010828 
L 418.530938 12.898828 
" style="fill:none;stroke:#000000;stroke-linecap:square;stroke-linejoin:miter;stroke-width:0.8;"/>
   </g>
   <g id="patch_5">
    <path d="M 61.410938 279.010828 
L 418.530938 279.010828 
" style="fill:none;stroke:#000000;stroke-linecap:square;stroke-linejoin:miter;stroke-width:0.8;"/>
   </g>
   <g id="patch_6">
    <path d="M 61.410938 12.898828 
L 418.530938 12.898828 
" style="fill:none;stroke:#000000;stroke-linecap:square;stroke-linejoin:miter;stroke-width:0.8;"/>
   </g>
  </g>
 </g>
 <defs>
  <clipPath id="p304c686b55">
   <rect height="266.112" width="357.12" x="61.410938" y="12.898828"/>
  </clipPath>
 </defs>
</svg>
