<?xml version="1.0" encoding="utf-8" standalone="no"?>
<!DOCTYPE svg PUBLIC "-//W3C//DTD SVG 1.1//EN"
  "http://www.w3.org/Graphics/SVG/1.1/DTD/svg11.dtd">
<!-- Created with matplotlib (https://matplotlib.org/) -->
<svg height="331.128016pt" version="1.1" viewBox="0 0 425.730937 331.128016" width="425.730937pt" xmlns="http://www.w3.org/2000/svg" xmlns:xlink="http://www.w3.org/1999/xlink">
 <defs>
  <style type="text/css">*{stroke-linecap:butt;stroke-linejoin:round;}</style>
 </defs>
 <g id="figure_1">
  <g id="patch_1">
   <path d="M 0 331.128016 
L 425.730937 331.128016 
L 425.730937 0 
L 0 0 
z
" style="fill:none;"/>
  </g>
  <g id="axes_1">
   <g id="patch_2">
    <path d="M 61.410938 279.010828 
L 418.530938 279.010828 
L 418.530938 12.898828 
L 61.410938 12.898828 
z
" style="fill:none;"/>
   </g>
   <g id="matplotlib.axis_1">
    <g id="xtick_1">
     <g id="line2d_1">
      <path clip-path="url(#p304c686b55)" d="M 61.410938 279.010828 
L 61.410938 12.898828 
" style="fill:none;stroke:#b0b0b0;stroke-linecap:square;stroke-width:0.8;"/>
     </g>
     <g id="line2d_2">
      <defs>
       <path d="M 0 0 
L 0 3.5 
" id="m005f0a59be" style="stroke:#000000;stroke-width:0.8;"/>
      </defs>
      <g>
       <use style="stroke:#000000;stroke-width:0.8;" x="61.410938" xlink:href="#m005f0a59be" y="279.010828"/>
      </g>
     </g>
     <g id="text_1">
      <!-- 0 -->
      <g transform="translate(56.639063 297.408484)scale(0.15 -0.15)">
       <defs>
        <path d="M 31.78125 66.40625 
Q 24.171875 66.40625 20.328125 58.90625 
Q 16.5 51.421875 16.5 36.375 
Q 16.5 21.390625 20.328125 13.890625 
Q 24.171875 6.390625 31.78125 6.390625 
Q 39.453125 6.390625 43.28125 13.890625 
Q 47.125 21.390625 47.125 36.375 
Q 47.125 51.421875 43.28125 58.90625 
Q 39.453125 66.40625 31.78125 66.40625 
z
M 31.78125 74.21875 
Q 44.046875 74.21875 50.515625 64.515625 
Q 56.984375 54.828125 56.984375 36.375 
Q 56.984375 17.96875 50.515625 8.265625 
Q 44.046875 -1.421875 31.78125 -1.421875 
Q 19.53125 -1.421875 13.0625 8.265625 
Q 6.59375 17.96875 6.59375 36.375 
Q 6.59375 54.828125 13.0625 64.515625 
Q 19.53125 74.21875 31.78125 74.21875 
z
" id="DejaVuSans-48"/>
       </defs>
       <use xlink:href="#DejaVuSans-48"/>
      </g>
     </g>
    </g>
    <g id="xtick_2">
     <g id="line2d_3">
      <path clip-path="url(#p304c686b55)" d="M 123.410938 279.010828 
L 123.410938 12.898828 
" style="fill:none;stroke:#b0b0b0;stroke-linecap:square;stroke-width:0.8;"/>
     </g>
     <g id="line2d_4">
      <g>
       <use style="stroke:#000000;stroke-width:0.8;" x="123.410938" xlink:href="#m005f0a59be" y="279.010828"/>
      </g>
     </g>
     <g id="text_2">
      <!-- 25 -->
      <g transform="translate(113.867188 297.408484)scale(0.15 -0.15)">
       <defs>
        <path d="M 19.1875 8.296875 
L 53.609375 8.296875 
L 53.609375 0 
L 7.328125 0 
L 7.328125 8.296875 
Q 12.9375 14.109375 22.625 23.890625 
Q 32.328125 33.6875 34.8125 36.53125 
Q 39.546875 41.84375 41.421875 45.53125 
Q 43.3125 49.21875 43.3125 52.78125 
Q 43.3125 58.59375 39.234375 62.25 
Q 35.15625 65.921875 28.609375 65.921875 
Q 23.96875 65.921875 18.8125 64.3125 
Q 13.671875 62.703125 7.8125 59.421875 
L 7.8125 69.390625 
Q 13.765625 71.78125 18.9375 73 
Q 24.125 74.21875 28.421875 74.21875 
Q 39.75 74.21875 46.484375 68.546875 
Q 53.21875 62.890625 53.21875 53.421875 
Q 53.21875 48.921875 51.53125 44.890625 
Q 49.859375 40.875 45.40625 35.40625 
Q 44.1875 33.984375 37.640625 27.21875 
Q 31.109375 20.453125 19.1875 8.296875 
z
" id="DejaVuSans-50"/>
        <path d="M 10.796875 72.90625 
L 49.515625 72.90625 
L 49.515625 64.59375 
L 19.828125 64.59375 
L 19.828125 46.734375 
Q 21.96875 47.46875 24.109375 47.828125 
Q 26.265625 48.1875 28.421875 48.1875 
Q 40.625 48.1875 47.75 41.5 
Q 54.890625 34.8125 54.890625 23.390625 
Q 54.890625 11.625 47.5625 5.09375 
Q 40.234375 -1.421875 26.90625 -1.421875 
Q 22.3125 -1.421875 17.546875 -0.640625 
Q 12.796875 0.140625 7.71875 1.703125 
L 7.71875 11.625 
Q 12.109375 9.234375 16.796875 8.0625 
Q 21.484375 6.890625 26.703125 6.890625 
Q 35.15625 6.890625 40.078125 11.328125 
Q 45.015625 15.765625 45.015625 23.390625 
Q 45.015625 31 40.078125 35.4375 
Q 35.15625 39.890625 26.703125 39.890625 
Q 22.75 39.890625 18.8125 39.015625 
Q 14.890625 38.140625 10.796875 36.28125 
z
" id="DejaVuSans-53"/>
       </defs>
       <use xlink:href="#DejaVuSans-50"/>
       <use x="63.623047" xlink:href="#DejaVuSans-53"/>
      </g>
     </g>
    </g>
    <g id="xtick_3">
     <g id="line2d_5">
      <path clip-path="url(#p304c686b55)" d="M 185.410938 279.010828 
L 185.410938 12.898828 
" style="fill:none;stroke:#b0b0b0;stroke-linecap:square;stroke-width:0.8;"/>
     </g>
     <g id="line2d_6">
      <g>
       <use style="stroke:#000000;stroke-width:0.8;" x="185.410938" xlink:href="#m005f0a59be" y="279.010828"/>
      </g>
     </g>
     <g id="text_3">
      <!-- 50 -->
      <g transform="translate(175.867188 297.408484)scale(0.15 -0.15)">
       <use xlink:href="#DejaVuSans-53"/>
       <use x="63.623047" xlink:href="#DejaVuSans-48"/>
      </g>
     </g>
    </g>
    <g id="xtick_4">
     <g id="line2d_7">
      <path clip-path="url(#p304c686b55)" d="M 247.410938 279.010828 
L 247.410938 12.898828 
" style="fill:none;stroke:#b0b0b0;stroke-linecap:square;stroke-width:0.8;"/>
     </g>
     <g id="line2d_8">
      <g>
       <use style="stroke:#000000;stroke-width:0.8;" x="247.410938" xlink:href="#m005f0a59be" y="279.010828"/>
      </g>
     </g>
     <g id="text_4">
      <!-- 75 -->
      <g transform="translate(237.867188 297.408484)scale(0.15 -0.15)">
       <defs>
        <path d="M 8.203125 72.90625 
L 55.078125 72.90625 
L 55.078125 68.703125 
L 28.609375 0 
L 18.3125 0 
L 43.21875 64.59375 
L 8.203125 64.59375 
z
" id="DejaVuSans-55"/>
       </defs>
       <use xlink:href="#DejaVuSans-55"/>
       <use x="63.623047" xlink:href="#DejaVuSans-53"/>
      </g>
     </g>
    </g>
    <g id="xtick_5">
     <g id="line2d_9">
      <path clip-path="url(#p304c686b55)" d="M 309.410938 279.010828 
L 309.410938 12.898828 
" style="fill:none;stroke:#b0b0b0;stroke-linecap:square;stroke-width:0.8;"/>
     </g>
     <g id="line2d_10">
      <g>
       <use style="stroke:#000000;stroke-width:0.8;" x="309.410938" xlink:href="#m005f0a59be" y="279.010828"/>
      </g>
     </g>
     <g id="text_5">
      <!-- 100 -->
      <g transform="translate(295.095313 297.408484)scale(0.15 -0.15)">
       <defs>
        <path d="M 12.40625 8.296875 
L 28.515625 8.296875 
L 28.515625 63.921875 
L 10.984375 60.40625 
L 10.984375 69.390625 
L 28.421875 72.90625 
L 38.28125 72.90625 
L 38.28125 8.296875 
L 54.390625 8.296875 
L 54.390625 0 
L 12.40625 0 
z
" id="DejaVuSans-49"/>
       </defs>
       <use xlink:href="#DejaVuSans-49"/>
       <use x="63.623047" xlink:href="#DejaVuSans-48"/>
       <use x="127.246094" xlink:href="#DejaVuSans-48"/>
      </g>
     </g>
    </g>
    <g id="xtick_6">
     <g id="line2d_11">
      <path clip-path="url(#p304c686b55)" d="M 371.410938 279.010828 
L 371.410938 12.898828 
" style="fill:none;stroke:#b0b0b0;stroke-linecap:square;stroke-width:0.8;"/>
     </g>
     <g id="line2d_12">
      <g>
       <use style="stroke:#000000;stroke-width:0.8;" x="371.410938" xlink:href="#m005f0a59be" y="279.010828"/>
      </g>
     </g>
     <g id="text_6">
      <!-- 125 -->
      <g transform="translate(357.095313 297.408484)scale(0.15 -0.15)">
       <use xlink:href="#DejaVuSans-49"/>
       <use x="63.623047" xlink:href="#DejaVuSans-50"/>
       <use x="127.246094" xlink:href="#DejaVuSans-53"/>
      </g>
     </g>
    </g>
    <g id="text_7">
     <!-- Time ($\mu s$) -->
     <g transform="translate(192.570938 319.728016)scale(0.2 -0.2)">
      <defs>
       <path d="M -0.296875 72.90625 
L 61.375 72.90625 
L 61.375 64.59375 
L 35.5 64.59375 
L 35.5 0 
L 25.59375 0 
L 25.59375 64.59375 
L -0.296875 64.59375 
z
" id="DejaVuSans-84"/>
       <path d="M 9.421875 54.6875 
L 18.40625 54.6875 
L 18.40625 0 
L 9.421875 0 
z
M 9.421875 75.984375 
L 18.40625 75.984375 
L 18.40625 64.59375 
L 9.421875 64.59375 
z
" id="DejaVuSans-105"/>
       <path d="M 52 44.1875 
Q 55.375 50.25 60.0625 53.125 
Q 64.75 56 71.09375 56 
Q 79.640625 56 84.28125 50.015625 
Q 88.921875 44.046875 88.921875 33.015625 
L 88.921875 0 
L 79.890625 0 
L 79.890625 32.71875 
Q 79.890625 40.578125 77.09375 44.375 
Q 74.3125 48.1875 68.609375 48.1875 
Q 61.625 48.1875 57.5625 43.546875 
Q 53.515625 38.921875 53.515625 30.90625 
L 53.515625 0 
L 44.484375 0 
L 44.484375 32.71875 
Q 44.484375 40.625 41.703125 44.40625 
Q 38.921875 48.1875 33.109375 48.1875 
Q 26.21875 48.1875 22.15625 43.53125 
Q 18.109375 38.875 18.109375 30.90625 
L 18.109375 0 
L 9.078125 0 
L 9.078125 54.6875 
L 18.109375 54.6875 
L 18.109375 46.1875 
Q 21.1875 51.21875 25.484375 53.609375 
Q 29.78125 56 35.6875 56 
Q 41.65625 56 45.828125 52.96875 
Q 50 49.953125 52 44.1875 
z
" id="DejaVuSans-109"/>
       <path d="M 56.203125 29.59375 
L 56.203125 25.203125 
L 14.890625 25.203125 
Q 15.484375 15.921875 20.484375 11.0625 
Q 25.484375 6.203125 34.421875 6.203125 
Q 39.59375 6.203125 44.453125 7.46875 
Q 49.3125 8.734375 54.109375 11.28125 
L 54.109375 2.78125 
Q 49.265625 0.734375 44.1875 -0.34375 
Q 39.109375 -1.421875 33.890625 -1.421875 
Q 20.796875 -1.421875 13.15625 6.1875 
Q 5.515625 13.8125 5.515625 26.8125 
Q 5.515625 40.234375 12.765625 48.109375 
Q 20.015625 56 32.328125 56 
Q 43.359375 56 49.78125 48.890625 
Q 56.203125 41.796875 56.203125 29.59375 
z
M 47.21875 32.234375 
Q 47.125 39.59375 43.09375 43.984375 
Q 39.0625 48.390625 32.421875 48.390625 
Q 24.90625 48.390625 20.390625 44.140625 
Q 15.875 39.890625 15.1875 32.171875 
z
" id="DejaVuSans-101"/>
       <path id="DejaVuSans-32"/>
       <path d="M 31 75.875 
Q 24.46875 64.65625 21.28125 53.65625 
Q 18.109375 42.671875 18.109375 31.390625 
Q 18.109375 20.125 21.3125 9.0625 
Q 24.515625 -2 31 -13.1875 
L 23.1875 -13.1875 
Q 15.875 -1.703125 12.234375 9.375 
Q 8.59375 20.453125 8.59375 31.390625 
Q 8.59375 42.28125 12.203125 53.3125 
Q 15.828125 64.359375 23.1875 75.875 
z
" id="DejaVuSans-40"/>
       <path d="M -1.3125 -20.796875 
L 13.375 54.6875 
L 22.40625 54.6875 
L 15.765625 20.65625 
Q 15.578125 19.625 15.421875 18.359375 
Q 15.28125 17.09375 15.28125 15.828125 
Q 15.28125 11.28125 18.140625 8.828125 
Q 21 6.390625 26.3125 6.390625 
Q 33.546875 6.390625 37.984375 10.484375 
Q 42.4375 14.59375 44 22.796875 
L 50.203125 54.6875 
L 59.1875 54.6875 
L 51.03125 12.640625 
Q 50.828125 11.71875 50.75 11.03125 
Q 50.6875 10.359375 50.6875 9.8125 
Q 50.6875 8.296875 51.296875 7.59375 
Q 51.90625 6.890625 53.21875 6.890625 
Q 53.71875 6.890625 54.5625 7.125 
Q 55.421875 7.375 56.984375 8.015625 
L 55.609375 0.78125 
Q 53.46875 -0.296875 51.515625 -0.859375 
Q 49.5625 -1.421875 47.703125 -1.421875 
Q 44.484375 -1.421875 42.65625 0.625 
Q 40.828125 2.6875 40.828125 6.296875 
Q 38.09375 2.390625 34.296875 0.484375 
Q 30.515625 -1.421875 25.390625 -1.421875 
Q 20.84375 -1.421875 17.453125 0.671875 
Q 14.0625 2.78125 12.984375 6.203125 
L 7.71875 -20.796875 
z
" id="DejaVuSans-Oblique-956"/>
       <path d="M 50 53.078125 
L 48.296875 44.578125 
Q 44.734375 46.53125 40.765625 47.5 
Q 36.8125 48.484375 32.625 48.484375 
Q 25.53125 48.484375 21.453125 46.0625 
Q 17.390625 43.65625 17.390625 39.5 
Q 17.390625 34.671875 26.859375 32.078125 
Q 27.59375 31.890625 27.9375 31.78125 
L 30.8125 30.90625 
Q 39.796875 28.421875 42.796875 25.6875 
Q 45.796875 22.953125 45.796875 18.21875 
Q 45.796875 9.515625 38.890625 4.046875 
Q 31.984375 -1.421875 20.796875 -1.421875 
Q 16.453125 -1.421875 11.671875 -0.578125 
Q 6.890625 0.25 1.125 2 
L 2.875 11.28125 
Q 7.8125 8.734375 12.59375 7.421875 
Q 17.390625 6.109375 21.78125 6.109375 
Q 28.375 6.109375 32.5 8.9375 
Q 36.625 11.765625 36.625 16.109375 
Q 36.625 20.796875 25.78125 23.6875 
L 24.859375 23.921875 
L 21.78125 24.703125 
Q 14.9375 26.515625 11.765625 29.46875 
Q 8.59375 32.421875 8.59375 37.015625 
Q 8.59375 45.75 15.15625 50.875 
Q 21.734375 56 33.015625 56 
Q 37.453125 56 41.671875 55.265625 
Q 45.90625 54.546875 50 53.078125 
z
" id="DejaVuSans-Oblique-115"/>
       <path d="M 8.015625 75.875 
L 15.828125 75.875 
Q 23.140625 64.359375 26.78125 53.3125 
Q 30.421875 42.28125 30.421875 31.390625 
Q 30.421875 20.453125 26.78125 9.375 
Q 23.140625 -1.703125 15.828125 -13.1875 
L 8.015625 -13.1875 
Q 14.5 -2 17.703125 9.0625 
Q 20.90625 20.125 20.90625 31.390625 
Q 20.90625 42.671875 17.703125 53.65625 
Q 14.5 64.65625 8.015625 75.875 
z
" id="DejaVuSans-41"/>
      </defs>
      <use transform="translate(0 0.015625)" xlink:href="#DejaVuSans-84"/>
      <use transform="translate(61.083984 0.015625)" xlink:href="#DejaVuSans-105"/>
      <use transform="translate(88.867188 0.015625)" xlink:href="#DejaVuSans-109"/>
      <use transform="translate(186.279297 0.015625)" xlink:href="#DejaVuSans-101"/>
      <use transform="translate(247.802734 0.015625)" xlink:href="#DejaVuSans-32"/>
      <use transform="translate(279.589844 0.015625)" xlink:href="#DejaVuSans-40"/>
      <use transform="translate(318.603516 0.015625)" xlink:href="#DejaVuSans-Oblique-956"/>
      <use transform="translate(382.226562 0.015625)" xlink:href="#DejaVuSans-Oblique-115"/>
      <use transform="translate(434.326172 0.015625)" xlink:href="#DejaVuSans-41"/>
     </g>
    </g>
   </g>
   <g id="matplotlib.axis_2">
    <g id="ytick_1">
     <g id="line2d_13">
      <path clip-path="url(#p304c686b55)" d="M 61.410938 279.010828 
L 418.530938 279.010828 
" style="fill:none;stroke:#b0b0b0;stroke-linecap:square;stroke-width:0.8;"/>
     </g>
     <g id="line2d_14">
      <defs>
       <path d="M 0 0 
L -3.5 0 
" id="mc3ce260a5b" style="stroke:#000000;stroke-width:0.8;"/>
      </defs>
      <g>
       <use style="stroke:#000000;stroke-width:0.8;" x="61.410938" xlink:href="#mc3ce260a5b" y="279.010828"/>
      </g>
     </g>
     <g id="text_8">
      <!-- 0.0 -->
      <g transform="translate(30.55625 284.709656)scale(0.15 -0.15)">
       <defs>
        <path d="M 10.6875 12.40625 
L 21 12.40625 
L 21 0 
L 10.6875 0 
z
" id="DejaVuSans-46"/>
       </defs>
       <use xlink:href="#DejaVuSans-48"/>
       <use x="63.623047" xlink:href="#DejaVuSans-46"/>
       <use x="95.410156" xlink:href="#DejaVuSans-48"/>
      </g>
     </g>
    </g>
    <g id="ytick_2">
     <g id="line2d_15">
      <path clip-path="url(#p304c686b55)" d="M 61.410938 225.788428 
L 418.530938 225.788428 
" style="fill:none;stroke:#b0b0b0;stroke-linecap:square;stroke-width:0.8;"/>
     </g>
     <g id="line2d_16">
      <g>
       <use style="stroke:#000000;stroke-width:0.8;" x="61.410938" xlink:href="#mc3ce260a5b" y="225.788428"/>
      </g>
     </g>
     <g id="text_9">
      <!-- 0.2 -->
      <g transform="translate(30.55625 231.487256)scale(0.15 -0.15)">
       <use xlink:href="#DejaVuSans-48"/>
       <use x="63.623047" xlink:href="#DejaVuSans-46"/>
       <use x="95.410156" xlink:href="#DejaVuSans-50"/>
      </g>
     </g>
    </g>
    <g id="ytick_3">
     <g id="line2d_17">
      <path clip-path="url(#p304c686b55)" d="M 61.410938 172.566028 
L 418.530938 172.566028 
" style="fill:none;stroke:#b0b0b0;stroke-linecap:square;stroke-width:0.8;"/>
     </g>
     <g id="line2d_18">
      <g>
       <use style="stroke:#000000;stroke-width:0.8;" x="61.410938" xlink:href="#mc3ce260a5b" y="172.566028"/>
      </g>
     </g>
     <g id="text_10">
      <!-- 0.4 -->
      <g transform="translate(30.55625 178.264856)scale(0.15 -0.15)">
       <defs>
        <path d="M 37.796875 64.3125 
L 12.890625 25.390625 
L 37.796875 25.390625 
z
M 35.203125 72.90625 
L 47.609375 72.90625 
L 47.609375 25.390625 
L 58.015625 25.390625 
L 58.015625 17.1875 
L 47.609375 17.1875 
L 47.609375 0 
L 37.796875 0 
L 37.796875 17.1875 
L 4.890625 17.1875 
L 4.890625 26.703125 
z
" id="DejaVuSans-52"/>
       </defs>
       <use xlink:href="#DejaVuSans-48"/>
       <use x="63.623047" xlink:href="#DejaVuSans-46"/>
       <use x="95.410156" xlink:href="#DejaVuSans-52"/>
      </g>
     </g>
    </g>
    <g id="ytick_4">
     <g id="line2d_19">
      <path clip-path="url(#p304c686b55)" d="M 61.410938 119.343628 
L 418.530938 119.343628 
" style="fill:none;stroke:#b0b0b0;stroke-linecap:square;stroke-width:0.8;"/>
     </g>
     <g id="line2d_20">
      <g>
       <use style="stroke:#000000;stroke-width:0.8;" x="61.410938" xlink:href="#mc3ce260a5b" y="119.343628"/>
      </g>
     </g>
     <g id="text_11">
      <!-- 0.6 -->
      <g transform="translate(30.55625 125.042456)scale(0.15 -0.15)">
       <defs>
        <path d="M 33.015625 40.375 
Q 26.375 40.375 22.484375 35.828125 
Q 18.609375 31.296875 18.609375 23.390625 
Q 18.609375 15.53125 22.484375 10.953125 
Q 26.375 6.390625 33.015625 6.390625 
Q 39.65625 6.390625 43.53125 10.953125 
Q 47.40625 15.53125 47.40625 23.390625 
Q 47.40625 31.296875 43.53125 35.828125 
Q 39.65625 40.375 33.015625 40.375 
z
M 52.59375 71.296875 
L 52.59375 62.3125 
Q 48.875 64.0625 45.09375 64.984375 
Q 41.3125 65.921875 37.59375 65.921875 
Q 27.828125 65.921875 22.671875 59.328125 
Q 17.53125 52.734375 16.796875 39.40625 
Q 19.671875 43.65625 24.015625 45.921875 
Q 28.375 48.1875 33.59375 48.1875 
Q 44.578125 48.1875 50.953125 41.515625 
Q 57.328125 34.859375 57.328125 23.390625 
Q 57.328125 12.15625 50.6875 5.359375 
Q 44.046875 -1.421875 33.015625 -1.421875 
Q 20.359375 -1.421875 13.671875 8.265625 
Q 6.984375 17.96875 6.984375 36.375 
Q 6.984375 53.65625 15.1875 63.9375 
Q 23.390625 74.21875 37.203125 74.21875 
Q 40.921875 74.21875 44.703125 73.484375 
Q 48.484375 72.75 52.59375 71.296875 
z
" id="DejaVuSans-54"/>
       </defs>
       <use xlink:href="#DejaVuSans-48"/>
       <use x="63.623047" xlink:href="#DejaVuSans-46"/>
       <use x="95.410156" xlink:href="#DejaVuSans-54"/>
      </g>
     </g>
    </g>
    <g id="ytick_5">
     <g id="line2d_21">
      <path clip-path="url(#p304c686b55)" d="M 61.410938 66.121228 
L 418.530938 66.121228 
" style="fill:none;stroke:#b0b0b0;stroke-linecap:square;stroke-width:0.8;"/>
     </g>
     <g id="line2d_22">
      <g>
       <use style="stroke:#000000;stroke-width:0.8;" x="61.410938" xlink:href="#mc3ce260a5b" y="66.121228"/>
      </g>
     </g>
     <g id="text_12">
      <!-- 0.8 -->
      <g transform="translate(30.55625 71.820056)scale(0.15 -0.15)">
       <defs>
        <path d="M 31.78125 34.625 
Q 24.75 34.625 20.71875 30.859375 
Q 16.703125 27.09375 16.703125 20.515625 
Q 16.703125 13.921875 20.71875 10.15625 
Q 24.75 6.390625 31.78125 6.390625 
Q 38.8125 6.390625 42.859375 10.171875 
Q 46.921875 13.96875 46.921875 20.515625 
Q 46.921875 27.09375 42.890625 30.859375 
Q 38.875 34.625 31.78125 34.625 
z
M 21.921875 38.8125 
Q 15.578125 40.375 12.03125 44.71875 
Q 8.5 49.078125 8.5 55.328125 
Q 8.5 64.0625 14.71875 69.140625 
Q 20.953125 74.21875 31.78125 74.21875 
Q 42.671875 74.21875 48.875 69.140625 
Q 55.078125 64.0625 55.078125 55.328125 
Q 55.078125 49.078125 51.53125 44.71875 
Q 48 40.375 41.703125 38.8125 
Q 48.828125 37.15625 52.796875 32.3125 
Q 56.78125 27.484375 56.78125 20.515625 
Q 56.78125 9.90625 50.3125 4.234375 
Q 43.84375 -1.421875 31.78125 -1.421875 
Q 19.734375 -1.421875 13.25 4.234375 
Q 6.78125 9.90625 6.78125 20.515625 
Q 6.78125 27.484375 10.78125 32.3125 
Q 14.796875 37.15625 21.921875 38.8125 
z
M 18.3125 54.390625 
Q 18.3125 48.734375 21.84375 45.5625 
Q 25.390625 42.390625 31.78125 42.390625 
Q 38.140625 42.390625 41.71875 45.5625 
Q 45.3125 48.734375 45.3125 54.390625 
Q 45.3125 60.0625 41.71875 63.234375 
Q 38.140625 66.40625 31.78125 66.40625 
Q 25.390625 66.40625 21.84375 63.234375 
Q 18.3125 60.0625 18.3125 54.390625 
z
" id="DejaVuSans-56"/>
       </defs>
       <use xlink:href="#DejaVuSans-48"/>
       <use x="63.623047" xlink:href="#DejaVuSans-46"/>
       <use x="95.410156" xlink:href="#DejaVuSans-56"/>
      </g>
     </g>
    </g>
    <g id="ytick_6">
     <g id="line2d_23">
      <path clip-path="url(#p304c686b55)" d="M 61.410938 12.898828 
L 418.530938 12.898828 
" style="fill:none;stroke:#b0b0b0;stroke-linecap:square;stroke-width:0.8;"/>
     </g>
     <g id="line2d_24">
      <g>
       <use style="stroke:#000000;stroke-width:0.8;" x="61.410938" xlink:href="#mc3ce260a5b" y="12.898828"/>
      </g>
     </g>
     <g id="text_13">
      <!-- 1.0 -->
      <g transform="translate(30.55625 18.597656)scale(0.15 -0.15)">
       <use xlink:href="#DejaVuSans-49"/>
       <use x="63.623047" xlink:href="#DejaVuSans-46"/>
       <use x="95.410156" xlink:href="#DejaVuSans-48"/>
      </g>
     </g>
    </g>
    <g id="text_14">
     <!-- F=1 population -->
     <g transform="translate(22.396875 222.840766)rotate(-90)scale(0.2 -0.2)">
      <defs>
       <path d="M 9.8125 72.90625 
L 51.703125 72.90625 
L 51.703125 64.59375 
L 19.671875 64.59375 
L 19.671875 43.109375 
L 48.578125 43.109375 
L 48.578125 34.8125 
L 19.671875 34.8125 
L 19.671875 0 
L 9.8125 0 
z
" id="DejaVuSans-70"/>
       <path d="M 10.59375 45.40625 
L 73.1875 45.40625 
L 73.1875 37.203125 
L 10.59375 37.203125 
z
M 10.59375 25.484375 
L 73.1875 25.484375 
L 73.1875 17.1875 
L 10.59375 17.1875 
z
" id="DejaVuSans-61"/>
       <path d="M 18.109375 8.203125 
L 18.109375 -20.796875 
L 9.078125 -20.796875 
L 9.078125 54.6875 
L 18.109375 54.6875 
L 18.109375 46.390625 
Q 20.953125 51.265625 25.265625 53.625 
Q 29.59375 56 35.59375 56 
Q 45.5625 56 51.78125 48.09375 
Q 58.015625 40.1875 58.015625 27.296875 
Q 58.015625 14.40625 51.78125 6.484375 
Q 45.5625 -1.421875 35.59375 -1.421875 
Q 29.59375 -1.421875 25.265625 0.953125 
Q 20.953125 3.328125 18.109375 8.203125 
z
M 48.6875 27.296875 
Q 48.6875 37.203125 44.609375 42.84375 
Q 40.53125 48.484375 33.40625 48.484375 
Q 26.265625 48.484375 22.1875 42.84375 
Q 18.109375 37.203125 18.109375 27.296875 
Q 18.109375 17.390625 22.1875 11.75 
Q 26.265625 6.109375 33.40625 6.109375 
Q 40.53125 6.109375 44.609375 11.75 
Q 48.6875 17.390625 48.6875 27.296875 
z
" id="DejaVuSans-112"/>
       <path d="M 30.609375 48.390625 
Q 23.390625 48.390625 19.1875 42.75 
Q 14.984375 37.109375 14.984375 27.296875 
Q 14.984375 17.484375 19.15625 11.84375 
Q 23.34375 6.203125 30.609375 6.203125 
Q 37.796875 6.203125 41.984375 11.859375 
Q 46.1875 17.53125 46.1875 27.296875 
Q 46.1875 37.015625 41.984375 42.703125 
Q 37.796875 48.390625 30.609375 48.390625 
z
M 30.609375 56 
Q 42.328125 56 49.015625 48.375 
Q 55.71875 40.765625 55.71875 27.296875 
Q 55.71875 13.875 49.015625 6.21875 
Q 42.328125 -1.421875 30.609375 -1.421875 
Q 18.84375 -1.421875 12.171875 6.21875 
Q 5.515625 13.875 5.515625 27.296875 
Q 5.515625 40.765625 12.171875 48.375 
Q 18.84375 56 30.609375 56 
z
" id="DejaVuSans-111"/>
       <path d="M 8.5 21.578125 
L 8.5 54.6875 
L 17.484375 54.6875 
L 17.484375 21.921875 
Q 17.484375 14.15625 20.5 10.265625 
Q 23.53125 6.390625 29.59375 6.390625 
Q 36.859375 6.390625 41.078125 11.03125 
Q 45.3125 15.671875 45.3125 23.6875 
L 45.3125 54.6875 
L 54.296875 54.6875 
L 54.296875 0 
L 45.3125 0 
L 45.3125 8.40625 
Q 42.046875 3.421875 37.71875 1 
Q 33.40625 -1.421875 27.6875 -1.421875 
Q 18.265625 -1.421875 13.375 4.4375 
Q 8.5 10.296875 8.5 21.578125 
z
M 31.109375 56 
z
" id="DejaVuSans-117"/>
       <path d="M 9.421875 75.984375 
L 18.40625 75.984375 
L 18.40625 0 
L 9.421875 0 
z
" id="DejaVuSans-108"/>
       <path d="M 34.28125 27.484375 
Q 23.390625 27.484375 19.1875 25 
Q 14.984375 22.515625 14.984375 16.5 
Q 14.984375 11.71875 18.140625 8.90625 
Q 21.296875 6.109375 26.703125 6.109375 
Q 34.1875 6.109375 38.703125 11.40625 
Q 43.21875 16.703125 43.21875 25.484375 
L 43.21875 27.484375 
z
M 52.203125 31.203125 
L 52.203125 0 
L 43.21875 0 
L 43.21875 8.296875 
Q 40.140625 3.328125 35.546875 0.953125 
Q 30.953125 -1.421875 24.3125 -1.421875 
Q 15.921875 -1.421875 10.953125 3.296875 
Q 6 8.015625 6 15.921875 
Q 6 25.140625 12.171875 29.828125 
Q 18.359375 34.515625 30.609375 34.515625 
L 43.21875 34.515625 
L 43.21875 35.40625 
Q 43.21875 41.609375 39.140625 45 
Q 35.0625 48.390625 27.6875 48.390625 
Q 23 48.390625 18.546875 47.265625 
Q 14.109375 46.140625 10.015625 43.890625 
L 10.015625 52.203125 
Q 14.9375 54.109375 19.578125 55.046875 
Q 24.21875 56 28.609375 56 
Q 40.484375 56 46.34375 49.84375 
Q 52.203125 43.703125 52.203125 31.203125 
z
" id="DejaVuSans-97"/>
       <path d="M 18.3125 70.21875 
L 18.3125 54.6875 
L 36.8125 54.6875 
L 36.8125 47.703125 
L 18.3125 47.703125 
L 18.3125 18.015625 
Q 18.3125 11.328125 20.140625 9.421875 
Q 21.96875 7.515625 27.59375 7.515625 
L 36.8125 7.515625 
L 36.8125 0 
L 27.59375 0 
Q 17.1875 0 13.234375 3.875 
Q 9.28125 7.765625 9.28125 18.015625 
L 9.28125 47.703125 
L 2.6875 47.703125 
L 2.6875 54.6875 
L 9.28125 54.6875 
L 9.28125 70.21875 
z
" id="DejaVuSans-116"/>
       <path d="M 54.890625 33.015625 
L 54.890625 0 
L 45.90625 0 
L 45.90625 32.71875 
Q 45.90625 40.484375 42.875 44.328125 
Q 39.84375 48.1875 33.796875 48.1875 
Q 26.515625 48.1875 22.3125 43.546875 
Q 18.109375 38.921875 18.109375 30.90625 
L 18.109375 0 
L 9.078125 0 
L 9.078125 54.6875 
L 18.109375 54.6875 
L 18.109375 46.1875 
Q 21.34375 51.125 25.703125 53.5625 
Q 30.078125 56 35.796875 56 
Q 45.21875 56 50.046875 50.171875 
Q 54.890625 44.34375 54.890625 33.015625 
z
" id="DejaVuSans-110"/>
      </defs>
      <use xlink:href="#DejaVuSans-70"/>
      <use x="57.519531" xlink:href="#DejaVuSans-61"/>
      <use x="141.308594" xlink:href="#DejaVuSans-49"/>
      <use x="204.931641" xlink:href="#DejaVuSans-32"/>
      <use x="236.71875" xlink:href="#DejaVuSans-112"/>
      <use x="300.195312" xlink:href="#DejaVuSans-111"/>
      <use x="361.376953" xlink:href="#DejaVuSans-112"/>
      <use x="424.853516" xlink:href="#DejaVuSans-117"/>
      <use x="488.232422" xlink:href="#DejaVuSans-108"/>
      <use x="516.015625" xlink:href="#DejaVuSans-97"/>
      <use x="577.294922" xlink:href="#DejaVuSans-116"/>
      <use x="616.503906" xlink:href="#DejaVuSans-105"/>
      <use x="644.287109" xlink:href="#DejaVuSans-111"/>
      <use x="705.46875" xlink:href="#DejaVuSans-110"/>
     </g>
    </g>
   </g>
   <g id="LineCollection_1">
    <path clip-path="url(#p304c686b55)" d="M 61.410938 279.010828 
L 61.410938 277.828108 
" style="fill:none;stroke:#1f77b4;stroke-width:1.5;"/>
    <path clip-path="url(#p304c686b55)" d="M 70.090938 206.975733 
L 70.090938 190.665924 
" style="fill:none;stroke:#1f77b4;stroke-width:1.5;"/>
    <path clip-path="url(#p304c686b55)" d="M 78.770938 74.620388 
L 78.770938 60.880582 
" style="fill:none;stroke:#1f77b4;stroke-width:1.5;"/>
    <path clip-path="url(#p304c686b55)" d="M 87.450938 40.107283 
L 87.450938 30.243061 
" style="fill:none;stroke:#1f77b4;stroke-width:1.5;"/>
    <path clip-path="url(#p304c686b55)" d="M 96.130938 147.588579 
L 96.130938 129.468314 
" style="fill:none;stroke:#1f77b4;stroke-width:1.5;"/>
    <path clip-path="url(#p304c686b55)" d="M 104.810938 259.933109 
L 104.810938 249.811592 
" style="fill:none;stroke:#1f77b4;stroke-width:1.5;"/>
    <path clip-path="url(#p304c686b55)" d="M 113.490938 266.493926 
L 113.490938 257.636108 
" style="fill:none;stroke:#1f77b4;stroke-width:1.5;"/>
    <path clip-path="url(#p304c686b55)" d="M 122.170938 141.456265 
L 122.170938 124.071598 
" style="fill:none;stroke:#1f77b4;stroke-width:1.5;"/>
    <path clip-path="url(#p304c686b55)" d="M 130.850938 48.845379 
L 130.850938 37.936277 
" style="fill:none;stroke:#1f77b4;stroke-width:1.5;"/>
    <path clip-path="url(#p304c686b55)" d="M 139.530938 90.59395 
L 139.530938 74.535932 
" style="fill:none;stroke:#1f77b4;stroke-width:1.5;"/>
    <path clip-path="url(#p304c686b55)" d="M 148.210938 204.457803 
L 148.210938 187.848653 
" style="fill:none;stroke:#1f77b4;stroke-width:1.5;"/>
    <path clip-path="url(#p304c686b55)" d="M 156.890938 273.936234 
L 156.890938 268.370147 
" style="fill:none;stroke:#1f77b4;stroke-width:1.5;"/>
    <path clip-path="url(#p304c686b55)" d="M 165.570938 204.457803 
L 165.570938 187.848653 
" style="fill:none;stroke:#1f77b4;stroke-width:1.5;"/>
    <path clip-path="url(#p304c686b55)" d="M 174.250938 94.495261 
L 174.250938 78.166093 
" style="fill:none;stroke:#1f77b4;stroke-width:1.5;"/>
    <path clip-path="url(#p304c686b55)" d="M 182.930938 51.391687 
L 182.930938 40.09889 
" style="fill:none;stroke:#1f77b4;stroke-width:1.5;"/>
    <path clip-path="url(#p304c686b55)" d="M 191.610938 136.470504 
L 191.610938 118.937063 
" style="fill:none;stroke:#1f77b4;stroke-width:1.5;"/>
    <path clip-path="url(#p304c686b55)" d="M 200.290938 252.158504 
L 200.290938 240.523152 
" style="fill:none;stroke:#1f77b4;stroke-width:1.5;"/>
    <path clip-path="url(#p304c686b55)" d="M 208.970938 257.517525 
L 208.970938 246.528584 
" style="fill:none;stroke:#1f77b4;stroke-width:1.5;"/>
    <path clip-path="url(#p304c686b55)" d="M 217.650938 155.438917 
L 217.650938 137.658739 
" style="fill:none;stroke:#1f77b4;stroke-width:1.5;"/>
    <path clip-path="url(#p304c686b55)" d="M 226.330938 56.227129 
L 226.330938 44.127769 
" style="fill:none;stroke:#1f77b4;stroke-width:1.5;"/>
    <path clip-path="url(#p304c686b55)" d="M 235.010938 69.850812 
L 235.010938 55.88936 
" style="fill:none;stroke:#1f77b4;stroke-width:1.5;"/>
    <path clip-path="url(#p304c686b55)" d="M 243.690938 216.458353 
L 243.690938 200.819624 
" style="fill:none;stroke:#1f77b4;stroke-width:1.5;"/>
    <path clip-path="url(#p304c686b55)" d="M 252.370938 265.142639 
L 252.370938 256.214697 
" style="fill:none;stroke:#1f77b4;stroke-width:1.5;"/>
    <path clip-path="url(#p304c686b55)" d="M 261.050938 215.605602 
L 261.050938 199.94016 
" style="fill:none;stroke:#1f77b4;stroke-width:1.5;"/>
    <path clip-path="url(#p304c686b55)" d="M 269.730938 113.975742 
L 269.730938 96.890714 
" style="fill:none;stroke:#1f77b4;stroke-width:1.5;"/>
    <path clip-path="url(#p304c686b55)" d="M 278.410938 49.757999 
L 278.410938 38.587349 
" style="fill:none;stroke:#1f77b4;stroke-width:1.5;"/>
    <path clip-path="url(#p304c686b55)" d="M 287.090938 124.918918 
L 287.090938 108.337481 
" style="fill:none;stroke:#1f77b4;stroke-width:1.5;"/>
    <path clip-path="url(#p304c686b55)" d="M 295.770938 247.124471 
L 295.770938 234.327223 
" style="fill:none;stroke:#1f77b4;stroke-width:1.5;"/>
    <path clip-path="url(#p304c686b55)" d="M 304.450938 260.667324 
L 304.450938 250.604926 
" style="fill:none;stroke:#1f77b4;stroke-width:1.5;"/>
    <path clip-path="url(#p304c686b55)" d="M 313.130938 163.617129 
L 313.130938 145.954828 
" style="fill:none;stroke:#1f77b4;stroke-width:1.5;"/>
    <path clip-path="url(#p304c686b55)" d="M 321.810938 69.592758 
L 321.810938 55.537027 
" style="fill:none;stroke:#1f77b4;stroke-width:1.5;"/>
    <path clip-path="url(#p304c686b55)" d="M 330.490938 71.479344 
L 330.490938 57.86817 
" style="fill:none;stroke:#1f77b4;stroke-width:1.5;"/>
    <path clip-path="url(#p304c686b55)" d="M 339.170938 193.475657 
L 339.170938 176.633578 
" style="fill:none;stroke:#1f77b4;stroke-width:1.5;"/>
    <path clip-path="url(#p304c686b55)" d="M 347.850938 254.99781 
L 347.850938 244.016403 
" style="fill:none;stroke:#1f77b4;stroke-width:1.5;"/>
    <path clip-path="url(#p304c686b55)" d="M 356.530938 230.398214 
L 356.530938 215.088517 
" style="fill:none;stroke:#1f77b4;stroke-width:1.5;"/>
    <path clip-path="url(#p304c686b55)" d="M 365.210938 118.273477 
L 365.210938 101.168179 
" style="fill:none;stroke:#1f77b4;stroke-width:1.5;"/>
    <path clip-path="url(#p304c686b55)" d="M 373.890938 61.339751 
L 373.890938 48.431025 
" style="fill:none;stroke:#1f77b4;stroke-width:1.5;"/>
    <path clip-path="url(#p304c686b55)" d="M 382.570938 126.796576 
L 382.570938 109.217409 
" style="fill:none;stroke:#1f77b4;stroke-width:1.5;"/>
    <path clip-path="url(#p304c686b55)" d="M 391.250938 225.700423 
L 391.250938 211.155344 
" style="fill:none;stroke:#1f77b4;stroke-width:1.5;"/>
    <path clip-path="url(#p304c686b55)" d="M 399.930938 245.233639 
L 399.930938 232.474937 
" style="fill:none;stroke:#1f77b4;stroke-width:1.5;"/>
    <path clip-path="url(#p304c686b55)" d="M 408.610938 172.079916 
L 408.610938 154.166773 
" style="fill:none;stroke:#1f77b4;stroke-width:1.5;"/>
   </g>
   <g id="LineCollection_2">
    <path clip-path="url(#p304c686b55)" d="M 61.410938 274.780846 
L 61.410938 267.789145 
" style="fill:none;stroke:#d62728;stroke-width:1.5;"/>
    <path clip-path="url(#p304c686b55)" d="M 70.090938 237.288136 
L 70.090938 220.729648 
" style="fill:none;stroke:#d62728;stroke-width:1.5;"/>
    <path clip-path="url(#p304c686b55)" d="M 78.770938 163.039554 
L 78.770938 142.093059 
" style="fill:none;stroke:#d62728;stroke-width:1.5;"/>
    <path clip-path="url(#p304c686b55)" d="M 87.450938 100.968772 
L 87.450938 81.851493 
" style="fill:none;stroke:#d62728;stroke-width:1.5;"/>
    <path clip-path="url(#p304c686b55)" d="M 96.130938 120.325553 
L 96.130938 100.066503 
" style="fill:none;stroke:#d62728;stroke-width:1.5;"/>
    <path clip-path="url(#p304c686b55)" d="M 104.810938 144.831053 
L 104.810938 123.938429 
" style="fill:none;stroke:#d62728;stroke-width:1.5;"/>
    <path clip-path="url(#p304c686b55)" d="M 113.490938 184.938079 
L 113.490938 163.995578 
" style="fill:none;stroke:#d62728;stroke-width:1.5;"/>
    <path clip-path="url(#p304c686b55)" d="M 122.170938 205.850105 
L 122.170938 185.851552 
" style="fill:none;stroke:#d62728;stroke-width:1.5;"/>
    <path clip-path="url(#p304c686b55)" d="M 130.850938 159.144608 
L 130.850938 138.917927 
" style="fill:none;stroke:#d62728;stroke-width:1.5;"/>
    <path clip-path="url(#p304c686b55)" d="M 139.530938 147.031917 
L 139.530938 125.362859 
" style="fill:none;stroke:#d62728;stroke-width:1.5;"/>
    <path clip-path="url(#p304c686b55)" d="M 148.210938 115.416312 
L 148.210938 94.472522 
" style="fill:none;stroke:#d62728;stroke-width:1.5;"/>
    <path clip-path="url(#p304c686b55)" d="M 156.890938 156.313224 
L 156.890938 135.596433 
" style="fill:none;stroke:#d62728;stroke-width:1.5;"/>
    <path clip-path="url(#p304c686b55)" d="M 165.570938 182.525487 
L 165.570938 162.285952 
" style="fill:none;stroke:#d62728;stroke-width:1.5;"/>
    <path clip-path="url(#p304c686b55)" d="M 174.250938 184.987566 
L 174.250938 162.844178 
" style="fill:none;stroke:#d62728;stroke-width:1.5;"/>
    <path clip-path="url(#p304c686b55)" d="M 182.930938 185.134895 
L 182.930938 164.404112 
" style="fill:none;stroke:#d62728;stroke-width:1.5;"/>
    <path clip-path="url(#p304c686b55)" d="M 191.610938 134.204782 
L 191.610938 114.130979 
" style="fill:none;stroke:#d62728;stroke-width:1.5;"/>
   </g>
   <g id="line2d_25">
    <path clip-path="url(#p304c686b55)" d="M 61.410938 278.518987 
L 61.768058 278.518987 
L 62.125178 277.612745 
L 62.482298 278.518987 
L 62.839418 276.691051 
L 63.196538 275.70741 
L 64.267898 270.138645 
L 64.625018 267.172801 
L 64.982138 265.354424 
L 65.696378 260.256192 
L 66.053498 255.364881 
L 66.410618 252.831687 
L 68.553338 228.204874 
L 74.267258 139.757768 
L 74.624378 131.957077 
L 74.981498 127.798051 
L 76.409978 105.023916 
L 78.909818 70.386193 
L 81.052538 46.961375 
L 81.409658 45.678745 
L 81.766778 41.75255 
L 82.838138 34.989487 
L 83.909498 30.054773 
L 84.266618 29.207173 
L 84.623738 28.820348 
L 84.980858 28.240204 
L 85.337978 28.240204 
L 85.695098 26.696269 
L 86.052218 26.696269 
L 86.409338 28.452815 
L 86.766458 29.431905 
L 87.123578 31.363239 
L 87.480698 31.74705 
L 87.837818 34.05423 
L 88.194938 35.308944 
L 88.552058 38.109781 
L 88.909178 39.999677 
L 89.623418 45.891255 
L 90.337658 53.397005 
L 90.694778 55.35009 
L 91.409018 64.120253 
L 92.123258 71.871121 
L 92.837498 81.613285 
L 93.194618 85.259926 
L 94.265978 101.575235 
L 94.623098 108.321381 
L 94.980218 112.155731 
L 96.765818 141.310199 
L 98.194298 164.079802 
L 99.265658 180.804597 
L 99.979898 191.629815 
L 102.836858 232.420368 
L 103.193978 236.058284 
L 103.908218 244.938052 
L 105.336698 258.605325 
L 106.050938 264.711402 
L 106.408058 265.21558 
L 106.765178 269.230025 
L 107.122298 269.877271 
L 107.479418 272.30806 
L 107.836538 272.778091 
L 108.907898 276.652764 
L 109.265018 275.094665 
L 109.622138 275.63147 
L 109.979258 277.098432 
L 110.336378 274.485654 
L 110.693498 274.567986 
L 111.050618 273.288688 
L 111.407738 273.066072 
L 111.764858 271.333004 
L 112.121978 269.043216 
L 112.479098 267.920293 
L 113.193338 261.107316 
L 113.550458 259.351817 
L 113.907578 256.963538 
L 116.407418 229.440254 
L 117.121658 219.966616 
L 117.478778 215.652247 
L 118.193018 204.379087 
L 118.550138 200.773378 
L 118.907258 194.055756 
L 119.264378 190.168347 
L 119.621498 184.902163 
L 120.335738 172.818365 
L 121.764218 149.086591 
L 122.121338 144.938243 
L 123.192698 126.489294 
L 123.549818 122.319765 
L 125.335418 95.757712 
L 125.692538 91.750038 
L 126.406778 80.787696 
L 127.835258 63.78096 
L 128.549498 57.212502 
L 129.263738 49.886292 
L 130.335098 42.430565 
L 130.692218 40.19015 
L 131.049338 38.820587 
L 131.406458 36.572402 
L 131.763578 36.16961 
L 132.120698 34.406223 
L 132.477818 33.814156 
L 132.834938 31.702171 
L 133.192058 32.780317 
L 133.549178 31.881689 
L 133.906298 31.935393 
L 134.620538 34.246965 
L 134.977658 34.86669 
L 135.334778 35.25086 
L 135.691898 35.90517 
L 137.120378 45.402831 
L 137.477498 46.974719 
L 138.905978 60.25988 
L 141.762938 95.752648 
L 144.262778 131.94048 
L 147.476858 182.750143 
L 147.833978 186.978997 
L 148.191098 193.925118 
L 148.548218 197.631486 
L 150.333818 222.831304 
L 152.833658 251.325251 
L 153.190778 252.77743 
L 153.905018 258.870525 
L 154.262138 260.492129 
L 154.619258 263.393411 
L 155.690618 268.642854 
L 156.047738 269.256712 
L 156.404858 270.540749 
L 157.119098 271.86145 
L 157.476218 273.753284 
L 158.547578 270.904588 
L 158.904698 271.029374 
L 160.333178 265.472918 
L 161.047418 260.256192 
L 161.761658 255.702736 
L 162.118778 251.615932 
L 162.833018 245.890218 
L 163.547258 238.631976 
L 163.904378 234.969134 
L 164.618618 226.060649 
L 166.761338 197.077744 
L 167.832698 180.622353 
L 173.903738 91.033826 
L 174.975098 78.765858 
L 175.689338 68.387235 
L 176.046458 66.049865 
L 177.832058 50.839761 
L 178.546298 46.650513 
L 178.903418 42.604505 
L 179.260538 41.944176 
L 179.617658 40.323076 
L 179.974778 39.257212 
L 180.331898 37.360072 
L 180.689018 37.150461 
L 181.046138 37.651789 
L 181.403258 36.856314 
L 181.760378 36.724314 
L 182.117498 37.005959 
L 182.474618 37.07821 
L 182.831738 37.840479 
L 183.545978 39.762087 
L 184.974458 47.768572 
L 185.688698 53.744848 
L 186.045818 54.966206 
L 186.402938 59.783487 
L 187.117178 66.171402 
L 187.474298 70.873176 
L 188.188538 76.658152 
L 188.545658 82.744744 
L 188.902778 85.552802 
L 189.259898 91.392919 
L 189.974138 99.551185 
L 190.331258 106.14357 
L 190.688378 109.285324 
L 192.116858 131.88654 
L 193.188218 146.702809 
L 193.902458 157.099986 
L 195.688058 184.449376 
L 197.830778 213.496734 
L 199.259258 231.620812 
L 199.616378 234.528223 
L 199.973498 238.911724 
L 200.687738 244.981363 
L 201.401978 251.975828 
L 202.116218 255.895414 
L 202.830458 260.854909 
L 204.258938 267.667102 
L 204.616058 268.235514 
L 204.973178 269.424646 
L 205.330298 268.16113 
L 205.687418 268.889737 
L 206.044538 268.863752 
L 206.758778 268.16113 
L 207.115898 267.240126 
L 207.473018 265.21558 
L 207.830138 264.506459 
L 208.187258 262.734481 
L 208.901498 258.056639 
L 209.258618 256.630118 
L 211.401338 236.951459 
L 212.829818 220.648843 
L 214.972538 193.055036 
L 217.829498 151.350065 
L 218.186618 146.735186 
L 219.257978 129.493231 
L 219.615098 125.376977 
L 219.972218 119.075858 
L 221.043578 105.334275 
L 221.757818 94.950564 
L 224.614778 63.645578 
L 224.971898 61.882784 
L 226.400378 50.862726 
L 226.757498 49.476393 
L 227.471738 45.537678 
L 227.828858 44.244666 
L 228.543098 42.670336 
L 229.257338 40.152171 
L 229.614458 41.518815 
L 229.971578 42.029302 
L 230.328698 41.536448 
L 230.685818 41.995251 
L 231.042938 43.096499 
L 231.757178 46.152722 
L 232.114298 47.610531 
L 232.471418 50.479001 
L 233.185658 53.765637 
L 233.542778 56.952932 
L 233.899898 59.036255 
L 234.614138 65.422632 
L 234.971258 67.814602 
L 237.471098 95.767841 
L 239.256698 120.524394 
L 239.970938 129.536591 
L 240.685178 140.741197 
L 241.042298 144.865394 
L 243.185018 177.442419 
L 244.613498 196.185953 
L 246.756218 224.139428 
L 249.613178 251.501592 
L 250.327418 254.817577 
L 251.398778 261.817827 
L 252.113018 263.185954 
L 252.470138 263.032728 
L 252.827258 265.060686 
L 253.184378 264.968138 
L 253.541498 264.562353 
L 253.898618 265.660151 
L 254.612858 263.57301 
L 254.969978 263.341439 
L 256.041338 259.076249 
L 256.755578 256.000167 
L 257.112698 252.744876 
L 257.469818 251.522381 
L 258.184057 246.241276 
L 258.541178 241.221402 
L 258.898298 238.972029 
L 261.041018 215.684448 
L 263.183738 189.330574 
L 263.540858 183.087284 
L 263.897978 178.907428 
L 264.612218 167.723482 
L 266.040698 148.00195 
L 268.540538 112.528291 
L 268.897658 108.776094 
L 269.254778 102.575575 
L 269.969018 94.85385 
L 271.397498 78.329045 
L 272.111738 71.536768 
L 272.468858 67.990157 
L 272.825978 65.715715 
L 273.540218 59.342672 
L 273.897338 58.128677 
L 274.254458 55.95974 
L 274.968698 50.144918 
L 275.682938 47.935288 
L 276.397178 47.356112 
L 276.754298 44.796819 
L 277.111418 46.248727 
L 277.468538 44.796819 
L 278.182778 46.113784 
L 278.539898 46.113784 
L 279.254138 48.49764 
L 279.611258 48.959596 
L 280.682618 54.534182 
L 281.039738 55.716596 
L 281.396858 60.207907 
L 281.753978 61.49891 
L 282.825338 70.596628 
L 283.182458 73.355854 
L 286.039418 106.236731 
L 287.467898 125.742332 
L 288.539258 140.267845 
L 291.039098 175.805713 
L 293.896058 214.11278 
L 294.253178 217.117261 
L 294.967418 224.964565 
L 295.324538 228.33696 
L 295.681658 232.892615 
L 296.038778 235.402236 
L 296.753018 242.048627 
L 297.467258 246.736225 
L 297.824378 250.989662 
L 298.181498 252.14172 
L 298.895738 256.57659 
L 299.252858 257.242056 
L 299.609978 258.801951 
L 299.967098 260.909823 
L 301.038458 262.544921 
L 301.395578 263.324116 
L 302.109818 261.945241 
L 302.466938 261.475615 
L 303.181178 259.592938 
L 303.538298 260.285235 
L 303.895418 256.617618 
L 304.252538 254.898899 
L 304.609658 254.215983 
L 305.323898 248.545877 
L 306.752378 238.17824 
L 307.466618 231.252071 
L 307.823738 228.280352 
L 308.537978 219.194356 
L 309.252218 212.398439 
L 309.966458 201.978176 
L 311.037818 188.789916 
L 311.752058 177.618909 
L 312.109178 174.549489 
L 313.180538 159.038579 
L 315.680378 123.808138 
L 319.608698 77.501334 
L 319.965818 74.588661 
L 320.322938 70.71485 
L 320.680058 68.850597 
L 321.037178 64.720606 
L 321.394297 63.037122 
L 321.751418 59.897092 
L 322.108538 58.634495 
L 322.822778 53.536957 
L 323.179898 53.062918 
L 323.537018 52.027086 
L 323.894138 49.392097 
L 324.251258 49.239471 
L 324.965498 48.397643 
L 325.322618 48.947253 
L 325.679738 48.836162 
L 326.036857 48.435142 
L 326.393978 48.749757 
L 326.751098 50.144918 
L 327.822458 52.506898 
L 328.179578 54.765939 
L 328.536698 56.294037 
L 329.965178 66.057461 
L 330.679417 72.532899 
L 332.465018 90.053244 
L 332.822138 93.871659 
L 333.179258 99.469007 
L 333.893498 106.871687 
L 336.036218 135.355024 
L 338.536058 169.93841 
L 338.893178 174.28282 
L 339.607418 184.746922 
L 340.321658 194.381905 
L 341.035898 203.615935 
L 341.393018 206.955005 
L 342.464378 220.444532 
L 343.178618 227.384414 
L 343.892858 236.004968 
L 344.249978 236.944198 
L 345.321338 246.347354 
L 345.678458 248.92122 
L 347.464058 256.887578 
L 347.821178 258.213849 
L 348.178298 258.88424 
L 348.535418 260.009325 
L 348.892538 259.984159 
L 349.249658 261.444756 
L 349.606778 260.660408 
L 349.963898 261.290465 
L 350.321018 259.522404 
L 351.035258 257.53976 
L 351.392378 257.565746 
L 351.749498 256.465499 
L 352.820858 249.63554 
L 353.535098 244.56455 
L 353.892218 243.1997 
L 354.963578 233.692204 
L 355.320698 230.796658 
L 356.034938 223.484411 
L 356.392058 219.938401 
L 356.749178 214.645194 
L 357.463418 207.233064 
L 358.891898 189.867224 
L 359.249018 183.031469 
L 359.606138 179.401182 
L 360.677498 163.937568 
L 361.034618 160.09489 
L 362.463098 139.880187 
L 363.534458 125.911137 
L 364.605818 112.757213 
L 365.320058 102.033884 
L 366.748538 87.459823 
L 367.105658 82.901583 
L 367.462778 80.262661 
L 368.177018 73.127308 
L 369.962618 59.07184 
L 370.319738 58.397495 
L 370.676858 55.765481 
L 371.033978 54.986155 
L 371.391098 53.312964 
L 371.748218 52.678635 
L 372.462458 50.483809 
L 372.819578 50.444148 
L 373.176698 50.144918 
L 373.533818 49.636223 
L 373.890938 50.144918 
L 374.248058 49.862272 
L 374.962298 51.751355 
L 375.676538 55.075926 
L 376.033658 56.188577 
L 376.390778 58.352198 
L 376.747898 59.678621 
L 377.105018 62.931897 
L 377.462138 64.286152 
L 377.819258 68.321886 
L 378.176378 69.763646 
L 378.890618 76.576437 
L 379.604858 83.921963 
L 382.104698 111.799674 
L 383.176058 125.729672 
L 389.604218 211.018805 
L 390.318458 218.542893 
L 391.389818 229.94887 
L 392.104058 236.552068 
L 393.532537 247.415796 
L 394.961018 255.09385 
L 395.318138 255.799075 
L 395.675258 257.938142 
L 396.032378 258.18716 
L 396.389498 260.038368 
L 396.746618 260.344746 
L 397.103738 260.270713 
L 397.460858 259.669314 
L 397.817978 259.697936 
L 398.175098 259.087564 
L 398.889338 257.331265 
L 399.246458 257.885477 
L 399.603578 254.875664 
L 400.317818 252.269137 
L 401.032058 248.224706 
L 401.389178 244.894741 
L 401.746298 243.766558 
L 402.817657 233.371376 
L 403.174778 230.796658 
L 404.246138 220.637493 
L 405.317498 207.962799 
L 407.460218 181.028289 
L 411.745658 122.730158 
L 412.459898 114.174899 
L 413.174138 105.417911 
L 413.531258 101.676395 
L 414.245498 91.991662 
L 414.602618 89.315642 
L 414.959738 84.93264 
L 415.316858 82.138538 
L 415.673978 78.125373 
L 416.388218 72.410569 
L 416.745338 68.785725 
L 417.459578 64.375788 
L 417.816698 61.649544 
L 418.173818 60.41886 
L 418.530938 58.192681 
L 418.530938 58.192681 
" style="fill:none;stroke:#1f77b4;stroke-linecap:square;stroke-width:1.5;"/>
   </g>
   <g id="line2d_26">
    <path clip-path="url(#p304c686b55)" d="M 61.410938 278.515607 
L 62.303738 278.514319 
L 62.601338 278.183313 
L 62.898938 276.746992 
L 63.196538 278.515607 
L 63.494138 276.63656 
L 63.791738 276.435574 
L 64.089338 274.817103 
L 64.386938 274.344104 
L 65.279738 270.544683 
L 65.577338 269.565929 
L 65.874938 267.181839 
L 66.470138 265.081795 
L 67.362938 259.558932 
L 67.660538 259.076692 
L 67.958138 255.829773 
L 68.553338 252.289858 
L 69.446138 246.113866 
L 69.743738 242.500093 
L 70.636538 235.580693 
L 73.314938 210.381585 
L 73.612538 208.322315 
L 74.207738 200.889578 
L 74.505338 198.979711 
L 75.695738 186.473324 
L 76.290938 180.104161 
L 77.183738 170.797045 
L 77.481338 168.184096 
L 78.076538 161.178702 
L 78.374138 159.004727 
L 80.457338 137.818911 
L 81.052538 132.28165 
L 81.647738 127.442022 
L 83.135738 114.710483 
L 83.433338 112.04829 
L 83.730938 110.632509 
L 84.028538 107.134601 
L 84.326138 106.169627 
L 84.623738 103.294645 
L 85.218938 99.953006 
L 86.111738 93.415902 
L 86.706938 91.061026 
L 87.004538 89.248448 
L 87.302138 88.288222 
L 87.599738 85.749345 
L 87.897338 85.015541 
L 88.194938 84.672285 
L 88.492538 82.364308 
L 88.790138 82.526169 
L 89.385338 79.13196 
L 89.682938 79.876456 
L 90.278138 77.57874 
L 90.575738 77.08725 
L 90.873338 77.62784 
L 91.170938 76.626902 
L 91.468538 76.831973 
L 91.766138 76.116645 
L 92.063738 76.81333 
L 92.658938 75.814584 
L 92.956538 75.318334 
L 93.551738 76.626902 
L 94.146938 78.0215 
L 94.444538 77.911702 
L 94.742138 78.277697 
L 95.039738 79.461528 
L 95.337338 79.575332 
L 95.634938 80.351546 
L 95.932538 82.242913 
L 96.230138 82.725078 
L 97.122938 85.627142 
L 97.420538 87.794805 
L 97.718138 88.244992 
L 98.313338 91.01894 
L 98.610938 91.868173 
L 98.908538 93.384991 
L 99.503738 97.386097 
L 99.801338 98.465681 
L 100.396538 101.851514 
L 100.991738 104.738693 
L 101.586938 109.809975 
L 101.884538 110.410042 
L 102.182138 113.113877 
L 102.479738 113.469888 
L 103.372538 121.58309 
L 103.967738 125.114048 
L 104.562938 129.331753 
L 104.860538 130.720989 
L 106.050938 138.77212 
L 106.348538 141.706071 
L 107.241338 146.127792 
L 107.836538 151.410312 
L 108.134138 152.960601 
L 108.729338 157.203586 
L 109.324538 160.166096 
L 110.514938 166.839116 
L 111.407738 172.623402 
L 111.705338 173.049528 
L 112.002938 174.884703 
L 112.300538 177.594922 
L 112.598138 177.837138 
L 113.193338 179.83105 
L 113.788538 184.064445 
L 114.086138 184.055761 
L 114.978938 187.904811 
L 115.276538 188.231823 
L 115.574138 189.981437 
L 115.871738 189.540024 
L 116.466938 191.731224 
L 116.764538 192.695743 
L 117.062138 192.641261 
L 117.359738 194.192615 
L 117.657338 193.240561 
L 117.954938 194.096834 
L 118.252538 194.443234 
L 118.847738 194.658588 
L 119.145338 195.009191 
L 119.442938 195.741101 
L 119.740538 195.105859 
L 120.038138 196.112245 
L 120.335738 195.950383 
L 120.633338 196.338851 
L 120.930938 195.469512 
L 121.228538 196.116869 
L 121.823738 194.534874 
L 122.121338 194.754809 
L 122.716538 193.941761 
L 123.014138 192.868269 
L 123.311738 192.61402 
L 123.609338 192.084745 
L 123.906938 191.245325 
L 124.204538 189.927932 
L 124.502138 189.544483 
L 124.799738 188.661063 
L 125.097338 188.625553 
L 125.394938 186.79009 
L 125.692538 186.97927 
L 125.990138 184.794947 
L 126.287738 184.294565 
L 126.585338 181.455948 
L 126.882938 181.920813 
L 127.180538 181.070715 
L 127.775738 178.973311 
L 128.073338 177.922121 
L 128.370938 176.031842 
L 128.668538 176.516007 
L 128.966138 173.433877 
L 129.561338 172.055233 
L 129.858938 169.880773 
L 130.156538 168.853336 
L 130.454138 167.284692 
L 131.049338 165.470168 
L 131.644538 162.561713 
L 132.239738 160.695876 
L 132.537338 158.735778 
L 132.834938 157.549959 
L 133.132538 155.443195 
L 133.430138 154.673223 
L 133.727738 152.258507 
L 134.025338 151.14652 
L 134.322938 149.466364 
L 134.620538 149.149813 
L 135.215738 146.062592 
L 135.513338 145.369846 
L 135.810938 143.862104 
L 136.406138 142.508054 
L 136.703738 140.29851 
L 137.001338 138.969335 
L 137.298938 138.455753 
L 137.596538 137.416263 
L 138.191738 134.740743 
L 138.489338 133.352873 
L 138.786938 133.700876 
L 139.382138 131.406133 
L 139.679738 130.93823 
L 139.977338 129.814216 
L 140.274938 127.522072 
L 140.572538 128.141399 
L 140.870138 126.323183 
L 141.167738 126.543197 
L 141.762938 124.018287 
L 142.060538 124.973827 
L 142.358138 125.39449 
L 142.655738 124.0951 
L 143.250938 123.311656 
L 143.548538 122.343076 
L 143.846138 122.544506 
L 144.143738 121.966173 
L 144.441338 122.600221 
L 144.738938 121.18279 
L 145.036538 121.011032 
L 145.334138 121.255963 
L 145.631738 121.011032 
L 145.929338 121.961869 
L 146.226938 121.544352 
L 146.524538 121.40231 
L 147.714938 122.159867 
L 148.012538 123.131654 
L 148.310138 123.361114 
L 148.607738 123.058796 
L 149.202938 124.491964 
L 149.500538 124.496231 
L 149.798138 124.069496 
L 150.095738 126.331645 
L 150.393338 125.967776 
L 150.690938 127.072077 
L 150.988538 127.387252 
L 151.286138 128.870266 
L 151.881338 130.558058 
L 152.178938 129.885537 
L 152.476538 131.293335 
L 152.774138 131.30169 
L 153.666938 134.865029 
L 153.964538 136.065488 
L 154.262138 136.494561 
L 154.559738 137.408046 
L 154.857338 137.818911 
L 155.154938 138.998096 
L 155.452538 140.887722 
L 155.750138 141.251887 
L 156.345338 143.104158 
L 156.642938 144.958273 
L 156.940538 145.247597 
L 157.535738 147.778159 
L 158.428538 149.949308 
L 158.726138 151.101878 
L 159.023738 153.122935 
L 159.321338 153.374552 
L 159.618938 154.206514 
L 159.916538 155.651019 
L 160.214138 156.152241 
L 160.511738 158.299755 
L 160.809338 158.886552 
L 161.106938 159.196251 
L 161.404538 161.33828 
L 161.702138 161.604244 
L 161.999738 162.287566 
L 162.297338 163.707554 
L 162.594938 163.785619 
L 162.892538 164.36083 
L 163.190138 164.389591 
L 163.785338 167.969559 
L 164.082938 167.416715 
L 164.380538 168.488761 
L 164.975738 169.6612 
L 165.570938 171.98839 
L 165.868538 171.441881 
L 166.166138 172.669356 
L 166.463738 172.640112 
L 167.058938 174.343505 
L 167.654138 174.469365 
L 168.249338 175.332465 
L 168.546938 175.787481 
L 168.844538 176.477928 
L 169.439738 176.339399 
L 169.737338 176.6514 
L 170.034938 176.685249 
L 170.332538 177.044887 
L 170.630138 176.234071 
L 170.927738 177.307211 
L 171.225338 177.696917 
L 171.522938 177.484915 
L 171.820538 177.892377 
L 172.118138 177.841387 
L 172.415738 177.42145 
L 172.713338 177.590691 
L 173.010938 176.541393 
L 173.606138 176.549855 
L 173.903738 175.328252 
L 174.201338 175.913874 
L 174.498938 174.947633 
L 174.796538 174.863727 
L 175.094138 173.915581 
L 175.391738 173.379567 
L 175.689338 173.421344 
L 175.986938 172.773799 
L 176.284538 171.812141 
L 176.879738 171.666533 
L 177.177338 170.509989 
L 177.474938 170.464227 
L 177.772538 169.636343 
L 178.070138 168.010816 
L 178.367738 167.561115 
L 178.665338 167.424966 
L 178.962938 166.492557 
L 179.260538 165.946772 
L 179.558138 164.225245 
L 179.855738 164.792239 
L 180.748538 161.583785 
L 181.343738 160.744977 
L 181.641338 159.950122 
L 181.938938 159.571149 
L 182.534138 156.596414 
L 182.831738 156.498614 
L 183.129338 154.466248 
L 183.426938 153.764154 
L 183.724538 153.910254 
L 184.617338 152.144873 
L 184.914938 150.200925 
L 185.807738 147.619235 
L 186.105338 147.305461 
L 186.700538 145.170172 
L 186.998138 145.162022 
L 187.295738 144.5467 
L 188.486138 140.269868 
L 188.783738 142.24209 
L 189.081338 140.597208 
L 189.378938 139.614394 
L 189.676538 139.100812 
L 189.974138 138.176364 
L 190.271738 138.176364 
L 190.569338 137.679217 
L 190.866938 136.816366 
L 191.164538 135.281604 
L 191.462138 136.160379 
L 191.759738 134.7656 
L 192.057338 135.022459 
L 192.354938 134.140023 
L 192.652538 134.057165 
L 192.950138 134.156594 
L 193.247738 134.090308 
L 194.140538 132.963927 
L 194.438138 133.833449 
L 194.735738 133.176099 
L 195.033338 132.997209 
L 195.628538 132.123561 
L 195.926138 132.776717 
L 196.223738 132.206766 
L 196.521338 132.227567 
L 197.414138 132.668551 
L 197.711738 132.256689 
L 198.009338 132.614468 
L 198.306938 133.833449 
L 198.604538 132.959767 
L 198.902138 134.707599 
L 199.497338 133.659447 
L 199.794938 134.546027 
L 200.092538 134.587455 
L 200.390138 134.95203 
L 200.687738 136.931886 
L 200.985338 136.176882 
L 201.282938 137.257816 
L 201.580538 137.022651 
L 201.878138 137.580609 
L 202.175738 137.818911 
L 202.473338 137.568283 
L 202.770938 139.400744 
L 203.068538 139.293919 
L 203.366138 139.491134 
L 203.663738 140.891813 
L 203.961338 141.14141 
L 204.258938 141.800182 
L 204.556538 142.855853 
L 204.854138 143.234557 
L 205.151738 144.905298 
L 205.449338 144.265527 
L 205.746938 145.239447 
L 206.044538 145.54507 
L 206.342138 147.407336 
L 206.639738 146.498615 
L 206.937338 148.503505 
L 207.234938 149.324322 
L 207.532538 149.226922 
L 208.127738 151.864847 
L 208.425338 152.278799 
L 208.722938 152.266624 
L 209.318138 153.536886 
L 209.615738 155.003097 
L 209.913338 155.622494 
L 210.210938 155.504319 
L 210.210938 155.504319 
" style="fill:none;stroke:#d62728;stroke-linecap:square;stroke-width:1.5;"/>
   </g>
   <g id="line2d_27">
    <path clip-path="url(#p304c686b55)" d="M 61.410938 23.543308 
L 418.530938 23.543308 
" style="fill:none;stroke:#99aaaa;stroke-dasharray:9.6,2.4,1.5,2.4;stroke-dashoffset:0;stroke-width:1.5;"/>
   </g>
   <g id="line2d_28">
    <defs>
     <path d="M -3 3 
L 3 3 
L 3 -3 
L -3 -3 
z
" id="m9e0ac68bfd" style="stroke:#1f77b4;stroke-linejoin:miter;"/>
    </defs>
    <g clip-path="url(#p304c686b55)">
     <use style="fill:#1f77b4;stroke:#1f77b4;stroke-linejoin:miter;" x="61.410938" xlink:href="#m9e0ac68bfd" y="278.419468"/>
     <use style="fill:#1f77b4;stroke:#1f77b4;stroke-linejoin:miter;" x="70.090938" xlink:href="#m9e0ac68bfd" y="198.820828"/>
     <use style="fill:#1f77b4;stroke:#1f77b4;stroke-linejoin:miter;" x="78.770938" xlink:href="#m9e0ac68bfd" y="67.750485"/>
     <use style="fill:#1f77b4;stroke:#1f77b4;stroke-linejoin:miter;" x="87.450938" xlink:href="#m9e0ac68bfd" y="35.175172"/>
     <use style="fill:#1f77b4;stroke:#1f77b4;stroke-linejoin:miter;" x="96.130938" xlink:href="#m9e0ac68bfd" y="138.528447"/>
     <use style="fill:#1f77b4;stroke:#1f77b4;stroke-linejoin:miter;" x="104.810938" xlink:href="#m9e0ac68bfd" y="254.87235"/>
     <use style="fill:#1f77b4;stroke:#1f77b4;stroke-linejoin:miter;" x="113.490938" xlink:href="#m9e0ac68bfd" y="262.065017"/>
     <use style="fill:#1f77b4;stroke:#1f77b4;stroke-linejoin:miter;" x="122.170938" xlink:href="#m9e0ac68bfd" y="132.763932"/>
     <use style="fill:#1f77b4;stroke:#1f77b4;stroke-linejoin:miter;" x="130.850938" xlink:href="#m9e0ac68bfd" y="43.390828"/>
     <use style="fill:#1f77b4;stroke:#1f77b4;stroke-linejoin:miter;" x="139.530938" xlink:href="#m9e0ac68bfd" y="82.564941"/>
     <use style="fill:#1f77b4;stroke:#1f77b4;stroke-linejoin:miter;" x="148.210938" xlink:href="#m9e0ac68bfd" y="196.153228"/>
     <use style="fill:#1f77b4;stroke:#1f77b4;stroke-linejoin:miter;" x="156.890938" xlink:href="#m9e0ac68bfd" y="271.15319"/>
     <use style="fill:#1f77b4;stroke:#1f77b4;stroke-linejoin:miter;" x="165.570938" xlink:href="#m9e0ac68bfd" y="196.153228"/>
     <use style="fill:#1f77b4;stroke:#1f77b4;stroke-linejoin:miter;" x="174.250938" xlink:href="#m9e0ac68bfd" y="86.330677"/>
     <use style="fill:#1f77b4;stroke:#1f77b4;stroke-linejoin:miter;" x="182.930938" xlink:href="#m9e0ac68bfd" y="45.745288"/>
     <use style="fill:#1f77b4;stroke:#1f77b4;stroke-linejoin:miter;" x="191.610938" xlink:href="#m9e0ac68bfd" y="127.703784"/>
     <use style="fill:#1f77b4;stroke:#1f77b4;stroke-linejoin:miter;" x="200.290938" xlink:href="#m9e0ac68bfd" y="246.340828"/>
     <use style="fill:#1f77b4;stroke:#1f77b4;stroke-linejoin:miter;" x="208.970938" xlink:href="#m9e0ac68bfd" y="252.023055"/>
     <use style="fill:#1f77b4;stroke:#1f77b4;stroke-linejoin:miter;" x="217.650938" xlink:href="#m9e0ac68bfd" y="146.548828"/>
     <use style="fill:#1f77b4;stroke:#1f77b4;stroke-linejoin:miter;" x="226.330938" xlink:href="#m9e0ac68bfd" y="50.177449"/>
     <use style="fill:#1f77b4;stroke:#1f77b4;stroke-linejoin:miter;" x="235.010938" xlink:href="#m9e0ac68bfd" y="62.870086"/>
     <use style="fill:#1f77b4;stroke:#1f77b4;stroke-linejoin:miter;" x="243.690938" xlink:href="#m9e0ac68bfd" y="208.638988"/>
     <use style="fill:#1f77b4;stroke:#1f77b4;stroke-linejoin:miter;" x="252.370938" xlink:href="#m9e0ac68bfd" y="260.678668"/>
     <use style="fill:#1f77b4;stroke:#1f77b4;stroke-linejoin:miter;" x="261.050938" xlink:href="#m9e0ac68bfd" y="207.772881"/>
     <use style="fill:#1f77b4;stroke:#1f77b4;stroke-linejoin:miter;" x="269.730938" xlink:href="#m9e0ac68bfd" y="105.433228"/>
     <use style="fill:#1f77b4;stroke:#1f77b4;stroke-linejoin:miter;" x="278.410938" xlink:href="#m9e0ac68bfd" y="44.172674"/>
     <use style="fill:#1f77b4;stroke:#1f77b4;stroke-linejoin:miter;" x="287.090938" xlink:href="#m9e0ac68bfd" y="116.6282"/>
     <use style="fill:#1f77b4;stroke:#1f77b4;stroke-linejoin:miter;" x="295.770938" xlink:href="#m9e0ac68bfd" y="240.725847"/>
     <use style="fill:#1f77b4;stroke:#1f77b4;stroke-linejoin:miter;" x="304.450938" xlink:href="#m9e0ac68bfd" y="255.636125"/>
     <use style="fill:#1f77b4;stroke:#1f77b4;stroke-linejoin:miter;" x="313.130938" xlink:href="#m9e0ac68bfd" y="154.785979"/>
     <use style="fill:#1f77b4;stroke:#1f77b4;stroke-linejoin:miter;" x="321.810938" xlink:href="#m9e0ac68bfd" y="62.564893"/>
     <use style="fill:#1f77b4;stroke:#1f77b4;stroke-linejoin:miter;" x="330.490938" xlink:href="#m9e0ac68bfd" y="64.673757"/>
     <use style="fill:#1f77b4;stroke:#1f77b4;stroke-linejoin:miter;" x="339.170938" xlink:href="#m9e0ac68bfd" y="185.054618"/>
     <use style="fill:#1f77b4;stroke:#1f77b4;stroke-linejoin:miter;" x="347.850938" xlink:href="#m9e0ac68bfd" y="249.507106"/>
     <use style="fill:#1f77b4;stroke:#1f77b4;stroke-linejoin:miter;" x="356.530938" xlink:href="#m9e0ac68bfd" y="222.743365"/>
     <use style="fill:#1f77b4;stroke:#1f77b4;stroke-linejoin:miter;" x="365.210938" xlink:href="#m9e0ac68bfd" y="109.720828"/>
     <use style="fill:#1f77b4;stroke:#1f77b4;stroke-linejoin:miter;" x="373.890938" xlink:href="#m9e0ac68bfd" y="54.885388"/>
     <use style="fill:#1f77b4;stroke:#1f77b4;stroke-linejoin:miter;" x="382.570938" xlink:href="#m9e0ac68bfd" y="118.006993"/>
     <use style="fill:#1f77b4;stroke:#1f77b4;stroke-linejoin:miter;" x="391.250938" xlink:href="#m9e0ac68bfd" y="218.427883"/>
     <use style="fill:#1f77b4;stroke:#1f77b4;stroke-linejoin:miter;" x="399.930938" xlink:href="#m9e0ac68bfd" y="238.854288"/>
     <use style="fill:#1f77b4;stroke:#1f77b4;stroke-linejoin:miter;" x="408.610938" xlink:href="#m9e0ac68bfd" y="163.123344"/>
    </g>
   </g>
   <g id="line2d_29">
    <defs>
     <path d="M 0 3 
C 0.795609 3 1.55874 2.683901 2.12132 2.12132 
C 2.683901 1.55874 3 0.795609 3 0 
C 3 -0.795609 2.683901 -1.55874 2.12132 -2.12132 
C 1.55874 -2.683901 0.795609 -3 0 -3 
C -0.795609 -3 -1.55874 -2.683901 -2.12132 -2.12132 
C -2.683901 -1.55874 -3 -0.795609 -3 0 
C -3 0.795609 -2.683901 1.55874 -2.12132 2.12132 
C -1.55874 2.683901 -0.795609 3 0 3 
z
" id="m4d17eb6f4c" style="stroke:#d62728;"/>
    </defs>
    <g clip-path="url(#p304c686b55)">
     <use style="fill:#d62728;stroke:#d62728;" x="61.410938" xlink:href="#m4d17eb6f4c" y="271.284996"/>
     <use style="fill:#d62728;stroke:#d62728;" x="70.090938" xlink:href="#m4d17eb6f4c" y="229.008892"/>
     <use style="fill:#d62728;stroke:#d62728;" x="78.770938" xlink:href="#m4d17eb6f4c" y="152.566306"/>
     <use style="fill:#d62728;stroke:#d62728;" x="87.450938" xlink:href="#m4d17eb6f4c" y="91.410132"/>
     <use style="fill:#d62728;stroke:#d62728;" x="96.130938" xlink:href="#m4d17eb6f4c" y="110.196028"/>
     <use style="fill:#d62728;stroke:#d62728;" x="104.810938" xlink:href="#m4d17eb6f4c" y="134.384741"/>
     <use style="fill:#d62728;stroke:#d62728;" x="113.490938" xlink:href="#m4d17eb6f4c" y="174.466828"/>
     <use style="fill:#d62728;stroke:#d62728;" x="122.170938" xlink:href="#m4d17eb6f4c" y="195.850828"/>
     <use style="fill:#d62728;stroke:#d62728;" x="130.850938" xlink:href="#m4d17eb6f4c" y="149.031267"/>
     <use style="fill:#d62728;stroke:#d62728;" x="139.530938" xlink:href="#m4d17eb6f4c" y="136.197388"/>
     <use style="fill:#d62728;stroke:#d62728;" x="148.210938" xlink:href="#m4d17eb6f4c" y="104.944417"/>
     <use style="fill:#d62728;stroke:#d62728;" x="156.890938" xlink:href="#m4d17eb6f4c" y="145.954828"/>
     <use style="fill:#d62728;stroke:#d62728;" x="165.570938" xlink:href="#m4d17eb6f4c" y="172.40572"/>
     <use style="fill:#d62728;stroke:#d62728;" x="174.250938" xlink:href="#m4d17eb6f4c" y="173.915872"/>
     <use style="fill:#d62728;stroke:#d62728;" x="182.930938" xlink:href="#m4d17eb6f4c" y="174.769503"/>
     <use style="fill:#d62728;stroke:#d62728;" x="191.610938" xlink:href="#m4d17eb6f4c" y="124.167881"/>
    </g>
   </g>
   <g id="patch_3">
    <path d="M 61.410938 279.010828 
L 61.410938 12.898828 
" style="fill:none;stroke:#000000;stroke-linecap:square;stroke-linejoin:miter;stroke-width:0.8;"/>
   </g>
   <g id="patch_4">
    <path d="M 418.530938 279.010828 
L 418.530938 12.898828 
" style="fill:none;stroke:#000000;stroke-linecap:square;stroke-linejoin:miter;stroke-width:0.8;"/>
   </g>
   <g id="patch_5">
    <path d="M 61.410938 279.010828 
L 418.530938 279.010828 
" style="fill:none;stroke:#000000;stroke-linecap:square;stroke-linejoin:miter;stroke-width:0.8;"/>
   </g>
   <g id="patch_6">
    <path d="M 61.410938 12.898828 
L 418.530938 12.898828 
" style="fill:none;stroke:#000000;stroke-linecap:square;stroke-linejoin:miter;stroke-width:0.8;"/>
   </g>
  </g>
 </g>
 <defs>
  <clipPath id="p304c686b55">
   <rect height="266.112" width="357.12" x="61.410938" y="12.898828"/>
  </clipPath>
 </defs>
</svg>
