<?xml version="1.0" encoding="utf-8" standalone="no"?>
<!DOCTYPE svg PUBLIC "-//W3C//DTD SVG 1.1//EN"
  "http://www.w3.org/Graphics/SVG/1.1/DTD/svg11.dtd">
<!-- Created with matplotlib (https://matplotlib.org/) -->
<svg height="325.385437pt" version="1.1" viewBox="0 0 439.118437 325.385437" width="439.118437pt" xmlns="http://www.w3.org/2000/svg" xmlns:xlink="http://www.w3.org/1999/xlink">
 <defs>
  <style type="text/css">*{stroke-linecap:butt;stroke-linejoin:round;}</style>
 </defs>
 <g id="figure_1">
  <g id="patch_1">
   <path d="M 0 325.385437 
L 439.118437 325.385437 
L 439.118437 0 
L 0 0 
z
" style="fill:none;"/>
  </g>
  <g id="axes_1">
   <g id="patch_2">
    <path d="M 65.254688 273.312 
L 422.374688 273.312 
L 422.374688 7.2 
L 65.254688 7.2 
z
" style="fill:none;"/>
   </g>
   <g id="matplotlib.axis_1">
    <g id="xtick_1">
     <g id="line2d_1">
      <path clip-path="url(#pf39720cbdc)" d="M 65.254688 273.312 
L 65.254688 7.2 
" style="fill:none;stroke:#b0b0b0;stroke-linecap:square;stroke-width:0.8;"/>
     </g>
     <g id="line2d_2">
      <defs>
       <path d="M 0 0 
L 0 3.5 
" id="m005f0a59be" style="stroke:#000000;stroke-width:0.8;"/>
      </defs>
      <g>
       <use style="stroke:#000000;stroke-width:0.8;" x="65.254688" xlink:href="#m005f0a59be" y="273.312"/>
      </g>
     </g>
     <g id="text_1">
      <!-- 0 -->
      <g transform="translate(60.482813 291.709656)scale(0.15 -0.15)">
       <defs>
        <path d="M 31.78125 66.40625 
Q 24.171875 66.40625 20.328125 58.90625 
Q 16.5 51.421875 16.5 36.375 
Q 16.5 21.390625 20.328125 13.890625 
Q 24.171875 6.390625 31.78125 6.390625 
Q 39.453125 6.390625 43.28125 13.890625 
Q 47.125 21.390625 47.125 36.375 
Q 47.125 51.421875 43.28125 58.90625 
Q 39.453125 66.40625 31.78125 66.40625 
z
M 31.78125 74.21875 
Q 44.046875 74.21875 50.515625 64.515625 
Q 56.984375 54.828125 56.984375 36.375 
Q 56.984375 17.96875 50.515625 8.265625 
Q 44.046875 -1.421875 31.78125 -1.421875 
Q 19.53125 -1.421875 13.0625 8.265625 
Q 6.59375 17.96875 6.59375 36.375 
Q 6.59375 54.828125 13.0625 64.515625 
Q 19.53125 74.21875 31.78125 74.21875 
z
" id="DejaVuSans-48"/>
       </defs>
       <use xlink:href="#DejaVuSans-48"/>
      </g>
     </g>
    </g>
    <g id="xtick_2">
     <g id="line2d_3">
      <path clip-path="url(#pf39720cbdc)" d="M 116.27183 273.312 
L 116.27183 7.2 
" style="fill:none;stroke:#b0b0b0;stroke-linecap:square;stroke-width:0.8;"/>
     </g>
     <g id="line2d_4">
      <g>
       <use style="stroke:#000000;stroke-width:0.8;" x="116.27183" xlink:href="#m005f0a59be" y="273.312"/>
      </g>
     </g>
     <g id="text_2">
      <!-- 10 -->
      <g transform="translate(106.72808 291.709656)scale(0.15 -0.15)">
       <defs>
        <path d="M 12.40625 8.296875 
L 28.515625 8.296875 
L 28.515625 63.921875 
L 10.984375 60.40625 
L 10.984375 69.390625 
L 28.421875 72.90625 
L 38.28125 72.90625 
L 38.28125 8.296875 
L 54.390625 8.296875 
L 54.390625 0 
L 12.40625 0 
z
" id="DejaVuSans-49"/>
       </defs>
       <use xlink:href="#DejaVuSans-49"/>
       <use x="63.623047" xlink:href="#DejaVuSans-48"/>
      </g>
     </g>
    </g>
    <g id="xtick_3">
     <g id="line2d_5">
      <path clip-path="url(#pf39720cbdc)" d="M 167.288973 273.312 
L 167.288973 7.2 
" style="fill:none;stroke:#b0b0b0;stroke-linecap:square;stroke-width:0.8;"/>
     </g>
     <g id="line2d_6">
      <g>
       <use style="stroke:#000000;stroke-width:0.8;" x="167.288973" xlink:href="#m005f0a59be" y="273.312"/>
      </g>
     </g>
     <g id="text_3">
      <!-- 20 -->
      <g transform="translate(157.745223 291.709656)scale(0.15 -0.15)">
       <defs>
        <path d="M 19.1875 8.296875 
L 53.609375 8.296875 
L 53.609375 0 
L 7.328125 0 
L 7.328125 8.296875 
Q 12.9375 14.109375 22.625 23.890625 
Q 32.328125 33.6875 34.8125 36.53125 
Q 39.546875 41.84375 41.421875 45.53125 
Q 43.3125 49.21875 43.3125 52.78125 
Q 43.3125 58.59375 39.234375 62.25 
Q 35.15625 65.921875 28.609375 65.921875 
Q 23.96875 65.921875 18.8125 64.3125 
Q 13.671875 62.703125 7.8125 59.421875 
L 7.8125 69.390625 
Q 13.765625 71.78125 18.9375 73 
Q 24.125 74.21875 28.421875 74.21875 
Q 39.75 74.21875 46.484375 68.546875 
Q 53.21875 62.890625 53.21875 53.421875 
Q 53.21875 48.921875 51.53125 44.890625 
Q 49.859375 40.875 45.40625 35.40625 
Q 44.1875 33.984375 37.640625 27.21875 
Q 31.109375 20.453125 19.1875 8.296875 
z
" id="DejaVuSans-50"/>
       </defs>
       <use xlink:href="#DejaVuSans-50"/>
       <use x="63.623047" xlink:href="#DejaVuSans-48"/>
      </g>
     </g>
    </g>
    <g id="xtick_4">
     <g id="line2d_7">
      <path clip-path="url(#pf39720cbdc)" d="M 218.306116 273.312 
L 218.306116 7.2 
" style="fill:none;stroke:#b0b0b0;stroke-linecap:square;stroke-width:0.8;"/>
     </g>
     <g id="line2d_8">
      <g>
       <use style="stroke:#000000;stroke-width:0.8;" x="218.306116" xlink:href="#m005f0a59be" y="273.312"/>
      </g>
     </g>
     <g id="text_4">
      <!-- 30 -->
      <g transform="translate(208.762366 291.709656)scale(0.15 -0.15)">
       <defs>
        <path d="M 40.578125 39.3125 
Q 47.65625 37.796875 51.625 33 
Q 55.609375 28.21875 55.609375 21.1875 
Q 55.609375 10.40625 48.1875 4.484375 
Q 40.765625 -1.421875 27.09375 -1.421875 
Q 22.515625 -1.421875 17.65625 -0.515625 
Q 12.796875 0.390625 7.625 2.203125 
L 7.625 11.71875 
Q 11.71875 9.328125 16.59375 8.109375 
Q 21.484375 6.890625 26.8125 6.890625 
Q 36.078125 6.890625 40.9375 10.546875 
Q 45.796875 14.203125 45.796875 21.1875 
Q 45.796875 27.640625 41.28125 31.265625 
Q 36.765625 34.90625 28.71875 34.90625 
L 20.21875 34.90625 
L 20.21875 43.015625 
L 29.109375 43.015625 
Q 36.375 43.015625 40.234375 45.921875 
Q 44.09375 48.828125 44.09375 54.296875 
Q 44.09375 59.90625 40.109375 62.90625 
Q 36.140625 65.921875 28.71875 65.921875 
Q 24.65625 65.921875 20.015625 65.03125 
Q 15.375 64.15625 9.8125 62.3125 
L 9.8125 71.09375 
Q 15.4375 72.65625 20.34375 73.4375 
Q 25.25 74.21875 29.59375 74.21875 
Q 40.828125 74.21875 47.359375 69.109375 
Q 53.90625 64.015625 53.90625 55.328125 
Q 53.90625 49.265625 50.4375 45.09375 
Q 46.96875 40.921875 40.578125 39.3125 
z
" id="DejaVuSans-51"/>
       </defs>
       <use xlink:href="#DejaVuSans-51"/>
       <use x="63.623047" xlink:href="#DejaVuSans-48"/>
      </g>
     </g>
    </g>
    <g id="xtick_5">
     <g id="line2d_9">
      <path clip-path="url(#pf39720cbdc)" d="M 269.323259 273.312 
L 269.323259 7.2 
" style="fill:none;stroke:#b0b0b0;stroke-linecap:square;stroke-width:0.8;"/>
     </g>
     <g id="line2d_10">
      <g>
       <use style="stroke:#000000;stroke-width:0.8;" x="269.323259" xlink:href="#m005f0a59be" y="273.312"/>
      </g>
     </g>
     <g id="text_5">
      <!-- 40 -->
      <g transform="translate(259.779509 291.709656)scale(0.15 -0.15)">
       <defs>
        <path d="M 37.796875 64.3125 
L 12.890625 25.390625 
L 37.796875 25.390625 
z
M 35.203125 72.90625 
L 47.609375 72.90625 
L 47.609375 25.390625 
L 58.015625 25.390625 
L 58.015625 17.1875 
L 47.609375 17.1875 
L 47.609375 0 
L 37.796875 0 
L 37.796875 17.1875 
L 4.890625 17.1875 
L 4.890625 26.703125 
z
" id="DejaVuSans-52"/>
       </defs>
       <use xlink:href="#DejaVuSans-52"/>
       <use x="63.623047" xlink:href="#DejaVuSans-48"/>
      </g>
     </g>
    </g>
    <g id="xtick_6">
     <g id="line2d_11">
      <path clip-path="url(#pf39720cbdc)" d="M 320.340402 273.312 
L 320.340402 7.2 
" style="fill:none;stroke:#b0b0b0;stroke-linecap:square;stroke-width:0.8;"/>
     </g>
     <g id="line2d_12">
      <g>
       <use style="stroke:#000000;stroke-width:0.8;" x="320.340402" xlink:href="#m005f0a59be" y="273.312"/>
      </g>
     </g>
     <g id="text_6">
      <!-- 50 -->
      <g transform="translate(310.796652 291.709656)scale(0.15 -0.15)">
       <defs>
        <path d="M 10.796875 72.90625 
L 49.515625 72.90625 
L 49.515625 64.59375 
L 19.828125 64.59375 
L 19.828125 46.734375 
Q 21.96875 47.46875 24.109375 47.828125 
Q 26.265625 48.1875 28.421875 48.1875 
Q 40.625 48.1875 47.75 41.5 
Q 54.890625 34.8125 54.890625 23.390625 
Q 54.890625 11.625 47.5625 5.09375 
Q 40.234375 -1.421875 26.90625 -1.421875 
Q 22.3125 -1.421875 17.546875 -0.640625 
Q 12.796875 0.140625 7.71875 1.703125 
L 7.71875 11.625 
Q 12.109375 9.234375 16.796875 8.0625 
Q 21.484375 6.890625 26.703125 6.890625 
Q 35.15625 6.890625 40.078125 11.328125 
Q 45.015625 15.765625 45.015625 23.390625 
Q 45.015625 31 40.078125 35.4375 
Q 35.15625 39.890625 26.703125 39.890625 
Q 22.75 39.890625 18.8125 39.015625 
Q 14.890625 38.140625 10.796875 36.28125 
z
" id="DejaVuSans-53"/>
       </defs>
       <use xlink:href="#DejaVuSans-53"/>
       <use x="63.623047" xlink:href="#DejaVuSans-48"/>
      </g>
     </g>
    </g>
    <g id="xtick_7">
     <g id="line2d_13">
      <path clip-path="url(#pf39720cbdc)" d="M 371.357545 273.312 
L 371.357545 7.2 
" style="fill:none;stroke:#b0b0b0;stroke-linecap:square;stroke-width:0.8;"/>
     </g>
     <g id="line2d_14">
      <g>
       <use style="stroke:#000000;stroke-width:0.8;" x="371.357545" xlink:href="#m005f0a59be" y="273.312"/>
      </g>
     </g>
     <g id="text_7">
      <!-- 60 -->
      <g transform="translate(361.813795 291.709656)scale(0.15 -0.15)">
       <defs>
        <path d="M 33.015625 40.375 
Q 26.375 40.375 22.484375 35.828125 
Q 18.609375 31.296875 18.609375 23.390625 
Q 18.609375 15.53125 22.484375 10.953125 
Q 26.375 6.390625 33.015625 6.390625 
Q 39.65625 6.390625 43.53125 10.953125 
Q 47.40625 15.53125 47.40625 23.390625 
Q 47.40625 31.296875 43.53125 35.828125 
Q 39.65625 40.375 33.015625 40.375 
z
M 52.59375 71.296875 
L 52.59375 62.3125 
Q 48.875 64.0625 45.09375 64.984375 
Q 41.3125 65.921875 37.59375 65.921875 
Q 27.828125 65.921875 22.671875 59.328125 
Q 17.53125 52.734375 16.796875 39.40625 
Q 19.671875 43.65625 24.015625 45.921875 
Q 28.375 48.1875 33.59375 48.1875 
Q 44.578125 48.1875 50.953125 41.515625 
Q 57.328125 34.859375 57.328125 23.390625 
Q 57.328125 12.15625 50.6875 5.359375 
Q 44.046875 -1.421875 33.015625 -1.421875 
Q 20.359375 -1.421875 13.671875 8.265625 
Q 6.984375 17.96875 6.984375 36.375 
Q 6.984375 53.65625 15.1875 63.9375 
Q 23.390625 74.21875 37.203125 74.21875 
Q 40.921875 74.21875 44.703125 73.484375 
Q 48.484375 72.75 52.59375 71.296875 
z
" id="DejaVuSans-54"/>
       </defs>
       <use xlink:href="#DejaVuSans-54"/>
       <use x="63.623047" xlink:href="#DejaVuSans-48"/>
      </g>
     </g>
    </g>
    <g id="xtick_8">
     <g id="line2d_15">
      <path clip-path="url(#pf39720cbdc)" d="M 422.374688 273.312 
L 422.374688 7.2 
" style="fill:none;stroke:#b0b0b0;stroke-linecap:square;stroke-width:0.8;"/>
     </g>
     <g id="line2d_16">
      <g>
       <use style="stroke:#000000;stroke-width:0.8;" x="422.374688" xlink:href="#m005f0a59be" y="273.312"/>
      </g>
     </g>
     <g id="text_8">
      <!-- 70 -->
      <g transform="translate(412.830938 291.709656)scale(0.15 -0.15)">
       <defs>
        <path d="M 8.203125 72.90625 
L 55.078125 72.90625 
L 55.078125 68.703125 
L 28.609375 0 
L 18.3125 0 
L 43.21875 64.59375 
L 8.203125 64.59375 
z
" id="DejaVuSans-55"/>
       </defs>
       <use xlink:href="#DejaVuSans-55"/>
       <use x="63.623047" xlink:href="#DejaVuSans-48"/>
      </g>
     </g>
    </g>
    <g id="text_9">
     <!-- Motional state $n$ -->
     <g transform="translate(162.914688 314.026062)scale(0.2 -0.2)">
      <defs>
       <path d="M 9.8125 72.90625 
L 24.515625 72.90625 
L 43.109375 23.296875 
L 61.8125 72.90625 
L 76.515625 72.90625 
L 76.515625 0 
L 66.890625 0 
L 66.890625 64.015625 
L 48.09375 14.015625 
L 38.1875 14.015625 
L 19.390625 64.015625 
L 19.390625 0 
L 9.8125 0 
z
" id="DejaVuSans-77"/>
       <path d="M 30.609375 48.390625 
Q 23.390625 48.390625 19.1875 42.75 
Q 14.984375 37.109375 14.984375 27.296875 
Q 14.984375 17.484375 19.15625 11.84375 
Q 23.34375 6.203125 30.609375 6.203125 
Q 37.796875 6.203125 41.984375 11.859375 
Q 46.1875 17.53125 46.1875 27.296875 
Q 46.1875 37.015625 41.984375 42.703125 
Q 37.796875 48.390625 30.609375 48.390625 
z
M 30.609375 56 
Q 42.328125 56 49.015625 48.375 
Q 55.71875 40.765625 55.71875 27.296875 
Q 55.71875 13.875 49.015625 6.21875 
Q 42.328125 -1.421875 30.609375 -1.421875 
Q 18.84375 -1.421875 12.171875 6.21875 
Q 5.515625 13.875 5.515625 27.296875 
Q 5.515625 40.765625 12.171875 48.375 
Q 18.84375 56 30.609375 56 
z
" id="DejaVuSans-111"/>
       <path d="M 18.3125 70.21875 
L 18.3125 54.6875 
L 36.8125 54.6875 
L 36.8125 47.703125 
L 18.3125 47.703125 
L 18.3125 18.015625 
Q 18.3125 11.328125 20.140625 9.421875 
Q 21.96875 7.515625 27.59375 7.515625 
L 36.8125 7.515625 
L 36.8125 0 
L 27.59375 0 
Q 17.1875 0 13.234375 3.875 
Q 9.28125 7.765625 9.28125 18.015625 
L 9.28125 47.703125 
L 2.6875 47.703125 
L 2.6875 54.6875 
L 9.28125 54.6875 
L 9.28125 70.21875 
z
" id="DejaVuSans-116"/>
       <path d="M 9.421875 54.6875 
L 18.40625 54.6875 
L 18.40625 0 
L 9.421875 0 
z
M 9.421875 75.984375 
L 18.40625 75.984375 
L 18.40625 64.59375 
L 9.421875 64.59375 
z
" id="DejaVuSans-105"/>
       <path d="M 54.890625 33.015625 
L 54.890625 0 
L 45.90625 0 
L 45.90625 32.71875 
Q 45.90625 40.484375 42.875 44.328125 
Q 39.84375 48.1875 33.796875 48.1875 
Q 26.515625 48.1875 22.3125 43.546875 
Q 18.109375 38.921875 18.109375 30.90625 
L 18.109375 0 
L 9.078125 0 
L 9.078125 54.6875 
L 18.109375 54.6875 
L 18.109375 46.1875 
Q 21.34375 51.125 25.703125 53.5625 
Q 30.078125 56 35.796875 56 
Q 45.21875 56 50.046875 50.171875 
Q 54.890625 44.34375 54.890625 33.015625 
z
" id="DejaVuSans-110"/>
       <path d="M 34.28125 27.484375 
Q 23.390625 27.484375 19.1875 25 
Q 14.984375 22.515625 14.984375 16.5 
Q 14.984375 11.71875 18.140625 8.90625 
Q 21.296875 6.109375 26.703125 6.109375 
Q 34.1875 6.109375 38.703125 11.40625 
Q 43.21875 16.703125 43.21875 25.484375 
L 43.21875 27.484375 
z
M 52.203125 31.203125 
L 52.203125 0 
L 43.21875 0 
L 43.21875 8.296875 
Q 40.140625 3.328125 35.546875 0.953125 
Q 30.953125 -1.421875 24.3125 -1.421875 
Q 15.921875 -1.421875 10.953125 3.296875 
Q 6 8.015625 6 15.921875 
Q 6 25.140625 12.171875 29.828125 
Q 18.359375 34.515625 30.609375 34.515625 
L 43.21875 34.515625 
L 43.21875 35.40625 
Q 43.21875 41.609375 39.140625 45 
Q 35.0625 48.390625 27.6875 48.390625 
Q 23 48.390625 18.546875 47.265625 
Q 14.109375 46.140625 10.015625 43.890625 
L 10.015625 52.203125 
Q 14.9375 54.109375 19.578125 55.046875 
Q 24.21875 56 28.609375 56 
Q 40.484375 56 46.34375 49.84375 
Q 52.203125 43.703125 52.203125 31.203125 
z
" id="DejaVuSans-97"/>
       <path d="M 9.421875 75.984375 
L 18.40625 75.984375 
L 18.40625 0 
L 9.421875 0 
z
" id="DejaVuSans-108"/>
       <path id="DejaVuSans-32"/>
       <path d="M 44.28125 53.078125 
L 44.28125 44.578125 
Q 40.484375 46.53125 36.375 47.5 
Q 32.28125 48.484375 27.875 48.484375 
Q 21.1875 48.484375 17.84375 46.4375 
Q 14.5 44.390625 14.5 40.28125 
Q 14.5 37.15625 16.890625 35.375 
Q 19.28125 33.59375 26.515625 31.984375 
L 29.59375 31.296875 
Q 39.15625 29.25 43.1875 25.515625 
Q 47.21875 21.78125 47.21875 15.09375 
Q 47.21875 7.46875 41.1875 3.015625 
Q 35.15625 -1.421875 24.609375 -1.421875 
Q 20.21875 -1.421875 15.453125 -0.5625 
Q 10.6875 0.296875 5.421875 2 
L 5.421875 11.28125 
Q 10.40625 8.6875 15.234375 7.390625 
Q 20.0625 6.109375 24.8125 6.109375 
Q 31.15625 6.109375 34.5625 8.28125 
Q 37.984375 10.453125 37.984375 14.40625 
Q 37.984375 18.0625 35.515625 20.015625 
Q 33.0625 21.96875 24.703125 23.78125 
L 21.578125 24.515625 
Q 13.234375 26.265625 9.515625 29.90625 
Q 5.8125 33.546875 5.8125 39.890625 
Q 5.8125 47.609375 11.28125 51.796875 
Q 16.75 56 26.8125 56 
Q 31.78125 56 36.171875 55.265625 
Q 40.578125 54.546875 44.28125 53.078125 
z
" id="DejaVuSans-115"/>
       <path d="M 56.203125 29.59375 
L 56.203125 25.203125 
L 14.890625 25.203125 
Q 15.484375 15.921875 20.484375 11.0625 
Q 25.484375 6.203125 34.421875 6.203125 
Q 39.59375 6.203125 44.453125 7.46875 
Q 49.3125 8.734375 54.109375 11.28125 
L 54.109375 2.78125 
Q 49.265625 0.734375 44.1875 -0.34375 
Q 39.109375 -1.421875 33.890625 -1.421875 
Q 20.796875 -1.421875 13.15625 6.1875 
Q 5.515625 13.8125 5.515625 26.8125 
Q 5.515625 40.234375 12.765625 48.109375 
Q 20.015625 56 32.328125 56 
Q 43.359375 56 49.78125 48.890625 
Q 56.203125 41.796875 56.203125 29.59375 
z
M 47.21875 32.234375 
Q 47.125 39.59375 43.09375 43.984375 
Q 39.0625 48.390625 32.421875 48.390625 
Q 24.90625 48.390625 20.390625 44.140625 
Q 15.875 39.890625 15.1875 32.171875 
z
" id="DejaVuSans-101"/>
       <path d="M 55.71875 33.015625 
L 49.3125 0 
L 40.28125 0 
L 46.6875 32.671875 
Q 47.125 34.96875 47.359375 36.71875 
Q 47.609375 38.484375 47.609375 39.5 
Q 47.609375 43.609375 45.015625 45.890625 
Q 42.4375 48.1875 37.796875 48.1875 
Q 30.5625 48.1875 25.34375 43.375 
Q 20.125 38.578125 18.5 30.328125 
L 12.5 0 
L 3.515625 0 
L 14.109375 54.6875 
L 23.09375 54.6875 
L 21.296875 46.09375 
Q 25.046875 50.828125 30.3125 53.40625 
Q 35.59375 56 41.40625 56 
Q 48.640625 56 52.609375 52.09375 
Q 56.59375 48.1875 56.59375 41.109375 
Q 56.59375 39.359375 56.375 37.359375 
Q 56.15625 35.359375 55.71875 33.015625 
z
" id="DejaVuSans-Oblique-110"/>
      </defs>
      <use transform="translate(0 0.015625)" xlink:href="#DejaVuSans-77"/>
      <use transform="translate(86.279297 0.015625)" xlink:href="#DejaVuSans-111"/>
      <use transform="translate(147.460938 0.015625)" xlink:href="#DejaVuSans-116"/>
      <use transform="translate(186.669922 0.015625)" xlink:href="#DejaVuSans-105"/>
      <use transform="translate(214.453125 0.015625)" xlink:href="#DejaVuSans-111"/>
      <use transform="translate(275.634766 0.015625)" xlink:href="#DejaVuSans-110"/>
      <use transform="translate(339.013672 0.015625)" xlink:href="#DejaVuSans-97"/>
      <use transform="translate(400.292969 0.015625)" xlink:href="#DejaVuSans-108"/>
      <use transform="translate(428.076172 0.015625)" xlink:href="#DejaVuSans-32"/>
      <use transform="translate(459.863281 0.015625)" xlink:href="#DejaVuSans-115"/>
      <use transform="translate(511.962891 0.015625)" xlink:href="#DejaVuSans-116"/>
      <use transform="translate(551.171875 0.015625)" xlink:href="#DejaVuSans-97"/>
      <use transform="translate(612.451172 0.015625)" xlink:href="#DejaVuSans-116"/>
      <use transform="translate(651.660156 0.015625)" xlink:href="#DejaVuSans-101"/>
      <use transform="translate(713.183594 0.015625)" xlink:href="#DejaVuSans-32"/>
      <use transform="translate(744.970703 0.015625)" xlink:href="#DejaVuSans-Oblique-110"/>
     </g>
    </g>
   </g>
   <g id="matplotlib.axis_2">
    <g id="ytick_1">
     <g id="line2d_17">
      <path clip-path="url(#pf39720cbdc)" d="M 65.254688 273.312 
L 422.374688 273.312 
" style="fill:none;stroke:#b0b0b0;stroke-linecap:square;stroke-width:0.8;"/>
     </g>
     <g id="line2d_18">
      <defs>
       <path d="M 0 0 
L -3.5 0 
" id="mc3ce260a5b" style="stroke:#000000;stroke-width:0.8;"/>
      </defs>
      <g>
       <use style="stroke:#000000;stroke-width:0.8;" x="65.254688" xlink:href="#mc3ce260a5b" y="273.312"/>
      </g>
     </g>
     <g id="text_10">
      <!-- 0.0 -->
      <g transform="translate(34.4 279.010828)scale(0.15 -0.15)">
       <defs>
        <path d="M 10.6875 12.40625 
L 21 12.40625 
L 21 0 
L 10.6875 0 
z
" id="DejaVuSans-46"/>
       </defs>
       <use xlink:href="#DejaVuSans-48"/>
       <use x="63.623047" xlink:href="#DejaVuSans-46"/>
       <use x="95.410156" xlink:href="#DejaVuSans-48"/>
      </g>
     </g>
    </g>
    <g id="ytick_2">
     <g id="line2d_19">
      <path clip-path="url(#pf39720cbdc)" d="M 65.254688 237.8304 
L 422.374688 237.8304 
" style="fill:none;stroke:#b0b0b0;stroke-linecap:square;stroke-width:0.8;"/>
     </g>
     <g id="line2d_20">
      <g>
       <use style="stroke:#000000;stroke-width:0.8;" x="65.254688" xlink:href="#mc3ce260a5b" y="237.8304"/>
      </g>
     </g>
     <g id="text_11">
      <!-- 0.1 -->
      <g transform="translate(34.4 243.529228)scale(0.15 -0.15)">
       <use xlink:href="#DejaVuSans-48"/>
       <use x="63.623047" xlink:href="#DejaVuSans-46"/>
       <use x="95.410156" xlink:href="#DejaVuSans-49"/>
      </g>
     </g>
    </g>
    <g id="ytick_3">
     <g id="line2d_21">
      <path clip-path="url(#pf39720cbdc)" d="M 65.254688 202.3488 
L 422.374688 202.3488 
" style="fill:none;stroke:#b0b0b0;stroke-linecap:square;stroke-width:0.8;"/>
     </g>
     <g id="line2d_22">
      <g>
       <use style="stroke:#000000;stroke-width:0.8;" x="65.254688" xlink:href="#mc3ce260a5b" y="202.3488"/>
      </g>
     </g>
     <g id="text_12">
      <!-- 0.2 -->
      <g transform="translate(34.4 208.047628)scale(0.15 -0.15)">
       <use xlink:href="#DejaVuSans-48"/>
       <use x="63.623047" xlink:href="#DejaVuSans-46"/>
       <use x="95.410156" xlink:href="#DejaVuSans-50"/>
      </g>
     </g>
    </g>
    <g id="ytick_4">
     <g id="line2d_23">
      <path clip-path="url(#pf39720cbdc)" d="M 65.254688 166.8672 
L 422.374688 166.8672 
" style="fill:none;stroke:#b0b0b0;stroke-linecap:square;stroke-width:0.8;"/>
     </g>
     <g id="line2d_24">
      <g>
       <use style="stroke:#000000;stroke-width:0.8;" x="65.254688" xlink:href="#mc3ce260a5b" y="166.8672"/>
      </g>
     </g>
     <g id="text_13">
      <!-- 0.3 -->
      <g transform="translate(34.4 172.566028)scale(0.15 -0.15)">
       <use xlink:href="#DejaVuSans-48"/>
       <use x="63.623047" xlink:href="#DejaVuSans-46"/>
       <use x="95.410156" xlink:href="#DejaVuSans-51"/>
      </g>
     </g>
    </g>
    <g id="ytick_5">
     <g id="line2d_25">
      <path clip-path="url(#pf39720cbdc)" d="M 65.254688 131.3856 
L 422.374688 131.3856 
" style="fill:none;stroke:#b0b0b0;stroke-linecap:square;stroke-width:0.8;"/>
     </g>
     <g id="line2d_26">
      <g>
       <use style="stroke:#000000;stroke-width:0.8;" x="65.254688" xlink:href="#mc3ce260a5b" y="131.3856"/>
      </g>
     </g>
     <g id="text_14">
      <!-- 0.4 -->
      <g transform="translate(34.4 137.084428)scale(0.15 -0.15)">
       <use xlink:href="#DejaVuSans-48"/>
       <use x="63.623047" xlink:href="#DejaVuSans-46"/>
       <use x="95.410156" xlink:href="#DejaVuSans-52"/>
      </g>
     </g>
    </g>
    <g id="ytick_6">
     <g id="line2d_27">
      <path clip-path="url(#pf39720cbdc)" d="M 65.254688 95.904 
L 422.374688 95.904 
" style="fill:none;stroke:#b0b0b0;stroke-linecap:square;stroke-width:0.8;"/>
     </g>
     <g id="line2d_28">
      <g>
       <use style="stroke:#000000;stroke-width:0.8;" x="65.254688" xlink:href="#mc3ce260a5b" y="95.904"/>
      </g>
     </g>
     <g id="text_15">
      <!-- 0.5 -->
      <g transform="translate(34.4 101.602828)scale(0.15 -0.15)">
       <use xlink:href="#DejaVuSans-48"/>
       <use x="63.623047" xlink:href="#DejaVuSans-46"/>
       <use x="95.410156" xlink:href="#DejaVuSans-53"/>
      </g>
     </g>
    </g>
    <g id="ytick_7">
     <g id="line2d_29">
      <path clip-path="url(#pf39720cbdc)" d="M 65.254688 60.4224 
L 422.374688 60.4224 
" style="fill:none;stroke:#b0b0b0;stroke-linecap:square;stroke-width:0.8;"/>
     </g>
     <g id="line2d_30">
      <g>
       <use style="stroke:#000000;stroke-width:0.8;" x="65.254688" xlink:href="#mc3ce260a5b" y="60.4224"/>
      </g>
     </g>
     <g id="text_16">
      <!-- 0.6 -->
      <g transform="translate(34.4 66.121228)scale(0.15 -0.15)">
       <use xlink:href="#DejaVuSans-48"/>
       <use x="63.623047" xlink:href="#DejaVuSans-46"/>
       <use x="95.410156" xlink:href="#DejaVuSans-54"/>
      </g>
     </g>
    </g>
    <g id="ytick_8">
     <g id="line2d_31">
      <path clip-path="url(#pf39720cbdc)" d="M 65.254688 24.9408 
L 422.374688 24.9408 
" style="fill:none;stroke:#b0b0b0;stroke-linecap:square;stroke-width:0.8;"/>
     </g>
     <g id="line2d_32">
      <g>
       <use style="stroke:#000000;stroke-width:0.8;" x="65.254688" xlink:href="#mc3ce260a5b" y="24.9408"/>
      </g>
     </g>
     <g id="text_17">
      <!-- 0.7 -->
      <g transform="translate(34.4 30.639628)scale(0.15 -0.15)">
       <use xlink:href="#DejaVuSans-48"/>
       <use x="63.623047" xlink:href="#DejaVuSans-46"/>
       <use x="95.410156" xlink:href="#DejaVuSans-55"/>
      </g>
     </g>
    </g>
    <g id="text_18">
     <!-- $|\langle n |e^{ikr}| n + \Delta n \rangle|$ -->
     <g transform="translate(25.6 215.456)rotate(-90)scale(0.2 -0.2)">
      <defs>
       <path d="M 21 76.421875 
L 21 -23.578125 
L 12.703125 -23.578125 
L 12.703125 76.421875 
z
" id="DejaVuSans-124"/>
       <path d="M 8.9375 31.34375 
L 22.703125 75.875 
L 31 75.875 
L 17.234375 31.34375 
L 31 -13.1875 
L 22.703125 -13.1875 
z
" id="DejaVuSans-10216"/>
       <path d="M 48.09375 32.234375 
Q 48.25 33.015625 48.3125 33.84375 
Q 48.390625 34.671875 48.390625 35.5 
Q 48.390625 41.453125 44.890625 44.921875 
Q 41.40625 48.390625 35.40625 48.390625 
Q 28.71875 48.390625 23.578125 44.15625 
Q 18.453125 39.9375 15.828125 32.171875 
z
M 55.90625 25.203125 
L 14.109375 25.203125 
Q 13.8125 23.34375 13.71875 22.265625 
Q 13.625 21.1875 13.625 20.40625 
Q 13.625 13.625 17.796875 9.90625 
Q 21.96875 6.203125 29.59375 6.203125 
Q 35.453125 6.203125 40.671875 7.515625 
Q 45.90625 8.84375 50.390625 11.375 
L 48.6875 2.484375 
Q 43.84375 0.53125 38.6875 -0.4375 
Q 33.546875 -1.421875 28.21875 -1.421875 
Q 16.84375 -1.421875 10.71875 4.015625 
Q 4.59375 9.46875 4.59375 19.484375 
Q 4.59375 28.03125 7.640625 35.375 
Q 10.6875 42.71875 16.609375 48.484375 
Q 20.40625 52.09375 25.65625 54.046875 
Q 30.90625 56 36.8125 56 
Q 46.09375 56 51.578125 50.4375 
Q 57.078125 44.875 57.078125 35.5 
Q 57.078125 33.25 56.78125 30.6875 
Q 56.5 28.125 55.90625 25.203125 
z
" id="DejaVuSans-Oblique-101"/>
       <path d="M 18.3125 75.984375 
L 27.296875 75.984375 
L 25.09375 64.59375 
L 16.109375 64.59375 
z
M 14.203125 54.6875 
L 23.1875 54.6875 
L 12.5 0 
L 3.515625 0 
z
" id="DejaVuSans-Oblique-105"/>
       <path d="M 18.3125 75.984375 
L 27.296875 75.984375 
L 18.703125 31.6875 
L 49.515625 54.6875 
L 61.1875 54.6875 
L 26.8125 28.515625 
L 51.90625 0 
L 41.015625 0 
L 17.671875 26.703125 
L 12.5 0 
L 3.515625 0 
z
" id="DejaVuSans-Oblique-107"/>
       <path d="M 44.578125 46.390625 
Q 43.21875 47.125 41.453125 47.515625 
Q 39.703125 47.90625 37.703125 47.90625 
Q 30.515625 47.90625 25.140625 42.453125 
Q 19.78125 37.015625 18.015625 27.875 
L 12.5 0 
L 3.515625 0 
L 14.203125 54.6875 
L 23.1875 54.6875 
L 21.484375 46.1875 
Q 25.046875 50.921875 30 53.453125 
Q 34.96875 56 40.578125 56 
Q 42.046875 56 43.453125 55.828125 
Q 44.875 55.671875 46.296875 55.28125 
z
" id="DejaVuSans-Oblique-114"/>
       <path d="M 46 62.703125 
L 46 35.5 
L 73.1875 35.5 
L 73.1875 27.203125 
L 46 27.203125 
L 46 0 
L 37.796875 0 
L 37.796875 27.203125 
L 10.59375 27.203125 
L 10.59375 35.5 
L 37.796875 35.5 
L 37.796875 62.703125 
z
" id="DejaVuSans-43"/>
       <path d="M 34.1875 63.1875 
L 14.15625 8.203125 
L 54.25 8.203125 
z
M 0.78125 0 
L 28.609375 72.90625 
L 39.796875 72.90625 
L 67.578125 0 
z
" id="DejaVuSans-916"/>
       <path d="M 30.078125 31.34375 
L 16.3125 -13.1875 
L 8.015625 -13.1875 
L 21.78125 31.34375 
L 8.015625 75.875 
L 16.3125 75.875 
z
" id="DejaVuSans-10217"/>
      </defs>
      <use transform="translate(0 0.529687)" xlink:href="#DejaVuSans-124"/>
      <use transform="translate(33.691406 0.529687)" xlink:href="#DejaVuSans-10216"/>
      <use transform="translate(72.705078 0.529687)" xlink:href="#DejaVuSans-Oblique-110"/>
      <use transform="translate(136.083984 0.529687)" xlink:href="#DejaVuSans-124"/>
      <use transform="translate(169.775391 0.529687)" xlink:href="#DejaVuSans-Oblique-101"/>
      <use transform="translate(235.948724 38.810937)scale(0.7)" xlink:href="#DejaVuSans-Oblique-105"/>
      <use transform="translate(255.396966 38.810937)scale(0.7)" xlink:href="#DejaVuSans-Oblique-107"/>
      <use transform="translate(295.934076 38.810937)scale(0.7)" xlink:href="#DejaVuSans-Oblique-114"/>
      <use transform="translate(327.447747 0.529687)" xlink:href="#DejaVuSans-124"/>
      <use transform="translate(361.139154 0.529687)" xlink:href="#DejaVuSans-Oblique-110"/>
      <use transform="translate(444.000482 0.529687)" xlink:href="#DejaVuSans-43"/>
      <use transform="translate(547.271966 0.529687)" xlink:href="#DejaVuSans-916"/>
      <use transform="translate(615.680169 0.529687)" xlink:href="#DejaVuSans-Oblique-110"/>
      <use transform="translate(679.059076 0.529687)" xlink:href="#DejaVuSans-10217"/>
      <use transform="translate(718.072747 0.529687)" xlink:href="#DejaVuSans-124"/>
     </g>
    </g>
   </g>
   <g id="line2d_33">
    <path clip-path="url(#pf39720cbdc)" d="M 65.254688 273.312 
L 70.356402 133.714584 
L 75.458116 94.304319 
L 80.55983 75.222154 
L 85.661545 67.454587 
L 90.763259 67.089193 
L 95.864973 71.907469 
L 100.966688 80.470364 
L 106.068402 91.766686 
L 111.170116 105.048176 
L 116.27183 119.741389 
L 121.373545 135.396 
L 126.475259 151.652283 
L 131.576973 168.219471 
L 136.678688 184.860721 
L 141.780402 201.382267 
L 146.882116 217.625355 
L 151.98383 233.46009 
L 157.085545 248.780643 
L 162.187259 263.501432 
L 167.288973 269.069951 
L 172.390688 255.739268 
L 177.492402 243.171724 
L 182.594116 231.397721 
L 187.69583 220.438344 
L 192.797545 210.306628 
L 197.899259 201.008642 
L 203.000973 192.544437 
L 208.102688 184.908857 
L 213.204402 178.092259 
L 218.306116 172.081141 
L 223.40783 166.85869 
L 228.509545 162.405274 
L 233.611259 158.698876 
L 238.712973 155.715471 
L 243.814688 153.429376 
L 248.916402 151.813546 
L 254.018116 150.83985 
L 259.11983 150.479311 
L 264.221545 150.702324 
L 269.323259 151.478845 
L 274.424973 152.778563 
L 279.526688 154.571058 
L 284.628402 156.825931 
L 289.730116 159.512933 
L 294.83183 162.602062 
L 299.933545 166.063671 
L 305.035259 169.868541 
L 310.136973 173.987963 
L 315.238688 178.393799 
L 320.340402 183.058539 
L 325.442116 187.955352 
L 330.54383 193.058125 
L 335.645545 198.341502 
L 340.747259 203.780909 
L 345.848973 209.352586 
L 350.950688 215.0336 
L 356.052402 220.801865 
L 361.154116 226.636153 
L 366.25583 232.516099 
L 371.357545 238.422212 
L 376.459259 244.335869 
L 381.560973 250.239321 
L 386.662688 256.115687 
L 391.764402 261.948948 
L 396.866116 267.72394 
L 401.96783 273.197654 
L 407.069545 267.581319 
L 412.171259 262.063712 
L 417.272973 256.656687 
L 422.374688 251.3713 
" style="fill:none;stroke:#1f77b4;stroke-linecap:square;stroke-width:1.5;"/>
    <defs>
     <path d="M 0 1.5 
C 0.397805 1.5 0.77937 1.341951 1.06066 1.06066 
C 1.341951 0.77937 1.5 0.397805 1.5 0 
C 1.5 -0.397805 1.341951 -0.77937 1.06066 -1.06066 
C 0.77937 -1.341951 0.397805 -1.5 0 -1.5 
C -0.397805 -1.5 -0.77937 -1.341951 -1.06066 -1.06066 
C -1.341951 -0.77937 -1.5 -0.397805 -1.5 0 
C -1.5 0.397805 -1.341951 0.77937 -1.06066 1.06066 
C -0.77937 1.341951 -0.397805 1.5 0 1.5 
z
" id="mb8bc26594a" style="stroke:#1f77b4;"/>
    </defs>
    <g clip-path="url(#pf39720cbdc)">
     <use style="fill:#1f77b4;stroke:#1f77b4;" x="65.254688" xlink:href="#mb8bc26594a" y="273.312"/>
     <use style="fill:#1f77b4;stroke:#1f77b4;" x="70.356402" xlink:href="#mb8bc26594a" y="133.714584"/>
     <use style="fill:#1f77b4;stroke:#1f77b4;" x="75.458116" xlink:href="#mb8bc26594a" y="94.304319"/>
     <use style="fill:#1f77b4;stroke:#1f77b4;" x="80.55983" xlink:href="#mb8bc26594a" y="75.222154"/>
     <use style="fill:#1f77b4;stroke:#1f77b4;" x="85.661545" xlink:href="#mb8bc26594a" y="67.454587"/>
     <use style="fill:#1f77b4;stroke:#1f77b4;" x="90.763259" xlink:href="#mb8bc26594a" y="67.089193"/>
     <use style="fill:#1f77b4;stroke:#1f77b4;" x="95.864973" xlink:href="#mb8bc26594a" y="71.907469"/>
     <use style="fill:#1f77b4;stroke:#1f77b4;" x="100.966688" xlink:href="#mb8bc26594a" y="80.470364"/>
     <use style="fill:#1f77b4;stroke:#1f77b4;" x="106.068402" xlink:href="#mb8bc26594a" y="91.766686"/>
     <use style="fill:#1f77b4;stroke:#1f77b4;" x="111.170116" xlink:href="#mb8bc26594a" y="105.048176"/>
     <use style="fill:#1f77b4;stroke:#1f77b4;" x="116.27183" xlink:href="#mb8bc26594a" y="119.741389"/>
     <use style="fill:#1f77b4;stroke:#1f77b4;" x="121.373545" xlink:href="#mb8bc26594a" y="135.396"/>
     <use style="fill:#1f77b4;stroke:#1f77b4;" x="126.475259" xlink:href="#mb8bc26594a" y="151.652283"/>
     <use style="fill:#1f77b4;stroke:#1f77b4;" x="131.576973" xlink:href="#mb8bc26594a" y="168.219471"/>
     <use style="fill:#1f77b4;stroke:#1f77b4;" x="136.678688" xlink:href="#mb8bc26594a" y="184.860721"/>
     <use style="fill:#1f77b4;stroke:#1f77b4;" x="141.780402" xlink:href="#mb8bc26594a" y="201.382267"/>
     <use style="fill:#1f77b4;stroke:#1f77b4;" x="146.882116" xlink:href="#mb8bc26594a" y="217.625355"/>
     <use style="fill:#1f77b4;stroke:#1f77b4;" x="151.98383" xlink:href="#mb8bc26594a" y="233.46009"/>
     <use style="fill:#1f77b4;stroke:#1f77b4;" x="157.085545" xlink:href="#mb8bc26594a" y="248.780643"/>
     <use style="fill:#1f77b4;stroke:#1f77b4;" x="162.187259" xlink:href="#mb8bc26594a" y="263.501432"/>
     <use style="fill:#1f77b4;stroke:#1f77b4;" x="167.288973" xlink:href="#mb8bc26594a" y="269.069951"/>
     <use style="fill:#1f77b4;stroke:#1f77b4;" x="172.390688" xlink:href="#mb8bc26594a" y="255.739268"/>
     <use style="fill:#1f77b4;stroke:#1f77b4;" x="177.492402" xlink:href="#mb8bc26594a" y="243.171724"/>
     <use style="fill:#1f77b4;stroke:#1f77b4;" x="182.594116" xlink:href="#mb8bc26594a" y="231.397721"/>
     <use style="fill:#1f77b4;stroke:#1f77b4;" x="187.69583" xlink:href="#mb8bc26594a" y="220.438344"/>
     <use style="fill:#1f77b4;stroke:#1f77b4;" x="192.797545" xlink:href="#mb8bc26594a" y="210.306628"/>
     <use style="fill:#1f77b4;stroke:#1f77b4;" x="197.899259" xlink:href="#mb8bc26594a" y="201.008642"/>
     <use style="fill:#1f77b4;stroke:#1f77b4;" x="203.000973" xlink:href="#mb8bc26594a" y="192.544437"/>
     <use style="fill:#1f77b4;stroke:#1f77b4;" x="208.102688" xlink:href="#mb8bc26594a" y="184.908857"/>
     <use style="fill:#1f77b4;stroke:#1f77b4;" x="213.204402" xlink:href="#mb8bc26594a" y="178.092259"/>
     <use style="fill:#1f77b4;stroke:#1f77b4;" x="218.306116" xlink:href="#mb8bc26594a" y="172.081141"/>
     <use style="fill:#1f77b4;stroke:#1f77b4;" x="223.40783" xlink:href="#mb8bc26594a" y="166.85869"/>
     <use style="fill:#1f77b4;stroke:#1f77b4;" x="228.509545" xlink:href="#mb8bc26594a" y="162.405274"/>
     <use style="fill:#1f77b4;stroke:#1f77b4;" x="233.611259" xlink:href="#mb8bc26594a" y="158.698876"/>
     <use style="fill:#1f77b4;stroke:#1f77b4;" x="238.712973" xlink:href="#mb8bc26594a" y="155.715471"/>
     <use style="fill:#1f77b4;stroke:#1f77b4;" x="243.814688" xlink:href="#mb8bc26594a" y="153.429376"/>
     <use style="fill:#1f77b4;stroke:#1f77b4;" x="248.916402" xlink:href="#mb8bc26594a" y="151.813546"/>
     <use style="fill:#1f77b4;stroke:#1f77b4;" x="254.018116" xlink:href="#mb8bc26594a" y="150.83985"/>
     <use style="fill:#1f77b4;stroke:#1f77b4;" x="259.11983" xlink:href="#mb8bc26594a" y="150.479311"/>
     <use style="fill:#1f77b4;stroke:#1f77b4;" x="264.221545" xlink:href="#mb8bc26594a" y="150.702324"/>
     <use style="fill:#1f77b4;stroke:#1f77b4;" x="269.323259" xlink:href="#mb8bc26594a" y="151.478845"/>
     <use style="fill:#1f77b4;stroke:#1f77b4;" x="274.424973" xlink:href="#mb8bc26594a" y="152.778563"/>
     <use style="fill:#1f77b4;stroke:#1f77b4;" x="279.526688" xlink:href="#mb8bc26594a" y="154.571058"/>
     <use style="fill:#1f77b4;stroke:#1f77b4;" x="284.628402" xlink:href="#mb8bc26594a" y="156.825931"/>
     <use style="fill:#1f77b4;stroke:#1f77b4;" x="289.730116" xlink:href="#mb8bc26594a" y="159.512933"/>
     <use style="fill:#1f77b4;stroke:#1f77b4;" x="294.83183" xlink:href="#mb8bc26594a" y="162.602062"/>
     <use style="fill:#1f77b4;stroke:#1f77b4;" x="299.933545" xlink:href="#mb8bc26594a" y="166.063671"/>
     <use style="fill:#1f77b4;stroke:#1f77b4;" x="305.035259" xlink:href="#mb8bc26594a" y="169.868541"/>
     <use style="fill:#1f77b4;stroke:#1f77b4;" x="310.136973" xlink:href="#mb8bc26594a" y="173.987963"/>
     <use style="fill:#1f77b4;stroke:#1f77b4;" x="315.238688" xlink:href="#mb8bc26594a" y="178.393799"/>
     <use style="fill:#1f77b4;stroke:#1f77b4;" x="320.340402" xlink:href="#mb8bc26594a" y="183.058539"/>
     <use style="fill:#1f77b4;stroke:#1f77b4;" x="325.442116" xlink:href="#mb8bc26594a" y="187.955352"/>
     <use style="fill:#1f77b4;stroke:#1f77b4;" x="330.54383" xlink:href="#mb8bc26594a" y="193.058125"/>
     <use style="fill:#1f77b4;stroke:#1f77b4;" x="335.645545" xlink:href="#mb8bc26594a" y="198.341502"/>
     <use style="fill:#1f77b4;stroke:#1f77b4;" x="340.747259" xlink:href="#mb8bc26594a" y="203.780909"/>
     <use style="fill:#1f77b4;stroke:#1f77b4;" x="345.848973" xlink:href="#mb8bc26594a" y="209.352586"/>
     <use style="fill:#1f77b4;stroke:#1f77b4;" x="350.950688" xlink:href="#mb8bc26594a" y="215.0336"/>
     <use style="fill:#1f77b4;stroke:#1f77b4;" x="356.052402" xlink:href="#mb8bc26594a" y="220.801865"/>
     <use style="fill:#1f77b4;stroke:#1f77b4;" x="361.154116" xlink:href="#mb8bc26594a" y="226.636153"/>
     <use style="fill:#1f77b4;stroke:#1f77b4;" x="366.25583" xlink:href="#mb8bc26594a" y="232.516099"/>
     <use style="fill:#1f77b4;stroke:#1f77b4;" x="371.357545" xlink:href="#mb8bc26594a" y="238.422212"/>
     <use style="fill:#1f77b4;stroke:#1f77b4;" x="376.459259" xlink:href="#mb8bc26594a" y="244.335869"/>
     <use style="fill:#1f77b4;stroke:#1f77b4;" x="381.560973" xlink:href="#mb8bc26594a" y="250.239321"/>
     <use style="fill:#1f77b4;stroke:#1f77b4;" x="386.662688" xlink:href="#mb8bc26594a" y="256.115687"/>
     <use style="fill:#1f77b4;stroke:#1f77b4;" x="391.764402" xlink:href="#mb8bc26594a" y="261.948948"/>
     <use style="fill:#1f77b4;stroke:#1f77b4;" x="396.866116" xlink:href="#mb8bc26594a" y="267.72394"/>
     <use style="fill:#1f77b4;stroke:#1f77b4;" x="401.96783" xlink:href="#mb8bc26594a" y="273.197654"/>
     <use style="fill:#1f77b4;stroke:#1f77b4;" x="407.069545" xlink:href="#mb8bc26594a" y="267.581319"/>
     <use style="fill:#1f77b4;stroke:#1f77b4;" x="412.171259" xlink:href="#mb8bc26594a" y="262.063712"/>
     <use style="fill:#1f77b4;stroke:#1f77b4;" x="417.272973" xlink:href="#mb8bc26594a" y="256.656687"/>
     <use style="fill:#1f77b4;stroke:#1f77b4;" x="422.374688" xlink:href="#mb8bc26594a" y="251.3713"/>
    </g>
   </g>
   <g id="patch_3">
    <path d="M 65.254688 273.312 
L 65.254688 7.2 
" style="fill:none;stroke:#000000;stroke-linecap:square;stroke-linejoin:miter;stroke-width:0.8;"/>
   </g>
   <g id="patch_4">
    <path d="M 422.374688 273.312 
L 422.374688 7.2 
" style="fill:none;stroke:#000000;stroke-linecap:square;stroke-linejoin:miter;stroke-width:0.8;"/>
   </g>
   <g id="patch_5">
    <path d="M 65.254688 273.312 
L 422.374688 273.312 
" style="fill:none;stroke:#000000;stroke-linecap:square;stroke-linejoin:miter;stroke-width:0.8;"/>
   </g>
   <g id="patch_6">
    <path d="M 65.254688 7.2 
L 422.374688 7.2 
" style="fill:none;stroke:#000000;stroke-linecap:square;stroke-linejoin:miter;stroke-width:0.8;"/>
   </g>
   <g id="text_19">
    <!-- $\Delta n\!\!=\!\!\!-\!1$ -->
    <g style="fill:#1f77b4;" transform="translate(65.254688 60.4224)scale(0.2 -0.2)">
     <defs>
      <path d="M 10.59375 45.40625 
L 73.1875 45.40625 
L 73.1875 37.203125 
L 10.59375 37.203125 
z
M 10.59375 25.484375 
L 73.1875 25.484375 
L 73.1875 17.1875 
L 10.59375 17.1875 
z
" id="DejaVuSans-61"/>
      <path d="M 10.59375 35.5 
L 73.1875 35.5 
L 73.1875 27.203125 
L 10.59375 27.203125 
z
" id="DejaVuSans-8722"/>
     </defs>
     <use transform="translate(0 0.09375)" xlink:href="#DejaVuSans-916"/>
     <use transform="translate(68.408203 0.09375)" xlink:href="#DejaVuSans-Oblique-110"/>
     <use transform="translate(118.798179 0.09375)" xlink:href="#DejaVuSans-61"/>
     <use transform="translate(192.845056 0.09375)" xlink:href="#DejaVuSans-8722"/>
     <use transform="translate(279.880864 0.09375)" xlink:href="#DejaVuSans-49"/>
    </g>
   </g>
  </g>
 </g>
 <defs>
  <clipPath id="pf39720cbdc">
   <rect height="266.112" width="357.12" x="65.254688" y="7.2"/>
  </clipPath>
 </defs>
</svg>
