<?xml version="1.0" encoding="utf-8" standalone="no"?>
<!DOCTYPE svg PUBLIC "-//W3C//DTD SVG 1.1//EN"
  "http://www.w3.org/Graphics/SVG/1.1/DTD/svg11.dtd">
<!-- Created with matplotlib (https://matplotlib.org/) -->
<svg height="331.128016pt" version="1.1" viewBox="0 0 425.730937 331.128016" width="425.730937pt" xmlns="http://www.w3.org/2000/svg" xmlns:xlink="http://www.w3.org/1999/xlink">
 <defs>
  <style type="text/css">*{stroke-linecap:butt;stroke-linejoin:round;}</style>
 </defs>
 <g id="figure_1">
  <g id="patch_1">
   <path d="M 0 331.128016 
L 425.730937 331.128016 
L 425.730937 0 
L 0 0 
z
" style="fill:none;"/>
  </g>
  <g id="axes_1">
   <g id="patch_2">
    <path d="M 61.410938 279.010828 
L 418.530938 279.010828 
L 418.530938 12.898828 
L 61.410938 12.898828 
z
" style="fill:none;"/>
   </g>
   <g id="matplotlib.axis_1">
    <g id="xtick_1">
     <g id="line2d_1">
      <path clip-path="url(#p304c686b55)" d="M 61.410938 279.010828 
L 61.410938 12.898828 
" style="fill:none;stroke:#b0b0b0;stroke-linecap:square;stroke-width:0.8;"/>
     </g>
     <g id="line2d_2">
      <defs>
       <path d="M 0 0 
L 0 3.5 
" id="m005f0a59be" style="stroke:#000000;stroke-width:0.8;"/>
      </defs>
      <g>
       <use style="stroke:#000000;stroke-width:0.8;" x="61.410938" xlink:href="#m005f0a59be" y="279.010828"/>
      </g>
     </g>
     <g id="text_1">
      <!-- 0 -->
      <g transform="translate(56.639063 297.408484)scale(0.15 -0.15)">
       <defs>
        <path d="M 31.78125 66.40625 
Q 24.171875 66.40625 20.328125 58.90625 
Q 16.5 51.421875 16.5 36.375 
Q 16.5 21.390625 20.328125 13.890625 
Q 24.171875 6.390625 31.78125 6.390625 
Q 39.453125 6.390625 43.28125 13.890625 
Q 47.125 21.390625 47.125 36.375 
Q 47.125 51.421875 43.28125 58.90625 
Q 39.453125 66.40625 31.78125 66.40625 
z
M 31.78125 74.21875 
Q 44.046875 74.21875 50.515625 64.515625 
Q 56.984375 54.828125 56.984375 36.375 
Q 56.984375 17.96875 50.515625 8.265625 
Q 44.046875 -1.421875 31.78125 -1.421875 
Q 19.53125 -1.421875 13.0625 8.265625 
Q 6.59375 17.96875 6.59375 36.375 
Q 6.59375 54.828125 13.0625 64.515625 
Q 19.53125 74.21875 31.78125 74.21875 
z
" id="DejaVuSans-48"/>
       </defs>
       <use xlink:href="#DejaVuSans-48"/>
      </g>
     </g>
    </g>
    <g id="xtick_2">
     <g id="line2d_3">
      <path clip-path="url(#p304c686b55)" d="M 129.433795 279.010828 
L 129.433795 12.898828 
" style="fill:none;stroke:#b0b0b0;stroke-linecap:square;stroke-width:0.8;"/>
     </g>
     <g id="line2d_4">
      <g>
       <use style="stroke:#000000;stroke-width:0.8;" x="129.433795" xlink:href="#m005f0a59be" y="279.010828"/>
      </g>
     </g>
     <g id="text_2">
      <!-- 20 -->
      <g transform="translate(119.890045 297.408484)scale(0.15 -0.15)">
       <defs>
        <path d="M 19.1875 8.296875 
L 53.609375 8.296875 
L 53.609375 0 
L 7.328125 0 
L 7.328125 8.296875 
Q 12.9375 14.109375 22.625 23.890625 
Q 32.328125 33.6875 34.8125 36.53125 
Q 39.546875 41.84375 41.421875 45.53125 
Q 43.3125 49.21875 43.3125 52.78125 
Q 43.3125 58.59375 39.234375 62.25 
Q 35.15625 65.921875 28.609375 65.921875 
Q 23.96875 65.921875 18.8125 64.3125 
Q 13.671875 62.703125 7.8125 59.421875 
L 7.8125 69.390625 
Q 13.765625 71.78125 18.9375 73 
Q 24.125 74.21875 28.421875 74.21875 
Q 39.75 74.21875 46.484375 68.546875 
Q 53.21875 62.890625 53.21875 53.421875 
Q 53.21875 48.921875 51.53125 44.890625 
Q 49.859375 40.875 45.40625 35.40625 
Q 44.1875 33.984375 37.640625 27.21875 
Q 31.109375 20.453125 19.1875 8.296875 
z
" id="DejaVuSans-50"/>
       </defs>
       <use xlink:href="#DejaVuSans-50"/>
       <use x="63.623047" xlink:href="#DejaVuSans-48"/>
      </g>
     </g>
    </g>
    <g id="xtick_3">
     <g id="line2d_5">
      <path clip-path="url(#p304c686b55)" d="M 197.456652 279.010828 
L 197.456652 12.898828 
" style="fill:none;stroke:#b0b0b0;stroke-linecap:square;stroke-width:0.8;"/>
     </g>
     <g id="line2d_6">
      <g>
       <use style="stroke:#000000;stroke-width:0.8;" x="197.456652" xlink:href="#m005f0a59be" y="279.010828"/>
      </g>
     </g>
     <g id="text_3">
      <!-- 40 -->
      <g transform="translate(187.912902 297.408484)scale(0.15 -0.15)">
       <defs>
        <path d="M 37.796875 64.3125 
L 12.890625 25.390625 
L 37.796875 25.390625 
z
M 35.203125 72.90625 
L 47.609375 72.90625 
L 47.609375 25.390625 
L 58.015625 25.390625 
L 58.015625 17.1875 
L 47.609375 17.1875 
L 47.609375 0 
L 37.796875 0 
L 37.796875 17.1875 
L 4.890625 17.1875 
L 4.890625 26.703125 
z
" id="DejaVuSans-52"/>
       </defs>
       <use xlink:href="#DejaVuSans-52"/>
       <use x="63.623047" xlink:href="#DejaVuSans-48"/>
      </g>
     </g>
    </g>
    <g id="xtick_4">
     <g id="line2d_7">
      <path clip-path="url(#p304c686b55)" d="M 265.479509 279.010828 
L 265.479509 12.898828 
" style="fill:none;stroke:#b0b0b0;stroke-linecap:square;stroke-width:0.8;"/>
     </g>
     <g id="line2d_8">
      <g>
       <use style="stroke:#000000;stroke-width:0.8;" x="265.479509" xlink:href="#m005f0a59be" y="279.010828"/>
      </g>
     </g>
     <g id="text_4">
      <!-- 60 -->
      <g transform="translate(255.935759 297.408484)scale(0.15 -0.15)">
       <defs>
        <path d="M 33.015625 40.375 
Q 26.375 40.375 22.484375 35.828125 
Q 18.609375 31.296875 18.609375 23.390625 
Q 18.609375 15.53125 22.484375 10.953125 
Q 26.375 6.390625 33.015625 6.390625 
Q 39.65625 6.390625 43.53125 10.953125 
Q 47.40625 15.53125 47.40625 23.390625 
Q 47.40625 31.296875 43.53125 35.828125 
Q 39.65625 40.375 33.015625 40.375 
z
M 52.59375 71.296875 
L 52.59375 62.3125 
Q 48.875 64.0625 45.09375 64.984375 
Q 41.3125 65.921875 37.59375 65.921875 
Q 27.828125 65.921875 22.671875 59.328125 
Q 17.53125 52.734375 16.796875 39.40625 
Q 19.671875 43.65625 24.015625 45.921875 
Q 28.375 48.1875 33.59375 48.1875 
Q 44.578125 48.1875 50.953125 41.515625 
Q 57.328125 34.859375 57.328125 23.390625 
Q 57.328125 12.15625 50.6875 5.359375 
Q 44.046875 -1.421875 33.015625 -1.421875 
Q 20.359375 -1.421875 13.671875 8.265625 
Q 6.984375 17.96875 6.984375 36.375 
Q 6.984375 53.65625 15.1875 63.9375 
Q 23.390625 74.21875 37.203125 74.21875 
Q 40.921875 74.21875 44.703125 73.484375 
Q 48.484375 72.75 52.59375 71.296875 
z
" id="DejaVuSans-54"/>
       </defs>
       <use xlink:href="#DejaVuSans-54"/>
       <use x="63.623047" xlink:href="#DejaVuSans-48"/>
      </g>
     </g>
    </g>
    <g id="xtick_5">
     <g id="line2d_9">
      <path clip-path="url(#p304c686b55)" d="M 333.502366 279.010828 
L 333.502366 12.898828 
" style="fill:none;stroke:#b0b0b0;stroke-linecap:square;stroke-width:0.8;"/>
     </g>
     <g id="line2d_10">
      <g>
       <use style="stroke:#000000;stroke-width:0.8;" x="333.502366" xlink:href="#m005f0a59be" y="279.010828"/>
      </g>
     </g>
     <g id="text_5">
      <!-- 80 -->
      <g transform="translate(323.958616 297.408484)scale(0.15 -0.15)">
       <defs>
        <path d="M 31.78125 34.625 
Q 24.75 34.625 20.71875 30.859375 
Q 16.703125 27.09375 16.703125 20.515625 
Q 16.703125 13.921875 20.71875 10.15625 
Q 24.75 6.390625 31.78125 6.390625 
Q 38.8125 6.390625 42.859375 10.171875 
Q 46.921875 13.96875 46.921875 20.515625 
Q 46.921875 27.09375 42.890625 30.859375 
Q 38.875 34.625 31.78125 34.625 
z
M 21.921875 38.8125 
Q 15.578125 40.375 12.03125 44.71875 
Q 8.5 49.078125 8.5 55.328125 
Q 8.5 64.0625 14.71875 69.140625 
Q 20.953125 74.21875 31.78125 74.21875 
Q 42.671875 74.21875 48.875 69.140625 
Q 55.078125 64.0625 55.078125 55.328125 
Q 55.078125 49.078125 51.53125 44.71875 
Q 48 40.375 41.703125 38.8125 
Q 48.828125 37.15625 52.796875 32.3125 
Q 56.78125 27.484375 56.78125 20.515625 
Q 56.78125 9.90625 50.3125 4.234375 
Q 43.84375 -1.421875 31.78125 -1.421875 
Q 19.734375 -1.421875 13.25 4.234375 
Q 6.78125 9.90625 6.78125 20.515625 
Q 6.78125 27.484375 10.78125 32.3125 
Q 14.796875 37.15625 21.921875 38.8125 
z
M 18.3125 54.390625 
Q 18.3125 48.734375 21.84375 45.5625 
Q 25.390625 42.390625 31.78125 42.390625 
Q 38.140625 42.390625 41.71875 45.5625 
Q 45.3125 48.734375 45.3125 54.390625 
Q 45.3125 60.0625 41.71875 63.234375 
Q 38.140625 66.40625 31.78125 66.40625 
Q 25.390625 66.40625 21.84375 63.234375 
Q 18.3125 60.0625 18.3125 54.390625 
z
" id="DejaVuSans-56"/>
       </defs>
       <use xlink:href="#DejaVuSans-56"/>
       <use x="63.623047" xlink:href="#DejaVuSans-48"/>
      </g>
     </g>
    </g>
    <g id="xtick_6">
     <g id="line2d_11">
      <path clip-path="url(#p304c686b55)" d="M 401.525223 279.010828 
L 401.525223 12.898828 
" style="fill:none;stroke:#b0b0b0;stroke-linecap:square;stroke-width:0.8;"/>
     </g>
     <g id="line2d_12">
      <g>
       <use style="stroke:#000000;stroke-width:0.8;" x="401.525223" xlink:href="#m005f0a59be" y="279.010828"/>
      </g>
     </g>
     <g id="text_6">
      <!-- 100 -->
      <g transform="translate(387.209598 297.408484)scale(0.15 -0.15)">
       <defs>
        <path d="M 12.40625 8.296875 
L 28.515625 8.296875 
L 28.515625 63.921875 
L 10.984375 60.40625 
L 10.984375 69.390625 
L 28.421875 72.90625 
L 38.28125 72.90625 
L 38.28125 8.296875 
L 54.390625 8.296875 
L 54.390625 0 
L 12.40625 0 
z
" id="DejaVuSans-49"/>
       </defs>
       <use xlink:href="#DejaVuSans-49"/>
       <use x="63.623047" xlink:href="#DejaVuSans-48"/>
       <use x="127.246094" xlink:href="#DejaVuSans-48"/>
      </g>
     </g>
    </g>
    <g id="text_7">
     <!-- Time ($\mu s$) -->
     <g transform="translate(192.570938 319.728016)scale(0.2 -0.2)">
      <defs>
       <path d="M -0.296875 72.90625 
L 61.375 72.90625 
L 61.375 64.59375 
L 35.5 64.59375 
L 35.5 0 
L 25.59375 0 
L 25.59375 64.59375 
L -0.296875 64.59375 
z
" id="DejaVuSans-84"/>
       <path d="M 9.421875 54.6875 
L 18.40625 54.6875 
L 18.40625 0 
L 9.421875 0 
z
M 9.421875 75.984375 
L 18.40625 75.984375 
L 18.40625 64.59375 
L 9.421875 64.59375 
z
" id="DejaVuSans-105"/>
       <path d="M 52 44.1875 
Q 55.375 50.25 60.0625 53.125 
Q 64.75 56 71.09375 56 
Q 79.640625 56 84.28125 50.015625 
Q 88.921875 44.046875 88.921875 33.015625 
L 88.921875 0 
L 79.890625 0 
L 79.890625 32.71875 
Q 79.890625 40.578125 77.09375 44.375 
Q 74.3125 48.1875 68.609375 48.1875 
Q 61.625 48.1875 57.5625 43.546875 
Q 53.515625 38.921875 53.515625 30.90625 
L 53.515625 0 
L 44.484375 0 
L 44.484375 32.71875 
Q 44.484375 40.625 41.703125 44.40625 
Q 38.921875 48.1875 33.109375 48.1875 
Q 26.21875 48.1875 22.15625 43.53125 
Q 18.109375 38.875 18.109375 30.90625 
L 18.109375 0 
L 9.078125 0 
L 9.078125 54.6875 
L 18.109375 54.6875 
L 18.109375 46.1875 
Q 21.1875 51.21875 25.484375 53.609375 
Q 29.78125 56 35.6875 56 
Q 41.65625 56 45.828125 52.96875 
Q 50 49.953125 52 44.1875 
z
" id="DejaVuSans-109"/>
       <path d="M 56.203125 29.59375 
L 56.203125 25.203125 
L 14.890625 25.203125 
Q 15.484375 15.921875 20.484375 11.0625 
Q 25.484375 6.203125 34.421875 6.203125 
Q 39.59375 6.203125 44.453125 7.46875 
Q 49.3125 8.734375 54.109375 11.28125 
L 54.109375 2.78125 
Q 49.265625 0.734375 44.1875 -0.34375 
Q 39.109375 -1.421875 33.890625 -1.421875 
Q 20.796875 -1.421875 13.15625 6.1875 
Q 5.515625 13.8125 5.515625 26.8125 
Q 5.515625 40.234375 12.765625 48.109375 
Q 20.015625 56 32.328125 56 
Q 43.359375 56 49.78125 48.890625 
Q 56.203125 41.796875 56.203125 29.59375 
z
M 47.21875 32.234375 
Q 47.125 39.59375 43.09375 43.984375 
Q 39.0625 48.390625 32.421875 48.390625 
Q 24.90625 48.390625 20.390625 44.140625 
Q 15.875 39.890625 15.1875 32.171875 
z
" id="DejaVuSans-101"/>
       <path id="DejaVuSans-32"/>
       <path d="M 31 75.875 
Q 24.46875 64.65625 21.28125 53.65625 
Q 18.109375 42.671875 18.109375 31.390625 
Q 18.109375 20.125 21.3125 9.0625 
Q 24.515625 -2 31 -13.1875 
L 23.1875 -13.1875 
Q 15.875 -1.703125 12.234375 9.375 
Q 8.59375 20.453125 8.59375 31.390625 
Q 8.59375 42.28125 12.203125 53.3125 
Q 15.828125 64.359375 23.1875 75.875 
z
" id="DejaVuSans-40"/>
       <path d="M -1.3125 -20.796875 
L 13.375 54.6875 
L 22.40625 54.6875 
L 15.765625 20.65625 
Q 15.578125 19.625 15.421875 18.359375 
Q 15.28125 17.09375 15.28125 15.828125 
Q 15.28125 11.28125 18.140625 8.828125 
Q 21 6.390625 26.3125 6.390625 
Q 33.546875 6.390625 37.984375 10.484375 
Q 42.4375 14.59375 44 22.796875 
L 50.203125 54.6875 
L 59.1875 54.6875 
L 51.03125 12.640625 
Q 50.828125 11.71875 50.75 11.03125 
Q 50.6875 10.359375 50.6875 9.8125 
Q 50.6875 8.296875 51.296875 7.59375 
Q 51.90625 6.890625 53.21875 6.890625 
Q 53.71875 6.890625 54.5625 7.125 
Q 55.421875 7.375 56.984375 8.015625 
L 55.609375 0.78125 
Q 53.46875 -0.296875 51.515625 -0.859375 
Q 49.5625 -1.421875 47.703125 -1.421875 
Q 44.484375 -1.421875 42.65625 0.625 
Q 40.828125 2.6875 40.828125 6.296875 
Q 38.09375 2.390625 34.296875 0.484375 
Q 30.515625 -1.421875 25.390625 -1.421875 
Q 20.84375 -1.421875 17.453125 0.671875 
Q 14.0625 2.78125 12.984375 6.203125 
L 7.71875 -20.796875 
z
" id="DejaVuSans-Oblique-956"/>
       <path d="M 50 53.078125 
L 48.296875 44.578125 
Q 44.734375 46.53125 40.765625 47.5 
Q 36.8125 48.484375 32.625 48.484375 
Q 25.53125 48.484375 21.453125 46.0625 
Q 17.390625 43.65625 17.390625 39.5 
Q 17.390625 34.671875 26.859375 32.078125 
Q 27.59375 31.890625 27.9375 31.78125 
L 30.8125 30.90625 
Q 39.796875 28.421875 42.796875 25.6875 
Q 45.796875 22.953125 45.796875 18.21875 
Q 45.796875 9.515625 38.890625 4.046875 
Q 31.984375 -1.421875 20.796875 -1.421875 
Q 16.453125 -1.421875 11.671875 -0.578125 
Q 6.890625 0.25 1.125 2 
L 2.875 11.28125 
Q 7.8125 8.734375 12.59375 7.421875 
Q 17.390625 6.109375 21.78125 6.109375 
Q 28.375 6.109375 32.5 8.9375 
Q 36.625 11.765625 36.625 16.109375 
Q 36.625 20.796875 25.78125 23.6875 
L 24.859375 23.921875 
L 21.78125 24.703125 
Q 14.9375 26.515625 11.765625 29.46875 
Q 8.59375 32.421875 8.59375 37.015625 
Q 8.59375 45.75 15.15625 50.875 
Q 21.734375 56 33.015625 56 
Q 37.453125 56 41.671875 55.265625 
Q 45.90625 54.546875 50 53.078125 
z
" id="DejaVuSans-Oblique-115"/>
       <path d="M 8.015625 75.875 
L 15.828125 75.875 
Q 23.140625 64.359375 26.78125 53.3125 
Q 30.421875 42.28125 30.421875 31.390625 
Q 30.421875 20.453125 26.78125 9.375 
Q 23.140625 -1.703125 15.828125 -13.1875 
L 8.015625 -13.1875 
Q 14.5 -2 17.703125 9.0625 
Q 20.90625 20.125 20.90625 31.390625 
Q 20.90625 42.671875 17.703125 53.65625 
Q 14.5 64.65625 8.015625 75.875 
z
" id="DejaVuSans-41"/>
      </defs>
      <use transform="translate(0 0.015625)" xlink:href="#DejaVuSans-84"/>
      <use transform="translate(61.083984 0.015625)" xlink:href="#DejaVuSans-105"/>
      <use transform="translate(88.867188 0.015625)" xlink:href="#DejaVuSans-109"/>
      <use transform="translate(186.279297 0.015625)" xlink:href="#DejaVuSans-101"/>
      <use transform="translate(247.802734 0.015625)" xlink:href="#DejaVuSans-32"/>
      <use transform="translate(279.589844 0.015625)" xlink:href="#DejaVuSans-40"/>
      <use transform="translate(318.603516 0.015625)" xlink:href="#DejaVuSans-Oblique-956"/>
      <use transform="translate(382.226562 0.015625)" xlink:href="#DejaVuSans-Oblique-115"/>
      <use transform="translate(434.326172 0.015625)" xlink:href="#DejaVuSans-41"/>
     </g>
    </g>
   </g>
   <g id="matplotlib.axis_2">
    <g id="ytick_1">
     <g id="line2d_13">
      <path clip-path="url(#p304c686b55)" d="M 61.410938 279.010828 
L 418.530938 279.010828 
" style="fill:none;stroke:#b0b0b0;stroke-linecap:square;stroke-width:0.8;"/>
     </g>
     <g id="line2d_14">
      <defs>
       <path d="M 0 0 
L -3.5 0 
" id="mc3ce260a5b" style="stroke:#000000;stroke-width:0.8;"/>
      </defs>
      <g>
       <use style="stroke:#000000;stroke-width:0.8;" x="61.410938" xlink:href="#mc3ce260a5b" y="279.010828"/>
      </g>
     </g>
     <g id="text_8">
      <!-- 0.0 -->
      <g transform="translate(30.55625 284.709656)scale(0.15 -0.15)">
       <defs>
        <path d="M 10.6875 12.40625 
L 21 12.40625 
L 21 0 
L 10.6875 0 
z
" id="DejaVuSans-46"/>
       </defs>
       <use xlink:href="#DejaVuSans-48"/>
       <use x="63.623047" xlink:href="#DejaVuSans-46"/>
       <use x="95.410156" xlink:href="#DejaVuSans-48"/>
      </g>
     </g>
    </g>
    <g id="ytick_2">
     <g id="line2d_15">
      <path clip-path="url(#p304c686b55)" d="M 61.410938 225.788428 
L 418.530938 225.788428 
" style="fill:none;stroke:#b0b0b0;stroke-linecap:square;stroke-width:0.8;"/>
     </g>
     <g id="line2d_16">
      <g>
       <use style="stroke:#000000;stroke-width:0.8;" x="61.410938" xlink:href="#mc3ce260a5b" y="225.788428"/>
      </g>
     </g>
     <g id="text_9">
      <!-- 0.2 -->
      <g transform="translate(30.55625 231.487256)scale(0.15 -0.15)">
       <use xlink:href="#DejaVuSans-48"/>
       <use x="63.623047" xlink:href="#DejaVuSans-46"/>
       <use x="95.410156" xlink:href="#DejaVuSans-50"/>
      </g>
     </g>
    </g>
    <g id="ytick_3">
     <g id="line2d_17">
      <path clip-path="url(#p304c686b55)" d="M 61.410938 172.566028 
L 418.530938 172.566028 
" style="fill:none;stroke:#b0b0b0;stroke-linecap:square;stroke-width:0.8;"/>
     </g>
     <g id="line2d_18">
      <g>
       <use style="stroke:#000000;stroke-width:0.8;" x="61.410938" xlink:href="#mc3ce260a5b" y="172.566028"/>
      </g>
     </g>
     <g id="text_10">
      <!-- 0.4 -->
      <g transform="translate(30.55625 178.264856)scale(0.15 -0.15)">
       <use xlink:href="#DejaVuSans-48"/>
       <use x="63.623047" xlink:href="#DejaVuSans-46"/>
       <use x="95.410156" xlink:href="#DejaVuSans-52"/>
      </g>
     </g>
    </g>
    <g id="ytick_4">
     <g id="line2d_19">
      <path clip-path="url(#p304c686b55)" d="M 61.410938 119.343628 
L 418.530938 119.343628 
" style="fill:none;stroke:#b0b0b0;stroke-linecap:square;stroke-width:0.8;"/>
     </g>
     <g id="line2d_20">
      <g>
       <use style="stroke:#000000;stroke-width:0.8;" x="61.410938" xlink:href="#mc3ce260a5b" y="119.343628"/>
      </g>
     </g>
     <g id="text_11">
      <!-- 0.6 -->
      <g transform="translate(30.55625 125.042456)scale(0.15 -0.15)">
       <use xlink:href="#DejaVuSans-48"/>
       <use x="63.623047" xlink:href="#DejaVuSans-46"/>
       <use x="95.410156" xlink:href="#DejaVuSans-54"/>
      </g>
     </g>
    </g>
    <g id="ytick_5">
     <g id="line2d_21">
      <path clip-path="url(#p304c686b55)" d="M 61.410938 66.121228 
L 418.530938 66.121228 
" style="fill:none;stroke:#b0b0b0;stroke-linecap:square;stroke-width:0.8;"/>
     </g>
     <g id="line2d_22">
      <g>
       <use style="stroke:#000000;stroke-width:0.8;" x="61.410938" xlink:href="#mc3ce260a5b" y="66.121228"/>
      </g>
     </g>
     <g id="text_12">
      <!-- 0.8 -->
      <g transform="translate(30.55625 71.820056)scale(0.15 -0.15)">
       <use xlink:href="#DejaVuSans-48"/>
       <use x="63.623047" xlink:href="#DejaVuSans-46"/>
       <use x="95.410156" xlink:href="#DejaVuSans-56"/>
      </g>
     </g>
    </g>
    <g id="ytick_6">
     <g id="line2d_23">
      <path clip-path="url(#p304c686b55)" d="M 61.410938 12.898828 
L 418.530938 12.898828 
" style="fill:none;stroke:#b0b0b0;stroke-linecap:square;stroke-width:0.8;"/>
     </g>
     <g id="line2d_24">
      <g>
       <use style="stroke:#000000;stroke-width:0.8;" x="61.410938" xlink:href="#mc3ce260a5b" y="12.898828"/>
      </g>
     </g>
     <g id="text_13">
      <!-- 1.0 -->
      <g transform="translate(30.55625 18.597656)scale(0.15 -0.15)">
       <use xlink:href="#DejaVuSans-49"/>
       <use x="63.623047" xlink:href="#DejaVuSans-46"/>
       <use x="95.410156" xlink:href="#DejaVuSans-48"/>
      </g>
     </g>
    </g>
    <g id="text_14">
     <!-- F=1 population -->
     <g transform="translate(22.396875 222.840766)rotate(-90)scale(0.2 -0.2)">
      <defs>
       <path d="M 9.8125 72.90625 
L 51.703125 72.90625 
L 51.703125 64.59375 
L 19.671875 64.59375 
L 19.671875 43.109375 
L 48.578125 43.109375 
L 48.578125 34.8125 
L 19.671875 34.8125 
L 19.671875 0 
L 9.8125 0 
z
" id="DejaVuSans-70"/>
       <path d="M 10.59375 45.40625 
L 73.1875 45.40625 
L 73.1875 37.203125 
L 10.59375 37.203125 
z
M 10.59375 25.484375 
L 73.1875 25.484375 
L 73.1875 17.1875 
L 10.59375 17.1875 
z
" id="DejaVuSans-61"/>
       <path d="M 18.109375 8.203125 
L 18.109375 -20.796875 
L 9.078125 -20.796875 
L 9.078125 54.6875 
L 18.109375 54.6875 
L 18.109375 46.390625 
Q 20.953125 51.265625 25.265625 53.625 
Q 29.59375 56 35.59375 56 
Q 45.5625 56 51.78125 48.09375 
Q 58.015625 40.1875 58.015625 27.296875 
Q 58.015625 14.40625 51.78125 6.484375 
Q 45.5625 -1.421875 35.59375 -1.421875 
Q 29.59375 -1.421875 25.265625 0.953125 
Q 20.953125 3.328125 18.109375 8.203125 
z
M 48.6875 27.296875 
Q 48.6875 37.203125 44.609375 42.84375 
Q 40.53125 48.484375 33.40625 48.484375 
Q 26.265625 48.484375 22.1875 42.84375 
Q 18.109375 37.203125 18.109375 27.296875 
Q 18.109375 17.390625 22.1875 11.75 
Q 26.265625 6.109375 33.40625 6.109375 
Q 40.53125 6.109375 44.609375 11.75 
Q 48.6875 17.390625 48.6875 27.296875 
z
" id="DejaVuSans-112"/>
       <path d="M 30.609375 48.390625 
Q 23.390625 48.390625 19.1875 42.75 
Q 14.984375 37.109375 14.984375 27.296875 
Q 14.984375 17.484375 19.15625 11.84375 
Q 23.34375 6.203125 30.609375 6.203125 
Q 37.796875 6.203125 41.984375 11.859375 
Q 46.1875 17.53125 46.1875 27.296875 
Q 46.1875 37.015625 41.984375 42.703125 
Q 37.796875 48.390625 30.609375 48.390625 
z
M 30.609375 56 
Q 42.328125 56 49.015625 48.375 
Q 55.71875 40.765625 55.71875 27.296875 
Q 55.71875 13.875 49.015625 6.21875 
Q 42.328125 -1.421875 30.609375 -1.421875 
Q 18.84375 -1.421875 12.171875 6.21875 
Q 5.515625 13.875 5.515625 27.296875 
Q 5.515625 40.765625 12.171875 48.375 
Q 18.84375 56 30.609375 56 
z
" id="DejaVuSans-111"/>
       <path d="M 8.5 21.578125 
L 8.5 54.6875 
L 17.484375 54.6875 
L 17.484375 21.921875 
Q 17.484375 14.15625 20.5 10.265625 
Q 23.53125 6.390625 29.59375 6.390625 
Q 36.859375 6.390625 41.078125 11.03125 
Q 45.3125 15.671875 45.3125 23.6875 
L 45.3125 54.6875 
L 54.296875 54.6875 
L 54.296875 0 
L 45.3125 0 
L 45.3125 8.40625 
Q 42.046875 3.421875 37.71875 1 
Q 33.40625 -1.421875 27.6875 -1.421875 
Q 18.265625 -1.421875 13.375 4.4375 
Q 8.5 10.296875 8.5 21.578125 
z
M 31.109375 56 
z
" id="DejaVuSans-117"/>
       <path d="M 9.421875 75.984375 
L 18.40625 75.984375 
L 18.40625 0 
L 9.421875 0 
z
" id="DejaVuSans-108"/>
       <path d="M 34.28125 27.484375 
Q 23.390625 27.484375 19.1875 25 
Q 14.984375 22.515625 14.984375 16.5 
Q 14.984375 11.71875 18.140625 8.90625 
Q 21.296875 6.109375 26.703125 6.109375 
Q 34.1875 6.109375 38.703125 11.40625 
Q 43.21875 16.703125 43.21875 25.484375 
L 43.21875 27.484375 
z
M 52.203125 31.203125 
L 52.203125 0 
L 43.21875 0 
L 43.21875 8.296875 
Q 40.140625 3.328125 35.546875 0.953125 
Q 30.953125 -1.421875 24.3125 -1.421875 
Q 15.921875 -1.421875 10.953125 3.296875 
Q 6 8.015625 6 15.921875 
Q 6 25.140625 12.171875 29.828125 
Q 18.359375 34.515625 30.609375 34.515625 
L 43.21875 34.515625 
L 43.21875 35.40625 
Q 43.21875 41.609375 39.140625 45 
Q 35.0625 48.390625 27.6875 48.390625 
Q 23 48.390625 18.546875 47.265625 
Q 14.109375 46.140625 10.015625 43.890625 
L 10.015625 52.203125 
Q 14.9375 54.109375 19.578125 55.046875 
Q 24.21875 56 28.609375 56 
Q 40.484375 56 46.34375 49.84375 
Q 52.203125 43.703125 52.203125 31.203125 
z
" id="DejaVuSans-97"/>
       <path d="M 18.3125 70.21875 
L 18.3125 54.6875 
L 36.8125 54.6875 
L 36.8125 47.703125 
L 18.3125 47.703125 
L 18.3125 18.015625 
Q 18.3125 11.328125 20.140625 9.421875 
Q 21.96875 7.515625 27.59375 7.515625 
L 36.8125 7.515625 
L 36.8125 0 
L 27.59375 0 
Q 17.1875 0 13.234375 3.875 
Q 9.28125 7.765625 9.28125 18.015625 
L 9.28125 47.703125 
L 2.6875 47.703125 
L 2.6875 54.6875 
L 9.28125 54.6875 
L 9.28125 70.21875 
z
" id="DejaVuSans-116"/>
       <path d="M 54.890625 33.015625 
L 54.890625 0 
L 45.90625 0 
L 45.90625 32.71875 
Q 45.90625 40.484375 42.875 44.328125 
Q 39.84375 48.1875 33.796875 48.1875 
Q 26.515625 48.1875 22.3125 43.546875 
Q 18.109375 38.921875 18.109375 30.90625 
L 18.109375 0 
L 9.078125 0 
L 9.078125 54.6875 
L 18.109375 54.6875 
L 18.109375 46.1875 
Q 21.34375 51.125 25.703125 53.5625 
Q 30.078125 56 35.796875 56 
Q 45.21875 56 50.046875 50.171875 
Q 54.890625 44.34375 54.890625 33.015625 
z
" id="DejaVuSans-110"/>
      </defs>
      <use xlink:href="#DejaVuSans-70"/>
      <use x="57.519531" xlink:href="#DejaVuSans-61"/>
      <use x="141.308594" xlink:href="#DejaVuSans-49"/>
      <use x="204.931641" xlink:href="#DejaVuSans-32"/>
      <use x="236.71875" xlink:href="#DejaVuSans-112"/>
      <use x="300.195312" xlink:href="#DejaVuSans-111"/>
      <use x="361.376953" xlink:href="#DejaVuSans-112"/>
      <use x="424.853516" xlink:href="#DejaVuSans-117"/>
      <use x="488.232422" xlink:href="#DejaVuSans-108"/>
      <use x="516.015625" xlink:href="#DejaVuSans-97"/>
      <use x="577.294922" xlink:href="#DejaVuSans-116"/>
      <use x="616.503906" xlink:href="#DejaVuSans-105"/>
      <use x="644.287109" xlink:href="#DejaVuSans-111"/>
      <use x="705.46875" xlink:href="#DejaVuSans-110"/>
     </g>
    </g>
   </g>
   <g id="LineCollection_1">
    <path clip-path="url(#p304c686b55)" d="M 61.410938 279.010828 
L 61.410938 277.828108 
" style="fill:none;stroke:#1f77b4;stroke-width:1.5;"/>
    <path clip-path="url(#p304c686b55)" d="M 69.913795 223.291573 
L 69.913795 208.792305 
" style="fill:none;stroke:#1f77b4;stroke-width:1.5;"/>
    <path clip-path="url(#p304c686b55)" d="M 78.416652 80.135688 
L 78.416652 64.91027 
" style="fill:none;stroke:#1f77b4;stroke-width:1.5;"/>
    <path clip-path="url(#p304c686b55)" d="M 86.919509 46.209127 
L 86.919509 35.551997 
" style="fill:none;stroke:#1f77b4;stroke-width:1.5;"/>
    <path clip-path="url(#p304c686b55)" d="M 95.422366 157.313684 
L 95.422366 140.139972 
" style="fill:none;stroke:#1f77b4;stroke-width:1.5;"/>
    <path clip-path="url(#p304c686b55)" d="M 103.925223 274.154652 
L 103.925223 268.213357 
" style="fill:none;stroke:#1f77b4;stroke-width:1.5;"/>
    <path clip-path="url(#p304c686b55)" d="M 112.42808 231.620047 
L 112.42808 218.025352 
" style="fill:none;stroke:#1f77b4;stroke-width:1.5;"/>
    <path clip-path="url(#p304c686b55)" d="M 120.930938 106.526666 
L 120.930938 90.006565 
" style="fill:none;stroke:#1f77b4;stroke-width:1.5;"/>
    <path clip-path="url(#p304c686b55)" d="M 129.433795 47.893253 
L 129.433795 36.911847 
" style="fill:none;stroke:#1f77b4;stroke-width:1.5;"/>
    <path clip-path="url(#p304c686b55)" d="M 137.936652 155.306702 
L 137.936652 137.759963 
" style="fill:none;stroke:#1f77b4;stroke-width:1.5;"/>
    <path clip-path="url(#p304c686b55)" d="M 146.439509 265.204699 
L 146.439509 256.314869 
" style="fill:none;stroke:#1f77b4;stroke-width:1.5;"/>
    <path clip-path="url(#p304c686b55)" d="M 154.942366 244.603448 
L 154.942366 231.631493 
" style="fill:none;stroke:#1f77b4;stroke-width:1.5;"/>
    <path clip-path="url(#p304c686b55)" d="M 163.445223 114.491977 
L 163.445223 98.031327 
" style="fill:none;stroke:#1f77b4;stroke-width:1.5;"/>
    <path clip-path="url(#p304c686b55)" d="M 171.94808 37.865832 
L 171.94808 28.787193 
" style="fill:none;stroke:#1f77b4;stroke-width:1.5;"/>
    <path clip-path="url(#p304c686b55)" d="M 180.450938 152.386103 
L 180.450938 134.955107 
" style="fill:none;stroke:#1f77b4;stroke-width:1.5;"/>
    <path clip-path="url(#p304c686b55)" d="M 188.953795 259.133198 
L 188.953795 249.199496 
" style="fill:none;stroke:#1f77b4;stroke-width:1.5;"/>
    <path clip-path="url(#p304c686b55)" d="M 197.456652 257.018719 
L 197.456652 246.386063 
" style="fill:none;stroke:#1f77b4;stroke-width:1.5;"/>
    <path clip-path="url(#p304c686b55)" d="M 205.959509 125.260711 
L 205.959509 108.033967 
" style="fill:none;stroke:#1f77b4;stroke-width:1.5;"/>
    <path clip-path="url(#p304c686b55)" d="M 214.462366 48.446071 
L 214.462366 36.909985 
" style="fill:none;stroke:#1f77b4;stroke-width:1.5;"/>
    <path clip-path="url(#p304c686b55)" d="M 222.965223 112.646022 
L 222.965223 95.73072 
" style="fill:none;stroke:#1f77b4;stroke-width:1.5;"/>
    <path clip-path="url(#p304c686b55)" d="M 231.46808 228.478179 
L 231.46808 213.790724 
" style="fill:none;stroke:#1f77b4;stroke-width:1.5;"/>
    <path clip-path="url(#p304c686b55)" d="M 239.970938 257.408808 
L 239.970938 246.671227 
" style="fill:none;stroke:#1f77b4;stroke-width:1.5;"/>
    <path clip-path="url(#p304c686b55)" d="M 248.473795 152.495417 
L 248.473795 134.597732 
" style="fill:none;stroke:#1f77b4;stroke-width:1.5;"/>
    <path clip-path="url(#p304c686b55)" d="M 256.976652 46.448476 
L 256.976652 35.89798 
" style="fill:none;stroke:#1f77b4;stroke-width:1.5;"/>
    <path clip-path="url(#p304c686b55)" d="M 265.479509 90.750202 
L 265.479509 75.168375 
" style="fill:none;stroke:#1f77b4;stroke-width:1.5;"/>
    <path clip-path="url(#p304c686b55)" d="M 273.982366 216.174146 
L 273.982366 200.621405 
" style="fill:none;stroke:#1f77b4;stroke-width:1.5;"/>
    <path clip-path="url(#p304c686b55)" d="M 282.485223 253.960456 
L 282.485223 242.262679 
" style="fill:none;stroke:#1f77b4;stroke-width:1.5;"/>
    <path clip-path="url(#p304c686b55)" d="M 290.98808 179.251198 
L 290.98808 161.895039 
" style="fill:none;stroke:#1f77b4;stroke-width:1.5;"/>
    <path clip-path="url(#p304c686b55)" d="M 299.490938 74.530696 
L 299.490938 60.290819 
" style="fill:none;stroke:#1f77b4;stroke-width:1.5;"/>
    <path clip-path="url(#p304c686b55)" d="M 307.993795 92.127523 
L 307.993795 76.315754 
" style="fill:none;stroke:#1f77b4;stroke-width:1.5;"/>
    <path clip-path="url(#p304c686b55)" d="M 316.496652 214.175533 
L 316.496652 198.371563 
" style="fill:none;stroke:#1f77b4;stroke-width:1.5;"/>
    <path clip-path="url(#p304c686b55)" d="M 324.999509 258.775721 
L 324.999509 248.388975 
" style="fill:none;stroke:#1f77b4;stroke-width:1.5;"/>
    <path clip-path="url(#p304c686b55)" d="M 333.502366 185.722453 
L 333.502366 168.073715 
" style="fill:none;stroke:#1f77b4;stroke-width:1.5;"/>
    <path clip-path="url(#p304c686b55)" d="M 342.005223 67.652155 
L 342.005223 54.177223 
" style="fill:none;stroke:#1f77b4;stroke-width:1.5;"/>
    <path clip-path="url(#p304c686b55)" d="M 350.50808 72.054685 
L 350.50808 58.703481 
" style="fill:none;stroke:#1f77b4;stroke-width:1.5;"/>
    <path clip-path="url(#p304c686b55)" d="M 359.010938 180.940234 
L 359.010938 163.966304 
" style="fill:none;stroke:#1f77b4;stroke-width:1.5;"/>
    <path clip-path="url(#p304c686b55)" d="M 367.513795 242.785629 
L 367.513795 229.43356 
" style="fill:none;stroke:#1f77b4;stroke-width:1.5;"/>
    <path clip-path="url(#p304c686b55)" d="M 376.016652 198.342675 
L 376.016652 181.003781 
" style="fill:none;stroke:#1f77b4;stroke-width:1.5;"/>
    <path clip-path="url(#p304c686b55)" d="M 384.519509 94.170723 
L 384.519509 78.718376 
" style="fill:none;stroke:#1f77b4;stroke-width:1.5;"/>
    <path clip-path="url(#p304c686b55)" d="M 393.022366 82.43563 
L 393.022366 67.047886 
" style="fill:none;stroke:#1f77b4;stroke-width:1.5;"/>
    <path clip-path="url(#p304c686b55)" d="M 401.525223 185.761045 
L 401.525223 168.555407 
" style="fill:none;stroke:#1f77b4;stroke-width:1.5;"/>
   </g>
   <g id="LineCollection_2">
    <path clip-path="url(#p304c686b55)" d="M 61.410938 274.780846 
L 61.410938 267.789145 
" style="fill:none;stroke:#d62728;stroke-width:1.5;"/>
    <path clip-path="url(#p304c686b55)" d="M 69.913795 237.845983 
L 69.913795 221.794873 
" style="fill:none;stroke:#d62728;stroke-width:1.5;"/>
    <path clip-path="url(#p304c686b55)" d="M 78.416652 137.513864 
L 78.416652 117.478521 
" style="fill:none;stroke:#d62728;stroke-width:1.5;"/>
    <path clip-path="url(#p304c686b55)" d="M 86.919509 88.584288 
L 86.919509 70.269368 
" style="fill:none;stroke:#d62728;stroke-width:1.5;"/>
    <path clip-path="url(#p304c686b55)" d="M 95.422366 109.242968 
L 95.422366 90.434688 
" style="fill:none;stroke:#d62728;stroke-width:1.5;"/>
    <path clip-path="url(#p304c686b55)" d="M 103.925223 198.010646 
L 103.925223 177.172154 
" style="fill:none;stroke:#d62728;stroke-width:1.5;"/>
    <path clip-path="url(#p304c686b55)" d="M 112.42808 191.843153 
L 112.42808 171.584103 
" style="fill:none;stroke:#d62728;stroke-width:1.5;"/>
    <path clip-path="url(#p304c686b55)" d="M 120.930938 149.052816 
L 120.930938 128.429082 
" style="fill:none;stroke:#d62728;stroke-width:1.5;"/>
    <path clip-path="url(#p304c686b55)" d="M 129.433795 133.181616 
L 129.433795 112.07204 
" style="fill:none;stroke:#d62728;stroke-width:1.5;"/>
    <path clip-path="url(#p304c686b55)" d="M 137.936652 134.606332 
L 137.936652 113.788155 
" style="fill:none;stroke:#d62728;stroke-width:1.5;"/>
    <path clip-path="url(#p304c686b55)" d="M 146.439509 167.368943 
L 146.439509 146.849504 
" style="fill:none;stroke:#d62728;stroke-width:1.5;"/>
    <path clip-path="url(#p304c686b55)" d="M 154.942366 194.092099 
L 154.942366 174.72854 
" style="fill:none;stroke:#d62728;stroke-width:1.5;"/>
    <path clip-path="url(#p304c686b55)" d="M 163.445223 180.209268 
L 163.445223 158.970283 
" style="fill:none;stroke:#d62728;stroke-width:1.5;"/>
    <path clip-path="url(#p304c686b55)" d="M 171.94808 132.151673 
L 171.94808 109.981638 
" style="fill:none;stroke:#d62728;stroke-width:1.5;"/>
    <path clip-path="url(#p304c686b55)" d="M 180.450938 139.536973 
L 180.450938 118.473066 
" style="fill:none;stroke:#d62728;stroke-width:1.5;"/>
    <path clip-path="url(#p304c686b55)" d="M 188.953795 157.155879 
L 188.953795 136.376412 
" style="fill:none;stroke:#d62728;stroke-width:1.5;"/>
   </g>
   <g id="line2d_25">
    <path clip-path="url(#p304c686b55)" d="M 61.410938 278.518987 
L 61.768058 278.518987 
L 62.125178 277.777225 
L 62.482298 277.38937 
L 62.839418 276.493623 
L 63.910778 270.99646 
L 64.625018 265.660151 
L 65.339258 259.712247 
L 66.053498 251.501592 
L 66.410618 248.064827 
L 67.124858 238.310292 
L 67.481978 234.84307 
L 69.624698 201.19862 
L 70.338938 189.13219 
L 75.695738 95.550083 
L 76.052858 91.118318 
L 76.767098 78.880302 
L 77.124218 73.234065 
L 77.481338 69.650755 
L 78.195578 60.121285 
L 78.552698 56.517458 
L 78.909818 51.751355 
L 79.624058 45.288342 
L 80.338298 39.154353 
L 81.052538 34.246965 
L 81.409658 31.634806 
L 81.766778 31.363239 
L 82.123898 29.431905 
L 82.481018 28.721634 
L 82.838138 27.602512 
L 83.195258 27.966882 
L 83.552378 26.696269 
L 83.909498 27.487208 
L 84.266618 28.820348 
L 84.623738 29.583787 
L 84.980858 30.784453 
L 85.695098 34.34252 
L 86.052218 36.757571 
L 86.409338 40.285097 
L 87.123578 44.855772 
L 89.623418 73.302834 
L 93.908858 144.573998 
L 94.623098 158.184627 
L 94.980218 163.303612 
L 95.337338 171.349637 
L 96.051578 183.263318 
L 98.908538 228.280352 
L 100.694138 250.540005 
L 102.122618 264.354457 
L 102.479738 266.204905 
L 103.193978 271.264908 
L 103.551098 272.819231 
L 103.908218 273.627467 
L 104.265338 275.226301 
L 104.622458 275.449678 
L 104.979578 276.254885 
L 105.336698 278.518987 
L 105.693818 275.935232 
L 106.050938 278.518987 
L 106.765178 272.979363 
L 107.122298 271.764111 
L 107.479418 271.552528 
L 109.622138 253.619235 
L 110.336378 245.388075 
L 110.693498 241.851362 
L 113.907578 195.20241 
L 114.978938 176.512869 
L 119.978618 91.023265 
L 121.764218 66.845116 
L 123.192698 51.169528 
L 123.906938 45.374209 
L 124.978298 36.806942 
L 125.335418 35.818038 
L 125.692538 33.317237 
L 126.049658 33.097077 
L 126.763898 31.493757 
L 127.478138 31.399724 
L 127.835258 32.235893 
L 128.192378 32.560586 
L 128.549498 32.503853 
L 128.906618 33.780108 
L 129.263738 36.905685 
L 129.977978 40.247118 
L 130.692218 45.38852 
L 131.763578 55.765481 
L 133.906298 83.101316 
L 135.334778 103.88273 
L 136.763258 128.668912 
L 137.834618 145.55746 
L 139.620218 177.530664 
L 141.405818 204.882207 
L 141.762938 211.847576 
L 142.120058 216.018331 
L 142.834298 227.988923 
L 143.548538 235.948133 
L 143.905658 240.792444 
L 144.262778 243.641029 
L 144.619898 248.669313 
L 144.977018 251.397255 
L 146.048378 261.495102 
L 146.405498 263.306792 
L 147.119738 268.759813 
L 147.833978 270.22888 
L 148.191098 271.707532 
L 148.548218 271.693583 
L 148.905338 273.108149 
L 149.262458 272.632413 
L 149.619578 273.333567 
L 149.976698 271.552528 
L 150.333818 270.93644 
L 150.690938 270.080562 
L 151.048058 267.737633 
L 151.762298 264.949149 
L 152.833658 256.14646 
L 153.905018 245.634529 
L 154.619258 237.082157 
L 154.976378 233.78821 
L 158.190458 185.424947 
L 158.904698 174.391154 
L 159.261818 169.222466 
L 159.976058 155.719901 
L 162.475898 114.286105 
L 164.975738 77.470084 
L 165.332858 72.887106 
L 165.689978 70.763529 
L 166.047098 64.83724 
L 167.475578 50.724938 
L 168.546938 43.739642 
L 169.261178 40.266108 
L 169.618298 39.092638 
L 169.975418 36.979742 
L 170.332538 37.454113 
L 170.689658 37.07821 
L 171.046778 36.195595 
L 171.403898 36.547084 
L 171.761018 36.247564 
L 172.118138 37.78957 
L 172.475258 37.697716 
L 173.903738 45.51732 
L 174.617978 51.817927 
L 174.975098 53.526562 
L 175.332218 58.018956 
L 175.689338 60.847511 
L 177.474938 82.675038 
L 179.617658 113.756765 
L 185.331578 206.693316 
L 186.045818 216.458973 
L 186.760058 225.603969 
L 188.545658 246.374286 
L 188.902778 249.596431 
L 189.259898 251.761456 
L 189.617018 255.702736 
L 190.688378 262.361575 
L 191.045498 262.968793 
L 191.759738 266.081475 
L 192.116858 267.083034 
L 192.831098 268.016628 
L 193.188218 268.088879 
L 193.545338 266.764411 
L 193.902458 267.018927 
L 195.330938 261.213319 
L 196.045178 256.805114 
L 197.830778 240.362466 
L 198.545018 232.933197 
L 199.259258 224.296687 
L 200.687738 204.442016 
L 201.759098 187.423837 
L 202.116218 182.814267 
L 202.830458 170.09888 
L 207.473018 97.456941 
L 209.258618 74.932987 
L 210.329978 62.615177 
L 210.687098 59.661143 
L 211.044218 57.744087 
L 211.401338 54.003154 
L 212.115578 49.080987 
L 212.472698 47.558559 
L 212.829818 45.345586 
L 213.544058 43.096499 
L 213.901178 41.258626 
L 214.258298 42.199553 
L 214.972538 41.330441 
L 215.329658 41.186812 
L 215.686778 42.785539 
L 216.401018 43.971079 
L 216.758138 47.079619 
L 217.115258 48.188419 
L 217.472378 49.660017 
L 217.829498 53.557746 
L 218.186618 55.320465 
L 219.257978 63.938554 
L 219.615098 68.271059 
L 219.972218 71.004382 
L 223.543418 119.049757 
L 224.614778 135.704767 
L 227.828858 187.292752 
L 228.185978 191.022564 
L 228.900218 203.109466 
L 230.685818 226.40033 
L 231.757178 237.37871 
L 232.114298 242.307642 
L 233.185658 250.887859 
L 233.542778 252.417791 
L 234.614138 259.898292 
L 234.971258 261.213319 
L 235.328378 261.620494 
L 236.042618 263.324116 
L 236.399738 263.48003 
L 236.756858 263.95663 
L 237.828218 261.52645 
L 238.185338 260.750178 
L 239.256698 255.787032 
L 239.613818 252.300992 
L 239.970938 251.719878 
L 240.328058 247.646518 
L 240.685178 245.111296 
L 241.042298 240.831631 
L 241.756538 234.722941 
L 242.113658 229.51079 
L 242.827898 222.848833 
L 243.185018 218.470772 
L 243.899258 207.708441 
L 244.613498 198.468746 
L 250.684538 105.759561 
L 252.113018 87.123461 
L 252.470138 83.53412 
L 252.827258 77.806 
L 254.612858 60.702793 
L 256.041338 51.562735 
L 256.398458 50.420914 
L 256.755578 47.99941 
L 257.112698 48.02384 
L 257.469818 45.474387 
L 257.826938 46.07206 
L 258.184058 45.678745 
L 258.541178 46.420553 
L 258.898298 45.807807 
L 259.255418 46.447607 
L 259.612538 47.584545 
L 259.969658 48.222647 
L 260.326778 50.679009 
L 260.683898 51.706974 
L 261.041018 53.439026 
L 262.112378 60.453208 
L 264.612218 86.417166 
L 266.040698 104.948677 
L 273.540218 216.045312 
L 274.254458 224.177711 
L 274.611578 229.199411 
L 274.968698 231.554537 
L 276.040058 242.084186 
L 277.111418 250.499699 
L 277.468538 252.237283 
L 277.825658 255.25843 
L 278.182778 255.270185 
L 278.539898 257.91181 
L 278.897018 258.632379 
L 279.254138 259.86967 
L 279.611258 260.330008 
L 279.968378 259.755181 
L 280.325498 260.285793 
L 280.682618 259.683625 
L 281.039738 258.240537 
L 281.396858 258.360635 
L 281.753978 257.91181 
L 282.111098 256.630118 
L 282.825338 252.247901 
L 283.182458 251.460013 
L 283.539578 246.980833 
L 283.896698 245.837317 
L 285.682298 228.475336 
L 287.467898 206.237546 
L 288.182138 196.91684 
L 294.253178 106.432369 
L 294.610298 102.417382 
L 295.324538 92.577737 
L 295.681658 89.191529 
L 296.038778 84.05325 
L 296.395898 81.049443 
L 296.753018 76.399194 
L 297.110138 73.653769 
L 298.181498 63.820778 
L 298.538618 61.344796 
L 298.895738 57.661027 
L 299.609978 54.113611 
L 299.967098 52.101431 
L 300.324218 51.662593 
L 300.681338 51.640402 
L 301.038458 49.802785 
L 301.395578 49.190707 
L 301.752698 49.178516 
L 302.466938 48.327678 
L 302.824058 50.386061 
L 303.181178 49.933315 
L 303.895418 52.871792 
L 304.252538 55.055977 
L 304.609658 55.979103 
L 304.966778 58.13782 
L 307.109498 76.821687 
L 308.895098 97.654677 
L 310.323578 117.044179 
L 312.466298 148.604978 
L 313.894778 170.131797 
L 314.609018 181.505018 
L 317.465978 219.132985 
L 318.537338 231.65395 
L 319.251578 238.37014 
L 320.322938 246.83588 
L 321.037178 251.912797 
L 321.751418 254.364013 
L 322.108538 256.580119 
L 322.465658 257.001517 
L 322.822778 259.592938 
L 323.179898 258.360635 
L 323.537018 258.173816 
L 323.894138 258.387324 
L 324.251258 258.897955 
L 324.965498 256.730116 
L 325.322618 256.605119 
L 326.393978 250.701227 
L 327.465338 243.39056 
L 327.822458 240.941352 
L 330.322298 214.287046 
L 331.750778 195.316178 
L 333.536378 170.15237 
L 334.607738 154.377083 
L 336.750458 121.775904 
L 337.464698 111.966514 
L 338.893178 93.948808 
L 339.250298 90.133312 
L 339.964538 81.134961 
L 341.393018 67.476611 
L 342.107258 62.081942 
L 342.821498 56.896504 
L 344.249978 50.976572 
L 344.607098 51.166381 
L 345.321338 49.624325 
L 345.678458 49.945071 
L 346.035578 49.488436 
L 346.749818 52.582033 
L 347.106938 52.967355 
L 347.464058 54.095731 
L 347.821178 56.341973 
L 348.178298 57.577967 
L 349.249658 64.69728 
L 349.606778 68.65598 
L 349.963898 70.408865 
L 350.678138 79.288713 
L 351.035258 81.265051 
L 353.892218 117.865701 
L 357.820538 176.747194 
L 358.534778 186.530921 
L 359.249018 196.944399 
L 360.320378 211.554471 
L 361.034618 219.791503 
L 362.105978 232.274772 
L 362.463098 234.715987 
L 362.820218 239.00972 
L 363.177338 241.44226 
L 363.534458 244.865091 
L 365.320058 256.403782 
L 365.677178 256.366751 
L 366.034298 258.293914 
L 366.391418 257.812615 
L 366.748538 258.387324 
L 367.105658 257.990807 
L 367.462778 259.351817 
L 367.819898 258.980245 
L 368.177018 258.333947 
L 368.534138 256.170842 
L 368.891258 256.403782 
L 369.248378 253.947883 
L 369.962618 251.501592 
L 370.319738 248.431936 
L 370.676858 247.08658 
L 371.033978 244.148983 
L 371.391098 239.683262 
L 371.748218 237.7976 
L 372.105338 233.856787 
L 372.462458 231.905795 
L 373.176698 222.767028 
L 373.533818 219.077194 
L 373.890938 214.017726 
L 374.605178 207.242989 
L 375.319418 196.121947 
L 375.676538 191.871107 
L 376.747898 175.024493 
L 377.105018 170.502113 
L 377.819258 159.961334 
L 378.533498 148.309535 
L 380.319098 121.230628 
L 382.104698 97.877983 
L 382.461818 92.338499 
L 382.818938 88.975681 
L 383.176058 83.557085 
L 383.533178 81.235485 
L 383.890298 76.373873 
L 384.961658 67.343963 
L 386.033018 58.867902 
L 386.390138 57.296345 
L 386.747258 54.317216 
L 387.818618 51.312259 
L 388.175738 49.404139 
L 388.532858 49.032223 
L 388.889978 50.121407 
L 389.247098 49.596818 
L 389.604218 50.015605 
L 389.961338 50.942521 
L 390.675578 52.027086 
L 391.032698 53.972296 
L 391.389818 55.026053 
L 392.818298 64.001754 
L 393.532538 71.080344 
L 394.246778 77.022961 
L 395.675258 93.707075 
L 399.246458 143.53311 
L 400.674938 165.698244 
L 401.389178 175.843372 
L 401.746298 182.425249 
L 402.103418 186.487418 
L 402.817658 196.802014 
L 404.246138 216.26116 
L 405.317498 228.765422 
L 405.674618 231.806382 
L 406.388858 239.683262 
L 407.103098 245.793233 
L 407.460218 246.663749 
L 407.817338 250.650845 
L 408.174458 252.766579 
L 408.531578 255.618439 
L 408.888698 257.215846 
L 409.245818 257.760642 
L 409.960058 259.994803 
L 410.317178 260.300531 
L 410.674298 259.994803 
L 411.031418 260.038368 
L 411.388538 260.5856 
L 412.102778 258.91167 
L 412.459898 257.951308 
L 412.817018 255.883372 
L 413.174138 255.129117 
L 413.531258 252.290373 
L 413.888378 250.775877 
L 414.602618 246.294653 
L 417.102458 221.230504 
L 418.530938 203.240201 
L 418.530938 203.240201 
" style="fill:none;stroke:#1f77b4;stroke-linecap:square;stroke-width:1.5;"/>
   </g>
   <g id="line2d_26">
    <path clip-path="url(#p304c686b55)" d="M 61.410938 278.50696 
L 61.95512 278.50696 
L 62.227212 277.69668 
L 62.771395 277.578558 
L 63.043486 276.298669 
L 63.315578 276.330943 
L 63.587669 274.680662 
L 63.85976 274.80709 
L 64.131852 272.355062 
L 64.403943 271.649165 
L 64.948126 268.61563 
L 65.220218 267.846481 
L 66.036492 260.529459 
L 67.124858 253.656196 
L 70.662046 215.965323 
L 71.47832 204.732748 
L 73.927143 173.166336 
L 77.464332 128.216703 
L 77.736423 125.907164 
L 78.552698 115.399995 
L 78.824789 113.083668 
L 79.641063 103.54793 
L 79.913155 102.212371 
L 80.185246 99.8731 
L 80.457338 95.318178 
L 80.729429 93.743662 
L 81.817795 84.290125 
L 82.634069 77.975276 
L 82.90616 76.393299 
L 83.178252 75.672518 
L 83.450343 73.327006 
L 83.722435 72.324186 
L 83.994526 70.35865 
L 84.538709 68.229623 
L 84.8108 68.092914 
L 85.082892 67.261642 
L 85.354983 65.699832 
L 85.627075 65.981747 
L 85.899166 64.196561 
L 86.171258 65.198674 
L 86.443349 64.480404 
L 86.71544 63.088163 
L 87.259623 63.10304 
L 87.531715 63.147671 
L 87.803806 63.311319 
L 88.075898 62.875108 
L 88.347989 64.473126 
L 88.62008 64.225674 
L 88.892172 64.712036 
L 89.436355 67.55279 
L 89.708446 67.922028 
L 89.980538 68.496788 
L 90.52472 70.647692 
L 90.796812 72.535479 
L 91.340995 74.236373 
L 91.885178 76.936939 
L 92.157269 79.303567 
L 92.42936 80.302534 
L 92.701452 83.194926 
L 92.973543 84.031798 
L 93.245635 86.480573 
L 93.517726 87.305547 
L 94.606092 96.242984 
L 95.694458 104.919644 
L 95.966549 108.227433 
L 96.23864 109.325206 
L 97.599098 123.471982 
L 98.415372 129.342876 
L 98.687463 132.969232 
L 99.503738 139.562539 
L 100.320012 148.096289 
L 100.864195 152.047943 
L 101.136286 153.492879 
L 101.408378 157.618281 
L 101.680469 158.384342 
L 101.95256 160.266106 
L 102.224652 164.250817 
L 103.040926 168.94138 
L 103.313018 172.750674 
L 103.585109 172.951298 
L 104.129292 177.652052 
L 104.401383 178.7937 
L 104.673475 181.774847 
L 104.945566 182.52144 
L 105.217658 185.399159 
L 105.489749 185.363348 
L 105.76184 186.767317 
L 106.033932 189.612138 
L 106.850206 193.523699 
L 107.122298 193.195031 
L 107.394389 194.805908 
L 107.66648 195.542272 
L 107.938572 197.245807 
L 108.210663 196.840191 
L 108.482755 197.356937 
L 108.754846 199.486588 
L 109.026938 199.457406 
L 109.299029 199.55468 
L 109.57112 200.821315 
L 109.843212 200.177607 
L 110.115303 201.570001 
L 110.387395 200.718186 
L 110.931578 201.38741 
L 111.203669 201.165081 
L 111.47576 200.309562 
L 112.019943 200.840959 
L 112.564126 199.131331 
L 112.836218 198.748936 
L 113.108309 197.788448 
L 113.3804 198.225457 
L 113.652492 197.093104 
L 113.924583 197.064473 
L 114.468766 194.707095 
L 114.740858 193.926487 
L 115.28504 191.257881 
L 115.557132 190.69108 
L 115.829223 188.652284 
L 116.101315 188.515573 
L 116.373406 186.682695 
L 116.645498 185.904844 
L 116.917589 183.327321 
L 117.18968 183.025599 
L 117.461772 181.726966 
L 117.733863 179.756915 
L 118.005955 178.662883 
L 118.550138 174.598086 
L 118.822229 173.54785 
L 119.09432 170.991048 
L 119.366412 170.629743 
L 119.638503 169.728694 
L 119.910595 166.563143 
L 120.454778 164.097965 
L 120.99896 159.192002 
L 121.543143 156.639793 
L 121.815235 155.71106 
L 122.087326 154.019437 
L 122.359418 151.300556 
L 122.9036 149.297889 
L 123.447783 145.04306 
L 123.991966 141.071065 
L 124.536149 138.996344 
L 125.080332 136.348484 
L 125.352423 134.211764 
L 125.624515 133.649267 
L 126.168698 130.329135 
L 127.529155 123.33853 
L 127.801246 121.746139 
L 128.073338 122.504665 
L 128.345429 121.138277 
L 128.889612 119.720865 
L 129.161703 118.173014 
L 129.433795 118.278578 
L 129.705886 116.640148 
L 129.977978 117.148184 
L 130.52216 114.594579 
L 130.794252 115.821518 
L 131.066343 113.840228 
L 131.338435 114.04614 
L 131.610526 114.010329 
L 131.882618 113.298589 
L 132.154709 113.804417 
L 132.4268 113.043202 
L 132.698892 112.863352 
L 133.243075 113.468691 
L 133.515166 114.46088 
L 133.787258 113.786512 
L 134.059349 114.621319 
L 134.33144 114.741648 
L 134.603532 113.943184 
L 134.875623 115.417743 
L 135.147715 115.24026 
L 135.419806 116.542958 
L 135.691898 116.997982 
L 135.963989 117.689179 
L 136.23608 117.583615 
L 136.508172 118.921823 
L 136.780263 118.913064 
L 137.324446 121.05144 
L 137.596538 121.107884 
L 137.868629 121.463918 
L 138.14072 123.553776 
L 138.412812 123.463373 
L 138.684903 125.558498 
L 138.956995 125.996804 
L 139.501178 128.080682 
L 139.773269 128.552505 
L 140.317452 132.318583 
L 140.589543 133.212701 
L 140.861635 135.483142 
L 141.133726 135.487322 
L 141.405818 137.489268 
L 141.677909 138.388518 
L 142.222092 141.216179 
L 142.494183 141.663962 
L 143.038366 145.179882 
L 143.310458 147.002048 
L 143.582549 147.258059 
L 144.126732 150.2889 
L 144.398823 151.048674 
L 144.943006 154.371859 
L 145.215098 155.777398 
L 145.487189 156.266641 
L 145.75928 157.187083 
L 146.031372 159.067106 
L 146.303463 159.108738 
L 146.575555 160.524224 
L 146.847646 162.99852 
L 147.391829 163.717548 
L 148.208103 167.878296 
L 148.480195 168.337756 
L 149.024378 171.331101 
L 149.296469 171.254589 
L 150.112743 172.94703 
L 150.384835 174.195138 
L 150.656926 173.929364 
L 150.929018 175.496918 
L 151.201109 175.001853 
L 151.4732 176.355876 
L 151.745292 177.07787 
L 152.017383 177.11678 
L 152.289475 178.051504 
L 152.561566 178.181761 
L 152.833658 178.484099 
L 153.105749 179.399821 
L 153.37784 178.325042 
L 153.649932 178.584392 
L 153.922023 179.072777 
L 154.194115 179.125104 
L 154.466206 178.737012 
L 154.738298 178.837306 
L 155.010389 179.901437 
L 155.28248 179.577357 
L 155.554572 178.933239 
L 155.826663 178.806782 
L 156.098755 178.505901 
L 156.370846 178.689046 
L 156.642938 177.665078 
L 156.915029 177.27431 
L 157.18712 176.507192 
L 157.459212 176.489899 
L 158.003395 174.851181 
L 158.275486 175.105171 
L 158.547578 173.646444 
L 158.819669 173.243496 
L 159.635943 171.416114 
L 159.908035 170.22168 
L 160.180126 170.047403 
L 160.724309 167.625382 
L 160.9964 166.546282 
L 161.268492 166.211163 
L 161.540583 164.364156 
L 161.812675 164.452309 
L 162.084766 163.094669 
L 162.356858 160.711568 
L 162.628949 161.090419 
L 163.445223 157.912656 
L 164.261498 155.71106 
L 165.077772 150.933056 
L 165.349863 150.796792 
L 166.438229 145.698149 
L 166.71032 145.432796 
L 166.982412 144.437725 
L 167.526595 141.402755 
L 167.798686 140.901073 
L 168.070778 140.90522 
L 168.61496 137.614163 
L 168.887052 137.680775 
L 169.431235 136.427912 
L 169.975418 133.787792 
L 170.247509 133.678651 
L 170.5196 133.284063 
L 171.063783 131.880199 
L 171.335875 131.555626 
L 171.607966 130.333368 
L 172.42424 128.565257 
L 172.696332 128.888307 
L 173.240515 127.217621 
L 173.784698 127.012729 
L 174.056789 127.35382 
L 174.32888 126.154742 
L 174.600972 126.487692 
L 174.873063 125.665665 
L 175.145155 126.146205 
L 175.417246 126.013879 
L 175.689338 126.035222 
L 176.23352 125.121257 
L 176.505612 126.504767 
L 176.777703 126.124862 
L 177.049795 125.159837 
L 177.321886 126.901746 
L 177.593978 126.120594 
L 177.866069 126.359635 
L 178.13816 127.825643 
L 178.682343 128.561006 
L 178.954435 128.271962 
L 179.226526 128.26346 
L 179.498618 129.761931 
L 179.770709 130.037067 
L 180.586983 132.242709 
L 180.859075 132.048808 
L 181.131166 133.107758 
L 181.403258 132.792927 
L 181.675349 134.589561 
L 181.94744 134.715494 
L 182.491623 136.971364 
L 182.763715 136.92956 
L 183.307898 140.5284 
L 183.579989 139.662455 
L 183.85208 140.917658 
L 184.124172 140.921804 
L 184.396263 142.11589 
L 184.668355 144.122619 
L 184.940446 144.205541 
L 185.212538 145.710587 
L 185.75672 146.869914 
L 186.572995 149.838816 
L 187.117178 153.128019 
L 187.389269 152.817059 
L 187.933452 154.533558 
L 188.477635 156.440779 
L 188.749726 156.789054 
L 189.293909 158.863109 
L 189.566 159.566689 
L 190.110183 161.694236 
L 190.382275 160.886422 
L 191.198549 164.922456 
L 191.47064 165.631875 
L 191.742732 165.589897 
L 192.014823 165.329637 
L 192.286915 166.96359 
L 192.559006 166.605295 
L 192.831098 168.114349 
L 193.103189 167.579014 
L 193.37528 168.975243 
L 193.647372 169.436626 
L 193.919463 169.085298 
L 194.191555 170.497972 
L 194.735738 170.41721 
L 195.007829 170.608489 
L 195.552012 171.441618 
L 195.824103 170.876281 
L 196.096195 171.309847 
L 196.368286 171.441618 
L 196.640378 171.841465 
L 196.912469 171.39061 
L 197.18456 171.539383 
L 197.456652 170.855027 
L 197.456652 170.855027 
" style="fill:none;stroke:#d62728;stroke-linecap:square;stroke-width:1.5;"/>
   </g>
   <g id="line2d_27">
    <path clip-path="url(#p304c686b55)" d="M 61.410938 23.543308 
L 418.530938 23.543308 
" style="fill:none;stroke:#99aaaa;stroke-dasharray:9.6,2.4,1.5,2.4;stroke-dashoffset:0;stroke-width:1.5;"/>
   </g>
   <g id="line2d_28">
    <defs>
     <path d="M -3 3 
L 3 3 
L 3 -3 
L -3 -3 
z
" id="m9e0ac68bfd" style="stroke:#1f77b4;stroke-linejoin:miter;"/>
    </defs>
    <g clip-path="url(#p304c686b55)">
     <use style="fill:#1f77b4;stroke:#1f77b4;stroke-linejoin:miter;" x="61.410938" xlink:href="#m9e0ac68bfd" y="278.419468"/>
     <use style="fill:#1f77b4;stroke:#1f77b4;stroke-linejoin:miter;" x="69.913795" xlink:href="#m9e0ac68bfd" y="216.041939"/>
     <use style="fill:#1f77b4;stroke:#1f77b4;stroke-linejoin:miter;" x="78.416652" xlink:href="#m9e0ac68bfd" y="72.522979"/>
     <use style="fill:#1f77b4;stroke:#1f77b4;stroke-linejoin:miter;" x="86.919509" xlink:href="#m9e0ac68bfd" y="40.880562"/>
     <use style="fill:#1f77b4;stroke:#1f77b4;stroke-linejoin:miter;" x="95.422366" xlink:href="#m9e0ac68bfd" y="148.726828"/>
     <use style="fill:#1f77b4;stroke:#1f77b4;stroke-linejoin:miter;" x="103.925223" xlink:href="#m9e0ac68bfd" y="271.184005"/>
     <use style="fill:#1f77b4;stroke:#1f77b4;stroke-linejoin:miter;" x="112.42808" xlink:href="#m9e0ac68bfd" y="224.822699"/>
     <use style="fill:#1f77b4;stroke:#1f77b4;stroke-linejoin:miter;" x="120.930938" xlink:href="#m9e0ac68bfd" y="98.266616"/>
     <use style="fill:#1f77b4;stroke:#1f77b4;stroke-linejoin:miter;" x="129.433795" xlink:href="#m9e0ac68bfd" y="42.40255"/>
     <use style="fill:#1f77b4;stroke:#1f77b4;stroke-linejoin:miter;" x="137.936652" xlink:href="#m9e0ac68bfd" y="146.533332"/>
     <use style="fill:#1f77b4;stroke:#1f77b4;stroke-linejoin:miter;" x="146.439509" xlink:href="#m9e0ac68bfd" y="260.759784"/>
     <use style="fill:#1f77b4;stroke:#1f77b4;stroke-linejoin:miter;" x="154.942366" xlink:href="#m9e0ac68bfd" y="238.11747"/>
     <use style="fill:#1f77b4;stroke:#1f77b4;stroke-linejoin:miter;" x="163.445223" xlink:href="#m9e0ac68bfd" y="106.261652"/>
     <use style="fill:#1f77b4;stroke:#1f77b4;stroke-linejoin:miter;" x="171.94808" xlink:href="#m9e0ac68bfd" y="33.326513"/>
     <use style="fill:#1f77b4;stroke:#1f77b4;stroke-linejoin:miter;" x="180.450938" xlink:href="#m9e0ac68bfd" y="143.670605"/>
     <use style="fill:#1f77b4;stroke:#1f77b4;stroke-linejoin:miter;" x="188.953795" xlink:href="#m9e0ac68bfd" y="254.166347"/>
     <use style="fill:#1f77b4;stroke:#1f77b4;stroke-linejoin:miter;" x="197.456652" xlink:href="#m9e0ac68bfd" y="251.702391"/>
     <use style="fill:#1f77b4;stroke:#1f77b4;stroke-linejoin:miter;" x="205.959509" xlink:href="#m9e0ac68bfd" y="116.647339"/>
     <use style="fill:#1f77b4;stroke:#1f77b4;stroke-linejoin:miter;" x="214.462366" xlink:href="#m9e0ac68bfd" y="42.678028"/>
     <use style="fill:#1f77b4;stroke:#1f77b4;stroke-linejoin:miter;" x="222.965223" xlink:href="#m9e0ac68bfd" y="104.188371"/>
     <use style="fill:#1f77b4;stroke:#1f77b4;stroke-linejoin:miter;" x="231.46808" xlink:href="#m9e0ac68bfd" y="221.134451"/>
     <use style="fill:#1f77b4;stroke:#1f77b4;stroke-linejoin:miter;" x="239.970938" xlink:href="#m9e0ac68bfd" y="252.040017"/>
     <use style="fill:#1f77b4;stroke:#1f77b4;stroke-linejoin:miter;" x="248.473795" xlink:href="#m9e0ac68bfd" y="143.546575"/>
     <use style="fill:#1f77b4;stroke:#1f77b4;stroke-linejoin:miter;" x="256.976652" xlink:href="#m9e0ac68bfd" y="41.173228"/>
     <use style="fill:#1f77b4;stroke:#1f77b4;stroke-linejoin:miter;" x="265.479509" xlink:href="#m9e0ac68bfd" y="82.959288"/>
     <use style="fill:#1f77b4;stroke:#1f77b4;stroke-linejoin:miter;" x="273.982366" xlink:href="#m9e0ac68bfd" y="208.397775"/>
     <use style="fill:#1f77b4;stroke:#1f77b4;stroke-linejoin:miter;" x="282.485223" xlink:href="#m9e0ac68bfd" y="248.111567"/>
     <use style="fill:#1f77b4;stroke:#1f77b4;stroke-linejoin:miter;" x="290.98808" xlink:href="#m9e0ac68bfd" y="170.573119"/>
     <use style="fill:#1f77b4;stroke:#1f77b4;stroke-linejoin:miter;" x="299.490938" xlink:href="#m9e0ac68bfd" y="67.410758"/>
     <use style="fill:#1f77b4;stroke:#1f77b4;stroke-linejoin:miter;" x="307.993795" xlink:href="#m9e0ac68bfd" y="84.221639"/>
     <use style="fill:#1f77b4;stroke:#1f77b4;stroke-linejoin:miter;" x="316.496652" xlink:href="#m9e0ac68bfd" y="206.273548"/>
     <use style="fill:#1f77b4;stroke:#1f77b4;stroke-linejoin:miter;" x="324.999509" xlink:href="#m9e0ac68bfd" y="253.582348"/>
     <use style="fill:#1f77b4;stroke:#1f77b4;stroke-linejoin:miter;" x="333.502366" xlink:href="#m9e0ac68bfd" y="176.898084"/>
     <use style="fill:#1f77b4;stroke:#1f77b4;stroke-linejoin:miter;" x="342.005223" xlink:href="#m9e0ac68bfd" y="60.914689"/>
     <use style="fill:#1f77b4;stroke:#1f77b4;stroke-linejoin:miter;" x="350.50808" xlink:href="#m9e0ac68bfd" y="65.379083"/>
     <use style="fill:#1f77b4;stroke:#1f77b4;stroke-linejoin:miter;" x="359.010938" xlink:href="#m9e0ac68bfd" y="172.453269"/>
     <use style="fill:#1f77b4;stroke:#1f77b4;stroke-linejoin:miter;" x="367.513795" xlink:href="#m9e0ac68bfd" y="236.109594"/>
     <use style="fill:#1f77b4;stroke:#1f77b4;stroke-linejoin:miter;" x="376.016652" xlink:href="#m9e0ac68bfd" y="189.673228"/>
     <use style="fill:#1f77b4;stroke:#1f77b4;stroke-linejoin:miter;" x="384.519509" xlink:href="#m9e0ac68bfd" y="86.44455"/>
     <use style="fill:#1f77b4;stroke:#1f77b4;stroke-linejoin:miter;" x="393.022366" xlink:href="#m9e0ac68bfd" y="74.741758"/>
     <use style="fill:#1f77b4;stroke:#1f77b4;stroke-linejoin:miter;" x="401.525223" xlink:href="#m9e0ac68bfd" y="177.158226"/>
    </g>
   </g>
   <g id="line2d_29">
    <defs>
     <path d="M 0 3 
C 0.795609 3 1.55874 2.683901 2.12132 2.12132 
C 2.683901 1.55874 3 0.795609 3 0 
C 3 -0.795609 2.683901 -1.55874 2.12132 -2.12132 
C 1.55874 -2.683901 0.795609 -3 0 -3 
C -0.795609 -3 -1.55874 -2.683901 -2.12132 -2.12132 
C -2.683901 -1.55874 -3 -0.795609 -3 0 
C -3 0.795609 -2.683901 1.55874 -2.12132 2.12132 
C -1.55874 2.683901 -0.795609 3 0 3 
z
" id="m4d17eb6f4c" style="stroke:#d62728;"/>
    </defs>
    <g clip-path="url(#p304c686b55)">
     <use style="fill:#d62728;stroke:#d62728;" x="61.410938" xlink:href="#m4d17eb6f4c" y="271.284996"/>
     <use style="fill:#d62728;stroke:#d62728;" x="69.913795" xlink:href="#m4d17eb6f4c" y="229.820428"/>
     <use style="fill:#d62728;stroke:#d62728;" x="78.416652" xlink:href="#m4d17eb6f4c" y="127.496192"/>
     <use style="fill:#d62728;stroke:#d62728;" x="86.919509" xlink:href="#m4d17eb6f4c" y="79.426828"/>
     <use style="fill:#d62728;stroke:#d62728;" x="95.422366" xlink:href="#m4d17eb6f4c" y="99.838828"/>
     <use style="fill:#d62728;stroke:#d62728;" x="103.925223" xlink:href="#m4d17eb6f4c" y="187.5914"/>
     <use style="fill:#d62728;stroke:#d62728;" x="112.42808" xlink:href="#m4d17eb6f4c" y="181.713628"/>
     <use style="fill:#d62728;stroke:#d62728;" x="120.930938" xlink:href="#m4d17eb6f4c" y="138.740949"/>
     <use style="fill:#d62728;stroke:#d62728;" x="129.433795" xlink:href="#m4d17eb6f4c" y="122.626828"/>
     <use style="fill:#d62728;stroke:#d62728;" x="137.936652" xlink:href="#m4d17eb6f4c" y="124.197243"/>
     <use style="fill:#d62728;stroke:#d62728;" x="146.439509" xlink:href="#m4d17eb6f4c" y="157.109223"/>
     <use style="fill:#d62728;stroke:#d62728;" x="154.942366" xlink:href="#m4d17eb6f4c" y="184.410319"/>
     <use style="fill:#d62728;stroke:#d62728;" x="163.445223" xlink:href="#m4d17eb6f4c" y="169.589775"/>
     <use style="fill:#d62728;stroke:#d62728;" x="171.94808" xlink:href="#m4d17eb6f4c" y="121.066655"/>
     <use style="fill:#d62728;stroke:#d62728;" x="180.450938" xlink:href="#m4d17eb6f4c" y="129.005019"/>
     <use style="fill:#d62728;stroke:#d62728;" x="188.953795" xlink:href="#m4d17eb6f4c" y="146.766145"/>
    </g>
   </g>
   <g id="patch_3">
    <path d="M 61.410938 279.010828 
L 61.410938 12.898828 
" style="fill:none;stroke:#000000;stroke-linecap:square;stroke-linejoin:miter;stroke-width:0.8;"/>
   </g>
   <g id="patch_4">
    <path d="M 418.530938 279.010828 
L 418.530938 12.898828 
" style="fill:none;stroke:#000000;stroke-linecap:square;stroke-linejoin:miter;stroke-width:0.8;"/>
   </g>
   <g id="patch_5">
    <path d="M 61.410938 279.010828 
L 418.530938 279.010828 
" style="fill:none;stroke:#000000;stroke-linecap:square;stroke-linejoin:miter;stroke-width:0.8;"/>
   </g>
   <g id="patch_6">
    <path d="M 61.410938 12.898828 
L 418.530938 12.898828 
" style="fill:none;stroke:#000000;stroke-linecap:square;stroke-linejoin:miter;stroke-width:0.8;"/>
   </g>
  </g>
 </g>
 <defs>
  <clipPath id="p304c686b55">
   <rect height="266.112" width="357.12" x="61.410938" y="12.898828"/>
  </clipPath>
 </defs>
</svg>
