<?xml version="1.0" encoding="utf-8" standalone="no"?>
<!DOCTYPE svg PUBLIC "-//W3C//DTD SVG 1.1//EN"
  "http://www.w3.org/Graphics/SVG/1.1/DTD/svg11.dtd">
<!-- Created with matplotlib (https://matplotlib.org/) -->
<svg height="331.128016pt" version="1.1" viewBox="0 0 425.730937 331.128016" width="425.730937pt" xmlns="http://www.w3.org/2000/svg" xmlns:xlink="http://www.w3.org/1999/xlink">
 <defs>
  <style type="text/css">*{stroke-linecap:butt;stroke-linejoin:round;}</style>
 </defs>
 <g id="figure_1">
  <g id="patch_1">
   <path d="M 0 331.128016 
L 425.730937 331.128016 
L 425.730937 0 
L 0 0 
z
" style="fill:none;"/>
  </g>
  <g id="axes_1">
   <g id="patch_2">
    <path d="M 61.410938 279.010828 
L 418.530938 279.010828 
L 418.530938 12.898828 
L 61.410938 12.898828 
z
" style="fill:none;"/>
   </g>
   <g id="matplotlib.axis_1">
    <g id="xtick_1">
     <g id="line2d_1">
      <path clip-path="url(#p304c686b55)" d="M 61.410938 279.010828 
L 61.410938 12.898828 
" style="fill:none;stroke:#b0b0b0;stroke-linecap:square;stroke-width:0.8;"/>
     </g>
     <g id="line2d_2">
      <defs>
       <path d="M 0 0 
L 0 3.5 
" id="m005f0a59be" style="stroke:#000000;stroke-width:0.8;"/>
      </defs>
      <g>
       <use style="stroke:#000000;stroke-width:0.8;" x="61.410938" xlink:href="#m005f0a59be" y="279.010828"/>
      </g>
     </g>
     <g id="text_1">
      <!-- 0 -->
      <g transform="translate(56.639063 297.408484)scale(0.15 -0.15)">
       <defs>
        <path d="M 31.78125 66.40625 
Q 24.171875 66.40625 20.328125 58.90625 
Q 16.5 51.421875 16.5 36.375 
Q 16.5 21.390625 20.328125 13.890625 
Q 24.171875 6.390625 31.78125 6.390625 
Q 39.453125 6.390625 43.28125 13.890625 
Q 47.125 21.390625 47.125 36.375 
Q 47.125 51.421875 43.28125 58.90625 
Q 39.453125 66.40625 31.78125 66.40625 
z
M 31.78125 74.21875 
Q 44.046875 74.21875 50.515625 64.515625 
Q 56.984375 54.828125 56.984375 36.375 
Q 56.984375 17.96875 50.515625 8.265625 
Q 44.046875 -1.421875 31.78125 -1.421875 
Q 19.53125 -1.421875 13.0625 8.265625 
Q 6.59375 17.96875 6.59375 36.375 
Q 6.59375 54.828125 13.0625 64.515625 
Q 19.53125 74.21875 31.78125 74.21875 
z
" id="DejaVuSans-48"/>
       </defs>
       <use xlink:href="#DejaVuSans-48"/>
      </g>
     </g>
    </g>
    <g id="xtick_2">
     <g id="line2d_3">
      <path clip-path="url(#p304c686b55)" d="M 124.063569 279.010828 
L 124.063569 12.898828 
" style="fill:none;stroke:#b0b0b0;stroke-linecap:square;stroke-width:0.8;"/>
     </g>
     <g id="line2d_4">
      <g>
       <use style="stroke:#000000;stroke-width:0.8;" x="124.063569" xlink:href="#m005f0a59be" y="279.010828"/>
      </g>
     </g>
     <g id="text_2">
      <!-- 50 -->
      <g transform="translate(114.519819 297.408484)scale(0.15 -0.15)">
       <defs>
        <path d="M 10.796875 72.90625 
L 49.515625 72.90625 
L 49.515625 64.59375 
L 19.828125 64.59375 
L 19.828125 46.734375 
Q 21.96875 47.46875 24.109375 47.828125 
Q 26.265625 48.1875 28.421875 48.1875 
Q 40.625 48.1875 47.75 41.5 
Q 54.890625 34.8125 54.890625 23.390625 
Q 54.890625 11.625 47.5625 5.09375 
Q 40.234375 -1.421875 26.90625 -1.421875 
Q 22.3125 -1.421875 17.546875 -0.640625 
Q 12.796875 0.140625 7.71875 1.703125 
L 7.71875 11.625 
Q 12.109375 9.234375 16.796875 8.0625 
Q 21.484375 6.890625 26.703125 6.890625 
Q 35.15625 6.890625 40.078125 11.328125 
Q 45.015625 15.765625 45.015625 23.390625 
Q 45.015625 31 40.078125 35.4375 
Q 35.15625 39.890625 26.703125 39.890625 
Q 22.75 39.890625 18.8125 39.015625 
Q 14.890625 38.140625 10.796875 36.28125 
z
" id="DejaVuSans-53"/>
       </defs>
       <use xlink:href="#DejaVuSans-53"/>
       <use x="63.623047" xlink:href="#DejaVuSans-48"/>
      </g>
     </g>
    </g>
    <g id="xtick_3">
     <g id="line2d_5">
      <path clip-path="url(#p304c686b55)" d="M 186.716201 279.010828 
L 186.716201 12.898828 
" style="fill:none;stroke:#b0b0b0;stroke-linecap:square;stroke-width:0.8;"/>
     </g>
     <g id="line2d_6">
      <g>
       <use style="stroke:#000000;stroke-width:0.8;" x="186.716201" xlink:href="#m005f0a59be" y="279.010828"/>
      </g>
     </g>
     <g id="text_3">
      <!-- 100 -->
      <g transform="translate(172.400576 297.408484)scale(0.15 -0.15)">
       <defs>
        <path d="M 12.40625 8.296875 
L 28.515625 8.296875 
L 28.515625 63.921875 
L 10.984375 60.40625 
L 10.984375 69.390625 
L 28.421875 72.90625 
L 38.28125 72.90625 
L 38.28125 8.296875 
L 54.390625 8.296875 
L 54.390625 0 
L 12.40625 0 
z
" id="DejaVuSans-49"/>
       </defs>
       <use xlink:href="#DejaVuSans-49"/>
       <use x="63.623047" xlink:href="#DejaVuSans-48"/>
       <use x="127.246094" xlink:href="#DejaVuSans-48"/>
      </g>
     </g>
    </g>
    <g id="xtick_4">
     <g id="line2d_7">
      <path clip-path="url(#p304c686b55)" d="M 249.368832 279.010828 
L 249.368832 12.898828 
" style="fill:none;stroke:#b0b0b0;stroke-linecap:square;stroke-width:0.8;"/>
     </g>
     <g id="line2d_8">
      <g>
       <use style="stroke:#000000;stroke-width:0.8;" x="249.368832" xlink:href="#m005f0a59be" y="279.010828"/>
      </g>
     </g>
     <g id="text_4">
      <!-- 150 -->
      <g transform="translate(235.053207 297.408484)scale(0.15 -0.15)">
       <use xlink:href="#DejaVuSans-49"/>
       <use x="63.623047" xlink:href="#DejaVuSans-53"/>
       <use x="127.246094" xlink:href="#DejaVuSans-48"/>
      </g>
     </g>
    </g>
    <g id="xtick_5">
     <g id="line2d_9">
      <path clip-path="url(#p304c686b55)" d="M 312.021464 279.010828 
L 312.021464 12.898828 
" style="fill:none;stroke:#b0b0b0;stroke-linecap:square;stroke-width:0.8;"/>
     </g>
     <g id="line2d_10">
      <g>
       <use style="stroke:#000000;stroke-width:0.8;" x="312.021464" xlink:href="#m005f0a59be" y="279.010828"/>
      </g>
     </g>
     <g id="text_5">
      <!-- 200 -->
      <g transform="translate(297.705839 297.408484)scale(0.15 -0.15)">
       <defs>
        <path d="M 19.1875 8.296875 
L 53.609375 8.296875 
L 53.609375 0 
L 7.328125 0 
L 7.328125 8.296875 
Q 12.9375 14.109375 22.625 23.890625 
Q 32.328125 33.6875 34.8125 36.53125 
Q 39.546875 41.84375 41.421875 45.53125 
Q 43.3125 49.21875 43.3125 52.78125 
Q 43.3125 58.59375 39.234375 62.25 
Q 35.15625 65.921875 28.609375 65.921875 
Q 23.96875 65.921875 18.8125 64.3125 
Q 13.671875 62.703125 7.8125 59.421875 
L 7.8125 69.390625 
Q 13.765625 71.78125 18.9375 73 
Q 24.125 74.21875 28.421875 74.21875 
Q 39.75 74.21875 46.484375 68.546875 
Q 53.21875 62.890625 53.21875 53.421875 
Q 53.21875 48.921875 51.53125 44.890625 
Q 49.859375 40.875 45.40625 35.40625 
Q 44.1875 33.984375 37.640625 27.21875 
Q 31.109375 20.453125 19.1875 8.296875 
z
" id="DejaVuSans-50"/>
       </defs>
       <use xlink:href="#DejaVuSans-50"/>
       <use x="63.623047" xlink:href="#DejaVuSans-48"/>
       <use x="127.246094" xlink:href="#DejaVuSans-48"/>
      </g>
     </g>
    </g>
    <g id="xtick_6">
     <g id="line2d_11">
      <path clip-path="url(#p304c686b55)" d="M 374.674095 279.010828 
L 374.674095 12.898828 
" style="fill:none;stroke:#b0b0b0;stroke-linecap:square;stroke-width:0.8;"/>
     </g>
     <g id="line2d_12">
      <g>
       <use style="stroke:#000000;stroke-width:0.8;" x="374.674095" xlink:href="#m005f0a59be" y="279.010828"/>
      </g>
     </g>
     <g id="text_6">
      <!-- 250 -->
      <g transform="translate(360.35847 297.408484)scale(0.15 -0.15)">
       <use xlink:href="#DejaVuSans-50"/>
       <use x="63.623047" xlink:href="#DejaVuSans-53"/>
       <use x="127.246094" xlink:href="#DejaVuSans-48"/>
      </g>
     </g>
    </g>
    <g id="text_7">
     <!-- Time ($\mu s$) -->
     <g transform="translate(192.570938 319.728016)scale(0.2 -0.2)">
      <defs>
       <path d="M -0.296875 72.90625 
L 61.375 72.90625 
L 61.375 64.59375 
L 35.5 64.59375 
L 35.5 0 
L 25.59375 0 
L 25.59375 64.59375 
L -0.296875 64.59375 
z
" id="DejaVuSans-84"/>
       <path d="M 9.421875 54.6875 
L 18.40625 54.6875 
L 18.40625 0 
L 9.421875 0 
z
M 9.421875 75.984375 
L 18.40625 75.984375 
L 18.40625 64.59375 
L 9.421875 64.59375 
z
" id="DejaVuSans-105"/>
       <path d="M 52 44.1875 
Q 55.375 50.25 60.0625 53.125 
Q 64.75 56 71.09375 56 
Q 79.640625 56 84.28125 50.015625 
Q 88.921875 44.046875 88.921875 33.015625 
L 88.921875 0 
L 79.890625 0 
L 79.890625 32.71875 
Q 79.890625 40.578125 77.09375 44.375 
Q 74.3125 48.1875 68.609375 48.1875 
Q 61.625 48.1875 57.5625 43.546875 
Q 53.515625 38.921875 53.515625 30.90625 
L 53.515625 0 
L 44.484375 0 
L 44.484375 32.71875 
Q 44.484375 40.625 41.703125 44.40625 
Q 38.921875 48.1875 33.109375 48.1875 
Q 26.21875 48.1875 22.15625 43.53125 
Q 18.109375 38.875 18.109375 30.90625 
L 18.109375 0 
L 9.078125 0 
L 9.078125 54.6875 
L 18.109375 54.6875 
L 18.109375 46.1875 
Q 21.1875 51.21875 25.484375 53.609375 
Q 29.78125 56 35.6875 56 
Q 41.65625 56 45.828125 52.96875 
Q 50 49.953125 52 44.1875 
z
" id="DejaVuSans-109"/>
       <path d="M 56.203125 29.59375 
L 56.203125 25.203125 
L 14.890625 25.203125 
Q 15.484375 15.921875 20.484375 11.0625 
Q 25.484375 6.203125 34.421875 6.203125 
Q 39.59375 6.203125 44.453125 7.46875 
Q 49.3125 8.734375 54.109375 11.28125 
L 54.109375 2.78125 
Q 49.265625 0.734375 44.1875 -0.34375 
Q 39.109375 -1.421875 33.890625 -1.421875 
Q 20.796875 -1.421875 13.15625 6.1875 
Q 5.515625 13.8125 5.515625 26.8125 
Q 5.515625 40.234375 12.765625 48.109375 
Q 20.015625 56 32.328125 56 
Q 43.359375 56 49.78125 48.890625 
Q 56.203125 41.796875 56.203125 29.59375 
z
M 47.21875 32.234375 
Q 47.125 39.59375 43.09375 43.984375 
Q 39.0625 48.390625 32.421875 48.390625 
Q 24.90625 48.390625 20.390625 44.140625 
Q 15.875 39.890625 15.1875 32.171875 
z
" id="DejaVuSans-101"/>
       <path id="DejaVuSans-32"/>
       <path d="M 31 75.875 
Q 24.46875 64.65625 21.28125 53.65625 
Q 18.109375 42.671875 18.109375 31.390625 
Q 18.109375 20.125 21.3125 9.0625 
Q 24.515625 -2 31 -13.1875 
L 23.1875 -13.1875 
Q 15.875 -1.703125 12.234375 9.375 
Q 8.59375 20.453125 8.59375 31.390625 
Q 8.59375 42.28125 12.203125 53.3125 
Q 15.828125 64.359375 23.1875 75.875 
z
" id="DejaVuSans-40"/>
       <path d="M -1.3125 -20.796875 
L 13.375 54.6875 
L 22.40625 54.6875 
L 15.765625 20.65625 
Q 15.578125 19.625 15.421875 18.359375 
Q 15.28125 17.09375 15.28125 15.828125 
Q 15.28125 11.28125 18.140625 8.828125 
Q 21 6.390625 26.3125 6.390625 
Q 33.546875 6.390625 37.984375 10.484375 
Q 42.4375 14.59375 44 22.796875 
L 50.203125 54.6875 
L 59.1875 54.6875 
L 51.03125 12.640625 
Q 50.828125 11.71875 50.75 11.03125 
Q 50.6875 10.359375 50.6875 9.8125 
Q 50.6875 8.296875 51.296875 7.59375 
Q 51.90625 6.890625 53.21875 6.890625 
Q 53.71875 6.890625 54.5625 7.125 
Q 55.421875 7.375 56.984375 8.015625 
L 55.609375 0.78125 
Q 53.46875 -0.296875 51.515625 -0.859375 
Q 49.5625 -1.421875 47.703125 -1.421875 
Q 44.484375 -1.421875 42.65625 0.625 
Q 40.828125 2.6875 40.828125 6.296875 
Q 38.09375 2.390625 34.296875 0.484375 
Q 30.515625 -1.421875 25.390625 -1.421875 
Q 20.84375 -1.421875 17.453125 0.671875 
Q 14.0625 2.78125 12.984375 6.203125 
L 7.71875 -20.796875 
z
" id="DejaVuSans-Oblique-956"/>
       <path d="M 50 53.078125 
L 48.296875 44.578125 
Q 44.734375 46.53125 40.765625 47.5 
Q 36.8125 48.484375 32.625 48.484375 
Q 25.53125 48.484375 21.453125 46.0625 
Q 17.390625 43.65625 17.390625 39.5 
Q 17.390625 34.671875 26.859375 32.078125 
Q 27.59375 31.890625 27.9375 31.78125 
L 30.8125 30.90625 
Q 39.796875 28.421875 42.796875 25.6875 
Q 45.796875 22.953125 45.796875 18.21875 
Q 45.796875 9.515625 38.890625 4.046875 
Q 31.984375 -1.421875 20.796875 -1.421875 
Q 16.453125 -1.421875 11.671875 -0.578125 
Q 6.890625 0.25 1.125 2 
L 2.875 11.28125 
Q 7.8125 8.734375 12.59375 7.421875 
Q 17.390625 6.109375 21.78125 6.109375 
Q 28.375 6.109375 32.5 8.9375 
Q 36.625 11.765625 36.625 16.109375 
Q 36.625 20.796875 25.78125 23.6875 
L 24.859375 23.921875 
L 21.78125 24.703125 
Q 14.9375 26.515625 11.765625 29.46875 
Q 8.59375 32.421875 8.59375 37.015625 
Q 8.59375 45.75 15.15625 50.875 
Q 21.734375 56 33.015625 56 
Q 37.453125 56 41.671875 55.265625 
Q 45.90625 54.546875 50 53.078125 
z
" id="DejaVuSans-Oblique-115"/>
       <path d="M 8.015625 75.875 
L 15.828125 75.875 
Q 23.140625 64.359375 26.78125 53.3125 
Q 30.421875 42.28125 30.421875 31.390625 
Q 30.421875 20.453125 26.78125 9.375 
Q 23.140625 -1.703125 15.828125 -13.1875 
L 8.015625 -13.1875 
Q 14.5 -2 17.703125 9.0625 
Q 20.90625 20.125 20.90625 31.390625 
Q 20.90625 42.671875 17.703125 53.65625 
Q 14.5 64.65625 8.015625 75.875 
z
" id="DejaVuSans-41"/>
      </defs>
      <use transform="translate(0 0.015625)" xlink:href="#DejaVuSans-84"/>
      <use transform="translate(61.083984 0.015625)" xlink:href="#DejaVuSans-105"/>
      <use transform="translate(88.867188 0.015625)" xlink:href="#DejaVuSans-109"/>
      <use transform="translate(186.279297 0.015625)" xlink:href="#DejaVuSans-101"/>
      <use transform="translate(247.802734 0.015625)" xlink:href="#DejaVuSans-32"/>
      <use transform="translate(279.589844 0.015625)" xlink:href="#DejaVuSans-40"/>
      <use transform="translate(318.603516 0.015625)" xlink:href="#DejaVuSans-Oblique-956"/>
      <use transform="translate(382.226562 0.015625)" xlink:href="#DejaVuSans-Oblique-115"/>
      <use transform="translate(434.326172 0.015625)" xlink:href="#DejaVuSans-41"/>
     </g>
    </g>
   </g>
   <g id="matplotlib.axis_2">
    <g id="ytick_1">
     <g id="line2d_13">
      <path clip-path="url(#p304c686b55)" d="M 61.410938 279.010828 
L 418.530938 279.010828 
" style="fill:none;stroke:#b0b0b0;stroke-linecap:square;stroke-width:0.8;"/>
     </g>
     <g id="line2d_14">
      <defs>
       <path d="M 0 0 
L -3.5 0 
" id="mc3ce260a5b" style="stroke:#000000;stroke-width:0.8;"/>
      </defs>
      <g>
       <use style="stroke:#000000;stroke-width:0.8;" x="61.410938" xlink:href="#mc3ce260a5b" y="279.010828"/>
      </g>
     </g>
     <g id="text_8">
      <!-- 0.0 -->
      <g transform="translate(30.55625 284.709656)scale(0.15 -0.15)">
       <defs>
        <path d="M 10.6875 12.40625 
L 21 12.40625 
L 21 0 
L 10.6875 0 
z
" id="DejaVuSans-46"/>
       </defs>
       <use xlink:href="#DejaVuSans-48"/>
       <use x="63.623047" xlink:href="#DejaVuSans-46"/>
       <use x="95.410156" xlink:href="#DejaVuSans-48"/>
      </g>
     </g>
    </g>
    <g id="ytick_2">
     <g id="line2d_15">
      <path clip-path="url(#p304c686b55)" d="M 61.410938 225.788428 
L 418.530938 225.788428 
" style="fill:none;stroke:#b0b0b0;stroke-linecap:square;stroke-width:0.8;"/>
     </g>
     <g id="line2d_16">
      <g>
       <use style="stroke:#000000;stroke-width:0.8;" x="61.410938" xlink:href="#mc3ce260a5b" y="225.788428"/>
      </g>
     </g>
     <g id="text_9">
      <!-- 0.2 -->
      <g transform="translate(30.55625 231.487256)scale(0.15 -0.15)">
       <use xlink:href="#DejaVuSans-48"/>
       <use x="63.623047" xlink:href="#DejaVuSans-46"/>
       <use x="95.410156" xlink:href="#DejaVuSans-50"/>
      </g>
     </g>
    </g>
    <g id="ytick_3">
     <g id="line2d_17">
      <path clip-path="url(#p304c686b55)" d="M 61.410938 172.566028 
L 418.530938 172.566028 
" style="fill:none;stroke:#b0b0b0;stroke-linecap:square;stroke-width:0.8;"/>
     </g>
     <g id="line2d_18">
      <g>
       <use style="stroke:#000000;stroke-width:0.8;" x="61.410938" xlink:href="#mc3ce260a5b" y="172.566028"/>
      </g>
     </g>
     <g id="text_10">
      <!-- 0.4 -->
      <g transform="translate(30.55625 178.264856)scale(0.15 -0.15)">
       <defs>
        <path d="M 37.796875 64.3125 
L 12.890625 25.390625 
L 37.796875 25.390625 
z
M 35.203125 72.90625 
L 47.609375 72.90625 
L 47.609375 25.390625 
L 58.015625 25.390625 
L 58.015625 17.1875 
L 47.609375 17.1875 
L 47.609375 0 
L 37.796875 0 
L 37.796875 17.1875 
L 4.890625 17.1875 
L 4.890625 26.703125 
z
" id="DejaVuSans-52"/>
       </defs>
       <use xlink:href="#DejaVuSans-48"/>
       <use x="63.623047" xlink:href="#DejaVuSans-46"/>
       <use x="95.410156" xlink:href="#DejaVuSans-52"/>
      </g>
     </g>
    </g>
    <g id="ytick_4">
     <g id="line2d_19">
      <path clip-path="url(#p304c686b55)" d="M 61.410938 119.343628 
L 418.530938 119.343628 
" style="fill:none;stroke:#b0b0b0;stroke-linecap:square;stroke-width:0.8;"/>
     </g>
     <g id="line2d_20">
      <g>
       <use style="stroke:#000000;stroke-width:0.8;" x="61.410938" xlink:href="#mc3ce260a5b" y="119.343628"/>
      </g>
     </g>
     <g id="text_11">
      <!-- 0.6 -->
      <g transform="translate(30.55625 125.042456)scale(0.15 -0.15)">
       <defs>
        <path d="M 33.015625 40.375 
Q 26.375 40.375 22.484375 35.828125 
Q 18.609375 31.296875 18.609375 23.390625 
Q 18.609375 15.53125 22.484375 10.953125 
Q 26.375 6.390625 33.015625 6.390625 
Q 39.65625 6.390625 43.53125 10.953125 
Q 47.40625 15.53125 47.40625 23.390625 
Q 47.40625 31.296875 43.53125 35.828125 
Q 39.65625 40.375 33.015625 40.375 
z
M 52.59375 71.296875 
L 52.59375 62.3125 
Q 48.875 64.0625 45.09375 64.984375 
Q 41.3125 65.921875 37.59375 65.921875 
Q 27.828125 65.921875 22.671875 59.328125 
Q 17.53125 52.734375 16.796875 39.40625 
Q 19.671875 43.65625 24.015625 45.921875 
Q 28.375 48.1875 33.59375 48.1875 
Q 44.578125 48.1875 50.953125 41.515625 
Q 57.328125 34.859375 57.328125 23.390625 
Q 57.328125 12.15625 50.6875 5.359375 
Q 44.046875 -1.421875 33.015625 -1.421875 
Q 20.359375 -1.421875 13.671875 8.265625 
Q 6.984375 17.96875 6.984375 36.375 
Q 6.984375 53.65625 15.1875 63.9375 
Q 23.390625 74.21875 37.203125 74.21875 
Q 40.921875 74.21875 44.703125 73.484375 
Q 48.484375 72.75 52.59375 71.296875 
z
" id="DejaVuSans-54"/>
       </defs>
       <use xlink:href="#DejaVuSans-48"/>
       <use x="63.623047" xlink:href="#DejaVuSans-46"/>
       <use x="95.410156" xlink:href="#DejaVuSans-54"/>
      </g>
     </g>
    </g>
    <g id="ytick_5">
     <g id="line2d_21">
      <path clip-path="url(#p304c686b55)" d="M 61.410938 66.121228 
L 418.530938 66.121228 
" style="fill:none;stroke:#b0b0b0;stroke-linecap:square;stroke-width:0.8;"/>
     </g>
     <g id="line2d_22">
      <g>
       <use style="stroke:#000000;stroke-width:0.8;" x="61.410938" xlink:href="#mc3ce260a5b" y="66.121228"/>
      </g>
     </g>
     <g id="text_12">
      <!-- 0.8 -->
      <g transform="translate(30.55625 71.820056)scale(0.15 -0.15)">
       <defs>
        <path d="M 31.78125 34.625 
Q 24.75 34.625 20.71875 30.859375 
Q 16.703125 27.09375 16.703125 20.515625 
Q 16.703125 13.921875 20.71875 10.15625 
Q 24.75 6.390625 31.78125 6.390625 
Q 38.8125 6.390625 42.859375 10.171875 
Q 46.921875 13.96875 46.921875 20.515625 
Q 46.921875 27.09375 42.890625 30.859375 
Q 38.875 34.625 31.78125 34.625 
z
M 21.921875 38.8125 
Q 15.578125 40.375 12.03125 44.71875 
Q 8.5 49.078125 8.5 55.328125 
Q 8.5 64.0625 14.71875 69.140625 
Q 20.953125 74.21875 31.78125 74.21875 
Q 42.671875 74.21875 48.875 69.140625 
Q 55.078125 64.0625 55.078125 55.328125 
Q 55.078125 49.078125 51.53125 44.71875 
Q 48 40.375 41.703125 38.8125 
Q 48.828125 37.15625 52.796875 32.3125 
Q 56.78125 27.484375 56.78125 20.515625 
Q 56.78125 9.90625 50.3125 4.234375 
Q 43.84375 -1.421875 31.78125 -1.421875 
Q 19.734375 -1.421875 13.25 4.234375 
Q 6.78125 9.90625 6.78125 20.515625 
Q 6.78125 27.484375 10.78125 32.3125 
Q 14.796875 37.15625 21.921875 38.8125 
z
M 18.3125 54.390625 
Q 18.3125 48.734375 21.84375 45.5625 
Q 25.390625 42.390625 31.78125 42.390625 
Q 38.140625 42.390625 41.71875 45.5625 
Q 45.3125 48.734375 45.3125 54.390625 
Q 45.3125 60.0625 41.71875 63.234375 
Q 38.140625 66.40625 31.78125 66.40625 
Q 25.390625 66.40625 21.84375 63.234375 
Q 18.3125 60.0625 18.3125 54.390625 
z
" id="DejaVuSans-56"/>
       </defs>
       <use xlink:href="#DejaVuSans-48"/>
       <use x="63.623047" xlink:href="#DejaVuSans-46"/>
       <use x="95.410156" xlink:href="#DejaVuSans-56"/>
      </g>
     </g>
    </g>
    <g id="ytick_6">
     <g id="line2d_23">
      <path clip-path="url(#p304c686b55)" d="M 61.410938 12.898828 
L 418.530938 12.898828 
" style="fill:none;stroke:#b0b0b0;stroke-linecap:square;stroke-width:0.8;"/>
     </g>
     <g id="line2d_24">
      <g>
       <use style="stroke:#000000;stroke-width:0.8;" x="61.410938" xlink:href="#mc3ce260a5b" y="12.898828"/>
      </g>
     </g>
     <g id="text_13">
      <!-- 1.0 -->
      <g transform="translate(30.55625 18.597656)scale(0.15 -0.15)">
       <use xlink:href="#DejaVuSans-49"/>
       <use x="63.623047" xlink:href="#DejaVuSans-46"/>
       <use x="95.410156" xlink:href="#DejaVuSans-48"/>
      </g>
     </g>
    </g>
    <g id="text_14">
     <!-- F=1 population -->
     <g transform="translate(22.396875 222.840766)rotate(-90)scale(0.2 -0.2)">
      <defs>
       <path d="M 9.8125 72.90625 
L 51.703125 72.90625 
L 51.703125 64.59375 
L 19.671875 64.59375 
L 19.671875 43.109375 
L 48.578125 43.109375 
L 48.578125 34.8125 
L 19.671875 34.8125 
L 19.671875 0 
L 9.8125 0 
z
" id="DejaVuSans-70"/>
       <path d="M 10.59375 45.40625 
L 73.1875 45.40625 
L 73.1875 37.203125 
L 10.59375 37.203125 
z
M 10.59375 25.484375 
L 73.1875 25.484375 
L 73.1875 17.1875 
L 10.59375 17.1875 
z
" id="DejaVuSans-61"/>
       <path d="M 18.109375 8.203125 
L 18.109375 -20.796875 
L 9.078125 -20.796875 
L 9.078125 54.6875 
L 18.109375 54.6875 
L 18.109375 46.390625 
Q 20.953125 51.265625 25.265625 53.625 
Q 29.59375 56 35.59375 56 
Q 45.5625 56 51.78125 48.09375 
Q 58.015625 40.1875 58.015625 27.296875 
Q 58.015625 14.40625 51.78125 6.484375 
Q 45.5625 -1.421875 35.59375 -1.421875 
Q 29.59375 -1.421875 25.265625 0.953125 
Q 20.953125 3.328125 18.109375 8.203125 
z
M 48.6875 27.296875 
Q 48.6875 37.203125 44.609375 42.84375 
Q 40.53125 48.484375 33.40625 48.484375 
Q 26.265625 48.484375 22.1875 42.84375 
Q 18.109375 37.203125 18.109375 27.296875 
Q 18.109375 17.390625 22.1875 11.75 
Q 26.265625 6.109375 33.40625 6.109375 
Q 40.53125 6.109375 44.609375 11.75 
Q 48.6875 17.390625 48.6875 27.296875 
z
" id="DejaVuSans-112"/>
       <path d="M 30.609375 48.390625 
Q 23.390625 48.390625 19.1875 42.75 
Q 14.984375 37.109375 14.984375 27.296875 
Q 14.984375 17.484375 19.15625 11.84375 
Q 23.34375 6.203125 30.609375 6.203125 
Q 37.796875 6.203125 41.984375 11.859375 
Q 46.1875 17.53125 46.1875 27.296875 
Q 46.1875 37.015625 41.984375 42.703125 
Q 37.796875 48.390625 30.609375 48.390625 
z
M 30.609375 56 
Q 42.328125 56 49.015625 48.375 
Q 55.71875 40.765625 55.71875 27.296875 
Q 55.71875 13.875 49.015625 6.21875 
Q 42.328125 -1.421875 30.609375 -1.421875 
Q 18.84375 -1.421875 12.171875 6.21875 
Q 5.515625 13.875 5.515625 27.296875 
Q 5.515625 40.765625 12.171875 48.375 
Q 18.84375 56 30.609375 56 
z
" id="DejaVuSans-111"/>
       <path d="M 8.5 21.578125 
L 8.5 54.6875 
L 17.484375 54.6875 
L 17.484375 21.921875 
Q 17.484375 14.15625 20.5 10.265625 
Q 23.53125 6.390625 29.59375 6.390625 
Q 36.859375 6.390625 41.078125 11.03125 
Q 45.3125 15.671875 45.3125 23.6875 
L 45.3125 54.6875 
L 54.296875 54.6875 
L 54.296875 0 
L 45.3125 0 
L 45.3125 8.40625 
Q 42.046875 3.421875 37.71875 1 
Q 33.40625 -1.421875 27.6875 -1.421875 
Q 18.265625 -1.421875 13.375 4.4375 
Q 8.5 10.296875 8.5 21.578125 
z
M 31.109375 56 
z
" id="DejaVuSans-117"/>
       <path d="M 9.421875 75.984375 
L 18.40625 75.984375 
L 18.40625 0 
L 9.421875 0 
z
" id="DejaVuSans-108"/>
       <path d="M 34.28125 27.484375 
Q 23.390625 27.484375 19.1875 25 
Q 14.984375 22.515625 14.984375 16.5 
Q 14.984375 11.71875 18.140625 8.90625 
Q 21.296875 6.109375 26.703125 6.109375 
Q 34.1875 6.109375 38.703125 11.40625 
Q 43.21875 16.703125 43.21875 25.484375 
L 43.21875 27.484375 
z
M 52.203125 31.203125 
L 52.203125 0 
L 43.21875 0 
L 43.21875 8.296875 
Q 40.140625 3.328125 35.546875 0.953125 
Q 30.953125 -1.421875 24.3125 -1.421875 
Q 15.921875 -1.421875 10.953125 3.296875 
Q 6 8.015625 6 15.921875 
Q 6 25.140625 12.171875 29.828125 
Q 18.359375 34.515625 30.609375 34.515625 
L 43.21875 34.515625 
L 43.21875 35.40625 
Q 43.21875 41.609375 39.140625 45 
Q 35.0625 48.390625 27.6875 48.390625 
Q 23 48.390625 18.546875 47.265625 
Q 14.109375 46.140625 10.015625 43.890625 
L 10.015625 52.203125 
Q 14.9375 54.109375 19.578125 55.046875 
Q 24.21875 56 28.609375 56 
Q 40.484375 56 46.34375 49.84375 
Q 52.203125 43.703125 52.203125 31.203125 
z
" id="DejaVuSans-97"/>
       <path d="M 18.3125 70.21875 
L 18.3125 54.6875 
L 36.8125 54.6875 
L 36.8125 47.703125 
L 18.3125 47.703125 
L 18.3125 18.015625 
Q 18.3125 11.328125 20.140625 9.421875 
Q 21.96875 7.515625 27.59375 7.515625 
L 36.8125 7.515625 
L 36.8125 0 
L 27.59375 0 
Q 17.1875 0 13.234375 3.875 
Q 9.28125 7.765625 9.28125 18.015625 
L 9.28125 47.703125 
L 2.6875 47.703125 
L 2.6875 54.6875 
L 9.28125 54.6875 
L 9.28125 70.21875 
z
" id="DejaVuSans-116"/>
       <path d="M 54.890625 33.015625 
L 54.890625 0 
L 45.90625 0 
L 45.90625 32.71875 
Q 45.90625 40.484375 42.875 44.328125 
Q 39.84375 48.1875 33.796875 48.1875 
Q 26.515625 48.1875 22.3125 43.546875 
Q 18.109375 38.921875 18.109375 30.90625 
L 18.109375 0 
L 9.078125 0 
L 9.078125 54.6875 
L 18.109375 54.6875 
L 18.109375 46.1875 
Q 21.34375 51.125 25.703125 53.5625 
Q 30.078125 56 35.796875 56 
Q 45.21875 56 50.046875 50.171875 
Q 54.890625 44.34375 54.890625 33.015625 
z
" id="DejaVuSans-110"/>
      </defs>
      <use xlink:href="#DejaVuSans-70"/>
      <use x="57.519531" xlink:href="#DejaVuSans-61"/>
      <use x="141.308594" xlink:href="#DejaVuSans-49"/>
      <use x="204.931641" xlink:href="#DejaVuSans-32"/>
      <use x="236.71875" xlink:href="#DejaVuSans-112"/>
      <use x="300.195312" xlink:href="#DejaVuSans-111"/>
      <use x="361.376953" xlink:href="#DejaVuSans-112"/>
      <use x="424.853516" xlink:href="#DejaVuSans-117"/>
      <use x="488.232422" xlink:href="#DejaVuSans-108"/>
      <use x="516.015625" xlink:href="#DejaVuSans-97"/>
      <use x="577.294922" xlink:href="#DejaVuSans-116"/>
      <use x="616.503906" xlink:href="#DejaVuSans-105"/>
      <use x="644.287109" xlink:href="#DejaVuSans-111"/>
      <use x="705.46875" xlink:href="#DejaVuSans-110"/>
     </g>
    </g>
   </g>
   <g id="LineCollection_1">
    <path clip-path="url(#p304c686b55)" d="M 61.410938 279.010828 
L 61.410938 277.828108 
" style="fill:none;stroke:#1f77b4;stroke-width:1.5;"/>
    <path clip-path="url(#p304c686b55)" d="M 70.182306 220.133296 
L 70.182306 205.379915 
" style="fill:none;stroke:#1f77b4;stroke-width:1.5;"/>
    <path clip-path="url(#p304c686b55)" d="M 78.953674 123.345403 
L 78.953674 105.949665 
" style="fill:none;stroke:#1f77b4;stroke-width:1.5;"/>
    <path clip-path="url(#p304c686b55)" d="M 87.725043 65.616799 
L 87.725043 52.596322 
" style="fill:none;stroke:#1f77b4;stroke-width:1.5;"/>
    <path clip-path="url(#p304c686b55)" d="M 96.496411 120.11301 
L 96.496411 103.269951 
" style="fill:none;stroke:#1f77b4;stroke-width:1.5;"/>
    <path clip-path="url(#p304c686b55)" d="M 105.26778 221.604747 
L 105.26778 206.743689 
" style="fill:none;stroke:#1f77b4;stroke-width:1.5;"/>
    <path clip-path="url(#p304c686b55)" d="M 114.039148 272.325449 
L 114.039148 265.678933 
" style="fill:none;stroke:#1f77b4;stroke-width:1.5;"/>
    <path clip-path="url(#p304c686b55)" d="M 122.810516 229.392238 
L 122.810516 214.402098 
" style="fill:none;stroke:#1f77b4;stroke-width:1.5;"/>
    <path clip-path="url(#p304c686b55)" d="M 131.581885 121.569266 
L 131.581885 104.921191 
" style="fill:none;stroke:#1f77b4;stroke-width:1.5;"/>
    <path clip-path="url(#p304c686b55)" d="M 140.353253 63.193491 
L 140.353253 50.584051 
" style="fill:none;stroke:#1f77b4;stroke-width:1.5;"/>
    <path clip-path="url(#p304c686b55)" d="M 149.124622 95.621413 
L 149.124622 79.717058 
" style="fill:none;stroke:#1f77b4;stroke-width:1.5;"/>
    <path clip-path="url(#p304c686b55)" d="M 157.89599 203.400885 
L 157.89599 186.614577 
" style="fill:none;stroke:#1f77b4;stroke-width:1.5;"/>
    <path clip-path="url(#p304c686b55)" d="M 166.667359 267.92228 
L 166.667359 260.036514 
" style="fill:none;stroke:#1f77b4;stroke-width:1.5;"/>
    <path clip-path="url(#p304c686b55)" d="M 175.438727 234.721184 
L 175.438727 221.122447 
" style="fill:none;stroke:#1f77b4;stroke-width:1.5;"/>
    <path clip-path="url(#p304c686b55)" d="M 184.210095 140.919712 
L 184.210095 123.579266 
" style="fill:none;stroke:#1f77b4;stroke-width:1.5;"/>
    <path clip-path="url(#p304c686b55)" d="M 192.981464 60.289696 
L 192.981464 47.479961 
" style="fill:none;stroke:#1f77b4;stroke-width:1.5;"/>
    <path clip-path="url(#p304c686b55)" d="M 201.752832 102.511098 
L 201.752832 86.236197 
" style="fill:none;stroke:#1f77b4;stroke-width:1.5;"/>
    <path clip-path="url(#p304c686b55)" d="M 210.524201 185.761045 
L 210.524201 168.555407 
" style="fill:none;stroke:#1f77b4;stroke-width:1.5;"/>
    <path clip-path="url(#p304c686b55)" d="M 219.295569 262.74553 
L 219.295569 253.131692 
" style="fill:none;stroke:#1f77b4;stroke-width:1.5;"/>
    <path clip-path="url(#p304c686b55)" d="M 228.066938 236.260039 
L 228.066938 222.553197 
" style="fill:none;stroke:#1f77b4;stroke-width:1.5;"/>
    <path clip-path="url(#p304c686b55)" d="M 236.838306 163.92286 
L 236.838306 145.643517 
" style="fill:none;stroke:#1f77b4;stroke-width:1.5;"/>
    <path clip-path="url(#p304c686b55)" d="M 245.609674 85.908754 
L 245.609674 70.547496 
" style="fill:none;stroke:#1f77b4;stroke-width:1.5;"/>
    <path clip-path="url(#p304c686b55)" d="M 254.381043 86.391087 
L 254.381043 71.315534 
" style="fill:none;stroke:#1f77b4;stroke-width:1.5;"/>
    <path clip-path="url(#p304c686b55)" d="M 263.152411 155.057737 
L 263.152411 137.951556 
" style="fill:none;stroke:#1f77b4;stroke-width:1.5;"/>
    <path clip-path="url(#p304c686b55)" d="M 271.92378 234.152953 
L 271.92378 220.049223 
" style="fill:none;stroke:#1f77b4;stroke-width:1.5;"/>
    <path clip-path="url(#p304c686b55)" d="M 280.695148 243.796886 
L 280.695148 230.991501 
" style="fill:none;stroke:#1f77b4;stroke-width:1.5;"/>
    <path clip-path="url(#p304c686b55)" d="M 289.466516 182.004788 
L 289.466516 164.76129 
" style="fill:none;stroke:#1f77b4;stroke-width:1.5;"/>
    <path clip-path="url(#p304c686b55)" d="M 298.237885 99.467222 
L 298.237885 83.081338 
" style="fill:none;stroke:#1f77b4;stroke-width:1.5;"/>
    <path clip-path="url(#p304c686b55)" d="M 307.009253 70.090828 
L 307.009253 56.366585 
" style="fill:none;stroke:#1f77b4;stroke-width:1.5;"/>
    <path clip-path="url(#p304c686b55)" d="M 315.780622 149.559242 
L 315.780622 132.534808 
" style="fill:none;stroke:#1f77b4;stroke-width:1.5;"/>
    <path clip-path="url(#p304c686b55)" d="M 324.55199 212.10466 
L 324.55199 196.579882 
" style="fill:none;stroke:#1f77b4;stroke-width:1.5;"/>
    <path clip-path="url(#p304c686b55)" d="M 333.323359 239.246923 
L 333.323359 225.635533 
" style="fill:none;stroke:#1f77b4;stroke-width:1.5;"/>
    <path clip-path="url(#p304c686b55)" d="M 342.094727 188.409026 
L 342.094727 171.21663 
" style="fill:none;stroke:#1f77b4;stroke-width:1.5;"/>
    <path clip-path="url(#p304c686b55)" d="M 350.866095 121.591074 
L 350.866095 104.097163 
" style="fill:none;stroke:#1f77b4;stroke-width:1.5;"/>
    <path clip-path="url(#p304c686b55)" d="M 359.637464 92.521172 
L 359.637464 77.328848 
" style="fill:none;stroke:#1f77b4;stroke-width:1.5;"/>
    <path clip-path="url(#p304c686b55)" d="M 368.408832 118.318229 
L 368.408832 100.903427 
" style="fill:none;stroke:#1f77b4;stroke-width:1.5;"/>
    <path clip-path="url(#p304c686b55)" d="M 377.180201 193.462999 
L 377.180201 176.506177 
" style="fill:none;stroke:#1f77b4;stroke-width:1.5;"/>
    <path clip-path="url(#p304c686b55)" d="M 385.951569 235.283694 
L 385.951569 221.305137 
" style="fill:none;stroke:#1f77b4;stroke-width:1.5;"/>
    <path clip-path="url(#p304c686b55)" d="M 394.722938 203.778178 
L 394.722938 186.644094 
" style="fill:none;stroke:#1f77b4;stroke-width:1.5;"/>
    <path clip-path="url(#p304c686b55)" d="M 403.494306 158.028777 
L 403.494306 140.675228 
" style="fill:none;stroke:#1f77b4;stroke-width:1.5;"/>
    <path clip-path="url(#p304c686b55)" d="M 412.265674 92.649874 
L 412.265674 76.627524 
" style="fill:none;stroke:#1f77b4;stroke-width:1.5;"/>
   </g>
   <g id="LineCollection_2">
    <path clip-path="url(#p304c686b55)" d="M 61.410938 274.780846 
L 61.410938 267.789145 
" style="fill:none;stroke:#d62728;stroke-width:1.5;"/>
    <path clip-path="url(#p304c686b55)" d="M 70.182306 269.128867 
L 70.182306 260.164789 
" style="fill:none;stroke:#d62728;stroke-width:1.5;"/>
    <path clip-path="url(#p304c686b55)" d="M 78.953674 249.233364 
L 78.953674 235.532742 
" style="fill:none;stroke:#d62728;stroke-width:1.5;"/>
    <path clip-path="url(#p304c686b55)" d="M 87.725043 228.372129 
L 87.725043 210.819641 
" style="fill:none;stroke:#d62728;stroke-width:1.5;"/>
    <path clip-path="url(#p304c686b55)" d="M 96.496411 214.585949 
L 96.496411 196.455242 
" style="fill:none;stroke:#d62728;stroke-width:1.5;"/>
    <path clip-path="url(#p304c686b55)" d="M 105.26778 218.989454 
L 105.26778 201.440202 
" style="fill:none;stroke:#d62728;stroke-width:1.5;"/>
    <path clip-path="url(#p304c686b55)" d="M 114.039148 234.109032 
L 114.039148 217.128828 
" style="fill:none;stroke:#d62728;stroke-width:1.5;"/>
    <path clip-path="url(#p304c686b55)" d="M 122.810516 220.170157 
L 122.810516 202.461184 
" style="fill:none;stroke:#d62728;stroke-width:1.5;"/>
    <path clip-path="url(#p304c686b55)" d="M 131.581885 238.872267 
L 131.581885 222.535479 
" style="fill:none;stroke:#d62728;stroke-width:1.5;"/>
    <path clip-path="url(#p304c686b55)" d="M 140.353253 230.579366 
L 140.353253 213.394291 
" style="fill:none;stroke:#d62728;stroke-width:1.5;"/>
    <path clip-path="url(#p304c686b55)" d="M 149.124622 228.614995 
L 149.124622 210.543301 
" style="fill:none;stroke:#d62728;stroke-width:1.5;"/>
    <path clip-path="url(#p304c686b55)" d="M 157.89599 238.342716 
L 157.89599 221.818399 
" style="fill:none;stroke:#d62728;stroke-width:1.5;"/>
    <path clip-path="url(#p304c686b55)" d="M 166.667359 242.896573 
L 166.667359 226.997083 
" style="fill:none;stroke:#d62728;stroke-width:1.5;"/>
    <path clip-path="url(#p304c686b55)" d="M 175.438727 247.146267 
L 175.438727 232.213352 
" style="fill:none;stroke:#d62728;stroke-width:1.5;"/>
    <path clip-path="url(#p304c686b55)" d="M 184.210095 226.214092 
L 184.210095 207.741835 
" style="fill:none;stroke:#d62728;stroke-width:1.5;"/>
    <path clip-path="url(#p304c686b55)" d="M 192.981464 231.58658 
L 192.981464 214.115076 
" style="fill:none;stroke:#d62728;stroke-width:1.5;"/>
   </g>
   <g id="line2d_25">
    <path clip-path="url(#p304c686b55)" d="M 61.410938 278.518987 
L 62.839418 278.518987 
L 63.196538 275.70741 
L 63.553658 276.090351 
L 63.910778 273.108149 
L 64.267898 271.834639 
L 64.625018 270.99646 
L 64.982138 269.602176 
L 65.339258 265.660151 
L 65.696378 265.006117 
L 67.839098 246.553829 
L 71.053178 210.645293 
L 71.410298 204.522229 
L 72.124538 195.655625 
L 72.838778 186.461317 
L 74.267258 166.102225 
L 74.624378 159.374494 
L 75.695738 145.52913 
L 78.195578 109.340186 
L 78.552698 105.558315 
L 79.624058 90.782429 
L 80.695418 79.215564 
L 82.123898 61.94917 
L 82.481018 59.386756 
L 82.838138 55.579716 
L 83.552378 50.444148 
L 83.909498 47.105952 
L 84.266618 45.402831 
L 84.980858 38.729904 
L 85.695098 36.145353 
L 86.052218 34.643651 
L 86.409338 32.190324 
L 86.766458 31.264505 
L 87.480698 27.966882 
L 87.837818 27.966882 
L 88.194938 28.23346 
L 88.552058 26.696269 
L 88.909178 28.116824 
L 89.266298 26.696269 
L 89.623418 27.026295 
L 89.980538 28.452815 
L 90.337658 28.941594 
L 90.694778 29.765578 
L 91.051898 30.959163 
L 93.551738 44.138324 
L 93.908858 47.597538 
L 94.265978 49.731401 
L 94.980218 57.550281 
L 95.694458 62.696788 
L 97.122938 79.026598 
L 97.480058 82.307991 
L 98.551418 96.410514 
L 99.265658 104.751176 
L 99.979898 115.836189 
L 100.337018 120.921122 
L 100.694138 124.412561 
L 101.765498 139.337465 
L 102.836858 155.554033 
L 105.336698 189.853939 
L 105.693818 195.66934 
L 106.408058 204.108007 
L 107.122298 212.580348 
L 107.479418 216.142443 
L 108.193658 225.628202 
L 111.050618 252.708358 
L 111.764858 258.333947 
L 112.121978 259.99847 
L 112.836218 265.21558 
L 113.193338 266.485352 
L 113.907578 269.935354 
L 114.621818 272.194132 
L 114.978938 271.799375 
L 115.336058 273.333567 
L 115.693178 273.580451 
L 116.050298 275.094665 
L 116.407418 275.094665 
L 116.764538 274.784019 
L 117.121658 273.7215 
L 117.478778 273.580451 
L 117.835898 272.156156 
L 118.193018 271.89802 
L 118.550138 269.616644 
L 118.907258 268.759813 
L 119.978618 263.583973 
L 121.407098 254.409942 
L 122.121338 247.415796 
L 122.835578 242.17004 
L 124.978298 219.741005 
L 125.692538 210.21888 
L 127.121018 191.580663 
L 128.906618 169.522833 
L 129.263738 162.450209 
L 132.120698 124.242301 
L 132.477818 118.123502 
L 133.192058 110.792583 
L 133.906298 99.53163 
L 134.263418 97.461929 
L 134.977658 88.037981 
L 136.406138 73.976352 
L 137.120378 66.446756 
L 137.834618 59.160803 
L 138.191738 57.49198 
L 138.905978 52.114862 
L 139.977338 44.752604 
L 140.334458 44.138324 
L 141.405818 38.109781 
L 141.762938 37.004428 
L 142.120058 37.1955 
L 142.834298 35.584869 
L 143.191418 34.438075 
L 143.548538 34.612794 
L 143.905658 36.145353 
L 144.262778 35.556657 
L 144.977018 36.930371 
L 145.334138 37.628825 
L 145.691258 38.729904 
L 146.048378 40.474991 
L 146.405498 40.634272 
L 146.762618 43.647067 
L 147.119738 44.796819 
L 147.476858 47.028096 
L 147.833978 48.472641 
L 148.191098 51.906394 
L 148.548218 53.557746 
L 148.905338 56.934122 
L 149.262458 59.080736 
L 150.333818 68.872221 
L 151.405178 79.935949 
L 151.762298 82.733126 
L 152.119418 88.010702 
L 152.476538 91.456288 
L 153.547898 105.712759 
L 154.262138 112.982212 
L 154.619258 118.59733 
L 154.976378 121.977699 
L 155.690618 132.363698 
L 156.047738 135.651277 
L 156.404858 142.1189 
L 157.119098 150.963123 
L 159.618938 184.458 
L 161.047418 201.151371 
L 161.761658 210.701576 
L 163.190138 226.578203 
L 163.547258 230.73126 
L 163.904378 232.595028 
L 164.261498 235.225897 
L 164.618618 239.622022 
L 166.761338 254.817577 
L 167.118458 256.780115 
L 167.475578 257.832812 
L 167.832698 260.462653 
L 168.189818 261.046549 
L 168.904058 264.336171 
L 169.261178 264.506459 
L 169.975418 267.062813 
L 170.332538 266.909211 
L 170.689658 266.204905 
L 171.046778 266.721479 
L 171.403898 266.081475 
L 171.761018 266.310631 
L 172.118138 264.636877 
L 172.475258 265.21558 
L 173.546618 260.630485 
L 173.903738 258.686487 
L 174.260858 257.747649 
L 174.617978 254.829195 
L 174.975098 253.835669 
L 175.332218 252.131102 
L 175.689338 247.581916 
L 176.403578 242.493985 
L 177.117818 236.777194 
L 177.474938 233.207928 
L 177.832058 231.133571 
L 179.260538 215.775685 
L 179.974778 207.828139 
L 180.331898 204.979498 
L 182.474618 176.730456 
L 183.188858 168.448748 
L 183.903098 158.771466 
L 186.045818 130.761602 
L 186.402938 126.70874 
L 187.117178 115.651031 
L 187.474298 112.842498 
L 188.545658 99.663623 
L 191.402618 70.645308 
L 192.116858 65.623855 
L 192.473978 61.982363 
L 192.831098 60.53049 
L 193.545338 53.776032 
L 194.616698 48.52264 
L 194.973818 45.622318 
L 195.330938 44.899987 
L 195.688058 44.944543 
L 196.045178 42.430565 
L 196.402298 41.204765 
L 196.759418 41.642247 
L 197.116538 41.571714 
L 197.473658 42.012277 
L 197.830778 41.061135 
L 198.187898 41.642247 
L 198.545018 42.620962 
L 198.902138 41.891141 
L 199.616378 43.406674 
L 201.044858 48.315018 
L 201.759098 52.796703 
L 202.473338 56.422508 
L 203.187578 61.824696 
L 204.973178 76.652399 
L 205.330298 81.418793 
L 205.687418 83.792478 
L 207.115898 99.007188 
L 207.473018 104.125309 
L 208.187258 111.966514 
L 208.901498 121.307911 
L 209.258618 124.67343 
L 212.115578 162.42989 
L 212.472698 165.987968 
L 213.186938 176.14883 
L 213.544058 179.266138 
L 213.901178 183.529516 
L 214.615418 193.555366 
L 214.972538 196.535617 
L 215.686778 205.390308 
L 217.115258 220.614791 
L 218.543738 233.609912 
L 218.900858 237.962921 
L 219.972218 244.81357 
L 220.329338 248.11185 
L 221.043578 252.290373 
L 223.186298 261.460185 
L 223.543418 261.60482 
L 223.900538 262.313012 
L 224.257658 263.902769 
L 224.614778 263.134879 
L 224.971898 263.661175 
L 225.329018 262.851637 
L 225.686138 262.767954 
L 226.043258 262.396802 
L 226.757498 260.140019 
L 227.114618 259.607045 
L 228.185978 255.164384 
L 230.328698 242.01625 
L 232.471418 223.15268 
L 233.542778 212.116425 
L 235.685498 187.537444 
L 237.471098 165.180006 
L 242.113658 107.546854 
L 242.827898 100.303862 
L 243.899258 87.646352 
L 244.256378 84.782074 
L 244.970618 77.395083 
L 246.041978 68.992389 
L 246.756218 62.972368 
L 247.113338 61.344796 
L 248.184698 53.526562 
L 248.541818 52.967355 
L 248.898938 50.362827 
L 249.613178 47.428628 
L 249.970298 46.331016 
L 250.327418 45.622318 
L 250.684538 45.545942 
L 251.041658 44.10794 
L 251.398778 43.832216 
L 251.755898 42.934621 
L 252.113018 42.497512 
L 252.827258 43.847646 
L 253.184378 44.001937 
L 253.898618 45.905163 
L 254.255738 47.768572 
L 254.612858 47.845518 
L 254.969978 48.811475 
L 255.327098 51.629307 
L 255.684218 52.871792 
L 256.398458 57.112811 
L 257.112698 61.624438 
L 257.826938 66.933069 
L 258.184058 69.593921 
L 258.541178 73.227393 
L 258.898298 75.653168 
L 259.255418 79.887778 
L 259.612538 82.587906 
L 259.969658 87.404962 
L 260.326778 89.267076 
L 261.755258 105.291953 
L 264.255098 134.96825 
L 264.969338 144.537574 
L 270.326138 209.041542 
L 272.111738 227.139258 
L 273.183098 236.5809 
L 274.254458 243.34077 
L 274.611578 246.817761 
L 276.040058 254.227334 
L 276.397178 255.01156 
L 277.111418 258.605325 
L 277.468538 258.740595 
L 277.825658 259.926914 
L 278.182778 260.630485 
L 278.539898 259.669314 
L 278.897018 261.475615 
L 279.254138 260.899794 
L 279.611258 260.955398 
L 279.968378 260.110976 
L 280.325498 259.941226 
L 280.682618 258.856811 
L 281.039738 258.747092 
L 281.396858 255.963594 
L 281.753978 255.305395 
L 282.111098 253.992768 
L 282.468218 252.067393 
L 282.825338 250.857319 
L 283.182458 250.570234 
L 283.896698 244.367745 
L 284.253818 241.505969 
L 284.968058 238.362659 
L 286.039418 228.001423 
L 286.753658 221.612241 
L 288.539258 203.326909 
L 291.039098 174.162704 
L 292.467578 155.938448 
L 293.181818 147.556761 
L 294.253178 133.245844 
L 294.610298 130.199097 
L 294.967418 124.737004 
L 295.681658 117.625378 
L 296.038778 111.777129 
L 297.467258 96.931371 
L 297.824378 92.526595 
L 298.895738 83.62598 
L 299.252858 79.002215 
L 299.609978 75.8502 
L 299.967098 74.009268 
L 300.681338 67.296884 
L 301.038458 65.30691 
L 301.752698 60.521903 
L 302.824058 54.12659 
L 303.538298 51.192229 
L 303.895418 51.112777 
L 304.252538 49.295757 
L 304.609658 48.087139 
L 304.966778 48.836162 
L 305.323898 47.079619 
L 306.038138 47.237615 
L 306.395258 46.745202 
L 306.752378 46.45445 
L 307.109498 45.946888 
L 307.466618 47.415635 
L 307.823738 48.239059 
L 308.180858 50.039117 
L 308.537978 50.455766 
L 309.609338 54.44956 
L 310.323578 57.541052 
L 310.680698 60.796434 
L 311.037818 62.342552 
L 311.752058 67.814602 
L 312.823418 76.323232 
L 313.537658 82.541435 
L 313.894778 84.97214 
L 317.465978 123.616596 
L 317.823098 129.744926 
L 318.537338 137.340165 
L 321.394298 171.98594 
L 322.108538 180.338391 
L 323.179898 193.194633 
L 324.251258 205.228982 
L 324.608378 207.583756 
L 325.322618 215.378537 
L 326.036858 222.441468 
L 328.179578 240.292486 
L 329.250938 246.179001 
L 329.608058 248.469916 
L 329.965178 249.226472 
L 330.322298 251.511986 
L 330.679418 252.237283 
L 331.750778 256.073313 
L 332.107898 255.787032 
L 332.822138 257.128117 
L 333.179258 257.102797 
L 333.536378 258.456527 
L 334.250618 255.907457 
L 334.964858 255.555239 
L 335.321978 253.24303 
L 335.679098 253.641426 
L 336.750458 248.949981 
L 337.107578 247.260305 
L 337.464698 244.779222 
L 337.821818 243.971741 
L 338.536058 238.325254 
L 338.893178 234.84307 
L 339.250298 232.912906 
L 340.321658 223.814202 
L 341.035898 216.997233 
L 341.750138 210.249422 
L 342.821498 199.876279 
L 343.178618 194.748823 
L 343.535738 191.656626 
L 346.392698 156.513146 
L 346.749818 153.913559 
L 347.464058 143.313664 
L 348.178298 135.684194 
L 348.892538 127.503899 
L 350.321018 110.810702 
L 350.678138 107.814496 
L 351.035258 102.779106 
L 351.392378 99.981385 
L 352.820858 84.161704 
L 353.177978 82.337207 
L 353.535098 78.31053 
L 353.892218 75.831087 
L 354.249338 74.359741 
L 354.606458 69.359479 
L 354.963578 68.365452 
L 355.320698 66.777787 
L 355.677818 62.811043 
L 356.034938 61.083153 
L 356.392058 58.542448 
L 356.749178 57.679485 
L 357.106298 55.221717 
L 357.820538 53.756283 
L 358.534778 49.596818 
L 358.891898 50.490618 
L 359.249018 50.027361 
L 359.963258 48.188419 
L 360.320378 48.774444 
L 360.677498 48.836162 
L 361.034618 48.774444 
L 361.391738 49.82658 
L 361.748858 51.596021 
L 362.105978 51.48058 
L 362.463098 53.197407 
L 362.820218 52.678635 
L 363.177338 56.153365 
L 363.534458 55.785035 
L 363.891578 58.742221 
L 364.248698 60.199245 
L 364.605818 62.745754 
L 364.962938 63.796887 
L 365.677178 69.458939 
L 366.391418 74.091612 
L 368.891258 97.689414 
L 369.962618 109.664783 
L 370.319738 112.371188 
L 371.033978 121.36802 
L 371.391098 125.03368 
L 371.748218 130.765769 
L 373.176698 146.553064 
L 377.105018 194.422674 
L 377.462138 196.880096 
L 378.176378 206.471127 
L 378.533498 208.278873 
L 378.890618 211.909618 
L 379.247738 216.822505 
L 379.961978 222.936481 
L 380.319098 226.929414 
L 381.033338 231.62744 
L 381.390458 235.770526 
L 381.747578 237.247044 
L 382.818938 244.710527 
L 383.533178 247.572687 
L 383.890298 250.368746 
L 384.604538 252.994459 
L 384.961658 255.223162 
L 385.318778 254.794343 
L 385.675898 255.847245 
L 386.033018 257.254319 
L 386.390138 257.721663 
L 387.104378 256.963538 
L 387.461498 256.655118 
L 387.818618 256.892612 
L 388.175738 257.845978 
L 388.532858 255.630481 
L 389.247098 254.666551 
L 389.604218 253.641426 
L 389.961338 251.965323 
L 390.318458 251.010023 
L 391.032698 246.944594 
L 391.389818 245.722698 
L 393.889658 227.415467 
L 394.246778 223.076718 
L 394.961018 216.757395 
L 398.175098 181.730612 
L 398.532218 176.830881 
L 398.889338 174.175152 
L 400.317818 155.529849 
L 401.389178 143.496536 
L 401.746298 137.635189 
L 402.103418 134.75429 
L 404.960378 101.233108 
L 405.317498 97.97723 
L 405.674618 93.217745 
L 406.031738 90.548825 
L 407.460218 75.800651 
L 407.817338 74.071993 
L 408.174458 69.135504 
L 408.531578 67.222636 
L 409.245818 61.370117 
L 409.602938 59.965365 
L 409.960058 58.073816 
L 410.674298 53.009828 
L 411.031418 52.125834 
L 411.388538 50.200183 
L 411.745658 49.838477 
L 412.102778 47.68849 
L 412.459898 46.894654 
L 412.817018 47.092786 
L 413.174138 45.060716 
L 413.531258 45.763385 
L 413.888378 45.503009 
L 414.245498 45.779991 
L 414.959738 45.331275 
L 415.673978 47.623524 
L 416.031098 47.329779 
L 416.388218 47.871166 
L 416.745338 50.223418 
L 417.102458 50.701973 
L 417.816698 55.261216 
L 418.530938 58.876879 
L 418.530938 58.876879 
" style="fill:none;stroke:#1f77b4;stroke-linecap:square;stroke-width:1.5;"/>
   </g>
   <g id="line2d_26">
    <path clip-path="url(#p304c686b55)" d="M 61.410938 271.333963 
L 63.816799 271.333963 
L 64.117531 270.592201 
L 64.418264 271.333963 
L 64.718996 269.790028 
L 65.019729 270.962563 
L 65.320462 271.333963 
L 65.621194 271.333963 
L 65.921927 269.46774 
L 66.22266 269.577417 
L 66.523392 268.82306 
L 66.824125 269.308599 
L 67.124858 268.238731 
L 67.726323 268.750208 
L 68.027055 268.598327 
L 68.327788 266.765727 
L 68.628521 266.811248 
L 68.929253 266.193423 
L 69.229986 266.583492 
L 69.530719 264.749565 
L 69.831451 265.966053 
L 70.132184 264.614351 
L 71.034382 262.376764 
L 71.635847 262.184766 
L 71.93658 260.309553 
L 72.237312 260.482078 
L 72.538045 260.332517 
L 72.838778 259.167626 
L 73.13951 259.472057 
L 73.740975 257.39596 
L 74.342441 256.511418 
L 74.643173 256.173739 
L 74.943906 256.423252 
L 75.244639 254.325752 
L 75.545371 254.198016 
L 75.846104 253.445461 
L 76.146836 253.35132 
L 76.447569 252.238633 
L 77.049034 251.255677 
L 77.349767 249.879793 
L 77.6505 249.816493 
L 77.951232 248.286933 
L 78.251965 248.481584 
L 78.85343 247.504762 
L 79.154163 246.367639 
L 79.454895 246.751637 
L 80.056361 244.622722 
L 80.357093 244.171086 
L 80.657826 244.191659 
L 80.958559 242.749266 
L 81.259291 243.334828 
L 81.560024 241.189941 
L 81.860756 241.64991 
L 82.161489 240.258459 
L 82.462222 239.632737 
L 83.063687 238.824948 
L 83.665152 236.99772 
L 83.965885 237.242311 
L 84.266618 236.913319 
L 84.56735 236.837358 
L 85.469548 233.957379 
L 85.770281 233.529048 
L 86.071013 233.894179 
L 86.371746 232.777326 
L 86.672479 233.154115 
L 87.273944 231.237483 
L 87.574676 230.502035 
L 87.875409 230.933818 
L 88.176142 231.110306 
L 88.476874 229.628475 
L 88.777607 230.193686 
L 89.07834 229.780957 
L 89.379072 228.787391 
L 89.679805 228.528668 
L 89.980538 227.977391 
L 90.28127 228.17489 
L 90.582003 227.854145 
L 90.882735 226.493464 
L 91.183468 226.873927 
L 91.484201 226.091008 
L 91.784933 226.3498 
L 92.687131 224.767164 
L 92.987864 224.989664 
L 93.288596 223.164009 
L 93.589329 225.572318 
L 93.890062 224.753909 
L 94.491527 223.988047 
L 94.79226 222.796117 
L 95.092992 222.860659 
L 95.694458 224.020964 
L 95.99519 222.841297 
L 96.295923 222.441188 
L 96.596655 221.202255 
L 96.897388 221.795622 
L 97.198121 221.70067 
L 97.799586 222.211887 
L 98.100319 221.233704 
L 98.401051 221.810516 
L 98.701784 221.095328 
L 99.002516 222.071726 
L 99.303249 220.722649 
L 99.603982 221.396824 
L 99.904714 221.189675 
L 100.205447 220.416764 
L 100.50618 221.296602 
L 100.806912 220.878899 
L 101.107645 221.151936 
L 101.408378 220.803899 
L 101.70911 220.083843 
L 102.009843 218.985347 
L 102.310575 219.911031 
L 102.611308 219.867828 
L 102.912041 219.417713 
L 103.212773 220.398132 
L 103.513506 219.571052 
L 103.814239 220.255286 
L 104.114971 220.255286 
L 104.415704 219.571052 
L 104.716436 219.41158 
L 105.317902 219.583319 
L 105.618634 219.380912 
L 105.919367 219.472915 
L 106.520832 220.635149 
L 106.821565 220.47266 
L 107.122298 220.149704 
L 107.42303 219.503583 
L 107.723763 220.255286 
L 108.024495 219.657984 
L 108.325228 220.342236 
L 108.625961 220.162126 
L 108.926693 220.928899 
L 109.227426 219.233707 
L 109.528159 220.29255 
L 109.828891 219.082878 
L 110.129624 220.003609 
L 110.430356 219.472915 
L 110.731089 219.695015 
L 111.031822 220.560149 
L 111.332554 219.227573 
L 111.633287 219.74439 
L 111.93402 218.406829 
L 112.234752 220.860149 
L 112.535485 218.190625 
L 112.836218 220.304972 
L 113.13695 219.23984 
L 113.437683 219.97275 
L 113.738415 220.143493 
L 114.039148 219.215306 
L 114.339881 219.886343 
L 114.640613 219.849312 
L 114.941346 220.385711 
L 115.242079 220.385711 
L 115.542811 219.756734 
L 115.843544 220.273918 
L 116.144276 220.180758 
L 116.445009 220.585149 
L 116.745742 222.607909 
L 117.046474 219.985093 
L 117.347207 220.028296 
L 117.64794 219.74439 
L 117.948672 220.616399 
L 118.249405 220.180758 
L 118.550138 220.034468 
L 119.151603 220.785149 
L 119.452335 219.917203 
L 119.753068 221.808282 
L 120.053801 220.367078 
L 120.354533 220.280129 
L 120.655266 220.822649 
L 121.256731 221.107908 
L 121.557464 220.015953 
L 121.858196 220.280129 
L 122.158929 219.756734 
L 122.459662 220.710149 
L 122.760394 220.797649 
L 123.061127 220.162126 
L 123.36186 220.304972 
L 123.662592 220.741399 
L 123.963325 221.567737 
L 124.264058 220.972649 
L 124.56479 221.076459 
L 125.166255 220.597649 
L 125.466988 220.982112 
L 125.767721 219.855484 
L 126.068453 220.728899 
L 126.369186 219.245974 
L 126.970651 220.822649 
L 127.271384 221.309182 
L 127.572116 220.753899 
L 127.872849 220.666399 
L 128.173582 220.068965 
L 128.474314 220.454028 
L 128.775047 219.282775 
L 129.07578 220.710149 
L 129.376512 220.298761 
L 129.677245 220.186968 
L 129.977978 219.503583 
L 130.27871 220.672649 
L 130.579443 220.841399 
L 130.880175 219.577185 
L 131.180908 219.880171 
L 131.481641 219.62012 
L 131.782373 220.052984 
L 132.083106 220.04064 
L 132.383839 220.29255 
L 132.684571 219.886343 
L 132.985304 219.781421 
L 133.286036 220.647649 
L 133.586769 220.174547 
L 133.887502 220.118651 
L 134.188234 220.641399 
L 134.488967 220.273918 
L 134.7897 220.280129 
L 135.090432 219.288909 
L 135.391165 220.102359 
L 135.691898 220.410553 
L 135.99263 220.938083 
L 136.293363 219.676499 
L 136.594095 220.510149 
L 136.894828 219.793765 
L 137.195561 220.273918 
L 137.496293 219.923374 
L 137.797026 220.460239 
L 138.097759 219.74439 
L 138.699224 219.651812 
L 138.999956 219.923374 
L 139.300689 219.873999 
L 139.601422 219.368645 
L 140.202887 219.707359 
L 140.50362 220.722649 
L 141.105085 219.64564 
L 141.405818 219.362511 
L 141.70655 220.778899 
L 142.007283 219.682671 
L 142.308015 219.707359 
L 142.608748 219.393179 
L 142.909481 220.348446 
L 143.210213 220.242865 
L 143.510946 220.735149 
L 143.811679 220.267707 
L 144.112411 220.891399 
L 144.413144 220.354657 
L 144.713876 219.564918 
L 145.014609 220.735149 
L 145.315342 220.547649 
L 145.616074 220.950663 
L 145.916807 220.785149 
L 146.21754 220.485082 
L 146.518272 219.552651 
L 146.819005 221.01985 
L 147.119738 221.789292 
L 147.42047 221.637369 
L 147.721203 220.261497 
L 148.021935 220.286339 
L 148.322668 220.541399 
L 148.623401 221.542417 
L 148.924133 220.610149 
L 149.224866 220.635149 
L 149.525599 221.827273 
L 149.826331 221.605718 
L 150.127064 220.697649 
L 150.427796 221.810516 
L 150.728529 220.522346 
L 151.029262 221.315472 
L 151.329994 221.669019 
L 151.630727 220.741399 
L 151.93146 220.897649 
L 152.232192 223.168709 
L 152.532925 222.268055 
L 152.833658 221.738651 
L 153.13439 222.268055 
L 153.435123 221.453795 
L 153.735855 222.122694 
L 154.036588 222.09721 
L 154.638053 222.396302 
L 154.938786 221.957048 
L 155.239519 222.28088 
L 155.540251 221.68168 
L 155.840984 222.014387 
L 156.141716 222.652795 
L 156.442449 222.530961 
L 156.743182 222.180032 
L 157.043914 224.146047 
L 157.344647 223.129729 
L 157.64538 223.214186 
L 157.946112 222.789663 
L 158.246845 223.02847 
L 158.547578 222.776754 
L 159.149043 223.69665 
L 159.449775 223.624713 
L 159.750508 223.435074 
L 160.051241 223.820905 
L 160.351973 223.69665 
L 160.652706 223.755508 
L 160.953439 224.277714 
L 161.554904 224.03413 
L 161.855636 223.925541 
L 162.156369 223.526617 
L 162.457102 224.435788 
L 162.757834 224.594848 
L 163.058567 225.255497 
L 163.3593 223.853604 
L 163.660032 225.775228 
L 163.960765 225.721119 
L 164.261498 224.687633 
L 164.56223 224.304047 
L 164.862963 224.742789 
L 165.163695 225.971375 
L 165.464428 224.816184 
L 165.765161 225.262215 
L 166.065893 224.734026 
L 166.366626 225.646718 
L 166.667359 223.670491 
L 166.968091 225.436874 
L 167.268824 225.863156 
L 167.569556 225.707591 
L 167.870289 226.397458 
L 168.171022 225.403286 
L 168.471754 226.514037 
L 168.772487 226.459176 
L 169.07322 226.016094 
L 169.373952 225.883447 
L 169.975418 226.726624 
L 170.27615 227.770103 
L 170.576883 226.022904 
L 171.178348 227.039661 
L 171.479081 225.890211 
L 171.779813 226.873927 
L 172.080546 227.02585 
L 172.381279 226.261266 
L 172.682011 226.13187 
L 172.982744 225.86992 
L 173.283476 227.136339 
L 173.584209 227.177773 
L 173.884942 226.582613 
L 174.185674 226.596329 
L 174.486407 227.287565 
L 174.78714 226.839399 
L 175.087872 227.046567 
L 175.388605 227.630032 
L 175.689338 227.238886 
L 175.99007 227.987212 
L 176.290803 227.714074 
L 176.591535 226.514037 
L 176.892268 226.452319 
L 177.193001 227.259749 
L 177.493733 226.555183 
L 177.794466 226.853211 
L 178.095199 227.700067 
L 178.395931 227.868152 
L 178.696664 228.486042 
L 179.298129 228.677858 
L 179.598862 227.994216 
L 179.899594 228.005605 
L 180.200327 228.330068 
L 180.50106 226.568898 
L 180.801792 228.557085 
L 181.102525 227.37797 
L 181.403258 227.90317 
L 181.70399 226.818683 
L 182.004723 227.994216 
L 182.305455 227.833134 
L 182.606188 229.722868 
L 183.207653 228.259533 
L 183.508386 228.649441 
L 183.809119 228.808858 
L 184.109851 229.460748 
L 184.410584 228.794547 
L 185.012049 228.535772 
L 185.312782 229.209582 
L 185.613514 228.628128 
L 185.914247 227.679057 
L 186.21498 228.507355 
L 186.515712 228.741796 
L 187.117178 228.062033 
L 187.41791 229.087934 
L 187.718643 228.167837 
L 188.019375 228.358283 
L 188.320108 229.030688 
L 188.620841 228.585502 
L 188.921573 227.454467 
L 189.523039 228.741796 
L 190.124504 229.708346 
L 190.425236 229.116557 
L 190.725969 229.2373 
L 191.327434 228.887572 
L 191.628167 229.359836 
L 191.9289 229.446332 
L 192.229632 228.684962 
L 192.530365 229.988872 
L 192.831098 229.230092 
L 193.13183 230.025446 
L 193.432563 229.158012 
L 193.733295 229.701085 
L 194.034028 228.692066 
L 194.635493 229.730129 
L 194.936226 228.514459 
L 195.537691 229.00922 
L 195.838424 228.851793 
L 196.139156 228.980597 
L 196.439889 228.54998 
L 196.740622 229.613953 
L 197.041354 228.414999 
L 197.342087 229.563126 
L 197.64282 229.555865 
L 197.943552 228.287747 
L 198.244285 229.180959 
L 198.84575 228.585502 
L 199.146483 229.657519 
L 199.447215 229.266132 
L 199.747948 229.27334 
L 200.048681 229.613953 
L 200.349413 229.244508 
L 200.650146 229.130868 
L 200.950879 229.2373 
L 201.251611 228.966286 
L 201.552344 229.424708 
L 201.853076 229.266132 
L 202.153809 229.613953 
L 202.454542 228.887572 
L 202.755274 230.142483 
L 203.056007 228.923351 
L 203.35674 229.338212 
L 203.657472 230.142483 
L 203.958205 229.251716 
L 204.258938 228.901884 
L 204.55967 228.801703 
L 204.860403 228.894728 
L 205.161135 229.518412 
L 205.461868 228.830326 
L 205.762601 230.018131 
L 206.063333 229.467956 
L 206.364066 229.773696 
L 206.664799 229.563126 
L 206.965531 229.780957 
L 207.266264 230.575729 
L 207.867729 229.266132 
L 208.168462 229.395876 
L 208.469194 229.788218 
L 208.769927 228.478937 
L 209.07066 229.628475 
L 209.371392 229.988872 
L 209.672125 229.30938 
L 209.972858 229.287756 
L 210.27359 229.981557 
L 210.574323 229.095089 
L 210.875055 230.164427 
L 211.175788 228.578398 
L 211.476521 230.010817 
L 211.777253 229.860828 
L 211.777253 229.860828 
" style="fill:none;stroke:#d62728;stroke-linecap:square;stroke-width:1.5;"/>
   </g>
   <g id="line2d_27">
    <path clip-path="url(#p304c686b55)" d="M 61.410938 23.543308 
L 418.530938 23.543308 
" style="fill:none;stroke:#99aaaa;stroke-dasharray:9.6,2.4,1.5,2.4;stroke-dashoffset:0;stroke-width:1.5;"/>
   </g>
   <g id="line2d_28">
    <defs>
     <path d="M -3 3 
L 3 3 
L 3 -3 
L -3 -3 
z
" id="m9e0ac68bfd" style="stroke:#1f77b4;stroke-linejoin:miter;"/>
    </defs>
    <g clip-path="url(#p304c686b55)">
     <use style="fill:#1f77b4;stroke:#1f77b4;stroke-linejoin:miter;" x="61.410938" xlink:href="#m9e0ac68bfd" y="278.419468"/>
     <use style="fill:#1f77b4;stroke:#1f77b4;stroke-linejoin:miter;" x="70.182306" xlink:href="#m9e0ac68bfd" y="212.756606"/>
     <use style="fill:#1f77b4;stroke:#1f77b4;stroke-linejoin:miter;" x="78.953674" xlink:href="#m9e0ac68bfd" y="114.647534"/>
     <use style="fill:#1f77b4;stroke:#1f77b4;stroke-linejoin:miter;" x="87.725043" xlink:href="#m9e0ac68bfd" y="59.10656"/>
     <use style="fill:#1f77b4;stroke:#1f77b4;stroke-linejoin:miter;" x="96.496411" xlink:href="#m9e0ac68bfd" y="111.69148"/>
     <use style="fill:#1f77b4;stroke:#1f77b4;stroke-linejoin:miter;" x="105.26778" xlink:href="#m9e0ac68bfd" y="214.174218"/>
     <use style="fill:#1f77b4;stroke:#1f77b4;stroke-linejoin:miter;" x="114.039148" xlink:href="#m9e0ac68bfd" y="269.002191"/>
     <use style="fill:#1f77b4;stroke:#1f77b4;stroke-linejoin:miter;" x="122.810516" xlink:href="#m9e0ac68bfd" y="221.897168"/>
     <use style="fill:#1f77b4;stroke:#1f77b4;stroke-linejoin:miter;" x="131.581885" xlink:href="#m9e0ac68bfd" y="113.245228"/>
     <use style="fill:#1f77b4;stroke:#1f77b4;stroke-linejoin:miter;" x="140.353253" xlink:href="#m9e0ac68bfd" y="56.888771"/>
     <use style="fill:#1f77b4;stroke:#1f77b4;stroke-linejoin:miter;" x="149.124622" xlink:href="#m9e0ac68bfd" y="87.669235"/>
     <use style="fill:#1f77b4;stroke:#1f77b4;stroke-linejoin:miter;" x="157.89599" xlink:href="#m9e0ac68bfd" y="195.007731"/>
     <use style="fill:#1f77b4;stroke:#1f77b4;stroke-linejoin:miter;" x="166.667359" xlink:href="#m9e0ac68bfd" y="263.979397"/>
     <use style="fill:#1f77b4;stroke:#1f77b4;stroke-linejoin:miter;" x="175.438727" xlink:href="#m9e0ac68bfd" y="227.921815"/>
     <use style="fill:#1f77b4;stroke:#1f77b4;stroke-linejoin:miter;" x="184.210095" xlink:href="#m9e0ac68bfd" y="132.249489"/>
     <use style="fill:#1f77b4;stroke:#1f77b4;stroke-linejoin:miter;" x="192.981464" xlink:href="#m9e0ac68bfd" y="53.884828"/>
     <use style="fill:#1f77b4;stroke:#1f77b4;stroke-linejoin:miter;" x="201.752832" xlink:href="#m9e0ac68bfd" y="94.373648"/>
     <use style="fill:#1f77b4;stroke:#1f77b4;stroke-linejoin:miter;" x="210.524201" xlink:href="#m9e0ac68bfd" y="177.158226"/>
     <use style="fill:#1f77b4;stroke:#1f77b4;stroke-linejoin:miter;" x="219.295569" xlink:href="#m9e0ac68bfd" y="257.938611"/>
     <use style="fill:#1f77b4;stroke:#1f77b4;stroke-linejoin:miter;" x="228.066938" xlink:href="#m9e0ac68bfd" y="229.406618"/>
     <use style="fill:#1f77b4;stroke:#1f77b4;stroke-linejoin:miter;" x="236.838306" xlink:href="#m9e0ac68bfd" y="154.783188"/>
     <use style="fill:#1f77b4;stroke:#1f77b4;stroke-linejoin:miter;" x="245.609674" xlink:href="#m9e0ac68bfd" y="78.228125"/>
     <use style="fill:#1f77b4;stroke:#1f77b4;stroke-linejoin:miter;" x="254.381043" xlink:href="#m9e0ac68bfd" y="78.853311"/>
     <use style="fill:#1f77b4;stroke:#1f77b4;stroke-linejoin:miter;" x="263.152411" xlink:href="#m9e0ac68bfd" y="146.504646"/>
     <use style="fill:#1f77b4;stroke:#1f77b4;stroke-linejoin:miter;" x="271.92378" xlink:href="#m9e0ac68bfd" y="227.101088"/>
     <use style="fill:#1f77b4;stroke:#1f77b4;stroke-linejoin:miter;" x="280.695148" xlink:href="#m9e0ac68bfd" y="237.394194"/>
     <use style="fill:#1f77b4;stroke:#1f77b4;stroke-linejoin:miter;" x="289.466516" xlink:href="#m9e0ac68bfd" y="173.383039"/>
     <use style="fill:#1f77b4;stroke:#1f77b4;stroke-linejoin:miter;" x="298.237885" xlink:href="#m9e0ac68bfd" y="91.27428"/>
     <use style="fill:#1f77b4;stroke:#1f77b4;stroke-linejoin:miter;" x="307.009253" xlink:href="#m9e0ac68bfd" y="63.228706"/>
     <use style="fill:#1f77b4;stroke:#1f77b4;stroke-linejoin:miter;" x="315.780622" xlink:href="#m9e0ac68bfd" y="141.047025"/>
     <use style="fill:#1f77b4;stroke:#1f77b4;stroke-linejoin:miter;" x="324.55199" xlink:href="#m9e0ac68bfd" y="204.342271"/>
     <use style="fill:#1f77b4;stroke:#1f77b4;stroke-linejoin:miter;" x="333.323359" xlink:href="#m9e0ac68bfd" y="232.441228"/>
     <use style="fill:#1f77b4;stroke:#1f77b4;stroke-linejoin:miter;" x="342.094727" xlink:href="#m9e0ac68bfd" y="179.812828"/>
     <use style="fill:#1f77b4;stroke:#1f77b4;stroke-linejoin:miter;" x="350.866095" xlink:href="#m9e0ac68bfd" y="112.844118"/>
     <use style="fill:#1f77b4;stroke:#1f77b4;stroke-linejoin:miter;" x="359.637464" xlink:href="#m9e0ac68bfd" y="84.92501"/>
     <use style="fill:#1f77b4;stroke:#1f77b4;stroke-linejoin:miter;" x="368.408832" xlink:href="#m9e0ac68bfd" y="109.610828"/>
     <use style="fill:#1f77b4;stroke:#1f77b4;stroke-linejoin:miter;" x="377.180201" xlink:href="#m9e0ac68bfd" y="184.984588"/>
     <use style="fill:#1f77b4;stroke:#1f77b4;stroke-linejoin:miter;" x="385.951569" xlink:href="#m9e0ac68bfd" y="228.294416"/>
     <use style="fill:#1f77b4;stroke:#1f77b4;stroke-linejoin:miter;" x="394.722938" xlink:href="#m9e0ac68bfd" y="195.211136"/>
     <use style="fill:#1f77b4;stroke:#1f77b4;stroke-linejoin:miter;" x="403.494306" xlink:href="#m9e0ac68bfd" y="149.352003"/>
     <use style="fill:#1f77b4;stroke:#1f77b4;stroke-linejoin:miter;" x="412.265674" xlink:href="#m9e0ac68bfd" y="84.638699"/>
    </g>
   </g>
   <g id="line2d_29">
    <defs>
     <path d="M 0 3 
C 0.795609 3 1.55874 2.683901 2.12132 2.12132 
C 2.683901 1.55874 3 0.795609 3 0 
C 3 -0.795609 2.683901 -1.55874 2.12132 -2.12132 
C 1.55874 -2.683901 0.795609 -3 0 -3 
C -0.795609 -3 -1.55874 -2.683901 -2.12132 -2.12132 
C -2.683901 -1.55874 -3 -0.795609 -3 0 
C -3 0.795609 -2.683901 1.55874 -2.12132 2.12132 
C -1.55874 2.683901 -0.795609 3 0 3 
z
" id="m4d17eb6f4c" style="stroke:#d62728;"/>
    </defs>
    <g clip-path="url(#p304c686b55)">
     <use style="fill:#d62728;stroke:#d62728;" x="61.410938" xlink:href="#m4d17eb6f4c" y="271.284996"/>
     <use style="fill:#d62728;stroke:#d62728;" x="70.182306" xlink:href="#m4d17eb6f4c" y="264.646828"/>
     <use style="fill:#d62728;stroke:#d62728;" x="78.953674" xlink:href="#m4d17eb6f4c" y="242.383053"/>
     <use style="fill:#d62728;stroke:#d62728;" x="87.725043" xlink:href="#m4d17eb6f4c" y="219.595885"/>
     <use style="fill:#d62728;stroke:#d62728;" x="96.496411" xlink:href="#m4d17eb6f4c" y="205.520596"/>
     <use style="fill:#d62728;stroke:#d62728;" x="105.26778" xlink:href="#m4d17eb6f4c" y="210.214828"/>
     <use style="fill:#d62728;stroke:#d62728;" x="114.039148" xlink:href="#m4d17eb6f4c" y="225.61893"/>
     <use style="fill:#d62728;stroke:#d62728;" x="122.810516" xlink:href="#m4d17eb6f4c" y="211.31567"/>
     <use style="fill:#d62728;stroke:#d62728;" x="131.581885" xlink:href="#m4d17eb6f4c" y="230.703873"/>
     <use style="fill:#d62728;stroke:#d62728;" x="140.353253" xlink:href="#m4d17eb6f4c" y="221.986828"/>
     <use style="fill:#d62728;stroke:#d62728;" x="149.124622" xlink:href="#m4d17eb6f4c" y="219.579148"/>
     <use style="fill:#d62728;stroke:#d62728;" x="157.89599" xlink:href="#m4d17eb6f4c" y="230.080557"/>
     <use style="fill:#d62728;stroke:#d62728;" x="166.667359" xlink:href="#m4d17eb6f4c" y="234.946828"/>
     <use style="fill:#d62728;stroke:#d62728;" x="175.438727" xlink:href="#m4d17eb6f4c" y="239.679809"/>
     <use style="fill:#d62728;stroke:#d62728;" x="184.210095" xlink:href="#m4d17eb6f4c" y="216.977963"/>
     <use style="fill:#d62728;stroke:#d62728;" x="192.981464" xlink:href="#m4d17eb6f4c" y="222.850828"/>
    </g>
   </g>
   <g id="patch_3">
    <path d="M 61.410938 279.010828 
L 61.410938 12.898828 
" style="fill:none;stroke:#000000;stroke-linecap:square;stroke-linejoin:miter;stroke-width:0.8;"/>
   </g>
   <g id="patch_4">
    <path d="M 418.530938 279.010828 
L 418.530938 12.898828 
" style="fill:none;stroke:#000000;stroke-linecap:square;stroke-linejoin:miter;stroke-width:0.8;"/>
   </g>
   <g id="patch_5">
    <path d="M 61.410938 279.010828 
L 418.530938 279.010828 
" style="fill:none;stroke:#000000;stroke-linecap:square;stroke-linejoin:miter;stroke-width:0.8;"/>
   </g>
   <g id="patch_6">
    <path d="M 61.410938 12.898828 
L 418.530938 12.898828 
" style="fill:none;stroke:#000000;stroke-linecap:square;stroke-linejoin:miter;stroke-width:0.8;"/>
   </g>
  </g>
 </g>
 <defs>
  <clipPath id="p304c686b55">
   <rect height="266.112" width="357.12" x="61.410938" y="12.898828"/>
  </clipPath>
 </defs>
</svg>
