<?xml version="1.0" encoding="utf-8" standalone="no"?>
<!DOCTYPE svg PUBLIC "-//W3C//DTD SVG 1.1//EN"
  "http://www.w3.org/Graphics/SVG/1.1/DTD/svg11.dtd">
<!-- Created with matplotlib (https://matplotlib.org/) -->
<svg height="331.128016pt" version="1.1" viewBox="0 0 425.730937 331.128016" width="425.730937pt" xmlns="http://www.w3.org/2000/svg" xmlns:xlink="http://www.w3.org/1999/xlink">
 <defs>
  <style type="text/css">*{stroke-linecap:butt;stroke-linejoin:round;}</style>
 </defs>
 <g id="figure_1">
  <g id="patch_1">
   <path d="M 0 331.128016 
L 425.730937 331.128016 
L 425.730937 0 
L 0 0 
z
" style="fill:none;"/>
  </g>
  <g id="axes_1">
   <g id="patch_2">
    <path d="M 61.410938 279.010828 
L 418.530938 279.010828 
L 418.530938 12.898828 
L 61.410938 12.898828 
z
" style="fill:none;"/>
   </g>
   <g id="matplotlib.axis_1">
    <g id="xtick_1">
     <g id="line2d_1">
      <path clip-path="url(#p304c686b55)" d="M 61.410938 279.010828 
L 61.410938 12.898828 
" style="fill:none;stroke:#b0b0b0;stroke-linecap:square;stroke-width:0.8;"/>
     </g>
     <g id="line2d_2">
      <defs>
       <path d="M 0 0 
L 0 3.5 
" id="m005f0a59be" style="stroke:#000000;stroke-width:0.8;"/>
      </defs>
      <g>
       <use style="stroke:#000000;stroke-width:0.8;" x="61.410938" xlink:href="#m005f0a59be" y="279.010828"/>
      </g>
     </g>
     <g id="text_1">
      <!-- 0 -->
      <g transform="translate(56.639063 297.408484)scale(0.15 -0.15)">
       <defs>
        <path d="M 31.78125 66.40625 
Q 24.171875 66.40625 20.328125 58.90625 
Q 16.5 51.421875 16.5 36.375 
Q 16.5 21.390625 20.328125 13.890625 
Q 24.171875 6.390625 31.78125 6.390625 
Q 39.453125 6.390625 43.28125 13.890625 
Q 47.125 21.390625 47.125 36.375 
Q 47.125 51.421875 43.28125 58.90625 
Q 39.453125 66.40625 31.78125 66.40625 
z
M 31.78125 74.21875 
Q 44.046875 74.21875 50.515625 64.515625 
Q 56.984375 54.828125 56.984375 36.375 
Q 56.984375 17.96875 50.515625 8.265625 
Q 44.046875 -1.421875 31.78125 -1.421875 
Q 19.53125 -1.421875 13.0625 8.265625 
Q 6.59375 17.96875 6.59375 36.375 
Q 6.59375 54.828125 13.0625 64.515625 
Q 19.53125 74.21875 31.78125 74.21875 
z
" id="DejaVuSans-48"/>
       </defs>
       <use xlink:href="#DejaVuSans-48"/>
      </g>
     </g>
    </g>
    <g id="xtick_2">
     <g id="line2d_3">
      <path clip-path="url(#p304c686b55)" d="M 125.182366 279.010828 
L 125.182366 12.898828 
" style="fill:none;stroke:#b0b0b0;stroke-linecap:square;stroke-width:0.8;"/>
     </g>
     <g id="line2d_4">
      <g>
       <use style="stroke:#000000;stroke-width:0.8;" x="125.182366" xlink:href="#m005f0a59be" y="279.010828"/>
      </g>
     </g>
     <g id="text_2">
      <!-- 50 -->
      <g transform="translate(115.638616 297.408484)scale(0.15 -0.15)">
       <defs>
        <path d="M 10.796875 72.90625 
L 49.515625 72.90625 
L 49.515625 64.59375 
L 19.828125 64.59375 
L 19.828125 46.734375 
Q 21.96875 47.46875 24.109375 47.828125 
Q 26.265625 48.1875 28.421875 48.1875 
Q 40.625 48.1875 47.75 41.5 
Q 54.890625 34.8125 54.890625 23.390625 
Q 54.890625 11.625 47.5625 5.09375 
Q 40.234375 -1.421875 26.90625 -1.421875 
Q 22.3125 -1.421875 17.546875 -0.640625 
Q 12.796875 0.140625 7.71875 1.703125 
L 7.71875 11.625 
Q 12.109375 9.234375 16.796875 8.0625 
Q 21.484375 6.890625 26.703125 6.890625 
Q 35.15625 6.890625 40.078125 11.328125 
Q 45.015625 15.765625 45.015625 23.390625 
Q 45.015625 31 40.078125 35.4375 
Q 35.15625 39.890625 26.703125 39.890625 
Q 22.75 39.890625 18.8125 39.015625 
Q 14.890625 38.140625 10.796875 36.28125 
z
" id="DejaVuSans-53"/>
       </defs>
       <use xlink:href="#DejaVuSans-53"/>
       <use x="63.623047" xlink:href="#DejaVuSans-48"/>
      </g>
     </g>
    </g>
    <g id="xtick_3">
     <g id="line2d_5">
      <path clip-path="url(#p304c686b55)" d="M 188.953795 279.010828 
L 188.953795 12.898828 
" style="fill:none;stroke:#b0b0b0;stroke-linecap:square;stroke-width:0.8;"/>
     </g>
     <g id="line2d_6">
      <g>
       <use style="stroke:#000000;stroke-width:0.8;" x="188.953795" xlink:href="#m005f0a59be" y="279.010828"/>
      </g>
     </g>
     <g id="text_3">
      <!-- 100 -->
      <g transform="translate(174.63817 297.408484)scale(0.15 -0.15)">
       <defs>
        <path d="M 12.40625 8.296875 
L 28.515625 8.296875 
L 28.515625 63.921875 
L 10.984375 60.40625 
L 10.984375 69.390625 
L 28.421875 72.90625 
L 38.28125 72.90625 
L 38.28125 8.296875 
L 54.390625 8.296875 
L 54.390625 0 
L 12.40625 0 
z
" id="DejaVuSans-49"/>
       </defs>
       <use xlink:href="#DejaVuSans-49"/>
       <use x="63.623047" xlink:href="#DejaVuSans-48"/>
       <use x="127.246094" xlink:href="#DejaVuSans-48"/>
      </g>
     </g>
    </g>
    <g id="xtick_4">
     <g id="line2d_7">
      <path clip-path="url(#p304c686b55)" d="M 252.725223 279.010828 
L 252.725223 12.898828 
" style="fill:none;stroke:#b0b0b0;stroke-linecap:square;stroke-width:0.8;"/>
     </g>
     <g id="line2d_8">
      <g>
       <use style="stroke:#000000;stroke-width:0.8;" x="252.725223" xlink:href="#m005f0a59be" y="279.010828"/>
      </g>
     </g>
     <g id="text_4">
      <!-- 150 -->
      <g transform="translate(238.409598 297.408484)scale(0.15 -0.15)">
       <use xlink:href="#DejaVuSans-49"/>
       <use x="63.623047" xlink:href="#DejaVuSans-53"/>
       <use x="127.246094" xlink:href="#DejaVuSans-48"/>
      </g>
     </g>
    </g>
    <g id="xtick_5">
     <g id="line2d_9">
      <path clip-path="url(#p304c686b55)" d="M 316.496652 279.010828 
L 316.496652 12.898828 
" style="fill:none;stroke:#b0b0b0;stroke-linecap:square;stroke-width:0.8;"/>
     </g>
     <g id="line2d_10">
      <g>
       <use style="stroke:#000000;stroke-width:0.8;" x="316.496652" xlink:href="#m005f0a59be" y="279.010828"/>
      </g>
     </g>
     <g id="text_5">
      <!-- 200 -->
      <g transform="translate(302.181027 297.408484)scale(0.15 -0.15)">
       <defs>
        <path d="M 19.1875 8.296875 
L 53.609375 8.296875 
L 53.609375 0 
L 7.328125 0 
L 7.328125 8.296875 
Q 12.9375 14.109375 22.625 23.890625 
Q 32.328125 33.6875 34.8125 36.53125 
Q 39.546875 41.84375 41.421875 45.53125 
Q 43.3125 49.21875 43.3125 52.78125 
Q 43.3125 58.59375 39.234375 62.25 
Q 35.15625 65.921875 28.609375 65.921875 
Q 23.96875 65.921875 18.8125 64.3125 
Q 13.671875 62.703125 7.8125 59.421875 
L 7.8125 69.390625 
Q 13.765625 71.78125 18.9375 73 
Q 24.125 74.21875 28.421875 74.21875 
Q 39.75 74.21875 46.484375 68.546875 
Q 53.21875 62.890625 53.21875 53.421875 
Q 53.21875 48.921875 51.53125 44.890625 
Q 49.859375 40.875 45.40625 35.40625 
Q 44.1875 33.984375 37.640625 27.21875 
Q 31.109375 20.453125 19.1875 8.296875 
z
" id="DejaVuSans-50"/>
       </defs>
       <use xlink:href="#DejaVuSans-50"/>
       <use x="63.623047" xlink:href="#DejaVuSans-48"/>
       <use x="127.246094" xlink:href="#DejaVuSans-48"/>
      </g>
     </g>
    </g>
    <g id="xtick_6">
     <g id="line2d_11">
      <path clip-path="url(#p304c686b55)" d="M 380.26808 279.010828 
L 380.26808 12.898828 
" style="fill:none;stroke:#b0b0b0;stroke-linecap:square;stroke-width:0.8;"/>
     </g>
     <g id="line2d_12">
      <g>
       <use style="stroke:#000000;stroke-width:0.8;" x="380.26808" xlink:href="#m005f0a59be" y="279.010828"/>
      </g>
     </g>
     <g id="text_6">
      <!-- 250 -->
      <g transform="translate(365.952455 297.408484)scale(0.15 -0.15)">
       <use xlink:href="#DejaVuSans-50"/>
       <use x="63.623047" xlink:href="#DejaVuSans-53"/>
       <use x="127.246094" xlink:href="#DejaVuSans-48"/>
      </g>
     </g>
    </g>
    <g id="text_7">
     <!-- Time ($\mu s$) -->
     <g transform="translate(192.570938 319.728016)scale(0.2 -0.2)">
      <defs>
       <path d="M -0.296875 72.90625 
L 61.375 72.90625 
L 61.375 64.59375 
L 35.5 64.59375 
L 35.5 0 
L 25.59375 0 
L 25.59375 64.59375 
L -0.296875 64.59375 
z
" id="DejaVuSans-84"/>
       <path d="M 9.421875 54.6875 
L 18.40625 54.6875 
L 18.40625 0 
L 9.421875 0 
z
M 9.421875 75.984375 
L 18.40625 75.984375 
L 18.40625 64.59375 
L 9.421875 64.59375 
z
" id="DejaVuSans-105"/>
       <path d="M 52 44.1875 
Q 55.375 50.25 60.0625 53.125 
Q 64.75 56 71.09375 56 
Q 79.640625 56 84.28125 50.015625 
Q 88.921875 44.046875 88.921875 33.015625 
L 88.921875 0 
L 79.890625 0 
L 79.890625 32.71875 
Q 79.890625 40.578125 77.09375 44.375 
Q 74.3125 48.1875 68.609375 48.1875 
Q 61.625 48.1875 57.5625 43.546875 
Q 53.515625 38.921875 53.515625 30.90625 
L 53.515625 0 
L 44.484375 0 
L 44.484375 32.71875 
Q 44.484375 40.625 41.703125 44.40625 
Q 38.921875 48.1875 33.109375 48.1875 
Q 26.21875 48.1875 22.15625 43.53125 
Q 18.109375 38.875 18.109375 30.90625 
L 18.109375 0 
L 9.078125 0 
L 9.078125 54.6875 
L 18.109375 54.6875 
L 18.109375 46.1875 
Q 21.1875 51.21875 25.484375 53.609375 
Q 29.78125 56 35.6875 56 
Q 41.65625 56 45.828125 52.96875 
Q 50 49.953125 52 44.1875 
z
" id="DejaVuSans-109"/>
       <path d="M 56.203125 29.59375 
L 56.203125 25.203125 
L 14.890625 25.203125 
Q 15.484375 15.921875 20.484375 11.0625 
Q 25.484375 6.203125 34.421875 6.203125 
Q 39.59375 6.203125 44.453125 7.46875 
Q 49.3125 8.734375 54.109375 11.28125 
L 54.109375 2.78125 
Q 49.265625 0.734375 44.1875 -0.34375 
Q 39.109375 -1.421875 33.890625 -1.421875 
Q 20.796875 -1.421875 13.15625 6.1875 
Q 5.515625 13.8125 5.515625 26.8125 
Q 5.515625 40.234375 12.765625 48.109375 
Q 20.015625 56 32.328125 56 
Q 43.359375 56 49.78125 48.890625 
Q 56.203125 41.796875 56.203125 29.59375 
z
M 47.21875 32.234375 
Q 47.125 39.59375 43.09375 43.984375 
Q 39.0625 48.390625 32.421875 48.390625 
Q 24.90625 48.390625 20.390625 44.140625 
Q 15.875 39.890625 15.1875 32.171875 
z
" id="DejaVuSans-101"/>
       <path id="DejaVuSans-32"/>
       <path d="M 31 75.875 
Q 24.46875 64.65625 21.28125 53.65625 
Q 18.109375 42.671875 18.109375 31.390625 
Q 18.109375 20.125 21.3125 9.0625 
Q 24.515625 -2 31 -13.1875 
L 23.1875 -13.1875 
Q 15.875 -1.703125 12.234375 9.375 
Q 8.59375 20.453125 8.59375 31.390625 
Q 8.59375 42.28125 12.203125 53.3125 
Q 15.828125 64.359375 23.1875 75.875 
z
" id="DejaVuSans-40"/>
       <path d="M -1.3125 -20.796875 
L 13.375 54.6875 
L 22.40625 54.6875 
L 15.765625 20.65625 
Q 15.578125 19.625 15.421875 18.359375 
Q 15.28125 17.09375 15.28125 15.828125 
Q 15.28125 11.28125 18.140625 8.828125 
Q 21 6.390625 26.3125 6.390625 
Q 33.546875 6.390625 37.984375 10.484375 
Q 42.4375 14.59375 44 22.796875 
L 50.203125 54.6875 
L 59.1875 54.6875 
L 51.03125 12.640625 
Q 50.828125 11.71875 50.75 11.03125 
Q 50.6875 10.359375 50.6875 9.8125 
Q 50.6875 8.296875 51.296875 7.59375 
Q 51.90625 6.890625 53.21875 6.890625 
Q 53.71875 6.890625 54.5625 7.125 
Q 55.421875 7.375 56.984375 8.015625 
L 55.609375 0.78125 
Q 53.46875 -0.296875 51.515625 -0.859375 
Q 49.5625 -1.421875 47.703125 -1.421875 
Q 44.484375 -1.421875 42.65625 0.625 
Q 40.828125 2.6875 40.828125 6.296875 
Q 38.09375 2.390625 34.296875 0.484375 
Q 30.515625 -1.421875 25.390625 -1.421875 
Q 20.84375 -1.421875 17.453125 0.671875 
Q 14.0625 2.78125 12.984375 6.203125 
L 7.71875 -20.796875 
z
" id="DejaVuSans-Oblique-956"/>
       <path d="M 50 53.078125 
L 48.296875 44.578125 
Q 44.734375 46.53125 40.765625 47.5 
Q 36.8125 48.484375 32.625 48.484375 
Q 25.53125 48.484375 21.453125 46.0625 
Q 17.390625 43.65625 17.390625 39.5 
Q 17.390625 34.671875 26.859375 32.078125 
Q 27.59375 31.890625 27.9375 31.78125 
L 30.8125 30.90625 
Q 39.796875 28.421875 42.796875 25.6875 
Q 45.796875 22.953125 45.796875 18.21875 
Q 45.796875 9.515625 38.890625 4.046875 
Q 31.984375 -1.421875 20.796875 -1.421875 
Q 16.453125 -1.421875 11.671875 -0.578125 
Q 6.890625 0.25 1.125 2 
L 2.875 11.28125 
Q 7.8125 8.734375 12.59375 7.421875 
Q 17.390625 6.109375 21.78125 6.109375 
Q 28.375 6.109375 32.5 8.9375 
Q 36.625 11.765625 36.625 16.109375 
Q 36.625 20.796875 25.78125 23.6875 
L 24.859375 23.921875 
L 21.78125 24.703125 
Q 14.9375 26.515625 11.765625 29.46875 
Q 8.59375 32.421875 8.59375 37.015625 
Q 8.59375 45.75 15.15625 50.875 
Q 21.734375 56 33.015625 56 
Q 37.453125 56 41.671875 55.265625 
Q 45.90625 54.546875 50 53.078125 
z
" id="DejaVuSans-Oblique-115"/>
       <path d="M 8.015625 75.875 
L 15.828125 75.875 
Q 23.140625 64.359375 26.78125 53.3125 
Q 30.421875 42.28125 30.421875 31.390625 
Q 30.421875 20.453125 26.78125 9.375 
Q 23.140625 -1.703125 15.828125 -13.1875 
L 8.015625 -13.1875 
Q 14.5 -2 17.703125 9.0625 
Q 20.90625 20.125 20.90625 31.390625 
Q 20.90625 42.671875 17.703125 53.65625 
Q 14.5 64.65625 8.015625 75.875 
z
" id="DejaVuSans-41"/>
      </defs>
      <use transform="translate(0 0.015625)" xlink:href="#DejaVuSans-84"/>
      <use transform="translate(61.083984 0.015625)" xlink:href="#DejaVuSans-105"/>
      <use transform="translate(88.867188 0.015625)" xlink:href="#DejaVuSans-109"/>
      <use transform="translate(186.279297 0.015625)" xlink:href="#DejaVuSans-101"/>
      <use transform="translate(247.802734 0.015625)" xlink:href="#DejaVuSans-32"/>
      <use transform="translate(279.589844 0.015625)" xlink:href="#DejaVuSans-40"/>
      <use transform="translate(318.603516 0.015625)" xlink:href="#DejaVuSans-Oblique-956"/>
      <use transform="translate(382.226562 0.015625)" xlink:href="#DejaVuSans-Oblique-115"/>
      <use transform="translate(434.326172 0.015625)" xlink:href="#DejaVuSans-41"/>
     </g>
    </g>
   </g>
   <g id="matplotlib.axis_2">
    <g id="ytick_1">
     <g id="line2d_13">
      <path clip-path="url(#p304c686b55)" d="M 61.410938 279.010828 
L 418.530938 279.010828 
" style="fill:none;stroke:#b0b0b0;stroke-linecap:square;stroke-width:0.8;"/>
     </g>
     <g id="line2d_14">
      <defs>
       <path d="M 0 0 
L -3.5 0 
" id="mc3ce260a5b" style="stroke:#000000;stroke-width:0.8;"/>
      </defs>
      <g>
       <use style="stroke:#000000;stroke-width:0.8;" x="61.410938" xlink:href="#mc3ce260a5b" y="279.010828"/>
      </g>
     </g>
     <g id="text_8">
      <!-- 0.0 -->
      <g transform="translate(30.55625 284.709656)scale(0.15 -0.15)">
       <defs>
        <path d="M 10.6875 12.40625 
L 21 12.40625 
L 21 0 
L 10.6875 0 
z
" id="DejaVuSans-46"/>
       </defs>
       <use xlink:href="#DejaVuSans-48"/>
       <use x="63.623047" xlink:href="#DejaVuSans-46"/>
       <use x="95.410156" xlink:href="#DejaVuSans-48"/>
      </g>
     </g>
    </g>
    <g id="ytick_2">
     <g id="line2d_15">
      <path clip-path="url(#p304c686b55)" d="M 61.410938 225.788428 
L 418.530938 225.788428 
" style="fill:none;stroke:#b0b0b0;stroke-linecap:square;stroke-width:0.8;"/>
     </g>
     <g id="line2d_16">
      <g>
       <use style="stroke:#000000;stroke-width:0.8;" x="61.410938" xlink:href="#mc3ce260a5b" y="225.788428"/>
      </g>
     </g>
     <g id="text_9">
      <!-- 0.2 -->
      <g transform="translate(30.55625 231.487256)scale(0.15 -0.15)">
       <use xlink:href="#DejaVuSans-48"/>
       <use x="63.623047" xlink:href="#DejaVuSans-46"/>
       <use x="95.410156" xlink:href="#DejaVuSans-50"/>
      </g>
     </g>
    </g>
    <g id="ytick_3">
     <g id="line2d_17">
      <path clip-path="url(#p304c686b55)" d="M 61.410938 172.566028 
L 418.530938 172.566028 
" style="fill:none;stroke:#b0b0b0;stroke-linecap:square;stroke-width:0.8;"/>
     </g>
     <g id="line2d_18">
      <g>
       <use style="stroke:#000000;stroke-width:0.8;" x="61.410938" xlink:href="#mc3ce260a5b" y="172.566028"/>
      </g>
     </g>
     <g id="text_10">
      <!-- 0.4 -->
      <g transform="translate(30.55625 178.264856)scale(0.15 -0.15)">
       <defs>
        <path d="M 37.796875 64.3125 
L 12.890625 25.390625 
L 37.796875 25.390625 
z
M 35.203125 72.90625 
L 47.609375 72.90625 
L 47.609375 25.390625 
L 58.015625 25.390625 
L 58.015625 17.1875 
L 47.609375 17.1875 
L 47.609375 0 
L 37.796875 0 
L 37.796875 17.1875 
L 4.890625 17.1875 
L 4.890625 26.703125 
z
" id="DejaVuSans-52"/>
       </defs>
       <use xlink:href="#DejaVuSans-48"/>
       <use x="63.623047" xlink:href="#DejaVuSans-46"/>
       <use x="95.410156" xlink:href="#DejaVuSans-52"/>
      </g>
     </g>
    </g>
    <g id="ytick_4">
     <g id="line2d_19">
      <path clip-path="url(#p304c686b55)" d="M 61.410938 119.343628 
L 418.530938 119.343628 
" style="fill:none;stroke:#b0b0b0;stroke-linecap:square;stroke-width:0.8;"/>
     </g>
     <g id="line2d_20">
      <g>
       <use style="stroke:#000000;stroke-width:0.8;" x="61.410938" xlink:href="#mc3ce260a5b" y="119.343628"/>
      </g>
     </g>
     <g id="text_11">
      <!-- 0.6 -->
      <g transform="translate(30.55625 125.042456)scale(0.15 -0.15)">
       <defs>
        <path d="M 33.015625 40.375 
Q 26.375 40.375 22.484375 35.828125 
Q 18.609375 31.296875 18.609375 23.390625 
Q 18.609375 15.53125 22.484375 10.953125 
Q 26.375 6.390625 33.015625 6.390625 
Q 39.65625 6.390625 43.53125 10.953125 
Q 47.40625 15.53125 47.40625 23.390625 
Q 47.40625 31.296875 43.53125 35.828125 
Q 39.65625 40.375 33.015625 40.375 
z
M 52.59375 71.296875 
L 52.59375 62.3125 
Q 48.875 64.0625 45.09375 64.984375 
Q 41.3125 65.921875 37.59375 65.921875 
Q 27.828125 65.921875 22.671875 59.328125 
Q 17.53125 52.734375 16.796875 39.40625 
Q 19.671875 43.65625 24.015625 45.921875 
Q 28.375 48.1875 33.59375 48.1875 
Q 44.578125 48.1875 50.953125 41.515625 
Q 57.328125 34.859375 57.328125 23.390625 
Q 57.328125 12.15625 50.6875 5.359375 
Q 44.046875 -1.421875 33.015625 -1.421875 
Q 20.359375 -1.421875 13.671875 8.265625 
Q 6.984375 17.96875 6.984375 36.375 
Q 6.984375 53.65625 15.1875 63.9375 
Q 23.390625 74.21875 37.203125 74.21875 
Q 40.921875 74.21875 44.703125 73.484375 
Q 48.484375 72.75 52.59375 71.296875 
z
" id="DejaVuSans-54"/>
       </defs>
       <use xlink:href="#DejaVuSans-48"/>
       <use x="63.623047" xlink:href="#DejaVuSans-46"/>
       <use x="95.410156" xlink:href="#DejaVuSans-54"/>
      </g>
     </g>
    </g>
    <g id="ytick_5">
     <g id="line2d_21">
      <path clip-path="url(#p304c686b55)" d="M 61.410938 66.121228 
L 418.530938 66.121228 
" style="fill:none;stroke:#b0b0b0;stroke-linecap:square;stroke-width:0.8;"/>
     </g>
     <g id="line2d_22">
      <g>
       <use style="stroke:#000000;stroke-width:0.8;" x="61.410938" xlink:href="#mc3ce260a5b" y="66.121228"/>
      </g>
     </g>
     <g id="text_12">
      <!-- 0.8 -->
      <g transform="translate(30.55625 71.820056)scale(0.15 -0.15)">
       <defs>
        <path d="M 31.78125 34.625 
Q 24.75 34.625 20.71875 30.859375 
Q 16.703125 27.09375 16.703125 20.515625 
Q 16.703125 13.921875 20.71875 10.15625 
Q 24.75 6.390625 31.78125 6.390625 
Q 38.8125 6.390625 42.859375 10.171875 
Q 46.921875 13.96875 46.921875 20.515625 
Q 46.921875 27.09375 42.890625 30.859375 
Q 38.875 34.625 31.78125 34.625 
z
M 21.921875 38.8125 
Q 15.578125 40.375 12.03125 44.71875 
Q 8.5 49.078125 8.5 55.328125 
Q 8.5 64.0625 14.71875 69.140625 
Q 20.953125 74.21875 31.78125 74.21875 
Q 42.671875 74.21875 48.875 69.140625 
Q 55.078125 64.0625 55.078125 55.328125 
Q 55.078125 49.078125 51.53125 44.71875 
Q 48 40.375 41.703125 38.8125 
Q 48.828125 37.15625 52.796875 32.3125 
Q 56.78125 27.484375 56.78125 20.515625 
Q 56.78125 9.90625 50.3125 4.234375 
Q 43.84375 -1.421875 31.78125 -1.421875 
Q 19.734375 -1.421875 13.25 4.234375 
Q 6.78125 9.90625 6.78125 20.515625 
Q 6.78125 27.484375 10.78125 32.3125 
Q 14.796875 37.15625 21.921875 38.8125 
z
M 18.3125 54.390625 
Q 18.3125 48.734375 21.84375 45.5625 
Q 25.390625 42.390625 31.78125 42.390625 
Q 38.140625 42.390625 41.71875 45.5625 
Q 45.3125 48.734375 45.3125 54.390625 
Q 45.3125 60.0625 41.71875 63.234375 
Q 38.140625 66.40625 31.78125 66.40625 
Q 25.390625 66.40625 21.84375 63.234375 
Q 18.3125 60.0625 18.3125 54.390625 
z
" id="DejaVuSans-56"/>
       </defs>
       <use xlink:href="#DejaVuSans-48"/>
       <use x="63.623047" xlink:href="#DejaVuSans-46"/>
       <use x="95.410156" xlink:href="#DejaVuSans-56"/>
      </g>
     </g>
    </g>
    <g id="ytick_6">
     <g id="line2d_23">
      <path clip-path="url(#p304c686b55)" d="M 61.410938 12.898828 
L 418.530938 12.898828 
" style="fill:none;stroke:#b0b0b0;stroke-linecap:square;stroke-width:0.8;"/>
     </g>
     <g id="line2d_24">
      <g>
       <use style="stroke:#000000;stroke-width:0.8;" x="61.410938" xlink:href="#mc3ce260a5b" y="12.898828"/>
      </g>
     </g>
     <g id="text_13">
      <!-- 1.0 -->
      <g transform="translate(30.55625 18.597656)scale(0.15 -0.15)">
       <use xlink:href="#DejaVuSans-49"/>
       <use x="63.623047" xlink:href="#DejaVuSans-46"/>
       <use x="95.410156" xlink:href="#DejaVuSans-48"/>
      </g>
     </g>
    </g>
    <g id="text_14">
     <!-- F=1 population -->
     <g transform="translate(22.396875 222.840766)rotate(-90)scale(0.2 -0.2)">
      <defs>
       <path d="M 9.8125 72.90625 
L 51.703125 72.90625 
L 51.703125 64.59375 
L 19.671875 64.59375 
L 19.671875 43.109375 
L 48.578125 43.109375 
L 48.578125 34.8125 
L 19.671875 34.8125 
L 19.671875 0 
L 9.8125 0 
z
" id="DejaVuSans-70"/>
       <path d="M 10.59375 45.40625 
L 73.1875 45.40625 
L 73.1875 37.203125 
L 10.59375 37.203125 
z
M 10.59375 25.484375 
L 73.1875 25.484375 
L 73.1875 17.1875 
L 10.59375 17.1875 
z
" id="DejaVuSans-61"/>
       <path d="M 18.109375 8.203125 
L 18.109375 -20.796875 
L 9.078125 -20.796875 
L 9.078125 54.6875 
L 18.109375 54.6875 
L 18.109375 46.390625 
Q 20.953125 51.265625 25.265625 53.625 
Q 29.59375 56 35.59375 56 
Q 45.5625 56 51.78125 48.09375 
Q 58.015625 40.1875 58.015625 27.296875 
Q 58.015625 14.40625 51.78125 6.484375 
Q 45.5625 -1.421875 35.59375 -1.421875 
Q 29.59375 -1.421875 25.265625 0.953125 
Q 20.953125 3.328125 18.109375 8.203125 
z
M 48.6875 27.296875 
Q 48.6875 37.203125 44.609375 42.84375 
Q 40.53125 48.484375 33.40625 48.484375 
Q 26.265625 48.484375 22.1875 42.84375 
Q 18.109375 37.203125 18.109375 27.296875 
Q 18.109375 17.390625 22.1875 11.75 
Q 26.265625 6.109375 33.40625 6.109375 
Q 40.53125 6.109375 44.609375 11.75 
Q 48.6875 17.390625 48.6875 27.296875 
z
" id="DejaVuSans-112"/>
       <path d="M 30.609375 48.390625 
Q 23.390625 48.390625 19.1875 42.75 
Q 14.984375 37.109375 14.984375 27.296875 
Q 14.984375 17.484375 19.15625 11.84375 
Q 23.34375 6.203125 30.609375 6.203125 
Q 37.796875 6.203125 41.984375 11.859375 
Q 46.1875 17.53125 46.1875 27.296875 
Q 46.1875 37.015625 41.984375 42.703125 
Q 37.796875 48.390625 30.609375 48.390625 
z
M 30.609375 56 
Q 42.328125 56 49.015625 48.375 
Q 55.71875 40.765625 55.71875 27.296875 
Q 55.71875 13.875 49.015625 6.21875 
Q 42.328125 -1.421875 30.609375 -1.421875 
Q 18.84375 -1.421875 12.171875 6.21875 
Q 5.515625 13.875 5.515625 27.296875 
Q 5.515625 40.765625 12.171875 48.375 
Q 18.84375 56 30.609375 56 
z
" id="DejaVuSans-111"/>
       <path d="M 8.5 21.578125 
L 8.5 54.6875 
L 17.484375 54.6875 
L 17.484375 21.921875 
Q 17.484375 14.15625 20.5 10.265625 
Q 23.53125 6.390625 29.59375 6.390625 
Q 36.859375 6.390625 41.078125 11.03125 
Q 45.3125 15.671875 45.3125 23.6875 
L 45.3125 54.6875 
L 54.296875 54.6875 
L 54.296875 0 
L 45.3125 0 
L 45.3125 8.40625 
Q 42.046875 3.421875 37.71875 1 
Q 33.40625 -1.421875 27.6875 -1.421875 
Q 18.265625 -1.421875 13.375 4.4375 
Q 8.5 10.296875 8.5 21.578125 
z
M 31.109375 56 
z
" id="DejaVuSans-117"/>
       <path d="M 9.421875 75.984375 
L 18.40625 75.984375 
L 18.40625 0 
L 9.421875 0 
z
" id="DejaVuSans-108"/>
       <path d="M 34.28125 27.484375 
Q 23.390625 27.484375 19.1875 25 
Q 14.984375 22.515625 14.984375 16.5 
Q 14.984375 11.71875 18.140625 8.90625 
Q 21.296875 6.109375 26.703125 6.109375 
Q 34.1875 6.109375 38.703125 11.40625 
Q 43.21875 16.703125 43.21875 25.484375 
L 43.21875 27.484375 
z
M 52.203125 31.203125 
L 52.203125 0 
L 43.21875 0 
L 43.21875 8.296875 
Q 40.140625 3.328125 35.546875 0.953125 
Q 30.953125 -1.421875 24.3125 -1.421875 
Q 15.921875 -1.421875 10.953125 3.296875 
Q 6 8.015625 6 15.921875 
Q 6 25.140625 12.171875 29.828125 
Q 18.359375 34.515625 30.609375 34.515625 
L 43.21875 34.515625 
L 43.21875 35.40625 
Q 43.21875 41.609375 39.140625 45 
Q 35.0625 48.390625 27.6875 48.390625 
Q 23 48.390625 18.546875 47.265625 
Q 14.109375 46.140625 10.015625 43.890625 
L 10.015625 52.203125 
Q 14.9375 54.109375 19.578125 55.046875 
Q 24.21875 56 28.609375 56 
Q 40.484375 56 46.34375 49.84375 
Q 52.203125 43.703125 52.203125 31.203125 
z
" id="DejaVuSans-97"/>
       <path d="M 18.3125 70.21875 
L 18.3125 54.6875 
L 36.8125 54.6875 
L 36.8125 47.703125 
L 18.3125 47.703125 
L 18.3125 18.015625 
Q 18.3125 11.328125 20.140625 9.421875 
Q 21.96875 7.515625 27.59375 7.515625 
L 36.8125 7.515625 
L 36.8125 0 
L 27.59375 0 
Q 17.1875 0 13.234375 3.875 
Q 9.28125 7.765625 9.28125 18.015625 
L 9.28125 47.703125 
L 2.6875 47.703125 
L 2.6875 54.6875 
L 9.28125 54.6875 
L 9.28125 70.21875 
z
" id="DejaVuSans-116"/>
       <path d="M 54.890625 33.015625 
L 54.890625 0 
L 45.90625 0 
L 45.90625 32.71875 
Q 45.90625 40.484375 42.875 44.328125 
Q 39.84375 48.1875 33.796875 48.1875 
Q 26.515625 48.1875 22.3125 43.546875 
Q 18.109375 38.921875 18.109375 30.90625 
L 18.109375 0 
L 9.078125 0 
L 9.078125 54.6875 
L 18.109375 54.6875 
L 18.109375 46.1875 
Q 21.34375 51.125 25.703125 53.5625 
Q 30.078125 56 35.796875 56 
Q 45.21875 56 50.046875 50.171875 
Q 54.890625 44.34375 54.890625 33.015625 
z
" id="DejaVuSans-110"/>
      </defs>
      <use xlink:href="#DejaVuSans-70"/>
      <use x="57.519531" xlink:href="#DejaVuSans-61"/>
      <use x="141.308594" xlink:href="#DejaVuSans-49"/>
      <use x="204.931641" xlink:href="#DejaVuSans-32"/>
      <use x="236.71875" xlink:href="#DejaVuSans-112"/>
      <use x="300.195312" xlink:href="#DejaVuSans-111"/>
      <use x="361.376953" xlink:href="#DejaVuSans-112"/>
      <use x="424.853516" xlink:href="#DejaVuSans-117"/>
      <use x="488.232422" xlink:href="#DejaVuSans-108"/>
      <use x="516.015625" xlink:href="#DejaVuSans-97"/>
      <use x="577.294922" xlink:href="#DejaVuSans-116"/>
      <use x="616.503906" xlink:href="#DejaVuSans-105"/>
      <use x="644.287109" xlink:href="#DejaVuSans-111"/>
      <use x="705.46875" xlink:href="#DejaVuSans-110"/>
     </g>
    </g>
   </g>
   <g id="LineCollection_1">
    <path clip-path="url(#p304c686b55)" d="M 61.410938 279.010828 
L 61.410938 277.828108 
" style="fill:none;stroke:#1f77b4;stroke-width:1.5;"/>
    <path clip-path="url(#p304c686b55)" d="M 72.889795 234.356965 
L 72.889795 220.308691 
" style="fill:none;stroke:#1f77b4;stroke-width:1.5;"/>
    <path clip-path="url(#p304c686b55)" d="M 84.368652 130.695657 
L 84.368652 113.360525 
" style="fill:none;stroke:#1f77b4;stroke-width:1.5;"/>
    <path clip-path="url(#p304c686b55)" d="M 95.847509 65.433052 
L 95.847509 52.167434 
" style="fill:none;stroke:#1f77b4;stroke-width:1.5;"/>
    <path clip-path="url(#p304c686b55)" d="M 107.326366 77.208966 
L 107.326366 62.279733 
" style="fill:none;stroke:#1f77b4;stroke-width:1.5;"/>
    <path clip-path="url(#p304c686b55)" d="M 118.805223 147.379409 
L 118.805223 128.642964 
" style="fill:none;stroke:#1f77b4;stroke-width:1.5;"/>
    <path clip-path="url(#p304c686b55)" d="M 130.28408 231.147908 
L 130.28408 216.957922 
" style="fill:none;stroke:#1f77b4;stroke-width:1.5;"/>
    <path clip-path="url(#p304c686b55)" d="M 141.762938 271.980199 
L 141.762938 265.000044 
" style="fill:none;stroke:#1f77b4;stroke-width:1.5;"/>
    <path clip-path="url(#p304c686b55)" d="M 153.241795 227.740088 
L 153.241795 212.697196 
" style="fill:none;stroke:#1f77b4;stroke-width:1.5;"/>
    <path clip-path="url(#p304c686b55)" d="M 164.720652 109.976957 
L 164.720652 93.606163 
" style="fill:none;stroke:#1f77b4;stroke-width:1.5;"/>
    <path clip-path="url(#p304c686b55)" d="M 176.199509 52.841603 
L 176.199509 40.975712 
" style="fill:none;stroke:#1f77b4;stroke-width:1.5;"/>
    <path clip-path="url(#p304c686b55)" d="M 187.678366 71.181582 
L 187.678366 56.772813 
" style="fill:none;stroke:#1f77b4;stroke-width:1.5;"/>
    <path clip-path="url(#p304c686b55)" d="M 199.157223 146.069267 
L 199.157223 128.634872 
" style="fill:none;stroke:#1f77b4;stroke-width:1.5;"/>
    <path clip-path="url(#p304c686b55)" d="M 210.63608 234.708827 
L 210.63608 220.178514 
" style="fill:none;stroke:#1f77b4;stroke-width:1.5;"/>
    <path clip-path="url(#p304c686b55)" d="M 222.114938 259.881916 
L 222.114938 249.415008 
" style="fill:none;stroke:#1f77b4;stroke-width:1.5;"/>
    <path clip-path="url(#p304c686b55)" d="M 233.593795 227.495545 
L 233.593795 212.392279 
" style="fill:none;stroke:#1f77b4;stroke-width:1.5;"/>
    <path clip-path="url(#p304c686b55)" d="M 245.072652 132.58349 
L 245.072652 114.974166 
" style="fill:none;stroke:#1f77b4;stroke-width:1.5;"/>
    <path clip-path="url(#p304c686b55)" d="M 256.551509 52.006323 
L 256.551509 40.006995 
" style="fill:none;stroke:#1f77b4;stroke-width:1.5;"/>
    <path clip-path="url(#p304c686b55)" d="M 268.030366 77.728751 
L 268.030366 62.980906 
" style="fill:none;stroke:#1f77b4;stroke-width:1.5;"/>
    <path clip-path="url(#p304c686b55)" d="M 279.509223 157.635516 
L 279.509223 139.318918 
" style="fill:none;stroke:#1f77b4;stroke-width:1.5;"/>
    <path clip-path="url(#p304c686b55)" d="M 290.98808 230.558301 
L 290.98808 215.868001 
" style="fill:none;stroke:#1f77b4;stroke-width:1.5;"/>
    <path clip-path="url(#p304c686b55)" d="M 302.466938 253.489804 
L 302.466938 242.62008 
" style="fill:none;stroke:#1f77b4;stroke-width:1.5;"/>
    <path clip-path="url(#p304c686b55)" d="M 313.945795 216.458353 
L 313.945795 200.819624 
" style="fill:none;stroke:#1f77b4;stroke-width:1.5;"/>
    <path clip-path="url(#p304c686b55)" d="M 325.424652 131.364131 
L 325.424652 113.208294 
" style="fill:none;stroke:#1f77b4;stroke-width:1.5;"/>
    <path clip-path="url(#p304c686b55)" d="M 336.903509 49.475396 
L 336.903509 37.829279 
" style="fill:none;stroke:#1f77b4;stroke-width:1.5;"/>
    <path clip-path="url(#p304c686b55)" d="M 348.382366 71.917659 
L 348.382366 58.345451 
" style="fill:none;stroke:#1f77b4;stroke-width:1.5;"/>
    <path clip-path="url(#p304c686b55)" d="M 359.861223 148.814814 
L 359.861223 130.601321 
" style="fill:none;stroke:#1f77b4;stroke-width:1.5;"/>
    <path clip-path="url(#p304c686b55)" d="M 371.34008 219.946817 
L 371.34008 205.018839 
" style="fill:none;stroke:#1f77b4;stroke-width:1.5;"/>
    <path clip-path="url(#p304c686b55)" d="M 382.818938 253.297482 
L 382.818938 241.599932 
" style="fill:none;stroke:#1f77b4;stroke-width:1.5;"/>
    <path clip-path="url(#p304c686b55)" d="M 394.297795 208.020527 
L 394.297795 192.506272 
" style="fill:none;stroke:#1f77b4;stroke-width:1.5;"/>
    <path clip-path="url(#p304c686b55)" d="M 405.776652 131.730191 
L 405.776652 113.73539 
" style="fill:none;stroke:#1f77b4;stroke-width:1.5;"/>
   </g>
   <g id="LineCollection_2">
    <path clip-path="url(#p304c686b55)" d="M 61.410938 274.780846 
L 61.410938 267.789145 
" style="fill:none;stroke:#d62728;stroke-width:1.5;"/>
    <path clip-path="url(#p304c686b55)" d="M 72.889795 180.172589 
L 72.889795 160.397547 
" style="fill:none;stroke:#d62728;stroke-width:1.5;"/>
    <path clip-path="url(#p304c686b55)" d="M 84.368652 100.494107 
L 84.368652 80.684382 
" style="fill:none;stroke:#d62728;stroke-width:1.5;"/>
    <path clip-path="url(#p304c686b55)" d="M 95.847509 109.194276 
L 95.847509 90.542509 
" style="fill:none;stroke:#d62728;stroke-width:1.5;"/>
    <path clip-path="url(#p304c686b55)" d="M 107.326366 176.537479 
L 107.326366 156.312485 
" style="fill:none;stroke:#d62728;stroke-width:1.5;"/>
    <path clip-path="url(#p304c686b55)" d="M 118.805223 177.063517 
L 118.805223 155.221753 
" style="fill:none;stroke:#d62728;stroke-width:1.5;"/>
    <path clip-path="url(#p304c686b55)" d="M 130.28408 137.354039 
L 130.28408 117.206565 
" style="fill:none;stroke:#d62728;stroke-width:1.5;"/>
    <path clip-path="url(#p304c686b55)" d="M 141.762938 179.253661 
L 141.762938 157.318149 
" style="fill:none;stroke:#d62728;stroke-width:1.5;"/>
    <path clip-path="url(#p304c686b55)" d="M 153.241795 205.549644 
L 153.241795 185.252985 
" style="fill:none;stroke:#d62728;stroke-width:1.5;"/>
    <path clip-path="url(#p304c686b55)" d="M 164.720652 153.037766 
L 164.720652 132.573381 
" style="fill:none;stroke:#d62728;stroke-width:1.5;"/>
    <path clip-path="url(#p304c686b55)" d="M 176.199509 147.301183 
L 176.199509 126.313273 
" style="fill:none;stroke:#d62728;stroke-width:1.5;"/>
    <path clip-path="url(#p304c686b55)" d="M 187.678366 135.91019 
L 187.678366 114.795027 
" style="fill:none;stroke:#d62728;stroke-width:1.5;"/>
    <path clip-path="url(#p304c686b55)" d="M 199.157223 170.080831 
L 199.157223 149.413606 
" style="fill:none;stroke:#d62728;stroke-width:1.5;"/>
    <path clip-path="url(#p304c686b55)" d="M 210.63608 154.832355 
L 210.63608 133.729981 
" style="fill:none;stroke:#d62728;stroke-width:1.5;"/>
    <path clip-path="url(#p304c686b55)" d="M 222.114938 157.460537 
L 222.114938 136.154966 
" style="fill:none;stroke:#d62728;stroke-width:1.5;"/>
    <path clip-path="url(#p304c686b55)" d="M 233.593795 180.50109 
L 233.593795 159.480411 
" style="fill:none;stroke:#d62728;stroke-width:1.5;"/>
   </g>
   <g id="line2d_25">
    <path clip-path="url(#p304c686b55)" d="M 61.410938 278.518987 
L 62.482298 278.518987 
L 62.839418 277.098432 
L 63.196538 278.518987 
L 63.553658 278.518987 
L 63.910778 276.090351 
L 64.267898 278.188961 
L 64.625018 274.907429 
L 64.982138 273.486418 
L 65.339258 273.198929 
L 65.696378 270.756744 
L 66.053498 270.109603 
L 66.410618 268.889737 
L 66.767738 267.127917 
L 67.124858 266.102047 
L 67.481978 263.884815 
L 68.196218 261.213319 
L 68.553338 258.307258 
L 69.981818 250.670998 
L 70.338938 247.704644 
L 71.053178 243.274384 
L 71.410298 240.054927 
L 71.767418 238.332735 
L 72.124538 234.549086 
L 73.195898 227.452731 
L 73.553018 223.278682 
L 73.910138 221.356082 
L 74.624378 214.698286 
L 75.695738 204.848155 
L 76.052858 202.383674 
L 80.695418 157.383287 
L 81.052538 154.905099 
L 86.052218 106.483607 
L 86.766458 100.508174 
L 87.123578 97.626513 
L 87.837818 90.639081 
L 88.552058 85.485473 
L 88.909178 81.97772 
L 89.266298 80.080462 
L 89.623418 76.513136 
L 90.337658 72.687405 
L 91.051898 66.213074 
L 92.837498 56.085597 
L 94.265978 48.150439 
L 94.623098 47.158617 
L 94.980218 44.78208 
L 95.337338 43.579088 
L 96.051578 39.999677 
L 96.408698 40.247118 
L 97.122938 37.454113 
L 97.480058 36.455443 
L 97.837178 36.455443 
L 98.551418 33.814156 
L 98.908538 33.662728 
L 99.265658 33.317237 
L 99.622778 32.740822 
L 100.337018 32.107108 
L 100.694138 32.354885 
L 101.051258 33.280667 
L 101.408378 32.945173 
L 102.122618 33.059101 
L 102.479738 34.185883 
L 102.836858 34.469927 
L 103.193978 35.105653 
L 103.551098 35.30275 
L 103.908218 36.623039 
L 104.265338 36.979742 
L 104.622458 38.349931 
L 104.979578 40.933944 
L 105.336698 40.578379 
L 105.693818 41.043661 
L 106.050938 44.077557 
L 106.408058 45.345586 
L 106.765178 46.125293 
L 107.836538 51.491801 
L 108.193658 53.105391 
L 108.550778 56.008147 
L 108.907898 57.426768 
L 109.979258 63.548547 
L 111.050618 70.880082 
L 111.407738 73.194031 
L 111.764858 76.310572 
L 112.121978 77.576204 
L 112.479098 81.312356 
L 113.550458 88.729154 
L 114.264698 95.240707 
L 114.621818 97.182634 
L 115.336058 104.224532 
L 115.693178 106.478949 
L 117.478778 122.94818 
L 119.264378 139.30074 
L 119.621498 142.057942 
L 120.692858 152.498801 
L 121.049978 154.965558 
L 121.764218 162.6534 
L 122.121338 165.355472 
L 122.835578 172.328882 
L 123.192698 174.945325 
L 123.906938 181.147471 
L 125.335418 193.776315 
L 126.406778 201.93047 
L 126.763898 206.500752 
L 128.192378 216.822505 
L 129.263738 224.492997 
L 130.335098 232.521133 
L 131.406458 238.459913 
L 133.192058 248.949981 
L 133.549178 250.013289 
L 133.906298 251.986333 
L 134.263418 252.907648 
L 134.620538 255.507649 
L 134.977658 256.379095 
L 135.334778 256.742615 
L 135.691898 259.101472 
L 136.763258 262.684271 
L 137.120378 262.901847 
L 137.477498 263.908039 
L 137.834618 264.580984 
L 138.191738 264.835212 
L 138.548858 265.881823 
L 138.905978 266.081475 
L 139.620218 267.083034 
L 139.977338 266.909211 
L 140.334458 266.865325 
L 140.691578 267.172801 
L 141.048698 266.571216 
L 141.405818 266.887268 
L 141.762938 265.922127 
L 142.120058 266.54975 
L 142.477178 265.801215 
L 142.834298 265.801215 
L 143.191418 264.172075 
L 143.905658 263.428059 
L 144.262777 263.358763 
L 144.619898 261.321323 
L 144.977018 261.398469 
L 145.334138 259.131108 
L 145.691258 258.400668 
L 146.048378 256.605119 
L 146.405498 256.03674 
L 146.762618 253.574854 
L 147.119738 253.44171 
L 147.833978 249.216791 
L 148.548218 246.535875 
L 148.905338 243.615924 
L 149.619578 240.238057 
L 149.976698 237.067635 
L 151.048058 231.344238 
L 153.190778 217.464668 
L 153.547898 213.239353 
L 153.905018 212.351662 
L 154.262138 208.173606 
L 156.047738 194.635577 
L 156.404858 192.812648 
L 157.476218 182.724494 
L 157.833338 180.228197 
L 158.190458 175.830819 
L 158.547578 173.034123 
L 158.904698 171.300055 
L 159.261818 166.632705 
L 160.333178 158.702664 
L 160.690298 154.687444 
L 161.047418 152.724517 
L 161.404538 148.285252 
L 161.761658 146.994205 
L 162.475898 139.317062 
L 162.833018 137.360653 
L 167.118458 101.618589 
L 167.475578 100.313591 
L 167.832698 96.816078 
L 168.189818 95.382967 
L 168.546938 91.744785 
L 168.904058 90.010541 
L 169.261178 86.968991 
L 169.618298 85.378867 
L 170.332538 79.935949 
L 170.689658 78.569584 
L 171.403898 73.673519 
L 171.761018 72.329405 
L 172.475258 68.176666 
L 172.832378 66.5146 
L 173.189498 63.355866 
L 173.546618 62.655982 
L 174.260858 59.258663 
L 174.617978 59.536643 
L 174.975098 57.268398 
L 175.332218 56.896504 
L 175.689338 55.290841 
L 176.046458 52.5713 
L 176.403578 52.721569 
L 176.760698 51.301038 
L 177.474938 49.251662 
L 177.832058 49.588633 
L 178.189178 47.636517 
L 178.546298 47.558559 
L 178.903418 48.226399 
L 179.260538 45.988612 
L 179.617658 47.198116 
L 179.974778 46.948031 
L 180.331898 46.974719 
L 180.689018 46.814588 
L 181.046138 46.515242 
L 181.403258 46.758729 
L 181.760378 47.342946 
L 182.117498 47.211283 
L 182.474618 46.623459 
L 182.831738 47.467607 
L 183.188858 47.532573 
L 183.545978 49.068796 
L 184.617338 51.518354 
L 184.974458 52.721569 
L 185.331578 52.635701 
L 185.688698 54.876434 
L 186.402938 56.612409 
L 187.117178 59.501375 
L 187.474298 60.547664 
L 187.831418 62.317865 
L 188.188538 64.759484 
L 188.545658 65.229762 
L 189.259898 69.135504 
L 189.617018 71.734915 
L 189.974138 72.437624 
L 190.688378 77.868107 
L 191.402618 80.674668 
L 191.759738 83.75803 
L 192.116858 85.721127 
L 192.831098 90.862066 
L 193.188218 92.385523 
L 193.902458 98.825409 
L 194.973818 105.890604 
L 195.330938 110.044702 
L 195.688058 111.673418 
L 196.402298 117.171457 
L 196.759418 121.698621 
L 197.116538 123.382488 
L 198.545018 134.503298 
L 198.902138 136.721436 
L 199.259258 141.391475 
L 199.616378 144.254272 
L 199.973498 146.07145 
L 201.044858 156.339118 
L 201.401978 158.569108 
L 201.759098 161.844699 
L 202.116218 164.079802 
L 203.544698 177.048467 
L 205.330298 190.853532 
L 206.758778 201.294545 
L 207.115898 203.673741 
L 207.473018 207.76829 
L 208.187258 211.1893 
L 208.544378 215.151337 
L 208.901498 216.779098 
L 209.615738 221.692619 
L 209.972858 223.37273 
L 210.687098 228.989169 
L 211.758458 235.862882 
L 212.115578 235.905508 
L 212.472698 238.534723 
L 214.615418 248.460421 
L 214.972538 249.381372 
L 216.043898 253.474996 
L 216.401018 254.999804 
L 216.758138 255.618439 
L 217.115258 256.592619 
L 217.472378 256.917611 
L 217.829498 258.443 
L 218.186618 258.843096 
L 219.257978 261.061741 
L 219.615098 259.99847 
L 219.972218 261.38304 
L 220.329338 260.955398 
L 220.686458 261.636168 
L 221.043578 260.810024 
L 221.400698 261.290465 
L 221.757818 262.329199 
L 222.472058 260.227149 
L 222.829178 259.726558 
L 223.186298 260.357843 
L 223.543418 259.465978 
L 223.900538 257.472333 
L 224.257658 257.369738 
L 224.614778 256.391438 
L 224.971898 256.268003 
L 225.329018 255.400573 
L 225.686138 253.768341 
L 226.043258 253.037865 
L 227.114618 249.061891 
L 227.471738 246.482012 
L 227.828858 246.553829 
L 230.685818 231.806382 
L 231.400058 227.409256 
L 231.757178 225.2492 
L 232.471418 220.124616 
L 233.899898 211.34874 
L 234.971258 202.397985 
L 235.328378 200.967099 
L 236.042618 194.159942 
L 236.399738 193.221688 
L 236.756858 188.491469 
L 237.113978 187.065538 
L 237.828218 180.346867 
L 238.185338 178.072743 
L 238.542458 174.224486 
L 238.899578 172.785171 
L 239.613818 166.261369 
L 240.685178 157.516844 
L 241.042298 153.667689 
L 241.756538 148.576648 
L 242.113658 145.213451 
L 242.470778 143.077962 
L 243.185018 136.84846 
L 243.899258 130.653268 
L 244.256378 128.773521 
L 244.613498 124.008194 
L 244.970618 122.14944 
L 247.827578 100.030272 
L 248.184698 97.992117 
L 249.256058 89.353701 
L 249.613178 88.26167 
L 252.113018 73.785435 
L 252.470138 71.516195 
L 252.827258 70.337169 
L 253.541498 66.710458 
L 253.898618 66.011884 
L 254.255738 64.211206 
L 254.612858 63.166629 
L 255.327098 59.395573 
L 256.041337 57.753316 
L 256.398458 55.389589 
L 256.755578 54.296856 
L 257.112698 54.986155 
L 257.469818 54.480101 
L 257.826938 52.351014 
L 258.184058 52.2425 
L 258.541178 52.5713 
L 258.898298 52.31846 
L 259.255418 51.773546 
L 259.612538 50.495292 
L 259.969658 50.062628 
L 260.326778 51.345923 
L 260.683898 50.327974 
L 261.398138 50.953872 
L 261.755258 50.339592 
L 262.112378 51.169528 
L 262.469497 49.968582 
L 262.826617 53.073536 
L 263.183738 51.840118 
L 263.897978 53.354985 
L 264.255098 53.962009 
L 264.969337 57.056383 
L 265.326458 56.476195 
L 266.040698 60.112622 
L 266.397818 61.44033 
L 266.754938 62.210886 
L 267.112058 64.626581 
L 267.469178 65.52434 
L 267.826298 67.148388 
L 268.183418 69.707217 
L 268.540538 70.211105 
L 268.897658 72.194131 
L 269.254778 73.200704 
L 269.611898 76.028587 
L 270.326138 79.520413 
L 271.040378 84.526686 
L 272.111738 91.292584 
L 272.468858 93.861373 
L 272.825978 95.504506 
L 273.897338 104.380455 
L 274.254458 105.820402 
L 276.040058 120.024193 
L 276.397178 122.285566 
L 276.754298 126.35425 
L 277.111418 128.092202 
L 277.468538 130.503266 
L 278.539898 140.765646 
L 278.897018 142.84226 
L 279.254138 146.820177 
L 279.611258 148.73044 
L 280.325497 155.360562 
L 280.682617 157.464231 
L 281.396858 164.205781 
L 282.111098 169.152517 
L 282.468218 172.967736 
L 282.825338 175.441163 
L 283.539578 181.662508 
L 283.896698 183.078697 
L 284.253818 187.000748 
L 286.039418 200.097292 
L 286.396538 203.904962 
L 286.753658 205.708069 
L 287.467898 210.229061 
L 287.825018 214.197272 
L 290.681978 231.120405 
L 291.396218 235.204736 
L 291.753338 237.261674 
L 292.110458 237.628104 
L 292.467578 240.627862 
L 293.538938 244.316668 
L 293.896058 247.11401 
L 294.253178 247.918911 
L 294.967418 251.491197 
L 295.324538 250.640769 
L 295.681658 252.755727 
L 296.038778 253.936661 
L 296.395898 253.880555 
L 297.467258 256.917611 
L 297.824378 257.102797 
L 298.181498 257.845978 
L 298.538617 258.293914 
L 298.895737 257.292792 
L 299.252858 258.605325 
L 299.609978 258.760806 
L 299.967098 258.700014 
L 300.324218 258.9391 
L 300.681338 259.035104 
L 301.038458 257.617718 
L 301.752698 258.591798 
L 302.109818 256.605119 
L 302.466938 257.102797 
L 302.824058 256.925558 
L 303.181178 254.467354 
L 303.538298 254.421424 
L 303.895418 255.555239 
L 304.966778 250.826778 
L 305.323898 250.239076 
L 305.681018 248.754768 
L 306.038138 246.598715 
L 306.395258 245.669796 
L 307.109498 243.020828 
L 307.466618 240.070357 
L 307.823737 240.070357 
L 308.180858 239.32491 
L 308.895098 234.100385 
L 309.252218 232.494262 
L 309.609338 231.927813 
L 309.966458 228.898354 
L 310.323578 226.978789 
L 310.680698 224.195557 
L 311.037818 222.837147 
L 312.823418 210.92159 
L 313.180538 207.496068 
L 313.537658 206.555065 
L 314.251898 200.763928 
L 314.609018 199.099635 
L 315.680378 189.48928 
L 316.037498 187.554922 
L 317.465978 177.144065 
L 317.823098 172.747828 
L 318.894457 165.677841 
L 319.251577 161.13906 
L 319.608698 159.556617 
L 319.965818 155.453267 
L 320.322938 153.695904 
L 322.108538 139.737365 
L 322.822778 134.853041 
L 324.251258 123.433566 
L 324.608378 121.569815 
L 324.965498 117.95746 
L 325.679737 113.536289 
L 326.393978 107.25649 
L 326.751098 105.464713 
L 327.108218 104.257607 
L 327.822458 99.031753 
L 329.250938 89.745483 
L 329.965178 86.644625 
L 330.322298 84.087498 
L 330.679417 83.297661 
L 331.393658 79.272023 
L 332.107898 75.544158 
L 332.822138 73.521542 
L 333.179258 71.235032 
L 333.536378 70.928421 
L 333.893498 68.749684 
L 334.250618 68.358191 
L 334.607737 66.934888 
L 335.679098 63.892451 
L 336.036218 63.860596 
L 336.393338 62.590693 
L 336.750458 62.309636 
L 337.464697 61.091593 
L 337.821818 61.159114 
L 338.178938 60.53049 
L 338.536058 60.268542 
L 338.893178 59.661143 
L 339.250298 59.57191 
L 339.964538 60.521903 
L 340.321658 59.554277 
L 340.678778 60.651716 
L 341.393018 61.184434 
L 341.750138 60.478969 
L 342.107258 62.260261 
L 342.464378 61.907679 
L 343.178618 63.985954 
L 343.535737 64.665767 
L 343.892857 65.776955 
L 344.249977 66.125826 
L 344.607098 67.520828 
L 344.964218 68.379974 
L 345.678458 71.289893 
L 346.035578 71.932414 
L 346.392697 73.107291 
L 346.749818 75.492859 
L 347.106938 76.411854 
L 348.178298 81.701455 
L 348.535418 82.86673 
L 349.249658 86.991058 
L 349.963898 90.432024 
L 350.678138 95.225436 
L 351.035258 96.173714 
L 351.392378 99.410052 
L 351.749498 100.44007 
L 352.463738 105.637877 
L 352.820857 108.353533 
L 353.177977 109.628209 
L 353.535098 112.245505 
L 353.892218 115.74361 
L 354.249338 117.385055 
L 354.606458 121.028928 
L 354.963578 122.264191 
L 356.392058 132.692177 
L 356.749178 134.179639 
L 357.106298 138.040846 
L 357.463418 139.802655 
L 357.820538 143.504663 
L 358.177658 144.845158 
L 358.534778 148.900421 
L 359.249018 153.776517 
L 360.320378 161.999124 
L 361.391738 170.160599 
L 362.105977 175.082827 
L 362.820218 179.672988 
L 363.177338 182.767243 
L 363.534458 184.574431 
L 363.891578 188.539747 
L 364.248698 189.951361 
L 366.034298 201.944782 
L 366.391418 203.288372 
L 366.748538 206.48594 
L 367.105658 208.057559 
L 367.819898 212.913332 
L 368.534138 216.393863 
L 368.891258 219.317096 
L 369.248378 220.990763 
L 369.605498 223.266926 
L 369.962618 223.867421 
L 370.676858 227.738923 
L 371.033977 228.69579 
L 372.105338 234.328269 
L 372.462458 234.231591 
L 373.176698 238.429988 
L 373.533817 239.923776 
L 373.890938 239.985494 
L 374.605178 242.299548 
L 374.962298 243.473542 
L 375.319418 244.123663 
L 375.676538 245.256992 
L 376.033658 245.326903 
L 376.390778 246.872118 
L 376.747898 246.872118 
L 377.105018 247.059149 
L 377.819258 248.093041 
L 378.176378 247.993438 
L 378.533498 248.243515 
L 378.890618 248.086598 
L 379.247738 249.469329 
L 379.604858 248.262325 
L 379.961977 249.625763 
L 380.319097 248.40345 
L 380.676218 248.583857 
L 381.390458 247.863015 
L 381.747578 247.104867 
L 382.104698 247.937543 
L 382.461818 245.440508 
L 382.818938 246.45508 
L 383.533178 244.478412 
L 383.890298 243.624292 
L 384.604538 240.976504 
L 384.961658 240.745421 
L 385.318778 238.949415 
L 385.675898 238.474875 
L 386.390138 235.976551 
L 386.747258 233.459911 
L 387.104378 233.173877 
L 387.461498 232.574875 
L 387.818618 229.728809 
L 388.175738 229.869881 
L 389.247098 223.431509 
L 389.604218 221.69836 
L 389.961338 219.398746 
L 390.318458 218.157997 
L 390.675578 215.705916 
L 391.746938 211.008572 
L 392.461178 206.188416 
L 392.818297 204.485583 
L 393.175418 201.745569 
L 393.889658 197.842862 
L 394.246778 194.649166 
L 394.603898 192.835091 
L 395.318138 188.135966 
L 395.675257 186.818038 
L 396.032378 182.998089 
L 396.746618 178.253436 
L 397.460858 172.847409 
L 397.817978 171.944622 
L 398.532218 165.824743 
L 401.032058 148.961129 
L 402.103418 140.7616 
L 402.460537 139.10487 
L 402.817658 135.659506 
L 403.889018 129.953261 
L 404.603257 124.157171 
L 404.960378 122.371064 
L 406.031738 115.390929 
L 406.388858 114.139313 
L 407.103098 109.344757 
L 407.460217 108.128284 
L 407.817338 104.976892 
L 408.174458 103.265704 
L 408.888698 98.768817 
L 409.245818 98.610816 
L 410.317178 92.81162 
L 410.674298 90.26142 
L 411.031418 89.498607 
L 411.388537 89.310246 
L 412.102778 85.502305 
L 412.817018 83.314986 
L 414.245497 76.960063 
L 414.602618 77.035541 
L 414.959738 76.130523 
L 415.316858 75.582632 
L 415.673978 73.726185 
L 416.031098 73.007207 
L 416.388217 72.913795 
L 416.745338 71.925604 
L 417.459578 71.344754 
L 417.816698 70.024627 
L 418.173818 70.687033 
L 418.530938 69.735432 
L 418.530938 69.735432 
" style="fill:none;stroke:#1f77b4;stroke-linecap:square;stroke-width:1.5;"/>
   </g>
   <g id="line2d_26">
    <path clip-path="url(#p304c686b55)" d="M 61.410938 278.515607 
L 62.176195 278.515607 
L 62.558823 277.719233 
L 63.32408 275.567212 
L 63.706709 274.879232 
L 64.089338 273.158992 
L 65.237223 266.013343 
L 65.619852 264.350514 
L 66.00248 262.149374 
L 67.532995 248.560006 
L 67.915623 245.707015 
L 69.063509 233.290904 
L 69.446138 229.96051 
L 69.828766 224.40035 
L 70.211395 220.73001 
L 70.976652 210.671473 
L 71.35928 206.714856 
L 72.124538 195.913386 
L 72.889795 185.877917 
L 74.03768 170.751283 
L 77.098709 131.117871 
L 77.863966 120.790558 
L 79.39448 104.52664 
L 79.777109 98.879944 
L 80.159738 96.169206 
L 82.455509 75.261337 
L 83.220766 70.488887 
L 83.603395 68.460726 
L 83.986023 65.782268 
L 85.899166 58.180261 
L 86.281795 57.337095 
L 86.664423 56.908899 
L 87.42968 55.512267 
L 87.812309 55.521736 
L 88.194938 55.227586 
L 88.577566 56.717341 
L 88.960195 56.620074 
L 89.342823 57.53364 
L 89.725452 58.942726 
L 90.10808 59.849087 
L 90.490709 60.365706 
L 90.873338 62.061439 
L 91.255966 63.13764 
L 92.403852 70.310602 
L 92.78648 71.75959 
L 93.551738 76.800902 
L 94.699623 84.257336 
L 95.082252 88.358471 
L 96.230138 95.771046 
L 96.995395 103.342219 
L 100.056423 130.570591 
L 100.82168 137.892867 
L 103.882709 162.889053 
L 104.265338 164.853869 
L 104.647966 167.569366 
L 105.030595 169.222053 
L 105.413223 172.631757 
L 106.943738 180.64214 
L 107.326366 183.240865 
L 108.474252 186.446927 
L 108.85688 188.794227 
L 109.239509 189.330465 
L 109.622138 190.538874 
L 110.387395 191.614248 
L 110.770023 191.708729 
L 111.152652 192.718444 
L 111.53528 193.113437 
L 112.300538 193.136138 
L 112.683166 193.690907 
L 113.065795 193.322284 
L 113.448423 192.351396 
L 113.831052 192.12994 
L 114.978938 188.416928 
L 115.361566 188.301519 
L 115.744195 187.265239 
L 116.126823 187.847363 
L 116.89208 183.245188 
L 117.274709 183.227896 
L 118.422595 177.328367 
L 118.805223 176.217218 
L 119.187852 175.736924 
L 119.57048 172.853175 
L 119.953109 170.871929 
L 120.335738 169.553485 
L 120.718366 167.004145 
L 121.100995 165.593427 
L 123.396766 153.938663 
L 123.779395 152.355907 
L 124.162023 149.657107 
L 124.544652 149.08488 
L 124.92728 148.246781 
L 125.309909 145.280196 
L 126.075166 143.527955 
L 126.457795 141.693796 
L 126.840423 139.22818 
L 127.223052 138.546143 
L 127.988309 136.19751 
L 128.370938 134.910601 
L 128.753566 134.32231 
L 129.136195 133.974307 
L 130.28408 131.560708 
L 130.666709 131.757461 
L 131.049338 130.829609 
L 131.431966 131.009251 
L 131.814595 129.952662 
L 132.197223 130.453616 
L 132.96248 129.80163 
L 133.345109 130.520459 
L 133.727738 130.750233 
L 134.110366 131.489687 
L 134.875623 131.869787 
L 135.258252 133.717448 
L 135.64088 133.286587 
L 136.023509 133.729876 
L 136.406138 136.700846 
L 136.788766 136.721475 
L 137.171395 138.837858 
L 137.554023 139.713002 
L 137.936652 141.251887 
L 138.31928 141.65697 
L 138.701909 144.501875 
L 139.084538 145.166097 
L 139.467166 146.56789 
L 139.849795 147.370661 
L 140.232423 150.152225 
L 140.615052 151.008536 
L 140.99768 152.400549 
L 141.380309 155.227221 
L 141.762938 156.180766 
L 142.910823 162.234373 
L 143.293452 162.827677 
L 143.67608 165.630405 
L 144.058709 166.768979 
L 145.971852 173.936558 
L 146.35448 177.412987 
L 146.737109 177.675312 
L 147.502366 181.490382 
L 147.884995 182.54486 
L 148.267623 182.90367 
L 149.415509 188.099251 
L 150.180766 188.767594 
L 150.946023 190.668759 
L 151.328652 191.110353 
L 151.71128 192.003394 
L 152.093909 192.369474 
L 152.476538 193.513029 
L 152.859166 192.143499 
L 153.241795 193.786688 
L 153.624423 193.736517 
L 154.007052 194.314938 
L 154.38968 193.453736 
L 155.154938 193.158838 
L 155.537566 192.175135 
L 155.920195 192.641261 
L 156.302823 191.425288 
L 157.06808 190.301497 
L 157.450709 190.202964 
L 157.833338 188.14786 
L 158.215966 187.484998 
L 158.598595 185.95676 
L 159.363852 184.090496 
L 159.74648 184.094838 
L 160.129109 182.549183 
L 160.511738 180.125497 
L 162.042252 173.978511 
L 162.42488 173.003573 
L 162.807509 171.350356 
L 163.190138 168.58819 
L 163.572766 167.924177 
L 165.485909 158.38533 
L 165.868538 157.501059 
L 166.633795 152.22604 
L 167.016423 150.647343 
L 167.399052 149.892491 
L 169.312195 141.174144 
L 169.694823 140.699501 
L 170.077452 137.679217 
L 170.46008 137.257816 
L 170.842709 135.105317 
L 171.225338 133.69259 
L 171.607966 133.725733 
L 171.990595 131.535642 
L 172.373223 131.965473 
L 172.755852 128.765382 
L 173.13848 128.436317 
L 173.521109 128.635327 
L 173.903738 125.785409 
L 174.286366 126.213176 
L 174.668995 124.282863 
L 175.051623 123.898801 
L 175.434252 123.821989 
L 175.81688 123.386718 
L 176.199509 124.035357 
L 176.582138 122.103911 
L 177.347395 121.815523 
L 177.730023 122.300218 
L 178.112652 122.403076 
L 178.877909 121.875783 
L 179.260538 122.887366 
L 179.643166 122.861652 
L 180.025795 123.080225 
L 180.408423 123.16594 
L 180.791052 122.955938 
L 181.17368 124.791115 
L 181.556309 125.203279 
L 181.938938 126.547428 
L 182.321566 125.836614 
L 182.704195 127.298777 
L 183.086823 126.852063 
L 183.469452 128.478448 
L 184.234709 130.307396 
L 184.617338 132.27749 
L 184.999966 133.373587 
L 185.382595 132.755916 
L 185.765223 134.156594 
L 186.147852 136.54407 
L 186.53048 136.445053 
L 186.913109 138.065431 
L 187.678366 140.15939 
L 188.060995 141.861558 
L 188.443623 141.718347 
L 188.826252 143.882479 
L 189.20888 144.66895 
L 190.739395 148.784562 
L 191.122023 150.594585 
L 191.504652 150.355142 
L 191.88728 151.885139 
L 192.269909 152.599408 
L 192.652538 152.713042 
L 193.035166 153.321794 
L 193.417795 154.600173 
L 194.183052 155.903667 
L 194.56568 156.893887 
L 194.948309 157.073186 
L 195.713566 158.898777 
L 196.096195 159.029176 
L 196.861452 160.345395 
L 197.24408 159.827872 
L 197.626709 159.546699 
L 198.009338 159.868622 
L 198.391966 159.770823 
L 198.774595 160.447269 
L 199.157223 159.595599 
L 199.539852 159.208476 
L 199.92248 159.660798 
L 200.305109 158.625753 
L 200.687738 158.931377 
L 201.070366 159.432599 
L 201.835623 157.888182 
L 202.218252 156.082966 
L 202.60088 156.694213 
L 202.983509 155.834393 
L 203.366138 156.343765 
L 204.131395 154.076646 
L 204.514023 154.417548 
L 204.896652 153.954896 
L 205.27928 151.434663 
L 205.661909 151.653813 
L 206.427166 149.961483 
L 206.809795 148.890079 
L 207.192423 148.369031 
L 207.575052 147.47661 
L 207.95768 146.897963 
L 208.722938 144.477426 
L 209.105566 144.021028 
L 209.488195 143.951753 
L 210.63608 140.404895 
L 211.018709 140.102106 
L 211.401338 139.154225 
L 211.783966 138.566687 
L 212.166595 138.316059 
L 212.549223 137.777825 
L 212.931852 137.572392 
L 213.31448 136.350161 
L 213.697109 136.48631 
L 214.079738 135.28573 
L 214.462366 136.061362 
L 214.844995 134.968602 
L 215.227623 135.61166 
L 215.610252 133.825163 
L 215.99288 134.463169 
L 216.375509 134.359596 
L 216.758138 133.626304 
L 217.140766 134.653742 
L 217.523395 134.305739 
L 217.906023 134.512883 
L 218.288652 134.272595 
L 218.67128 135.66942 
L 219.053909 136.119122 
L 219.436538 135.516769 
L 219.819166 136.993771 
L 220.201795 136.964891 
L 220.584423 138.451644 
L 220.967052 138.295515 
L 221.34968 139.671915 
L 221.732309 139.540438 
L 222.114938 141.165961 
L 222.497566 141.550585 
L 223.262823 143.862104 
L 223.645452 145.345396 
L 224.02808 146.229667 
L 224.410709 147.505135 
L 224.793338 148.206032 
L 225.175966 150.176575 
L 225.558595 151.028828 
L 225.941223 152.672458 
L 226.70648 154.950122 
L 227.089109 156.319315 
L 227.471738 158.707253 
L 229.002252 164.894956 
L 229.767509 166.884499 
L 230.532766 171.238029 
L 230.915395 171.942435 
L 231.298023 174.507123 
L 231.680652 175.774842 
L 232.06328 176.558317 
L 233.211166 181.057858 
L 233.976423 183.193312 
L 235.124309 187.52477 
L 235.506938 187.436388 
L 236.272195 190.243273 
L 236.654823 190.489607 
L 237.037452 192.22485 
L 237.42008 192.818327 
L 237.802709 193.686346 
L 238.185338 193.522151 
L 238.567966 195.428083 
L 238.950595 194.947253 
L 239.715852 195.742275 
L 240.09848 197.411147 
L 240.481109 196.942187 
L 240.863738 197.053696 
L 241.246366 196.779569 
L 242.011623 197.803262 
L 242.394252 196.733107 
L 242.77688 197.30845 
L 243.159509 196.654121 
L 243.542138 195.704276 
L 243.924766 196.59372 
L 244.690023 194.995382 
L 245.072652 194.777719 
L 245.45528 193.440054 
L 245.837909 192.682122 
L 246.220538 191.56026 
L 246.603166 190.856868 
L 246.985795 189.678244 
L 247.751052 188.262757 
L 248.13368 186.416676 
L 248.516309 185.401118 
L 248.898938 183.929846 
L 249.281566 183.236542 
L 249.664195 181.374166 
L 250.046823 180.78357 
L 250.81208 176.85449 
L 251.577338 174.322529 
L 252.342595 170.613995 
L 252.725223 170.150062 
L 252.725223 170.150062 
" style="fill:none;stroke:#d62728;stroke-linecap:square;stroke-width:1.5;"/>
   </g>
   <g id="line2d_27">
    <path clip-path="url(#p304c686b55)" d="M 61.410938 23.543308 
L 418.530938 23.543308 
" style="fill:none;stroke:#99aaaa;stroke-dasharray:9.6,2.4,1.5,2.4;stroke-dashoffset:0;stroke-width:1.5;"/>
   </g>
   <g id="line2d_28">
    <defs>
     <path d="M -3 3 
L 3 3 
L 3 -3 
L -3 -3 
z
" id="m9e0ac68bfd" style="stroke:#1f77b4;stroke-linejoin:miter;"/>
    </defs>
    <g clip-path="url(#p304c686b55)">
     <use style="fill:#1f77b4;stroke:#1f77b4;stroke-linejoin:miter;" x="61.410938" xlink:href="#m9e0ac68bfd" y="278.419468"/>
     <use style="fill:#1f77b4;stroke:#1f77b4;stroke-linejoin:miter;" x="72.889795" xlink:href="#m9e0ac68bfd" y="227.332828"/>
     <use style="fill:#1f77b4;stroke:#1f77b4;stroke-linejoin:miter;" x="84.368652" xlink:href="#m9e0ac68bfd" y="122.028091"/>
     <use style="fill:#1f77b4;stroke:#1f77b4;stroke-linejoin:miter;" x="95.847509" xlink:href="#m9e0ac68bfd" y="58.800243"/>
     <use style="fill:#1f77b4;stroke:#1f77b4;stroke-linejoin:miter;" x="107.326366" xlink:href="#m9e0ac68bfd" y="69.744349"/>
     <use style="fill:#1f77b4;stroke:#1f77b4;stroke-linejoin:miter;" x="118.805223" xlink:href="#m9e0ac68bfd" y="138.011186"/>
     <use style="fill:#1f77b4;stroke:#1f77b4;stroke-linejoin:miter;" x="130.28408" xlink:href="#m9e0ac68bfd" y="224.052915"/>
     <use style="fill:#1f77b4;stroke:#1f77b4;stroke-linejoin:miter;" x="141.762938" xlink:href="#m9e0ac68bfd" y="268.490121"/>
     <use style="fill:#1f77b4;stroke:#1f77b4;stroke-linejoin:miter;" x="153.241795" xlink:href="#m9e0ac68bfd" y="220.218642"/>
     <use style="fill:#1f77b4;stroke:#1f77b4;stroke-linejoin:miter;" x="164.720652" xlink:href="#m9e0ac68bfd" y="101.79156"/>
     <use style="fill:#1f77b4;stroke:#1f77b4;stroke-linejoin:miter;" x="176.199509" xlink:href="#m9e0ac68bfd" y="46.908658"/>
     <use style="fill:#1f77b4;stroke:#1f77b4;stroke-linejoin:miter;" x="187.678366" xlink:href="#m9e0ac68bfd" y="63.977198"/>
     <use style="fill:#1f77b4;stroke:#1f77b4;stroke-linejoin:miter;" x="199.157223" xlink:href="#m9e0ac68bfd" y="137.35207"/>
     <use style="fill:#1f77b4;stroke:#1f77b4;stroke-linejoin:miter;" x="210.63608" xlink:href="#m9e0ac68bfd" y="227.44367"/>
     <use style="fill:#1f77b4;stroke:#1f77b4;stroke-linejoin:miter;" x="222.114938" xlink:href="#m9e0ac68bfd" y="254.648462"/>
     <use style="fill:#1f77b4;stroke:#1f77b4;stroke-linejoin:miter;" x="233.593795" xlink:href="#m9e0ac68bfd" y="219.943912"/>
     <use style="fill:#1f77b4;stroke:#1f77b4;stroke-linejoin:miter;" x="245.072652" xlink:href="#m9e0ac68bfd" y="123.778828"/>
     <use style="fill:#1f77b4;stroke:#1f77b4;stroke-linejoin:miter;" x="256.551509" xlink:href="#m9e0ac68bfd" y="46.006659"/>
     <use style="fill:#1f77b4;stroke:#1f77b4;stroke-linejoin:miter;" x="268.030366" xlink:href="#m9e0ac68bfd" y="70.354828"/>
     <use style="fill:#1f77b4;stroke:#1f77b4;stroke-linejoin:miter;" x="279.509223" xlink:href="#m9e0ac68bfd" y="148.477217"/>
     <use style="fill:#1f77b4;stroke:#1f77b4;stroke-linejoin:miter;" x="290.98808" xlink:href="#m9e0ac68bfd" y="223.213151"/>
     <use style="fill:#1f77b4;stroke:#1f77b4;stroke-linejoin:miter;" x="302.466938" xlink:href="#m9e0ac68bfd" y="248.054942"/>
     <use style="fill:#1f77b4;stroke:#1f77b4;stroke-linejoin:miter;" x="313.945795" xlink:href="#m9e0ac68bfd" y="208.638988"/>
     <use style="fill:#1f77b4;stroke:#1f77b4;stroke-linejoin:miter;" x="325.424652" xlink:href="#m9e0ac68bfd" y="122.286213"/>
     <use style="fill:#1f77b4;stroke:#1f77b4;stroke-linejoin:miter;" x="336.903509" xlink:href="#m9e0ac68bfd" y="43.652338"/>
     <use style="fill:#1f77b4;stroke:#1f77b4;stroke-linejoin:miter;" x="348.382366" xlink:href="#m9e0ac68bfd" y="65.131555"/>
     <use style="fill:#1f77b4;stroke:#1f77b4;stroke-linejoin:miter;" x="359.861223" xlink:href="#m9e0ac68bfd" y="139.708068"/>
     <use style="fill:#1f77b4;stroke:#1f77b4;stroke-linejoin:miter;" x="371.34008" xlink:href="#m9e0ac68bfd" y="212.482828"/>
     <use style="fill:#1f77b4;stroke:#1f77b4;stroke-linejoin:miter;" x="382.818938" xlink:href="#m9e0ac68bfd" y="247.448707"/>
     <use style="fill:#1f77b4;stroke:#1f77b4;stroke-linejoin:miter;" x="394.297795" xlink:href="#m9e0ac68bfd" y="200.2634"/>
     <use style="fill:#1f77b4;stroke:#1f77b4;stroke-linejoin:miter;" x="405.776652" xlink:href="#m9e0ac68bfd" y="122.73279"/>
    </g>
   </g>
   <g id="line2d_29">
    <defs>
     <path d="M 0 3 
C 0.795609 3 1.55874 2.683901 2.12132 2.12132 
C 2.683901 1.55874 3 0.795609 3 0 
C 3 -0.795609 2.683901 -1.55874 2.12132 -2.12132 
C 1.55874 -2.683901 0.795609 -3 0 -3 
C -0.795609 -3 -1.55874 -2.683901 -2.12132 -2.12132 
C -2.683901 -1.55874 -3 -0.795609 -3 0 
C -3 0.795609 -2.683901 1.55874 -2.12132 2.12132 
C -1.55874 2.683901 -0.795609 3 0 3 
z
" id="m4d17eb6f4c" style="stroke:#d62728;"/>
    </defs>
    <g clip-path="url(#p304c686b55)">
     <use style="fill:#d62728;stroke:#d62728;" x="61.410938" xlink:href="#m4d17eb6f4c" y="271.284996"/>
     <use style="fill:#d62728;stroke:#d62728;" x="72.889795" xlink:href="#m4d17eb6f4c" y="170.285068"/>
     <use style="fill:#d62728;stroke:#d62728;" x="84.368652" xlink:href="#m4d17eb6f4c" y="90.589244"/>
     <use style="fill:#d62728;stroke:#d62728;" x="95.847509" xlink:href="#m4d17eb6f4c" y="99.868392"/>
     <use style="fill:#d62728;stroke:#d62728;" x="107.326366" xlink:href="#m4d17eb6f4c" y="166.424982"/>
     <use style="fill:#d62728;stroke:#d62728;" x="118.805223" xlink:href="#m4d17eb6f4c" y="166.142635"/>
     <use style="fill:#d62728;stroke:#d62728;" x="130.28408" xlink:href="#m4d17eb6f4c" y="127.280302"/>
     <use style="fill:#d62728;stroke:#d62728;" x="141.762938" xlink:href="#m4d17eb6f4c" y="168.285905"/>
     <use style="fill:#d62728;stroke:#d62728;" x="153.241795" xlink:href="#m4d17eb6f4c" y="195.401315"/>
     <use style="fill:#d62728;stroke:#d62728;" x="164.720652" xlink:href="#m4d17eb6f4c" y="142.805574"/>
     <use style="fill:#d62728;stroke:#d62728;" x="176.199509" xlink:href="#m4d17eb6f4c" y="136.807228"/>
     <use style="fill:#d62728;stroke:#d62728;" x="187.678366" xlink:href="#m4d17eb6f4c" y="125.352609"/>
     <use style="fill:#d62728;stroke:#d62728;" x="199.157223" xlink:href="#m4d17eb6f4c" y="159.747218"/>
     <use style="fill:#d62728;stroke:#d62728;" x="210.63608" xlink:href="#m4d17eb6f4c" y="144.281168"/>
     <use style="fill:#d62728;stroke:#d62728;" x="222.114938" xlink:href="#m4d17eb6f4c" y="146.807751"/>
     <use style="fill:#d62728;stroke:#d62728;" x="233.593795" xlink:href="#m4d17eb6f4c" y="169.990751"/>
    </g>
   </g>
   <g id="patch_3">
    <path d="M 61.410938 279.010828 
L 61.410938 12.898828 
" style="fill:none;stroke:#000000;stroke-linecap:square;stroke-linejoin:miter;stroke-width:0.8;"/>
   </g>
   <g id="patch_4">
    <path d="M 418.530938 279.010828 
L 418.530938 12.898828 
" style="fill:none;stroke:#000000;stroke-linecap:square;stroke-linejoin:miter;stroke-width:0.8;"/>
   </g>
   <g id="patch_5">
    <path d="M 61.410938 279.010828 
L 418.530938 279.010828 
" style="fill:none;stroke:#000000;stroke-linecap:square;stroke-linejoin:miter;stroke-width:0.8;"/>
   </g>
   <g id="patch_6">
    <path d="M 61.410938 12.898828 
L 418.530938 12.898828 
" style="fill:none;stroke:#000000;stroke-linecap:square;stroke-linejoin:miter;stroke-width:0.8;"/>
   </g>
  </g>
 </g>
 <defs>
  <clipPath id="p304c686b55">
   <rect height="266.112" width="357.12" x="61.410938" y="12.898828"/>
  </clipPath>
 </defs>
</svg>
