<?xml version="1.0" encoding="utf-8" standalone="no"?>
<!DOCTYPE svg PUBLIC "-//W3C//DTD SVG 1.1//EN"
  "http://www.w3.org/Graphics/SVG/1.1/DTD/svg11.dtd">
<!-- Created with matplotlib (https://matplotlib.org/) -->
<svg height="331.128016pt" version="1.1" viewBox="0 0 425.730937 331.128016" width="425.730937pt" xmlns="http://www.w3.org/2000/svg" xmlns:xlink="http://www.w3.org/1999/xlink">
 <defs>
  <style type="text/css">*{stroke-linecap:butt;stroke-linejoin:round;}</style>
 </defs>
 <g id="figure_1">
  <g id="patch_1">
   <path d="M 0 331.128016 
L 425.730937 331.128016 
L 425.730937 0 
L 0 0 
z
" style="fill:none;"/>
  </g>
  <g id="axes_1">
   <g id="patch_2">
    <path d="M 61.410938 279.010828 
L 418.530938 279.010828 
L 418.530938 12.898828 
L 61.410938 12.898828 
z
" style="fill:none;"/>
   </g>
   <g id="matplotlib.axis_1">
    <g id="xtick_1">
     <g id="line2d_1">
      <path clip-path="url(#p304c686b55)" d="M 61.410938 279.010828 
L 61.410938 12.898828 
" style="fill:none;stroke:#b0b0b0;stroke-linecap:square;stroke-width:0.8;"/>
     </g>
     <g id="line2d_2">
      <defs>
       <path d="M 0 0 
L 0 3.5 
" id="m005f0a59be" style="stroke:#000000;stroke-width:0.8;"/>
      </defs>
      <g>
       <use style="stroke:#000000;stroke-width:0.8;" x="61.410938" xlink:href="#m005f0a59be" y="279.010828"/>
      </g>
     </g>
     <g id="text_1">
      <!-- 0 -->
      <g transform="translate(56.639063 297.408484)scale(0.15 -0.15)">
       <defs>
        <path d="M 31.78125 66.40625 
Q 24.171875 66.40625 20.328125 58.90625 
Q 16.5 51.421875 16.5 36.375 
Q 16.5 21.390625 20.328125 13.890625 
Q 24.171875 6.390625 31.78125 6.390625 
Q 39.453125 6.390625 43.28125 13.890625 
Q 47.125 21.390625 47.125 36.375 
Q 47.125 51.421875 43.28125 58.90625 
Q 39.453125 66.40625 31.78125 66.40625 
z
M 31.78125 74.21875 
Q 44.046875 74.21875 50.515625 64.515625 
Q 56.984375 54.828125 56.984375 36.375 
Q 56.984375 17.96875 50.515625 8.265625 
Q 44.046875 -1.421875 31.78125 -1.421875 
Q 19.53125 -1.421875 13.0625 8.265625 
Q 6.59375 17.96875 6.59375 36.375 
Q 6.59375 54.828125 13.0625 64.515625 
Q 19.53125 74.21875 31.78125 74.21875 
z
" id="DejaVuSans-48"/>
       </defs>
       <use xlink:href="#DejaVuSans-48"/>
      </g>
     </g>
    </g>
    <g id="xtick_2">
     <g id="line2d_3">
      <path clip-path="url(#p304c686b55)" d="M 125.182366 279.010828 
L 125.182366 12.898828 
" style="fill:none;stroke:#b0b0b0;stroke-linecap:square;stroke-width:0.8;"/>
     </g>
     <g id="line2d_4">
      <g>
       <use style="stroke:#000000;stroke-width:0.8;" x="125.182366" xlink:href="#m005f0a59be" y="279.010828"/>
      </g>
     </g>
     <g id="text_2">
      <!-- 50 -->
      <g transform="translate(115.638616 297.408484)scale(0.15 -0.15)">
       <defs>
        <path d="M 10.796875 72.90625 
L 49.515625 72.90625 
L 49.515625 64.59375 
L 19.828125 64.59375 
L 19.828125 46.734375 
Q 21.96875 47.46875 24.109375 47.828125 
Q 26.265625 48.1875 28.421875 48.1875 
Q 40.625 48.1875 47.75 41.5 
Q 54.890625 34.8125 54.890625 23.390625 
Q 54.890625 11.625 47.5625 5.09375 
Q 40.234375 -1.421875 26.90625 -1.421875 
Q 22.3125 -1.421875 17.546875 -0.640625 
Q 12.796875 0.140625 7.71875 1.703125 
L 7.71875 11.625 
Q 12.109375 9.234375 16.796875 8.0625 
Q 21.484375 6.890625 26.703125 6.890625 
Q 35.15625 6.890625 40.078125 11.328125 
Q 45.015625 15.765625 45.015625 23.390625 
Q 45.015625 31 40.078125 35.4375 
Q 35.15625 39.890625 26.703125 39.890625 
Q 22.75 39.890625 18.8125 39.015625 
Q 14.890625 38.140625 10.796875 36.28125 
z
" id="DejaVuSans-53"/>
       </defs>
       <use xlink:href="#DejaVuSans-53"/>
       <use x="63.623047" xlink:href="#DejaVuSans-48"/>
      </g>
     </g>
    </g>
    <g id="xtick_3">
     <g id="line2d_5">
      <path clip-path="url(#p304c686b55)" d="M 188.953795 279.010828 
L 188.953795 12.898828 
" style="fill:none;stroke:#b0b0b0;stroke-linecap:square;stroke-width:0.8;"/>
     </g>
     <g id="line2d_6">
      <g>
       <use style="stroke:#000000;stroke-width:0.8;" x="188.953795" xlink:href="#m005f0a59be" y="279.010828"/>
      </g>
     </g>
     <g id="text_3">
      <!-- 100 -->
      <g transform="translate(174.63817 297.408484)scale(0.15 -0.15)">
       <defs>
        <path d="M 12.40625 8.296875 
L 28.515625 8.296875 
L 28.515625 63.921875 
L 10.984375 60.40625 
L 10.984375 69.390625 
L 28.421875 72.90625 
L 38.28125 72.90625 
L 38.28125 8.296875 
L 54.390625 8.296875 
L 54.390625 0 
L 12.40625 0 
z
" id="DejaVuSans-49"/>
       </defs>
       <use xlink:href="#DejaVuSans-49"/>
       <use x="63.623047" xlink:href="#DejaVuSans-48"/>
       <use x="127.246094" xlink:href="#DejaVuSans-48"/>
      </g>
     </g>
    </g>
    <g id="xtick_4">
     <g id="line2d_7">
      <path clip-path="url(#p304c686b55)" d="M 252.725223 279.010828 
L 252.725223 12.898828 
" style="fill:none;stroke:#b0b0b0;stroke-linecap:square;stroke-width:0.8;"/>
     </g>
     <g id="line2d_8">
      <g>
       <use style="stroke:#000000;stroke-width:0.8;" x="252.725223" xlink:href="#m005f0a59be" y="279.010828"/>
      </g>
     </g>
     <g id="text_4">
      <!-- 150 -->
      <g transform="translate(238.409598 297.408484)scale(0.15 -0.15)">
       <use xlink:href="#DejaVuSans-49"/>
       <use x="63.623047" xlink:href="#DejaVuSans-53"/>
       <use x="127.246094" xlink:href="#DejaVuSans-48"/>
      </g>
     </g>
    </g>
    <g id="xtick_5">
     <g id="line2d_9">
      <path clip-path="url(#p304c686b55)" d="M 316.496652 279.010828 
L 316.496652 12.898828 
" style="fill:none;stroke:#b0b0b0;stroke-linecap:square;stroke-width:0.8;"/>
     </g>
     <g id="line2d_10">
      <g>
       <use style="stroke:#000000;stroke-width:0.8;" x="316.496652" xlink:href="#m005f0a59be" y="279.010828"/>
      </g>
     </g>
     <g id="text_5">
      <!-- 200 -->
      <g transform="translate(302.181027 297.408484)scale(0.15 -0.15)">
       <defs>
        <path d="M 19.1875 8.296875 
L 53.609375 8.296875 
L 53.609375 0 
L 7.328125 0 
L 7.328125 8.296875 
Q 12.9375 14.109375 22.625 23.890625 
Q 32.328125 33.6875 34.8125 36.53125 
Q 39.546875 41.84375 41.421875 45.53125 
Q 43.3125 49.21875 43.3125 52.78125 
Q 43.3125 58.59375 39.234375 62.25 
Q 35.15625 65.921875 28.609375 65.921875 
Q 23.96875 65.921875 18.8125 64.3125 
Q 13.671875 62.703125 7.8125 59.421875 
L 7.8125 69.390625 
Q 13.765625 71.78125 18.9375 73 
Q 24.125 74.21875 28.421875 74.21875 
Q 39.75 74.21875 46.484375 68.546875 
Q 53.21875 62.890625 53.21875 53.421875 
Q 53.21875 48.921875 51.53125 44.890625 
Q 49.859375 40.875 45.40625 35.40625 
Q 44.1875 33.984375 37.640625 27.21875 
Q 31.109375 20.453125 19.1875 8.296875 
z
" id="DejaVuSans-50"/>
       </defs>
       <use xlink:href="#DejaVuSans-50"/>
       <use x="63.623047" xlink:href="#DejaVuSans-48"/>
       <use x="127.246094" xlink:href="#DejaVuSans-48"/>
      </g>
     </g>
    </g>
    <g id="xtick_6">
     <g id="line2d_11">
      <path clip-path="url(#p304c686b55)" d="M 380.26808 279.010828 
L 380.26808 12.898828 
" style="fill:none;stroke:#b0b0b0;stroke-linecap:square;stroke-width:0.8;"/>
     </g>
     <g id="line2d_12">
      <g>
       <use style="stroke:#000000;stroke-width:0.8;" x="380.26808" xlink:href="#m005f0a59be" y="279.010828"/>
      </g>
     </g>
     <g id="text_6">
      <!-- 250 -->
      <g transform="translate(365.952455 297.408484)scale(0.15 -0.15)">
       <use xlink:href="#DejaVuSans-50"/>
       <use x="63.623047" xlink:href="#DejaVuSans-53"/>
       <use x="127.246094" xlink:href="#DejaVuSans-48"/>
      </g>
     </g>
    </g>
    <g id="text_7">
     <!-- Time ($\mathrm{\mu s}$) -->
     <g transform="translate(192.570938 319.728016)scale(0.2 -0.2)">
      <defs>
       <path d="M -0.296875 72.90625 
L 61.375 72.90625 
L 61.375 64.59375 
L 35.5 64.59375 
L 35.5 0 
L 25.59375 0 
L 25.59375 64.59375 
L -0.296875 64.59375 
z
" id="DejaVuSans-84"/>
       <path d="M 9.421875 54.6875 
L 18.40625 54.6875 
L 18.40625 0 
L 9.421875 0 
z
M 9.421875 75.984375 
L 18.40625 75.984375 
L 18.40625 64.59375 
L 9.421875 64.59375 
z
" id="DejaVuSans-105"/>
       <path d="M 52 44.1875 
Q 55.375 50.25 60.0625 53.125 
Q 64.75 56 71.09375 56 
Q 79.640625 56 84.28125 50.015625 
Q 88.921875 44.046875 88.921875 33.015625 
L 88.921875 0 
L 79.890625 0 
L 79.890625 32.71875 
Q 79.890625 40.578125 77.09375 44.375 
Q 74.3125 48.1875 68.609375 48.1875 
Q 61.625 48.1875 57.5625 43.546875 
Q 53.515625 38.921875 53.515625 30.90625 
L 53.515625 0 
L 44.484375 0 
L 44.484375 32.71875 
Q 44.484375 40.625 41.703125 44.40625 
Q 38.921875 48.1875 33.109375 48.1875 
Q 26.21875 48.1875 22.15625 43.53125 
Q 18.109375 38.875 18.109375 30.90625 
L 18.109375 0 
L 9.078125 0 
L 9.078125 54.6875 
L 18.109375 54.6875 
L 18.109375 46.1875 
Q 21.1875 51.21875 25.484375 53.609375 
Q 29.78125 56 35.6875 56 
Q 41.65625 56 45.828125 52.96875 
Q 50 49.953125 52 44.1875 
z
" id="DejaVuSans-109"/>
       <path d="M 56.203125 29.59375 
L 56.203125 25.203125 
L 14.890625 25.203125 
Q 15.484375 15.921875 20.484375 11.0625 
Q 25.484375 6.203125 34.421875 6.203125 
Q 39.59375 6.203125 44.453125 7.46875 
Q 49.3125 8.734375 54.109375 11.28125 
L 54.109375 2.78125 
Q 49.265625 0.734375 44.1875 -0.34375 
Q 39.109375 -1.421875 33.890625 -1.421875 
Q 20.796875 -1.421875 13.15625 6.1875 
Q 5.515625 13.8125 5.515625 26.8125 
Q 5.515625 40.234375 12.765625 48.109375 
Q 20.015625 56 32.328125 56 
Q 43.359375 56 49.78125 48.890625 
Q 56.203125 41.796875 56.203125 29.59375 
z
M 47.21875 32.234375 
Q 47.125 39.59375 43.09375 43.984375 
Q 39.0625 48.390625 32.421875 48.390625 
Q 24.90625 48.390625 20.390625 44.140625 
Q 15.875 39.890625 15.1875 32.171875 
z
" id="DejaVuSans-101"/>
       <path id="DejaVuSans-32"/>
       <path d="M 31 75.875 
Q 24.46875 64.65625 21.28125 53.65625 
Q 18.109375 42.671875 18.109375 31.390625 
Q 18.109375 20.125 21.3125 9.0625 
Q 24.515625 -2 31 -13.1875 
L 23.1875 -13.1875 
Q 15.875 -1.703125 12.234375 9.375 
Q 8.59375 20.453125 8.59375 31.390625 
Q 8.59375 42.28125 12.203125 53.3125 
Q 15.828125 64.359375 23.1875 75.875 
z
" id="DejaVuSans-40"/>
       <path d="M 8.5 -20.796875 
L 8.5 54.6875 
L 17.484375 54.6875 
L 17.484375 20.703125 
Q 17.484375 13.625 20.84375 10 
Q 24.21875 6.390625 30.8125 6.390625 
Q 38.03125 6.390625 41.671875 10.484375 
Q 45.3125 14.59375 45.3125 22.796875 
L 45.3125 54.6875 
L 54.296875 54.6875 
L 54.296875 12.59375 
Q 54.296875 9.671875 55.140625 8.28125 
Q 56 6.890625 57.8125 6.890625 
Q 58.25 6.890625 59.03125 7.15625 
Q 59.8125 7.421875 61.1875 8.015625 
L 61.1875 0.78125 
Q 59.1875 -0.34375 57.390625 -0.875 
Q 55.609375 -1.421875 53.90625 -1.421875 
Q 50.53125 -1.421875 48.53125 0.484375 
Q 46.53125 2.390625 45.796875 6.296875 
Q 43.359375 2.4375 39.8125 0.5 
Q 36.28125 -1.421875 31.5 -1.421875 
Q 26.515625 -1.421875 23.015625 0.484375 
Q 19.53125 2.390625 17.484375 6.203125 
L 17.484375 -20.796875 
z
" id="DejaVuSans-956"/>
       <path d="M 44.28125 53.078125 
L 44.28125 44.578125 
Q 40.484375 46.53125 36.375 47.5 
Q 32.28125 48.484375 27.875 48.484375 
Q 21.1875 48.484375 17.84375 46.4375 
Q 14.5 44.390625 14.5 40.28125 
Q 14.5 37.15625 16.890625 35.375 
Q 19.28125 33.59375 26.515625 31.984375 
L 29.59375 31.296875 
Q 39.15625 29.25 43.1875 25.515625 
Q 47.21875 21.78125 47.21875 15.09375 
Q 47.21875 7.46875 41.1875 3.015625 
Q 35.15625 -1.421875 24.609375 -1.421875 
Q 20.21875 -1.421875 15.453125 -0.5625 
Q 10.6875 0.296875 5.421875 2 
L 5.421875 11.28125 
Q 10.40625 8.6875 15.234375 7.390625 
Q 20.0625 6.109375 24.8125 6.109375 
Q 31.15625 6.109375 34.5625 8.28125 
Q 37.984375 10.453125 37.984375 14.40625 
Q 37.984375 18.0625 35.515625 20.015625 
Q 33.0625 21.96875 24.703125 23.78125 
L 21.578125 24.515625 
Q 13.234375 26.265625 9.515625 29.90625 
Q 5.8125 33.546875 5.8125 39.890625 
Q 5.8125 47.609375 11.28125 51.796875 
Q 16.75 56 26.8125 56 
Q 31.78125 56 36.171875 55.265625 
Q 40.578125 54.546875 44.28125 53.078125 
z
" id="DejaVuSans-115"/>
       <path d="M 8.015625 75.875 
L 15.828125 75.875 
Q 23.140625 64.359375 26.78125 53.3125 
Q 30.421875 42.28125 30.421875 31.390625 
Q 30.421875 20.453125 26.78125 9.375 
Q 23.140625 -1.703125 15.828125 -13.1875 
L 8.015625 -13.1875 
Q 14.5 -2 17.703125 9.0625 
Q 20.90625 20.125 20.90625 31.390625 
Q 20.90625 42.671875 17.703125 53.65625 
Q 14.5 64.65625 8.015625 75.875 
z
" id="DejaVuSans-41"/>
      </defs>
      <use transform="translate(0 0.015625)" xlink:href="#DejaVuSans-84"/>
      <use transform="translate(61.083984 0.015625)" xlink:href="#DejaVuSans-105"/>
      <use transform="translate(88.867188 0.015625)" xlink:href="#DejaVuSans-109"/>
      <use transform="translate(186.279297 0.015625)" xlink:href="#DejaVuSans-101"/>
      <use transform="translate(247.802734 0.015625)" xlink:href="#DejaVuSans-32"/>
      <use transform="translate(279.589844 0.015625)" xlink:href="#DejaVuSans-40"/>
      <use transform="translate(318.603516 0.015625)" xlink:href="#DejaVuSans-956"/>
      <use transform="translate(382.226562 0.015625)" xlink:href="#DejaVuSans-115"/>
      <use transform="translate(434.326172 0.015625)" xlink:href="#DejaVuSans-41"/>
     </g>
    </g>
   </g>
   <g id="matplotlib.axis_2">
    <g id="ytick_1">
     <g id="line2d_13">
      <path clip-path="url(#p304c686b55)" d="M 61.410938 279.010828 
L 418.530938 279.010828 
" style="fill:none;stroke:#b0b0b0;stroke-linecap:square;stroke-width:0.8;"/>
     </g>
     <g id="line2d_14">
      <defs>
       <path d="M 0 0 
L -3.5 0 
" id="mc3ce260a5b" style="stroke:#000000;stroke-width:0.8;"/>
      </defs>
      <g>
       <use style="stroke:#000000;stroke-width:0.8;" x="61.410938" xlink:href="#mc3ce260a5b" y="279.010828"/>
      </g>
     </g>
     <g id="text_8">
      <!-- 0.0 -->
      <g transform="translate(30.55625 284.709656)scale(0.15 -0.15)">
       <defs>
        <path d="M 10.6875 12.40625 
L 21 12.40625 
L 21 0 
L 10.6875 0 
z
" id="DejaVuSans-46"/>
       </defs>
       <use xlink:href="#DejaVuSans-48"/>
       <use x="63.623047" xlink:href="#DejaVuSans-46"/>
       <use x="95.410156" xlink:href="#DejaVuSans-48"/>
      </g>
     </g>
    </g>
    <g id="ytick_2">
     <g id="line2d_15">
      <path clip-path="url(#p304c686b55)" d="M 61.410938 225.788428 
L 418.530938 225.788428 
" style="fill:none;stroke:#b0b0b0;stroke-linecap:square;stroke-width:0.8;"/>
     </g>
     <g id="line2d_16">
      <g>
       <use style="stroke:#000000;stroke-width:0.8;" x="61.410938" xlink:href="#mc3ce260a5b" y="225.788428"/>
      </g>
     </g>
     <g id="text_9">
      <!-- 0.2 -->
      <g transform="translate(30.55625 231.487256)scale(0.15 -0.15)">
       <use xlink:href="#DejaVuSans-48"/>
       <use x="63.623047" xlink:href="#DejaVuSans-46"/>
       <use x="95.410156" xlink:href="#DejaVuSans-50"/>
      </g>
     </g>
    </g>
    <g id="ytick_3">
     <g id="line2d_17">
      <path clip-path="url(#p304c686b55)" d="M 61.410938 172.566028 
L 418.530938 172.566028 
" style="fill:none;stroke:#b0b0b0;stroke-linecap:square;stroke-width:0.8;"/>
     </g>
     <g id="line2d_18">
      <g>
       <use style="stroke:#000000;stroke-width:0.8;" x="61.410938" xlink:href="#mc3ce260a5b" y="172.566028"/>
      </g>
     </g>
     <g id="text_10">
      <!-- 0.4 -->
      <g transform="translate(30.55625 178.264856)scale(0.15 -0.15)">
       <defs>
        <path d="M 37.796875 64.3125 
L 12.890625 25.390625 
L 37.796875 25.390625 
z
M 35.203125 72.90625 
L 47.609375 72.90625 
L 47.609375 25.390625 
L 58.015625 25.390625 
L 58.015625 17.1875 
L 47.609375 17.1875 
L 47.609375 0 
L 37.796875 0 
L 37.796875 17.1875 
L 4.890625 17.1875 
L 4.890625 26.703125 
z
" id="DejaVuSans-52"/>
       </defs>
       <use xlink:href="#DejaVuSans-48"/>
       <use x="63.623047" xlink:href="#DejaVuSans-46"/>
       <use x="95.410156" xlink:href="#DejaVuSans-52"/>
      </g>
     </g>
    </g>
    <g id="ytick_4">
     <g id="line2d_19">
      <path clip-path="url(#p304c686b55)" d="M 61.410938 119.343628 
L 418.530938 119.343628 
" style="fill:none;stroke:#b0b0b0;stroke-linecap:square;stroke-width:0.8;"/>
     </g>
     <g id="line2d_20">
      <g>
       <use style="stroke:#000000;stroke-width:0.8;" x="61.410938" xlink:href="#mc3ce260a5b" y="119.343628"/>
      </g>
     </g>
     <g id="text_11">
      <!-- 0.6 -->
      <g transform="translate(30.55625 125.042456)scale(0.15 -0.15)">
       <defs>
        <path d="M 33.015625 40.375 
Q 26.375 40.375 22.484375 35.828125 
Q 18.609375 31.296875 18.609375 23.390625 
Q 18.609375 15.53125 22.484375 10.953125 
Q 26.375 6.390625 33.015625 6.390625 
Q 39.65625 6.390625 43.53125 10.953125 
Q 47.40625 15.53125 47.40625 23.390625 
Q 47.40625 31.296875 43.53125 35.828125 
Q 39.65625 40.375 33.015625 40.375 
z
M 52.59375 71.296875 
L 52.59375 62.3125 
Q 48.875 64.0625 45.09375 64.984375 
Q 41.3125 65.921875 37.59375 65.921875 
Q 27.828125 65.921875 22.671875 59.328125 
Q 17.53125 52.734375 16.796875 39.40625 
Q 19.671875 43.65625 24.015625 45.921875 
Q 28.375 48.1875 33.59375 48.1875 
Q 44.578125 48.1875 50.953125 41.515625 
Q 57.328125 34.859375 57.328125 23.390625 
Q 57.328125 12.15625 50.6875 5.359375 
Q 44.046875 -1.421875 33.015625 -1.421875 
Q 20.359375 -1.421875 13.671875 8.265625 
Q 6.984375 17.96875 6.984375 36.375 
Q 6.984375 53.65625 15.1875 63.9375 
Q 23.390625 74.21875 37.203125 74.21875 
Q 40.921875 74.21875 44.703125 73.484375 
Q 48.484375 72.75 52.59375 71.296875 
z
" id="DejaVuSans-54"/>
       </defs>
       <use xlink:href="#DejaVuSans-48"/>
       <use x="63.623047" xlink:href="#DejaVuSans-46"/>
       <use x="95.410156" xlink:href="#DejaVuSans-54"/>
      </g>
     </g>
    </g>
    <g id="ytick_5">
     <g id="line2d_21">
      <path clip-path="url(#p304c686b55)" d="M 61.410938 66.121228 
L 418.530938 66.121228 
" style="fill:none;stroke:#b0b0b0;stroke-linecap:square;stroke-width:0.8;"/>
     </g>
     <g id="line2d_22">
      <g>
       <use style="stroke:#000000;stroke-width:0.8;" x="61.410938" xlink:href="#mc3ce260a5b" y="66.121228"/>
      </g>
     </g>
     <g id="text_12">
      <!-- 0.8 -->
      <g transform="translate(30.55625 71.820056)scale(0.15 -0.15)">
       <defs>
        <path d="M 31.78125 34.625 
Q 24.75 34.625 20.71875 30.859375 
Q 16.703125 27.09375 16.703125 20.515625 
Q 16.703125 13.921875 20.71875 10.15625 
Q 24.75 6.390625 31.78125 6.390625 
Q 38.8125 6.390625 42.859375 10.171875 
Q 46.921875 13.96875 46.921875 20.515625 
Q 46.921875 27.09375 42.890625 30.859375 
Q 38.875 34.625 31.78125 34.625 
z
M 21.921875 38.8125 
Q 15.578125 40.375 12.03125 44.71875 
Q 8.5 49.078125 8.5 55.328125 
Q 8.5 64.0625 14.71875 69.140625 
Q 20.953125 74.21875 31.78125 74.21875 
Q 42.671875 74.21875 48.875 69.140625 
Q 55.078125 64.0625 55.078125 55.328125 
Q 55.078125 49.078125 51.53125 44.71875 
Q 48 40.375 41.703125 38.8125 
Q 48.828125 37.15625 52.796875 32.3125 
Q 56.78125 27.484375 56.78125 20.515625 
Q 56.78125 9.90625 50.3125 4.234375 
Q 43.84375 -1.421875 31.78125 -1.421875 
Q 19.734375 -1.421875 13.25 4.234375 
Q 6.78125 9.90625 6.78125 20.515625 
Q 6.78125 27.484375 10.78125 32.3125 
Q 14.796875 37.15625 21.921875 38.8125 
z
M 18.3125 54.390625 
Q 18.3125 48.734375 21.84375 45.5625 
Q 25.390625 42.390625 31.78125 42.390625 
Q 38.140625 42.390625 41.71875 45.5625 
Q 45.3125 48.734375 45.3125 54.390625 
Q 45.3125 60.0625 41.71875 63.234375 
Q 38.140625 66.40625 31.78125 66.40625 
Q 25.390625 66.40625 21.84375 63.234375 
Q 18.3125 60.0625 18.3125 54.390625 
z
" id="DejaVuSans-56"/>
       </defs>
       <use xlink:href="#DejaVuSans-48"/>
       <use x="63.623047" xlink:href="#DejaVuSans-46"/>
       <use x="95.410156" xlink:href="#DejaVuSans-56"/>
      </g>
     </g>
    </g>
    <g id="ytick_6">
     <g id="line2d_23">
      <path clip-path="url(#p304c686b55)" d="M 61.410938 12.898828 
L 418.530938 12.898828 
" style="fill:none;stroke:#b0b0b0;stroke-linecap:square;stroke-width:0.8;"/>
     </g>
     <g id="line2d_24">
      <g>
       <use style="stroke:#000000;stroke-width:0.8;" x="61.410938" xlink:href="#mc3ce260a5b" y="12.898828"/>
      </g>
     </g>
     <g id="text_13">
      <!-- 1.0 -->
      <g transform="translate(30.55625 18.597656)scale(0.15 -0.15)">
       <use xlink:href="#DejaVuSans-49"/>
       <use x="63.623047" xlink:href="#DejaVuSans-46"/>
       <use x="95.410156" xlink:href="#DejaVuSans-48"/>
      </g>
     </g>
    </g>
    <g id="text_14">
     <!-- F=1 Population -->
     <g transform="translate(22.396875 222.159516)rotate(-90)scale(0.2 -0.2)">
      <defs>
       <path d="M 9.8125 72.90625 
L 51.703125 72.90625 
L 51.703125 64.59375 
L 19.671875 64.59375 
L 19.671875 43.109375 
L 48.578125 43.109375 
L 48.578125 34.8125 
L 19.671875 34.8125 
L 19.671875 0 
L 9.8125 0 
z
" id="DejaVuSans-70"/>
       <path d="M 10.59375 45.40625 
L 73.1875 45.40625 
L 73.1875 37.203125 
L 10.59375 37.203125 
z
M 10.59375 25.484375 
L 73.1875 25.484375 
L 73.1875 17.1875 
L 10.59375 17.1875 
z
" id="DejaVuSans-61"/>
       <path d="M 19.671875 64.796875 
L 19.671875 37.40625 
L 32.078125 37.40625 
Q 38.96875 37.40625 42.71875 40.96875 
Q 46.484375 44.53125 46.484375 51.125 
Q 46.484375 57.671875 42.71875 61.234375 
Q 38.96875 64.796875 32.078125 64.796875 
z
M 9.8125 72.90625 
L 32.078125 72.90625 
Q 44.34375 72.90625 50.609375 67.359375 
Q 56.890625 61.8125 56.890625 51.125 
Q 56.890625 40.328125 50.609375 34.8125 
Q 44.34375 29.296875 32.078125 29.296875 
L 19.671875 29.296875 
L 19.671875 0 
L 9.8125 0 
z
" id="DejaVuSans-80"/>
       <path d="M 30.609375 48.390625 
Q 23.390625 48.390625 19.1875 42.75 
Q 14.984375 37.109375 14.984375 27.296875 
Q 14.984375 17.484375 19.15625 11.84375 
Q 23.34375 6.203125 30.609375 6.203125 
Q 37.796875 6.203125 41.984375 11.859375 
Q 46.1875 17.53125 46.1875 27.296875 
Q 46.1875 37.015625 41.984375 42.703125 
Q 37.796875 48.390625 30.609375 48.390625 
z
M 30.609375 56 
Q 42.328125 56 49.015625 48.375 
Q 55.71875 40.765625 55.71875 27.296875 
Q 55.71875 13.875 49.015625 6.21875 
Q 42.328125 -1.421875 30.609375 -1.421875 
Q 18.84375 -1.421875 12.171875 6.21875 
Q 5.515625 13.875 5.515625 27.296875 
Q 5.515625 40.765625 12.171875 48.375 
Q 18.84375 56 30.609375 56 
z
" id="DejaVuSans-111"/>
       <path d="M 18.109375 8.203125 
L 18.109375 -20.796875 
L 9.078125 -20.796875 
L 9.078125 54.6875 
L 18.109375 54.6875 
L 18.109375 46.390625 
Q 20.953125 51.265625 25.265625 53.625 
Q 29.59375 56 35.59375 56 
Q 45.5625 56 51.78125 48.09375 
Q 58.015625 40.1875 58.015625 27.296875 
Q 58.015625 14.40625 51.78125 6.484375 
Q 45.5625 -1.421875 35.59375 -1.421875 
Q 29.59375 -1.421875 25.265625 0.953125 
Q 20.953125 3.328125 18.109375 8.203125 
z
M 48.6875 27.296875 
Q 48.6875 37.203125 44.609375 42.84375 
Q 40.53125 48.484375 33.40625 48.484375 
Q 26.265625 48.484375 22.1875 42.84375 
Q 18.109375 37.203125 18.109375 27.296875 
Q 18.109375 17.390625 22.1875 11.75 
Q 26.265625 6.109375 33.40625 6.109375 
Q 40.53125 6.109375 44.609375 11.75 
Q 48.6875 17.390625 48.6875 27.296875 
z
" id="DejaVuSans-112"/>
       <path d="M 8.5 21.578125 
L 8.5 54.6875 
L 17.484375 54.6875 
L 17.484375 21.921875 
Q 17.484375 14.15625 20.5 10.265625 
Q 23.53125 6.390625 29.59375 6.390625 
Q 36.859375 6.390625 41.078125 11.03125 
Q 45.3125 15.671875 45.3125 23.6875 
L 45.3125 54.6875 
L 54.296875 54.6875 
L 54.296875 0 
L 45.3125 0 
L 45.3125 8.40625 
Q 42.046875 3.421875 37.71875 1 
Q 33.40625 -1.421875 27.6875 -1.421875 
Q 18.265625 -1.421875 13.375 4.4375 
Q 8.5 10.296875 8.5 21.578125 
z
M 31.109375 56 
z
" id="DejaVuSans-117"/>
       <path d="M 9.421875 75.984375 
L 18.40625 75.984375 
L 18.40625 0 
L 9.421875 0 
z
" id="DejaVuSans-108"/>
       <path d="M 34.28125 27.484375 
Q 23.390625 27.484375 19.1875 25 
Q 14.984375 22.515625 14.984375 16.5 
Q 14.984375 11.71875 18.140625 8.90625 
Q 21.296875 6.109375 26.703125 6.109375 
Q 34.1875 6.109375 38.703125 11.40625 
Q 43.21875 16.703125 43.21875 25.484375 
L 43.21875 27.484375 
z
M 52.203125 31.203125 
L 52.203125 0 
L 43.21875 0 
L 43.21875 8.296875 
Q 40.140625 3.328125 35.546875 0.953125 
Q 30.953125 -1.421875 24.3125 -1.421875 
Q 15.921875 -1.421875 10.953125 3.296875 
Q 6 8.015625 6 15.921875 
Q 6 25.140625 12.171875 29.828125 
Q 18.359375 34.515625 30.609375 34.515625 
L 43.21875 34.515625 
L 43.21875 35.40625 
Q 43.21875 41.609375 39.140625 45 
Q 35.0625 48.390625 27.6875 48.390625 
Q 23 48.390625 18.546875 47.265625 
Q 14.109375 46.140625 10.015625 43.890625 
L 10.015625 52.203125 
Q 14.9375 54.109375 19.578125 55.046875 
Q 24.21875 56 28.609375 56 
Q 40.484375 56 46.34375 49.84375 
Q 52.203125 43.703125 52.203125 31.203125 
z
" id="DejaVuSans-97"/>
       <path d="M 18.3125 70.21875 
L 18.3125 54.6875 
L 36.8125 54.6875 
L 36.8125 47.703125 
L 18.3125 47.703125 
L 18.3125 18.015625 
Q 18.3125 11.328125 20.140625 9.421875 
Q 21.96875 7.515625 27.59375 7.515625 
L 36.8125 7.515625 
L 36.8125 0 
L 27.59375 0 
Q 17.1875 0 13.234375 3.875 
Q 9.28125 7.765625 9.28125 18.015625 
L 9.28125 47.703125 
L 2.6875 47.703125 
L 2.6875 54.6875 
L 9.28125 54.6875 
L 9.28125 70.21875 
z
" id="DejaVuSans-116"/>
       <path d="M 54.890625 33.015625 
L 54.890625 0 
L 45.90625 0 
L 45.90625 32.71875 
Q 45.90625 40.484375 42.875 44.328125 
Q 39.84375 48.1875 33.796875 48.1875 
Q 26.515625 48.1875 22.3125 43.546875 
Q 18.109375 38.921875 18.109375 30.90625 
L 18.109375 0 
L 9.078125 0 
L 9.078125 54.6875 
L 18.109375 54.6875 
L 18.109375 46.1875 
Q 21.34375 51.125 25.703125 53.5625 
Q 30.078125 56 35.796875 56 
Q 45.21875 56 50.046875 50.171875 
Q 54.890625 44.34375 54.890625 33.015625 
z
" id="DejaVuSans-110"/>
      </defs>
      <use xlink:href="#DejaVuSans-70"/>
      <use x="57.519531" xlink:href="#DejaVuSans-61"/>
      <use x="141.308594" xlink:href="#DejaVuSans-49"/>
      <use x="204.931641" xlink:href="#DejaVuSans-32"/>
      <use x="236.71875" xlink:href="#DejaVuSans-80"/>
      <use x="293.396484" xlink:href="#DejaVuSans-111"/>
      <use x="354.578125" xlink:href="#DejaVuSans-112"/>
      <use x="418.054688" xlink:href="#DejaVuSans-117"/>
      <use x="481.433594" xlink:href="#DejaVuSans-108"/>
      <use x="509.216797" xlink:href="#DejaVuSans-97"/>
      <use x="570.496094" xlink:href="#DejaVuSans-116"/>
      <use x="609.705078" xlink:href="#DejaVuSans-105"/>
      <use x="637.488281" xlink:href="#DejaVuSans-111"/>
      <use x="698.669922" xlink:href="#DejaVuSans-110"/>
     </g>
    </g>
   </g>
   <g id="LineCollection_1">
    <path clip-path="url(#p304c686b55)" d="M 61.410938 279.010828 
L 61.410938 277.828108 
" style="fill:none;stroke:#1f77b4;stroke-width:1.5;"/>
    <path clip-path="url(#p304c686b55)" d="M 72.889795 234.356965 
L 72.889795 220.308691 
" style="fill:none;stroke:#1f77b4;stroke-width:1.5;"/>
    <path clip-path="url(#p304c686b55)" d="M 84.368652 130.695657 
L 84.368652 113.360525 
" style="fill:none;stroke:#1f77b4;stroke-width:1.5;"/>
    <path clip-path="url(#p304c686b55)" d="M 95.847509 65.433052 
L 95.847509 52.167434 
" style="fill:none;stroke:#1f77b4;stroke-width:1.5;"/>
    <path clip-path="url(#p304c686b55)" d="M 107.326366 77.208966 
L 107.326366 62.279733 
" style="fill:none;stroke:#1f77b4;stroke-width:1.5;"/>
    <path clip-path="url(#p304c686b55)" d="M 118.805223 147.379409 
L 118.805223 128.642964 
" style="fill:none;stroke:#1f77b4;stroke-width:1.5;"/>
    <path clip-path="url(#p304c686b55)" d="M 130.28408 231.147908 
L 130.28408 216.957922 
" style="fill:none;stroke:#1f77b4;stroke-width:1.5;"/>
    <path clip-path="url(#p304c686b55)" d="M 141.762938 271.980199 
L 141.762938 265.000044 
" style="fill:none;stroke:#1f77b4;stroke-width:1.5;"/>
    <path clip-path="url(#p304c686b55)" d="M 153.241795 227.740088 
L 153.241795 212.697196 
" style="fill:none;stroke:#1f77b4;stroke-width:1.5;"/>
    <path clip-path="url(#p304c686b55)" d="M 164.720652 109.976957 
L 164.720652 93.606163 
" style="fill:none;stroke:#1f77b4;stroke-width:1.5;"/>
    <path clip-path="url(#p304c686b55)" d="M 176.199509 52.841603 
L 176.199509 40.975712 
" style="fill:none;stroke:#1f77b4;stroke-width:1.5;"/>
    <path clip-path="url(#p304c686b55)" d="M 187.678366 71.181582 
L 187.678366 56.772813 
" style="fill:none;stroke:#1f77b4;stroke-width:1.5;"/>
    <path clip-path="url(#p304c686b55)" d="M 199.157223 146.069267 
L 199.157223 128.634872 
" style="fill:none;stroke:#1f77b4;stroke-width:1.5;"/>
    <path clip-path="url(#p304c686b55)" d="M 210.63608 234.708827 
L 210.63608 220.178514 
" style="fill:none;stroke:#1f77b4;stroke-width:1.5;"/>
    <path clip-path="url(#p304c686b55)" d="M 222.114938 259.881916 
L 222.114938 249.415008 
" style="fill:none;stroke:#1f77b4;stroke-width:1.5;"/>
    <path clip-path="url(#p304c686b55)" d="M 233.593795 227.495545 
L 233.593795 212.392279 
" style="fill:none;stroke:#1f77b4;stroke-width:1.5;"/>
    <path clip-path="url(#p304c686b55)" d="M 245.072652 132.58349 
L 245.072652 114.974166 
" style="fill:none;stroke:#1f77b4;stroke-width:1.5;"/>
    <path clip-path="url(#p304c686b55)" d="M 256.551509 52.006323 
L 256.551509 40.006995 
" style="fill:none;stroke:#1f77b4;stroke-width:1.5;"/>
    <path clip-path="url(#p304c686b55)" d="M 268.030366 77.728751 
L 268.030366 62.980906 
" style="fill:none;stroke:#1f77b4;stroke-width:1.5;"/>
    <path clip-path="url(#p304c686b55)" d="M 279.509223 157.635516 
L 279.509223 139.318918 
" style="fill:none;stroke:#1f77b4;stroke-width:1.5;"/>
    <path clip-path="url(#p304c686b55)" d="M 290.98808 230.558301 
L 290.98808 215.868001 
" style="fill:none;stroke:#1f77b4;stroke-width:1.5;"/>
    <path clip-path="url(#p304c686b55)" d="M 302.466938 253.489804 
L 302.466938 242.62008 
" style="fill:none;stroke:#1f77b4;stroke-width:1.5;"/>
    <path clip-path="url(#p304c686b55)" d="M 313.945795 216.458353 
L 313.945795 200.819624 
" style="fill:none;stroke:#1f77b4;stroke-width:1.5;"/>
    <path clip-path="url(#p304c686b55)" d="M 325.424652 131.364131 
L 325.424652 113.208294 
" style="fill:none;stroke:#1f77b4;stroke-width:1.5;"/>
    <path clip-path="url(#p304c686b55)" d="M 336.903509 49.475396 
L 336.903509 37.829279 
" style="fill:none;stroke:#1f77b4;stroke-width:1.5;"/>
    <path clip-path="url(#p304c686b55)" d="M 348.382366 71.917659 
L 348.382366 58.345451 
" style="fill:none;stroke:#1f77b4;stroke-width:1.5;"/>
    <path clip-path="url(#p304c686b55)" d="M 359.861223 148.814814 
L 359.861223 130.601321 
" style="fill:none;stroke:#1f77b4;stroke-width:1.5;"/>
    <path clip-path="url(#p304c686b55)" d="M 371.34008 219.946817 
L 371.34008 205.018839 
" style="fill:none;stroke:#1f77b4;stroke-width:1.5;"/>
    <path clip-path="url(#p304c686b55)" d="M 382.818938 253.297482 
L 382.818938 241.599932 
" style="fill:none;stroke:#1f77b4;stroke-width:1.5;"/>
    <path clip-path="url(#p304c686b55)" d="M 394.297795 208.020527 
L 394.297795 192.506272 
" style="fill:none;stroke:#1f77b4;stroke-width:1.5;"/>
    <path clip-path="url(#p304c686b55)" d="M 405.776652 131.730191 
L 405.776652 113.73539 
" style="fill:none;stroke:#1f77b4;stroke-width:1.5;"/>
   </g>
   <g id="LineCollection_2">
    <path clip-path="url(#p304c686b55)" d="M 61.410938 274.780846 
L 61.410938 267.789145 
" style="fill:none;stroke:#d62728;stroke-width:1.5;"/>
    <path clip-path="url(#p304c686b55)" d="M 72.889795 180.172589 
L 72.889795 160.397547 
" style="fill:none;stroke:#d62728;stroke-width:1.5;"/>
    <path clip-path="url(#p304c686b55)" d="M 84.368652 100.494107 
L 84.368652 80.684382 
" style="fill:none;stroke:#d62728;stroke-width:1.5;"/>
    <path clip-path="url(#p304c686b55)" d="M 95.847509 109.194276 
L 95.847509 90.542509 
" style="fill:none;stroke:#d62728;stroke-width:1.5;"/>
    <path clip-path="url(#p304c686b55)" d="M 107.326366 176.537479 
L 107.326366 156.312485 
" style="fill:none;stroke:#d62728;stroke-width:1.5;"/>
    <path clip-path="url(#p304c686b55)" d="M 118.805223 177.063517 
L 118.805223 155.221753 
" style="fill:none;stroke:#d62728;stroke-width:1.5;"/>
    <path clip-path="url(#p304c686b55)" d="M 130.28408 137.354039 
L 130.28408 117.206565 
" style="fill:none;stroke:#d62728;stroke-width:1.5;"/>
    <path clip-path="url(#p304c686b55)" d="M 141.762938 179.253661 
L 141.762938 157.318149 
" style="fill:none;stroke:#d62728;stroke-width:1.5;"/>
    <path clip-path="url(#p304c686b55)" d="M 153.241795 205.549644 
L 153.241795 185.252985 
" style="fill:none;stroke:#d62728;stroke-width:1.5;"/>
    <path clip-path="url(#p304c686b55)" d="M 164.720652 153.037766 
L 164.720652 132.573381 
" style="fill:none;stroke:#d62728;stroke-width:1.5;"/>
    <path clip-path="url(#p304c686b55)" d="M 176.199509 147.301183 
L 176.199509 126.313273 
" style="fill:none;stroke:#d62728;stroke-width:1.5;"/>
    <path clip-path="url(#p304c686b55)" d="M 187.678366 135.91019 
L 187.678366 114.795027 
" style="fill:none;stroke:#d62728;stroke-width:1.5;"/>
    <path clip-path="url(#p304c686b55)" d="M 199.157223 170.080831 
L 199.157223 149.413606 
" style="fill:none;stroke:#d62728;stroke-width:1.5;"/>
    <path clip-path="url(#p304c686b55)" d="M 210.63608 154.832355 
L 210.63608 133.729981 
" style="fill:none;stroke:#d62728;stroke-width:1.5;"/>
    <path clip-path="url(#p304c686b55)" d="M 222.114938 157.460537 
L 222.114938 136.154966 
" style="fill:none;stroke:#d62728;stroke-width:1.5;"/>
    <path clip-path="url(#p304c686b55)" d="M 233.593795 180.50109 
L 233.593795 159.480411 
" style="fill:none;stroke:#d62728;stroke-width:1.5;"/>
   </g>
   <g id="line2d_25">
    <path clip-path="url(#p304c686b55)" d="M 61.410938 278.518987 
L 62.125178 278.518987 
L 62.482298 278.147587 
L 62.839418 278.188961 
L 63.196538 277.612745 
L 63.553658 277.248374 
L 64.625018 274.321102 
L 64.982138 274.152165 
L 65.339258 272.592918 
L 65.696378 271.89802 
L 66.053498 269.589216 
L 66.767738 267.172801 
L 67.124858 265.841519 
L 68.910458 256.329721 
L 69.267578 253.970326 
L 69.624698 252.723173 
L 69.981818 250.650845 
L 70.338938 246.727165 
L 71.053178 243.266086 
L 71.410298 239.767467 
L 71.767418 238.325254 
L 72.124538 235.962342 
L 73.553018 224.183659 
L 74.267258 218.481867 
L 74.624378 214.655813 
L 74.981498 212.273701 
L 75.338618 208.178618 
L 75.695738 205.957507 
L 76.409978 198.218392 
L 76.767098 196.305964 
L 77.124218 191.661094 
L 77.838458 186.013987 
L 78.195578 181.726356 
L 79.266938 172.072709 
L 79.624058 167.477629 
L 80.338298 161.106683 
L 81.052538 154.018356 
L 81.766778 147.621516 
L 82.123898 143.358366 
L 82.481018 140.968837 
L 83.909498 125.683251 
L 84.980858 116.873011 
L 86.052218 106.227415 
L 87.480698 93.892232 
L 88.552058 84.926997 
L 88.909178 82.997368 
L 89.266298 79.773373 
L 89.623418 77.6321 
L 90.337658 71.543626 
L 91.409018 63.741142 
L 91.766138 62.664143 
L 92.123258 60.975204 
L 92.480378 56.802311 
L 94.623098 46.407026 
L 94.980218 45.488698 
L 95.337338 43.594762 
L 95.694458 43.270015 
L 96.051578 40.380044 
L 96.408698 39.595409 
L 96.765818 39.313281 
L 97.122938 37.524644 
L 97.480058 36.634142 
L 97.837178 35.359174 
L 98.194298 34.705363 
L 98.551418 34.612794 
L 98.908538 33.486409 
L 99.622778 32.740822 
L 99.979898 32.740822 
L 100.337018 32.907197 
L 100.694138 32.582843 
L 101.051258 33.317237 
L 101.408378 33.059101 
L 101.765498 34.120056 
L 102.122618 33.74606 
L 102.479738 33.059101 
L 103.193978 35.985231 
L 103.551098 35.472021 
L 103.908218 37.835497 
L 104.265338 37.360072 
L 104.622458 37.720679 
L 104.979578 40.485223 
L 105.336698 41.222719 
L 105.693818 41.483548 
L 106.050938 43.438022 
L 106.408058 44.435155 
L 107.122298 47.858342 
L 107.479418 48.786788 
L 107.836538 51.540545 
L 108.193658 52.861174 
L 108.550778 54.966206 
L 109.265018 60.138609 
L 109.622138 61.201315 
L 110.336378 66.213074 
L 110.693498 68.004786 
L 111.764858 75.447973 
L 112.121978 78.64932 
L 112.479098 80.328494 
L 113.193338 86.788867 
L 113.907578 91.897113 
L 114.978938 101.334763 
L 116.764538 116.473618 
L 117.121658 118.784391 
L 117.835898 126.417552 
L 118.193018 127.77704 
L 118.550138 132.725232 
L 119.621498 142.261133 
L 121.049978 156.229844 
L 122.478458 168.174212 
L 122.835578 173.046571 
L 123.549818 178.219819 
L 124.621178 187.887004 
L 124.978298 191.911322 
L 125.692538 196.87091 
L 126.763898 205.977158 
L 127.121018 208.499432 
L 127.478138 211.816555 
L 127.835258 214.081095 
L 128.192378 217.379141 
L 128.549498 219.250147 
L 128.906618 222.627351 
L 129.620858 226.69474 
L 130.692218 235.352861 
L 131.049338 236.222867 
L 132.120698 243.24949 
L 132.477818 244.607484 
L 133.549178 250.786057 
L 133.906298 251.16067 
L 134.263418 253.701013 
L 134.620538 254.444389 
L 134.977658 256.465499 
L 136.049018 260.565821 
L 136.406138 260.940207 
L 136.763258 261.714538 
L 137.477498 264.189881 
L 137.834618 264.740265 
L 138.548858 266.506818 
L 138.905978 266.163762 
L 139.263098 266.931154 
L 139.620218 265.916901 
L 139.977338 266.415678 
L 140.334458 267.150359 
L 140.691578 267.172528 
L 141.048698 268.112962 
L 141.405818 267.018927 
L 141.762938 267.402722 
L 142.120058 266.081475 
L 142.477178 266.226594 
L 142.834298 264.854201 
L 143.191418 264.469197 
L 143.548538 263.85514 
L 143.905658 262.767954 
L 144.262777 262.377763 
L 145.334138 259.465978 
L 145.691258 258.578271 
L 146.048378 258.227193 
L 146.405498 255.702736 
L 146.762618 254.386977 
L 147.476858 250.670998 
L 147.833978 250.368746 
L 148.191098 248.262325 
L 148.548218 246.908356 
L 148.905338 243.141612 
L 149.262458 242.315736 
L 149.619578 240.721909 
L 151.048058 230.75088 
L 151.405178 229.741634 
L 152.119418 223.831942 
L 154.262138 208.940776 
L 154.619258 205.517412 
L 154.976378 204.229025 
L 156.047738 194.676345 
L 157.833338 179.249257 
L 158.190458 177.102043 
L 159.618938 164.747461 
L 164.975738 119.114646 
L 165.332858 116.925678 
L 167.118458 102.955617 
L 167.475578 100.90878 
L 167.832698 97.207571 
L 168.904058 89.541542 
L 169.261178 86.461548 
L 169.618298 85.698683 
L 169.975418 82.191127 
L 170.332538 80.555919 
L 171.046778 75.556983 
L 171.403898 74.894007 
L 172.118138 69.54419 
L 172.475258 69.214218 
L 172.832378 65.746335 
L 173.189498 65.996692 
L 173.546618 63.69336 
L 173.903738 63.275582 
L 174.260858 58.973981 
L 174.617978 58.885018 
L 174.975098 56.217339 
L 175.332218 55.618825 
L 176.046458 53.418015 
L 176.403578 51.840118 
L 176.760698 51.458137 
L 177.117818 51.312259 
L 177.474938 50.490618 
L 178.189178 47.640328 
L 178.903418 47.96054 
L 179.260538 46.691094 
L 179.617658 46.988063 
L 179.974778 46.677567 
L 180.331898 46.636986 
L 180.689018 46.044244 
L 181.046138 46.235012 
L 181.403258 46.827933 
L 181.760378 46.609932 
L 182.117498 47.29028 
L 182.474618 46.745202 
L 182.831738 48.622637 
L 183.188858 48.700384 
L 183.545978 47.935288 
L 183.903098 49.82658 
L 184.260218 49.755196 
L 184.974458 52.038058 
L 185.688698 55.10585 
L 186.045818 54.786092 
L 186.402938 57.184554 
L 186.760058 58.524329 
L 187.117178 58.973981 
L 187.831418 62.802882 
L 188.188538 63.836705 
L 188.545658 65.49372 
L 188.902778 68.220232 
L 189.259898 69.085414 
L 189.617018 70.700941 
L 190.331258 76.034958 
L 190.688378 77.463834 
L 191.045498 79.550704 
L 191.402618 80.394328 
L 191.759738 84.401829 
L 192.473978 88.3819 
L 194.616698 103.23231 
L 194.973818 106.497582 
L 195.330938 107.874485 
L 196.045178 114.803353 
L 196.402298 117.057345 
L 196.759418 120.890936 
L 197.116538 122.683134 
L 197.473658 125.292212 
L 198.545018 135.2357 
L 199.616378 142.220495 
L 199.973498 146.803988 
L 201.759098 160.928607 
L 203.187578 174.104616 
L 203.901818 178.882107 
L 204.973178 188.675804 
L 205.687418 193.338926 
L 206.758778 201.920929 
L 210.687098 229.428766 
L 211.044218 230.347237 
L 211.401338 232.858797 
L 211.758458 233.412238 
L 212.472698 239.453612 
L 213.186938 240.944904 
L 213.544058 243.86202 
L 213.901178 245.016012 
L 214.258298 247.609602 
L 214.615418 248.309348 
L 214.972538 249.557323 
L 215.329658 250.308898 
L 215.686778 252.14172 
L 216.043898 252.766579 
L 216.401018 254.409942 
L 216.758138 254.922134 
L 217.115258 257.090137 
L 217.472378 257.382563 
L 217.829498 257.845978 
L 218.186618 258.082972 
L 218.543738 259.268369 
L 218.900858 259.855359 
L 219.257978 259.86967 
L 219.972218 261.061741 
L 220.329338 260.580559 
L 220.686458 261.228748 
L 221.043578 261.398469 
L 221.400698 261.259607 
L 221.757818 261.8019 
L 222.114938 260.038368 
L 222.472058 260.595298 
L 222.829178 260.645446 
L 223.186298 259.494191 
L 223.543418 259.268369 
L 224.257658 257.898643 
L 224.614778 256.705116 
L 224.971898 256.109887 
L 225.686138 254.093761 
L 226.400378 252.184192 
L 226.757498 249.49866 
L 227.114618 248.564867 
L 227.471738 248.37518 
L 228.185978 243.90422 
L 228.543098 243.125016 
L 228.900218 240.737583 
L 229.257338 239.415337 
L 229.614458 236.443948 
L 229.971578 236.036817 
L 230.328698 233.23517 
L 231.400058 228.261483 
L 231.757178 224.886762 
L 232.471418 221.281877 
L 233.185658 215.370189 
L 233.542778 213.428449 
L 234.257018 208.704954 
L 234.971258 203.615935 
L 235.685498 197.75941 
L 236.042618 195.39354 
L 237.113978 186.1742 
L 237.471098 184.28551 
L 237.828218 180.440109 
L 238.185338 178.303862 
L 241.042298 154.526218 
L 241.399418 150.676947 
L 241.756538 148.475469 
L 242.470778 142.362729 
L 242.827898 140.520844 
L 243.185018 136.434607 
L 243.899258 130.740768 
L 244.613498 124.919248 
L 245.684858 117.267079 
L 246.041978 113.062643 
L 246.399098 111.366795 
L 246.756218 108.89092 
L 247.470458 101.488528 
L 247.827578 100.763558 
L 248.541818 96.203944 
L 249.613178 87.772533 
L 249.970298 86.816606 
L 250.327418 83.608756 
L 251.041658 79.935949 
L 251.398778 78.643187 
L 252.113018 73.020552 
L 252.470138 72.261768 
L 253.184378 67.49135 
L 253.541498 67.343963 
L 254.255738 63.516434 
L 254.612858 62.721271 
L 255.327098 59.722315 
L 255.684218 57.577967 
L 256.041337 57.519928 
L 256.398458 55.853247 
L 256.755578 56.008147 
L 257.112698 54.534182 
L 257.469818 53.776032 
L 257.826938 53.547351 
L 258.184058 52.808084 
L 259.255418 51.514244 
L 259.612538 51.496163 
L 259.969658 50.701973 
L 260.326778 50.537088 
L 260.683898 50.203696 
L 261.398138 50.724938 
L 261.755258 50.667526 
L 262.469497 51.40203 
L 262.826617 52.123134 
L 263.183738 52.329312 
L 263.540858 52.361866 
L 263.897978 54.256135 
L 264.255098 54.398659 
L 264.612218 57.28703 
L 264.969337 57.670256 
L 265.326458 58.334079 
L 265.683578 58.551508 
L 266.040698 59.958264 
L 266.754938 63.33178 
L 267.112058 63.993854 
L 267.469178 65.047179 
L 267.826298 67.690323 
L 268.183418 68.533444 
L 268.897658 72.90045 
L 269.254778 73.963185 
L 269.611898 75.894797 
L 269.969018 79.069268 
L 270.683258 82.319677 
L 272.468858 93.450403 
L 272.825978 96.355093 
L 273.183098 97.922644 
L 274.254458 106.204124 
L 274.611578 108.293823 
L 274.968698 112.232039 
L 275.682938 117.280187 
L 277.468538 131.562903 
L 277.825658 132.828528 
L 278.539898 139.374191 
L 280.682617 157.885136 
L 281.396858 163.128867 
L 282.468218 172.922095 
L 283.182457 178.869446 
L 283.539578 180.694403 
L 283.896698 183.340602 
L 284.253818 187.144189 
L 284.968058 190.955841 
L 285.682298 197.847498 
L 287.110778 208.379127 
L 287.467898 209.634788 
L 287.825018 214.149746 
L 288.182138 215.464407 
L 288.896378 220.32776 
L 289.610617 225.567619 
L 289.967737 226.565936 
L 290.324858 229.626212 
L 290.681978 231.005929 
L 292.467578 241.314842 
L 292.824698 241.76305 
L 293.896058 247.178014 
L 294.253178 247.242018 
L 294.610298 248.602847 
L 294.967418 250.540005 
L 295.681658 252.929351 
L 296.038778 252.907648 
L 296.395898 253.60814 
L 296.753018 255.642523 
L 297.110138 256.730116 
L 297.467258 256.428468 
L 297.824378 256.930111 
L 298.181498 257.191417 
L 298.538617 257.591732 
L 298.895737 258.53769 
L 299.252858 258.632379 
L 299.609978 259.073656 
L 299.967098 258.360635 
L 300.324218 259.143196 
L 300.681338 259.062534 
L 301.038458 257.536455 
L 301.752698 258.213849 
L 302.109818 256.855113 
L 302.466938 256.655118 
L 302.824058 255.77499 
L 303.181178 256.527216 
L 303.538298 254.536248 
L 303.895418 254.374888 
L 304.252538 253.166226 
L 304.966778 250.079482 
L 305.681018 249.294241 
L 306.752378 244.401796 
L 307.109498 243.666135 
L 307.466618 241.322805 
L 307.823737 240.620025 
L 308.537978 236.301581 
L 309.609338 231.521399 
L 309.966458 228.822393 
L 310.323578 227.003477 
L 311.037818 222.290438 
L 312.466298 213.470471 
L 312.823418 210.696459 
L 313.180538 209.325877 
L 313.537658 205.34631 
L 313.894778 203.875653 
L 314.251898 200.07378 
L 314.609018 198.754939 
L 314.966138 194.721644 
L 316.751737 182.536397 
L 317.108857 178.63312 
L 318.180218 170.456852 
L 319.251577 161.974741 
L 319.608698 159.827777 
L 320.322938 153.49034 
L 321.751418 142.273325 
L 322.108538 139.382352 
L 322.465658 137.659774 
L 322.822778 133.006197 
L 323.179898 132.355399 
L 323.894138 125.389692 
L 324.251258 124.208249 
L 324.608378 120.545955 
L 326.751098 106.078357 
L 327.108218 103.031946 
L 327.465338 101.878713 
L 328.179577 96.284557 
L 328.893818 92.837607 
L 329.965178 85.95953 
L 330.322298 85.152712 
L 331.036538 80.621129 
L 331.393658 80.400313 
L 331.750778 76.997802 
L 332.107898 75.117939 
L 332.465018 75.318021 
L 332.822138 73.027224 
L 333.179258 72.027759 
L 333.536378 71.803018 
L 334.250618 68.070619 
L 334.607737 67.60926 
L 334.964857 65.715715 
L 335.321978 65.407203 
L 335.679098 64.222953 
L 336.036218 63.524462 
L 336.393338 63.307695 
L 336.750458 62.098539 
L 337.107577 61.319476 
L 337.464697 61.159114 
L 337.821818 61.423592 
L 338.178938 59.607178 
L 338.536058 59.510192 
L 338.893178 60.367339 
L 339.250298 59.24087 
L 339.607418 60.242556 
L 340.321658 59.722315 
L 340.678778 60.303191 
L 341.035898 60.358752 
L 341.393018 61.361676 
L 342.107258 61.184434 
L 342.464378 61.725117 
L 342.821498 62.850955 
L 343.178618 63.452206 
L 343.535737 65.260621 
L 343.892857 65.30691 
L 344.964218 68.920831 
L 345.678458 70.893893 
L 346.035578 72.526181 
L 346.392697 72.794888 
L 346.749818 74.988854 
L 347.106938 76.278921 
L 347.821178 80.2866 
L 348.178298 81.247311 
L 348.892538 85.732348 
L 349.249658 86.121325 
L 349.963898 91.398199 
L 350.321018 92.546553 
L 351.035258 96.460897 
L 351.749498 101.348832 
L 352.820857 108.02215 
L 353.892218 114.019211 
L 354.606458 120.235472 
L 354.963578 122.601911 
L 355.320697 126.198106 
L 355.677818 128.024968 
L 357.106298 137.913822 
L 357.463418 141.671879 
L 359.606138 156.128665 
L 360.677498 164.490382 
L 361.034618 165.637035 
L 361.391738 169.856117 
L 361.748857 172.105763 
L 362.463098 178.064339 
L 362.820218 180.240912 
L 363.177338 183.366363 
L 363.534458 184.984096 
L 364.248698 189.630353 
L 364.605818 191.88898 
L 364.962938 195.093192 
L 365.320058 196.338115 
L 365.677178 200.711954 
L 366.034298 201.717084 
L 366.391418 203.456971 
L 367.105658 208.243784 
L 367.462778 210.055993 
L 368.177018 215.813253 
L 368.534138 217.678627 
L 368.891258 218.559536 
L 369.962618 224.33238 
L 371.033977 229.824994 
L 372.105338 233.973366 
L 372.462458 235.190629 
L 372.819578 237.111201 
L 373.176698 237.539672 
L 373.533817 240.222506 
L 373.890938 239.370487 
L 374.248058 240.847305 
L 374.605178 243.045515 
L 374.962298 243.349069 
L 375.319418 243.963301 
L 375.676538 245.248253 
L 376.033658 245.189256 
L 376.390778 246.652578 
L 376.747898 246.490989 
L 377.105018 247.946859 
L 377.462138 248.030702 
L 377.819258 247.415796 
L 378.176378 247.863015 
L 378.533498 248.002754 
L 378.890618 248.959569 
L 379.247738 248.536382 
L 379.604858 248.719887 
L 379.961977 248.067966 
L 380.319097 248.328157 
L 380.676218 248.806173 
L 381.033338 247.816436 
L 381.390458 249.007505 
L 381.747578 247.278591 
L 382.104698 246.872118 
L 382.461818 245.80205 
L 382.818938 245.713881 
L 383.176058 244.70194 
L 383.533178 244.435848 
L 383.890298 244.676179 
L 384.247418 242.194323 
L 384.604538 242.019959 
L 384.961658 241.102903 
L 385.318778 239.032334 
L 385.675898 238.881572 
L 386.033018 236.987764 
L 386.390138 236.530444 
L 387.461498 230.940532 
L 387.818618 230.405707 
L 388.532858 227.639052 
L 389.247098 224.092122 
L 389.961338 220.158473 
L 390.675578 216.428442 
L 391.032698 214.065253 
L 391.389818 213.111878 
L 391.746938 209.548698 
L 392.104058 207.897962 
L 392.461178 206.856254 
L 392.818297 204.016033 
L 393.175418 202.417068 
L 394.246778 194.961221 
L 394.961018 190.513753 
L 396.032378 181.845538 
L 396.389498 180.690164 
L 396.746618 178.030721 
L 397.460858 174.586989 
L 398.532218 165.502375 
L 399.603578 158.990013 
L 399.960698 155.667288 
L 400.317818 154.119122 
L 401.746297 143.976067 
L 403.174778 134.080474 
L 403.889018 128.664728 
L 404.960378 122.567711 
L 405.674618 117.913765 
L 406.031738 116.328784 
L 406.388858 113.062643 
L 407.817338 105.277846 
L 408.174458 102.864977 
L 408.531578 101.652309 
L 408.888698 100.015606 
L 409.245818 97.257445 
L 409.602938 96.740888 
L 409.960058 93.799653 
L 410.317178 93.047129 
L 410.674298 90.981018 
L 411.031418 90.729337 
L 411.388537 87.59149 
L 411.745658 87.874306 
L 412.102778 84.989068 
L 414.245497 77.532729 
L 414.602618 76.765079 
L 414.959738 75.556983 
L 415.316858 76.297912 
L 416.745338 71.303609 
L 417.102458 71.748535 
L 417.459578 71.721294 
L 417.816698 70.845554 
L 418.173818 70.900799 
L 418.530938 70.833071 
L 418.530938 70.833071 
" style="fill:none;stroke:#1f77b4;stroke-linecap:square;stroke-width:1.5;"/>
   </g>
   <g id="line2d_26">
    <path clip-path="url(#p304c686b55)" d="M 61.410938 278.515607 
L 62.176195 278.515607 
L 62.558823 278.183313 
L 62.941452 277.209519 
L 63.32408 278.515607 
L 63.706709 273.874511 
L 64.089338 273.339744 
L 65.619852 263.925492 
L 66.00248 260.609634 
L 66.385109 258.676893 
L 68.298252 240.977638 
L 69.063509 233.03719 
L 69.446138 230.078254 
L 69.828766 223.774282 
L 70.976652 210.94076 
L 71.741909 202.698917 
L 72.124538 195.363638 
L 72.507166 191.822613 
L 74.03768 170.534951 
L 75.185566 155.956642 
L 75.568195 149.72204 
L 75.950823 146.539365 
L 76.333452 140.073464 
L 76.71608 135.999477 
L 77.863966 120.673837 
L 80.159738 95.67515 
L 80.542366 92.300247 
L 81.307623 83.758102 
L 83.986023 65.985937 
L 84.75128 62.40623 
L 85.133909 62.011396 
L 85.516538 59.150227 
L 85.899166 57.391328 
L 86.281795 58.136266 
L 86.664423 57.147278 
L 87.047052 54.466018 
L 87.812309 56.48198 
L 88.577566 56.260804 
L 88.960195 57.355172 
L 89.342823 57.551554 
L 89.725452 58.037386 
L 90.10808 59.449676 
L 90.490709 59.857585 
L 90.873338 62.173697 
L 91.255966 63.659767 
L 91.638595 66.201118 
L 92.403852 68.853889 
L 94.699623 84.998097 
L 95.46488 91.092591 
L 95.847509 92.578746 
L 96.612766 100.676086 
L 97.378023 106.986574 
L 97.760652 109.454219 
L 101.969566 147.725184 
L 102.352195 150.399784 
L 103.117452 156.535289 
L 103.50008 158.067481 
L 104.265338 165.507146 
L 104.647966 167.647754 
L 105.030595 169.106052 
L 105.413223 173.19157 
L 105.795852 174.083394 
L 106.561109 179.720099 
L 106.943738 181.21643 
L 107.326366 181.808901 
L 108.091623 185.67643 
L 108.474252 186.719698 
L 108.85688 187.291637 
L 109.239509 190.073079 
L 109.622138 190.865826 
L 110.004766 190.970882 
L 110.387395 192.333318 
L 110.770023 193.045335 
L 111.152652 192.777466 
L 111.53528 193.663541 
L 111.917909 193.535834 
L 112.300538 193.077116 
L 112.683166 193.941761 
L 114.21368 191.006875 
L 114.596309 191.105854 
L 115.744195 187.705952 
L 116.126823 186.675702 
L 117.274709 181.830422 
L 118.039966 179.609147 
L 118.422595 176.89257 
L 118.805223 176.288841 
L 119.187852 175.454645 
L 119.57048 172.782154 
L 120.335738 169.391912 
L 120.718366 167.004145 
L 121.483623 163.498724 
L 122.24888 160.25982 
L 122.631509 157.138386 
L 123.014138 157.122086 
L 123.396766 153.812854 
L 124.162023 151.507713 
L 124.92728 146.987613 
L 125.309909 146.433416 
L 125.692538 144.473351 
L 126.457795 141.775631 
L 126.840423 139.696567 
L 127.60568 137.440915 
L 127.988309 136.556447 
L 128.753566 133.837592 
L 129.136195 134.019879 
L 129.518823 132.601988 
L 130.28408 132.46054 
L 130.666709 131.824025 
L 131.049338 130.407661 
L 131.431966 130.64579 
L 131.814595 129.705138 
L 132.197223 130.84632 
L 132.579852 130.457793 
L 132.96248 130.307396 
L 133.345109 130.741877 
L 133.727738 131.472976 
L 134.110366 131.24738 
L 134.875623 132.219247 
L 135.258252 133.982593 
L 135.64088 132.8308 
L 136.023509 135.171604 
L 136.406138 135.34349 
L 136.788766 137.925736 
L 137.171395 138.143495 
L 137.936652 140.138932 
L 138.701909 143.715404 
L 139.084538 144.701549 
L 139.467166 146.005543 
L 139.849795 147.912633 
L 140.232423 148.54833 
L 140.99768 153.001184 
L 141.380309 154.11723 
L 141.762938 155.924042 
L 142.145566 158.792828 
L 142.528195 159.379625 
L 143.67608 165.256518 
L 144.058709 166.876248 
L 144.441338 167.457972 
L 144.823966 170.108633 
L 145.971852 174.825969 
L 146.35448 175.564186 
L 146.737109 177.883879 
L 147.502366 180.989286 
L 147.884995 182.86044 
L 148.267623 184.155625 
L 148.650252 184.725172 
L 149.03288 186.394775 
L 149.415509 186.60531 
L 150.180766 189.927932 
L 150.563395 190.319412 
L 150.946023 191.051865 
L 151.328652 191.31731 
L 151.71128 192.854648 
L 152.093909 192.116382 
L 152.476538 192.423709 
L 152.859166 193.236021 
L 153.624423 192.745685 
L 154.007052 194.45698 
L 155.154938 192.446306 
L 155.537566 192.868269 
L 155.920195 191.524267 
L 156.302823 191.985316 
L 156.685452 191.330807 
L 157.06808 190.426904 
L 157.450709 190.55231 
L 157.833338 188.297081 
L 158.215966 187.409874 
L 158.598595 186.970471 
L 158.981223 185.847256 
L 159.363852 183.91682 
L 159.74648 184.068787 
L 160.129109 182.44543 
L 160.511738 180.192136 
L 160.894366 179.203748 
L 162.42488 172.635935 
L 162.807509 170.33942 
L 163.190138 170.10449 
L 163.572766 167.416715 
L 163.955395 166.62458 
L 164.338023 163.285953 
L 164.720652 162.308025 
L 165.10328 160.194621 
L 165.485909 158.813203 
L 167.78168 147.627384 
L 168.546938 144.783049 
L 168.929566 143.019523 
L 169.312195 140.703593 
L 170.077452 138.550252 
L 170.46008 136.424424 
L 171.225338 134.280881 
L 172.373223 130.065089 
L 172.755852 128.719234 
L 173.13848 128.179317 
L 174.286366 125.564455 
L 175.051623 124.555974 
L 175.434252 124.022555 
L 176.199509 122.535935 
L 176.582138 122.71165 
L 176.964766 121.974782 
L 177.347395 121.703611 
L 177.730023 122.660221 
L 178.112652 121.475483 
L 178.49528 121.828436 
L 178.877909 121.475483 
L 179.260538 122.527363 
L 179.643166 123.050225 
L 180.025795 122.420219 
L 180.408423 122.45022 
L 181.17368 124.415152 
L 181.556309 125.262767 
L 181.938938 125.139543 
L 182.321566 126.124324 
L 183.086823 128.501076 
L 183.469452 128.777968 
L 183.85208 130.311574 
L 184.617338 131.749141 
L 184.999966 131.977953 
L 185.382595 134.935459 
L 185.765223 134.724171 
L 186.147852 135.088746 
L 186.53048 136.663715 
L 186.913109 137.473784 
L 187.295738 139.745871 
L 187.678366 140.769061 
L 188.060995 140.318969 
L 188.826252 143.324206 
L 189.20888 145.153872 
L 189.591509 144.958273 
L 189.974138 146.787939 
L 190.356766 146.417116 
L 190.739395 148.707254 
L 191.122023 150.103525 
L 191.88728 151.442779 
L 192.269909 152.12864 
L 192.652538 153.419194 
L 193.035166 153.812854 
L 193.417795 154.693515 
L 193.800423 154.770823 
L 194.56568 156.893887 
L 194.948309 156.950937 
L 195.713566 158.674653 
L 196.096195 158.536104 
L 196.478823 158.968052 
L 196.861452 160.068296 
L 197.24408 159.3511 
L 197.626709 159.29405 
L 198.009338 159.864547 
L 198.391966 159.448899 
L 198.774595 160.843179 
L 199.157223 159.110676 
L 199.539852 159.921597 
L 199.92248 158.703178 
L 200.687738 158.715403 
L 201.452995 157.851507 
L 201.835623 157.598859 
L 202.218252 157.688508 
L 202.60088 157.236186 
L 202.983509 157.25656 
L 203.366138 155.549144 
L 203.748766 155.190546 
L 204.131395 154.19028 
L 204.896652 153.597761 
L 205.27928 151.905431 
L 205.661909 152.623758 
L 206.044538 149.762624 
L 206.427166 148.987479 
L 206.809795 149.803207 
L 207.192423 148.259006 
L 207.575052 147.867808 
L 207.95768 146.066667 
L 208.340309 146.099267 
L 208.722938 145.826244 
L 209.488195 143.320131 
L 210.253452 142.246182 
L 210.63608 140.621758 
L 211.018709 139.659589 
L 211.401338 139.088486 
L 211.783966 139.355549 
L 212.166595 137.777825 
L 212.549223 137.970932 
L 212.931852 137.307325 
L 213.31448 136.894754 
L 213.697109 135.364118 
L 214.079738 134.691028 
L 214.462366 135.409501 
L 215.227623 134.840172 
L 215.610252 134.061308 
L 215.99288 134.359596 
L 216.758138 133.601447 
L 217.140766 134.231167 
L 217.523395 134.566741 
L 217.906023 135.467261 
L 218.288652 135.326987 
L 219.053909 136.110871 
L 219.436538 136.267647 
L 219.819166 135.830323 
L 220.584423 137.818911 
L 220.967052 137.864106 
L 221.34968 139.063834 
L 222.114938 141.845191 
L 222.497566 141.440108 
L 223.262823 144.819724 
L 223.645452 145.62657 
L 224.02808 146.001468 
L 224.410709 146.710514 
L 224.793338 150.046708 
L 225.175966 150.610818 
L 226.70648 155.076447 
L 227.089109 157.293235 
L 227.854366 160.100896 
L 228.236995 160.974115 
L 228.619623 162.29575 
L 229.002252 164.430678 
L 229.38488 165.634514 
L 230.150138 168.811907 
L 230.915395 172.176387 
L 231.298023 175.117596 
L 231.680652 175.214498 
L 232.06328 177.311442 
L 232.828538 179.161075 
L 233.211166 180.479281 
L 233.593795 182.769656 
L 234.359052 184.199044 
L 234.74168 185.296455 
L 235.124309 186.759293 
L 235.506938 188.674379 
L 236.272195 189.308171 
L 236.654823 191.777418 
L 237.037452 191.677235 
L 238.185338 194.805211 
L 238.567966 194.965581 
L 238.950595 194.68608 
L 239.333223 195.968882 
L 239.715852 195.830143 
L 240.09848 197.611872 
L 240.481109 196.886432 
L 241.246366 197.709901 
L 241.628995 196.612305 
L 242.011623 197.313118 
L 242.394252 197.128036 
L 242.77688 197.090866 
L 243.924766 195.220939 
L 244.307395 195.714528 
L 244.690023 194.860195 
L 245.072652 193.70459 
L 246.220538 192.455345 
L 246.603166 189.816464 
L 246.985795 189.513272 
L 247.368423 188.723206 
L 247.751052 188.674379 
L 248.516309 184.394429 
L 248.898938 183.288419 
L 249.664195 181.641033 
L 250.046823 180.749284 
L 251.577338 173.471476 
L 251.959966 172.640112 
L 252.725223 169.209625 
L 252.725223 169.209625 
" style="fill:none;stroke:#d62728;stroke-linecap:square;stroke-width:1.5;"/>
   </g>
   <g id="line2d_27">
    <path clip-path="url(#p304c686b55)" d="M 61.410938 23.543308 
L 418.530938 23.543308 
" style="fill:none;stroke:#99aaaa;stroke-dasharray:9.6,2.4,1.5,2.4;stroke-dashoffset:0;stroke-width:1.5;"/>
   </g>
   <g id="line2d_28">
    <defs>
     <path d="M -3 3 
L 3 3 
L 3 -3 
L -3 -3 
z
" id="m9e0ac68bfd" style="stroke:#1f77b4;stroke-linejoin:miter;"/>
    </defs>
    <g clip-path="url(#p304c686b55)">
     <use style="fill:#1f77b4;stroke:#1f77b4;stroke-linejoin:miter;" x="61.410938" xlink:href="#m9e0ac68bfd" y="278.419468"/>
     <use style="fill:#1f77b4;stroke:#1f77b4;stroke-linejoin:miter;" x="72.889795" xlink:href="#m9e0ac68bfd" y="227.332828"/>
     <use style="fill:#1f77b4;stroke:#1f77b4;stroke-linejoin:miter;" x="84.368652" xlink:href="#m9e0ac68bfd" y="122.028091"/>
     <use style="fill:#1f77b4;stroke:#1f77b4;stroke-linejoin:miter;" x="95.847509" xlink:href="#m9e0ac68bfd" y="58.800243"/>
     <use style="fill:#1f77b4;stroke:#1f77b4;stroke-linejoin:miter;" x="107.326366" xlink:href="#m9e0ac68bfd" y="69.744349"/>
     <use style="fill:#1f77b4;stroke:#1f77b4;stroke-linejoin:miter;" x="118.805223" xlink:href="#m9e0ac68bfd" y="138.011186"/>
     <use style="fill:#1f77b4;stroke:#1f77b4;stroke-linejoin:miter;" x="130.28408" xlink:href="#m9e0ac68bfd" y="224.052915"/>
     <use style="fill:#1f77b4;stroke:#1f77b4;stroke-linejoin:miter;" x="141.762938" xlink:href="#m9e0ac68bfd" y="268.490121"/>
     <use style="fill:#1f77b4;stroke:#1f77b4;stroke-linejoin:miter;" x="153.241795" xlink:href="#m9e0ac68bfd" y="220.218642"/>
     <use style="fill:#1f77b4;stroke:#1f77b4;stroke-linejoin:miter;" x="164.720652" xlink:href="#m9e0ac68bfd" y="101.79156"/>
     <use style="fill:#1f77b4;stroke:#1f77b4;stroke-linejoin:miter;" x="176.199509" xlink:href="#m9e0ac68bfd" y="46.908658"/>
     <use style="fill:#1f77b4;stroke:#1f77b4;stroke-linejoin:miter;" x="187.678366" xlink:href="#m9e0ac68bfd" y="63.977198"/>
     <use style="fill:#1f77b4;stroke:#1f77b4;stroke-linejoin:miter;" x="199.157223" xlink:href="#m9e0ac68bfd" y="137.35207"/>
     <use style="fill:#1f77b4;stroke:#1f77b4;stroke-linejoin:miter;" x="210.63608" xlink:href="#m9e0ac68bfd" y="227.44367"/>
     <use style="fill:#1f77b4;stroke:#1f77b4;stroke-linejoin:miter;" x="222.114938" xlink:href="#m9e0ac68bfd" y="254.648462"/>
     <use style="fill:#1f77b4;stroke:#1f77b4;stroke-linejoin:miter;" x="233.593795" xlink:href="#m9e0ac68bfd" y="219.943912"/>
     <use style="fill:#1f77b4;stroke:#1f77b4;stroke-linejoin:miter;" x="245.072652" xlink:href="#m9e0ac68bfd" y="123.778828"/>
     <use style="fill:#1f77b4;stroke:#1f77b4;stroke-linejoin:miter;" x="256.551509" xlink:href="#m9e0ac68bfd" y="46.006659"/>
     <use style="fill:#1f77b4;stroke:#1f77b4;stroke-linejoin:miter;" x="268.030366" xlink:href="#m9e0ac68bfd" y="70.354828"/>
     <use style="fill:#1f77b4;stroke:#1f77b4;stroke-linejoin:miter;" x="279.509223" xlink:href="#m9e0ac68bfd" y="148.477217"/>
     <use style="fill:#1f77b4;stroke:#1f77b4;stroke-linejoin:miter;" x="290.98808" xlink:href="#m9e0ac68bfd" y="223.213151"/>
     <use style="fill:#1f77b4;stroke:#1f77b4;stroke-linejoin:miter;" x="302.466938" xlink:href="#m9e0ac68bfd" y="248.054942"/>
     <use style="fill:#1f77b4;stroke:#1f77b4;stroke-linejoin:miter;" x="313.945795" xlink:href="#m9e0ac68bfd" y="208.638988"/>
     <use style="fill:#1f77b4;stroke:#1f77b4;stroke-linejoin:miter;" x="325.424652" xlink:href="#m9e0ac68bfd" y="122.286213"/>
     <use style="fill:#1f77b4;stroke:#1f77b4;stroke-linejoin:miter;" x="336.903509" xlink:href="#m9e0ac68bfd" y="43.652338"/>
     <use style="fill:#1f77b4;stroke:#1f77b4;stroke-linejoin:miter;" x="348.382366" xlink:href="#m9e0ac68bfd" y="65.131555"/>
     <use style="fill:#1f77b4;stroke:#1f77b4;stroke-linejoin:miter;" x="359.861223" xlink:href="#m9e0ac68bfd" y="139.708068"/>
     <use style="fill:#1f77b4;stroke:#1f77b4;stroke-linejoin:miter;" x="371.34008" xlink:href="#m9e0ac68bfd" y="212.482828"/>
     <use style="fill:#1f77b4;stroke:#1f77b4;stroke-linejoin:miter;" x="382.818938" xlink:href="#m9e0ac68bfd" y="247.448707"/>
     <use style="fill:#1f77b4;stroke:#1f77b4;stroke-linejoin:miter;" x="394.297795" xlink:href="#m9e0ac68bfd" y="200.2634"/>
     <use style="fill:#1f77b4;stroke:#1f77b4;stroke-linejoin:miter;" x="405.776652" xlink:href="#m9e0ac68bfd" y="122.73279"/>
    </g>
   </g>
   <g id="line2d_29">
    <defs>
     <path d="M 0 3 
C 0.795609 3 1.55874 2.683901 2.12132 2.12132 
C 2.683901 1.55874 3 0.795609 3 0 
C 3 -0.795609 2.683901 -1.55874 2.12132 -2.12132 
C 1.55874 -2.683901 0.795609 -3 0 -3 
C -0.795609 -3 -1.55874 -2.683901 -2.12132 -2.12132 
C -2.683901 -1.55874 -3 -0.795609 -3 0 
C -3 0.795609 -2.683901 1.55874 -2.12132 2.12132 
C -1.55874 2.683901 -0.795609 3 0 3 
z
" id="m4d17eb6f4c" style="stroke:#d62728;"/>
    </defs>
    <g clip-path="url(#p304c686b55)">
     <use style="fill:#d62728;stroke:#d62728;" x="61.410938" xlink:href="#m4d17eb6f4c" y="271.284996"/>
     <use style="fill:#d62728;stroke:#d62728;" x="72.889795" xlink:href="#m4d17eb6f4c" y="170.285068"/>
     <use style="fill:#d62728;stroke:#d62728;" x="84.368652" xlink:href="#m4d17eb6f4c" y="90.589244"/>
     <use style="fill:#d62728;stroke:#d62728;" x="95.847509" xlink:href="#m4d17eb6f4c" y="99.868392"/>
     <use style="fill:#d62728;stroke:#d62728;" x="107.326366" xlink:href="#m4d17eb6f4c" y="166.424982"/>
     <use style="fill:#d62728;stroke:#d62728;" x="118.805223" xlink:href="#m4d17eb6f4c" y="166.142635"/>
     <use style="fill:#d62728;stroke:#d62728;" x="130.28408" xlink:href="#m4d17eb6f4c" y="127.280302"/>
     <use style="fill:#d62728;stroke:#d62728;" x="141.762938" xlink:href="#m4d17eb6f4c" y="168.285905"/>
     <use style="fill:#d62728;stroke:#d62728;" x="153.241795" xlink:href="#m4d17eb6f4c" y="195.401315"/>
     <use style="fill:#d62728;stroke:#d62728;" x="164.720652" xlink:href="#m4d17eb6f4c" y="142.805574"/>
     <use style="fill:#d62728;stroke:#d62728;" x="176.199509" xlink:href="#m4d17eb6f4c" y="136.807228"/>
     <use style="fill:#d62728;stroke:#d62728;" x="187.678366" xlink:href="#m4d17eb6f4c" y="125.352609"/>
     <use style="fill:#d62728;stroke:#d62728;" x="199.157223" xlink:href="#m4d17eb6f4c" y="159.747218"/>
     <use style="fill:#d62728;stroke:#d62728;" x="210.63608" xlink:href="#m4d17eb6f4c" y="144.281168"/>
     <use style="fill:#d62728;stroke:#d62728;" x="222.114938" xlink:href="#m4d17eb6f4c" y="146.807751"/>
     <use style="fill:#d62728;stroke:#d62728;" x="233.593795" xlink:href="#m4d17eb6f4c" y="169.990751"/>
    </g>
   </g>
   <g id="patch_3">
    <path d="M 61.410938 279.010828 
L 61.410938 12.898828 
" style="fill:none;stroke:#000000;stroke-linecap:square;stroke-linejoin:miter;stroke-width:0.8;"/>
   </g>
   <g id="patch_4">
    <path d="M 418.530938 279.010828 
L 418.530938 12.898828 
" style="fill:none;stroke:#000000;stroke-linecap:square;stroke-linejoin:miter;stroke-width:0.8;"/>
   </g>
   <g id="patch_5">
    <path d="M 61.410938 279.010828 
L 418.530938 279.010828 
" style="fill:none;stroke:#000000;stroke-linecap:square;stroke-linejoin:miter;stroke-width:0.8;"/>
   </g>
   <g id="patch_6">
    <path d="M 61.410938 12.898828 
L 418.530938 12.898828 
" style="fill:none;stroke:#000000;stroke-linecap:square;stroke-linejoin:miter;stroke-width:0.8;"/>
   </g>
  </g>
 </g>
 <defs>
  <clipPath id="p304c686b55">
   <rect height="266.112" width="357.12" x="61.410938" y="12.898828"/>
  </clipPath>
 </defs>
</svg>
