<?xml version="1.0" encoding="utf-8" standalone="no"?>
<!DOCTYPE svg PUBLIC "-//W3C//DTD SVG 1.1//EN"
  "http://www.w3.org/Graphics/SVG/1.1/DTD/svg11.dtd">
<!-- Created with matplotlib (https://matplotlib.org/) -->
<svg height="331.128016pt" version="1.1" viewBox="0 0 425.730937 331.128016" width="425.730937pt" xmlns="http://www.w3.org/2000/svg" xmlns:xlink="http://www.w3.org/1999/xlink">
 <defs>
  <style type="text/css">*{stroke-linecap:butt;stroke-linejoin:round;}</style>
 </defs>
 <g id="figure_1">
  <g id="patch_1">
   <path d="M 0 331.128016 
L 425.730937 331.128016 
L 425.730937 0 
L 0 0 
z
" style="fill:none;"/>
  </g>
  <g id="axes_1">
   <g id="patch_2">
    <path d="M 61.410938 279.010828 
L 418.530938 279.010828 
L 418.530938 12.898828 
L 61.410938 12.898828 
z
" style="fill:none;"/>
   </g>
   <g id="matplotlib.axis_1">
    <g id="xtick_1">
     <g id="line2d_1">
      <path clip-path="url(#p304c686b55)" d="M 87.541669 279.010828 
L 87.541669 12.898828 
" style="fill:none;stroke:#b0b0b0;stroke-linecap:square;stroke-width:0.8;"/>
     </g>
     <g id="line2d_2">
      <defs>
       <path d="M 0 0 
L 0 3.5 
" id="m005f0a59be" style="stroke:#000000;stroke-width:0.8;"/>
      </defs>
      <g>
       <use style="stroke:#000000;stroke-width:0.8;" x="87.541669" xlink:href="#m005f0a59be" y="279.010828"/>
      </g>
     </g>
     <g id="text_1">
      <!-- −100 -->
      <g transform="translate(66.941279 297.408484)scale(0.15 -0.15)">
       <defs>
        <path d="M 10.59375 35.5 
L 73.1875 35.5 
L 73.1875 27.203125 
L 10.59375 27.203125 
z
" id="DejaVuSans-8722"/>
        <path d="M 12.40625 8.296875 
L 28.515625 8.296875 
L 28.515625 63.921875 
L 10.984375 60.40625 
L 10.984375 69.390625 
L 28.421875 72.90625 
L 38.28125 72.90625 
L 38.28125 8.296875 
L 54.390625 8.296875 
L 54.390625 0 
L 12.40625 0 
z
" id="DejaVuSans-49"/>
        <path d="M 31.78125 66.40625 
Q 24.171875 66.40625 20.328125 58.90625 
Q 16.5 51.421875 16.5 36.375 
Q 16.5 21.390625 20.328125 13.890625 
Q 24.171875 6.390625 31.78125 6.390625 
Q 39.453125 6.390625 43.28125 13.890625 
Q 47.125 21.390625 47.125 36.375 
Q 47.125 51.421875 43.28125 58.90625 
Q 39.453125 66.40625 31.78125 66.40625 
z
M 31.78125 74.21875 
Q 44.046875 74.21875 50.515625 64.515625 
Q 56.984375 54.828125 56.984375 36.375 
Q 56.984375 17.96875 50.515625 8.265625 
Q 44.046875 -1.421875 31.78125 -1.421875 
Q 19.53125 -1.421875 13.0625 8.265625 
Q 6.59375 17.96875 6.59375 36.375 
Q 6.59375 54.828125 13.0625 64.515625 
Q 19.53125 74.21875 31.78125 74.21875 
z
" id="DejaVuSans-48"/>
       </defs>
       <use xlink:href="#DejaVuSans-8722"/>
       <use x="83.789062" xlink:href="#DejaVuSans-49"/>
       <use x="147.412109" xlink:href="#DejaVuSans-48"/>
       <use x="211.035156" xlink:href="#DejaVuSans-48"/>
      </g>
     </g>
    </g>
    <g id="xtick_2">
     <g id="line2d_3">
      <path clip-path="url(#p304c686b55)" d="M 145.609962 279.010828 
L 145.609962 12.898828 
" style="fill:none;stroke:#b0b0b0;stroke-linecap:square;stroke-width:0.8;"/>
     </g>
     <g id="line2d_4">
      <g>
       <use style="stroke:#000000;stroke-width:0.8;" x="145.609962" xlink:href="#m005f0a59be" y="279.010828"/>
      </g>
     </g>
     <g id="text_2">
      <!-- 0 -->
      <g transform="translate(140.838087 297.408484)scale(0.15 -0.15)">
       <use xlink:href="#DejaVuSans-48"/>
      </g>
     </g>
    </g>
    <g id="xtick_3">
     <g id="line2d_5">
      <path clip-path="url(#p304c686b55)" d="M 203.678255 279.010828 
L 203.678255 12.898828 
" style="fill:none;stroke:#b0b0b0;stroke-linecap:square;stroke-width:0.8;"/>
     </g>
     <g id="line2d_6">
      <g>
       <use style="stroke:#000000;stroke-width:0.8;" x="203.678255" xlink:href="#m005f0a59be" y="279.010828"/>
      </g>
     </g>
     <g id="text_3">
      <!-- 100 -->
      <g transform="translate(189.36263 297.408484)scale(0.15 -0.15)">
       <use xlink:href="#DejaVuSans-49"/>
       <use x="63.623047" xlink:href="#DejaVuSans-48"/>
       <use x="127.246094" xlink:href="#DejaVuSans-48"/>
      </g>
     </g>
    </g>
    <g id="xtick_4">
     <g id="line2d_7">
      <path clip-path="url(#p304c686b55)" d="M 261.746547 279.010828 
L 261.746547 12.898828 
" style="fill:none;stroke:#b0b0b0;stroke-linecap:square;stroke-width:0.8;"/>
     </g>
     <g id="line2d_8">
      <g>
       <use style="stroke:#000000;stroke-width:0.8;" x="261.746547" xlink:href="#m005f0a59be" y="279.010828"/>
      </g>
     </g>
     <g id="text_4">
      <!-- 200 -->
      <g transform="translate(247.430922 297.408484)scale(0.15 -0.15)">
       <defs>
        <path d="M 19.1875 8.296875 
L 53.609375 8.296875 
L 53.609375 0 
L 7.328125 0 
L 7.328125 8.296875 
Q 12.9375 14.109375 22.625 23.890625 
Q 32.328125 33.6875 34.8125 36.53125 
Q 39.546875 41.84375 41.421875 45.53125 
Q 43.3125 49.21875 43.3125 52.78125 
Q 43.3125 58.59375 39.234375 62.25 
Q 35.15625 65.921875 28.609375 65.921875 
Q 23.96875 65.921875 18.8125 64.3125 
Q 13.671875 62.703125 7.8125 59.421875 
L 7.8125 69.390625 
Q 13.765625 71.78125 18.9375 73 
Q 24.125 74.21875 28.421875 74.21875 
Q 39.75 74.21875 46.484375 68.546875 
Q 53.21875 62.890625 53.21875 53.421875 
Q 53.21875 48.921875 51.53125 44.890625 
Q 49.859375 40.875 45.40625 35.40625 
Q 44.1875 33.984375 37.640625 27.21875 
Q 31.109375 20.453125 19.1875 8.296875 
z
" id="DejaVuSans-50"/>
       </defs>
       <use xlink:href="#DejaVuSans-50"/>
       <use x="63.623047" xlink:href="#DejaVuSans-48"/>
       <use x="127.246094" xlink:href="#DejaVuSans-48"/>
      </g>
     </g>
    </g>
    <g id="xtick_5">
     <g id="line2d_9">
      <path clip-path="url(#p304c686b55)" d="M 319.81484 279.010828 
L 319.81484 12.898828 
" style="fill:none;stroke:#b0b0b0;stroke-linecap:square;stroke-width:0.8;"/>
     </g>
     <g id="line2d_10">
      <g>
       <use style="stroke:#000000;stroke-width:0.8;" x="319.81484" xlink:href="#m005f0a59be" y="279.010828"/>
      </g>
     </g>
     <g id="text_5">
      <!-- 300 -->
      <g transform="translate(305.499215 297.408484)scale(0.15 -0.15)">
       <defs>
        <path d="M 40.578125 39.3125 
Q 47.65625 37.796875 51.625 33 
Q 55.609375 28.21875 55.609375 21.1875 
Q 55.609375 10.40625 48.1875 4.484375 
Q 40.765625 -1.421875 27.09375 -1.421875 
Q 22.515625 -1.421875 17.65625 -0.515625 
Q 12.796875 0.390625 7.625 2.203125 
L 7.625 11.71875 
Q 11.71875 9.328125 16.59375 8.109375 
Q 21.484375 6.890625 26.8125 6.890625 
Q 36.078125 6.890625 40.9375 10.546875 
Q 45.796875 14.203125 45.796875 21.1875 
Q 45.796875 27.640625 41.28125 31.265625 
Q 36.765625 34.90625 28.71875 34.90625 
L 20.21875 34.90625 
L 20.21875 43.015625 
L 29.109375 43.015625 
Q 36.375 43.015625 40.234375 45.921875 
Q 44.09375 48.828125 44.09375 54.296875 
Q 44.09375 59.90625 40.109375 62.90625 
Q 36.140625 65.921875 28.71875 65.921875 
Q 24.65625 65.921875 20.015625 65.03125 
Q 15.375 64.15625 9.8125 62.3125 
L 9.8125 71.09375 
Q 15.4375 72.65625 20.34375 73.4375 
Q 25.25 74.21875 29.59375 74.21875 
Q 40.828125 74.21875 47.359375 69.109375 
Q 53.90625 64.015625 53.90625 55.328125 
Q 53.90625 49.265625 50.4375 45.09375 
Q 46.96875 40.921875 40.578125 39.3125 
z
" id="DejaVuSans-51"/>
       </defs>
       <use xlink:href="#DejaVuSans-51"/>
       <use x="63.623047" xlink:href="#DejaVuSans-48"/>
       <use x="127.246094" xlink:href="#DejaVuSans-48"/>
      </g>
     </g>
    </g>
    <g id="xtick_6">
     <g id="line2d_11">
      <path clip-path="url(#p304c686b55)" d="M 377.883133 279.010828 
L 377.883133 12.898828 
" style="fill:none;stroke:#b0b0b0;stroke-linecap:square;stroke-width:0.8;"/>
     </g>
     <g id="line2d_12">
      <g>
       <use style="stroke:#000000;stroke-width:0.8;" x="377.883133" xlink:href="#m005f0a59be" y="279.010828"/>
      </g>
     </g>
     <g id="text_6">
      <!-- 400 -->
      <g transform="translate(363.567508 297.408484)scale(0.15 -0.15)">
       <defs>
        <path d="M 37.796875 64.3125 
L 12.890625 25.390625 
L 37.796875 25.390625 
z
M 35.203125 72.90625 
L 47.609375 72.90625 
L 47.609375 25.390625 
L 58.015625 25.390625 
L 58.015625 17.1875 
L 47.609375 17.1875 
L 47.609375 0 
L 37.796875 0 
L 37.796875 17.1875 
L 4.890625 17.1875 
L 4.890625 26.703125 
z
" id="DejaVuSans-52"/>
       </defs>
       <use xlink:href="#DejaVuSans-52"/>
       <use x="63.623047" xlink:href="#DejaVuSans-48"/>
       <use x="127.246094" xlink:href="#DejaVuSans-48"/>
      </g>
     </g>
    </g>
    <g id="text_7">
     <!-- $\delta$, Detuning from carrier (kHz) -->
     <g transform="translate(89.270938 319.728016)scale(0.2 -0.2)">
      <defs>
       <path d="M 54.25 63.328125 
Q 49.953125 66.75 38.28125 66.75 
Q 25.921875 66.75 24.8125 61.03125 
Q 23.921875 56.546875 36.375 54.203125 
Q 46.140625 52.390625 50.828125 46.921875 
Q 56.5 40.328125 53.859375 26.8125 
Q 51.3125 13.875 43.171875 6.25 
Q 34.96875 -1.421875 23.25 -1.421875 
Q 11.578125 -1.421875 6.34375 6.25 
Q 1.125 13.875 3.765625 27.296875 
Q 5.671875 37.25 13.921875 45.3125 
Q 17.140625 48.4375 21.140625 50.203125 
Q 14.265625 54.046875 15.625 60.9375 
Q 18.21875 74.21875 39.75 74.21875 
Q 50.53125 74.21875 55.71875 70.796875 
z
M 27.390625 47.75 
Q 23.828125 46.34375 20.40625 42.78125 
Q 15.140625 37.25 13.234375 27.296875 
Q 11.28125 17.390625 14.359375 11.8125 
Q 17.484375 6.203125 24.75 6.203125 
Q 31.9375 6.203125 37.203125 11.859375 
Q 42.53125 17.53125 44.34375 26.8125 
Q 46.1875 36.53125 42.671875 41.21875 
Q 38.921875 46.234375 32.859375 46.78125 
Q 29.78125 47.078125 27.390625 47.75 
z
" id="DejaVuSans-Oblique-948"/>
       <path d="M 11.71875 12.40625 
L 22.015625 12.40625 
L 22.015625 4 
L 14.015625 -11.625 
L 7.71875 -11.625 
L 11.71875 4 
z
" id="DejaVuSans-44"/>
       <path id="DejaVuSans-32"/>
       <path d="M 19.671875 64.796875 
L 19.671875 8.109375 
L 31.59375 8.109375 
Q 46.6875 8.109375 53.6875 14.9375 
Q 60.6875 21.78125 60.6875 36.53125 
Q 60.6875 51.171875 53.6875 57.984375 
Q 46.6875 64.796875 31.59375 64.796875 
z
M 9.8125 72.90625 
L 30.078125 72.90625 
Q 51.265625 72.90625 61.171875 64.09375 
Q 71.09375 55.28125 71.09375 36.53125 
Q 71.09375 17.671875 61.125 8.828125 
Q 51.171875 0 30.078125 0 
L 9.8125 0 
z
" id="DejaVuSans-68"/>
       <path d="M 56.203125 29.59375 
L 56.203125 25.203125 
L 14.890625 25.203125 
Q 15.484375 15.921875 20.484375 11.0625 
Q 25.484375 6.203125 34.421875 6.203125 
Q 39.59375 6.203125 44.453125 7.46875 
Q 49.3125 8.734375 54.109375 11.28125 
L 54.109375 2.78125 
Q 49.265625 0.734375 44.1875 -0.34375 
Q 39.109375 -1.421875 33.890625 -1.421875 
Q 20.796875 -1.421875 13.15625 6.1875 
Q 5.515625 13.8125 5.515625 26.8125 
Q 5.515625 40.234375 12.765625 48.109375 
Q 20.015625 56 32.328125 56 
Q 43.359375 56 49.78125 48.890625 
Q 56.203125 41.796875 56.203125 29.59375 
z
M 47.21875 32.234375 
Q 47.125 39.59375 43.09375 43.984375 
Q 39.0625 48.390625 32.421875 48.390625 
Q 24.90625 48.390625 20.390625 44.140625 
Q 15.875 39.890625 15.1875 32.171875 
z
" id="DejaVuSans-101"/>
       <path d="M 18.3125 70.21875 
L 18.3125 54.6875 
L 36.8125 54.6875 
L 36.8125 47.703125 
L 18.3125 47.703125 
L 18.3125 18.015625 
Q 18.3125 11.328125 20.140625 9.421875 
Q 21.96875 7.515625 27.59375 7.515625 
L 36.8125 7.515625 
L 36.8125 0 
L 27.59375 0 
Q 17.1875 0 13.234375 3.875 
Q 9.28125 7.765625 9.28125 18.015625 
L 9.28125 47.703125 
L 2.6875 47.703125 
L 2.6875 54.6875 
L 9.28125 54.6875 
L 9.28125 70.21875 
z
" id="DejaVuSans-116"/>
       <path d="M 8.5 21.578125 
L 8.5 54.6875 
L 17.484375 54.6875 
L 17.484375 21.921875 
Q 17.484375 14.15625 20.5 10.265625 
Q 23.53125 6.390625 29.59375 6.390625 
Q 36.859375 6.390625 41.078125 11.03125 
Q 45.3125 15.671875 45.3125 23.6875 
L 45.3125 54.6875 
L 54.296875 54.6875 
L 54.296875 0 
L 45.3125 0 
L 45.3125 8.40625 
Q 42.046875 3.421875 37.71875 1 
Q 33.40625 -1.421875 27.6875 -1.421875 
Q 18.265625 -1.421875 13.375 4.4375 
Q 8.5 10.296875 8.5 21.578125 
z
M 31.109375 56 
z
" id="DejaVuSans-117"/>
       <path d="M 54.890625 33.015625 
L 54.890625 0 
L 45.90625 0 
L 45.90625 32.71875 
Q 45.90625 40.484375 42.875 44.328125 
Q 39.84375 48.1875 33.796875 48.1875 
Q 26.515625 48.1875 22.3125 43.546875 
Q 18.109375 38.921875 18.109375 30.90625 
L 18.109375 0 
L 9.078125 0 
L 9.078125 54.6875 
L 18.109375 54.6875 
L 18.109375 46.1875 
Q 21.34375 51.125 25.703125 53.5625 
Q 30.078125 56 35.796875 56 
Q 45.21875 56 50.046875 50.171875 
Q 54.890625 44.34375 54.890625 33.015625 
z
" id="DejaVuSans-110"/>
       <path d="M 9.421875 54.6875 
L 18.40625 54.6875 
L 18.40625 0 
L 9.421875 0 
z
M 9.421875 75.984375 
L 18.40625 75.984375 
L 18.40625 64.59375 
L 9.421875 64.59375 
z
" id="DejaVuSans-105"/>
       <path d="M 45.40625 27.984375 
Q 45.40625 37.75 41.375 43.109375 
Q 37.359375 48.484375 30.078125 48.484375 
Q 22.859375 48.484375 18.828125 43.109375 
Q 14.796875 37.75 14.796875 27.984375 
Q 14.796875 18.265625 18.828125 12.890625 
Q 22.859375 7.515625 30.078125 7.515625 
Q 37.359375 7.515625 41.375 12.890625 
Q 45.40625 18.265625 45.40625 27.984375 
z
M 54.390625 6.78125 
Q 54.390625 -7.171875 48.1875 -13.984375 
Q 42 -20.796875 29.203125 -20.796875 
Q 24.46875 -20.796875 20.265625 -20.09375 
Q 16.0625 -19.390625 12.109375 -17.921875 
L 12.109375 -9.1875 
Q 16.0625 -11.328125 19.921875 -12.34375 
Q 23.78125 -13.375 27.78125 -13.375 
Q 36.625 -13.375 41.015625 -8.765625 
Q 45.40625 -4.15625 45.40625 5.171875 
L 45.40625 9.625 
Q 42.625 4.78125 38.28125 2.390625 
Q 33.9375 0 27.875 0 
Q 17.828125 0 11.671875 7.65625 
Q 5.515625 15.328125 5.515625 27.984375 
Q 5.515625 40.671875 11.671875 48.328125 
Q 17.828125 56 27.875 56 
Q 33.9375 56 38.28125 53.609375 
Q 42.625 51.21875 45.40625 46.390625 
L 45.40625 54.6875 
L 54.390625 54.6875 
z
" id="DejaVuSans-103"/>
       <path d="M 37.109375 75.984375 
L 37.109375 68.5 
L 28.515625 68.5 
Q 23.6875 68.5 21.796875 66.546875 
Q 19.921875 64.59375 19.921875 59.515625 
L 19.921875 54.6875 
L 34.71875 54.6875 
L 34.71875 47.703125 
L 19.921875 47.703125 
L 19.921875 0 
L 10.890625 0 
L 10.890625 47.703125 
L 2.296875 47.703125 
L 2.296875 54.6875 
L 10.890625 54.6875 
L 10.890625 58.5 
Q 10.890625 67.625 15.140625 71.796875 
Q 19.390625 75.984375 28.609375 75.984375 
z
" id="DejaVuSans-102"/>
       <path d="M 41.109375 46.296875 
Q 39.59375 47.171875 37.8125 47.578125 
Q 36.03125 48 33.890625 48 
Q 26.265625 48 22.1875 43.046875 
Q 18.109375 38.09375 18.109375 28.8125 
L 18.109375 0 
L 9.078125 0 
L 9.078125 54.6875 
L 18.109375 54.6875 
L 18.109375 46.1875 
Q 20.953125 51.171875 25.484375 53.578125 
Q 30.03125 56 36.53125 56 
Q 37.453125 56 38.578125 55.875 
Q 39.703125 55.765625 41.0625 55.515625 
z
" id="DejaVuSans-114"/>
       <path d="M 30.609375 48.390625 
Q 23.390625 48.390625 19.1875 42.75 
Q 14.984375 37.109375 14.984375 27.296875 
Q 14.984375 17.484375 19.15625 11.84375 
Q 23.34375 6.203125 30.609375 6.203125 
Q 37.796875 6.203125 41.984375 11.859375 
Q 46.1875 17.53125 46.1875 27.296875 
Q 46.1875 37.015625 41.984375 42.703125 
Q 37.796875 48.390625 30.609375 48.390625 
z
M 30.609375 56 
Q 42.328125 56 49.015625 48.375 
Q 55.71875 40.765625 55.71875 27.296875 
Q 55.71875 13.875 49.015625 6.21875 
Q 42.328125 -1.421875 30.609375 -1.421875 
Q 18.84375 -1.421875 12.171875 6.21875 
Q 5.515625 13.875 5.515625 27.296875 
Q 5.515625 40.765625 12.171875 48.375 
Q 18.84375 56 30.609375 56 
z
" id="DejaVuSans-111"/>
       <path d="M 52 44.1875 
Q 55.375 50.25 60.0625 53.125 
Q 64.75 56 71.09375 56 
Q 79.640625 56 84.28125 50.015625 
Q 88.921875 44.046875 88.921875 33.015625 
L 88.921875 0 
L 79.890625 0 
L 79.890625 32.71875 
Q 79.890625 40.578125 77.09375 44.375 
Q 74.3125 48.1875 68.609375 48.1875 
Q 61.625 48.1875 57.5625 43.546875 
Q 53.515625 38.921875 53.515625 30.90625 
L 53.515625 0 
L 44.484375 0 
L 44.484375 32.71875 
Q 44.484375 40.625 41.703125 44.40625 
Q 38.921875 48.1875 33.109375 48.1875 
Q 26.21875 48.1875 22.15625 43.53125 
Q 18.109375 38.875 18.109375 30.90625 
L 18.109375 0 
L 9.078125 0 
L 9.078125 54.6875 
L 18.109375 54.6875 
L 18.109375 46.1875 
Q 21.1875 51.21875 25.484375 53.609375 
Q 29.78125 56 35.6875 56 
Q 41.65625 56 45.828125 52.96875 
Q 50 49.953125 52 44.1875 
z
" id="DejaVuSans-109"/>
       <path d="M 48.78125 52.59375 
L 48.78125 44.1875 
Q 44.96875 46.296875 41.140625 47.34375 
Q 37.3125 48.390625 33.40625 48.390625 
Q 24.65625 48.390625 19.8125 42.84375 
Q 14.984375 37.3125 14.984375 27.296875 
Q 14.984375 17.28125 19.8125 11.734375 
Q 24.65625 6.203125 33.40625 6.203125 
Q 37.3125 6.203125 41.140625 7.25 
Q 44.96875 8.296875 48.78125 10.40625 
L 48.78125 2.09375 
Q 45.015625 0.34375 40.984375 -0.53125 
Q 36.96875 -1.421875 32.421875 -1.421875 
Q 20.0625 -1.421875 12.78125 6.34375 
Q 5.515625 14.109375 5.515625 27.296875 
Q 5.515625 40.671875 12.859375 48.328125 
Q 20.21875 56 33.015625 56 
Q 37.15625 56 41.109375 55.140625 
Q 45.0625 54.296875 48.78125 52.59375 
z
" id="DejaVuSans-99"/>
       <path d="M 34.28125 27.484375 
Q 23.390625 27.484375 19.1875 25 
Q 14.984375 22.515625 14.984375 16.5 
Q 14.984375 11.71875 18.140625 8.90625 
Q 21.296875 6.109375 26.703125 6.109375 
Q 34.1875 6.109375 38.703125 11.40625 
Q 43.21875 16.703125 43.21875 25.484375 
L 43.21875 27.484375 
z
M 52.203125 31.203125 
L 52.203125 0 
L 43.21875 0 
L 43.21875 8.296875 
Q 40.140625 3.328125 35.546875 0.953125 
Q 30.953125 -1.421875 24.3125 -1.421875 
Q 15.921875 -1.421875 10.953125 3.296875 
Q 6 8.015625 6 15.921875 
Q 6 25.140625 12.171875 29.828125 
Q 18.359375 34.515625 30.609375 34.515625 
L 43.21875 34.515625 
L 43.21875 35.40625 
Q 43.21875 41.609375 39.140625 45 
Q 35.0625 48.390625 27.6875 48.390625 
Q 23 48.390625 18.546875 47.265625 
Q 14.109375 46.140625 10.015625 43.890625 
L 10.015625 52.203125 
Q 14.9375 54.109375 19.578125 55.046875 
Q 24.21875 56 28.609375 56 
Q 40.484375 56 46.34375 49.84375 
Q 52.203125 43.703125 52.203125 31.203125 
z
" id="DejaVuSans-97"/>
       <path d="M 31 75.875 
Q 24.46875 64.65625 21.28125 53.65625 
Q 18.109375 42.671875 18.109375 31.390625 
Q 18.109375 20.125 21.3125 9.0625 
Q 24.515625 -2 31 -13.1875 
L 23.1875 -13.1875 
Q 15.875 -1.703125 12.234375 9.375 
Q 8.59375 20.453125 8.59375 31.390625 
Q 8.59375 42.28125 12.203125 53.3125 
Q 15.828125 64.359375 23.1875 75.875 
z
" id="DejaVuSans-40"/>
       <path d="M 9.078125 75.984375 
L 18.109375 75.984375 
L 18.109375 31.109375 
L 44.921875 54.6875 
L 56.390625 54.6875 
L 27.390625 29.109375 
L 57.625 0 
L 45.90625 0 
L 18.109375 26.703125 
L 18.109375 0 
L 9.078125 0 
z
" id="DejaVuSans-107"/>
       <path d="M 9.8125 72.90625 
L 19.671875 72.90625 
L 19.671875 43.015625 
L 55.515625 43.015625 
L 55.515625 72.90625 
L 65.375 72.90625 
L 65.375 0 
L 55.515625 0 
L 55.515625 34.71875 
L 19.671875 34.71875 
L 19.671875 0 
L 9.8125 0 
z
" id="DejaVuSans-72"/>
       <path d="M 5.515625 54.6875 
L 48.1875 54.6875 
L 48.1875 46.484375 
L 14.40625 7.171875 
L 48.1875 7.171875 
L 48.1875 0 
L 4.296875 0 
L 4.296875 8.203125 
L 38.09375 47.515625 
L 5.515625 47.515625 
z
" id="DejaVuSans-122"/>
       <path d="M 8.015625 75.875 
L 15.828125 75.875 
Q 23.140625 64.359375 26.78125 53.3125 
Q 30.421875 42.28125 30.421875 31.390625 
Q 30.421875 20.453125 26.78125 9.375 
Q 23.140625 -1.703125 15.828125 -13.1875 
L 8.015625 -13.1875 
Q 14.5 -2 17.703125 9.0625 
Q 20.90625 20.125 20.90625 31.390625 
Q 20.90625 42.671875 17.703125 53.65625 
Q 14.5 64.65625 8.015625 75.875 
z
" id="DejaVuSans-41"/>
      </defs>
      <use transform="translate(0 0.015625)" xlink:href="#DejaVuSans-Oblique-948"/>
      <use transform="translate(61.181641 0.015625)" xlink:href="#DejaVuSans-44"/>
      <use transform="translate(92.96875 0.015625)" xlink:href="#DejaVuSans-32"/>
      <use transform="translate(124.755859 0.015625)" xlink:href="#DejaVuSans-68"/>
      <use transform="translate(201.757812 0.015625)" xlink:href="#DejaVuSans-101"/>
      <use transform="translate(263.28125 0.015625)" xlink:href="#DejaVuSans-116"/>
      <use transform="translate(302.490234 0.015625)" xlink:href="#DejaVuSans-117"/>
      <use transform="translate(365.869141 0.015625)" xlink:href="#DejaVuSans-110"/>
      <use transform="translate(429.248047 0.015625)" xlink:href="#DejaVuSans-105"/>
      <use transform="translate(457.03125 0.015625)" xlink:href="#DejaVuSans-110"/>
      <use transform="translate(520.410156 0.015625)" xlink:href="#DejaVuSans-103"/>
      <use transform="translate(583.886719 0.015625)" xlink:href="#DejaVuSans-32"/>
      <use transform="translate(615.673828 0.015625)" xlink:href="#DejaVuSans-102"/>
      <use transform="translate(650.878906 0.015625)" xlink:href="#DejaVuSans-114"/>
      <use transform="translate(691.992188 0.015625)" xlink:href="#DejaVuSans-111"/>
      <use transform="translate(753.173828 0.015625)" xlink:href="#DejaVuSans-109"/>
      <use transform="translate(850.585938 0.015625)" xlink:href="#DejaVuSans-32"/>
      <use transform="translate(882.373047 0.015625)" xlink:href="#DejaVuSans-99"/>
      <use transform="translate(937.353516 0.015625)" xlink:href="#DejaVuSans-97"/>
      <use transform="translate(998.632812 0.015625)" xlink:href="#DejaVuSans-114"/>
      <use transform="translate(1039.746094 0.015625)" xlink:href="#DejaVuSans-114"/>
      <use transform="translate(1080.859375 0.015625)" xlink:href="#DejaVuSans-105"/>
      <use transform="translate(1108.642578 0.015625)" xlink:href="#DejaVuSans-101"/>
      <use transform="translate(1170.166016 0.015625)" xlink:href="#DejaVuSans-114"/>
      <use transform="translate(1211.279297 0.015625)" xlink:href="#DejaVuSans-32"/>
      <use transform="translate(1243.066406 0.015625)" xlink:href="#DejaVuSans-40"/>
      <use transform="translate(1282.080078 0.015625)" xlink:href="#DejaVuSans-107"/>
      <use transform="translate(1339.990234 0.015625)" xlink:href="#DejaVuSans-72"/>
      <use transform="translate(1415.185547 0.015625)" xlink:href="#DejaVuSans-122"/>
      <use transform="translate(1467.675781 0.015625)" xlink:href="#DejaVuSans-41"/>
     </g>
    </g>
   </g>
   <g id="matplotlib.axis_2">
    <g id="ytick_1">
     <g id="line2d_13">
      <path clip-path="url(#p304c686b55)" d="M 61.410938 279.010828 
L 418.530938 279.010828 
" style="fill:none;stroke:#b0b0b0;stroke-linecap:square;stroke-width:0.8;"/>
     </g>
     <g id="line2d_14">
      <defs>
       <path d="M 0 0 
L -3.5 0 
" id="mc3ce260a5b" style="stroke:#000000;stroke-width:0.8;"/>
      </defs>
      <g>
       <use style="stroke:#000000;stroke-width:0.8;" x="61.410938" xlink:href="#mc3ce260a5b" y="279.010828"/>
      </g>
     </g>
     <g id="text_8">
      <!-- 0.0 -->
      <g transform="translate(30.55625 284.709656)scale(0.15 -0.15)">
       <defs>
        <path d="M 10.6875 12.40625 
L 21 12.40625 
L 21 0 
L 10.6875 0 
z
" id="DejaVuSans-46"/>
       </defs>
       <use xlink:href="#DejaVuSans-48"/>
       <use x="63.623047" xlink:href="#DejaVuSans-46"/>
       <use x="95.410156" xlink:href="#DejaVuSans-48"/>
      </g>
     </g>
    </g>
    <g id="ytick_2">
     <g id="line2d_15">
      <path clip-path="url(#p304c686b55)" d="M 61.410938 225.788428 
L 418.530938 225.788428 
" style="fill:none;stroke:#b0b0b0;stroke-linecap:square;stroke-width:0.8;"/>
     </g>
     <g id="line2d_16">
      <g>
       <use style="stroke:#000000;stroke-width:0.8;" x="61.410938" xlink:href="#mc3ce260a5b" y="225.788428"/>
      </g>
     </g>
     <g id="text_9">
      <!-- 0.2 -->
      <g transform="translate(30.55625 231.487256)scale(0.15 -0.15)">
       <use xlink:href="#DejaVuSans-48"/>
       <use x="63.623047" xlink:href="#DejaVuSans-46"/>
       <use x="95.410156" xlink:href="#DejaVuSans-50"/>
      </g>
     </g>
    </g>
    <g id="ytick_3">
     <g id="line2d_17">
      <path clip-path="url(#p304c686b55)" d="M 61.410938 172.566028 
L 418.530938 172.566028 
" style="fill:none;stroke:#b0b0b0;stroke-linecap:square;stroke-width:0.8;"/>
     </g>
     <g id="line2d_18">
      <g>
       <use style="stroke:#000000;stroke-width:0.8;" x="61.410938" xlink:href="#mc3ce260a5b" y="172.566028"/>
      </g>
     </g>
     <g id="text_10">
      <!-- 0.4 -->
      <g transform="translate(30.55625 178.264856)scale(0.15 -0.15)">
       <use xlink:href="#DejaVuSans-48"/>
       <use x="63.623047" xlink:href="#DejaVuSans-46"/>
       <use x="95.410156" xlink:href="#DejaVuSans-52"/>
      </g>
     </g>
    </g>
    <g id="ytick_4">
     <g id="line2d_19">
      <path clip-path="url(#p304c686b55)" d="M 61.410938 119.343628 
L 418.530938 119.343628 
" style="fill:none;stroke:#b0b0b0;stroke-linecap:square;stroke-width:0.8;"/>
     </g>
     <g id="line2d_20">
      <g>
       <use style="stroke:#000000;stroke-width:0.8;" x="61.410938" xlink:href="#mc3ce260a5b" y="119.343628"/>
      </g>
     </g>
     <g id="text_11">
      <!-- 0.6 -->
      <g transform="translate(30.55625 125.042456)scale(0.15 -0.15)">
       <defs>
        <path d="M 33.015625 40.375 
Q 26.375 40.375 22.484375 35.828125 
Q 18.609375 31.296875 18.609375 23.390625 
Q 18.609375 15.53125 22.484375 10.953125 
Q 26.375 6.390625 33.015625 6.390625 
Q 39.65625 6.390625 43.53125 10.953125 
Q 47.40625 15.53125 47.40625 23.390625 
Q 47.40625 31.296875 43.53125 35.828125 
Q 39.65625 40.375 33.015625 40.375 
z
M 52.59375 71.296875 
L 52.59375 62.3125 
Q 48.875 64.0625 45.09375 64.984375 
Q 41.3125 65.921875 37.59375 65.921875 
Q 27.828125 65.921875 22.671875 59.328125 
Q 17.53125 52.734375 16.796875 39.40625 
Q 19.671875 43.65625 24.015625 45.921875 
Q 28.375 48.1875 33.59375 48.1875 
Q 44.578125 48.1875 50.953125 41.515625 
Q 57.328125 34.859375 57.328125 23.390625 
Q 57.328125 12.15625 50.6875 5.359375 
Q 44.046875 -1.421875 33.015625 -1.421875 
Q 20.359375 -1.421875 13.671875 8.265625 
Q 6.984375 17.96875 6.984375 36.375 
Q 6.984375 53.65625 15.1875 63.9375 
Q 23.390625 74.21875 37.203125 74.21875 
Q 40.921875 74.21875 44.703125 73.484375 
Q 48.484375 72.75 52.59375 71.296875 
z
" id="DejaVuSans-54"/>
       </defs>
       <use xlink:href="#DejaVuSans-48"/>
       <use x="63.623047" xlink:href="#DejaVuSans-46"/>
       <use x="95.410156" xlink:href="#DejaVuSans-54"/>
      </g>
     </g>
    </g>
    <g id="ytick_5">
     <g id="line2d_21">
      <path clip-path="url(#p304c686b55)" d="M 61.410938 66.121228 
L 418.530938 66.121228 
" style="fill:none;stroke:#b0b0b0;stroke-linecap:square;stroke-width:0.8;"/>
     </g>
     <g id="line2d_22">
      <g>
       <use style="stroke:#000000;stroke-width:0.8;" x="61.410938" xlink:href="#mc3ce260a5b" y="66.121228"/>
      </g>
     </g>
     <g id="text_12">
      <!-- 0.8 -->
      <g transform="translate(30.55625 71.820056)scale(0.15 -0.15)">
       <defs>
        <path d="M 31.78125 34.625 
Q 24.75 34.625 20.71875 30.859375 
Q 16.703125 27.09375 16.703125 20.515625 
Q 16.703125 13.921875 20.71875 10.15625 
Q 24.75 6.390625 31.78125 6.390625 
Q 38.8125 6.390625 42.859375 10.171875 
Q 46.921875 13.96875 46.921875 20.515625 
Q 46.921875 27.09375 42.890625 30.859375 
Q 38.875 34.625 31.78125 34.625 
z
M 21.921875 38.8125 
Q 15.578125 40.375 12.03125 44.71875 
Q 8.5 49.078125 8.5 55.328125 
Q 8.5 64.0625 14.71875 69.140625 
Q 20.953125 74.21875 31.78125 74.21875 
Q 42.671875 74.21875 48.875 69.140625 
Q 55.078125 64.0625 55.078125 55.328125 
Q 55.078125 49.078125 51.53125 44.71875 
Q 48 40.375 41.703125 38.8125 
Q 48.828125 37.15625 52.796875 32.3125 
Q 56.78125 27.484375 56.78125 20.515625 
Q 56.78125 9.90625 50.3125 4.234375 
Q 43.84375 -1.421875 31.78125 -1.421875 
Q 19.734375 -1.421875 13.25 4.234375 
Q 6.78125 9.90625 6.78125 20.515625 
Q 6.78125 27.484375 10.78125 32.3125 
Q 14.796875 37.15625 21.921875 38.8125 
z
M 18.3125 54.390625 
Q 18.3125 48.734375 21.84375 45.5625 
Q 25.390625 42.390625 31.78125 42.390625 
Q 38.140625 42.390625 41.71875 45.5625 
Q 45.3125 48.734375 45.3125 54.390625 
Q 45.3125 60.0625 41.71875 63.234375 
Q 38.140625 66.40625 31.78125 66.40625 
Q 25.390625 66.40625 21.84375 63.234375 
Q 18.3125 60.0625 18.3125 54.390625 
z
" id="DejaVuSans-56"/>
       </defs>
       <use xlink:href="#DejaVuSans-48"/>
       <use x="63.623047" xlink:href="#DejaVuSans-46"/>
       <use x="95.410156" xlink:href="#DejaVuSans-56"/>
      </g>
     </g>
    </g>
    <g id="ytick_6">
     <g id="line2d_23">
      <path clip-path="url(#p304c686b55)" d="M 61.410938 12.898828 
L 418.530938 12.898828 
" style="fill:none;stroke:#b0b0b0;stroke-linecap:square;stroke-width:0.8;"/>
     </g>
     <g id="line2d_24">
      <g>
       <use style="stroke:#000000;stroke-width:0.8;" x="61.410938" xlink:href="#mc3ce260a5b" y="12.898828"/>
      </g>
     </g>
     <g id="text_13">
      <!-- 1.0 -->
      <g transform="translate(30.55625 18.597656)scale(0.15 -0.15)">
       <use xlink:href="#DejaVuSans-49"/>
       <use x="63.623047" xlink:href="#DejaVuSans-46"/>
       <use x="95.410156" xlink:href="#DejaVuSans-48"/>
      </g>
     </g>
    </g>
    <g id="text_14">
     <!-- F=1 population -->
     <g transform="translate(22.396875 222.840766)rotate(-90)scale(0.2 -0.2)">
      <defs>
       <path d="M 9.8125 72.90625 
L 51.703125 72.90625 
L 51.703125 64.59375 
L 19.671875 64.59375 
L 19.671875 43.109375 
L 48.578125 43.109375 
L 48.578125 34.8125 
L 19.671875 34.8125 
L 19.671875 0 
L 9.8125 0 
z
" id="DejaVuSans-70"/>
       <path d="M 10.59375 45.40625 
L 73.1875 45.40625 
L 73.1875 37.203125 
L 10.59375 37.203125 
z
M 10.59375 25.484375 
L 73.1875 25.484375 
L 73.1875 17.1875 
L 10.59375 17.1875 
z
" id="DejaVuSans-61"/>
       <path d="M 18.109375 8.203125 
L 18.109375 -20.796875 
L 9.078125 -20.796875 
L 9.078125 54.6875 
L 18.109375 54.6875 
L 18.109375 46.390625 
Q 20.953125 51.265625 25.265625 53.625 
Q 29.59375 56 35.59375 56 
Q 45.5625 56 51.78125 48.09375 
Q 58.015625 40.1875 58.015625 27.296875 
Q 58.015625 14.40625 51.78125 6.484375 
Q 45.5625 -1.421875 35.59375 -1.421875 
Q 29.59375 -1.421875 25.265625 0.953125 
Q 20.953125 3.328125 18.109375 8.203125 
z
M 48.6875 27.296875 
Q 48.6875 37.203125 44.609375 42.84375 
Q 40.53125 48.484375 33.40625 48.484375 
Q 26.265625 48.484375 22.1875 42.84375 
Q 18.109375 37.203125 18.109375 27.296875 
Q 18.109375 17.390625 22.1875 11.75 
Q 26.265625 6.109375 33.40625 6.109375 
Q 40.53125 6.109375 44.609375 11.75 
Q 48.6875 17.390625 48.6875 27.296875 
z
" id="DejaVuSans-112"/>
       <path d="M 9.421875 75.984375 
L 18.40625 75.984375 
L 18.40625 0 
L 9.421875 0 
z
" id="DejaVuSans-108"/>
      </defs>
      <use xlink:href="#DejaVuSans-70"/>
      <use x="57.519531" xlink:href="#DejaVuSans-61"/>
      <use x="141.308594" xlink:href="#DejaVuSans-49"/>
      <use x="204.931641" xlink:href="#DejaVuSans-32"/>
      <use x="236.71875" xlink:href="#DejaVuSans-112"/>
      <use x="300.195312" xlink:href="#DejaVuSans-111"/>
      <use x="361.376953" xlink:href="#DejaVuSans-112"/>
      <use x="424.853516" xlink:href="#DejaVuSans-117"/>
      <use x="488.232422" xlink:href="#DejaVuSans-108"/>
      <use x="516.015625" xlink:href="#DejaVuSans-97"/>
      <use x="577.294922" xlink:href="#DejaVuSans-116"/>
      <use x="616.503906" xlink:href="#DejaVuSans-105"/>
      <use x="644.287109" xlink:href="#DejaVuSans-111"/>
      <use x="705.46875" xlink:href="#DejaVuSans-110"/>
     </g>
    </g>
   </g>
   <g id="LineCollection_1">
    <path clip-path="url(#p304c686b55)" d="M 71.282547 271.876084 
L 71.282547 263.235268 
" style="fill:none;stroke:#d62728;stroke-width:1.5;"/>
    <path clip-path="url(#p304c686b55)" d="M 74.185962 272.934981 
L 74.185962 265.541726 
" style="fill:none;stroke:#d62728;stroke-width:1.5;"/>
    <path clip-path="url(#p304c686b55)" d="M 77.089377 269.51123 
L 77.089377 260.881312 
" style="fill:none;stroke:#d62728;stroke-width:1.5;"/>
    <path clip-path="url(#p304c686b55)" d="M 79.992791 254.938412 
L 79.992791 241.544844 
" style="fill:none;stroke:#d62728;stroke-width:1.5;"/>
    <path clip-path="url(#p304c686b55)" d="M 82.896206 245.603245 
L 82.896206 230.409052 
" style="fill:none;stroke:#d62728;stroke-width:1.5;"/>
    <path clip-path="url(#p304c686b55)" d="M 85.79962 219.885467 
L 85.79962 201.87402 
" style="fill:none;stroke:#d62728;stroke-width:1.5;"/>
    <path clip-path="url(#p304c686b55)" d="M 88.703035 186.465367 
L 88.703035 171.97229 
" style="fill:none;stroke:#d62728;stroke-width:1.5;"/>
    <path clip-path="url(#p304c686b55)" d="M 91.60645 162.380533 
L 91.60645 147.854201 
" style="fill:none;stroke:#d62728;stroke-width:1.5;"/>
    <path clip-path="url(#p304c686b55)" d="M 94.509864 165.315529 
L 94.509864 149.694127 
" style="fill:none;stroke:#d62728;stroke-width:1.5;"/>
    <path clip-path="url(#p304c686b55)" d="M 97.413279 173.865646 
L 97.413279 159.237818 
" style="fill:none;stroke:#d62728;stroke-width:1.5;"/>
    <path clip-path="url(#p304c686b55)" d="M 100.316694 187.472573 
L 100.316694 173.516305 
" style="fill:none;stroke:#d62728;stroke-width:1.5;"/>
    <path clip-path="url(#p304c686b55)" d="M 103.220108 220.440879 
L 103.220108 207.789955 
" style="fill:none;stroke:#d62728;stroke-width:1.5;"/>
    <path clip-path="url(#p304c686b55)" d="M 106.123523 243.671623 
L 106.123523 232.799582 
" style="fill:none;stroke:#d62728;stroke-width:1.5;"/>
    <path clip-path="url(#p304c686b55)" d="M 109.026938 258.582992 
L 109.026938 250.09875 
" style="fill:none;stroke:#d62728;stroke-width:1.5;"/>
    <path clip-path="url(#p304c686b55)" d="M 111.930352 266.2943 
L 111.930352 259.193287 
" style="fill:none;stroke:#d62728;stroke-width:1.5;"/>
    <path clip-path="url(#p304c686b55)" d="M 114.833767 271.76865 
L 114.833767 266.274628 
" style="fill:none;stroke:#d62728;stroke-width:1.5;"/>
    <path clip-path="url(#p304c686b55)" d="M 117.737181 270.75168 
L 117.737181 265.093977 
" style="fill:none;stroke:#d62728;stroke-width:1.5;"/>
    <path clip-path="url(#p304c686b55)" d="M 120.640596 276.179639 
L 120.640596 270.271931 
" style="fill:none;stroke:#d62728;stroke-width:1.5;"/>
    <path clip-path="url(#p304c686b55)" d="M 123.544011 271.729664 
L 123.544011 262.91729 
" style="fill:none;stroke:#d62728;stroke-width:1.5;"/>
    <path clip-path="url(#p304c686b55)" d="M 126.447425 271.489815 
L 126.447425 263.3244 
" style="fill:none;stroke:#d62728;stroke-width:1.5;"/>
    <path clip-path="url(#p304c686b55)" d="M 129.35084 260.020633 
L 129.35084 248.004223 
" style="fill:none;stroke:#d62728;stroke-width:1.5;"/>
    <path clip-path="url(#p304c686b55)" d="M 132.254255 243.028365 
L 132.254255 227.873291 
" style="fill:none;stroke:#d62728;stroke-width:1.5;"/>
    <path clip-path="url(#p304c686b55)" d="M 135.157669 226.936258 
L 135.157669 208.673878 
" style="fill:none;stroke:#d62728;stroke-width:1.5;"/>
    <path clip-path="url(#p304c686b55)" d="M 138.061084 204.972108 
L 138.061084 185.24644 
" style="fill:none;stroke:#d62728;stroke-width:1.5;"/>
    <path clip-path="url(#p304c686b55)" d="M 140.964498 193.529264 
L 140.964498 173.725356 
" style="fill:none;stroke:#d62728;stroke-width:1.5;"/>
    <path clip-path="url(#p304c686b55)" d="M 143.867913 185.566621 
L 143.867913 164.71599 
" style="fill:none;stroke:#d62728;stroke-width:1.5;"/>
    <path clip-path="url(#p304c686b55)" d="M 146.771328 177.091386 
L 146.771328 155.62211 
" style="fill:none;stroke:#d62728;stroke-width:1.5;"/>
    <path clip-path="url(#p304c686b55)" d="M 149.674742 213.489501 
L 149.674742 194.196156 
" style="fill:none;stroke:#d62728;stroke-width:1.5;"/>
    <path clip-path="url(#p304c686b55)" d="M 152.578157 229.95543 
L 152.578157 212.58366 
" style="fill:none;stroke:#d62728;stroke-width:1.5;"/>
    <path clip-path="url(#p304c686b55)" d="M 155.481572 259.541213 
L 155.481572 247.241487 
" style="fill:none;stroke:#d62728;stroke-width:1.5;"/>
    <path clip-path="url(#p304c686b55)" d="M 158.384986 266.219838 
L 158.384986 255.513818 
" style="fill:none;stroke:#d62728;stroke-width:1.5;"/>
    <path clip-path="url(#p304c686b55)" d="M 161.288401 277.394754 
L 161.288401 272.61148 
" style="fill:none;stroke:#d62728;stroke-width:1.5;"/>
    <path clip-path="url(#p304c686b55)" d="M 164.191816 274.608664 
L 164.191816 267.339113 
" style="fill:none;stroke:#d62728;stroke-width:1.5;"/>
    <path clip-path="url(#p304c686b55)" d="M 167.09523 268.955409 
L 167.09523 259.840074 
" style="fill:none;stroke:#d62728;stroke-width:1.5;"/>
    <path clip-path="url(#p304c686b55)" d="M 169.998645 274.025993 
L 169.998645 267.075247 
" style="fill:none;stroke:#d62728;stroke-width:1.5;"/>
    <path clip-path="url(#p304c686b55)" d="M 172.902059 267.439305 
L 172.902059 257.709693 
" style="fill:none;stroke:#d62728;stroke-width:1.5;"/>
    <path clip-path="url(#p304c686b55)" d="M 175.805474 268.836346 
L 175.805474 259.61731 
" style="fill:none;stroke:#d62728;stroke-width:1.5;"/>
    <path clip-path="url(#p304c686b55)" d="M 178.708889 267.697723 
L 178.708889 257.491933 
" style="fill:none;stroke:#d62728;stroke-width:1.5;"/>
    <path clip-path="url(#p304c686b55)" d="M 181.612303 256.294141 
L 181.612303 243.149402 
" style="fill:none;stroke:#d62728;stroke-width:1.5;"/>
    <path clip-path="url(#p304c686b55)" d="M 184.515718 234.836858 
L 184.515718 217.776799 
" style="fill:none;stroke:#d62728;stroke-width:1.5;"/>
    <path clip-path="url(#p304c686b55)" d="M 187.419133 209.42851 
L 187.419133 189.949454 
" style="fill:none;stroke:#d62728;stroke-width:1.5;"/>
    <path clip-path="url(#p304c686b55)" d="M 190.322547 192.912643 
L 190.322547 172.63807 
" style="fill:none;stroke:#d62728;stroke-width:1.5;"/>
    <path clip-path="url(#p304c686b55)" d="M 193.225962 185.823147 
L 193.225962 164.631149 
" style="fill:none;stroke:#d62728;stroke-width:1.5;"/>
    <path clip-path="url(#p304c686b55)" d="M 196.129377 170.078908 
L 196.129377 149.842538 
" style="fill:none;stroke:#d62728;stroke-width:1.5;"/>
    <path clip-path="url(#p304c686b55)" d="M 199.032791 189.740872 
L 199.032791 169.518117 
" style="fill:none;stroke:#d62728;stroke-width:1.5;"/>
    <path clip-path="url(#p304c686b55)" d="M 201.936206 214.417766 
L 201.936206 195.579091 
" style="fill:none;stroke:#d62728;stroke-width:1.5;"/>
    <path clip-path="url(#p304c686b55)" d="M 204.83962 245.142728 
L 204.83962 230.124587 
" style="fill:none;stroke:#d62728;stroke-width:1.5;"/>
    <path clip-path="url(#p304c686b55)" d="M 207.743035 248.191802 
L 207.743035 232.449769 
" style="fill:none;stroke:#d62728;stroke-width:1.5;"/>
    <path clip-path="url(#p304c686b55)" d="M 210.64645 263.263217 
L 210.64645 252.243505 
" style="fill:none;stroke:#d62728;stroke-width:1.5;"/>
    <path clip-path="url(#p304c686b55)" d="M 213.549864 274.835286 
L 213.549864 267.931542 
" style="fill:none;stroke:#d62728;stroke-width:1.5;"/>
    <path clip-path="url(#p304c686b55)" d="M 216.453279 271.679513 
L 216.453279 262.808429 
" style="fill:none;stroke:#d62728;stroke-width:1.5;"/>
    <path clip-path="url(#p304c686b55)" d="M 219.356694 270.007709 
L 219.356694 260.293947 
" style="fill:none;stroke:#d62728;stroke-width:1.5;"/>
    <path clip-path="url(#p304c686b55)" d="M 222.260108 272.107454 
L 222.260108 263.738202 
" style="fill:none;stroke:#d62728;stroke-width:1.5;"/>
    <path clip-path="url(#p304c686b55)" d="M 225.163523 268.775751 
L 225.163523 259.503976 
" style="fill:none;stroke:#d62728;stroke-width:1.5;"/>
    <path clip-path="url(#p304c686b55)" d="M 228.066937 271.779134 
L 228.066937 263.024697 
" style="fill:none;stroke:#d62728;stroke-width:1.5;"/>
    <path clip-path="url(#p304c686b55)" d="M 230.970352 258.829466 
L 230.970352 246.607184 
" style="fill:none;stroke:#d62728;stroke-width:1.5;"/>
    <path clip-path="url(#p304c686b55)" d="M 233.873767 239.354351 
L 233.873767 223.512106 
" style="fill:none;stroke:#d62728;stroke-width:1.5;"/>
    <path clip-path="url(#p304c686b55)" d="M 236.777181 227.120409 
L 236.777181 209.487647 
" style="fill:none;stroke:#d62728;stroke-width:1.5;"/>
    <path clip-path="url(#p304c686b55)" d="M 239.680596 227.289973 
L 239.680596 209.130835 
" style="fill:none;stroke:#d62728;stroke-width:1.5;"/>
    <path clip-path="url(#p304c686b55)" d="M 242.584011 208.749817 
L 242.584011 190.767971 
" style="fill:none;stroke:#d62728;stroke-width:1.5;"/>
    <path clip-path="url(#p304c686b55)" d="M 245.487425 199.864217 
L 245.487425 180.205243 
" style="fill:none;stroke:#d62728;stroke-width:1.5;"/>
    <path clip-path="url(#p304c686b55)" d="M 248.39084 208.24939 
L 248.39084 188.749081 
" style="fill:none;stroke:#d62728;stroke-width:1.5;"/>
    <path clip-path="url(#p304c686b55)" d="M 251.294255 226.785906 
L 251.294255 209.058542 
" style="fill:none;stroke:#d62728;stroke-width:1.5;"/>
    <path clip-path="url(#p304c686b55)" d="M 254.197669 249.460262 
L 254.197669 234.736775 
" style="fill:none;stroke:#d62728;stroke-width:1.5;"/>
    <path clip-path="url(#p304c686b55)" d="M 257.101084 268.461617 
L 257.101084 258.916839 
" style="fill:none;stroke:#d62728;stroke-width:1.5;"/>
    <path clip-path="url(#p304c686b55)" d="M 260.004498 266.814547 
L 260.004498 255.849571 
" style="fill:none;stroke:#d62728;stroke-width:1.5;"/>
    <path clip-path="url(#p304c686b55)" d="M 262.907913 270.918918 
L 262.907913 262.154738 
" style="fill:none;stroke:#d62728;stroke-width:1.5;"/>
    <path clip-path="url(#p304c686b55)" d="M 265.811328 274.965445 
L 265.811328 268.272211 
" style="fill:none;stroke:#d62728;stroke-width:1.5;"/>
    <path clip-path="url(#p304c686b55)" d="M 268.714742 263.263217 
L 268.714742 252.243505 
" style="fill:none;stroke:#d62728;stroke-width:1.5;"/>
    <path clip-path="url(#p304c686b55)" d="M 271.618157 269.472439 
L 271.618157 260.096991 
" style="fill:none;stroke:#d62728;stroke-width:1.5;"/>
    <path clip-path="url(#p304c686b55)" d="M 274.521572 270.867406 
L 274.521572 262.049345 
" style="fill:none;stroke:#d62728;stroke-width:1.5;"/>
    <path clip-path="url(#p304c686b55)" d="M 277.424986 256.653142 
L 277.424986 243.211587 
" style="fill:none;stroke:#d62728;stroke-width:1.5;"/>
    <path clip-path="url(#p304c686b55)" d="M 280.328401 259.535055 
L 280.328401 246.692991 
" style="fill:none;stroke:#d62728;stroke-width:1.5;"/>
    <path clip-path="url(#p304c686b55)" d="M 283.231816 252.426951 
L 283.231816 238.658558 
" style="fill:none;stroke:#d62728;stroke-width:1.5;"/>
    <path clip-path="url(#p304c686b55)" d="M 286.13523 250.465683 
L 286.13523 235.775762 
" style="fill:none;stroke:#d62728;stroke-width:1.5;"/>
    <path clip-path="url(#p304c686b55)" d="M 289.038645 244.962293 
L 289.038645 229.117994 
" style="fill:none;stroke:#d62728;stroke-width:1.5;"/>
    <path clip-path="url(#p304c686b55)" d="M 291.942059 244.930772 
L 291.942059 229.828847 
" style="fill:none;stroke:#d62728;stroke-width:1.5;"/>
    <path clip-path="url(#p304c686b55)" d="M 294.845474 248.455338 
L 294.845474 233.280878 
" style="fill:none;stroke:#d62728;stroke-width:1.5;"/>
    <path clip-path="url(#p304c686b55)" d="M 297.748889 247.680152 
L 297.748889 232.581505 
" style="fill:none;stroke:#d62728;stroke-width:1.5;"/>
    <path clip-path="url(#p304c686b55)" d="M 300.652303 256.653142 
L 300.652303 243.211587 
" style="fill:none;stroke:#d62728;stroke-width:1.5;"/>
    <path clip-path="url(#p304c686b55)" d="M 303.555718 252.585431 
L 303.555718 237.996883 
" style="fill:none;stroke:#d62728;stroke-width:1.5;"/>
    <path clip-path="url(#p304c686b55)" d="M 306.459133 271.400326 
L 306.459133 263.14086 
" style="fill:none;stroke:#d62728;stroke-width:1.5;"/>
    <path clip-path="url(#p304c686b55)" d="M 309.362547 266.049088 
L 309.362547 255.207094 
" style="fill:none;stroke:#d62728;stroke-width:1.5;"/>
    <path clip-path="url(#p304c686b55)" d="M 312.265962 266.390643 
L 312.265962 256.455289 
" style="fill:none;stroke:#d62728;stroke-width:1.5;"/>
    <path clip-path="url(#p304c686b55)" d="M 315.169377 274.167374 
L 315.169377 267.409158 
" style="fill:none;stroke:#d62728;stroke-width:1.5;"/>
    <path clip-path="url(#p304c686b55)" d="M 318.072791 277.132377 
L 318.072791 271.584664 
" style="fill:none;stroke:#d62728;stroke-width:1.5;"/>
    <path clip-path="url(#p304c686b55)" d="M 320.976206 260.217165 
L 320.976206 247.20573 
" style="fill:none;stroke:#d62728;stroke-width:1.5;"/>
    <path clip-path="url(#p304c686b55)" d="M 323.87962 263.45003 
L 323.87962 252.553942 
" style="fill:none;stroke:#d62728;stroke-width:1.5;"/>
    <path clip-path="url(#p304c686b55)" d="M 326.783035 263.725765 
L 326.783035 252.454382 
" style="fill:none;stroke:#d62728;stroke-width:1.5;"/>
    <path clip-path="url(#p304c686b55)" d="M 329.68645 261.770767 
L 329.68645 250.314889 
" style="fill:none;stroke:#d62728;stroke-width:1.5;"/>
    <path clip-path="url(#p304c686b55)" d="M 332.589864 256.802826 
L 332.589864 243.444515 
" style="fill:none;stroke:#d62728;stroke-width:1.5;"/>
    <path clip-path="url(#p304c686b55)" d="M 335.493279 255.823234 
L 335.493279 242.884302 
" style="fill:none;stroke:#d62728;stroke-width:1.5;"/>
    <path clip-path="url(#p304c686b55)" d="M 338.396694 243.369343 
L 338.396694 227.65416 
" style="fill:none;stroke:#d62728;stroke-width:1.5;"/>
    <path clip-path="url(#p304c686b55)" d="M 341.300108 244.03208 
L 341.300108 228.203471 
" style="fill:none;stroke:#d62728;stroke-width:1.5;"/>
    <path clip-path="url(#p304c686b55)" d="M 344.203523 255.999694 
L 344.203523 242.697631 
" style="fill:none;stroke:#d62728;stroke-width:1.5;"/>
    <path clip-path="url(#p304c686b55)" d="M 347.106938 263.427351 
L 347.106938 251.948151 
" style="fill:none;stroke:#d62728;stroke-width:1.5;"/>
    <path clip-path="url(#p304c686b55)" d="M 350.010352 260.42314 
L 350.010352 248.128978 
" style="fill:none;stroke:#d62728;stroke-width:1.5;"/>
    <path clip-path="url(#p304c686b55)" d="M 352.913767 268.196075 
L 352.913767 258.42106 
" style="fill:none;stroke:#d62728;stroke-width:1.5;"/>
    <path clip-path="url(#p304c686b55)" d="M 355.817181 266.049088 
L 355.817181 255.207094 
" style="fill:none;stroke:#d62728;stroke-width:1.5;"/>
    <path clip-path="url(#p304c686b55)" d="M 358.720596 272.324289 
L 358.720596 264.210063 
" style="fill:none;stroke:#d62728;stroke-width:1.5;"/>
    <path clip-path="url(#p304c686b55)" d="M 361.624011 271.020011 
L 361.624011 262.361645 
" style="fill:none;stroke:#d62728;stroke-width:1.5;"/>
    <path clip-path="url(#p304c686b55)" d="M 364.527425 272.9001 
L 364.527425 265.465557 
" style="fill:none;stroke:#d62728;stroke-width:1.5;"/>
    <path clip-path="url(#p304c686b55)" d="M 367.43084 276.231899 
L 367.43084 270.431318 
" style="fill:none;stroke:#d62728;stroke-width:1.5;"/>
    <path clip-path="url(#p304c686b55)" d="M 370.334255 268.058226 
L 370.334255 258.163883 
" style="fill:none;stroke:#d62728;stroke-width:1.5;"/>
    <path clip-path="url(#p304c686b55)" d="M 373.237669 251.700354 
L 373.237669 238.71447 
" style="fill:none;stroke:#d62728;stroke-width:1.5;"/>
    <path clip-path="url(#p304c686b55)" d="M 376.141084 257.660453 
L 376.141084 244.780848 
" style="fill:none;stroke:#d62728;stroke-width:1.5;"/>
    <path clip-path="url(#p304c686b55)" d="M 379.044498 261.665975 
L 379.044498 250.144615 
" style="fill:none;stroke:#d62728;stroke-width:1.5;"/>
    <path clip-path="url(#p304c686b55)" d="M 381.947913 249.987103 
L 381.947913 235.895758 
" style="fill:none;stroke:#d62728;stroke-width:1.5;"/>
    <path clip-path="url(#p304c686b55)" d="M 384.851328 250.582192 
L 384.851328 236.366073 
" style="fill:none;stroke:#d62728;stroke-width:1.5;"/>
    <path clip-path="url(#p304c686b55)" d="M 387.754742 246.21473 
L 387.754742 232.262579 
" style="fill:none;stroke:#d62728;stroke-width:1.5;"/>
    <path clip-path="url(#p304c686b55)" d="M 390.658157 252.239472 
L 390.658157 237.949713 
" style="fill:none;stroke:#d62728;stroke-width:1.5;"/>
    <path clip-path="url(#p304c686b55)" d="M 393.561572 266.860095 
L 393.561572 256.665561 
" style="fill:none;stroke:#d62728;stroke-width:1.5;"/>
    <path clip-path="url(#p304c686b55)" d="M 396.464986 269.411294 
L 396.464986 259.978059 
" style="fill:none;stroke:#d62728;stroke-width:1.5;"/>
    <path clip-path="url(#p304c686b55)" d="M 399.368401 269.349359 
L 399.368401 259.857622 
" style="fill:none;stroke:#d62728;stroke-width:1.5;"/>
    <path clip-path="url(#p304c686b55)" d="M 402.271816 268.896228 
L 402.271816 259.729335 
" style="fill:none;stroke:#d62728;stroke-width:1.5;"/>
    <path clip-path="url(#p304c686b55)" d="M 405.17523 274.667595 
L 405.17523 267.493081 
" style="fill:none;stroke:#d62728;stroke-width:1.5;"/>
    <path clip-path="url(#p304c686b55)" d="M 408.078645 277.344146 
L 408.078645 272.413162 
" style="fill:none;stroke:#d62728;stroke-width:1.5;"/>
   </g>
   <g id="LineCollection_2">
    <path clip-path="url(#p304c686b55)" d="M 78.831425 276.672397 
L 78.831425 273.779334 
" style="fill:none;stroke:#1f77b4;stroke-width:1.5;"/>
    <path clip-path="url(#p304c686b55)" d="M 81.73484 271.723456 
L 81.73484 267.2902 
" style="fill:none;stroke:#1f77b4;stroke-width:1.5;"/>
    <path clip-path="url(#p304c686b55)" d="M 84.638255 253.779319 
L 84.638255 246.066337 
" style="fill:none;stroke:#1f77b4;stroke-width:1.5;"/>
    <path clip-path="url(#p304c686b55)" d="M 87.541669 189.77084 
L 87.541669 177.838073 
" style="fill:none;stroke:#1f77b4;stroke-width:1.5;"/>
    <path clip-path="url(#p304c686b55)" d="M 90.445084 90.767754 
L 90.445084 79.706514 
" style="fill:none;stroke:#1f77b4;stroke-width:1.5;"/>
    <path clip-path="url(#p304c686b55)" d="M 93.348498 46.988493 
L 93.348498 39.158537 
" style="fill:none;stroke:#1f77b4;stroke-width:1.5;"/>
    <path clip-path="url(#p304c686b55)" d="M 96.251913 86.266979 
L 96.251913 75.818806 
" style="fill:none;stroke:#1f77b4;stroke-width:1.5;"/>
    <path clip-path="url(#p304c686b55)" d="M 99.155328 168.188578 
L 99.155328 155.81792 
" style="fill:none;stroke:#1f77b4;stroke-width:1.5;"/>
    <path clip-path="url(#p304c686b55)" d="M 102.058742 235.465855 
L 102.058742 225.841088 
" style="fill:none;stroke:#1f77b4;stroke-width:1.5;"/>
    <path clip-path="url(#p304c686b55)" d="M 104.962157 263.588757 
L 104.962157 257.442227 
" style="fill:none;stroke:#1f77b4;stroke-width:1.5;"/>
    <path clip-path="url(#p304c686b55)" d="M 107.865572 275.273946 
L 107.865572 271.80371 
" style="fill:none;stroke:#1f77b4;stroke-width:1.5;"/>
    <path clip-path="url(#p304c686b55)" d="M 110.768986 277.097584 
L 110.768986 274.390072 
" style="fill:none;stroke:#1f77b4;stroke-width:1.5;"/>
   </g>
   <g id="LineCollection_3">
    <path clip-path="url(#p304c686b55)" d="M 125.286059 278.792624 
L 125.286059 277.519533 
" style="fill:none;stroke:#1f77b4;stroke-width:1.5;"/>
    <path clip-path="url(#p304c686b55)" d="M 128.189474 272.984096 
L 128.189474 268.824854 
" style="fill:none;stroke:#1f77b4;stroke-width:1.5;"/>
    <path clip-path="url(#p304c686b55)" d="M 131.092889 254.640789 
L 131.092889 247.087944 
" style="fill:none;stroke:#1f77b4;stroke-width:1.5;"/>
    <path clip-path="url(#p304c686b55)" d="M 133.996303 227.352097 
L 133.996303 217.272797 
" style="fill:none;stroke:#1f77b4;stroke-width:1.5;"/>
    <path clip-path="url(#p304c686b55)" d="M 136.899718 196.041811 
L 136.899718 184.38026 
" style="fill:none;stroke:#1f77b4;stroke-width:1.5;"/>
    <path clip-path="url(#p304c686b55)" d="M 139.803133 172.588317 
L 139.803133 160.261647 
" style="fill:none;stroke:#1f77b4;stroke-width:1.5;"/>
    <path clip-path="url(#p304c686b55)" d="M 142.706547 144.854985 
L 142.706547 132.788873 
" style="fill:none;stroke:#1f77b4;stroke-width:1.5;"/>
    <path clip-path="url(#p304c686b55)" d="M 145.609962 148.437749 
L 145.609962 136.468959 
" style="fill:none;stroke:#1f77b4;stroke-width:1.5;"/>
    <path clip-path="url(#p304c686b55)" d="M 148.513377 149.275035 
L 148.513377 136.460329 
" style="fill:none;stroke:#1f77b4;stroke-width:1.5;"/>
    <path clip-path="url(#p304c686b55)" d="M 151.416791 180.760323 
L 151.416791 168.511253 
" style="fill:none;stroke:#1f77b4;stroke-width:1.5;"/>
    <path clip-path="url(#p304c686b55)" d="M 154.320206 230.950655 
L 154.320206 220.977891 
" style="fill:none;stroke:#1f77b4;stroke-width:1.5;"/>
    <path clip-path="url(#p304c686b55)" d="M 157.22362 262.409131 
L 157.22362 255.814526 
" style="fill:none;stroke:#1f77b4;stroke-width:1.5;"/>
    <path clip-path="url(#p304c686b55)" d="M 160.127035 276.254309 
L 160.127035 273.20151 
" style="fill:none;stroke:#1f77b4;stroke-width:1.5;"/>
    <path clip-path="url(#p304c686b55)" d="M 163.03045 278.008335 
L 163.03045 275.892118 
" style="fill:none;stroke:#1f77b4;stroke-width:1.5;"/>
   </g>
   <g id="LineCollection_4">
    <path clip-path="url(#p304c686b55)" d="M 177.547523 278.426822 
L 177.547523 276.683325 
" style="fill:none;stroke:#1f77b4;stroke-width:1.5;"/>
    <path clip-path="url(#p304c686b55)" d="M 180.450937 276.677523 
L 180.450937 273.790736 
" style="fill:none;stroke:#1f77b4;stroke-width:1.5;"/>
    <path clip-path="url(#p304c686b55)" d="M 183.354352 276.672397 
L 183.354352 273.779334 
" style="fill:none;stroke:#1f77b4;stroke-width:1.5;"/>
    <path clip-path="url(#p304c686b55)" d="M 186.257767 275.139261 
L 186.257767 271.545785 
" style="fill:none;stroke:#1f77b4;stroke-width:1.5;"/>
    <path clip-path="url(#p304c686b55)" d="M 189.161181 277.17571 
L 189.161181 274.577784 
" style="fill:none;stroke:#1f77b4;stroke-width:1.5;"/>
    <path clip-path="url(#p304c686b55)" d="M 192.064596 274.584911 
L 192.064596 270.99655 
" style="fill:none;stroke:#1f77b4;stroke-width:1.5;"/>
    <path clip-path="url(#p304c686b55)" d="M 194.968011 274.025018 
L 194.968011 269.990744 
" style="fill:none;stroke:#1f77b4;stroke-width:1.5;"/>
    <path clip-path="url(#p304c686b55)" d="M 197.871425 275.599555 
L 197.871425 272.163816 
" style="fill:none;stroke:#1f77b4;stroke-width:1.5;"/>
    <path clip-path="url(#p304c686b55)" d="M 200.77484 277.54408 
L 200.77484 275.083414 
" style="fill:none;stroke:#1f77b4;stroke-width:1.5;"/>
    <path clip-path="url(#p304c686b55)" d="M 203.678255 277.969024 
L 203.678255 275.77037 
" style="fill:none;stroke:#1f77b4;stroke-width:1.5;"/>
    <path clip-path="url(#p304c686b55)" d="M 206.581669 278.782836 
L 206.581669 277.452834 
" style="fill:none;stroke:#1f77b4;stroke-width:1.5;"/>
   </g>
   <g id="LineCollection_5">
    <path clip-path="url(#p304c686b55)" d="M 229.808986 278.080601 
L 229.808986 276.116037 
" style="fill:none;stroke:#1f77b4;stroke-width:1.5;"/>
    <path clip-path="url(#p304c686b55)" d="M 232.712401 278.794482 
L 232.712401 277.532193 
" style="fill:none;stroke:#1f77b4;stroke-width:1.5;"/>
    <path clip-path="url(#p304c686b55)" d="M 235.615816 277.122965 
L 235.615816 274.451044 
" style="fill:none;stroke:#1f77b4;stroke-width:1.5;"/>
    <path clip-path="url(#p304c686b55)" d="M 238.51923 276.295268 
L 238.51923 273.287319 
" style="fill:none;stroke:#1f77b4;stroke-width:1.5;"/>
    <path clip-path="url(#p304c686b55)" d="M 241.422645 276.357228 
L 241.422645 273.417155 
" style="fill:none;stroke:#1f77b4;stroke-width:1.5;"/>
    <path clip-path="url(#p304c686b55)" d="M 244.326059 276.646425 
L 244.326059 273.721567 
" style="fill:none;stroke:#1f77b4;stroke-width:1.5;"/>
    <path clip-path="url(#p304c686b55)" d="M 247.229474 275.877874 
L 247.229474 272.718983 
" style="fill:none;stroke:#1f77b4;stroke-width:1.5;"/>
    <path clip-path="url(#p304c686b55)" d="M 250.132889 278.413718 
L 250.132889 276.631294 
" style="fill:none;stroke:#1f77b4;stroke-width:1.5;"/>
    <path clip-path="url(#p304c686b55)" d="M 253.036303 278.052982 
L 253.036303 276.030442 
" style="fill:none;stroke:#1f77b4;stroke-width:1.5;"/>
    <path clip-path="url(#p304c686b55)" d="M 255.939718 278.436898 
L 255.939718 276.723339 
" style="fill:none;stroke:#1f77b4;stroke-width:1.5;"/>
    <path clip-path="url(#p304c686b55)" d="M 258.843133 278.450199 
L 258.843133 276.776164 
" style="fill:none;stroke:#1f77b4;stroke-width:1.5;"/>
   </g>
   <g id="LineCollection_6">
    <path clip-path="url(#p304c686b55)" d="M 276.26362 278.785364 
L 276.26362 277.470062 
" style="fill:none;stroke:#1f77b4;stroke-width:1.5;"/>
    <path clip-path="url(#p304c686b55)" d="M 279.167035 278.034344 
L 279.167035 275.972691 
" style="fill:none;stroke:#1f77b4;stroke-width:1.5;"/>
    <path clip-path="url(#p304c686b55)" d="M 282.07045 278.792155 
L 282.07045 277.516334 
" style="fill:none;stroke:#1f77b4;stroke-width:1.5;"/>
    <path clip-path="url(#p304c686b55)" d="M 284.973864 278.006105 
L 284.973864 275.88521 
" style="fill:none;stroke:#1f77b4;stroke-width:1.5;"/>
    <path clip-path="url(#p304c686b55)" d="M 287.877279 276.770817 
L 287.877279 273.998311 
" style="fill:none;stroke:#1f77b4;stroke-width:1.5;"/>
    <path clip-path="url(#p304c686b55)" d="M 290.780694 276.712785 
L 290.780694 273.869181 
" style="fill:none;stroke:#1f77b4;stroke-width:1.5;"/>
    <path clip-path="url(#p304c686b55)" d="M 293.684108 276.73246 
L 293.684108 273.912958 
" style="fill:none;stroke:#1f77b4;stroke-width:1.5;"/>
    <path clip-path="url(#p304c686b55)" d="M 296.587523 277.11458 
L 296.587523 274.4309 
" style="fill:none;stroke:#1f77b4;stroke-width:1.5;"/>
    <path clip-path="url(#p304c686b55)" d="M 299.490938 277.163801 
L 299.490938 274.549165 
" style="fill:none;stroke:#1f77b4;stroke-width:1.5;"/>
    <path clip-path="url(#p304c686b55)" d="M 302.394352 279.010828 
L 302.394352 278.427249 
" style="fill:none;stroke:#1f77b4;stroke-width:1.5;"/>
    <path clip-path="url(#p304c686b55)" d="M 305.297767 278.79121 
L 305.297767 277.509895 
" style="fill:none;stroke:#1f77b4;stroke-width:1.5;"/>
    <path clip-path="url(#p304c686b55)" d="M 308.201181 279.010828 
L 308.201181 278.423384 
" style="fill:none;stroke:#1f77b4;stroke-width:1.5;"/>
    <path clip-path="url(#p304c686b55)" d="M 311.104596 278.439363 
L 311.104596 276.733128 
" style="fill:none;stroke:#1f77b4;stroke-width:1.5;"/>
   </g>
   <g id="LineCollection_7">
    <path clip-path="url(#p304c686b55)" d="M 322.718255 278.019339 
L 322.718255 275.926204 
" style="fill:none;stroke:#1f77b4;stroke-width:1.5;"/>
    <path clip-path="url(#p304c686b55)" d="M 325.621669 278.447826 
L 325.621669 276.766741 
" style="fill:none;stroke:#1f77b4;stroke-width:1.5;"/>
    <path clip-path="url(#p304c686b55)" d="M 328.525084 276.682626 
L 328.525084 273.802089 
" style="fill:none;stroke:#1f77b4;stroke-width:1.5;"/>
    <path clip-path="url(#p304c686b55)" d="M 331.428498 278.776529 
L 331.428498 277.409872 
" style="fill:none;stroke:#1f77b4;stroke-width:1.5;"/>
    <path clip-path="url(#p304c686b55)" d="M 334.331913 278.425537 
L 334.331913 276.678224 
" style="fill:none;stroke:#1f77b4;stroke-width:1.5;"/>
    <path clip-path="url(#p304c686b55)" d="M 337.235328 277.118781 
L 337.235328 274.440994 
" style="fill:none;stroke:#1f77b4;stroke-width:1.5;"/>
    <path clip-path="url(#p304c686b55)" d="M 340.138742 276.230345 
L 340.138742 273.151312 
" style="fill:none;stroke:#1f77b4;stroke-width:1.5;"/>
    <path clip-path="url(#p304c686b55)" d="M 343.042157 278.034344 
L 343.042157 275.972691 
" style="fill:none;stroke:#1f77b4;stroke-width:1.5;"/>
    <path clip-path="url(#p304c686b55)" d="M 345.945572 278.780771 
L 345.945572 277.438772 
" style="fill:none;stroke:#1f77b4;stroke-width:1.5;"/>
    <path clip-path="url(#p304c686b55)" d="M 348.848986 278.425537 
L 348.848986 276.678224 
" style="fill:none;stroke:#1f77b4;stroke-width:1.5;"/>
    <path clip-path="url(#p304c686b55)" d="M 351.752401 278.052982 
L 351.752401 276.030442 
" style="fill:none;stroke:#1f77b4;stroke-width:1.5;"/>
    <path clip-path="url(#p304c686b55)" d="M 354.655816 278.788811 
L 354.655816 277.493551 
" style="fill:none;stroke:#1f77b4;stroke-width:1.5;"/>
    <path clip-path="url(#p304c686b55)" d="M 357.55923 278.790734 
L 357.55923 277.506654 
" style="fill:none;stroke:#1f77b4;stroke-width:1.5;"/>
   </g>
   <g id="LineCollection_8">
    <path clip-path="url(#p304c686b55)" d="M 369.172889 276.812453 
L 369.172889 274.090981 
" style="fill:none;stroke:#1f77b4;stroke-width:1.5;"/>
    <path clip-path="url(#p304c686b55)" d="M 372.076303 278.785863 
L 372.076303 277.473462 
" style="fill:none;stroke:#1f77b4;stroke-width:1.5;"/>
    <path clip-path="url(#p304c686b55)" d="M 374.979718 278.79987 
L 374.979718 277.568917 
" style="fill:none;stroke:#1f77b4;stroke-width:1.5;"/>
    <path clip-path="url(#p304c686b55)" d="M 377.883133 276.869933 
L 377.883133 274.218946 
" style="fill:none;stroke:#1f77b4;stroke-width:1.5;"/>
    <path clip-path="url(#p304c686b55)" d="M 380.786547 278.42165 
L 380.786547 276.662788 
" style="fill:none;stroke:#1f77b4;stroke-width:1.5;"/>
    <path clip-path="url(#p304c686b55)" d="M 383.689962 275.871306 
L 383.689962 272.705875 
" style="fill:none;stroke:#1f77b4;stroke-width:1.5;"/>
    <path clip-path="url(#p304c686b55)" d="M 386.593377 277.566926 
L 386.593377 275.144291 
" style="fill:none;stroke:#1f77b4;stroke-width:1.5;"/>
    <path clip-path="url(#p304c686b55)" d="M 389.496791 278.038548 
L 389.496791 275.985717 
" style="fill:none;stroke:#1f77b4;stroke-width:1.5;"/>
    <path clip-path="url(#p304c686b55)" d="M 392.400206 276.236375 
L 392.400206 273.163942 
" style="fill:none;stroke:#1f77b4;stroke-width:1.5;"/>
    <path clip-path="url(#p304c686b55)" d="M 395.30362 276.13017 
L 395.30362 272.941531 
" style="fill:none;stroke:#1f77b4;stroke-width:1.5;"/>
    <path clip-path="url(#p304c686b55)" d="M 398.207035 278.068962 
L 398.207035 276.079963 
" style="fill:none;stroke:#1f77b4;stroke-width:1.5;"/>
    <path clip-path="url(#p304c686b55)" d="M 401.11045 276.722665 
L 401.11045 273.891163 
" style="fill:none;stroke:#1f77b4;stroke-width:1.5;"/>
    <path clip-path="url(#p304c686b55)" d="M 404.013864 278.439363 
L 404.013864 276.733128 
" style="fill:none;stroke:#1f77b4;stroke-width:1.5;"/>
    <path clip-path="url(#p304c686b55)" d="M 406.917279 278.44423 
L 406.917279 276.752458 
" style="fill:none;stroke:#1f77b4;stroke-width:1.5;"/>
    <path clip-path="url(#p304c686b55)" d="M 409.820694 278.795855 
L 409.820694 277.541548 
" style="fill:none;stroke:#1f77b4;stroke-width:1.5;"/>
   </g>
   <g id="line2d_25">
    <path clip-path="url(#p304c686b55)" d="M 61.410938 23.543308 
L 418.530938 23.543308 
" style="fill:none;stroke:#99aaaa;stroke-dasharray:9.6,2.4,1.5,2.4;stroke-dashoffset:0;stroke-width:1.5;"/>
   </g>
   <g id="line2d_26">
    <path clip-path="url(#p304c686b55)" d="M 71.282547 267.555676 
L 74.185962 269.238354 
L 77.089377 265.196271 
L 79.992791 248.241628 
L 82.896206 238.006149 
L 85.79962 210.879744 
L 88.703035 179.218828 
L 91.60645 155.117367 
L 94.509864 157.504828 
L 97.413279 166.551732 
L 100.316694 180.494439 
L 103.220108 214.115417 
L 106.123523 238.235602 
L 109.026938 254.340871 
L 111.930352 262.743794 
L 114.833767 269.021639 
L 117.737181 267.922828 
L 120.640596 273.225785 
L 123.544011 267.323477 
L 126.447425 267.407107 
L 129.35084 254.012428 
L 132.254255 235.450828 
L 135.157669 217.805068 
L 138.061084 195.109274 
L 140.964498 183.62731 
L 143.867913 175.141306 
L 146.771328 166.356748 
L 149.674742 203.842828 
L 152.578157 221.269545 
L 155.481572 253.39135 
L 158.384986 260.866828 
L 161.288401 275.003117 
L 164.191816 270.973889 
L 167.09523 264.397741 
L 169.998645 270.55062 
L 172.902059 262.574499 
L 175.805474 264.226828 
L 178.708889 262.594828 
L 181.612303 249.721772 
L 184.515718 226.306828 
L 187.419133 199.688982 
L 190.322547 182.775356 
L 193.225962 175.227148 
L 196.129377 159.960723 
L 199.032791 179.629495 
L 201.936206 204.998428 
L 204.83962 237.633657 
L 207.743035 240.320786 
L 210.64645 257.753361 
L 213.549864 271.383414 
L 216.453279 267.243971 
L 219.356694 265.150828 
L 222.260108 267.922828 
L 225.163523 264.139863 
L 228.066937 267.401915 
L 230.970352 252.718325 
L 233.873767 231.433228 
L 236.777181 218.304028 
L 239.680596 218.210404 
L 242.584011 199.758894 
L 245.487425 190.03473 
L 248.39084 198.499236 
L 251.294255 217.922224 
L 254.197669 242.098518 
L 257.101084 263.689228 
L 260.004498 261.332059 
L 262.907913 266.536828 
L 265.811328 271.618828 
L 268.714742 257.753361 
L 271.618157 264.784715 
L 274.521572 266.458375 
L 277.424986 249.932365 
L 280.328401 253.114023 
L 283.231816 245.542755 
L 286.13523 243.120723 
L 289.038645 237.040144 
L 291.942059 237.37981 
L 294.845474 240.868108 
L 297.748889 240.130828 
L 300.652303 249.932365 
L 303.555718 245.291157 
L 306.459133 267.270593 
L 309.362547 260.628091 
L 312.265962 261.422966 
L 315.169377 270.788266 
L 318.072791 274.35852 
L 320.976206 253.711448 
L 323.87962 258.001986 
L 326.783035 258.090073 
L 329.68645 256.042828 
L 332.589864 250.12367 
L 335.493279 249.353768 
L 338.396694 235.511751 
L 341.300108 236.117775 
L 344.203523 249.348663 
L 347.106938 257.687751 
L 350.010352 254.276059 
L 352.913767 263.308567 
L 355.817181 260.628091 
L 358.720596 268.267176 
L 361.624011 266.690828 
L 364.527425 269.182828 
L 367.43084 273.331609 
L 370.334255 263.111055 
L 373.237669 245.207412 
L 376.141084 251.220651 
L 379.044498 255.905295 
L 381.947913 242.941431 
L 384.851328 243.474132 
L 387.754742 239.238654 
L 390.658157 245.094593 
L 393.561572 261.762828 
L 396.464986 264.694676 
L 399.368401 264.603491 
L 402.271816 264.312782 
L 405.17523 271.080338 
L 408.078645 274.878654 
" style="fill:none;stroke:#d62728;stroke-linecap:square;stroke-width:1.5;"/>
    <defs>
     <path d="M 0 3 
C 0.795609 3 1.55874 2.683901 2.12132 2.12132 
C 2.683901 1.55874 3 0.795609 3 0 
C 3 -0.795609 2.683901 -1.55874 2.12132 -2.12132 
C 1.55874 -2.683901 0.795609 -3 0 -3 
C -0.795609 -3 -1.55874 -2.683901 -2.12132 -2.12132 
C -2.683901 -1.55874 -3 -0.795609 -3 0 
C -3 0.795609 -2.683901 1.55874 -2.12132 2.12132 
C -1.55874 2.683901 -0.795609 3 0 3 
z
" id="m4d17eb6f4c" style="stroke:#d62728;"/>
    </defs>
    <g clip-path="url(#p304c686b55)">
     <use style="fill:#d62728;stroke:#d62728;" x="71.282547" xlink:href="#m4d17eb6f4c" y="267.555676"/>
     <use style="fill:#d62728;stroke:#d62728;" x="74.185962" xlink:href="#m4d17eb6f4c" y="269.238354"/>
     <use style="fill:#d62728;stroke:#d62728;" x="77.089377" xlink:href="#m4d17eb6f4c" y="265.196271"/>
     <use style="fill:#d62728;stroke:#d62728;" x="79.992791" xlink:href="#m4d17eb6f4c" y="248.241628"/>
     <use style="fill:#d62728;stroke:#d62728;" x="82.896206" xlink:href="#m4d17eb6f4c" y="238.006149"/>
     <use style="fill:#d62728;stroke:#d62728;" x="85.79962" xlink:href="#m4d17eb6f4c" y="210.879744"/>
     <use style="fill:#d62728;stroke:#d62728;" x="88.703035" xlink:href="#m4d17eb6f4c" y="179.218828"/>
     <use style="fill:#d62728;stroke:#d62728;" x="91.60645" xlink:href="#m4d17eb6f4c" y="155.117367"/>
     <use style="fill:#d62728;stroke:#d62728;" x="94.509864" xlink:href="#m4d17eb6f4c" y="157.504828"/>
     <use style="fill:#d62728;stroke:#d62728;" x="97.413279" xlink:href="#m4d17eb6f4c" y="166.551732"/>
     <use style="fill:#d62728;stroke:#d62728;" x="100.316694" xlink:href="#m4d17eb6f4c" y="180.494439"/>
     <use style="fill:#d62728;stroke:#d62728;" x="103.220108" xlink:href="#m4d17eb6f4c" y="214.115417"/>
     <use style="fill:#d62728;stroke:#d62728;" x="106.123523" xlink:href="#m4d17eb6f4c" y="238.235602"/>
     <use style="fill:#d62728;stroke:#d62728;" x="109.026938" xlink:href="#m4d17eb6f4c" y="254.340871"/>
     <use style="fill:#d62728;stroke:#d62728;" x="111.930352" xlink:href="#m4d17eb6f4c" y="262.743794"/>
     <use style="fill:#d62728;stroke:#d62728;" x="114.833767" xlink:href="#m4d17eb6f4c" y="269.021639"/>
     <use style="fill:#d62728;stroke:#d62728;" x="117.737181" xlink:href="#m4d17eb6f4c" y="267.922828"/>
     <use style="fill:#d62728;stroke:#d62728;" x="120.640596" xlink:href="#m4d17eb6f4c" y="273.225785"/>
     <use style="fill:#d62728;stroke:#d62728;" x="123.544011" xlink:href="#m4d17eb6f4c" y="267.323477"/>
     <use style="fill:#d62728;stroke:#d62728;" x="126.447425" xlink:href="#m4d17eb6f4c" y="267.407107"/>
     <use style="fill:#d62728;stroke:#d62728;" x="129.35084" xlink:href="#m4d17eb6f4c" y="254.012428"/>
     <use style="fill:#d62728;stroke:#d62728;" x="132.254255" xlink:href="#m4d17eb6f4c" y="235.450828"/>
     <use style="fill:#d62728;stroke:#d62728;" x="135.157669" xlink:href="#m4d17eb6f4c" y="217.805068"/>
     <use style="fill:#d62728;stroke:#d62728;" x="138.061084" xlink:href="#m4d17eb6f4c" y="195.109274"/>
     <use style="fill:#d62728;stroke:#d62728;" x="140.964498" xlink:href="#m4d17eb6f4c" y="183.62731"/>
     <use style="fill:#d62728;stroke:#d62728;" x="143.867913" xlink:href="#m4d17eb6f4c" y="175.141306"/>
     <use style="fill:#d62728;stroke:#d62728;" x="146.771328" xlink:href="#m4d17eb6f4c" y="166.356748"/>
     <use style="fill:#d62728;stroke:#d62728;" x="149.674742" xlink:href="#m4d17eb6f4c" y="203.842828"/>
     <use style="fill:#d62728;stroke:#d62728;" x="152.578157" xlink:href="#m4d17eb6f4c" y="221.269545"/>
     <use style="fill:#d62728;stroke:#d62728;" x="155.481572" xlink:href="#m4d17eb6f4c" y="253.39135"/>
     <use style="fill:#d62728;stroke:#d62728;" x="158.384986" xlink:href="#m4d17eb6f4c" y="260.866828"/>
     <use style="fill:#d62728;stroke:#d62728;" x="161.288401" xlink:href="#m4d17eb6f4c" y="275.003117"/>
     <use style="fill:#d62728;stroke:#d62728;" x="164.191816" xlink:href="#m4d17eb6f4c" y="270.973889"/>
     <use style="fill:#d62728;stroke:#d62728;" x="167.09523" xlink:href="#m4d17eb6f4c" y="264.397741"/>
     <use style="fill:#d62728;stroke:#d62728;" x="169.998645" xlink:href="#m4d17eb6f4c" y="270.55062"/>
     <use style="fill:#d62728;stroke:#d62728;" x="172.902059" xlink:href="#m4d17eb6f4c" y="262.574499"/>
     <use style="fill:#d62728;stroke:#d62728;" x="175.805474" xlink:href="#m4d17eb6f4c" y="264.226828"/>
     <use style="fill:#d62728;stroke:#d62728;" x="178.708889" xlink:href="#m4d17eb6f4c" y="262.594828"/>
     <use style="fill:#d62728;stroke:#d62728;" x="181.612303" xlink:href="#m4d17eb6f4c" y="249.721772"/>
     <use style="fill:#d62728;stroke:#d62728;" x="184.515718" xlink:href="#m4d17eb6f4c" y="226.306828"/>
     <use style="fill:#d62728;stroke:#d62728;" x="187.419133" xlink:href="#m4d17eb6f4c" y="199.688982"/>
     <use style="fill:#d62728;stroke:#d62728;" x="190.322547" xlink:href="#m4d17eb6f4c" y="182.775356"/>
     <use style="fill:#d62728;stroke:#d62728;" x="193.225962" xlink:href="#m4d17eb6f4c" y="175.227148"/>
     <use style="fill:#d62728;stroke:#d62728;" x="196.129377" xlink:href="#m4d17eb6f4c" y="159.960723"/>
     <use style="fill:#d62728;stroke:#d62728;" x="199.032791" xlink:href="#m4d17eb6f4c" y="179.629495"/>
     <use style="fill:#d62728;stroke:#d62728;" x="201.936206" xlink:href="#m4d17eb6f4c" y="204.998428"/>
     <use style="fill:#d62728;stroke:#d62728;" x="204.83962" xlink:href="#m4d17eb6f4c" y="237.633657"/>
     <use style="fill:#d62728;stroke:#d62728;" x="207.743035" xlink:href="#m4d17eb6f4c" y="240.320786"/>
     <use style="fill:#d62728;stroke:#d62728;" x="210.64645" xlink:href="#m4d17eb6f4c" y="257.753361"/>
     <use style="fill:#d62728;stroke:#d62728;" x="213.549864" xlink:href="#m4d17eb6f4c" y="271.383414"/>
     <use style="fill:#d62728;stroke:#d62728;" x="216.453279" xlink:href="#m4d17eb6f4c" y="267.243971"/>
     <use style="fill:#d62728;stroke:#d62728;" x="219.356694" xlink:href="#m4d17eb6f4c" y="265.150828"/>
     <use style="fill:#d62728;stroke:#d62728;" x="222.260108" xlink:href="#m4d17eb6f4c" y="267.922828"/>
     <use style="fill:#d62728;stroke:#d62728;" x="225.163523" xlink:href="#m4d17eb6f4c" y="264.139863"/>
     <use style="fill:#d62728;stroke:#d62728;" x="228.066937" xlink:href="#m4d17eb6f4c" y="267.401915"/>
     <use style="fill:#d62728;stroke:#d62728;" x="230.970352" xlink:href="#m4d17eb6f4c" y="252.718325"/>
     <use style="fill:#d62728;stroke:#d62728;" x="233.873767" xlink:href="#m4d17eb6f4c" y="231.433228"/>
     <use style="fill:#d62728;stroke:#d62728;" x="236.777181" xlink:href="#m4d17eb6f4c" y="218.304028"/>
     <use style="fill:#d62728;stroke:#d62728;" x="239.680596" xlink:href="#m4d17eb6f4c" y="218.210404"/>
     <use style="fill:#d62728;stroke:#d62728;" x="242.584011" xlink:href="#m4d17eb6f4c" y="199.758894"/>
     <use style="fill:#d62728;stroke:#d62728;" x="245.487425" xlink:href="#m4d17eb6f4c" y="190.03473"/>
     <use style="fill:#d62728;stroke:#d62728;" x="248.39084" xlink:href="#m4d17eb6f4c" y="198.499236"/>
     <use style="fill:#d62728;stroke:#d62728;" x="251.294255" xlink:href="#m4d17eb6f4c" y="217.922224"/>
     <use style="fill:#d62728;stroke:#d62728;" x="254.197669" xlink:href="#m4d17eb6f4c" y="242.098518"/>
     <use style="fill:#d62728;stroke:#d62728;" x="257.101084" xlink:href="#m4d17eb6f4c" y="263.689228"/>
     <use style="fill:#d62728;stroke:#d62728;" x="260.004498" xlink:href="#m4d17eb6f4c" y="261.332059"/>
     <use style="fill:#d62728;stroke:#d62728;" x="262.907913" xlink:href="#m4d17eb6f4c" y="266.536828"/>
     <use style="fill:#d62728;stroke:#d62728;" x="265.811328" xlink:href="#m4d17eb6f4c" y="271.618828"/>
     <use style="fill:#d62728;stroke:#d62728;" x="268.714742" xlink:href="#m4d17eb6f4c" y="257.753361"/>
     <use style="fill:#d62728;stroke:#d62728;" x="271.618157" xlink:href="#m4d17eb6f4c" y="264.784715"/>
     <use style="fill:#d62728;stroke:#d62728;" x="274.521572" xlink:href="#m4d17eb6f4c" y="266.458375"/>
     <use style="fill:#d62728;stroke:#d62728;" x="277.424986" xlink:href="#m4d17eb6f4c" y="249.932365"/>
     <use style="fill:#d62728;stroke:#d62728;" x="280.328401" xlink:href="#m4d17eb6f4c" y="253.114023"/>
     <use style="fill:#d62728;stroke:#d62728;" x="283.231816" xlink:href="#m4d17eb6f4c" y="245.542755"/>
     <use style="fill:#d62728;stroke:#d62728;" x="286.13523" xlink:href="#m4d17eb6f4c" y="243.120723"/>
     <use style="fill:#d62728;stroke:#d62728;" x="289.038645" xlink:href="#m4d17eb6f4c" y="237.040144"/>
     <use style="fill:#d62728;stroke:#d62728;" x="291.942059" xlink:href="#m4d17eb6f4c" y="237.37981"/>
     <use style="fill:#d62728;stroke:#d62728;" x="294.845474" xlink:href="#m4d17eb6f4c" y="240.868108"/>
     <use style="fill:#d62728;stroke:#d62728;" x="297.748889" xlink:href="#m4d17eb6f4c" y="240.130828"/>
     <use style="fill:#d62728;stroke:#d62728;" x="300.652303" xlink:href="#m4d17eb6f4c" y="249.932365"/>
     <use style="fill:#d62728;stroke:#d62728;" x="303.555718" xlink:href="#m4d17eb6f4c" y="245.291157"/>
     <use style="fill:#d62728;stroke:#d62728;" x="306.459133" xlink:href="#m4d17eb6f4c" y="267.270593"/>
     <use style="fill:#d62728;stroke:#d62728;" x="309.362547" xlink:href="#m4d17eb6f4c" y="260.628091"/>
     <use style="fill:#d62728;stroke:#d62728;" x="312.265962" xlink:href="#m4d17eb6f4c" y="261.422966"/>
     <use style="fill:#d62728;stroke:#d62728;" x="315.169377" xlink:href="#m4d17eb6f4c" y="270.788266"/>
     <use style="fill:#d62728;stroke:#d62728;" x="318.072791" xlink:href="#m4d17eb6f4c" y="274.35852"/>
     <use style="fill:#d62728;stroke:#d62728;" x="320.976206" xlink:href="#m4d17eb6f4c" y="253.711448"/>
     <use style="fill:#d62728;stroke:#d62728;" x="323.87962" xlink:href="#m4d17eb6f4c" y="258.001986"/>
     <use style="fill:#d62728;stroke:#d62728;" x="326.783035" xlink:href="#m4d17eb6f4c" y="258.090073"/>
     <use style="fill:#d62728;stroke:#d62728;" x="329.68645" xlink:href="#m4d17eb6f4c" y="256.042828"/>
     <use style="fill:#d62728;stroke:#d62728;" x="332.589864" xlink:href="#m4d17eb6f4c" y="250.12367"/>
     <use style="fill:#d62728;stroke:#d62728;" x="335.493279" xlink:href="#m4d17eb6f4c" y="249.353768"/>
     <use style="fill:#d62728;stroke:#d62728;" x="338.396694" xlink:href="#m4d17eb6f4c" y="235.511751"/>
     <use style="fill:#d62728;stroke:#d62728;" x="341.300108" xlink:href="#m4d17eb6f4c" y="236.117775"/>
     <use style="fill:#d62728;stroke:#d62728;" x="344.203523" xlink:href="#m4d17eb6f4c" y="249.348663"/>
     <use style="fill:#d62728;stroke:#d62728;" x="347.106938" xlink:href="#m4d17eb6f4c" y="257.687751"/>
     <use style="fill:#d62728;stroke:#d62728;" x="350.010352" xlink:href="#m4d17eb6f4c" y="254.276059"/>
     <use style="fill:#d62728;stroke:#d62728;" x="352.913767" xlink:href="#m4d17eb6f4c" y="263.308567"/>
     <use style="fill:#d62728;stroke:#d62728;" x="355.817181" xlink:href="#m4d17eb6f4c" y="260.628091"/>
     <use style="fill:#d62728;stroke:#d62728;" x="358.720596" xlink:href="#m4d17eb6f4c" y="268.267176"/>
     <use style="fill:#d62728;stroke:#d62728;" x="361.624011" xlink:href="#m4d17eb6f4c" y="266.690828"/>
     <use style="fill:#d62728;stroke:#d62728;" x="364.527425" xlink:href="#m4d17eb6f4c" y="269.182828"/>
     <use style="fill:#d62728;stroke:#d62728;" x="367.43084" xlink:href="#m4d17eb6f4c" y="273.331609"/>
     <use style="fill:#d62728;stroke:#d62728;" x="370.334255" xlink:href="#m4d17eb6f4c" y="263.111055"/>
     <use style="fill:#d62728;stroke:#d62728;" x="373.237669" xlink:href="#m4d17eb6f4c" y="245.207412"/>
     <use style="fill:#d62728;stroke:#d62728;" x="376.141084" xlink:href="#m4d17eb6f4c" y="251.220651"/>
     <use style="fill:#d62728;stroke:#d62728;" x="379.044498" xlink:href="#m4d17eb6f4c" y="255.905295"/>
     <use style="fill:#d62728;stroke:#d62728;" x="381.947913" xlink:href="#m4d17eb6f4c" y="242.941431"/>
     <use style="fill:#d62728;stroke:#d62728;" x="384.851328" xlink:href="#m4d17eb6f4c" y="243.474132"/>
     <use style="fill:#d62728;stroke:#d62728;" x="387.754742" xlink:href="#m4d17eb6f4c" y="239.238654"/>
     <use style="fill:#d62728;stroke:#d62728;" x="390.658157" xlink:href="#m4d17eb6f4c" y="245.094593"/>
     <use style="fill:#d62728;stroke:#d62728;" x="393.561572" xlink:href="#m4d17eb6f4c" y="261.762828"/>
     <use style="fill:#d62728;stroke:#d62728;" x="396.464986" xlink:href="#m4d17eb6f4c" y="264.694676"/>
     <use style="fill:#d62728;stroke:#d62728;" x="399.368401" xlink:href="#m4d17eb6f4c" y="264.603491"/>
     <use style="fill:#d62728;stroke:#d62728;" x="402.271816" xlink:href="#m4d17eb6f4c" y="264.312782"/>
     <use style="fill:#d62728;stroke:#d62728;" x="405.17523" xlink:href="#m4d17eb6f4c" y="271.080338"/>
     <use style="fill:#d62728;stroke:#d62728;" x="408.078645" xlink:href="#m4d17eb6f4c" y="274.878654"/>
    </g>
   </g>
   <g id="line2d_27">
    <path clip-path="url(#p304c686b55)" d="M 78.831425 275.225865 
L 81.73484 269.506828 
L 84.638255 249.922828 
L 87.541669 183.804456 
L 90.445084 85.237134 
L 93.348498 43.073515 
L 96.251913 81.042893 
L 99.155328 162.003249 
L 102.058742 230.653471 
L 104.962157 260.515492 
L 107.865572 273.538828 
L 110.768986 275.743828 
" style="fill:none;stroke:#1f77b4;stroke-linecap:square;stroke-width:1.5;"/>
    <defs>
     <path d="M -3 3 
L 3 3 
L 3 -3 
L -3 -3 
z
" id="m9e0ac68bfd" style="stroke:#1f77b4;stroke-linejoin:miter;"/>
    </defs>
    <g clip-path="url(#p304c686b55)">
     <use style="fill:#1f77b4;stroke:#1f77b4;stroke-linejoin:miter;" x="78.831425" xlink:href="#m9e0ac68bfd" y="275.225865"/>
     <use style="fill:#1f77b4;stroke:#1f77b4;stroke-linejoin:miter;" x="81.73484" xlink:href="#m9e0ac68bfd" y="269.506828"/>
     <use style="fill:#1f77b4;stroke:#1f77b4;stroke-linejoin:miter;" x="84.638255" xlink:href="#m9e0ac68bfd" y="249.922828"/>
     <use style="fill:#1f77b4;stroke:#1f77b4;stroke-linejoin:miter;" x="87.541669" xlink:href="#m9e0ac68bfd" y="183.804456"/>
     <use style="fill:#1f77b4;stroke:#1f77b4;stroke-linejoin:miter;" x="90.445084" xlink:href="#m9e0ac68bfd" y="85.237134"/>
     <use style="fill:#1f77b4;stroke:#1f77b4;stroke-linejoin:miter;" x="93.348498" xlink:href="#m9e0ac68bfd" y="43.073515"/>
     <use style="fill:#1f77b4;stroke:#1f77b4;stroke-linejoin:miter;" x="96.251913" xlink:href="#m9e0ac68bfd" y="81.042893"/>
     <use style="fill:#1f77b4;stroke:#1f77b4;stroke-linejoin:miter;" x="99.155328" xlink:href="#m9e0ac68bfd" y="162.003249"/>
     <use style="fill:#1f77b4;stroke:#1f77b4;stroke-linejoin:miter;" x="102.058742" xlink:href="#m9e0ac68bfd" y="230.653471"/>
     <use style="fill:#1f77b4;stroke:#1f77b4;stroke-linejoin:miter;" x="104.962157" xlink:href="#m9e0ac68bfd" y="260.515492"/>
     <use style="fill:#1f77b4;stroke:#1f77b4;stroke-linejoin:miter;" x="107.865572" xlink:href="#m9e0ac68bfd" y="273.538828"/>
     <use style="fill:#1f77b4;stroke:#1f77b4;stroke-linejoin:miter;" x="110.768986" xlink:href="#m9e0ac68bfd" y="275.743828"/>
    </g>
   </g>
   <g id="line2d_28">
    <path clip-path="url(#p304c686b55)" d="M 125.286059 278.156079 
L 128.189474 270.904475 
L 131.092889 250.864367 
L 133.996303 222.312447 
L 136.899718 190.211035 
L 139.803133 166.424982 
L 142.706547 138.821929 
L 145.609962 142.453354 
L 148.513377 142.867682 
L 151.416791 174.635788 
L 154.320206 225.964273 
L 157.22362 259.111828 
L 160.127035 274.72791 
L 163.03045 276.950226 
" style="fill:none;stroke:#1f77b4;stroke-linecap:square;stroke-width:1.5;"/>
    <g clip-path="url(#p304c686b55)">
     <use style="fill:#1f77b4;stroke:#1f77b4;stroke-linejoin:miter;" x="125.286059" xlink:href="#m9e0ac68bfd" y="278.156079"/>
     <use style="fill:#1f77b4;stroke:#1f77b4;stroke-linejoin:miter;" x="128.189474" xlink:href="#m9e0ac68bfd" y="270.904475"/>
     <use style="fill:#1f77b4;stroke:#1f77b4;stroke-linejoin:miter;" x="131.092889" xlink:href="#m9e0ac68bfd" y="250.864367"/>
     <use style="fill:#1f77b4;stroke:#1f77b4;stroke-linejoin:miter;" x="133.996303" xlink:href="#m9e0ac68bfd" y="222.312447"/>
     <use style="fill:#1f77b4;stroke:#1f77b4;stroke-linejoin:miter;" x="136.899718" xlink:href="#m9e0ac68bfd" y="190.211035"/>
     <use style="fill:#1f77b4;stroke:#1f77b4;stroke-linejoin:miter;" x="139.803133" xlink:href="#m9e0ac68bfd" y="166.424982"/>
     <use style="fill:#1f77b4;stroke:#1f77b4;stroke-linejoin:miter;" x="142.706547" xlink:href="#m9e0ac68bfd" y="138.821929"/>
     <use style="fill:#1f77b4;stroke:#1f77b4;stroke-linejoin:miter;" x="145.609962" xlink:href="#m9e0ac68bfd" y="142.453354"/>
     <use style="fill:#1f77b4;stroke:#1f77b4;stroke-linejoin:miter;" x="148.513377" xlink:href="#m9e0ac68bfd" y="142.867682"/>
     <use style="fill:#1f77b4;stroke:#1f77b4;stroke-linejoin:miter;" x="151.416791" xlink:href="#m9e0ac68bfd" y="174.635788"/>
     <use style="fill:#1f77b4;stroke:#1f77b4;stroke-linejoin:miter;" x="154.320206" xlink:href="#m9e0ac68bfd" y="225.964273"/>
     <use style="fill:#1f77b4;stroke:#1f77b4;stroke-linejoin:miter;" x="157.22362" xlink:href="#m9e0ac68bfd" y="259.111828"/>
     <use style="fill:#1f77b4;stroke:#1f77b4;stroke-linejoin:miter;" x="160.127035" xlink:href="#m9e0ac68bfd" y="274.72791"/>
     <use style="fill:#1f77b4;stroke:#1f77b4;stroke-linejoin:miter;" x="163.03045" xlink:href="#m9e0ac68bfd" y="276.950226"/>
    </g>
   </g>
   <g id="line2d_29">
    <path clip-path="url(#p304c686b55)" d="M 177.547523 277.555073 
L 180.450937 275.234129 
L 183.354352 275.225865 
L 186.257767 273.342523 
L 189.161181 275.876747 
L 192.064596 272.790731 
L 194.968011 272.007881 
L 197.871425 273.881685 
L 200.77484 276.313747 
L 203.678255 276.869697 
L 206.581669 278.117835 
" style="fill:none;stroke:#1f77b4;stroke-linecap:square;stroke-width:1.5;"/>
    <g clip-path="url(#p304c686b55)">
     <use style="fill:#1f77b4;stroke:#1f77b4;stroke-linejoin:miter;" x="177.547523" xlink:href="#m9e0ac68bfd" y="277.555073"/>
     <use style="fill:#1f77b4;stroke:#1f77b4;stroke-linejoin:miter;" x="180.450937" xlink:href="#m9e0ac68bfd" y="275.234129"/>
     <use style="fill:#1f77b4;stroke:#1f77b4;stroke-linejoin:miter;" x="183.354352" xlink:href="#m9e0ac68bfd" y="275.225865"/>
     <use style="fill:#1f77b4;stroke:#1f77b4;stroke-linejoin:miter;" x="186.257767" xlink:href="#m9e0ac68bfd" y="273.342523"/>
     <use style="fill:#1f77b4;stroke:#1f77b4;stroke-linejoin:miter;" x="189.161181" xlink:href="#m9e0ac68bfd" y="275.876747"/>
     <use style="fill:#1f77b4;stroke:#1f77b4;stroke-linejoin:miter;" x="192.064596" xlink:href="#m9e0ac68bfd" y="272.790731"/>
     <use style="fill:#1f77b4;stroke:#1f77b4;stroke-linejoin:miter;" x="194.968011" xlink:href="#m9e0ac68bfd" y="272.007881"/>
     <use style="fill:#1f77b4;stroke:#1f77b4;stroke-linejoin:miter;" x="197.871425" xlink:href="#m9e0ac68bfd" y="273.881685"/>
     <use style="fill:#1f77b4;stroke:#1f77b4;stroke-linejoin:miter;" x="200.77484" xlink:href="#m9e0ac68bfd" y="276.313747"/>
     <use style="fill:#1f77b4;stroke:#1f77b4;stroke-linejoin:miter;" x="203.678255" xlink:href="#m9e0ac68bfd" y="276.869697"/>
     <use style="fill:#1f77b4;stroke:#1f77b4;stroke-linejoin:miter;" x="206.581669" xlink:href="#m9e0ac68bfd" y="278.117835"/>
    </g>
   </g>
   <g id="line2d_30">
    <path clip-path="url(#p304c686b55)" d="M 229.808986 277.098319 
L 232.712401 278.163338 
L 235.615816 275.787004 
L 238.51923 274.791293 
L 241.422645 274.887192 
L 244.326059 275.183996 
L 247.229474 274.298428 
L 250.132889 277.522506 
L 253.036303 277.041712 
L 255.939718 277.580118 
L 258.843133 277.613181 
" style="fill:none;stroke:#1f77b4;stroke-linecap:square;stroke-width:1.5;"/>
    <g clip-path="url(#p304c686b55)">
     <use style="fill:#1f77b4;stroke:#1f77b4;stroke-linejoin:miter;" x="229.808986" xlink:href="#m9e0ac68bfd" y="277.098319"/>
     <use style="fill:#1f77b4;stroke:#1f77b4;stroke-linejoin:miter;" x="232.712401" xlink:href="#m9e0ac68bfd" y="278.163338"/>
     <use style="fill:#1f77b4;stroke:#1f77b4;stroke-linejoin:miter;" x="235.615816" xlink:href="#m9e0ac68bfd" y="275.787004"/>
     <use style="fill:#1f77b4;stroke:#1f77b4;stroke-linejoin:miter;" x="238.51923" xlink:href="#m9e0ac68bfd" y="274.791293"/>
     <use style="fill:#1f77b4;stroke:#1f77b4;stroke-linejoin:miter;" x="241.422645" xlink:href="#m9e0ac68bfd" y="274.887192"/>
     <use style="fill:#1f77b4;stroke:#1f77b4;stroke-linejoin:miter;" x="244.326059" xlink:href="#m9e0ac68bfd" y="275.183996"/>
     <use style="fill:#1f77b4;stroke:#1f77b4;stroke-linejoin:miter;" x="247.229474" xlink:href="#m9e0ac68bfd" y="274.298428"/>
     <use style="fill:#1f77b4;stroke:#1f77b4;stroke-linejoin:miter;" x="250.132889" xlink:href="#m9e0ac68bfd" y="277.522506"/>
     <use style="fill:#1f77b4;stroke:#1f77b4;stroke-linejoin:miter;" x="253.036303" xlink:href="#m9e0ac68bfd" y="277.041712"/>
     <use style="fill:#1f77b4;stroke:#1f77b4;stroke-linejoin:miter;" x="255.939718" xlink:href="#m9e0ac68bfd" y="277.580118"/>
     <use style="fill:#1f77b4;stroke:#1f77b4;stroke-linejoin:miter;" x="258.843133" xlink:href="#m9e0ac68bfd" y="277.613181"/>
    </g>
   </g>
   <g id="line2d_31">
    <path clip-path="url(#p304c686b55)" d="M 276.26362 278.127713 
L 279.167035 277.003518 
L 282.07045 278.154244 
L 284.973864 276.945657 
L 287.877279 275.384564 
L 290.780694 275.290983 
L 293.684108 275.322709 
L 296.587523 275.77274 
L 299.490938 275.856483 
L 302.394352 278.719039 
L 305.297767 278.150552 
L 308.201181 278.717106 
L 311.104596 277.586246 
" style="fill:none;stroke:#1f77b4;stroke-linecap:square;stroke-width:1.5;"/>
    <g clip-path="url(#p304c686b55)">
     <use style="fill:#1f77b4;stroke:#1f77b4;stroke-linejoin:miter;" x="276.26362" xlink:href="#m9e0ac68bfd" y="278.127713"/>
     <use style="fill:#1f77b4;stroke:#1f77b4;stroke-linejoin:miter;" x="279.167035" xlink:href="#m9e0ac68bfd" y="277.003518"/>
     <use style="fill:#1f77b4;stroke:#1f77b4;stroke-linejoin:miter;" x="282.07045" xlink:href="#m9e0ac68bfd" y="278.154244"/>
     <use style="fill:#1f77b4;stroke:#1f77b4;stroke-linejoin:miter;" x="284.973864" xlink:href="#m9e0ac68bfd" y="276.945657"/>
     <use style="fill:#1f77b4;stroke:#1f77b4;stroke-linejoin:miter;" x="287.877279" xlink:href="#m9e0ac68bfd" y="275.384564"/>
     <use style="fill:#1f77b4;stroke:#1f77b4;stroke-linejoin:miter;" x="290.780694" xlink:href="#m9e0ac68bfd" y="275.290983"/>
     <use style="fill:#1f77b4;stroke:#1f77b4;stroke-linejoin:miter;" x="293.684108" xlink:href="#m9e0ac68bfd" y="275.322709"/>
     <use style="fill:#1f77b4;stroke:#1f77b4;stroke-linejoin:miter;" x="296.587523" xlink:href="#m9e0ac68bfd" y="275.77274"/>
     <use style="fill:#1f77b4;stroke:#1f77b4;stroke-linejoin:miter;" x="299.490938" xlink:href="#m9e0ac68bfd" y="275.856483"/>
     <use style="fill:#1f77b4;stroke:#1f77b4;stroke-linejoin:miter;" x="302.394352" xlink:href="#m9e0ac68bfd" y="278.719039"/>
     <use style="fill:#1f77b4;stroke:#1f77b4;stroke-linejoin:miter;" x="305.297767" xlink:href="#m9e0ac68bfd" y="278.150552"/>
     <use style="fill:#1f77b4;stroke:#1f77b4;stroke-linejoin:miter;" x="308.201181" xlink:href="#m9e0ac68bfd" y="278.717106"/>
     <use style="fill:#1f77b4;stroke:#1f77b4;stroke-linejoin:miter;" x="311.104596" xlink:href="#m9e0ac68bfd" y="277.586246"/>
    </g>
   </g>
   <g id="line2d_32">
    <path clip-path="url(#p304c686b55)" d="M 322.718255 276.972771 
L 325.621669 277.607284 
L 328.525084 275.242358 
L 331.428498 278.093201 
L 334.331913 277.551881 
L 337.235328 275.779888 
L 340.138742 274.690828 
L 343.042157 277.003518 
L 345.945572 278.109772 
L 348.848986 277.551881 
L 351.752401 277.041712 
L 354.655816 278.141181 
L 357.55923 278.148694 
" style="fill:none;stroke:#1f77b4;stroke-linecap:square;stroke-width:1.5;"/>
    <g clip-path="url(#p304c686b55)">
     <use style="fill:#1f77b4;stroke:#1f77b4;stroke-linejoin:miter;" x="322.718255" xlink:href="#m9e0ac68bfd" y="276.972771"/>
     <use style="fill:#1f77b4;stroke:#1f77b4;stroke-linejoin:miter;" x="325.621669" xlink:href="#m9e0ac68bfd" y="277.607284"/>
     <use style="fill:#1f77b4;stroke:#1f77b4;stroke-linejoin:miter;" x="328.525084" xlink:href="#m9e0ac68bfd" y="275.242358"/>
     <use style="fill:#1f77b4;stroke:#1f77b4;stroke-linejoin:miter;" x="331.428498" xlink:href="#m9e0ac68bfd" y="278.093201"/>
     <use style="fill:#1f77b4;stroke:#1f77b4;stroke-linejoin:miter;" x="334.331913" xlink:href="#m9e0ac68bfd" y="277.551881"/>
     <use style="fill:#1f77b4;stroke:#1f77b4;stroke-linejoin:miter;" x="337.235328" xlink:href="#m9e0ac68bfd" y="275.779888"/>
     <use style="fill:#1f77b4;stroke:#1f77b4;stroke-linejoin:miter;" x="340.138742" xlink:href="#m9e0ac68bfd" y="274.690828"/>
     <use style="fill:#1f77b4;stroke:#1f77b4;stroke-linejoin:miter;" x="343.042157" xlink:href="#m9e0ac68bfd" y="277.003518"/>
     <use style="fill:#1f77b4;stroke:#1f77b4;stroke-linejoin:miter;" x="345.945572" xlink:href="#m9e0ac68bfd" y="278.109772"/>
     <use style="fill:#1f77b4;stroke:#1f77b4;stroke-linejoin:miter;" x="348.848986" xlink:href="#m9e0ac68bfd" y="277.551881"/>
     <use style="fill:#1f77b4;stroke:#1f77b4;stroke-linejoin:miter;" x="351.752401" xlink:href="#m9e0ac68bfd" y="277.041712"/>
     <use style="fill:#1f77b4;stroke:#1f77b4;stroke-linejoin:miter;" x="354.655816" xlink:href="#m9e0ac68bfd" y="278.141181"/>
     <use style="fill:#1f77b4;stroke:#1f77b4;stroke-linejoin:miter;" x="357.55923" xlink:href="#m9e0ac68bfd" y="278.148694"/>
    </g>
   </g>
   <g id="line2d_33">
    <path clip-path="url(#p304c686b55)" d="M 369.172889 275.451717 
L 372.076303 278.129663 
L 374.979718 278.184393 
L 377.883133 275.544439 
L 380.786547 277.542219 
L 383.689962 274.28859 
L 386.593377 276.355609 
L 389.496791 277.012133 
L 392.400206 274.700159 
L 395.30362 274.535851 
L 398.207035 277.074462 
L 401.11045 275.306914 
L 404.013864 277.586246 
L 406.917279 277.598344 
L 409.820694 278.168702 
" style="fill:none;stroke:#1f77b4;stroke-linecap:square;stroke-width:1.5;"/>
    <g clip-path="url(#p304c686b55)">
     <use style="fill:#1f77b4;stroke:#1f77b4;stroke-linejoin:miter;" x="369.172889" xlink:href="#m9e0ac68bfd" y="275.451717"/>
     <use style="fill:#1f77b4;stroke:#1f77b4;stroke-linejoin:miter;" x="372.076303" xlink:href="#m9e0ac68bfd" y="278.129663"/>
     <use style="fill:#1f77b4;stroke:#1f77b4;stroke-linejoin:miter;" x="374.979718" xlink:href="#m9e0ac68bfd" y="278.184393"/>
     <use style="fill:#1f77b4;stroke:#1f77b4;stroke-linejoin:miter;" x="377.883133" xlink:href="#m9e0ac68bfd" y="275.544439"/>
     <use style="fill:#1f77b4;stroke:#1f77b4;stroke-linejoin:miter;" x="380.786547" xlink:href="#m9e0ac68bfd" y="277.542219"/>
     <use style="fill:#1f77b4;stroke:#1f77b4;stroke-linejoin:miter;" x="383.689962" xlink:href="#m9e0ac68bfd" y="274.28859"/>
     <use style="fill:#1f77b4;stroke:#1f77b4;stroke-linejoin:miter;" x="386.593377" xlink:href="#m9e0ac68bfd" y="276.355609"/>
     <use style="fill:#1f77b4;stroke:#1f77b4;stroke-linejoin:miter;" x="389.496791" xlink:href="#m9e0ac68bfd" y="277.012133"/>
     <use style="fill:#1f77b4;stroke:#1f77b4;stroke-linejoin:miter;" x="392.400206" xlink:href="#m9e0ac68bfd" y="274.700159"/>
     <use style="fill:#1f77b4;stroke:#1f77b4;stroke-linejoin:miter;" x="395.30362" xlink:href="#m9e0ac68bfd" y="274.535851"/>
     <use style="fill:#1f77b4;stroke:#1f77b4;stroke-linejoin:miter;" x="398.207035" xlink:href="#m9e0ac68bfd" y="277.074462"/>
     <use style="fill:#1f77b4;stroke:#1f77b4;stroke-linejoin:miter;" x="401.11045" xlink:href="#m9e0ac68bfd" y="275.306914"/>
     <use style="fill:#1f77b4;stroke:#1f77b4;stroke-linejoin:miter;" x="404.013864" xlink:href="#m9e0ac68bfd" y="277.586246"/>
     <use style="fill:#1f77b4;stroke:#1f77b4;stroke-linejoin:miter;" x="406.917279" xlink:href="#m9e0ac68bfd" y="277.598344"/>
     <use style="fill:#1f77b4;stroke:#1f77b4;stroke-linejoin:miter;" x="409.820694" xlink:href="#m9e0ac68bfd" y="278.168702"/>
    </g>
   </g>
   <g id="patch_3">
    <path d="M 61.410938 279.010828 
L 61.410938 12.898828 
" style="fill:none;stroke:#000000;stroke-linecap:square;stroke-linejoin:miter;stroke-width:0.8;"/>
   </g>
   <g id="patch_4">
    <path d="M 418.530938 279.010828 
L 418.530938 12.898828 
" style="fill:none;stroke:#000000;stroke-linecap:square;stroke-linejoin:miter;stroke-width:0.8;"/>
   </g>
   <g id="patch_5">
    <path d="M 61.410938 279.010828 
L 418.530938 279.010828 
" style="fill:none;stroke:#000000;stroke-linecap:square;stroke-linejoin:miter;stroke-width:0.8;"/>
   </g>
   <g id="patch_6">
    <path d="M 61.410938 12.898828 
L 418.530938 12.898828 
" style="fill:none;stroke:#000000;stroke-linecap:square;stroke-linejoin:miter;stroke-width:0.8;"/>
   </g>
   <g id="legend_1">
    <g id="patch_7">
     <path d="M 297.780938 170.222016 
L 408.030938 170.222016 
Q 411.030938 170.222016 411.030938 167.222016 
L 411.030938 124.687641 
Q 411.030938 121.687641 408.030938 121.687641 
L 297.780938 121.687641 
Q 294.780938 121.687641 294.780938 124.687641 
L 294.780938 167.222016 
Q 294.780938 170.222016 297.780938 170.222016 
z
" style="fill:#ffffff;opacity:0.8;stroke:#cccccc;stroke-linejoin:miter;"/>
    </g>
    <g id="LineCollection_9">
     <path d="M 315.780938 141.335297 
L 315.780938 126.335297 
" style="fill:none;stroke:#d62728;stroke-width:1.5;"/>
    </g>
    <g id="line2d_34">
     <path d="M 300.780938 133.835297 
L 330.780938 133.835297 
" style="fill:none;stroke:#d62728;stroke-linecap:square;stroke-width:1.5;"/>
    </g>
    <g id="line2d_35">
     <g>
      <use style="fill:#d62728;stroke:#d62728;" x="315.780938" xlink:href="#m4d17eb6f4c" y="133.835297"/>
     </g>
    </g>
    <g id="text_15">
     <!-- $z$ initial -->
     <g transform="translate(342.780938 139.085297)scale(0.15 -0.15)">
      <defs>
       <path d="M 11.625 54.6875 
L 54.296875 54.6875 
L 52.6875 46.484375 
L 11.53125 7.171875 
L 45.515625 7.171875 
L 44.09375 0 
L -0.296875 0 
L 1.3125 8.203125 
L 42.484375 47.515625 
L 10.203125 47.515625 
z
" id="DejaVuSans-Oblique-122"/>
      </defs>
      <use transform="translate(0 0.015625)" xlink:href="#DejaVuSans-Oblique-122"/>
      <use transform="translate(52.490234 0.015625)" xlink:href="#DejaVuSans-32"/>
      <use transform="translate(84.277344 0.015625)" xlink:href="#DejaVuSans-105"/>
      <use transform="translate(112.060547 0.015625)" xlink:href="#DejaVuSans-110"/>
      <use transform="translate(175.439453 0.015625)" xlink:href="#DejaVuSans-105"/>
      <use transform="translate(203.222656 0.015625)" xlink:href="#DejaVuSans-116"/>
      <use transform="translate(242.431641 0.015625)" xlink:href="#DejaVuSans-105"/>
      <use transform="translate(270.214844 0.015625)" xlink:href="#DejaVuSans-97"/>
      <use transform="translate(331.494141 0.015625)" xlink:href="#DejaVuSans-108"/>
     </g>
    </g>
    <g id="LineCollection_10">
     <path d="M 315.780938 163.352484 
L 315.780938 148.352484 
" style="fill:none;stroke:#1f77b4;stroke-width:1.5;"/>
    </g>
    <g id="line2d_36">
     <path d="M 300.780938 155.852484 
L 330.780938 155.852484 
" style="fill:none;stroke:#1f77b4;stroke-linecap:square;stroke-width:1.5;"/>
    </g>
    <g id="line2d_37">
     <g>
      <use style="fill:#1f77b4;stroke:#1f77b4;stroke-linejoin:miter;" x="315.780938" xlink:href="#m9e0ac68bfd" y="155.852484"/>
     </g>
    </g>
    <g id="text_16">
     <!-- $z$ cooled -->
     <g transform="translate(342.780938 161.102484)scale(0.15 -0.15)">
      <defs>
       <path d="M 45.40625 46.390625 
L 45.40625 75.984375 
L 54.390625 75.984375 
L 54.390625 0 
L 45.40625 0 
L 45.40625 8.203125 
Q 42.578125 3.328125 38.25 0.953125 
Q 33.9375 -1.421875 27.875 -1.421875 
Q 17.96875 -1.421875 11.734375 6.484375 
Q 5.515625 14.40625 5.515625 27.296875 
Q 5.515625 40.1875 11.734375 48.09375 
Q 17.96875 56 27.875 56 
Q 33.9375 56 38.25 53.625 
Q 42.578125 51.265625 45.40625 46.390625 
z
M 14.796875 27.296875 
Q 14.796875 17.390625 18.875 11.75 
Q 22.953125 6.109375 30.078125 6.109375 
Q 37.203125 6.109375 41.296875 11.75 
Q 45.40625 17.390625 45.40625 27.296875 
Q 45.40625 37.203125 41.296875 42.84375 
Q 37.203125 48.484375 30.078125 48.484375 
Q 22.953125 48.484375 18.875 42.84375 
Q 14.796875 37.203125 14.796875 27.296875 
z
" id="DejaVuSans-100"/>
      </defs>
      <use transform="translate(0 0.015625)" xlink:href="#DejaVuSans-Oblique-122"/>
      <use transform="translate(52.490234 0.015625)" xlink:href="#DejaVuSans-32"/>
      <use transform="translate(84.277344 0.015625)" xlink:href="#DejaVuSans-99"/>
      <use transform="translate(139.257812 0.015625)" xlink:href="#DejaVuSans-111"/>
      <use transform="translate(200.439453 0.015625)" xlink:href="#DejaVuSans-111"/>
      <use transform="translate(261.621094 0.015625)" xlink:href="#DejaVuSans-108"/>
      <use transform="translate(289.404297 0.015625)" xlink:href="#DejaVuSans-101"/>
      <use transform="translate(350.927734 0.015625)" xlink:href="#DejaVuSans-100"/>
     </g>
    </g>
   </g>
  </g>
 </g>
 <defs>
  <clipPath id="p304c686b55">
   <rect height="266.112" width="357.12" x="61.410938" y="12.898828"/>
  </clipPath>
 </defs>
</svg>
