<?xml version="1.0" encoding="utf-8" standalone="no"?>
<!DOCTYPE svg PUBLIC "-//W3C//DTD SVG 1.1//EN"
  "http://www.w3.org/Graphics/SVG/1.1/DTD/svg11.dtd">
<!-- Created with matplotlib (https://matplotlib.org/) -->
<svg height="331.128016pt" version="1.1" viewBox="0 0 425.730937 331.128016" width="425.730937pt" xmlns="http://www.w3.org/2000/svg" xmlns:xlink="http://www.w3.org/1999/xlink">
 <defs>
  <style type="text/css">*{stroke-linecap:butt;stroke-linejoin:round;}</style>
 </defs>
 <g id="figure_1">
  <g id="patch_1">
   <path d="M 0 331.128016 
L 425.730937 331.128016 
L 425.730937 0 
L 0 0 
z
" style="fill:none;"/>
  </g>
  <g id="axes_1">
   <g id="patch_2">
    <path d="M 61.410938 279.010828 
L 418.530938 279.010828 
L 418.530938 12.898828 
L 61.410938 12.898828 
z
" style="fill:none;"/>
   </g>
   <g id="matplotlib.axis_1">
    <g id="xtick_1">
     <g id="line2d_1">
      <path clip-path="url(#p304c686b55)" d="M 61.410938 279.010828 
L 61.410938 12.898828 
" style="fill:none;stroke:#b0b0b0;stroke-linecap:square;stroke-width:0.8;"/>
     </g>
     <g id="line2d_2">
      <defs>
       <path d="M 0 0 
L 0 3.5 
" id="m005f0a59be" style="stroke:#000000;stroke-width:0.8;"/>
      </defs>
      <g>
       <use style="stroke:#000000;stroke-width:0.8;" x="61.410938" xlink:href="#m005f0a59be" y="279.010828"/>
      </g>
     </g>
     <g id="text_1">
      <!-- 0 -->
      <g transform="translate(56.639063 297.408484)scale(0.15 -0.15)">
       <defs>
        <path d="M 31.78125 66.40625 
Q 24.171875 66.40625 20.328125 58.90625 
Q 16.5 51.421875 16.5 36.375 
Q 16.5 21.390625 20.328125 13.890625 
Q 24.171875 6.390625 31.78125 6.390625 
Q 39.453125 6.390625 43.28125 13.890625 
Q 47.125 21.390625 47.125 36.375 
Q 47.125 51.421875 43.28125 58.90625 
Q 39.453125 66.40625 31.78125 66.40625 
z
M 31.78125 74.21875 
Q 44.046875 74.21875 50.515625 64.515625 
Q 56.984375 54.828125 56.984375 36.375 
Q 56.984375 17.96875 50.515625 8.265625 
Q 44.046875 -1.421875 31.78125 -1.421875 
Q 19.53125 -1.421875 13.0625 8.265625 
Q 6.59375 17.96875 6.59375 36.375 
Q 6.59375 54.828125 13.0625 64.515625 
Q 19.53125 74.21875 31.78125 74.21875 
z
" id="DejaVuSans-48"/>
       </defs>
       <use xlink:href="#DejaVuSans-48"/>
      </g>
     </g>
    </g>
    <g id="xtick_2">
     <g id="line2d_3">
      <path clip-path="url(#p304c686b55)" d="M 123.410938 279.010828 
L 123.410938 12.898828 
" style="fill:none;stroke:#b0b0b0;stroke-linecap:square;stroke-width:0.8;"/>
     </g>
     <g id="line2d_4">
      <g>
       <use style="stroke:#000000;stroke-width:0.8;" x="123.410938" xlink:href="#m005f0a59be" y="279.010828"/>
      </g>
     </g>
     <g id="text_2">
      <!-- 25 -->
      <g transform="translate(113.867188 297.408484)scale(0.15 -0.15)">
       <defs>
        <path d="M 19.1875 8.296875 
L 53.609375 8.296875 
L 53.609375 0 
L 7.328125 0 
L 7.328125 8.296875 
Q 12.9375 14.109375 22.625 23.890625 
Q 32.328125 33.6875 34.8125 36.53125 
Q 39.546875 41.84375 41.421875 45.53125 
Q 43.3125 49.21875 43.3125 52.78125 
Q 43.3125 58.59375 39.234375 62.25 
Q 35.15625 65.921875 28.609375 65.921875 
Q 23.96875 65.921875 18.8125 64.3125 
Q 13.671875 62.703125 7.8125 59.421875 
L 7.8125 69.390625 
Q 13.765625 71.78125 18.9375 73 
Q 24.125 74.21875 28.421875 74.21875 
Q 39.75 74.21875 46.484375 68.546875 
Q 53.21875 62.890625 53.21875 53.421875 
Q 53.21875 48.921875 51.53125 44.890625 
Q 49.859375 40.875 45.40625 35.40625 
Q 44.1875 33.984375 37.640625 27.21875 
Q 31.109375 20.453125 19.1875 8.296875 
z
" id="DejaVuSans-50"/>
        <path d="M 10.796875 72.90625 
L 49.515625 72.90625 
L 49.515625 64.59375 
L 19.828125 64.59375 
L 19.828125 46.734375 
Q 21.96875 47.46875 24.109375 47.828125 
Q 26.265625 48.1875 28.421875 48.1875 
Q 40.625 48.1875 47.75 41.5 
Q 54.890625 34.8125 54.890625 23.390625 
Q 54.890625 11.625 47.5625 5.09375 
Q 40.234375 -1.421875 26.90625 -1.421875 
Q 22.3125 -1.421875 17.546875 -0.640625 
Q 12.796875 0.140625 7.71875 1.703125 
L 7.71875 11.625 
Q 12.109375 9.234375 16.796875 8.0625 
Q 21.484375 6.890625 26.703125 6.890625 
Q 35.15625 6.890625 40.078125 11.328125 
Q 45.015625 15.765625 45.015625 23.390625 
Q 45.015625 31 40.078125 35.4375 
Q 35.15625 39.890625 26.703125 39.890625 
Q 22.75 39.890625 18.8125 39.015625 
Q 14.890625 38.140625 10.796875 36.28125 
z
" id="DejaVuSans-53"/>
       </defs>
       <use xlink:href="#DejaVuSans-50"/>
       <use x="63.623047" xlink:href="#DejaVuSans-53"/>
      </g>
     </g>
    </g>
    <g id="xtick_3">
     <g id="line2d_5">
      <path clip-path="url(#p304c686b55)" d="M 185.410938 279.010828 
L 185.410938 12.898828 
" style="fill:none;stroke:#b0b0b0;stroke-linecap:square;stroke-width:0.8;"/>
     </g>
     <g id="line2d_6">
      <g>
       <use style="stroke:#000000;stroke-width:0.8;" x="185.410938" xlink:href="#m005f0a59be" y="279.010828"/>
      </g>
     </g>
     <g id="text_3">
      <!-- 50 -->
      <g transform="translate(175.867188 297.408484)scale(0.15 -0.15)">
       <use xlink:href="#DejaVuSans-53"/>
       <use x="63.623047" xlink:href="#DejaVuSans-48"/>
      </g>
     </g>
    </g>
    <g id="xtick_4">
     <g id="line2d_7">
      <path clip-path="url(#p304c686b55)" d="M 247.410938 279.010828 
L 247.410938 12.898828 
" style="fill:none;stroke:#b0b0b0;stroke-linecap:square;stroke-width:0.8;"/>
     </g>
     <g id="line2d_8">
      <g>
       <use style="stroke:#000000;stroke-width:0.8;" x="247.410938" xlink:href="#m005f0a59be" y="279.010828"/>
      </g>
     </g>
     <g id="text_4">
      <!-- 75 -->
      <g transform="translate(237.867188 297.408484)scale(0.15 -0.15)">
       <defs>
        <path d="M 8.203125 72.90625 
L 55.078125 72.90625 
L 55.078125 68.703125 
L 28.609375 0 
L 18.3125 0 
L 43.21875 64.59375 
L 8.203125 64.59375 
z
" id="DejaVuSans-55"/>
       </defs>
       <use xlink:href="#DejaVuSans-55"/>
       <use x="63.623047" xlink:href="#DejaVuSans-53"/>
      </g>
     </g>
    </g>
    <g id="xtick_5">
     <g id="line2d_9">
      <path clip-path="url(#p304c686b55)" d="M 309.410938 279.010828 
L 309.410938 12.898828 
" style="fill:none;stroke:#b0b0b0;stroke-linecap:square;stroke-width:0.8;"/>
     </g>
     <g id="line2d_10">
      <g>
       <use style="stroke:#000000;stroke-width:0.8;" x="309.410938" xlink:href="#m005f0a59be" y="279.010828"/>
      </g>
     </g>
     <g id="text_5">
      <!-- 100 -->
      <g transform="translate(295.095313 297.408484)scale(0.15 -0.15)">
       <defs>
        <path d="M 12.40625 8.296875 
L 28.515625 8.296875 
L 28.515625 63.921875 
L 10.984375 60.40625 
L 10.984375 69.390625 
L 28.421875 72.90625 
L 38.28125 72.90625 
L 38.28125 8.296875 
L 54.390625 8.296875 
L 54.390625 0 
L 12.40625 0 
z
" id="DejaVuSans-49"/>
       </defs>
       <use xlink:href="#DejaVuSans-49"/>
       <use x="63.623047" xlink:href="#DejaVuSans-48"/>
       <use x="127.246094" xlink:href="#DejaVuSans-48"/>
      </g>
     </g>
    </g>
    <g id="xtick_6">
     <g id="line2d_11">
      <path clip-path="url(#p304c686b55)" d="M 371.410938 279.010828 
L 371.410938 12.898828 
" style="fill:none;stroke:#b0b0b0;stroke-linecap:square;stroke-width:0.8;"/>
     </g>
     <g id="line2d_12">
      <g>
       <use style="stroke:#000000;stroke-width:0.8;" x="371.410938" xlink:href="#m005f0a59be" y="279.010828"/>
      </g>
     </g>
     <g id="text_6">
      <!-- 125 -->
      <g transform="translate(357.095313 297.408484)scale(0.15 -0.15)">
       <use xlink:href="#DejaVuSans-49"/>
       <use x="63.623047" xlink:href="#DejaVuSans-50"/>
       <use x="127.246094" xlink:href="#DejaVuSans-53"/>
      </g>
     </g>
    </g>
    <g id="text_7">
     <!-- Time ($\mathrm{\mu s}$) -->
     <g transform="translate(192.570938 319.728016)scale(0.2 -0.2)">
      <defs>
       <path d="M -0.296875 72.90625 
L 61.375 72.90625 
L 61.375 64.59375 
L 35.5 64.59375 
L 35.5 0 
L 25.59375 0 
L 25.59375 64.59375 
L -0.296875 64.59375 
z
" id="DejaVuSans-84"/>
       <path d="M 9.421875 54.6875 
L 18.40625 54.6875 
L 18.40625 0 
L 9.421875 0 
z
M 9.421875 75.984375 
L 18.40625 75.984375 
L 18.40625 64.59375 
L 9.421875 64.59375 
z
" id="DejaVuSans-105"/>
       <path d="M 52 44.1875 
Q 55.375 50.25 60.0625 53.125 
Q 64.75 56 71.09375 56 
Q 79.640625 56 84.28125 50.015625 
Q 88.921875 44.046875 88.921875 33.015625 
L 88.921875 0 
L 79.890625 0 
L 79.890625 32.71875 
Q 79.890625 40.578125 77.09375 44.375 
Q 74.3125 48.1875 68.609375 48.1875 
Q 61.625 48.1875 57.5625 43.546875 
Q 53.515625 38.921875 53.515625 30.90625 
L 53.515625 0 
L 44.484375 0 
L 44.484375 32.71875 
Q 44.484375 40.625 41.703125 44.40625 
Q 38.921875 48.1875 33.109375 48.1875 
Q 26.21875 48.1875 22.15625 43.53125 
Q 18.109375 38.875 18.109375 30.90625 
L 18.109375 0 
L 9.078125 0 
L 9.078125 54.6875 
L 18.109375 54.6875 
L 18.109375 46.1875 
Q 21.1875 51.21875 25.484375 53.609375 
Q 29.78125 56 35.6875 56 
Q 41.65625 56 45.828125 52.96875 
Q 50 49.953125 52 44.1875 
z
" id="DejaVuSans-109"/>
       <path d="M 56.203125 29.59375 
L 56.203125 25.203125 
L 14.890625 25.203125 
Q 15.484375 15.921875 20.484375 11.0625 
Q 25.484375 6.203125 34.421875 6.203125 
Q 39.59375 6.203125 44.453125 7.46875 
Q 49.3125 8.734375 54.109375 11.28125 
L 54.109375 2.78125 
Q 49.265625 0.734375 44.1875 -0.34375 
Q 39.109375 -1.421875 33.890625 -1.421875 
Q 20.796875 -1.421875 13.15625 6.1875 
Q 5.515625 13.8125 5.515625 26.8125 
Q 5.515625 40.234375 12.765625 48.109375 
Q 20.015625 56 32.328125 56 
Q 43.359375 56 49.78125 48.890625 
Q 56.203125 41.796875 56.203125 29.59375 
z
M 47.21875 32.234375 
Q 47.125 39.59375 43.09375 43.984375 
Q 39.0625 48.390625 32.421875 48.390625 
Q 24.90625 48.390625 20.390625 44.140625 
Q 15.875 39.890625 15.1875 32.171875 
z
" id="DejaVuSans-101"/>
       <path id="DejaVuSans-32"/>
       <path d="M 31 75.875 
Q 24.46875 64.65625 21.28125 53.65625 
Q 18.109375 42.671875 18.109375 31.390625 
Q 18.109375 20.125 21.3125 9.0625 
Q 24.515625 -2 31 -13.1875 
L 23.1875 -13.1875 
Q 15.875 -1.703125 12.234375 9.375 
Q 8.59375 20.453125 8.59375 31.390625 
Q 8.59375 42.28125 12.203125 53.3125 
Q 15.828125 64.359375 23.1875 75.875 
z
" id="DejaVuSans-40"/>
       <path d="M 8.5 -20.796875 
L 8.5 54.6875 
L 17.484375 54.6875 
L 17.484375 20.703125 
Q 17.484375 13.625 20.84375 10 
Q 24.21875 6.390625 30.8125 6.390625 
Q 38.03125 6.390625 41.671875 10.484375 
Q 45.3125 14.59375 45.3125 22.796875 
L 45.3125 54.6875 
L 54.296875 54.6875 
L 54.296875 12.59375 
Q 54.296875 9.671875 55.140625 8.28125 
Q 56 6.890625 57.8125 6.890625 
Q 58.25 6.890625 59.03125 7.15625 
Q 59.8125 7.421875 61.1875 8.015625 
L 61.1875 0.78125 
Q 59.1875 -0.34375 57.390625 -0.875 
Q 55.609375 -1.421875 53.90625 -1.421875 
Q 50.53125 -1.421875 48.53125 0.484375 
Q 46.53125 2.390625 45.796875 6.296875 
Q 43.359375 2.4375 39.8125 0.5 
Q 36.28125 -1.421875 31.5 -1.421875 
Q 26.515625 -1.421875 23.015625 0.484375 
Q 19.53125 2.390625 17.484375 6.203125 
L 17.484375 -20.796875 
z
" id="DejaVuSans-956"/>
       <path d="M 44.28125 53.078125 
L 44.28125 44.578125 
Q 40.484375 46.53125 36.375 47.5 
Q 32.28125 48.484375 27.875 48.484375 
Q 21.1875 48.484375 17.84375 46.4375 
Q 14.5 44.390625 14.5 40.28125 
Q 14.5 37.15625 16.890625 35.375 
Q 19.28125 33.59375 26.515625 31.984375 
L 29.59375 31.296875 
Q 39.15625 29.25 43.1875 25.515625 
Q 47.21875 21.78125 47.21875 15.09375 
Q 47.21875 7.46875 41.1875 3.015625 
Q 35.15625 -1.421875 24.609375 -1.421875 
Q 20.21875 -1.421875 15.453125 -0.5625 
Q 10.6875 0.296875 5.421875 2 
L 5.421875 11.28125 
Q 10.40625 8.6875 15.234375 7.390625 
Q 20.0625 6.109375 24.8125 6.109375 
Q 31.15625 6.109375 34.5625 8.28125 
Q 37.984375 10.453125 37.984375 14.40625 
Q 37.984375 18.0625 35.515625 20.015625 
Q 33.0625 21.96875 24.703125 23.78125 
L 21.578125 24.515625 
Q 13.234375 26.265625 9.515625 29.90625 
Q 5.8125 33.546875 5.8125 39.890625 
Q 5.8125 47.609375 11.28125 51.796875 
Q 16.75 56 26.8125 56 
Q 31.78125 56 36.171875 55.265625 
Q 40.578125 54.546875 44.28125 53.078125 
z
" id="DejaVuSans-115"/>
       <path d="M 8.015625 75.875 
L 15.828125 75.875 
Q 23.140625 64.359375 26.78125 53.3125 
Q 30.421875 42.28125 30.421875 31.390625 
Q 30.421875 20.453125 26.78125 9.375 
Q 23.140625 -1.703125 15.828125 -13.1875 
L 8.015625 -13.1875 
Q 14.5 -2 17.703125 9.0625 
Q 20.90625 20.125 20.90625 31.390625 
Q 20.90625 42.671875 17.703125 53.65625 
Q 14.5 64.65625 8.015625 75.875 
z
" id="DejaVuSans-41"/>
      </defs>
      <use transform="translate(0 0.015625)" xlink:href="#DejaVuSans-84"/>
      <use transform="translate(61.083984 0.015625)" xlink:href="#DejaVuSans-105"/>
      <use transform="translate(88.867188 0.015625)" xlink:href="#DejaVuSans-109"/>
      <use transform="translate(186.279297 0.015625)" xlink:href="#DejaVuSans-101"/>
      <use transform="translate(247.802734 0.015625)" xlink:href="#DejaVuSans-32"/>
      <use transform="translate(279.589844 0.015625)" xlink:href="#DejaVuSans-40"/>
      <use transform="translate(318.603516 0.015625)" xlink:href="#DejaVuSans-956"/>
      <use transform="translate(382.226562 0.015625)" xlink:href="#DejaVuSans-115"/>
      <use transform="translate(434.326172 0.015625)" xlink:href="#DejaVuSans-41"/>
     </g>
    </g>
   </g>
   <g id="matplotlib.axis_2">
    <g id="ytick_1">
     <g id="line2d_13">
      <path clip-path="url(#p304c686b55)" d="M 61.410938 279.010828 
L 418.530938 279.010828 
" style="fill:none;stroke:#b0b0b0;stroke-linecap:square;stroke-width:0.8;"/>
     </g>
     <g id="line2d_14">
      <defs>
       <path d="M 0 0 
L -3.5 0 
" id="mc3ce260a5b" style="stroke:#000000;stroke-width:0.8;"/>
      </defs>
      <g>
       <use style="stroke:#000000;stroke-width:0.8;" x="61.410938" xlink:href="#mc3ce260a5b" y="279.010828"/>
      </g>
     </g>
     <g id="text_8">
      <!-- 0.0 -->
      <g transform="translate(30.55625 284.709656)scale(0.15 -0.15)">
       <defs>
        <path d="M 10.6875 12.40625 
L 21 12.40625 
L 21 0 
L 10.6875 0 
z
" id="DejaVuSans-46"/>
       </defs>
       <use xlink:href="#DejaVuSans-48"/>
       <use x="63.623047" xlink:href="#DejaVuSans-46"/>
       <use x="95.410156" xlink:href="#DejaVuSans-48"/>
      </g>
     </g>
    </g>
    <g id="ytick_2">
     <g id="line2d_15">
      <path clip-path="url(#p304c686b55)" d="M 61.410938 225.788428 
L 418.530938 225.788428 
" style="fill:none;stroke:#b0b0b0;stroke-linecap:square;stroke-width:0.8;"/>
     </g>
     <g id="line2d_16">
      <g>
       <use style="stroke:#000000;stroke-width:0.8;" x="61.410938" xlink:href="#mc3ce260a5b" y="225.788428"/>
      </g>
     </g>
     <g id="text_9">
      <!-- 0.2 -->
      <g transform="translate(30.55625 231.487256)scale(0.15 -0.15)">
       <use xlink:href="#DejaVuSans-48"/>
       <use x="63.623047" xlink:href="#DejaVuSans-46"/>
       <use x="95.410156" xlink:href="#DejaVuSans-50"/>
      </g>
     </g>
    </g>
    <g id="ytick_3">
     <g id="line2d_17">
      <path clip-path="url(#p304c686b55)" d="M 61.410938 172.566028 
L 418.530938 172.566028 
" style="fill:none;stroke:#b0b0b0;stroke-linecap:square;stroke-width:0.8;"/>
     </g>
     <g id="line2d_18">
      <g>
       <use style="stroke:#000000;stroke-width:0.8;" x="61.410938" xlink:href="#mc3ce260a5b" y="172.566028"/>
      </g>
     </g>
     <g id="text_10">
      <!-- 0.4 -->
      <g transform="translate(30.55625 178.264856)scale(0.15 -0.15)">
       <defs>
        <path d="M 37.796875 64.3125 
L 12.890625 25.390625 
L 37.796875 25.390625 
z
M 35.203125 72.90625 
L 47.609375 72.90625 
L 47.609375 25.390625 
L 58.015625 25.390625 
L 58.015625 17.1875 
L 47.609375 17.1875 
L 47.609375 0 
L 37.796875 0 
L 37.796875 17.1875 
L 4.890625 17.1875 
L 4.890625 26.703125 
z
" id="DejaVuSans-52"/>
       </defs>
       <use xlink:href="#DejaVuSans-48"/>
       <use x="63.623047" xlink:href="#DejaVuSans-46"/>
       <use x="95.410156" xlink:href="#DejaVuSans-52"/>
      </g>
     </g>
    </g>
    <g id="ytick_4">
     <g id="line2d_19">
      <path clip-path="url(#p304c686b55)" d="M 61.410938 119.343628 
L 418.530938 119.343628 
" style="fill:none;stroke:#b0b0b0;stroke-linecap:square;stroke-width:0.8;"/>
     </g>
     <g id="line2d_20">
      <g>
       <use style="stroke:#000000;stroke-width:0.8;" x="61.410938" xlink:href="#mc3ce260a5b" y="119.343628"/>
      </g>
     </g>
     <g id="text_11">
      <!-- 0.6 -->
      <g transform="translate(30.55625 125.042456)scale(0.15 -0.15)">
       <defs>
        <path d="M 33.015625 40.375 
Q 26.375 40.375 22.484375 35.828125 
Q 18.609375 31.296875 18.609375 23.390625 
Q 18.609375 15.53125 22.484375 10.953125 
Q 26.375 6.390625 33.015625 6.390625 
Q 39.65625 6.390625 43.53125 10.953125 
Q 47.40625 15.53125 47.40625 23.390625 
Q 47.40625 31.296875 43.53125 35.828125 
Q 39.65625 40.375 33.015625 40.375 
z
M 52.59375 71.296875 
L 52.59375 62.3125 
Q 48.875 64.0625 45.09375 64.984375 
Q 41.3125 65.921875 37.59375 65.921875 
Q 27.828125 65.921875 22.671875 59.328125 
Q 17.53125 52.734375 16.796875 39.40625 
Q 19.671875 43.65625 24.015625 45.921875 
Q 28.375 48.1875 33.59375 48.1875 
Q 44.578125 48.1875 50.953125 41.515625 
Q 57.328125 34.859375 57.328125 23.390625 
Q 57.328125 12.15625 50.6875 5.359375 
Q 44.046875 -1.421875 33.015625 -1.421875 
Q 20.359375 -1.421875 13.671875 8.265625 
Q 6.984375 17.96875 6.984375 36.375 
Q 6.984375 53.65625 15.1875 63.9375 
Q 23.390625 74.21875 37.203125 74.21875 
Q 40.921875 74.21875 44.703125 73.484375 
Q 48.484375 72.75 52.59375 71.296875 
z
" id="DejaVuSans-54"/>
       </defs>
       <use xlink:href="#DejaVuSans-48"/>
       <use x="63.623047" xlink:href="#DejaVuSans-46"/>
       <use x="95.410156" xlink:href="#DejaVuSans-54"/>
      </g>
     </g>
    </g>
    <g id="ytick_5">
     <g id="line2d_21">
      <path clip-path="url(#p304c686b55)" d="M 61.410938 66.121228 
L 418.530938 66.121228 
" style="fill:none;stroke:#b0b0b0;stroke-linecap:square;stroke-width:0.8;"/>
     </g>
     <g id="line2d_22">
      <g>
       <use style="stroke:#000000;stroke-width:0.8;" x="61.410938" xlink:href="#mc3ce260a5b" y="66.121228"/>
      </g>
     </g>
     <g id="text_12">
      <!-- 0.8 -->
      <g transform="translate(30.55625 71.820056)scale(0.15 -0.15)">
       <defs>
        <path d="M 31.78125 34.625 
Q 24.75 34.625 20.71875 30.859375 
Q 16.703125 27.09375 16.703125 20.515625 
Q 16.703125 13.921875 20.71875 10.15625 
Q 24.75 6.390625 31.78125 6.390625 
Q 38.8125 6.390625 42.859375 10.171875 
Q 46.921875 13.96875 46.921875 20.515625 
Q 46.921875 27.09375 42.890625 30.859375 
Q 38.875 34.625 31.78125 34.625 
z
M 21.921875 38.8125 
Q 15.578125 40.375 12.03125 44.71875 
Q 8.5 49.078125 8.5 55.328125 
Q 8.5 64.0625 14.71875 69.140625 
Q 20.953125 74.21875 31.78125 74.21875 
Q 42.671875 74.21875 48.875 69.140625 
Q 55.078125 64.0625 55.078125 55.328125 
Q 55.078125 49.078125 51.53125 44.71875 
Q 48 40.375 41.703125 38.8125 
Q 48.828125 37.15625 52.796875 32.3125 
Q 56.78125 27.484375 56.78125 20.515625 
Q 56.78125 9.90625 50.3125 4.234375 
Q 43.84375 -1.421875 31.78125 -1.421875 
Q 19.734375 -1.421875 13.25 4.234375 
Q 6.78125 9.90625 6.78125 20.515625 
Q 6.78125 27.484375 10.78125 32.3125 
Q 14.796875 37.15625 21.921875 38.8125 
z
M 18.3125 54.390625 
Q 18.3125 48.734375 21.84375 45.5625 
Q 25.390625 42.390625 31.78125 42.390625 
Q 38.140625 42.390625 41.71875 45.5625 
Q 45.3125 48.734375 45.3125 54.390625 
Q 45.3125 60.0625 41.71875 63.234375 
Q 38.140625 66.40625 31.78125 66.40625 
Q 25.390625 66.40625 21.84375 63.234375 
Q 18.3125 60.0625 18.3125 54.390625 
z
" id="DejaVuSans-56"/>
       </defs>
       <use xlink:href="#DejaVuSans-48"/>
       <use x="63.623047" xlink:href="#DejaVuSans-46"/>
       <use x="95.410156" xlink:href="#DejaVuSans-56"/>
      </g>
     </g>
    </g>
    <g id="ytick_6">
     <g id="line2d_23">
      <path clip-path="url(#p304c686b55)" d="M 61.410938 12.898828 
L 418.530938 12.898828 
" style="fill:none;stroke:#b0b0b0;stroke-linecap:square;stroke-width:0.8;"/>
     </g>
     <g id="line2d_24">
      <g>
       <use style="stroke:#000000;stroke-width:0.8;" x="61.410938" xlink:href="#mc3ce260a5b" y="12.898828"/>
      </g>
     </g>
     <g id="text_13">
      <!-- 1.0 -->
      <g transform="translate(30.55625 18.597656)scale(0.15 -0.15)">
       <use xlink:href="#DejaVuSans-49"/>
       <use x="63.623047" xlink:href="#DejaVuSans-46"/>
       <use x="95.410156" xlink:href="#DejaVuSans-48"/>
      </g>
     </g>
    </g>
    <g id="text_14">
     <!-- F=1 Population -->
     <g transform="translate(22.396875 222.159516)rotate(-90)scale(0.2 -0.2)">
      <defs>
       <path d="M 9.8125 72.90625 
L 51.703125 72.90625 
L 51.703125 64.59375 
L 19.671875 64.59375 
L 19.671875 43.109375 
L 48.578125 43.109375 
L 48.578125 34.8125 
L 19.671875 34.8125 
L 19.671875 0 
L 9.8125 0 
z
" id="DejaVuSans-70"/>
       <path d="M 10.59375 45.40625 
L 73.1875 45.40625 
L 73.1875 37.203125 
L 10.59375 37.203125 
z
M 10.59375 25.484375 
L 73.1875 25.484375 
L 73.1875 17.1875 
L 10.59375 17.1875 
z
" id="DejaVuSans-61"/>
       <path d="M 19.671875 64.796875 
L 19.671875 37.40625 
L 32.078125 37.40625 
Q 38.96875 37.40625 42.71875 40.96875 
Q 46.484375 44.53125 46.484375 51.125 
Q 46.484375 57.671875 42.71875 61.234375 
Q 38.96875 64.796875 32.078125 64.796875 
z
M 9.8125 72.90625 
L 32.078125 72.90625 
Q 44.34375 72.90625 50.609375 67.359375 
Q 56.890625 61.8125 56.890625 51.125 
Q 56.890625 40.328125 50.609375 34.8125 
Q 44.34375 29.296875 32.078125 29.296875 
L 19.671875 29.296875 
L 19.671875 0 
L 9.8125 0 
z
" id="DejaVuSans-80"/>
       <path d="M 30.609375 48.390625 
Q 23.390625 48.390625 19.1875 42.75 
Q 14.984375 37.109375 14.984375 27.296875 
Q 14.984375 17.484375 19.15625 11.84375 
Q 23.34375 6.203125 30.609375 6.203125 
Q 37.796875 6.203125 41.984375 11.859375 
Q 46.1875 17.53125 46.1875 27.296875 
Q 46.1875 37.015625 41.984375 42.703125 
Q 37.796875 48.390625 30.609375 48.390625 
z
M 30.609375 56 
Q 42.328125 56 49.015625 48.375 
Q 55.71875 40.765625 55.71875 27.296875 
Q 55.71875 13.875 49.015625 6.21875 
Q 42.328125 -1.421875 30.609375 -1.421875 
Q 18.84375 -1.421875 12.171875 6.21875 
Q 5.515625 13.875 5.515625 27.296875 
Q 5.515625 40.765625 12.171875 48.375 
Q 18.84375 56 30.609375 56 
z
" id="DejaVuSans-111"/>
       <path d="M 18.109375 8.203125 
L 18.109375 -20.796875 
L 9.078125 -20.796875 
L 9.078125 54.6875 
L 18.109375 54.6875 
L 18.109375 46.390625 
Q 20.953125 51.265625 25.265625 53.625 
Q 29.59375 56 35.59375 56 
Q 45.5625 56 51.78125 48.09375 
Q 58.015625 40.1875 58.015625 27.296875 
Q 58.015625 14.40625 51.78125 6.484375 
Q 45.5625 -1.421875 35.59375 -1.421875 
Q 29.59375 -1.421875 25.265625 0.953125 
Q 20.953125 3.328125 18.109375 8.203125 
z
M 48.6875 27.296875 
Q 48.6875 37.203125 44.609375 42.84375 
Q 40.53125 48.484375 33.40625 48.484375 
Q 26.265625 48.484375 22.1875 42.84375 
Q 18.109375 37.203125 18.109375 27.296875 
Q 18.109375 17.390625 22.1875 11.75 
Q 26.265625 6.109375 33.40625 6.109375 
Q 40.53125 6.109375 44.609375 11.75 
Q 48.6875 17.390625 48.6875 27.296875 
z
" id="DejaVuSans-112"/>
       <path d="M 8.5 21.578125 
L 8.5 54.6875 
L 17.484375 54.6875 
L 17.484375 21.921875 
Q 17.484375 14.15625 20.5 10.265625 
Q 23.53125 6.390625 29.59375 6.390625 
Q 36.859375 6.390625 41.078125 11.03125 
Q 45.3125 15.671875 45.3125 23.6875 
L 45.3125 54.6875 
L 54.296875 54.6875 
L 54.296875 0 
L 45.3125 0 
L 45.3125 8.40625 
Q 42.046875 3.421875 37.71875 1 
Q 33.40625 -1.421875 27.6875 -1.421875 
Q 18.265625 -1.421875 13.375 4.4375 
Q 8.5 10.296875 8.5 21.578125 
z
M 31.109375 56 
z
" id="DejaVuSans-117"/>
       <path d="M 9.421875 75.984375 
L 18.40625 75.984375 
L 18.40625 0 
L 9.421875 0 
z
" id="DejaVuSans-108"/>
       <path d="M 34.28125 27.484375 
Q 23.390625 27.484375 19.1875 25 
Q 14.984375 22.515625 14.984375 16.5 
Q 14.984375 11.71875 18.140625 8.90625 
Q 21.296875 6.109375 26.703125 6.109375 
Q 34.1875 6.109375 38.703125 11.40625 
Q 43.21875 16.703125 43.21875 25.484375 
L 43.21875 27.484375 
z
M 52.203125 31.203125 
L 52.203125 0 
L 43.21875 0 
L 43.21875 8.296875 
Q 40.140625 3.328125 35.546875 0.953125 
Q 30.953125 -1.421875 24.3125 -1.421875 
Q 15.921875 -1.421875 10.953125 3.296875 
Q 6 8.015625 6 15.921875 
Q 6 25.140625 12.171875 29.828125 
Q 18.359375 34.515625 30.609375 34.515625 
L 43.21875 34.515625 
L 43.21875 35.40625 
Q 43.21875 41.609375 39.140625 45 
Q 35.0625 48.390625 27.6875 48.390625 
Q 23 48.390625 18.546875 47.265625 
Q 14.109375 46.140625 10.015625 43.890625 
L 10.015625 52.203125 
Q 14.9375 54.109375 19.578125 55.046875 
Q 24.21875 56 28.609375 56 
Q 40.484375 56 46.34375 49.84375 
Q 52.203125 43.703125 52.203125 31.203125 
z
" id="DejaVuSans-97"/>
       <path d="M 18.3125 70.21875 
L 18.3125 54.6875 
L 36.8125 54.6875 
L 36.8125 47.703125 
L 18.3125 47.703125 
L 18.3125 18.015625 
Q 18.3125 11.328125 20.140625 9.421875 
Q 21.96875 7.515625 27.59375 7.515625 
L 36.8125 7.515625 
L 36.8125 0 
L 27.59375 0 
Q 17.1875 0 13.234375 3.875 
Q 9.28125 7.765625 9.28125 18.015625 
L 9.28125 47.703125 
L 2.6875 47.703125 
L 2.6875 54.6875 
L 9.28125 54.6875 
L 9.28125 70.21875 
z
" id="DejaVuSans-116"/>
       <path d="M 54.890625 33.015625 
L 54.890625 0 
L 45.90625 0 
L 45.90625 32.71875 
Q 45.90625 40.484375 42.875 44.328125 
Q 39.84375 48.1875 33.796875 48.1875 
Q 26.515625 48.1875 22.3125 43.546875 
Q 18.109375 38.921875 18.109375 30.90625 
L 18.109375 0 
L 9.078125 0 
L 9.078125 54.6875 
L 18.109375 54.6875 
L 18.109375 46.1875 
Q 21.34375 51.125 25.703125 53.5625 
Q 30.078125 56 35.796875 56 
Q 45.21875 56 50.046875 50.171875 
Q 54.890625 44.34375 54.890625 33.015625 
z
" id="DejaVuSans-110"/>
      </defs>
      <use xlink:href="#DejaVuSans-70"/>
      <use x="57.519531" xlink:href="#DejaVuSans-61"/>
      <use x="141.308594" xlink:href="#DejaVuSans-49"/>
      <use x="204.931641" xlink:href="#DejaVuSans-32"/>
      <use x="236.71875" xlink:href="#DejaVuSans-80"/>
      <use x="293.396484" xlink:href="#DejaVuSans-111"/>
      <use x="354.578125" xlink:href="#DejaVuSans-112"/>
      <use x="418.054688" xlink:href="#DejaVuSans-117"/>
      <use x="481.433594" xlink:href="#DejaVuSans-108"/>
      <use x="509.216797" xlink:href="#DejaVuSans-97"/>
      <use x="570.496094" xlink:href="#DejaVuSans-116"/>
      <use x="609.705078" xlink:href="#DejaVuSans-105"/>
      <use x="637.488281" xlink:href="#DejaVuSans-111"/>
      <use x="698.669922" xlink:href="#DejaVuSans-110"/>
     </g>
    </g>
   </g>
   <g id="LineCollection_1">
    <path clip-path="url(#p304c686b55)" d="M 61.410938 279.010828 
L 61.410938 277.828108 
" style="fill:none;stroke:#1f77b4;stroke-width:1.5;"/>
    <path clip-path="url(#p304c686b55)" d="M 70.090938 206.975733 
L 70.090938 190.665924 
" style="fill:none;stroke:#1f77b4;stroke-width:1.5;"/>
    <path clip-path="url(#p304c686b55)" d="M 78.770938 74.620388 
L 78.770938 60.880582 
" style="fill:none;stroke:#1f77b4;stroke-width:1.5;"/>
    <path clip-path="url(#p304c686b55)" d="M 87.450938 40.107283 
L 87.450938 30.243061 
" style="fill:none;stroke:#1f77b4;stroke-width:1.5;"/>
    <path clip-path="url(#p304c686b55)" d="M 96.130938 147.588579 
L 96.130938 129.468314 
" style="fill:none;stroke:#1f77b4;stroke-width:1.5;"/>
    <path clip-path="url(#p304c686b55)" d="M 104.810938 259.933109 
L 104.810938 249.811592 
" style="fill:none;stroke:#1f77b4;stroke-width:1.5;"/>
    <path clip-path="url(#p304c686b55)" d="M 113.490938 266.493926 
L 113.490938 257.636108 
" style="fill:none;stroke:#1f77b4;stroke-width:1.5;"/>
    <path clip-path="url(#p304c686b55)" d="M 122.170938 141.456265 
L 122.170938 124.071598 
" style="fill:none;stroke:#1f77b4;stroke-width:1.5;"/>
    <path clip-path="url(#p304c686b55)" d="M 130.850938 48.845379 
L 130.850938 37.936277 
" style="fill:none;stroke:#1f77b4;stroke-width:1.5;"/>
    <path clip-path="url(#p304c686b55)" d="M 139.530938 90.59395 
L 139.530938 74.535932 
" style="fill:none;stroke:#1f77b4;stroke-width:1.5;"/>
    <path clip-path="url(#p304c686b55)" d="M 148.210938 204.457803 
L 148.210938 187.848653 
" style="fill:none;stroke:#1f77b4;stroke-width:1.5;"/>
    <path clip-path="url(#p304c686b55)" d="M 156.890938 273.936234 
L 156.890938 268.370147 
" style="fill:none;stroke:#1f77b4;stroke-width:1.5;"/>
    <path clip-path="url(#p304c686b55)" d="M 165.570938 204.457803 
L 165.570938 187.848653 
" style="fill:none;stroke:#1f77b4;stroke-width:1.5;"/>
    <path clip-path="url(#p304c686b55)" d="M 174.250938 94.495261 
L 174.250938 78.166093 
" style="fill:none;stroke:#1f77b4;stroke-width:1.5;"/>
    <path clip-path="url(#p304c686b55)" d="M 182.930938 51.391687 
L 182.930938 40.09889 
" style="fill:none;stroke:#1f77b4;stroke-width:1.5;"/>
    <path clip-path="url(#p304c686b55)" d="M 191.610938 136.470504 
L 191.610938 118.937063 
" style="fill:none;stroke:#1f77b4;stroke-width:1.5;"/>
    <path clip-path="url(#p304c686b55)" d="M 200.290938 252.158504 
L 200.290938 240.523152 
" style="fill:none;stroke:#1f77b4;stroke-width:1.5;"/>
    <path clip-path="url(#p304c686b55)" d="M 208.970938 257.517525 
L 208.970938 246.528584 
" style="fill:none;stroke:#1f77b4;stroke-width:1.5;"/>
    <path clip-path="url(#p304c686b55)" d="M 217.650938 155.438917 
L 217.650938 137.658739 
" style="fill:none;stroke:#1f77b4;stroke-width:1.5;"/>
    <path clip-path="url(#p304c686b55)" d="M 226.330938 56.227129 
L 226.330938 44.127769 
" style="fill:none;stroke:#1f77b4;stroke-width:1.5;"/>
    <path clip-path="url(#p304c686b55)" d="M 235.010938 69.850812 
L 235.010938 55.88936 
" style="fill:none;stroke:#1f77b4;stroke-width:1.5;"/>
    <path clip-path="url(#p304c686b55)" d="M 243.690938 216.458353 
L 243.690938 200.819624 
" style="fill:none;stroke:#1f77b4;stroke-width:1.5;"/>
    <path clip-path="url(#p304c686b55)" d="M 252.370938 265.142639 
L 252.370938 256.214697 
" style="fill:none;stroke:#1f77b4;stroke-width:1.5;"/>
    <path clip-path="url(#p304c686b55)" d="M 261.050938 215.605602 
L 261.050938 199.94016 
" style="fill:none;stroke:#1f77b4;stroke-width:1.5;"/>
    <path clip-path="url(#p304c686b55)" d="M 269.730938 113.975742 
L 269.730938 96.890714 
" style="fill:none;stroke:#1f77b4;stroke-width:1.5;"/>
    <path clip-path="url(#p304c686b55)" d="M 278.410938 49.757999 
L 278.410938 38.587349 
" style="fill:none;stroke:#1f77b4;stroke-width:1.5;"/>
    <path clip-path="url(#p304c686b55)" d="M 287.090938 124.918918 
L 287.090938 108.337481 
" style="fill:none;stroke:#1f77b4;stroke-width:1.5;"/>
    <path clip-path="url(#p304c686b55)" d="M 295.770938 247.124471 
L 295.770938 234.327223 
" style="fill:none;stroke:#1f77b4;stroke-width:1.5;"/>
    <path clip-path="url(#p304c686b55)" d="M 304.450938 260.667324 
L 304.450938 250.604926 
" style="fill:none;stroke:#1f77b4;stroke-width:1.5;"/>
    <path clip-path="url(#p304c686b55)" d="M 313.130938 163.617129 
L 313.130938 145.954828 
" style="fill:none;stroke:#1f77b4;stroke-width:1.5;"/>
    <path clip-path="url(#p304c686b55)" d="M 321.810938 69.592758 
L 321.810938 55.537027 
" style="fill:none;stroke:#1f77b4;stroke-width:1.5;"/>
    <path clip-path="url(#p304c686b55)" d="M 330.490938 71.479344 
L 330.490938 57.86817 
" style="fill:none;stroke:#1f77b4;stroke-width:1.5;"/>
    <path clip-path="url(#p304c686b55)" d="M 339.170938 193.475657 
L 339.170938 176.633578 
" style="fill:none;stroke:#1f77b4;stroke-width:1.5;"/>
    <path clip-path="url(#p304c686b55)" d="M 347.850938 254.99781 
L 347.850938 244.016403 
" style="fill:none;stroke:#1f77b4;stroke-width:1.5;"/>
    <path clip-path="url(#p304c686b55)" d="M 356.530938 230.398214 
L 356.530938 215.088517 
" style="fill:none;stroke:#1f77b4;stroke-width:1.5;"/>
    <path clip-path="url(#p304c686b55)" d="M 365.210938 118.273477 
L 365.210938 101.168179 
" style="fill:none;stroke:#1f77b4;stroke-width:1.5;"/>
    <path clip-path="url(#p304c686b55)" d="M 373.890938 61.339751 
L 373.890938 48.431025 
" style="fill:none;stroke:#1f77b4;stroke-width:1.5;"/>
    <path clip-path="url(#p304c686b55)" d="M 382.570938 126.796576 
L 382.570938 109.217409 
" style="fill:none;stroke:#1f77b4;stroke-width:1.5;"/>
    <path clip-path="url(#p304c686b55)" d="M 391.250938 225.700423 
L 391.250938 211.155344 
" style="fill:none;stroke:#1f77b4;stroke-width:1.5;"/>
    <path clip-path="url(#p304c686b55)" d="M 399.930938 245.233639 
L 399.930938 232.474937 
" style="fill:none;stroke:#1f77b4;stroke-width:1.5;"/>
    <path clip-path="url(#p304c686b55)" d="M 408.610938 172.079916 
L 408.610938 154.166773 
" style="fill:none;stroke:#1f77b4;stroke-width:1.5;"/>
   </g>
   <g id="LineCollection_2">
    <path clip-path="url(#p304c686b55)" d="M 61.410938 274.780846 
L 61.410938 267.789145 
" style="fill:none;stroke:#d62728;stroke-width:1.5;"/>
    <path clip-path="url(#p304c686b55)" d="M 70.090938 237.288136 
L 70.090938 220.729648 
" style="fill:none;stroke:#d62728;stroke-width:1.5;"/>
    <path clip-path="url(#p304c686b55)" d="M 78.770938 163.039554 
L 78.770938 142.093059 
" style="fill:none;stroke:#d62728;stroke-width:1.5;"/>
    <path clip-path="url(#p304c686b55)" d="M 87.450938 100.968772 
L 87.450938 81.851493 
" style="fill:none;stroke:#d62728;stroke-width:1.5;"/>
    <path clip-path="url(#p304c686b55)" d="M 96.130938 120.325553 
L 96.130938 100.066503 
" style="fill:none;stroke:#d62728;stroke-width:1.5;"/>
    <path clip-path="url(#p304c686b55)" d="M 104.810938 144.831053 
L 104.810938 123.938429 
" style="fill:none;stroke:#d62728;stroke-width:1.5;"/>
    <path clip-path="url(#p304c686b55)" d="M 113.490938 184.938079 
L 113.490938 163.995578 
" style="fill:none;stroke:#d62728;stroke-width:1.5;"/>
    <path clip-path="url(#p304c686b55)" d="M 122.170938 205.850105 
L 122.170938 185.851552 
" style="fill:none;stroke:#d62728;stroke-width:1.5;"/>
    <path clip-path="url(#p304c686b55)" d="M 130.850938 159.144608 
L 130.850938 138.917927 
" style="fill:none;stroke:#d62728;stroke-width:1.5;"/>
    <path clip-path="url(#p304c686b55)" d="M 139.530938 147.031917 
L 139.530938 125.362859 
" style="fill:none;stroke:#d62728;stroke-width:1.5;"/>
    <path clip-path="url(#p304c686b55)" d="M 148.210938 115.416312 
L 148.210938 94.472522 
" style="fill:none;stroke:#d62728;stroke-width:1.5;"/>
    <path clip-path="url(#p304c686b55)" d="M 156.890938 156.313224 
L 156.890938 135.596433 
" style="fill:none;stroke:#d62728;stroke-width:1.5;"/>
    <path clip-path="url(#p304c686b55)" d="M 165.570938 182.525487 
L 165.570938 162.285952 
" style="fill:none;stroke:#d62728;stroke-width:1.5;"/>
    <path clip-path="url(#p304c686b55)" d="M 174.250938 184.987566 
L 174.250938 162.844178 
" style="fill:none;stroke:#d62728;stroke-width:1.5;"/>
    <path clip-path="url(#p304c686b55)" d="M 182.930938 185.134895 
L 182.930938 164.404112 
" style="fill:none;stroke:#d62728;stroke-width:1.5;"/>
    <path clip-path="url(#p304c686b55)" d="M 191.610938 134.204782 
L 191.610938 114.130979 
" style="fill:none;stroke:#d62728;stroke-width:1.5;"/>
   </g>
   <g id="line2d_25">
    <path clip-path="url(#p304c686b55)" d="M 61.410938 278.518987 
L 61.768058 278.518987 
L 62.125178 278.122749 
L 62.482298 277.448264 
L 62.839418 277.221813 
L 63.553658 274.430803 
L 63.910778 272.395444 
L 64.267898 271.031994 
L 64.625018 267.540504 
L 65.339258 262.47909 
L 65.696378 260.084337 
L 66.767738 249.743088 
L 67.481978 240.933515 
L 69.267578 218.542893 
L 71.767418 180.457062 
L 73.553018 151.366188 
L 74.624378 132.164536 
L 75.338618 121.870361 
L 78.195578 80.400313 
L 79.624058 61.49891 
L 81.409658 44.123132 
L 83.195258 31.971448 
L 83.552378 31.681822 
L 83.909498 30.531117 
L 84.266618 28.721634 
L 84.623738 28.240204 
L 84.980858 26.696269 
L 85.337978 28.452815 
L 86.052218 26.696269 
L 86.766458 30.589193 
L 87.123578 31.461972 
L 87.480698 31.79193 
L 87.837818 34.310668 
L 88.194938 35.708325 
L 89.623418 44.524925 
L 90.337658 52.657168 
L 92.837498 81.079187 
L 93.551738 90.739955 
L 93.908858 96.896282 
L 94.265978 100.971709 
L 95.337338 118.523376 
L 95.694458 122.892606 
L 96.408698 135.568985 
L 96.765818 140.586134 
L 97.480058 152.732578 
L 98.551418 169.284185 
L 98.908538 176.249255 
L 99.622778 186.931144 
L 102.836858 232.736099 
L 105.336698 259.268369 
L 105.693818 261.1377 
L 106.050938 264.189881 
L 106.408058 265.937473 
L 107.122298 270.818457 
L 107.479418 271.658319 
L 107.836538 273.279863 
L 109.265018 275.925817 
L 109.622138 275.783351 
L 109.979258 277.098432 
L 110.336378 277.248374 
L 110.693498 274.567986 
L 111.050618 274.048236 
L 111.764858 271.031994 
L 113.193338 263.083804 
L 116.050298 234.892095 
L 116.407418 228.594843 
L 116.764538 225.688785 
L 117.835898 210.00509 
L 118.193018 205.688515 
L 118.550138 199.178822 
L 118.907258 195.302526 
L 122.121338 144.501149 
L 123.549818 120.671011 
L 124.621178 106.695512 
L 125.335418 94.672295 
L 126.049658 85.887002 
L 127.478138 67.668215 
L 128.192378 60.564837 
L 129.620858 46.07206 
L 129.977978 45.288342 
L 130.335098 43.429283 
L 130.692218 40.057762 
L 131.049338 37.766607 
L 131.763578 34.612794 
L 132.120698 34.469927 
L 133.549178 31.971448 
L 133.906298 32.235893 
L 134.263418 33.097077 
L 134.620538 33.317237 
L 134.977658 35.016298 
L 135.334778 35.330962 
L 136.406138 39.999677 
L 136.763258 43.031748 
L 137.120378 44.375309 
L 138.905978 60.311853 
L 139.263098 65.237477 
L 139.620218 67.990157 
L 141.762938 94.728578 
L 143.191418 116.303492 
L 143.905658 126.725621 
L 144.262778 133.617709 
L 144.977018 143.195813 
L 145.334138 149.782142 
L 145.691258 154.29647 
L 146.762618 171.804139 
L 150.690938 227.719791 
L 152.119418 243.490139 
L 152.476538 247.825752 
L 152.833658 250.109406 
L 153.190778 253.44171 
L 153.905018 258.387324 
L 154.619258 263.938676 
L 154.976378 265.492667 
L 155.333498 267.690612 
L 155.690618 269.043216 
L 156.047738 268.863752 
L 156.404858 271.623056 
L 156.761978 271.86145 
L 157.119098 272.819231 
L 157.476218 272.632413 
L 157.833338 273.486418 
L 158.190458 273.333567 
L 158.547578 270.99646 
L 159.261818 270.05152 
L 159.976058 265.999188 
L 160.333178 265.060686 
L 160.690298 262.413259 
L 161.047418 260.67537 
L 162.833018 246.196794 
L 163.904378 234.507361 
L 164.618618 225.567619 
L 167.475578 186.757134 
L 170.689658 137.225434 
L 171.046778 130.778269 
L 171.403898 126.767822 
L 172.118138 115.902317 
L 172.475258 109.853571 
L 173.189498 100.918461 
L 175.332218 74.042185 
L 176.760698 58.947292 
L 179.260538 41.804522 
L 179.617658 40.019038 
L 179.974778 39.841083 
L 180.331898 37.628825 
L 180.689018 37.766607 
L 181.403258 36.831628 
L 182.117498 36.648358 
L 182.474618 37.628825 
L 182.831738 39.009672 
L 183.188858 39.010351 
L 183.903098 41.769874 
L 184.260218 43.301868 
L 184.617338 46.058152 
L 184.974458 47.68849 
L 185.331578 51.607116 
L 185.688698 53.281449 
L 186.045818 56.574429 
L 186.760058 61.327916 
L 187.831418 73.415501 
L 188.902778 85.953951 
L 189.617018 96.077987 
L 190.331258 104.37573 
L 191.045498 115.12219 
L 192.831098 141.688134 
L 193.902458 157.96608 
L 195.330938 178.725962 
L 196.402298 195.843068 
L 196.759418 198.885364 
L 198.187898 218.284883 
L 200.330618 241.426333 
L 202.116218 257.656698 
L 202.473338 259.607045 
L 203.544698 263.678809 
L 203.901818 266.37366 
L 204.258938 267.442102 
L 204.616058 267.172801 
L 205.330298 268.693491 
L 205.687418 267.737633 
L 206.044538 268.490942 
L 206.401658 268.693491 
L 206.758778 266.887268 
L 207.115898 266.01976 
L 207.473018 265.700455 
L 207.830138 264.52509 
L 209.615738 253.319834 
L 209.972858 250.459394 
L 210.687098 243.8367 
L 211.401338 236.740889 
L 213.186938 216.751969 
L 214.972538 193.925118 
L 220.329338 114.383966 
L 220.686458 110.674806 
L 221.400698 100.328185 
L 221.757818 96.685748 
L 222.829178 82.045047 
L 223.186298 79.093651 
L 224.257658 67.572413 
L 224.971898 61.378557 
L 225.329018 57.982382 
L 225.686138 56.650389 
L 226.043258 53.009828 
L 226.400378 50.513853 
L 226.757498 49.719504 
L 227.114618 46.7879 
L 227.471738 46.515242 
L 228.185978 43.128875 
L 228.900218 41.891141 
L 229.257338 41.787198 
L 229.614458 41.150904 
L 229.971578 40.879085 
L 230.328698 41.891141 
L 230.685818 42.131453 
L 231.042938 43.174454 
L 231.400058 44.841034 
L 232.114298 47.04144 
L 232.828538 51.424473 
L 233.542778 56.027509 
L 235.685498 74.042185 
L 236.399738 83.990461 
L 236.756858 86.820038 
L 238.899578 115.091192 
L 239.970938 129.426281 
L 241.399418 150.975215 
L 242.470778 166.953143 
L 242.827898 171.13065 
L 244.256378 192.875489 
L 244.970618 201.256564 
L 246.041978 215.829354 
L 246.399098 219.409967 
L 246.756218 224.326431 
L 247.113338 227.334728 
L 247.470458 231.396904 
L 247.827578 234.176346 
L 248.898938 245.449247 
L 249.970298 252.385936 
L 250.327418 253.652521 
L 250.684538 257.203022 
L 251.398778 259.550618 
L 251.755898 261.913388 
L 252.113018 263.376087 
L 252.470138 263.974584 
L 252.827258 264.24474 
L 253.184378 264.67414 
L 254.255738 264.778244 
L 254.612858 264.046398 
L 255.684218 260.660408 
L 256.398458 257.786628 
L 256.755578 254.375495 
L 257.469818 251.07838 
L 257.826938 247.077436 
L 258.184057 245.457986 
L 260.326778 225.050496 
L 261.041018 215.73275 
L 262.112378 202.749937 
L 263.540858 183.181742 
L 264.255098 173.805874 
L 265.326458 157.885136 
L 266.040698 147.751026 
L 267.112058 132.309758 
L 268.897658 108.427022 
L 269.254778 104.404079 
L 269.969018 94.534147 
L 272.468858 67.155813 
L 273.183098 62.842861 
L 274.611578 52.689368 
L 274.968698 51.379587 
L 275.682938 47.832693 
L 276.040058 47.066453 
L 276.397178 46.841277 
L 276.754298 45.445764 
L 277.111418 45.523571 
L 277.468538 45.316964 
L 277.825658 44.752604 
L 278.897018 47.263948 
L 279.611258 49.874169 
L 279.968378 50.097895 
L 280.325498 52.635701 
L 280.682618 54.256135 
L 281.039738 57.436084 
L 281.396858 59.045151 
L 281.753978 61.816398 
L 282.111098 65.70806 
L 282.825338 70.134066 
L 283.182458 74.653628 
L 283.539578 77.601047 
L 286.396538 111.704982 
L 288.539258 139.933235 
L 288.896378 144.359498 
L 289.967738 161.856891 
L 290.324858 165.628874 
L 291.039098 176.111171 
L 292.467578 194.513271 
L 293.181818 205.385419 
L 293.896058 212.466005 
L 295.681658 232.994071 
L 296.395898 238.489837 
L 297.110138 245.974386 
L 297.467258 247.946859 
L 297.824378 249.110297 
L 298.895738 256.465499 
L 299.609978 259.310093 
L 299.967098 259.635258 
L 301.038458 261.808582 
L 301.395578 262.134945 
L 301.752698 263.23703 
L 302.109818 262.232072 
L 302.824058 261.19789 
L 303.538298 257.859144 
L 303.895418 257.215846 
L 304.252538 254.037654 
L 304.609658 253.408424 
L 305.323898 249.119978 
L 305.681018 245.819683 
L 306.395258 241.055503 
L 307.109498 233.836214 
L 307.823738 227.471363 
L 308.537978 218.312467 
L 308.895098 215.290121 
L 311.037818 188.40808 
L 312.109178 173.581817 
L 312.466298 169.407624 
L 312.823418 163.701866 
L 313.180538 160.090843 
L 313.537658 152.93008 
L 314.251898 144.258319 
L 315.323258 128.597778 
L 318.537338 89.024247 
L 318.894458 85.859106 
L 319.251578 80.490085 
L 319.608698 78.168577 
L 320.322938 71.433904 
L 321.037178 65.268336 
L 321.394297 62.065346 
L 321.751418 60.582011 
L 322.465658 55.872609 
L 323.179898 52.39442 
L 323.537018 50.537088 
L 323.894138 50.793832 
L 324.251258 49.82658 
L 324.608378 47.832693 
L 324.965498 48.163099 
L 325.322618 49.10537 
L 325.679738 48.823818 
L 326.393978 48.885535 
L 326.751098 49.850375 
L 327.108218 51.345923 
L 327.822458 53.031064 
L 329.250938 61.184434 
L 329.965178 66.205536 
L 330.679417 72.973846 
L 331.036538 77.338833 
L 331.393658 78.495982 
L 331.750778 83.75803 
L 332.465018 90.36284 
L 334.250618 110.760874 
L 334.964858 121.024616 
L 335.321978 124.855674 
L 335.679098 130.974104 
L 336.036218 135.149293 
L 336.393338 140.928199 
L 336.750458 144.529479 
L 337.107578 151.430678 
L 337.464698 154.812394 
L 338.178938 165.653357 
L 338.536058 169.909607 
L 339.250298 180.53335 
L 340.321658 194.078405 
L 340.678778 197.68686 
L 341.393018 207.673529 
L 342.464378 220.305188 
L 342.821498 223.519679 
L 343.178618 228.280352 
L 343.892858 233.98299 
L 344.249978 238.148541 
L 345.321338 245.899035 
L 346.035578 251.170957 
L 346.749818 254.034378 
L 347.106938 256.292753 
L 347.821178 258.645906 
L 348.178298 258.829381 
L 348.535418 259.240553 
L 349.249658 261.182461 
L 349.606778 260.615523 
L 349.963898 261.016165 
L 350.321018 260.645446 
L 350.678138 259.11538 
L 351.035258 258.767649 
L 351.749498 255.281941 
L 352.106618 254.284085 
L 352.820858 250.731456 
L 354.606458 237.290933 
L 357.106298 211.697641 
L 358.534778 193.708678 
L 364.248698 115.77447 
L 367.819898 76.253601 
L 369.248378 65.283766 
L 370.319738 57.485679 
L 370.676858 56.716855 
L 371.033978 54.685328 
L 372.105338 51.413251 
L 372.462458 50.633079 
L 372.819578 50.409296 
L 373.176698 49.129752 
L 373.533818 50.351209 
L 373.890938 50.062628 
L 374.248058 50.58715 
L 374.605178 51.345923 
L 376.033658 55.521054 
L 376.390778 58.334079 
L 377.105018 61.932574 
L 378.176378 70.386193 
L 378.890618 76.658152 
L 379.247738 80.573873 
L 379.604858 82.802833 
L 381.747578 107.588385 
L 382.818938 121.415249 
L 383.890298 135.054657 
L 384.604538 145.233687 
L 385.675898 160.673636 
L 386.747258 173.801724 
L 387.461498 183.791421 
L 387.818618 187.550553 
L 388.175738 194.22336 
L 391.389818 229.987595 
L 392.818298 242.575596 
L 393.175418 244.248565 
L 393.532537 248.093041 
L 394.246778 251.181243 
L 394.961018 255.070338 
L 395.318138 255.714778 
L 395.675258 257.128117 
L 396.032378 259.74087 
L 396.389498 259.719898 
L 396.746618 260.009325 
L 397.103738 261.19789 
L 397.460858 260.403699 
L 397.817978 260.477391 
L 398.175098 258.829381 
L 398.532218 258.456527 
L 398.889338 257.578739 
L 399.246458 257.938142 
L 400.674938 249.49866 
L 401.032058 248.040018 
L 401.389178 244.762048 
L 402.460538 237.834447 
L 402.817657 233.561909 
L 403.174778 231.107238 
L 406.031738 199.918601 
L 406.745978 189.731749 
L 407.103098 186.135048 
L 407.817338 175.713657 
L 408.888698 161.893465 
L 409.960058 146.609724 
L 410.317178 142.378984 
L 410.674298 136.64768 
L 411.031418 133.324348 
L 411.745658 122.828482 
L 413.531258 100.884576 
L 415.673978 77.824632 
L 416.388218 72.907123 
L 417.102458 65.973903 
L 417.459578 64.461998 
L 418.530938 57.112811 
L 418.530938 57.112811 
" style="fill:none;stroke:#1f77b4;stroke-linecap:square;stroke-width:1.5;"/>
   </g>
   <g id="line2d_26">
    <path clip-path="url(#p304c686b55)" d="M 61.410938 278.515607 
L 62.006138 278.515607 
L 62.601338 277.719233 
L 62.898938 277.91794 
L 63.196538 278.515607 
L 64.089338 274.829834 
L 64.386938 274.344104 
L 65.279738 270.048438 
L 65.577338 269.303541 
L 66.172538 267.392321 
L 66.767738 262.808004 
L 67.065338 261.795901 
L 67.660538 257.575373 
L 68.255738 254.698121 
L 68.553338 251.09358 
L 69.446138 245.253822 
L 70.041338 240.529824 
L 70.636538 235.957666 
L 71.231738 230.498274 
L 71.826938 225.850237 
L 72.422138 218.401091 
L 72.719738 217.135654 
L 73.314938 211.245504 
L 73.612538 206.779809 
L 73.910138 204.761362 
L 75.993338 183.899453 
L 76.588538 177.472222 
L 77.778938 164.500525 
L 79.564538 147.293236 
L 80.159738 140.687226 
L 80.457338 138.324276 
L 80.754938 134.691028 
L 81.052538 132.518783 
L 81.350138 129.205893 
L 81.647738 128.162465 
L 81.945338 124.406617 
L 82.540538 119.635069 
L 82.838138 116.674788 
L 83.135738 115.145486 
L 83.433338 111.438527 
L 83.730938 109.937682 
L 84.028538 107.763549 
L 84.326138 106.489428 
L 84.623738 104.276889 
L 84.921338 100.972227 
L 85.218938 99.806787 
L 85.814138 95.609537 
L 86.111738 94.765147 
L 86.409338 92.438924 
L 86.706938 91.050504 
L 87.302138 87.465323 
L 87.599738 87.361524 
L 87.897338 85.721571 
L 88.194938 84.99248 
L 88.492538 82.926235 
L 88.790138 82.029025 
L 89.087738 80.493587 
L 89.385338 79.731064 
L 89.682938 80.239097 
L 90.278138 77.891756 
L 90.575738 77.719904 
L 90.873338 76.078887 
L 91.170938 76.81333 
L 91.766138 75.789412 
L 92.063738 75.527324 
L 92.361338 75.795705 
L 92.658938 75.463994 
L 92.956538 76.962473 
L 93.254138 76.19203 
L 93.551738 76.235804 
L 93.849338 76.962473 
L 94.146938 78.0215 
L 94.444538 77.873343 
L 95.039738 79.739518 
L 95.337338 80.150331 
L 95.634938 79.659187 
L 95.932538 80.33971 
L 96.230138 82.989455 
L 96.527738 83.395988 
L 96.825338 85.593813 
L 97.122938 86.126994 
L 97.420538 87.38884 
L 97.718138 87.566608 
L 98.313338 91.213589 
L 98.610938 92.076402 
L 98.908538 92.32107 
L 100.396538 102.837937 
L 100.694138 103.459042 
L 100.991738 105.56745 
L 101.289338 106.61023 
L 102.479738 114.967934 
L 103.670138 122.583078 
L 103.967738 125.704676 
L 104.562938 128.381546 
L 106.646138 143.299757 
L 106.943738 144.57115 
L 107.538938 149.628698 
L 107.836538 150.241509 
L 109.026938 157.933007 
L 109.324538 160.884096 
L 109.622138 161.399657 
L 109.919738 163.847248 
L 110.217338 165.227757 
L 110.514938 167.453846 
L 111.110138 170.360221 
L 111.407738 173.275124 
L 111.705338 174.318333 
L 112.002938 174.867922 
L 112.598138 177.243746 
L 112.895738 178.89092 
L 113.193338 181.443035 
L 113.490938 181.468861 
L 114.086138 185.562547 
L 114.383738 185.610728 
L 114.978938 187.918068 
L 115.276538 188.563409 
L 115.871738 190.952886 
L 116.169338 190.62845 
L 116.466938 191.831652 
L 116.764538 192.179655 
L 117.062138 192.741144 
L 117.359738 192.695743 
L 117.657338 195.737651 
L 117.954938 193.713712 
L 118.550138 195.959632 
L 118.847738 196.116869 
L 119.145338 195.06443 
L 119.442938 196.835324 
L 120.038138 196.863201 
L 120.335738 195.584592 
L 120.633338 195.372845 
L 120.930938 196.375848 
L 121.526138 195.17951 
L 121.823738 193.700029 
L 122.121338 194.264536 
L 122.418938 194.489054 
L 122.716538 193.013553 
L 123.014138 192.536696 
L 123.311738 191.809055 
L 123.609338 191.976277 
L 123.906938 191.038368 
L 124.204538 190.731462 
L 124.502138 189.976978 
L 124.799738 188.780911 
L 125.097338 188.7454 
L 125.692538 185.720232 
L 125.990138 185.374952 
L 126.585338 183.75617 
L 126.882938 181.447339 
L 127.180538 181.421514 
L 127.775738 179.114134 
L 128.073338 176.562548 
L 128.966138 174.393849 
L 129.561338 171.699815 
L 130.156538 168.105708 
L 130.454138 166.777231 
L 130.751738 166.410043 
L 131.049338 164.734718 
L 131.346938 161.559235 
L 131.644538 162.700833 
L 131.942138 160.096821 
L 132.239738 159.721923 
L 132.537338 157.28916 
L 132.834938 157.468459 
L 133.132538 154.450014 
L 134.025338 152.10429 
L 134.322938 149.750449 
L 135.215738 146.869438 
L 135.810938 143.446456 
L 136.108538 142.810843 
L 136.406138 141.472842 
L 136.703738 140.691318 
L 137.001338 138.714598 
L 137.298938 137.588827 
L 137.596538 137.346416 
L 137.894138 136.321282 
L 138.191738 135.896334 
L 138.489338 133.883163 
L 138.786938 133.18442 
L 139.084538 131.155471 
L 139.382138 131.030139 
L 139.679738 130.599835 
L 139.977338 129.650598 
L 140.274938 128.095055 
L 140.572538 127.661104 
L 140.870138 126.71667 
L 141.167738 127.050922 
L 141.465338 126.06509 
L 142.060538 125.29676 
L 142.358138 123.873197 
L 142.655738 124.129239 
L 142.953338 123.621423 
L 143.250938 121.849957 
L 143.846138 122.295933 
L 144.143738 121.52283 
L 144.441338 122.082389 
L 144.738938 121.746654 
L 145.036538 120.583053 
L 145.334138 121.86287 
L 145.631738 121.837044 
L 145.929338 122.415934 
L 146.226938 121.755262 
L 146.524538 121.544352 
L 146.822138 121.501308 
L 147.119738 121.974782 
L 147.714938 121.458265 
L 148.012538 122.904509 
L 148.310138 122.728793 
L 148.905338 123.64276 
L 149.202938 123.604354 
L 149.500538 124.884595 
L 149.798138 125.292511 
L 150.393338 126.712439 
L 150.690938 127.989727 
L 150.988538 127.172383 
L 151.286138 127.892825 
L 151.583738 129.331753 
L 151.881338 130.060911 
L 152.178938 130.453616 
L 152.774138 133.402588 
L 153.071738 133.063773 
L 153.369338 133.912164 
L 153.666938 133.676019 
L 153.964538 135.933465 
L 154.262138 136.354287 
L 154.857338 137.716195 
L 155.154938 139.983445 
L 155.750138 140.2044 
L 156.047738 143.173432 
L 156.345338 143.165282 
L 156.642938 144.192177 
L 156.940538 145.838469 
L 157.238138 145.53692 
L 157.833338 149.076763 
L 158.428538 150.497184 
L 158.726138 152.518241 
L 159.023738 152.6197 
L 159.321338 154.11723 
L 159.618938 154.299855 
L 159.916538 155.769193 
L 160.511738 156.779788 
L 161.404538 160.21092 
L 161.702138 160.978207 
L 161.999738 162.091162 
L 162.297338 162.082979 
L 162.594938 164.254005 
L 163.190138 165.761882 
L 163.487738 166.377037 
L 163.785338 166.488431 
L 164.082938 168.43076 
L 164.380538 168.729049 
L 164.678138 170.00506 
L 165.273338 171.079941 
L 165.570938 172.084477 
L 165.868538 171.733097 
L 166.166138 171.624931 
L 166.463738 173.412988 
L 166.761338 173.517024 
L 167.058938 173.346145 
L 167.356538 175.151301 
L 167.654138 175.002173 
L 167.951738 175.185006 
L 168.249338 176.520238 
L 168.546938 176.103464 
L 168.844538 177.036425 
L 169.439738 176.318333 
L 169.737338 176.642938 
L 170.034938 176.111891 
L 170.332538 177.527226 
L 170.630138 176.998346 
L 170.927738 177.222591 
L 171.225338 176.850259 
L 171.522938 176.710635 
L 171.820538 175.113383 
L 172.118138 176.917956 
L 172.415738 176.693711 
L 172.713338 177.184511 
L 173.010938 175.947579 
L 173.606138 176.558317 
L 174.201338 175.126022 
L 174.498938 175.770629 
L 174.796538 173.852651 
L 175.094138 173.642884 
L 175.391738 173.785526 
L 175.689338 173.195748 
L 175.986938 172.201453 
L 176.284538 173.053705 
L 178.367738 168.229479 
L 178.962938 166.3069 
L 179.260538 166.257392 
L 179.855738 163.937639 
L 180.153338 164.496416 
L 181.046138 160.524022 
L 181.343738 160.699968 
L 181.641338 160.011246 
L 181.938938 158.42608 
L 182.236538 157.900407 
L 182.534138 156.27449 
L 182.831738 156.103341 
L 183.129338 154.823798 
L 183.426938 154.954197 
L 184.022138 152.915959 
L 184.914938 150.391667 
L 185.510138 148.051182 
L 185.807738 148.185657 
L 186.402938 147.158762 
L 186.998138 144.770824 
L 187.295738 143.845804 
L 187.593338 143.788754 
L 187.890938 142.160255 
L 188.188538 143.136757 
L 188.486138 141.419649 
L 188.783738 140.593116 
L 189.081338 140.683134 
L 189.378938 138.488622 
L 189.676538 138.846075 
L 189.974138 138.414666 
L 190.569338 137.200057 
L 191.164538 136.762732 
L 191.462138 135.541523 
L 191.759738 134.98103 
L 192.057338 134.7366 
L 192.354938 134.338882 
L 192.652538 134.239452 
L 192.950138 133.688447 
L 193.247738 133.456445 
L 193.545338 133.589018 
L 193.842938 133.974307 
L 194.140538 132.859922 
L 194.438138 133.138657 
L 194.735738 132.319092 
L 195.033338 133.00553 
L 195.330938 131.990434 
L 195.628538 132.976408 
L 195.926138 131.720019 
L 196.223738 132.360694 
L 196.521338 132.402297 
L 196.818938 131.749141 
L 197.116538 131.91139 
L 197.414138 131.695058 
L 197.711738 132.568706 
L 198.306938 132.880723 
L 198.604538 133.255143 
L 198.902138 133.315587 
L 199.199738 133.01385 
L 199.497338 134.931316 
L 200.092538 134.434168 
L 200.390138 134.575027 
L 200.687738 135.426004 
L 200.985338 135.492015 
L 201.282938 136.39967 
L 201.580538 136.263522 
L 201.878138 137.518979 
L 202.175738 137.313547 
L 202.473338 138.131169 
L 202.770938 139.35144 
L 203.068538 139.544547 
L 203.366138 140.499006 
L 203.663738 139.671915 
L 204.258938 142.332109 
L 204.556538 142.712641 
L 205.151738 144.599675 
L 205.449338 144.823799 
L 205.746938 145.394296 
L 206.044538 147.537735 
L 206.342138 146.47824 
L 206.639738 147.093562 
L 206.937338 148.316056 
L 207.830138 150.172517 
L 208.127738 150.217158 
L 209.020538 153.260919 
L 209.318138 153.455719 
L 209.615738 154.620465 
L 209.913338 154.950122 
L 210.210938 155.007172 
L 210.210938 155.007172 
" style="fill:none;stroke:#d62728;stroke-linecap:square;stroke-width:1.5;"/>
   </g>
   <g id="line2d_27">
    <path clip-path="url(#p304c686b55)" d="M 61.410938 23.543308 
L 418.530938 23.543308 
" style="fill:none;stroke:#99aaaa;stroke-dasharray:9.6,2.4,1.5,2.4;stroke-dashoffset:0;stroke-width:1.5;"/>
   </g>
   <g id="line2d_28">
    <defs>
     <path d="M -3 3 
L 3 3 
L 3 -3 
L -3 -3 
z
" id="m9e0ac68bfd" style="stroke:#1f77b4;stroke-linejoin:miter;"/>
    </defs>
    <g clip-path="url(#p304c686b55)">
     <use style="fill:#1f77b4;stroke:#1f77b4;stroke-linejoin:miter;" x="61.410938" xlink:href="#m9e0ac68bfd" y="278.419468"/>
     <use style="fill:#1f77b4;stroke:#1f77b4;stroke-linejoin:miter;" x="70.090938" xlink:href="#m9e0ac68bfd" y="198.820828"/>
     <use style="fill:#1f77b4;stroke:#1f77b4;stroke-linejoin:miter;" x="78.770938" xlink:href="#m9e0ac68bfd" y="67.750485"/>
     <use style="fill:#1f77b4;stroke:#1f77b4;stroke-linejoin:miter;" x="87.450938" xlink:href="#m9e0ac68bfd" y="35.175172"/>
     <use style="fill:#1f77b4;stroke:#1f77b4;stroke-linejoin:miter;" x="96.130938" xlink:href="#m9e0ac68bfd" y="138.528447"/>
     <use style="fill:#1f77b4;stroke:#1f77b4;stroke-linejoin:miter;" x="104.810938" xlink:href="#m9e0ac68bfd" y="254.87235"/>
     <use style="fill:#1f77b4;stroke:#1f77b4;stroke-linejoin:miter;" x="113.490938" xlink:href="#m9e0ac68bfd" y="262.065017"/>
     <use style="fill:#1f77b4;stroke:#1f77b4;stroke-linejoin:miter;" x="122.170938" xlink:href="#m9e0ac68bfd" y="132.763932"/>
     <use style="fill:#1f77b4;stroke:#1f77b4;stroke-linejoin:miter;" x="130.850938" xlink:href="#m9e0ac68bfd" y="43.390828"/>
     <use style="fill:#1f77b4;stroke:#1f77b4;stroke-linejoin:miter;" x="139.530938" xlink:href="#m9e0ac68bfd" y="82.564941"/>
     <use style="fill:#1f77b4;stroke:#1f77b4;stroke-linejoin:miter;" x="148.210938" xlink:href="#m9e0ac68bfd" y="196.153228"/>
     <use style="fill:#1f77b4;stroke:#1f77b4;stroke-linejoin:miter;" x="156.890938" xlink:href="#m9e0ac68bfd" y="271.15319"/>
     <use style="fill:#1f77b4;stroke:#1f77b4;stroke-linejoin:miter;" x="165.570938" xlink:href="#m9e0ac68bfd" y="196.153228"/>
     <use style="fill:#1f77b4;stroke:#1f77b4;stroke-linejoin:miter;" x="174.250938" xlink:href="#m9e0ac68bfd" y="86.330677"/>
     <use style="fill:#1f77b4;stroke:#1f77b4;stroke-linejoin:miter;" x="182.930938" xlink:href="#m9e0ac68bfd" y="45.745288"/>
     <use style="fill:#1f77b4;stroke:#1f77b4;stroke-linejoin:miter;" x="191.610938" xlink:href="#m9e0ac68bfd" y="127.703784"/>
     <use style="fill:#1f77b4;stroke:#1f77b4;stroke-linejoin:miter;" x="200.290938" xlink:href="#m9e0ac68bfd" y="246.340828"/>
     <use style="fill:#1f77b4;stroke:#1f77b4;stroke-linejoin:miter;" x="208.970938" xlink:href="#m9e0ac68bfd" y="252.023055"/>
     <use style="fill:#1f77b4;stroke:#1f77b4;stroke-linejoin:miter;" x="217.650938" xlink:href="#m9e0ac68bfd" y="146.548828"/>
     <use style="fill:#1f77b4;stroke:#1f77b4;stroke-linejoin:miter;" x="226.330938" xlink:href="#m9e0ac68bfd" y="50.177449"/>
     <use style="fill:#1f77b4;stroke:#1f77b4;stroke-linejoin:miter;" x="235.010938" xlink:href="#m9e0ac68bfd" y="62.870086"/>
     <use style="fill:#1f77b4;stroke:#1f77b4;stroke-linejoin:miter;" x="243.690938" xlink:href="#m9e0ac68bfd" y="208.638988"/>
     <use style="fill:#1f77b4;stroke:#1f77b4;stroke-linejoin:miter;" x="252.370938" xlink:href="#m9e0ac68bfd" y="260.678668"/>
     <use style="fill:#1f77b4;stroke:#1f77b4;stroke-linejoin:miter;" x="261.050938" xlink:href="#m9e0ac68bfd" y="207.772881"/>
     <use style="fill:#1f77b4;stroke:#1f77b4;stroke-linejoin:miter;" x="269.730938" xlink:href="#m9e0ac68bfd" y="105.433228"/>
     <use style="fill:#1f77b4;stroke:#1f77b4;stroke-linejoin:miter;" x="278.410938" xlink:href="#m9e0ac68bfd" y="44.172674"/>
     <use style="fill:#1f77b4;stroke:#1f77b4;stroke-linejoin:miter;" x="287.090938" xlink:href="#m9e0ac68bfd" y="116.6282"/>
     <use style="fill:#1f77b4;stroke:#1f77b4;stroke-linejoin:miter;" x="295.770938" xlink:href="#m9e0ac68bfd" y="240.725847"/>
     <use style="fill:#1f77b4;stroke:#1f77b4;stroke-linejoin:miter;" x="304.450938" xlink:href="#m9e0ac68bfd" y="255.636125"/>
     <use style="fill:#1f77b4;stroke:#1f77b4;stroke-linejoin:miter;" x="313.130938" xlink:href="#m9e0ac68bfd" y="154.785979"/>
     <use style="fill:#1f77b4;stroke:#1f77b4;stroke-linejoin:miter;" x="321.810938" xlink:href="#m9e0ac68bfd" y="62.564893"/>
     <use style="fill:#1f77b4;stroke:#1f77b4;stroke-linejoin:miter;" x="330.490938" xlink:href="#m9e0ac68bfd" y="64.673757"/>
     <use style="fill:#1f77b4;stroke:#1f77b4;stroke-linejoin:miter;" x="339.170938" xlink:href="#m9e0ac68bfd" y="185.054618"/>
     <use style="fill:#1f77b4;stroke:#1f77b4;stroke-linejoin:miter;" x="347.850938" xlink:href="#m9e0ac68bfd" y="249.507106"/>
     <use style="fill:#1f77b4;stroke:#1f77b4;stroke-linejoin:miter;" x="356.530938" xlink:href="#m9e0ac68bfd" y="222.743365"/>
     <use style="fill:#1f77b4;stroke:#1f77b4;stroke-linejoin:miter;" x="365.210938" xlink:href="#m9e0ac68bfd" y="109.720828"/>
     <use style="fill:#1f77b4;stroke:#1f77b4;stroke-linejoin:miter;" x="373.890938" xlink:href="#m9e0ac68bfd" y="54.885388"/>
     <use style="fill:#1f77b4;stroke:#1f77b4;stroke-linejoin:miter;" x="382.570938" xlink:href="#m9e0ac68bfd" y="118.006993"/>
     <use style="fill:#1f77b4;stroke:#1f77b4;stroke-linejoin:miter;" x="391.250938" xlink:href="#m9e0ac68bfd" y="218.427883"/>
     <use style="fill:#1f77b4;stroke:#1f77b4;stroke-linejoin:miter;" x="399.930938" xlink:href="#m9e0ac68bfd" y="238.854288"/>
     <use style="fill:#1f77b4;stroke:#1f77b4;stroke-linejoin:miter;" x="408.610938" xlink:href="#m9e0ac68bfd" y="163.123344"/>
    </g>
   </g>
   <g id="line2d_29">
    <defs>
     <path d="M 0 3 
C 0.795609 3 1.55874 2.683901 2.12132 2.12132 
C 2.683901 1.55874 3 0.795609 3 0 
C 3 -0.795609 2.683901 -1.55874 2.12132 -2.12132 
C 1.55874 -2.683901 0.795609 -3 0 -3 
C -0.795609 -3 -1.55874 -2.683901 -2.12132 -2.12132 
C -2.683901 -1.55874 -3 -0.795609 -3 0 
C -3 0.795609 -2.683901 1.55874 -2.12132 2.12132 
C -1.55874 2.683901 -0.795609 3 0 3 
z
" id="m4d17eb6f4c" style="stroke:#d62728;"/>
    </defs>
    <g clip-path="url(#p304c686b55)">
     <use style="fill:#d62728;stroke:#d62728;" x="61.410938" xlink:href="#m4d17eb6f4c" y="271.284996"/>
     <use style="fill:#d62728;stroke:#d62728;" x="70.090938" xlink:href="#m4d17eb6f4c" y="229.008892"/>
     <use style="fill:#d62728;stroke:#d62728;" x="78.770938" xlink:href="#m4d17eb6f4c" y="152.566306"/>
     <use style="fill:#d62728;stroke:#d62728;" x="87.450938" xlink:href="#m4d17eb6f4c" y="91.410132"/>
     <use style="fill:#d62728;stroke:#d62728;" x="96.130938" xlink:href="#m4d17eb6f4c" y="110.196028"/>
     <use style="fill:#d62728;stroke:#d62728;" x="104.810938" xlink:href="#m4d17eb6f4c" y="134.384741"/>
     <use style="fill:#d62728;stroke:#d62728;" x="113.490938" xlink:href="#m4d17eb6f4c" y="174.466828"/>
     <use style="fill:#d62728;stroke:#d62728;" x="122.170938" xlink:href="#m4d17eb6f4c" y="195.850828"/>
     <use style="fill:#d62728;stroke:#d62728;" x="130.850938" xlink:href="#m4d17eb6f4c" y="149.031267"/>
     <use style="fill:#d62728;stroke:#d62728;" x="139.530938" xlink:href="#m4d17eb6f4c" y="136.197388"/>
     <use style="fill:#d62728;stroke:#d62728;" x="148.210938" xlink:href="#m4d17eb6f4c" y="104.944417"/>
     <use style="fill:#d62728;stroke:#d62728;" x="156.890938" xlink:href="#m4d17eb6f4c" y="145.954828"/>
     <use style="fill:#d62728;stroke:#d62728;" x="165.570938" xlink:href="#m4d17eb6f4c" y="172.40572"/>
     <use style="fill:#d62728;stroke:#d62728;" x="174.250938" xlink:href="#m4d17eb6f4c" y="173.915872"/>
     <use style="fill:#d62728;stroke:#d62728;" x="182.930938" xlink:href="#m4d17eb6f4c" y="174.769503"/>
     <use style="fill:#d62728;stroke:#d62728;" x="191.610938" xlink:href="#m4d17eb6f4c" y="124.167881"/>
    </g>
   </g>
   <g id="patch_3">
    <path d="M 61.410938 279.010828 
L 61.410938 12.898828 
" style="fill:none;stroke:#000000;stroke-linecap:square;stroke-linejoin:miter;stroke-width:0.8;"/>
   </g>
   <g id="patch_4">
    <path d="M 418.530938 279.010828 
L 418.530938 12.898828 
" style="fill:none;stroke:#000000;stroke-linecap:square;stroke-linejoin:miter;stroke-width:0.8;"/>
   </g>
   <g id="patch_5">
    <path d="M 61.410938 279.010828 
L 418.530938 279.010828 
" style="fill:none;stroke:#000000;stroke-linecap:square;stroke-linejoin:miter;stroke-width:0.8;"/>
   </g>
   <g id="patch_6">
    <path d="M 61.410938 12.898828 
L 418.530938 12.898828 
" style="fill:none;stroke:#000000;stroke-linecap:square;stroke-linejoin:miter;stroke-width:0.8;"/>
   </g>
  </g>
 </g>
 <defs>
  <clipPath id="p304c686b55">
   <rect height="266.112" width="357.12" x="61.410938" y="12.898828"/>
  </clipPath>
 </defs>
</svg>
