<?xml version="1.0" encoding="utf-8" standalone="no"?>
<!DOCTYPE svg PUBLIC "-//W3C//DTD SVG 1.1//EN"
  "http://www.w3.org/Graphics/SVG/1.1/DTD/svg11.dtd">
<!-- Created with matplotlib (https://matplotlib.org/) -->
<svg height="325.385437pt" version="1.1" viewBox="0 0 439.118437 325.385437" width="439.118437pt" xmlns="http://www.w3.org/2000/svg" xmlns:xlink="http://www.w3.org/1999/xlink">
 <defs>
  <style type="text/css">*{stroke-linecap:butt;stroke-linejoin:round;}</style>
 </defs>
 <g id="figure_1">
  <g id="patch_1">
   <path d="M 0 325.385437 
L 439.118437 325.385437 
L 439.118437 0 
L 0 0 
z
" style="fill:none;"/>
  </g>
  <g id="axes_1">
   <g id="patch_2">
    <path d="M 65.254688 273.312 
L 422.374688 273.312 
L 422.374688 7.2 
L 65.254688 7.2 
z
" style="fill:none;"/>
   </g>
   <g id="matplotlib.axis_1">
    <g id="xtick_1">
     <g id="line2d_1">
      <path clip-path="url(#pf39720cbdc)" d="M 65.254688 273.312 
L 65.254688 7.2 
" style="fill:none;stroke:#b0b0b0;stroke-linecap:square;stroke-width:0.8;"/>
     </g>
     <g id="line2d_2">
      <defs>
       <path d="M 0 0 
L 0 3.5 
" id="m005f0a59be" style="stroke:#000000;stroke-width:0.8;"/>
      </defs>
      <g>
       <use style="stroke:#000000;stroke-width:0.8;" x="65.254688" xlink:href="#m005f0a59be" y="273.312"/>
      </g>
     </g>
     <g id="text_1">
      <!-- 0 -->
      <g transform="translate(60.482813 291.709656)scale(0.15 -0.15)">
       <defs>
        <path d="M 31.78125 66.40625 
Q 24.171875 66.40625 20.328125 58.90625 
Q 16.5 51.421875 16.5 36.375 
Q 16.5 21.390625 20.328125 13.890625 
Q 24.171875 6.390625 31.78125 6.390625 
Q 39.453125 6.390625 43.28125 13.890625 
Q 47.125 21.390625 47.125 36.375 
Q 47.125 51.421875 43.28125 58.90625 
Q 39.453125 66.40625 31.78125 66.40625 
z
M 31.78125 74.21875 
Q 44.046875 74.21875 50.515625 64.515625 
Q 56.984375 54.828125 56.984375 36.375 
Q 56.984375 17.96875 50.515625 8.265625 
Q 44.046875 -1.421875 31.78125 -1.421875 
Q 19.53125 -1.421875 13.0625 8.265625 
Q 6.59375 17.96875 6.59375 36.375 
Q 6.59375 54.828125 13.0625 64.515625 
Q 19.53125 74.21875 31.78125 74.21875 
z
" id="DejaVuSans-48"/>
       </defs>
       <use xlink:href="#DejaVuSans-48"/>
      </g>
     </g>
    </g>
    <g id="xtick_2">
     <g id="line2d_3">
      <path clip-path="url(#pf39720cbdc)" d="M 116.27183 273.312 
L 116.27183 7.2 
" style="fill:none;stroke:#b0b0b0;stroke-linecap:square;stroke-width:0.8;"/>
     </g>
     <g id="line2d_4">
      <g>
       <use style="stroke:#000000;stroke-width:0.8;" x="116.27183" xlink:href="#m005f0a59be" y="273.312"/>
      </g>
     </g>
     <g id="text_2">
      <!-- 10 -->
      <g transform="translate(106.72808 291.709656)scale(0.15 -0.15)">
       <defs>
        <path d="M 12.40625 8.296875 
L 28.515625 8.296875 
L 28.515625 63.921875 
L 10.984375 60.40625 
L 10.984375 69.390625 
L 28.421875 72.90625 
L 38.28125 72.90625 
L 38.28125 8.296875 
L 54.390625 8.296875 
L 54.390625 0 
L 12.40625 0 
z
" id="DejaVuSans-49"/>
       </defs>
       <use xlink:href="#DejaVuSans-49"/>
       <use x="63.623047" xlink:href="#DejaVuSans-48"/>
      </g>
     </g>
    </g>
    <g id="xtick_3">
     <g id="line2d_5">
      <path clip-path="url(#pf39720cbdc)" d="M 167.288973 273.312 
L 167.288973 7.2 
" style="fill:none;stroke:#b0b0b0;stroke-linecap:square;stroke-width:0.8;"/>
     </g>
     <g id="line2d_6">
      <g>
       <use style="stroke:#000000;stroke-width:0.8;" x="167.288973" xlink:href="#m005f0a59be" y="273.312"/>
      </g>
     </g>
     <g id="text_3">
      <!-- 20 -->
      <g transform="translate(157.745223 291.709656)scale(0.15 -0.15)">
       <defs>
        <path d="M 19.1875 8.296875 
L 53.609375 8.296875 
L 53.609375 0 
L 7.328125 0 
L 7.328125 8.296875 
Q 12.9375 14.109375 22.625 23.890625 
Q 32.328125 33.6875 34.8125 36.53125 
Q 39.546875 41.84375 41.421875 45.53125 
Q 43.3125 49.21875 43.3125 52.78125 
Q 43.3125 58.59375 39.234375 62.25 
Q 35.15625 65.921875 28.609375 65.921875 
Q 23.96875 65.921875 18.8125 64.3125 
Q 13.671875 62.703125 7.8125 59.421875 
L 7.8125 69.390625 
Q 13.765625 71.78125 18.9375 73 
Q 24.125 74.21875 28.421875 74.21875 
Q 39.75 74.21875 46.484375 68.546875 
Q 53.21875 62.890625 53.21875 53.421875 
Q 53.21875 48.921875 51.53125 44.890625 
Q 49.859375 40.875 45.40625 35.40625 
Q 44.1875 33.984375 37.640625 27.21875 
Q 31.109375 20.453125 19.1875 8.296875 
z
" id="DejaVuSans-50"/>
       </defs>
       <use xlink:href="#DejaVuSans-50"/>
       <use x="63.623047" xlink:href="#DejaVuSans-48"/>
      </g>
     </g>
    </g>
    <g id="xtick_4">
     <g id="line2d_7">
      <path clip-path="url(#pf39720cbdc)" d="M 218.306116 273.312 
L 218.306116 7.2 
" style="fill:none;stroke:#b0b0b0;stroke-linecap:square;stroke-width:0.8;"/>
     </g>
     <g id="line2d_8">
      <g>
       <use style="stroke:#000000;stroke-width:0.8;" x="218.306116" xlink:href="#m005f0a59be" y="273.312"/>
      </g>
     </g>
     <g id="text_4">
      <!-- 30 -->
      <g transform="translate(208.762366 291.709656)scale(0.15 -0.15)">
       <defs>
        <path d="M 40.578125 39.3125 
Q 47.65625 37.796875 51.625 33 
Q 55.609375 28.21875 55.609375 21.1875 
Q 55.609375 10.40625 48.1875 4.484375 
Q 40.765625 -1.421875 27.09375 -1.421875 
Q 22.515625 -1.421875 17.65625 -0.515625 
Q 12.796875 0.390625 7.625 2.203125 
L 7.625 11.71875 
Q 11.71875 9.328125 16.59375 8.109375 
Q 21.484375 6.890625 26.8125 6.890625 
Q 36.078125 6.890625 40.9375 10.546875 
Q 45.796875 14.203125 45.796875 21.1875 
Q 45.796875 27.640625 41.28125 31.265625 
Q 36.765625 34.90625 28.71875 34.90625 
L 20.21875 34.90625 
L 20.21875 43.015625 
L 29.109375 43.015625 
Q 36.375 43.015625 40.234375 45.921875 
Q 44.09375 48.828125 44.09375 54.296875 
Q 44.09375 59.90625 40.109375 62.90625 
Q 36.140625 65.921875 28.71875 65.921875 
Q 24.65625 65.921875 20.015625 65.03125 
Q 15.375 64.15625 9.8125 62.3125 
L 9.8125 71.09375 
Q 15.4375 72.65625 20.34375 73.4375 
Q 25.25 74.21875 29.59375 74.21875 
Q 40.828125 74.21875 47.359375 69.109375 
Q 53.90625 64.015625 53.90625 55.328125 
Q 53.90625 49.265625 50.4375 45.09375 
Q 46.96875 40.921875 40.578125 39.3125 
z
" id="DejaVuSans-51"/>
       </defs>
       <use xlink:href="#DejaVuSans-51"/>
       <use x="63.623047" xlink:href="#DejaVuSans-48"/>
      </g>
     </g>
    </g>
    <g id="xtick_5">
     <g id="line2d_9">
      <path clip-path="url(#pf39720cbdc)" d="M 269.323259 273.312 
L 269.323259 7.2 
" style="fill:none;stroke:#b0b0b0;stroke-linecap:square;stroke-width:0.8;"/>
     </g>
     <g id="line2d_10">
      <g>
       <use style="stroke:#000000;stroke-width:0.8;" x="269.323259" xlink:href="#m005f0a59be" y="273.312"/>
      </g>
     </g>
     <g id="text_5">
      <!-- 40 -->
      <g transform="translate(259.779509 291.709656)scale(0.15 -0.15)">
       <defs>
        <path d="M 37.796875 64.3125 
L 12.890625 25.390625 
L 37.796875 25.390625 
z
M 35.203125 72.90625 
L 47.609375 72.90625 
L 47.609375 25.390625 
L 58.015625 25.390625 
L 58.015625 17.1875 
L 47.609375 17.1875 
L 47.609375 0 
L 37.796875 0 
L 37.796875 17.1875 
L 4.890625 17.1875 
L 4.890625 26.703125 
z
" id="DejaVuSans-52"/>
       </defs>
       <use xlink:href="#DejaVuSans-52"/>
       <use x="63.623047" xlink:href="#DejaVuSans-48"/>
      </g>
     </g>
    </g>
    <g id="xtick_6">
     <g id="line2d_11">
      <path clip-path="url(#pf39720cbdc)" d="M 320.340402 273.312 
L 320.340402 7.2 
" style="fill:none;stroke:#b0b0b0;stroke-linecap:square;stroke-width:0.8;"/>
     </g>
     <g id="line2d_12">
      <g>
       <use style="stroke:#000000;stroke-width:0.8;" x="320.340402" xlink:href="#m005f0a59be" y="273.312"/>
      </g>
     </g>
     <g id="text_6">
      <!-- 50 -->
      <g transform="translate(310.796652 291.709656)scale(0.15 -0.15)">
       <defs>
        <path d="M 10.796875 72.90625 
L 49.515625 72.90625 
L 49.515625 64.59375 
L 19.828125 64.59375 
L 19.828125 46.734375 
Q 21.96875 47.46875 24.109375 47.828125 
Q 26.265625 48.1875 28.421875 48.1875 
Q 40.625 48.1875 47.75 41.5 
Q 54.890625 34.8125 54.890625 23.390625 
Q 54.890625 11.625 47.5625 5.09375 
Q 40.234375 -1.421875 26.90625 -1.421875 
Q 22.3125 -1.421875 17.546875 -0.640625 
Q 12.796875 0.140625 7.71875 1.703125 
L 7.71875 11.625 
Q 12.109375 9.234375 16.796875 8.0625 
Q 21.484375 6.890625 26.703125 6.890625 
Q 35.15625 6.890625 40.078125 11.328125 
Q 45.015625 15.765625 45.015625 23.390625 
Q 45.015625 31 40.078125 35.4375 
Q 35.15625 39.890625 26.703125 39.890625 
Q 22.75 39.890625 18.8125 39.015625 
Q 14.890625 38.140625 10.796875 36.28125 
z
" id="DejaVuSans-53"/>
       </defs>
       <use xlink:href="#DejaVuSans-53"/>
       <use x="63.623047" xlink:href="#DejaVuSans-48"/>
      </g>
     </g>
    </g>
    <g id="xtick_7">
     <g id="line2d_13">
      <path clip-path="url(#pf39720cbdc)" d="M 371.357545 273.312 
L 371.357545 7.2 
" style="fill:none;stroke:#b0b0b0;stroke-linecap:square;stroke-width:0.8;"/>
     </g>
     <g id="line2d_14">
      <g>
       <use style="stroke:#000000;stroke-width:0.8;" x="371.357545" xlink:href="#m005f0a59be" y="273.312"/>
      </g>
     </g>
     <g id="text_7">
      <!-- 60 -->
      <g transform="translate(361.813795 291.709656)scale(0.15 -0.15)">
       <defs>
        <path d="M 33.015625 40.375 
Q 26.375 40.375 22.484375 35.828125 
Q 18.609375 31.296875 18.609375 23.390625 
Q 18.609375 15.53125 22.484375 10.953125 
Q 26.375 6.390625 33.015625 6.390625 
Q 39.65625 6.390625 43.53125 10.953125 
Q 47.40625 15.53125 47.40625 23.390625 
Q 47.40625 31.296875 43.53125 35.828125 
Q 39.65625 40.375 33.015625 40.375 
z
M 52.59375 71.296875 
L 52.59375 62.3125 
Q 48.875 64.0625 45.09375 64.984375 
Q 41.3125 65.921875 37.59375 65.921875 
Q 27.828125 65.921875 22.671875 59.328125 
Q 17.53125 52.734375 16.796875 39.40625 
Q 19.671875 43.65625 24.015625 45.921875 
Q 28.375 48.1875 33.59375 48.1875 
Q 44.578125 48.1875 50.953125 41.515625 
Q 57.328125 34.859375 57.328125 23.390625 
Q 57.328125 12.15625 50.6875 5.359375 
Q 44.046875 -1.421875 33.015625 -1.421875 
Q 20.359375 -1.421875 13.671875 8.265625 
Q 6.984375 17.96875 6.984375 36.375 
Q 6.984375 53.65625 15.1875 63.9375 
Q 23.390625 74.21875 37.203125 74.21875 
Q 40.921875 74.21875 44.703125 73.484375 
Q 48.484375 72.75 52.59375 71.296875 
z
" id="DejaVuSans-54"/>
       </defs>
       <use xlink:href="#DejaVuSans-54"/>
       <use x="63.623047" xlink:href="#DejaVuSans-48"/>
      </g>
     </g>
    </g>
    <g id="xtick_8">
     <g id="line2d_15">
      <path clip-path="url(#pf39720cbdc)" d="M 422.374688 273.312 
L 422.374688 7.2 
" style="fill:none;stroke:#b0b0b0;stroke-linecap:square;stroke-width:0.8;"/>
     </g>
     <g id="line2d_16">
      <g>
       <use style="stroke:#000000;stroke-width:0.8;" x="422.374688" xlink:href="#m005f0a59be" y="273.312"/>
      </g>
     </g>
     <g id="text_8">
      <!-- 70 -->
      <g transform="translate(412.830938 291.709656)scale(0.15 -0.15)">
       <defs>
        <path d="M 8.203125 72.90625 
L 55.078125 72.90625 
L 55.078125 68.703125 
L 28.609375 0 
L 18.3125 0 
L 43.21875 64.59375 
L 8.203125 64.59375 
z
" id="DejaVuSans-55"/>
       </defs>
       <use xlink:href="#DejaVuSans-55"/>
       <use x="63.623047" xlink:href="#DejaVuSans-48"/>
      </g>
     </g>
    </g>
    <g id="text_9">
     <!-- Motional state $n$ -->
     <g transform="translate(162.914688 314.026062)scale(0.2 -0.2)">
      <defs>
       <path d="M 9.8125 72.90625 
L 24.515625 72.90625 
L 43.109375 23.296875 
L 61.8125 72.90625 
L 76.515625 72.90625 
L 76.515625 0 
L 66.890625 0 
L 66.890625 64.015625 
L 48.09375 14.015625 
L 38.1875 14.015625 
L 19.390625 64.015625 
L 19.390625 0 
L 9.8125 0 
z
" id="DejaVuSans-77"/>
       <path d="M 30.609375 48.390625 
Q 23.390625 48.390625 19.1875 42.75 
Q 14.984375 37.109375 14.984375 27.296875 
Q 14.984375 17.484375 19.15625 11.84375 
Q 23.34375 6.203125 30.609375 6.203125 
Q 37.796875 6.203125 41.984375 11.859375 
Q 46.1875 17.53125 46.1875 27.296875 
Q 46.1875 37.015625 41.984375 42.703125 
Q 37.796875 48.390625 30.609375 48.390625 
z
M 30.609375 56 
Q 42.328125 56 49.015625 48.375 
Q 55.71875 40.765625 55.71875 27.296875 
Q 55.71875 13.875 49.015625 6.21875 
Q 42.328125 -1.421875 30.609375 -1.421875 
Q 18.84375 -1.421875 12.171875 6.21875 
Q 5.515625 13.875 5.515625 27.296875 
Q 5.515625 40.765625 12.171875 48.375 
Q 18.84375 56 30.609375 56 
z
" id="DejaVuSans-111"/>
       <path d="M 18.3125 70.21875 
L 18.3125 54.6875 
L 36.8125 54.6875 
L 36.8125 47.703125 
L 18.3125 47.703125 
L 18.3125 18.015625 
Q 18.3125 11.328125 20.140625 9.421875 
Q 21.96875 7.515625 27.59375 7.515625 
L 36.8125 7.515625 
L 36.8125 0 
L 27.59375 0 
Q 17.1875 0 13.234375 3.875 
Q 9.28125 7.765625 9.28125 18.015625 
L 9.28125 47.703125 
L 2.6875 47.703125 
L 2.6875 54.6875 
L 9.28125 54.6875 
L 9.28125 70.21875 
z
" id="DejaVuSans-116"/>
       <path d="M 9.421875 54.6875 
L 18.40625 54.6875 
L 18.40625 0 
L 9.421875 0 
z
M 9.421875 75.984375 
L 18.40625 75.984375 
L 18.40625 64.59375 
L 9.421875 64.59375 
z
" id="DejaVuSans-105"/>
       <path d="M 54.890625 33.015625 
L 54.890625 0 
L 45.90625 0 
L 45.90625 32.71875 
Q 45.90625 40.484375 42.875 44.328125 
Q 39.84375 48.1875 33.796875 48.1875 
Q 26.515625 48.1875 22.3125 43.546875 
Q 18.109375 38.921875 18.109375 30.90625 
L 18.109375 0 
L 9.078125 0 
L 9.078125 54.6875 
L 18.109375 54.6875 
L 18.109375 46.1875 
Q 21.34375 51.125 25.703125 53.5625 
Q 30.078125 56 35.796875 56 
Q 45.21875 56 50.046875 50.171875 
Q 54.890625 44.34375 54.890625 33.015625 
z
" id="DejaVuSans-110"/>
       <path d="M 34.28125 27.484375 
Q 23.390625 27.484375 19.1875 25 
Q 14.984375 22.515625 14.984375 16.5 
Q 14.984375 11.71875 18.140625 8.90625 
Q 21.296875 6.109375 26.703125 6.109375 
Q 34.1875 6.109375 38.703125 11.40625 
Q 43.21875 16.703125 43.21875 25.484375 
L 43.21875 27.484375 
z
M 52.203125 31.203125 
L 52.203125 0 
L 43.21875 0 
L 43.21875 8.296875 
Q 40.140625 3.328125 35.546875 0.953125 
Q 30.953125 -1.421875 24.3125 -1.421875 
Q 15.921875 -1.421875 10.953125 3.296875 
Q 6 8.015625 6 15.921875 
Q 6 25.140625 12.171875 29.828125 
Q 18.359375 34.515625 30.609375 34.515625 
L 43.21875 34.515625 
L 43.21875 35.40625 
Q 43.21875 41.609375 39.140625 45 
Q 35.0625 48.390625 27.6875 48.390625 
Q 23 48.390625 18.546875 47.265625 
Q 14.109375 46.140625 10.015625 43.890625 
L 10.015625 52.203125 
Q 14.9375 54.109375 19.578125 55.046875 
Q 24.21875 56 28.609375 56 
Q 40.484375 56 46.34375 49.84375 
Q 52.203125 43.703125 52.203125 31.203125 
z
" id="DejaVuSans-97"/>
       <path d="M 9.421875 75.984375 
L 18.40625 75.984375 
L 18.40625 0 
L 9.421875 0 
z
" id="DejaVuSans-108"/>
       <path id="DejaVuSans-32"/>
       <path d="M 44.28125 53.078125 
L 44.28125 44.578125 
Q 40.484375 46.53125 36.375 47.5 
Q 32.28125 48.484375 27.875 48.484375 
Q 21.1875 48.484375 17.84375 46.4375 
Q 14.5 44.390625 14.5 40.28125 
Q 14.5 37.15625 16.890625 35.375 
Q 19.28125 33.59375 26.515625 31.984375 
L 29.59375 31.296875 
Q 39.15625 29.25 43.1875 25.515625 
Q 47.21875 21.78125 47.21875 15.09375 
Q 47.21875 7.46875 41.1875 3.015625 
Q 35.15625 -1.421875 24.609375 -1.421875 
Q 20.21875 -1.421875 15.453125 -0.5625 
Q 10.6875 0.296875 5.421875 2 
L 5.421875 11.28125 
Q 10.40625 8.6875 15.234375 7.390625 
Q 20.0625 6.109375 24.8125 6.109375 
Q 31.15625 6.109375 34.5625 8.28125 
Q 37.984375 10.453125 37.984375 14.40625 
Q 37.984375 18.0625 35.515625 20.015625 
Q 33.0625 21.96875 24.703125 23.78125 
L 21.578125 24.515625 
Q 13.234375 26.265625 9.515625 29.90625 
Q 5.8125 33.546875 5.8125 39.890625 
Q 5.8125 47.609375 11.28125 51.796875 
Q 16.75 56 26.8125 56 
Q 31.78125 56 36.171875 55.265625 
Q 40.578125 54.546875 44.28125 53.078125 
z
" id="DejaVuSans-115"/>
       <path d="M 56.203125 29.59375 
L 56.203125 25.203125 
L 14.890625 25.203125 
Q 15.484375 15.921875 20.484375 11.0625 
Q 25.484375 6.203125 34.421875 6.203125 
Q 39.59375 6.203125 44.453125 7.46875 
Q 49.3125 8.734375 54.109375 11.28125 
L 54.109375 2.78125 
Q 49.265625 0.734375 44.1875 -0.34375 
Q 39.109375 -1.421875 33.890625 -1.421875 
Q 20.796875 -1.421875 13.15625 6.1875 
Q 5.515625 13.8125 5.515625 26.8125 
Q 5.515625 40.234375 12.765625 48.109375 
Q 20.015625 56 32.328125 56 
Q 43.359375 56 49.78125 48.890625 
Q 56.203125 41.796875 56.203125 29.59375 
z
M 47.21875 32.234375 
Q 47.125 39.59375 43.09375 43.984375 
Q 39.0625 48.390625 32.421875 48.390625 
Q 24.90625 48.390625 20.390625 44.140625 
Q 15.875 39.890625 15.1875 32.171875 
z
" id="DejaVuSans-101"/>
       <path d="M 55.71875 33.015625 
L 49.3125 0 
L 40.28125 0 
L 46.6875 32.671875 
Q 47.125 34.96875 47.359375 36.71875 
Q 47.609375 38.484375 47.609375 39.5 
Q 47.609375 43.609375 45.015625 45.890625 
Q 42.4375 48.1875 37.796875 48.1875 
Q 30.5625 48.1875 25.34375 43.375 
Q 20.125 38.578125 18.5 30.328125 
L 12.5 0 
L 3.515625 0 
L 14.109375 54.6875 
L 23.09375 54.6875 
L 21.296875 46.09375 
Q 25.046875 50.828125 30.3125 53.40625 
Q 35.59375 56 41.40625 56 
Q 48.640625 56 52.609375 52.09375 
Q 56.59375 48.1875 56.59375 41.109375 
Q 56.59375 39.359375 56.375 37.359375 
Q 56.15625 35.359375 55.71875 33.015625 
z
" id="DejaVuSans-Oblique-110"/>
      </defs>
      <use transform="translate(0 0.015625)" xlink:href="#DejaVuSans-77"/>
      <use transform="translate(86.279297 0.015625)" xlink:href="#DejaVuSans-111"/>
      <use transform="translate(147.460938 0.015625)" xlink:href="#DejaVuSans-116"/>
      <use transform="translate(186.669922 0.015625)" xlink:href="#DejaVuSans-105"/>
      <use transform="translate(214.453125 0.015625)" xlink:href="#DejaVuSans-111"/>
      <use transform="translate(275.634766 0.015625)" xlink:href="#DejaVuSans-110"/>
      <use transform="translate(339.013672 0.015625)" xlink:href="#DejaVuSans-97"/>
      <use transform="translate(400.292969 0.015625)" xlink:href="#DejaVuSans-108"/>
      <use transform="translate(428.076172 0.015625)" xlink:href="#DejaVuSans-32"/>
      <use transform="translate(459.863281 0.015625)" xlink:href="#DejaVuSans-115"/>
      <use transform="translate(511.962891 0.015625)" xlink:href="#DejaVuSans-116"/>
      <use transform="translate(551.171875 0.015625)" xlink:href="#DejaVuSans-97"/>
      <use transform="translate(612.451172 0.015625)" xlink:href="#DejaVuSans-116"/>
      <use transform="translate(651.660156 0.015625)" xlink:href="#DejaVuSans-101"/>
      <use transform="translate(713.183594 0.015625)" xlink:href="#DejaVuSans-32"/>
      <use transform="translate(744.970703 0.015625)" xlink:href="#DejaVuSans-Oblique-110"/>
     </g>
    </g>
   </g>
   <g id="matplotlib.axis_2">
    <g id="ytick_1">
     <g id="line2d_17">
      <path clip-path="url(#pf39720cbdc)" d="M 65.254688 273.312 
L 422.374688 273.312 
" style="fill:none;stroke:#b0b0b0;stroke-linecap:square;stroke-width:0.8;"/>
     </g>
     <g id="line2d_18">
      <defs>
       <path d="M 0 0 
L -3.5 0 
" id="mc3ce260a5b" style="stroke:#000000;stroke-width:0.8;"/>
      </defs>
      <g>
       <use style="stroke:#000000;stroke-width:0.8;" x="65.254688" xlink:href="#mc3ce260a5b" y="273.312"/>
      </g>
     </g>
     <g id="text_10">
      <!-- 0.0 -->
      <g transform="translate(34.4 279.010828)scale(0.15 -0.15)">
       <defs>
        <path d="M 10.6875 12.40625 
L 21 12.40625 
L 21 0 
L 10.6875 0 
z
" id="DejaVuSans-46"/>
       </defs>
       <use xlink:href="#DejaVuSans-48"/>
       <use x="63.623047" xlink:href="#DejaVuSans-46"/>
       <use x="95.410156" xlink:href="#DejaVuSans-48"/>
      </g>
     </g>
    </g>
    <g id="ytick_2">
     <g id="line2d_19">
      <path clip-path="url(#pf39720cbdc)" d="M 65.254688 237.8304 
L 422.374688 237.8304 
" style="fill:none;stroke:#b0b0b0;stroke-linecap:square;stroke-width:0.8;"/>
     </g>
     <g id="line2d_20">
      <g>
       <use style="stroke:#000000;stroke-width:0.8;" x="65.254688" xlink:href="#mc3ce260a5b" y="237.8304"/>
      </g>
     </g>
     <g id="text_11">
      <!-- 0.1 -->
      <g transform="translate(34.4 243.529228)scale(0.15 -0.15)">
       <use xlink:href="#DejaVuSans-48"/>
       <use x="63.623047" xlink:href="#DejaVuSans-46"/>
       <use x="95.410156" xlink:href="#DejaVuSans-49"/>
      </g>
     </g>
    </g>
    <g id="ytick_3">
     <g id="line2d_21">
      <path clip-path="url(#pf39720cbdc)" d="M 65.254688 202.3488 
L 422.374688 202.3488 
" style="fill:none;stroke:#b0b0b0;stroke-linecap:square;stroke-width:0.8;"/>
     </g>
     <g id="line2d_22">
      <g>
       <use style="stroke:#000000;stroke-width:0.8;" x="65.254688" xlink:href="#mc3ce260a5b" y="202.3488"/>
      </g>
     </g>
     <g id="text_12">
      <!-- 0.2 -->
      <g transform="translate(34.4 208.047628)scale(0.15 -0.15)">
       <use xlink:href="#DejaVuSans-48"/>
       <use x="63.623047" xlink:href="#DejaVuSans-46"/>
       <use x="95.410156" xlink:href="#DejaVuSans-50"/>
      </g>
     </g>
    </g>
    <g id="ytick_4">
     <g id="line2d_23">
      <path clip-path="url(#pf39720cbdc)" d="M 65.254688 166.8672 
L 422.374688 166.8672 
" style="fill:none;stroke:#b0b0b0;stroke-linecap:square;stroke-width:0.8;"/>
     </g>
     <g id="line2d_24">
      <g>
       <use style="stroke:#000000;stroke-width:0.8;" x="65.254688" xlink:href="#mc3ce260a5b" y="166.8672"/>
      </g>
     </g>
     <g id="text_13">
      <!-- 0.3 -->
      <g transform="translate(34.4 172.566028)scale(0.15 -0.15)">
       <use xlink:href="#DejaVuSans-48"/>
       <use x="63.623047" xlink:href="#DejaVuSans-46"/>
       <use x="95.410156" xlink:href="#DejaVuSans-51"/>
      </g>
     </g>
    </g>
    <g id="ytick_5">
     <g id="line2d_25">
      <path clip-path="url(#pf39720cbdc)" d="M 65.254688 131.3856 
L 422.374688 131.3856 
" style="fill:none;stroke:#b0b0b0;stroke-linecap:square;stroke-width:0.8;"/>
     </g>
     <g id="line2d_26">
      <g>
       <use style="stroke:#000000;stroke-width:0.8;" x="65.254688" xlink:href="#mc3ce260a5b" y="131.3856"/>
      </g>
     </g>
     <g id="text_14">
      <!-- 0.4 -->
      <g transform="translate(34.4 137.084428)scale(0.15 -0.15)">
       <use xlink:href="#DejaVuSans-48"/>
       <use x="63.623047" xlink:href="#DejaVuSans-46"/>
       <use x="95.410156" xlink:href="#DejaVuSans-52"/>
      </g>
     </g>
    </g>
    <g id="ytick_6">
     <g id="line2d_27">
      <path clip-path="url(#pf39720cbdc)" d="M 65.254688 95.904 
L 422.374688 95.904 
" style="fill:none;stroke:#b0b0b0;stroke-linecap:square;stroke-width:0.8;"/>
     </g>
     <g id="line2d_28">
      <g>
       <use style="stroke:#000000;stroke-width:0.8;" x="65.254688" xlink:href="#mc3ce260a5b" y="95.904"/>
      </g>
     </g>
     <g id="text_15">
      <!-- 0.5 -->
      <g transform="translate(34.4 101.602828)scale(0.15 -0.15)">
       <use xlink:href="#DejaVuSans-48"/>
       <use x="63.623047" xlink:href="#DejaVuSans-46"/>
       <use x="95.410156" xlink:href="#DejaVuSans-53"/>
      </g>
     </g>
    </g>
    <g id="ytick_7">
     <g id="line2d_29">
      <path clip-path="url(#pf39720cbdc)" d="M 65.254688 60.4224 
L 422.374688 60.4224 
" style="fill:none;stroke:#b0b0b0;stroke-linecap:square;stroke-width:0.8;"/>
     </g>
     <g id="line2d_30">
      <g>
       <use style="stroke:#000000;stroke-width:0.8;" x="65.254688" xlink:href="#mc3ce260a5b" y="60.4224"/>
      </g>
     </g>
     <g id="text_16">
      <!-- 0.6 -->
      <g transform="translate(34.4 66.121228)scale(0.15 -0.15)">
       <use xlink:href="#DejaVuSans-48"/>
       <use x="63.623047" xlink:href="#DejaVuSans-46"/>
       <use x="95.410156" xlink:href="#DejaVuSans-54"/>
      </g>
     </g>
    </g>
    <g id="ytick_8">
     <g id="line2d_31">
      <path clip-path="url(#pf39720cbdc)" d="M 65.254688 24.9408 
L 422.374688 24.9408 
" style="fill:none;stroke:#b0b0b0;stroke-linecap:square;stroke-width:0.8;"/>
     </g>
     <g id="line2d_32">
      <g>
       <use style="stroke:#000000;stroke-width:0.8;" x="65.254688" xlink:href="#mc3ce260a5b" y="24.9408"/>
      </g>
     </g>
     <g id="text_17">
      <!-- 0.7 -->
      <g transform="translate(34.4 30.639628)scale(0.15 -0.15)">
       <use xlink:href="#DejaVuSans-48"/>
       <use x="63.623047" xlink:href="#DejaVuSans-46"/>
       <use x="95.410156" xlink:href="#DejaVuSans-55"/>
      </g>
     </g>
    </g>
    <g id="text_18">
     <!-- $|\langle n |e^{ikx}| n + \Delta n \rangle|$ -->
     <g transform="translate(25.6 216.756)rotate(-90)scale(0.2 -0.2)">
      <defs>
       <path d="M 21 76.421875 
L 21 -23.578125 
L 12.703125 -23.578125 
L 12.703125 76.421875 
z
" id="DejaVuSans-124"/>
       <path d="M 8.9375 31.34375 
L 22.703125 75.875 
L 31 75.875 
L 17.234375 31.34375 
L 31 -13.1875 
L 22.703125 -13.1875 
z
" id="DejaVuSans-10216"/>
       <path d="M 48.09375 32.234375 
Q 48.25 33.015625 48.3125 33.84375 
Q 48.390625 34.671875 48.390625 35.5 
Q 48.390625 41.453125 44.890625 44.921875 
Q 41.40625 48.390625 35.40625 48.390625 
Q 28.71875 48.390625 23.578125 44.15625 
Q 18.453125 39.9375 15.828125 32.171875 
z
M 55.90625 25.203125 
L 14.109375 25.203125 
Q 13.8125 23.34375 13.71875 22.265625 
Q 13.625 21.1875 13.625 20.40625 
Q 13.625 13.625 17.796875 9.90625 
Q 21.96875 6.203125 29.59375 6.203125 
Q 35.453125 6.203125 40.671875 7.515625 
Q 45.90625 8.84375 50.390625 11.375 
L 48.6875 2.484375 
Q 43.84375 0.53125 38.6875 -0.4375 
Q 33.546875 -1.421875 28.21875 -1.421875 
Q 16.84375 -1.421875 10.71875 4.015625 
Q 4.59375 9.46875 4.59375 19.484375 
Q 4.59375 28.03125 7.640625 35.375 
Q 10.6875 42.71875 16.609375 48.484375 
Q 20.40625 52.09375 25.65625 54.046875 
Q 30.90625 56 36.8125 56 
Q 46.09375 56 51.578125 50.4375 
Q 57.078125 44.875 57.078125 35.5 
Q 57.078125 33.25 56.78125 30.6875 
Q 56.5 28.125 55.90625 25.203125 
z
" id="DejaVuSans-Oblique-101"/>
       <path d="M 18.3125 75.984375 
L 27.296875 75.984375 
L 25.09375 64.59375 
L 16.109375 64.59375 
z
M 14.203125 54.6875 
L 23.1875 54.6875 
L 12.5 0 
L 3.515625 0 
z
" id="DejaVuSans-Oblique-105"/>
       <path d="M 18.3125 75.984375 
L 27.296875 75.984375 
L 18.703125 31.6875 
L 49.515625 54.6875 
L 61.1875 54.6875 
L 26.8125 28.515625 
L 51.90625 0 
L 41.015625 0 
L 17.671875 26.703125 
L 12.5 0 
L 3.515625 0 
z
" id="DejaVuSans-Oblique-107"/>
       <path d="M 60.015625 54.6875 
L 34.90625 27.875 
L 50.296875 0 
L 39.984375 0 
L 28.421875 21.6875 
L 8.296875 0 
L -2.59375 0 
L 24.3125 28.8125 
L 10.015625 54.6875 
L 20.3125 54.6875 
L 30.8125 34.90625 
L 49.125 54.6875 
z
" id="DejaVuSans-Oblique-120"/>
       <path d="M 46 62.703125 
L 46 35.5 
L 73.1875 35.5 
L 73.1875 27.203125 
L 46 27.203125 
L 46 0 
L 37.796875 0 
L 37.796875 27.203125 
L 10.59375 27.203125 
L 10.59375 35.5 
L 37.796875 35.5 
L 37.796875 62.703125 
z
" id="DejaVuSans-43"/>
       <path d="M 34.1875 63.1875 
L 14.15625 8.203125 
L 54.25 8.203125 
z
M 0.78125 0 
L 28.609375 72.90625 
L 39.796875 72.90625 
L 67.578125 0 
z
" id="DejaVuSans-916"/>
       <path d="M 30.078125 31.34375 
L 16.3125 -13.1875 
L 8.015625 -13.1875 
L 21.78125 31.34375 
L 8.015625 75.875 
L 16.3125 75.875 
z
" id="DejaVuSans-10217"/>
      </defs>
      <use transform="translate(0 0.529687)" xlink:href="#DejaVuSans-124"/>
      <use transform="translate(33.691406 0.529687)" xlink:href="#DejaVuSans-10216"/>
      <use transform="translate(72.705078 0.529687)" xlink:href="#DejaVuSans-Oblique-110"/>
      <use transform="translate(136.083984 0.529687)" xlink:href="#DejaVuSans-124"/>
      <use transform="translate(169.775391 0.529687)" xlink:href="#DejaVuSans-Oblique-101"/>
      <use transform="translate(235.948724 38.810937)scale(0.7)" xlink:href="#DejaVuSans-Oblique-105"/>
      <use transform="translate(255.396966 38.810937)scale(0.7)" xlink:href="#DejaVuSans-Oblique-107"/>
      <use transform="translate(295.934076 38.810937)scale(0.7)" xlink:href="#DejaVuSans-Oblique-120"/>
      <use transform="translate(340.094232 0.529687)" xlink:href="#DejaVuSans-124"/>
      <use transform="translate(373.785638 0.529687)" xlink:href="#DejaVuSans-Oblique-110"/>
      <use transform="translate(456.646966 0.529687)" xlink:href="#DejaVuSans-43"/>
      <use transform="translate(559.918451 0.529687)" xlink:href="#DejaVuSans-916"/>
      <use transform="translate(628.326654 0.529687)" xlink:href="#DejaVuSans-Oblique-110"/>
      <use transform="translate(691.70556 0.529687)" xlink:href="#DejaVuSans-10217"/>
      <use transform="translate(730.719232 0.529687)" xlink:href="#DejaVuSans-124"/>
     </g>
    </g>
   </g>
   <g id="line2d_33">
    <path clip-path="url(#pf39720cbdc)" d="M 65.254688 273.312 
L 70.356402 133.714584 
L 75.458116 94.304319 
L 80.55983 75.222154 
L 85.661545 67.454587 
L 90.763259 67.089193 
L 95.864973 71.907469 
L 100.966688 80.470364 
L 106.068402 91.766686 
L 111.170116 105.048176 
L 116.27183 119.741389 
L 121.373545 135.396 
L 126.475259 151.652283 
L 131.576973 168.219471 
L 136.678688 184.860721 
L 141.780402 201.382267 
L 146.882116 217.625355 
L 151.98383 233.46009 
L 157.085545 248.780643 
L 162.187259 263.501432 
L 167.288973 269.069951 
L 172.390688 255.739268 
L 177.492402 243.171724 
L 182.594116 231.397721 
L 187.69583 220.438344 
L 192.797545 210.306628 
L 197.899259 201.008642 
L 203.000973 192.544437 
L 208.102688 184.908857 
L 213.204402 178.092259 
L 218.306116 172.081141 
L 223.40783 166.85869 
L 228.509545 162.405274 
L 233.611259 158.698876 
L 238.712973 155.715471 
L 243.814688 153.429376 
L 248.916402 151.813546 
L 254.018116 150.83985 
L 259.11983 150.479311 
L 264.221545 150.702324 
L 269.323259 151.478845 
L 274.424973 152.778563 
L 279.526688 154.571058 
L 284.628402 156.825931 
L 289.730116 159.512933 
L 294.83183 162.602062 
L 299.933545 166.063671 
L 305.035259 169.868541 
L 310.136973 173.987963 
L 315.238688 178.393799 
L 320.340402 183.058539 
L 325.442116 187.955352 
L 330.54383 193.058125 
L 335.645545 198.341502 
L 340.747259 203.780909 
L 345.848973 209.352586 
L 350.950688 215.0336 
L 356.052402 220.801865 
L 361.154116 226.636153 
L 366.25583 232.516099 
L 371.357545 238.422212 
L 376.459259 244.335869 
L 381.560973 250.239321 
L 386.662688 256.115687 
L 391.764402 261.948948 
L 396.866116 267.72394 
L 401.96783 273.197654 
L 407.069545 267.581319 
L 412.171259 262.063712 
L 417.272973 256.656687 
L 422.374688 251.3713 
" style="fill:none;stroke:#1f77b4;stroke-linecap:square;stroke-width:1.5;"/>
    <defs>
     <path d="M 0 1.5 
C 0.397805 1.5 0.77937 1.341951 1.06066 1.06066 
C 1.341951 0.77937 1.5 0.397805 1.5 0 
C 1.5 -0.397805 1.341951 -0.77937 1.06066 -1.06066 
C 0.77937 -1.341951 0.397805 -1.5 0 -1.5 
C -0.397805 -1.5 -0.77937 -1.341951 -1.06066 -1.06066 
C -1.341951 -0.77937 -1.5 -0.397805 -1.5 0 
C -1.5 0.397805 -1.341951 0.77937 -1.06066 1.06066 
C -0.77937 1.341951 -0.397805 1.5 0 1.5 
z
" id="mb8bc26594a" style="stroke:#1f77b4;"/>
    </defs>
    <g clip-path="url(#pf39720cbdc)">
     <use style="fill:#1f77b4;stroke:#1f77b4;" x="65.254688" xlink:href="#mb8bc26594a" y="273.312"/>
     <use style="fill:#1f77b4;stroke:#1f77b4;" x="70.356402" xlink:href="#mb8bc26594a" y="133.714584"/>
     <use style="fill:#1f77b4;stroke:#1f77b4;" x="75.458116" xlink:href="#mb8bc26594a" y="94.304319"/>
     <use style="fill:#1f77b4;stroke:#1f77b4;" x="80.55983" xlink:href="#mb8bc26594a" y="75.222154"/>
     <use style="fill:#1f77b4;stroke:#1f77b4;" x="85.661545" xlink:href="#mb8bc26594a" y="67.454587"/>
     <use style="fill:#1f77b4;stroke:#1f77b4;" x="90.763259" xlink:href="#mb8bc26594a" y="67.089193"/>
     <use style="fill:#1f77b4;stroke:#1f77b4;" x="95.864973" xlink:href="#mb8bc26594a" y="71.907469"/>
     <use style="fill:#1f77b4;stroke:#1f77b4;" x="100.966688" xlink:href="#mb8bc26594a" y="80.470364"/>
     <use style="fill:#1f77b4;stroke:#1f77b4;" x="106.068402" xlink:href="#mb8bc26594a" y="91.766686"/>
     <use style="fill:#1f77b4;stroke:#1f77b4;" x="111.170116" xlink:href="#mb8bc26594a" y="105.048176"/>
     <use style="fill:#1f77b4;stroke:#1f77b4;" x="116.27183" xlink:href="#mb8bc26594a" y="119.741389"/>
     <use style="fill:#1f77b4;stroke:#1f77b4;" x="121.373545" xlink:href="#mb8bc26594a" y="135.396"/>
     <use style="fill:#1f77b4;stroke:#1f77b4;" x="126.475259" xlink:href="#mb8bc26594a" y="151.652283"/>
     <use style="fill:#1f77b4;stroke:#1f77b4;" x="131.576973" xlink:href="#mb8bc26594a" y="168.219471"/>
     <use style="fill:#1f77b4;stroke:#1f77b4;" x="136.678688" xlink:href="#mb8bc26594a" y="184.860721"/>
     <use style="fill:#1f77b4;stroke:#1f77b4;" x="141.780402" xlink:href="#mb8bc26594a" y="201.382267"/>
     <use style="fill:#1f77b4;stroke:#1f77b4;" x="146.882116" xlink:href="#mb8bc26594a" y="217.625355"/>
     <use style="fill:#1f77b4;stroke:#1f77b4;" x="151.98383" xlink:href="#mb8bc26594a" y="233.46009"/>
     <use style="fill:#1f77b4;stroke:#1f77b4;" x="157.085545" xlink:href="#mb8bc26594a" y="248.780643"/>
     <use style="fill:#1f77b4;stroke:#1f77b4;" x="162.187259" xlink:href="#mb8bc26594a" y="263.501432"/>
     <use style="fill:#1f77b4;stroke:#1f77b4;" x="167.288973" xlink:href="#mb8bc26594a" y="269.069951"/>
     <use style="fill:#1f77b4;stroke:#1f77b4;" x="172.390688" xlink:href="#mb8bc26594a" y="255.739268"/>
     <use style="fill:#1f77b4;stroke:#1f77b4;" x="177.492402" xlink:href="#mb8bc26594a" y="243.171724"/>
     <use style="fill:#1f77b4;stroke:#1f77b4;" x="182.594116" xlink:href="#mb8bc26594a" y="231.397721"/>
     <use style="fill:#1f77b4;stroke:#1f77b4;" x="187.69583" xlink:href="#mb8bc26594a" y="220.438344"/>
     <use style="fill:#1f77b4;stroke:#1f77b4;" x="192.797545" xlink:href="#mb8bc26594a" y="210.306628"/>
     <use style="fill:#1f77b4;stroke:#1f77b4;" x="197.899259" xlink:href="#mb8bc26594a" y="201.008642"/>
     <use style="fill:#1f77b4;stroke:#1f77b4;" x="203.000973" xlink:href="#mb8bc26594a" y="192.544437"/>
     <use style="fill:#1f77b4;stroke:#1f77b4;" x="208.102688" xlink:href="#mb8bc26594a" y="184.908857"/>
     <use style="fill:#1f77b4;stroke:#1f77b4;" x="213.204402" xlink:href="#mb8bc26594a" y="178.092259"/>
     <use style="fill:#1f77b4;stroke:#1f77b4;" x="218.306116" xlink:href="#mb8bc26594a" y="172.081141"/>
     <use style="fill:#1f77b4;stroke:#1f77b4;" x="223.40783" xlink:href="#mb8bc26594a" y="166.85869"/>
     <use style="fill:#1f77b4;stroke:#1f77b4;" x="228.509545" xlink:href="#mb8bc26594a" y="162.405274"/>
     <use style="fill:#1f77b4;stroke:#1f77b4;" x="233.611259" xlink:href="#mb8bc26594a" y="158.698876"/>
     <use style="fill:#1f77b4;stroke:#1f77b4;" x="238.712973" xlink:href="#mb8bc26594a" y="155.715471"/>
     <use style="fill:#1f77b4;stroke:#1f77b4;" x="243.814688" xlink:href="#mb8bc26594a" y="153.429376"/>
     <use style="fill:#1f77b4;stroke:#1f77b4;" x="248.916402" xlink:href="#mb8bc26594a" y="151.813546"/>
     <use style="fill:#1f77b4;stroke:#1f77b4;" x="254.018116" xlink:href="#mb8bc26594a" y="150.83985"/>
     <use style="fill:#1f77b4;stroke:#1f77b4;" x="259.11983" xlink:href="#mb8bc26594a" y="150.479311"/>
     <use style="fill:#1f77b4;stroke:#1f77b4;" x="264.221545" xlink:href="#mb8bc26594a" y="150.702324"/>
     <use style="fill:#1f77b4;stroke:#1f77b4;" x="269.323259" xlink:href="#mb8bc26594a" y="151.478845"/>
     <use style="fill:#1f77b4;stroke:#1f77b4;" x="274.424973" xlink:href="#mb8bc26594a" y="152.778563"/>
     <use style="fill:#1f77b4;stroke:#1f77b4;" x="279.526688" xlink:href="#mb8bc26594a" y="154.571058"/>
     <use style="fill:#1f77b4;stroke:#1f77b4;" x="284.628402" xlink:href="#mb8bc26594a" y="156.825931"/>
     <use style="fill:#1f77b4;stroke:#1f77b4;" x="289.730116" xlink:href="#mb8bc26594a" y="159.512933"/>
     <use style="fill:#1f77b4;stroke:#1f77b4;" x="294.83183" xlink:href="#mb8bc26594a" y="162.602062"/>
     <use style="fill:#1f77b4;stroke:#1f77b4;" x="299.933545" xlink:href="#mb8bc26594a" y="166.063671"/>
     <use style="fill:#1f77b4;stroke:#1f77b4;" x="305.035259" xlink:href="#mb8bc26594a" y="169.868541"/>
     <use style="fill:#1f77b4;stroke:#1f77b4;" x="310.136973" xlink:href="#mb8bc26594a" y="173.987963"/>
     <use style="fill:#1f77b4;stroke:#1f77b4;" x="315.238688" xlink:href="#mb8bc26594a" y="178.393799"/>
     <use style="fill:#1f77b4;stroke:#1f77b4;" x="320.340402" xlink:href="#mb8bc26594a" y="183.058539"/>
     <use style="fill:#1f77b4;stroke:#1f77b4;" x="325.442116" xlink:href="#mb8bc26594a" y="187.955352"/>
     <use style="fill:#1f77b4;stroke:#1f77b4;" x="330.54383" xlink:href="#mb8bc26594a" y="193.058125"/>
     <use style="fill:#1f77b4;stroke:#1f77b4;" x="335.645545" xlink:href="#mb8bc26594a" y="198.341502"/>
     <use style="fill:#1f77b4;stroke:#1f77b4;" x="340.747259" xlink:href="#mb8bc26594a" y="203.780909"/>
     <use style="fill:#1f77b4;stroke:#1f77b4;" x="345.848973" xlink:href="#mb8bc26594a" y="209.352586"/>
     <use style="fill:#1f77b4;stroke:#1f77b4;" x="350.950688" xlink:href="#mb8bc26594a" y="215.0336"/>
     <use style="fill:#1f77b4;stroke:#1f77b4;" x="356.052402" xlink:href="#mb8bc26594a" y="220.801865"/>
     <use style="fill:#1f77b4;stroke:#1f77b4;" x="361.154116" xlink:href="#mb8bc26594a" y="226.636153"/>
     <use style="fill:#1f77b4;stroke:#1f77b4;" x="366.25583" xlink:href="#mb8bc26594a" y="232.516099"/>
     <use style="fill:#1f77b4;stroke:#1f77b4;" x="371.357545" xlink:href="#mb8bc26594a" y="238.422212"/>
     <use style="fill:#1f77b4;stroke:#1f77b4;" x="376.459259" xlink:href="#mb8bc26594a" y="244.335869"/>
     <use style="fill:#1f77b4;stroke:#1f77b4;" x="381.560973" xlink:href="#mb8bc26594a" y="250.239321"/>
     <use style="fill:#1f77b4;stroke:#1f77b4;" x="386.662688" xlink:href="#mb8bc26594a" y="256.115687"/>
     <use style="fill:#1f77b4;stroke:#1f77b4;" x="391.764402" xlink:href="#mb8bc26594a" y="261.948948"/>
     <use style="fill:#1f77b4;stroke:#1f77b4;" x="396.866116" xlink:href="#mb8bc26594a" y="267.72394"/>
     <use style="fill:#1f77b4;stroke:#1f77b4;" x="401.96783" xlink:href="#mb8bc26594a" y="273.197654"/>
     <use style="fill:#1f77b4;stroke:#1f77b4;" x="407.069545" xlink:href="#mb8bc26594a" y="267.581319"/>
     <use style="fill:#1f77b4;stroke:#1f77b4;" x="412.171259" xlink:href="#mb8bc26594a" y="262.063712"/>
     <use style="fill:#1f77b4;stroke:#1f77b4;" x="417.272973" xlink:href="#mb8bc26594a" y="256.656687"/>
     <use style="fill:#1f77b4;stroke:#1f77b4;" x="422.374688" xlink:href="#mb8bc26594a" y="251.3713"/>
    </g>
   </g>
   <g id="line2d_34">
    <path clip-path="url(#pf39720cbdc)" d="M 65.254688 273.312 
L 70.356402 273.312 
L 75.458116 230.67938 
L 80.55983 204.061488 
L 85.661545 181.567342 
L 90.763259 162.48554 
L 95.864973 146.461164 
L 100.966688 133.225895 
L 106.068402 122.547254 
L 111.170116 114.213732 
L 116.27183 108.029105 
L 121.373545 103.809773 
L 126.475259 101.383285 
L 131.576973 100.587389 
L 136.678688 101.269339 
L 141.780402 103.285338 
L 146.882116 106.500072 
L 151.98383 110.786286 
L 157.085545 116.024404 
L 162.187259 122.102168 
L 167.288973 128.914302 
L 172.390688 136.362195 
L 177.492402 144.353593 
L 182.594116 152.802307 
L 187.69583 161.627937 
L 192.797545 170.755599 
L 197.899259 180.11567 
L 203.000973 189.643537 
L 208.102688 199.279361 
L 213.204402 208.967847 
L 218.306116 218.658018 
L 223.40783 228.30301 
L 228.509545 237.859861 
L 233.611259 247.289317 
L 238.712973 256.555641 
L 243.814688 265.626433 
L 248.916402 272.151548 
L 254.018116 263.556551 
L 259.11983 255.235995 
L 264.221545 247.210622 
L 269.323259 239.498653 
L 274.424973 232.115924 
L 279.526688 225.076028 
L 284.628402 218.390446 
L 289.730116 212.068673 
L 294.83183 206.118341 
L 299.933545 200.545334 
L 305.035259 195.3539 
L 310.136973 190.546757 
L 315.238688 186.125197 
L 320.340402 182.089183 
L 325.442116 178.437442 
L 330.54383 175.167553 
L 335.645545 172.276038 
L 340.747259 169.758436 
L 345.848973 167.609387 
L 350.950688 165.822704 
L 356.052402 164.39144 
L 361.154116 163.307964 
L 366.25583 162.564018 
L 371.357545 162.15078 
L 376.459259 162.058923 
L 381.560973 162.27867 
L 386.662688 162.799845 
L 391.764402 163.611924 
L 396.866116 164.704083 
L 401.96783 166.06524 
L 407.069545 167.684098 
L 412.171259 169.549188 
L 417.272973 171.648901 
L 422.374688 173.971528 
" style="fill:none;stroke:#ff7f0e;stroke-linecap:square;stroke-width:1.5;"/>
    <defs>
     <path d="M 0 1.5 
C 0.397805 1.5 0.77937 1.341951 1.06066 1.06066 
C 1.341951 0.77937 1.5 0.397805 1.5 0 
C 1.5 -0.397805 1.341951 -0.77937 1.06066 -1.06066 
C 0.77937 -1.341951 0.397805 -1.5 0 -1.5 
C -0.397805 -1.5 -0.77937 -1.341951 -1.06066 -1.06066 
C -1.341951 -0.77937 -1.5 -0.397805 -1.5 0 
C -1.5 0.397805 -1.341951 0.77937 -1.06066 1.06066 
C -0.77937 1.341951 -0.397805 1.5 0 1.5 
z
" id="m3e2fb6b177" style="stroke:#ff7f0e;"/>
    </defs>
    <g clip-path="url(#pf39720cbdc)">
     <use style="fill:#ff7f0e;stroke:#ff7f0e;" x="65.254688" xlink:href="#m3e2fb6b177" y="273.312"/>
     <use style="fill:#ff7f0e;stroke:#ff7f0e;" x="70.356402" xlink:href="#m3e2fb6b177" y="273.312"/>
     <use style="fill:#ff7f0e;stroke:#ff7f0e;" x="75.458116" xlink:href="#m3e2fb6b177" y="230.67938"/>
     <use style="fill:#ff7f0e;stroke:#ff7f0e;" x="80.55983" xlink:href="#m3e2fb6b177" y="204.061488"/>
     <use style="fill:#ff7f0e;stroke:#ff7f0e;" x="85.661545" xlink:href="#m3e2fb6b177" y="181.567342"/>
     <use style="fill:#ff7f0e;stroke:#ff7f0e;" x="90.763259" xlink:href="#m3e2fb6b177" y="162.48554"/>
     <use style="fill:#ff7f0e;stroke:#ff7f0e;" x="95.864973" xlink:href="#m3e2fb6b177" y="146.461164"/>
     <use style="fill:#ff7f0e;stroke:#ff7f0e;" x="100.966688" xlink:href="#m3e2fb6b177" y="133.225895"/>
     <use style="fill:#ff7f0e;stroke:#ff7f0e;" x="106.068402" xlink:href="#m3e2fb6b177" y="122.547254"/>
     <use style="fill:#ff7f0e;stroke:#ff7f0e;" x="111.170116" xlink:href="#m3e2fb6b177" y="114.213732"/>
     <use style="fill:#ff7f0e;stroke:#ff7f0e;" x="116.27183" xlink:href="#m3e2fb6b177" y="108.029105"/>
     <use style="fill:#ff7f0e;stroke:#ff7f0e;" x="121.373545" xlink:href="#m3e2fb6b177" y="103.809773"/>
     <use style="fill:#ff7f0e;stroke:#ff7f0e;" x="126.475259" xlink:href="#m3e2fb6b177" y="101.383285"/>
     <use style="fill:#ff7f0e;stroke:#ff7f0e;" x="131.576973" xlink:href="#m3e2fb6b177" y="100.587389"/>
     <use style="fill:#ff7f0e;stroke:#ff7f0e;" x="136.678688" xlink:href="#m3e2fb6b177" y="101.269339"/>
     <use style="fill:#ff7f0e;stroke:#ff7f0e;" x="141.780402" xlink:href="#m3e2fb6b177" y="103.285338"/>
     <use style="fill:#ff7f0e;stroke:#ff7f0e;" x="146.882116" xlink:href="#m3e2fb6b177" y="106.500072"/>
     <use style="fill:#ff7f0e;stroke:#ff7f0e;" x="151.98383" xlink:href="#m3e2fb6b177" y="110.786286"/>
     <use style="fill:#ff7f0e;stroke:#ff7f0e;" x="157.085545" xlink:href="#m3e2fb6b177" y="116.024404"/>
     <use style="fill:#ff7f0e;stroke:#ff7f0e;" x="162.187259" xlink:href="#m3e2fb6b177" y="122.102168"/>
     <use style="fill:#ff7f0e;stroke:#ff7f0e;" x="167.288973" xlink:href="#m3e2fb6b177" y="128.914302"/>
     <use style="fill:#ff7f0e;stroke:#ff7f0e;" x="172.390688" xlink:href="#m3e2fb6b177" y="136.362195"/>
     <use style="fill:#ff7f0e;stroke:#ff7f0e;" x="177.492402" xlink:href="#m3e2fb6b177" y="144.353593"/>
     <use style="fill:#ff7f0e;stroke:#ff7f0e;" x="182.594116" xlink:href="#m3e2fb6b177" y="152.802307"/>
     <use style="fill:#ff7f0e;stroke:#ff7f0e;" x="187.69583" xlink:href="#m3e2fb6b177" y="161.627937"/>
     <use style="fill:#ff7f0e;stroke:#ff7f0e;" x="192.797545" xlink:href="#m3e2fb6b177" y="170.755599"/>
     <use style="fill:#ff7f0e;stroke:#ff7f0e;" x="197.899259" xlink:href="#m3e2fb6b177" y="180.11567"/>
     <use style="fill:#ff7f0e;stroke:#ff7f0e;" x="203.000973" xlink:href="#m3e2fb6b177" y="189.643537"/>
     <use style="fill:#ff7f0e;stroke:#ff7f0e;" x="208.102688" xlink:href="#m3e2fb6b177" y="199.279361"/>
     <use style="fill:#ff7f0e;stroke:#ff7f0e;" x="213.204402" xlink:href="#m3e2fb6b177" y="208.967847"/>
     <use style="fill:#ff7f0e;stroke:#ff7f0e;" x="218.306116" xlink:href="#m3e2fb6b177" y="218.658018"/>
     <use style="fill:#ff7f0e;stroke:#ff7f0e;" x="223.40783" xlink:href="#m3e2fb6b177" y="228.30301"/>
     <use style="fill:#ff7f0e;stroke:#ff7f0e;" x="228.509545" xlink:href="#m3e2fb6b177" y="237.859861"/>
     <use style="fill:#ff7f0e;stroke:#ff7f0e;" x="233.611259" xlink:href="#m3e2fb6b177" y="247.289317"/>
     <use style="fill:#ff7f0e;stroke:#ff7f0e;" x="238.712973" xlink:href="#m3e2fb6b177" y="256.555641"/>
     <use style="fill:#ff7f0e;stroke:#ff7f0e;" x="243.814688" xlink:href="#m3e2fb6b177" y="265.626433"/>
     <use style="fill:#ff7f0e;stroke:#ff7f0e;" x="248.916402" xlink:href="#m3e2fb6b177" y="272.151548"/>
     <use style="fill:#ff7f0e;stroke:#ff7f0e;" x="254.018116" xlink:href="#m3e2fb6b177" y="263.556551"/>
     <use style="fill:#ff7f0e;stroke:#ff7f0e;" x="259.11983" xlink:href="#m3e2fb6b177" y="255.235995"/>
     <use style="fill:#ff7f0e;stroke:#ff7f0e;" x="264.221545" xlink:href="#m3e2fb6b177" y="247.210622"/>
     <use style="fill:#ff7f0e;stroke:#ff7f0e;" x="269.323259" xlink:href="#m3e2fb6b177" y="239.498653"/>
     <use style="fill:#ff7f0e;stroke:#ff7f0e;" x="274.424973" xlink:href="#m3e2fb6b177" y="232.115924"/>
     <use style="fill:#ff7f0e;stroke:#ff7f0e;" x="279.526688" xlink:href="#m3e2fb6b177" y="225.076028"/>
     <use style="fill:#ff7f0e;stroke:#ff7f0e;" x="284.628402" xlink:href="#m3e2fb6b177" y="218.390446"/>
     <use style="fill:#ff7f0e;stroke:#ff7f0e;" x="289.730116" xlink:href="#m3e2fb6b177" y="212.068673"/>
     <use style="fill:#ff7f0e;stroke:#ff7f0e;" x="294.83183" xlink:href="#m3e2fb6b177" y="206.118341"/>
     <use style="fill:#ff7f0e;stroke:#ff7f0e;" x="299.933545" xlink:href="#m3e2fb6b177" y="200.545334"/>
     <use style="fill:#ff7f0e;stroke:#ff7f0e;" x="305.035259" xlink:href="#m3e2fb6b177" y="195.3539"/>
     <use style="fill:#ff7f0e;stroke:#ff7f0e;" x="310.136973" xlink:href="#m3e2fb6b177" y="190.546757"/>
     <use style="fill:#ff7f0e;stroke:#ff7f0e;" x="315.238688" xlink:href="#m3e2fb6b177" y="186.125197"/>
     <use style="fill:#ff7f0e;stroke:#ff7f0e;" x="320.340402" xlink:href="#m3e2fb6b177" y="182.089183"/>
     <use style="fill:#ff7f0e;stroke:#ff7f0e;" x="325.442116" xlink:href="#m3e2fb6b177" y="178.437442"/>
     <use style="fill:#ff7f0e;stroke:#ff7f0e;" x="330.54383" xlink:href="#m3e2fb6b177" y="175.167553"/>
     <use style="fill:#ff7f0e;stroke:#ff7f0e;" x="335.645545" xlink:href="#m3e2fb6b177" y="172.276038"/>
     <use style="fill:#ff7f0e;stroke:#ff7f0e;" x="340.747259" xlink:href="#m3e2fb6b177" y="169.758436"/>
     <use style="fill:#ff7f0e;stroke:#ff7f0e;" x="345.848973" xlink:href="#m3e2fb6b177" y="167.609387"/>
     <use style="fill:#ff7f0e;stroke:#ff7f0e;" x="350.950688" xlink:href="#m3e2fb6b177" y="165.822704"/>
     <use style="fill:#ff7f0e;stroke:#ff7f0e;" x="356.052402" xlink:href="#m3e2fb6b177" y="164.39144"/>
     <use style="fill:#ff7f0e;stroke:#ff7f0e;" x="361.154116" xlink:href="#m3e2fb6b177" y="163.307964"/>
     <use style="fill:#ff7f0e;stroke:#ff7f0e;" x="366.25583" xlink:href="#m3e2fb6b177" y="162.564018"/>
     <use style="fill:#ff7f0e;stroke:#ff7f0e;" x="371.357545" xlink:href="#m3e2fb6b177" y="162.15078"/>
     <use style="fill:#ff7f0e;stroke:#ff7f0e;" x="376.459259" xlink:href="#m3e2fb6b177" y="162.058923"/>
     <use style="fill:#ff7f0e;stroke:#ff7f0e;" x="381.560973" xlink:href="#m3e2fb6b177" y="162.27867"/>
     <use style="fill:#ff7f0e;stroke:#ff7f0e;" x="386.662688" xlink:href="#m3e2fb6b177" y="162.799845"/>
     <use style="fill:#ff7f0e;stroke:#ff7f0e;" x="391.764402" xlink:href="#m3e2fb6b177" y="163.611924"/>
     <use style="fill:#ff7f0e;stroke:#ff7f0e;" x="396.866116" xlink:href="#m3e2fb6b177" y="164.704083"/>
     <use style="fill:#ff7f0e;stroke:#ff7f0e;" x="401.96783" xlink:href="#m3e2fb6b177" y="166.06524"/>
     <use style="fill:#ff7f0e;stroke:#ff7f0e;" x="407.069545" xlink:href="#m3e2fb6b177" y="167.684098"/>
     <use style="fill:#ff7f0e;stroke:#ff7f0e;" x="412.171259" xlink:href="#m3e2fb6b177" y="169.549188"/>
     <use style="fill:#ff7f0e;stroke:#ff7f0e;" x="417.272973" xlink:href="#m3e2fb6b177" y="171.648901"/>
     <use style="fill:#ff7f0e;stroke:#ff7f0e;" x="422.374688" xlink:href="#m3e2fb6b177" y="173.971528"/>
    </g>
   </g>
   <g id="line2d_35">
    <path clip-path="url(#pf39720cbdc)" d="M 65.254688 273.312 
L 70.356402 273.312 
L 75.458116 273.312 
L 80.55983 262.68132 
L 85.661545 253.042134 
L 90.763259 242.771733 
L 95.864973 232.175739 
L 100.966688 221.508587 
L 106.068402 210.966873 
L 111.170116 200.702497 
L 116.27183 190.833263 
L 121.373545 181.45048 
L 126.475259 172.624431 
L 131.576973 164.408416 
L 136.678688 156.841829 
L 141.780402 149.952543 
L 146.882116 143.75881 
L 151.98383 138.2708 
L 157.085545 133.491863 
L 162.187259 129.419583 
L 167.288973 126.046659 
L 172.390688 123.361661 
L 177.492402 121.349669 
L 182.594116 119.992835 
L 187.69583 119.270859 
L 192.797545 119.161411 
L 197.899259 119.640495 
L 203.000973 120.682775 
L 208.102688 122.261855 
L 213.204402 124.350529 
L 218.306116 126.921002 
L 223.40783 129.945083 
L 228.509545 133.394359 
L 233.611259 137.240347 
L 238.712973 141.454626 
L 243.814688 146.008957 
L 248.916402 150.875388 
L 254.018116 156.026343 
L 259.11983 161.434705 
L 264.221545 167.073887 
L 269.323259 172.917887 
L 274.424973 178.941348 
L 279.526688 185.119597 
L 284.628402 191.428688 
L 289.730116 197.84543 
L 294.83183 204.347415 
L 299.933545 210.913042 
L 305.035259 217.52153 
L 310.136973 224.152931 
L 315.238688 230.788141 
L 320.340402 237.408905 
L 325.442116 243.997819 
L 330.54383 250.538328 
L 335.645545 257.014727 
L 340.747259 263.412151 
L 345.848973 269.716572 
L 350.950688 270.709213 
L 356.052402 264.629591 
L 361.154116 258.680147 
L 366.25583 252.871675 
L 371.357545 247.214195 
L 376.459259 241.716967 
L 381.560973 236.388508 
L 386.662688 231.236612 
L 391.764402 226.268363 
L 396.866116 221.490158 
L 401.96783 216.907726 
L 407.069545 212.526142 
L 412.171259 208.349855 
L 417.272973 204.382702 
L 422.374688 200.627931 
" style="fill:none;stroke:#2ca02c;stroke-linecap:square;stroke-width:1.5;"/>
    <defs>
     <path d="M 0 1.5 
C 0.397805 1.5 0.77937 1.341951 1.06066 1.06066 
C 1.341951 0.77937 1.5 0.397805 1.5 0 
C 1.5 -0.397805 1.341951 -0.77937 1.06066 -1.06066 
C 0.77937 -1.341951 0.397805 -1.5 0 -1.5 
C -0.397805 -1.5 -0.77937 -1.341951 -1.06066 -1.06066 
C -1.341951 -0.77937 -1.5 -0.397805 -1.5 0 
C -1.5 0.397805 -1.341951 0.77937 -1.06066 1.06066 
C -0.77937 1.341951 -0.397805 1.5 0 1.5 
z
" id="m92edfcde95" style="stroke:#2ca02c;"/>
    </defs>
    <g clip-path="url(#pf39720cbdc)">
     <use style="fill:#2ca02c;stroke:#2ca02c;" x="65.254688" xlink:href="#m92edfcde95" y="273.312"/>
     <use style="fill:#2ca02c;stroke:#2ca02c;" x="70.356402" xlink:href="#m92edfcde95" y="273.312"/>
     <use style="fill:#2ca02c;stroke:#2ca02c;" x="75.458116" xlink:href="#m92edfcde95" y="273.312"/>
     <use style="fill:#2ca02c;stroke:#2ca02c;" x="80.55983" xlink:href="#m92edfcde95" y="262.68132"/>
     <use style="fill:#2ca02c;stroke:#2ca02c;" x="85.661545" xlink:href="#m92edfcde95" y="253.042134"/>
     <use style="fill:#2ca02c;stroke:#2ca02c;" x="90.763259" xlink:href="#m92edfcde95" y="242.771733"/>
     <use style="fill:#2ca02c;stroke:#2ca02c;" x="95.864973" xlink:href="#m92edfcde95" y="232.175739"/>
     <use style="fill:#2ca02c;stroke:#2ca02c;" x="100.966688" xlink:href="#m92edfcde95" y="221.508587"/>
     <use style="fill:#2ca02c;stroke:#2ca02c;" x="106.068402" xlink:href="#m92edfcde95" y="210.966873"/>
     <use style="fill:#2ca02c;stroke:#2ca02c;" x="111.170116" xlink:href="#m92edfcde95" y="200.702497"/>
     <use style="fill:#2ca02c;stroke:#2ca02c;" x="116.27183" xlink:href="#m92edfcde95" y="190.833263"/>
     <use style="fill:#2ca02c;stroke:#2ca02c;" x="121.373545" xlink:href="#m92edfcde95" y="181.45048"/>
     <use style="fill:#2ca02c;stroke:#2ca02c;" x="126.475259" xlink:href="#m92edfcde95" y="172.624431"/>
     <use style="fill:#2ca02c;stroke:#2ca02c;" x="131.576973" xlink:href="#m92edfcde95" y="164.408416"/>
     <use style="fill:#2ca02c;stroke:#2ca02c;" x="136.678688" xlink:href="#m92edfcde95" y="156.841829"/>
     <use style="fill:#2ca02c;stroke:#2ca02c;" x="141.780402" xlink:href="#m92edfcde95" y="149.952543"/>
     <use style="fill:#2ca02c;stroke:#2ca02c;" x="146.882116" xlink:href="#m92edfcde95" y="143.75881"/>
     <use style="fill:#2ca02c;stroke:#2ca02c;" x="151.98383" xlink:href="#m92edfcde95" y="138.2708"/>
     <use style="fill:#2ca02c;stroke:#2ca02c;" x="157.085545" xlink:href="#m92edfcde95" y="133.491863"/>
     <use style="fill:#2ca02c;stroke:#2ca02c;" x="162.187259" xlink:href="#m92edfcde95" y="129.419583"/>
     <use style="fill:#2ca02c;stroke:#2ca02c;" x="167.288973" xlink:href="#m92edfcde95" y="126.046659"/>
     <use style="fill:#2ca02c;stroke:#2ca02c;" x="172.390688" xlink:href="#m92edfcde95" y="123.361661"/>
     <use style="fill:#2ca02c;stroke:#2ca02c;" x="177.492402" xlink:href="#m92edfcde95" y="121.349669"/>
     <use style="fill:#2ca02c;stroke:#2ca02c;" x="182.594116" xlink:href="#m92edfcde95" y="119.992835"/>
     <use style="fill:#2ca02c;stroke:#2ca02c;" x="187.69583" xlink:href="#m92edfcde95" y="119.270859"/>
     <use style="fill:#2ca02c;stroke:#2ca02c;" x="192.797545" xlink:href="#m92edfcde95" y="119.161411"/>
     <use style="fill:#2ca02c;stroke:#2ca02c;" x="197.899259" xlink:href="#m92edfcde95" y="119.640495"/>
     <use style="fill:#2ca02c;stroke:#2ca02c;" x="203.000973" xlink:href="#m92edfcde95" y="120.682775"/>
     <use style="fill:#2ca02c;stroke:#2ca02c;" x="208.102688" xlink:href="#m92edfcde95" y="122.261855"/>
     <use style="fill:#2ca02c;stroke:#2ca02c;" x="213.204402" xlink:href="#m92edfcde95" y="124.350529"/>
     <use style="fill:#2ca02c;stroke:#2ca02c;" x="218.306116" xlink:href="#m92edfcde95" y="126.921002"/>
     <use style="fill:#2ca02c;stroke:#2ca02c;" x="223.40783" xlink:href="#m92edfcde95" y="129.945083"/>
     <use style="fill:#2ca02c;stroke:#2ca02c;" x="228.509545" xlink:href="#m92edfcde95" y="133.394359"/>
     <use style="fill:#2ca02c;stroke:#2ca02c;" x="233.611259" xlink:href="#m92edfcde95" y="137.240347"/>
     <use style="fill:#2ca02c;stroke:#2ca02c;" x="238.712973" xlink:href="#m92edfcde95" y="141.454626"/>
     <use style="fill:#2ca02c;stroke:#2ca02c;" x="243.814688" xlink:href="#m92edfcde95" y="146.008957"/>
     <use style="fill:#2ca02c;stroke:#2ca02c;" x="248.916402" xlink:href="#m92edfcde95" y="150.875388"/>
     <use style="fill:#2ca02c;stroke:#2ca02c;" x="254.018116" xlink:href="#m92edfcde95" y="156.026343"/>
     <use style="fill:#2ca02c;stroke:#2ca02c;" x="259.11983" xlink:href="#m92edfcde95" y="161.434705"/>
     <use style="fill:#2ca02c;stroke:#2ca02c;" x="264.221545" xlink:href="#m92edfcde95" y="167.073887"/>
     <use style="fill:#2ca02c;stroke:#2ca02c;" x="269.323259" xlink:href="#m92edfcde95" y="172.917887"/>
     <use style="fill:#2ca02c;stroke:#2ca02c;" x="274.424973" xlink:href="#m92edfcde95" y="178.941348"/>
     <use style="fill:#2ca02c;stroke:#2ca02c;" x="279.526688" xlink:href="#m92edfcde95" y="185.119597"/>
     <use style="fill:#2ca02c;stroke:#2ca02c;" x="284.628402" xlink:href="#m92edfcde95" y="191.428688"/>
     <use style="fill:#2ca02c;stroke:#2ca02c;" x="289.730116" xlink:href="#m92edfcde95" y="197.84543"/>
     <use style="fill:#2ca02c;stroke:#2ca02c;" x="294.83183" xlink:href="#m92edfcde95" y="204.347415"/>
     <use style="fill:#2ca02c;stroke:#2ca02c;" x="299.933545" xlink:href="#m92edfcde95" y="210.913042"/>
     <use style="fill:#2ca02c;stroke:#2ca02c;" x="305.035259" xlink:href="#m92edfcde95" y="217.52153"/>
     <use style="fill:#2ca02c;stroke:#2ca02c;" x="310.136973" xlink:href="#m92edfcde95" y="224.152931"/>
     <use style="fill:#2ca02c;stroke:#2ca02c;" x="315.238688" xlink:href="#m92edfcde95" y="230.788141"/>
     <use style="fill:#2ca02c;stroke:#2ca02c;" x="320.340402" xlink:href="#m92edfcde95" y="237.408905"/>
     <use style="fill:#2ca02c;stroke:#2ca02c;" x="325.442116" xlink:href="#m92edfcde95" y="243.997819"/>
     <use style="fill:#2ca02c;stroke:#2ca02c;" x="330.54383" xlink:href="#m92edfcde95" y="250.538328"/>
     <use style="fill:#2ca02c;stroke:#2ca02c;" x="335.645545" xlink:href="#m92edfcde95" y="257.014727"/>
     <use style="fill:#2ca02c;stroke:#2ca02c;" x="340.747259" xlink:href="#m92edfcde95" y="263.412151"/>
     <use style="fill:#2ca02c;stroke:#2ca02c;" x="345.848973" xlink:href="#m92edfcde95" y="269.716572"/>
     <use style="fill:#2ca02c;stroke:#2ca02c;" x="350.950688" xlink:href="#m92edfcde95" y="270.709213"/>
     <use style="fill:#2ca02c;stroke:#2ca02c;" x="356.052402" xlink:href="#m92edfcde95" y="264.629591"/>
     <use style="fill:#2ca02c;stroke:#2ca02c;" x="361.154116" xlink:href="#m92edfcde95" y="258.680147"/>
     <use style="fill:#2ca02c;stroke:#2ca02c;" x="366.25583" xlink:href="#m92edfcde95" y="252.871675"/>
     <use style="fill:#2ca02c;stroke:#2ca02c;" x="371.357545" xlink:href="#m92edfcde95" y="247.214195"/>
     <use style="fill:#2ca02c;stroke:#2ca02c;" x="376.459259" xlink:href="#m92edfcde95" y="241.716967"/>
     <use style="fill:#2ca02c;stroke:#2ca02c;" x="381.560973" xlink:href="#m92edfcde95" y="236.388508"/>
     <use style="fill:#2ca02c;stroke:#2ca02c;" x="386.662688" xlink:href="#m92edfcde95" y="231.236612"/>
     <use style="fill:#2ca02c;stroke:#2ca02c;" x="391.764402" xlink:href="#m92edfcde95" y="226.268363"/>
     <use style="fill:#2ca02c;stroke:#2ca02c;" x="396.866116" xlink:href="#m92edfcde95" y="221.490158"/>
     <use style="fill:#2ca02c;stroke:#2ca02c;" x="401.96783" xlink:href="#m92edfcde95" y="216.907726"/>
     <use style="fill:#2ca02c;stroke:#2ca02c;" x="407.069545" xlink:href="#m92edfcde95" y="212.526142"/>
     <use style="fill:#2ca02c;stroke:#2ca02c;" x="412.171259" xlink:href="#m92edfcde95" y="208.349855"/>
     <use style="fill:#2ca02c;stroke:#2ca02c;" x="417.272973" xlink:href="#m92edfcde95" y="204.382702"/>
     <use style="fill:#2ca02c;stroke:#2ca02c;" x="422.374688" xlink:href="#m92edfcde95" y="200.627931"/>
    </g>
   </g>
   <g id="line2d_36">
    <path clip-path="url(#pf39720cbdc)" d="M 65.254688 273.312 
L 70.356402 273.312 
L 75.458116 273.312 
L 80.55983 273.312 
L 85.661545 271.016323 
L 90.763259 268.370218 
L 95.864973 265.073971 
L 100.966688 261.203798 
L 106.068402 256.839907 
L 111.170116 252.05888 
L 116.27183 246.932569 
L 121.373545 241.527974 
L 126.475259 235.907362 
L 131.576973 230.128446 
L 136.678688 224.244583 
L 141.780402 218.304982 
L 146.882116 212.354897 
L 151.98383 206.435827 
L 157.085545 200.585704 
L 162.187259 194.839073 
L 167.288973 189.227273 
L 172.390688 183.778598 
L 177.492402 178.518468 
L 182.594116 173.469581 
L 187.69583 168.652065 
L 192.797545 164.08362 
L 197.899259 159.779662 
L 203.000973 155.75345 
L 208.102688 152.016218 
L 213.204402 148.577297 
L 218.306116 145.44423 
L 223.40783 142.622889 
L 228.509545 140.117577 
L 233.611259 137.931136 
L 238.712973 136.065045 
L 243.814688 134.519511 
L 248.916402 133.293564 
L 254.018116 132.385141 
L 259.11983 131.791168 
L 264.221545 131.507641 
L 269.323259 131.529697 
L 274.424973 131.851689 
L 279.526688 132.467255 
L 284.628402 133.369379 
L 289.730116 134.550454 
L 294.83183 136.002346 
L 299.933545 137.716441 
L 305.035259 139.683706 
L 310.136973 141.894733 
L 315.238688 144.339792 
L 320.340402 147.008873 
L 325.442116 149.891729 
L 330.54383 152.977917 
L 335.645545 156.256837 
L 340.747259 159.717767 
L 345.848973 163.349895 
L 350.950688 167.142355 
L 356.052402 171.084256 
L 361.154116 175.164705 
L 366.25583 179.37284 
L 371.357545 183.697853 
L 376.459259 188.12901 
L 381.560973 192.655674 
L 386.662688 197.267328 
L 391.764402 201.95359 
L 396.866116 206.704229 
L 401.96783 211.509185 
L 407.069545 216.35858 
L 412.171259 221.242735 
L 417.272973 226.152176 
L 422.374688 231.077653 
" style="fill:none;stroke:#d62728;stroke-linecap:square;stroke-width:1.5;"/>
    <defs>
     <path d="M 0 1.5 
C 0.397805 1.5 0.77937 1.341951 1.06066 1.06066 
C 1.341951 0.77937 1.5 0.397805 1.5 0 
C 1.5 -0.397805 1.341951 -0.77937 1.06066 -1.06066 
C 0.77937 -1.341951 0.397805 -1.5 0 -1.5 
C -0.397805 -1.5 -0.77937 -1.341951 -1.06066 -1.06066 
C -1.341951 -0.77937 -1.5 -0.397805 -1.5 0 
C -1.5 0.397805 -1.341951 0.77937 -1.06066 1.06066 
C -0.77937 1.341951 -0.397805 1.5 0 1.5 
z
" id="m851f591001" style="stroke:#d62728;"/>
    </defs>
    <g clip-path="url(#pf39720cbdc)">
     <use style="fill:#d62728;stroke:#d62728;" x="65.254688" xlink:href="#m851f591001" y="273.312"/>
     <use style="fill:#d62728;stroke:#d62728;" x="70.356402" xlink:href="#m851f591001" y="273.312"/>
     <use style="fill:#d62728;stroke:#d62728;" x="75.458116" xlink:href="#m851f591001" y="273.312"/>
     <use style="fill:#d62728;stroke:#d62728;" x="80.55983" xlink:href="#m851f591001" y="273.312"/>
     <use style="fill:#d62728;stroke:#d62728;" x="85.661545" xlink:href="#m851f591001" y="271.016323"/>
     <use style="fill:#d62728;stroke:#d62728;" x="90.763259" xlink:href="#m851f591001" y="268.370218"/>
     <use style="fill:#d62728;stroke:#d62728;" x="95.864973" xlink:href="#m851f591001" y="265.073971"/>
     <use style="fill:#d62728;stroke:#d62728;" x="100.966688" xlink:href="#m851f591001" y="261.203798"/>
     <use style="fill:#d62728;stroke:#d62728;" x="106.068402" xlink:href="#m851f591001" y="256.839907"/>
     <use style="fill:#d62728;stroke:#d62728;" x="111.170116" xlink:href="#m851f591001" y="252.05888"/>
     <use style="fill:#d62728;stroke:#d62728;" x="116.27183" xlink:href="#m851f591001" y="246.932569"/>
     <use style="fill:#d62728;stroke:#d62728;" x="121.373545" xlink:href="#m851f591001" y="241.527974"/>
     <use style="fill:#d62728;stroke:#d62728;" x="126.475259" xlink:href="#m851f591001" y="235.907362"/>
     <use style="fill:#d62728;stroke:#d62728;" x="131.576973" xlink:href="#m851f591001" y="230.128446"/>
     <use style="fill:#d62728;stroke:#d62728;" x="136.678688" xlink:href="#m851f591001" y="224.244583"/>
     <use style="fill:#d62728;stroke:#d62728;" x="141.780402" xlink:href="#m851f591001" y="218.304982"/>
     <use style="fill:#d62728;stroke:#d62728;" x="146.882116" xlink:href="#m851f591001" y="212.354897"/>
     <use style="fill:#d62728;stroke:#d62728;" x="151.98383" xlink:href="#m851f591001" y="206.435827"/>
     <use style="fill:#d62728;stroke:#d62728;" x="157.085545" xlink:href="#m851f591001" y="200.585704"/>
     <use style="fill:#d62728;stroke:#d62728;" x="162.187259" xlink:href="#m851f591001" y="194.839073"/>
     <use style="fill:#d62728;stroke:#d62728;" x="167.288973" xlink:href="#m851f591001" y="189.227273"/>
     <use style="fill:#d62728;stroke:#d62728;" x="172.390688" xlink:href="#m851f591001" y="183.778598"/>
     <use style="fill:#d62728;stroke:#d62728;" x="177.492402" xlink:href="#m851f591001" y="178.518468"/>
     <use style="fill:#d62728;stroke:#d62728;" x="182.594116" xlink:href="#m851f591001" y="173.469581"/>
     <use style="fill:#d62728;stroke:#d62728;" x="187.69583" xlink:href="#m851f591001" y="168.652065"/>
     <use style="fill:#d62728;stroke:#d62728;" x="192.797545" xlink:href="#m851f591001" y="164.08362"/>
     <use style="fill:#d62728;stroke:#d62728;" x="197.899259" xlink:href="#m851f591001" y="159.779662"/>
     <use style="fill:#d62728;stroke:#d62728;" x="203.000973" xlink:href="#m851f591001" y="155.75345"/>
     <use style="fill:#d62728;stroke:#d62728;" x="208.102688" xlink:href="#m851f591001" y="152.016218"/>
     <use style="fill:#d62728;stroke:#d62728;" x="213.204402" xlink:href="#m851f591001" y="148.577297"/>
     <use style="fill:#d62728;stroke:#d62728;" x="218.306116" xlink:href="#m851f591001" y="145.44423"/>
     <use style="fill:#d62728;stroke:#d62728;" x="223.40783" xlink:href="#m851f591001" y="142.622889"/>
     <use style="fill:#d62728;stroke:#d62728;" x="228.509545" xlink:href="#m851f591001" y="140.117577"/>
     <use style="fill:#d62728;stroke:#d62728;" x="233.611259" xlink:href="#m851f591001" y="137.931136"/>
     <use style="fill:#d62728;stroke:#d62728;" x="238.712973" xlink:href="#m851f591001" y="136.065045"/>
     <use style="fill:#d62728;stroke:#d62728;" x="243.814688" xlink:href="#m851f591001" y="134.519511"/>
     <use style="fill:#d62728;stroke:#d62728;" x="248.916402" xlink:href="#m851f591001" y="133.293564"/>
     <use style="fill:#d62728;stroke:#d62728;" x="254.018116" xlink:href="#m851f591001" y="132.385141"/>
     <use style="fill:#d62728;stroke:#d62728;" x="259.11983" xlink:href="#m851f591001" y="131.791168"/>
     <use style="fill:#d62728;stroke:#d62728;" x="264.221545" xlink:href="#m851f591001" y="131.507641"/>
     <use style="fill:#d62728;stroke:#d62728;" x="269.323259" xlink:href="#m851f591001" y="131.529697"/>
     <use style="fill:#d62728;stroke:#d62728;" x="274.424973" xlink:href="#m851f591001" y="131.851689"/>
     <use style="fill:#d62728;stroke:#d62728;" x="279.526688" xlink:href="#m851f591001" y="132.467255"/>
     <use style="fill:#d62728;stroke:#d62728;" x="284.628402" xlink:href="#m851f591001" y="133.369379"/>
     <use style="fill:#d62728;stroke:#d62728;" x="289.730116" xlink:href="#m851f591001" y="134.550454"/>
     <use style="fill:#d62728;stroke:#d62728;" x="294.83183" xlink:href="#m851f591001" y="136.002346"/>
     <use style="fill:#d62728;stroke:#d62728;" x="299.933545" xlink:href="#m851f591001" y="137.716441"/>
     <use style="fill:#d62728;stroke:#d62728;" x="305.035259" xlink:href="#m851f591001" y="139.683706"/>
     <use style="fill:#d62728;stroke:#d62728;" x="310.136973" xlink:href="#m851f591001" y="141.894733"/>
     <use style="fill:#d62728;stroke:#d62728;" x="315.238688" xlink:href="#m851f591001" y="144.339792"/>
     <use style="fill:#d62728;stroke:#d62728;" x="320.340402" xlink:href="#m851f591001" y="147.008873"/>
     <use style="fill:#d62728;stroke:#d62728;" x="325.442116" xlink:href="#m851f591001" y="149.891729"/>
     <use style="fill:#d62728;stroke:#d62728;" x="330.54383" xlink:href="#m851f591001" y="152.977917"/>
     <use style="fill:#d62728;stroke:#d62728;" x="335.645545" xlink:href="#m851f591001" y="156.256837"/>
     <use style="fill:#d62728;stroke:#d62728;" x="340.747259" xlink:href="#m851f591001" y="159.717767"/>
     <use style="fill:#d62728;stroke:#d62728;" x="345.848973" xlink:href="#m851f591001" y="163.349895"/>
     <use style="fill:#d62728;stroke:#d62728;" x="350.950688" xlink:href="#m851f591001" y="167.142355"/>
     <use style="fill:#d62728;stroke:#d62728;" x="356.052402" xlink:href="#m851f591001" y="171.084256"/>
     <use style="fill:#d62728;stroke:#d62728;" x="361.154116" xlink:href="#m851f591001" y="175.164705"/>
     <use style="fill:#d62728;stroke:#d62728;" x="366.25583" xlink:href="#m851f591001" y="179.37284"/>
     <use style="fill:#d62728;stroke:#d62728;" x="371.357545" xlink:href="#m851f591001" y="183.697853"/>
     <use style="fill:#d62728;stroke:#d62728;" x="376.459259" xlink:href="#m851f591001" y="188.12901"/>
     <use style="fill:#d62728;stroke:#d62728;" x="381.560973" xlink:href="#m851f591001" y="192.655674"/>
     <use style="fill:#d62728;stroke:#d62728;" x="386.662688" xlink:href="#m851f591001" y="197.267328"/>
     <use style="fill:#d62728;stroke:#d62728;" x="391.764402" xlink:href="#m851f591001" y="201.95359"/>
     <use style="fill:#d62728;stroke:#d62728;" x="396.866116" xlink:href="#m851f591001" y="206.704229"/>
     <use style="fill:#d62728;stroke:#d62728;" x="401.96783" xlink:href="#m851f591001" y="211.509185"/>
     <use style="fill:#d62728;stroke:#d62728;" x="407.069545" xlink:href="#m851f591001" y="216.35858"/>
     <use style="fill:#d62728;stroke:#d62728;" x="412.171259" xlink:href="#m851f591001" y="221.242735"/>
     <use style="fill:#d62728;stroke:#d62728;" x="417.272973" xlink:href="#m851f591001" y="226.152176"/>
     <use style="fill:#d62728;stroke:#d62728;" x="422.374688" xlink:href="#m851f591001" y="231.077653"/>
    </g>
   </g>
   <g id="line2d_37">
    <path clip-path="url(#pf39720cbdc)" d="M 65.254688 273.312 
L 70.356402 273.312 
L 75.458116 273.312 
L 80.55983 273.312 
L 85.661545 273.312 
L 90.763259 272.86859 
L 95.864973 272.259639 
L 100.966688 271.404701 
L 106.068402 270.295119 
L 111.170116 268.929333 
L 116.27183 267.310285 
L 121.373545 265.444266 
L 126.475259 263.340157 
L 131.576973 261.008871 
L 136.678688 258.462909 
L 141.780402 255.716006 
L 146.882116 252.782838 
L 151.98383 249.678781 
L 157.085545 246.4197 
L 162.187259 243.021781 
L 167.288973 239.501379 
L 172.390688 235.874892 
L 177.492402 232.158653 
L 182.594116 228.368833 
L 187.69583 224.521367 
L 192.797545 220.63188 
L 197.899259 216.715631 
L 203.000973 212.787464 
L 208.102688 208.861763 
L 213.204402 204.952419 
L 218.306116 201.072802 
L 223.40783 197.235735 
L 228.509545 193.453476 
L 233.611259 189.737702 
L 238.712973 186.099501 
L 243.814688 182.549363 
L 248.916402 179.097173 
L 254.018116 175.752214 
L 259.11983 172.523163 
L 264.221545 169.418099 
L 269.323259 166.444501 
L 274.424973 163.609261 
L 279.526688 160.918687 
L 284.628402 158.378515 
L 289.730116 155.99392 
L 294.83183 153.769524 
L 299.933545 151.709412 
L 305.035259 149.817143 
L 310.136973 148.095765 
L 315.238688 146.54783 
L 320.340402 145.175406 
L 325.442116 143.980096 
L 330.54383 142.963051 
L 335.645545 142.124986 
L 340.747259 141.4662 
L 345.848973 140.986585 
L 350.950688 140.68565 
L 356.052402 140.562532 
L 361.154116 140.616015 
L 366.25583 140.844544 
L 371.357545 141.246246 
L 376.459259 141.818938 
L 381.560973 142.560152 
L 386.662688 143.467145 
L 391.764402 144.536915 
L 396.866116 145.766218 
L 401.96783 147.151584 
L 407.069545 148.689329 
L 412.171259 150.375571 
L 417.272973 152.206244 
L 422.374688 154.177113 
" style="fill:none;stroke:#9467bd;stroke-linecap:square;stroke-width:1.5;"/>
    <defs>
     <path d="M 0 1.5 
C 0.397805 1.5 0.77937 1.341951 1.06066 1.06066 
C 1.341951 0.77937 1.5 0.397805 1.5 0 
C 1.5 -0.397805 1.341951 -0.77937 1.06066 -1.06066 
C 0.77937 -1.341951 0.397805 -1.5 0 -1.5 
C -0.397805 -1.5 -0.77937 -1.341951 -1.06066 -1.06066 
C -1.341951 -0.77937 -1.5 -0.397805 -1.5 0 
C -1.5 0.397805 -1.341951 0.77937 -1.06066 1.06066 
C -0.77937 1.341951 -0.397805 1.5 0 1.5 
z
" id="me6e501cf36" style="stroke:#9467bd;"/>
    </defs>
    <g clip-path="url(#pf39720cbdc)">
     <use style="fill:#9467bd;stroke:#9467bd;" x="65.254688" xlink:href="#me6e501cf36" y="273.312"/>
     <use style="fill:#9467bd;stroke:#9467bd;" x="70.356402" xlink:href="#me6e501cf36" y="273.312"/>
     <use style="fill:#9467bd;stroke:#9467bd;" x="75.458116" xlink:href="#me6e501cf36" y="273.312"/>
     <use style="fill:#9467bd;stroke:#9467bd;" x="80.55983" xlink:href="#me6e501cf36" y="273.312"/>
     <use style="fill:#9467bd;stroke:#9467bd;" x="85.661545" xlink:href="#me6e501cf36" y="273.312"/>
     <use style="fill:#9467bd;stroke:#9467bd;" x="90.763259" xlink:href="#me6e501cf36" y="272.86859"/>
     <use style="fill:#9467bd;stroke:#9467bd;" x="95.864973" xlink:href="#me6e501cf36" y="272.259639"/>
     <use style="fill:#9467bd;stroke:#9467bd;" x="100.966688" xlink:href="#me6e501cf36" y="271.404701"/>
     <use style="fill:#9467bd;stroke:#9467bd;" x="106.068402" xlink:href="#me6e501cf36" y="270.295119"/>
     <use style="fill:#9467bd;stroke:#9467bd;" x="111.170116" xlink:href="#me6e501cf36" y="268.929333"/>
     <use style="fill:#9467bd;stroke:#9467bd;" x="116.27183" xlink:href="#me6e501cf36" y="267.310285"/>
     <use style="fill:#9467bd;stroke:#9467bd;" x="121.373545" xlink:href="#me6e501cf36" y="265.444266"/>
     <use style="fill:#9467bd;stroke:#9467bd;" x="126.475259" xlink:href="#me6e501cf36" y="263.340157"/>
     <use style="fill:#9467bd;stroke:#9467bd;" x="131.576973" xlink:href="#me6e501cf36" y="261.008871"/>
     <use style="fill:#9467bd;stroke:#9467bd;" x="136.678688" xlink:href="#me6e501cf36" y="258.462909"/>
     <use style="fill:#9467bd;stroke:#9467bd;" x="141.780402" xlink:href="#me6e501cf36" y="255.716006"/>
     <use style="fill:#9467bd;stroke:#9467bd;" x="146.882116" xlink:href="#me6e501cf36" y="252.782838"/>
     <use style="fill:#9467bd;stroke:#9467bd;" x="151.98383" xlink:href="#me6e501cf36" y="249.678781"/>
     <use style="fill:#9467bd;stroke:#9467bd;" x="157.085545" xlink:href="#me6e501cf36" y="246.4197"/>
     <use style="fill:#9467bd;stroke:#9467bd;" x="162.187259" xlink:href="#me6e501cf36" y="243.021781"/>
     <use style="fill:#9467bd;stroke:#9467bd;" x="167.288973" xlink:href="#me6e501cf36" y="239.501379"/>
     <use style="fill:#9467bd;stroke:#9467bd;" x="172.390688" xlink:href="#me6e501cf36" y="235.874892"/>
     <use style="fill:#9467bd;stroke:#9467bd;" x="177.492402" xlink:href="#me6e501cf36" y="232.158653"/>
     <use style="fill:#9467bd;stroke:#9467bd;" x="182.594116" xlink:href="#me6e501cf36" y="228.368833"/>
     <use style="fill:#9467bd;stroke:#9467bd;" x="187.69583" xlink:href="#me6e501cf36" y="224.521367"/>
     <use style="fill:#9467bd;stroke:#9467bd;" x="192.797545" xlink:href="#me6e501cf36" y="220.63188"/>
     <use style="fill:#9467bd;stroke:#9467bd;" x="197.899259" xlink:href="#me6e501cf36" y="216.715631"/>
     <use style="fill:#9467bd;stroke:#9467bd;" x="203.000973" xlink:href="#me6e501cf36" y="212.787464"/>
     <use style="fill:#9467bd;stroke:#9467bd;" x="208.102688" xlink:href="#me6e501cf36" y="208.861763"/>
     <use style="fill:#9467bd;stroke:#9467bd;" x="213.204402" xlink:href="#me6e501cf36" y="204.952419"/>
     <use style="fill:#9467bd;stroke:#9467bd;" x="218.306116" xlink:href="#me6e501cf36" y="201.072802"/>
     <use style="fill:#9467bd;stroke:#9467bd;" x="223.40783" xlink:href="#me6e501cf36" y="197.235735"/>
     <use style="fill:#9467bd;stroke:#9467bd;" x="228.509545" xlink:href="#me6e501cf36" y="193.453476"/>
     <use style="fill:#9467bd;stroke:#9467bd;" x="233.611259" xlink:href="#me6e501cf36" y="189.737702"/>
     <use style="fill:#9467bd;stroke:#9467bd;" x="238.712973" xlink:href="#me6e501cf36" y="186.099501"/>
     <use style="fill:#9467bd;stroke:#9467bd;" x="243.814688" xlink:href="#me6e501cf36" y="182.549363"/>
     <use style="fill:#9467bd;stroke:#9467bd;" x="248.916402" xlink:href="#me6e501cf36" y="179.097173"/>
     <use style="fill:#9467bd;stroke:#9467bd;" x="254.018116" xlink:href="#me6e501cf36" y="175.752214"/>
     <use style="fill:#9467bd;stroke:#9467bd;" x="259.11983" xlink:href="#me6e501cf36" y="172.523163"/>
     <use style="fill:#9467bd;stroke:#9467bd;" x="264.221545" xlink:href="#me6e501cf36" y="169.418099"/>
     <use style="fill:#9467bd;stroke:#9467bd;" x="269.323259" xlink:href="#me6e501cf36" y="166.444501"/>
     <use style="fill:#9467bd;stroke:#9467bd;" x="274.424973" xlink:href="#me6e501cf36" y="163.609261"/>
     <use style="fill:#9467bd;stroke:#9467bd;" x="279.526688" xlink:href="#me6e501cf36" y="160.918687"/>
     <use style="fill:#9467bd;stroke:#9467bd;" x="284.628402" xlink:href="#me6e501cf36" y="158.378515"/>
     <use style="fill:#9467bd;stroke:#9467bd;" x="289.730116" xlink:href="#me6e501cf36" y="155.99392"/>
     <use style="fill:#9467bd;stroke:#9467bd;" x="294.83183" xlink:href="#me6e501cf36" y="153.769524"/>
     <use style="fill:#9467bd;stroke:#9467bd;" x="299.933545" xlink:href="#me6e501cf36" y="151.709412"/>
     <use style="fill:#9467bd;stroke:#9467bd;" x="305.035259" xlink:href="#me6e501cf36" y="149.817143"/>
     <use style="fill:#9467bd;stroke:#9467bd;" x="310.136973" xlink:href="#me6e501cf36" y="148.095765"/>
     <use style="fill:#9467bd;stroke:#9467bd;" x="315.238688" xlink:href="#me6e501cf36" y="146.54783"/>
     <use style="fill:#9467bd;stroke:#9467bd;" x="320.340402" xlink:href="#me6e501cf36" y="145.175406"/>
     <use style="fill:#9467bd;stroke:#9467bd;" x="325.442116" xlink:href="#me6e501cf36" y="143.980096"/>
     <use style="fill:#9467bd;stroke:#9467bd;" x="330.54383" xlink:href="#me6e501cf36" y="142.963051"/>
     <use style="fill:#9467bd;stroke:#9467bd;" x="335.645545" xlink:href="#me6e501cf36" y="142.124986"/>
     <use style="fill:#9467bd;stroke:#9467bd;" x="340.747259" xlink:href="#me6e501cf36" y="141.4662"/>
     <use style="fill:#9467bd;stroke:#9467bd;" x="345.848973" xlink:href="#me6e501cf36" y="140.986585"/>
     <use style="fill:#9467bd;stroke:#9467bd;" x="350.950688" xlink:href="#me6e501cf36" y="140.68565"/>
     <use style="fill:#9467bd;stroke:#9467bd;" x="356.052402" xlink:href="#me6e501cf36" y="140.562532"/>
     <use style="fill:#9467bd;stroke:#9467bd;" x="361.154116" xlink:href="#me6e501cf36" y="140.616015"/>
     <use style="fill:#9467bd;stroke:#9467bd;" x="366.25583" xlink:href="#me6e501cf36" y="140.844544"/>
     <use style="fill:#9467bd;stroke:#9467bd;" x="371.357545" xlink:href="#me6e501cf36" y="141.246246"/>
     <use style="fill:#9467bd;stroke:#9467bd;" x="376.459259" xlink:href="#me6e501cf36" y="141.818938"/>
     <use style="fill:#9467bd;stroke:#9467bd;" x="381.560973" xlink:href="#me6e501cf36" y="142.560152"/>
     <use style="fill:#9467bd;stroke:#9467bd;" x="386.662688" xlink:href="#me6e501cf36" y="143.467145"/>
     <use style="fill:#9467bd;stroke:#9467bd;" x="391.764402" xlink:href="#me6e501cf36" y="144.536915"/>
     <use style="fill:#9467bd;stroke:#9467bd;" x="396.866116" xlink:href="#me6e501cf36" y="145.766218"/>
     <use style="fill:#9467bd;stroke:#9467bd;" x="401.96783" xlink:href="#me6e501cf36" y="147.151584"/>
     <use style="fill:#9467bd;stroke:#9467bd;" x="407.069545" xlink:href="#me6e501cf36" y="148.689329"/>
     <use style="fill:#9467bd;stroke:#9467bd;" x="412.171259" xlink:href="#me6e501cf36" y="150.375571"/>
     <use style="fill:#9467bd;stroke:#9467bd;" x="417.272973" xlink:href="#me6e501cf36" y="152.206244"/>
     <use style="fill:#9467bd;stroke:#9467bd;" x="422.374688" xlink:href="#me6e501cf36" y="154.177113"/>
    </g>
   </g>
   <g id="patch_3">
    <path d="M 65.254688 273.312 
L 65.254688 7.2 
" style="fill:none;stroke:#000000;stroke-linecap:square;stroke-linejoin:miter;stroke-width:0.8;"/>
   </g>
   <g id="patch_4">
    <path d="M 422.374688 273.312 
L 422.374688 7.2 
" style="fill:none;stroke:#000000;stroke-linecap:square;stroke-linejoin:miter;stroke-width:0.8;"/>
   </g>
   <g id="patch_5">
    <path d="M 65.254688 273.312 
L 422.374688 273.312 
" style="fill:none;stroke:#000000;stroke-linecap:square;stroke-linejoin:miter;stroke-width:0.8;"/>
   </g>
   <g id="patch_6">
    <path d="M 65.254688 7.2 
L 422.374688 7.2 
" style="fill:none;stroke:#000000;stroke-linecap:square;stroke-linejoin:miter;stroke-width:0.8;"/>
   </g>
   <g id="text_19">
    <!-- $\Delta n\!\!=\!\!\!-\!1$ -->
    <g style="fill:#1f77b4;" transform="translate(65.254688 60.4224)scale(0.2 -0.2)">
     <defs>
      <path d="M 10.59375 45.40625 
L 73.1875 45.40625 
L 73.1875 37.203125 
L 10.59375 37.203125 
z
M 10.59375 25.484375 
L 73.1875 25.484375 
L 73.1875 17.1875 
L 10.59375 17.1875 
z
" id="DejaVuSans-61"/>
      <path d="M 10.59375 35.5 
L 73.1875 35.5 
L 73.1875 27.203125 
L 10.59375 27.203125 
z
" id="DejaVuSans-8722"/>
     </defs>
     <use transform="translate(0 0.09375)" xlink:href="#DejaVuSans-916"/>
     <use transform="translate(68.408203 0.09375)" xlink:href="#DejaVuSans-Oblique-110"/>
     <use transform="translate(118.798179 0.09375)" xlink:href="#DejaVuSans-61"/>
     <use transform="translate(192.845056 0.09375)" xlink:href="#DejaVuSans-8722"/>
     <use transform="translate(279.880864 0.09375)" xlink:href="#DejaVuSans-49"/>
    </g>
   </g>
   <g id="text_20">
    <!-- $\Delta n\!\!=\!\!\!-\!2$ -->
    <g style="fill:#ff7f0e;" transform="translate(111.170116 85.25952)scale(0.2 -0.2)">
     <use transform="translate(0 0.78125)" xlink:href="#DejaVuSans-916"/>
     <use transform="translate(68.408203 0.78125)" xlink:href="#DejaVuSans-Oblique-110"/>
     <use transform="translate(118.798179 0.78125)" xlink:href="#DejaVuSans-61"/>
     <use transform="translate(192.845056 0.78125)" xlink:href="#DejaVuSans-8722"/>
     <use transform="translate(279.880864 0.78125)" xlink:href="#DejaVuSans-50"/>
    </g>
   </g>
   <g id="text_21">
    <!-- $\Delta n\!\!=\!\!\!-\!3$ -->
    <g style="fill:#2ca02c;" transform="translate(162.187259 113.6448)scale(0.2 -0.2)">
     <use transform="translate(0 0.78125)" xlink:href="#DejaVuSans-916"/>
     <use transform="translate(68.408203 0.78125)" xlink:href="#DejaVuSans-Oblique-110"/>
     <use transform="translate(118.798179 0.78125)" xlink:href="#DejaVuSans-61"/>
     <use transform="translate(192.845056 0.78125)" xlink:href="#DejaVuSans-8722"/>
     <use transform="translate(279.880864 0.78125)" xlink:href="#DejaVuSans-51"/>
    </g>
   </g>
   <g id="text_22">
    <!-- $\Delta n\!\!=\!\!\!-\!4$ -->
    <g style="fill:#d62728;" transform="translate(248.916402 127.83744)scale(0.2 -0.2)">
     <use transform="translate(0 0.09375)" xlink:href="#DejaVuSans-916"/>
     <use transform="translate(68.408203 0.09375)" xlink:href="#DejaVuSans-Oblique-110"/>
     <use transform="translate(118.798179 0.09375)" xlink:href="#DejaVuSans-61"/>
     <use transform="translate(192.845056 0.09375)" xlink:href="#DejaVuSans-8722"/>
     <use transform="translate(279.880864 0.09375)" xlink:href="#DejaVuSans-52"/>
    </g>
   </g>
   <g id="text_23">
    <!-- $\Delta n\!\!=\!\!\!-\!5$ -->
    <g style="fill:#9467bd;" transform="translate(335.645545 134.93376)scale(0.2 -0.2)">
     <use transform="translate(0 0.09375)" xlink:href="#DejaVuSans-916"/>
     <use transform="translate(68.408203 0.09375)" xlink:href="#DejaVuSans-Oblique-110"/>
     <use transform="translate(118.798179 0.09375)" xlink:href="#DejaVuSans-61"/>
     <use transform="translate(192.845056 0.09375)" xlink:href="#DejaVuSans-8722"/>
     <use transform="translate(279.880864 0.09375)" xlink:href="#DejaVuSans-53"/>
    </g>
   </g>
  </g>
 </g>
 <defs>
  <clipPath id="pf39720cbdc">
   <rect height="266.112" width="357.12" x="65.254688" y="7.2"/>
  </clipPath>
 </defs>
</svg>
