<?xml version="1.0" encoding="utf-8" standalone="no"?>
<!DOCTYPE svg PUBLIC "-//W3C//DTD SVG 1.1//EN"
  "http://www.w3.org/Graphics/SVG/1.1/DTD/svg11.dtd">
<!-- Created with matplotlib (https://matplotlib.org/) -->
<svg height="331.128016pt" version="1.1" viewBox="0 0 426.311178 331.128016" width="426.311178pt" xmlns="http://www.w3.org/2000/svg" xmlns:xlink="http://www.w3.org/1999/xlink">
 <defs>
  <style type="text/css">*{stroke-linecap:butt;stroke-linejoin:round;}</style>
 </defs>
 <g id="figure_1">
  <g id="patch_1">
   <path d="M 0 331.128016 
L 426.311178 331.128016 
L 426.311178 0 
L 0 0 
z
" style="fill:none;"/>
  </g>
  <g id="axes_1">
   <g id="patch_2">
    <path d="M 61.410938 279.010828 
L 418.530938 279.010828 
L 418.530938 12.898828 
L 61.410938 12.898828 
z
" style="fill:none;"/>
   </g>
   <g id="matplotlib.axis_1">
    <g id="xtick_1">
     <g id="line2d_1">
      <path clip-path="url(#p304c686b55)" d="M 61.410938 279.010828 
L 61.410938 12.898828 
" style="fill:none;stroke:#b0b0b0;stroke-linecap:square;stroke-width:0.8;"/>
     </g>
     <g id="line2d_2">
      <defs>
       <path d="M 0 0 
L 0 3.5 
" id="m005f0a59be" style="stroke:#000000;stroke-width:0.8;"/>
      </defs>
      <g>
       <use style="stroke:#000000;stroke-width:0.8;" x="61.410938" xlink:href="#m005f0a59be" y="279.010828"/>
      </g>
     </g>
     <g id="text_1">
      <!-- 0 -->
      <g transform="translate(56.639063 297.408484)scale(0.15 -0.15)">
       <defs>
        <path d="M 31.78125 66.40625 
Q 24.171875 66.40625 20.328125 58.90625 
Q 16.5 51.421875 16.5 36.375 
Q 16.5 21.390625 20.328125 13.890625 
Q 24.171875 6.390625 31.78125 6.390625 
Q 39.453125 6.390625 43.28125 13.890625 
Q 47.125 21.390625 47.125 36.375 
Q 47.125 51.421875 43.28125 58.90625 
Q 39.453125 66.40625 31.78125 66.40625 
z
M 31.78125 74.21875 
Q 44.046875 74.21875 50.515625 64.515625 
Q 56.984375 54.828125 56.984375 36.375 
Q 56.984375 17.96875 50.515625 8.265625 
Q 44.046875 -1.421875 31.78125 -1.421875 
Q 19.53125 -1.421875 13.0625 8.265625 
Q 6.59375 17.96875 6.59375 36.375 
Q 6.59375 54.828125 13.0625 64.515625 
Q 19.53125 74.21875 31.78125 74.21875 
z
" id="DejaVuSans-48"/>
       </defs>
       <use xlink:href="#DejaVuSans-48"/>
      </g>
     </g>
    </g>
    <g id="xtick_2">
     <g id="line2d_3">
      <path clip-path="url(#p304c686b55)" d="M 130.087861 279.010828 
L 130.087861 12.898828 
" style="fill:none;stroke:#b0b0b0;stroke-linecap:square;stroke-width:0.8;"/>
     </g>
     <g id="line2d_4">
      <g>
       <use style="stroke:#000000;stroke-width:0.8;" x="130.087861" xlink:href="#m005f0a59be" y="279.010828"/>
      </g>
     </g>
     <g id="text_2">
      <!-- 100 -->
      <g transform="translate(115.772236 297.408484)scale(0.15 -0.15)">
       <defs>
        <path d="M 12.40625 8.296875 
L 28.515625 8.296875 
L 28.515625 63.921875 
L 10.984375 60.40625 
L 10.984375 69.390625 
L 28.421875 72.90625 
L 38.28125 72.90625 
L 38.28125 8.296875 
L 54.390625 8.296875 
L 54.390625 0 
L 12.40625 0 
z
" id="DejaVuSans-49"/>
       </defs>
       <use xlink:href="#DejaVuSans-49"/>
       <use x="63.623047" xlink:href="#DejaVuSans-48"/>
       <use x="127.246094" xlink:href="#DejaVuSans-48"/>
      </g>
     </g>
    </g>
    <g id="xtick_3">
     <g id="line2d_5">
      <path clip-path="url(#p304c686b55)" d="M 198.764784 279.010828 
L 198.764784 12.898828 
" style="fill:none;stroke:#b0b0b0;stroke-linecap:square;stroke-width:0.8;"/>
     </g>
     <g id="line2d_6">
      <g>
       <use style="stroke:#000000;stroke-width:0.8;" x="198.764784" xlink:href="#m005f0a59be" y="279.010828"/>
      </g>
     </g>
     <g id="text_3">
      <!-- 200 -->
      <g transform="translate(184.449159 297.408484)scale(0.15 -0.15)">
       <defs>
        <path d="M 19.1875 8.296875 
L 53.609375 8.296875 
L 53.609375 0 
L 7.328125 0 
L 7.328125 8.296875 
Q 12.9375 14.109375 22.625 23.890625 
Q 32.328125 33.6875 34.8125 36.53125 
Q 39.546875 41.84375 41.421875 45.53125 
Q 43.3125 49.21875 43.3125 52.78125 
Q 43.3125 58.59375 39.234375 62.25 
Q 35.15625 65.921875 28.609375 65.921875 
Q 23.96875 65.921875 18.8125 64.3125 
Q 13.671875 62.703125 7.8125 59.421875 
L 7.8125 69.390625 
Q 13.765625 71.78125 18.9375 73 
Q 24.125 74.21875 28.421875 74.21875 
Q 39.75 74.21875 46.484375 68.546875 
Q 53.21875 62.890625 53.21875 53.421875 
Q 53.21875 48.921875 51.53125 44.890625 
Q 49.859375 40.875 45.40625 35.40625 
Q 44.1875 33.984375 37.640625 27.21875 
Q 31.109375 20.453125 19.1875 8.296875 
z
" id="DejaVuSans-50"/>
       </defs>
       <use xlink:href="#DejaVuSans-50"/>
       <use x="63.623047" xlink:href="#DejaVuSans-48"/>
       <use x="127.246094" xlink:href="#DejaVuSans-48"/>
      </g>
     </g>
    </g>
    <g id="xtick_4">
     <g id="line2d_7">
      <path clip-path="url(#p304c686b55)" d="M 267.441707 279.010828 
L 267.441707 12.898828 
" style="fill:none;stroke:#b0b0b0;stroke-linecap:square;stroke-width:0.8;"/>
     </g>
     <g id="line2d_8">
      <g>
       <use style="stroke:#000000;stroke-width:0.8;" x="267.441707" xlink:href="#m005f0a59be" y="279.010828"/>
      </g>
     </g>
     <g id="text_4">
      <!-- 300 -->
      <g transform="translate(253.126082 297.408484)scale(0.15 -0.15)">
       <defs>
        <path d="M 40.578125 39.3125 
Q 47.65625 37.796875 51.625 33 
Q 55.609375 28.21875 55.609375 21.1875 
Q 55.609375 10.40625 48.1875 4.484375 
Q 40.765625 -1.421875 27.09375 -1.421875 
Q 22.515625 -1.421875 17.65625 -0.515625 
Q 12.796875 0.390625 7.625 2.203125 
L 7.625 11.71875 
Q 11.71875 9.328125 16.59375 8.109375 
Q 21.484375 6.890625 26.8125 6.890625 
Q 36.078125 6.890625 40.9375 10.546875 
Q 45.796875 14.203125 45.796875 21.1875 
Q 45.796875 27.640625 41.28125 31.265625 
Q 36.765625 34.90625 28.71875 34.90625 
L 20.21875 34.90625 
L 20.21875 43.015625 
L 29.109375 43.015625 
Q 36.375 43.015625 40.234375 45.921875 
Q 44.09375 48.828125 44.09375 54.296875 
Q 44.09375 59.90625 40.109375 62.90625 
Q 36.140625 65.921875 28.71875 65.921875 
Q 24.65625 65.921875 20.015625 65.03125 
Q 15.375 64.15625 9.8125 62.3125 
L 9.8125 71.09375 
Q 15.4375 72.65625 20.34375 73.4375 
Q 25.25 74.21875 29.59375 74.21875 
Q 40.828125 74.21875 47.359375 69.109375 
Q 53.90625 64.015625 53.90625 55.328125 
Q 53.90625 49.265625 50.4375 45.09375 
Q 46.96875 40.921875 40.578125 39.3125 
z
" id="DejaVuSans-51"/>
       </defs>
       <use xlink:href="#DejaVuSans-51"/>
       <use x="63.623047" xlink:href="#DejaVuSans-48"/>
       <use x="127.246094" xlink:href="#DejaVuSans-48"/>
      </g>
     </g>
    </g>
    <g id="xtick_5">
     <g id="line2d_9">
      <path clip-path="url(#p304c686b55)" d="M 336.11863 279.010828 
L 336.11863 12.898828 
" style="fill:none;stroke:#b0b0b0;stroke-linecap:square;stroke-width:0.8;"/>
     </g>
     <g id="line2d_10">
      <g>
       <use style="stroke:#000000;stroke-width:0.8;" x="336.11863" xlink:href="#m005f0a59be" y="279.010828"/>
      </g>
     </g>
     <g id="text_5">
      <!-- 400 -->
      <g transform="translate(321.803005 297.408484)scale(0.15 -0.15)">
       <defs>
        <path d="M 37.796875 64.3125 
L 12.890625 25.390625 
L 37.796875 25.390625 
z
M 35.203125 72.90625 
L 47.609375 72.90625 
L 47.609375 25.390625 
L 58.015625 25.390625 
L 58.015625 17.1875 
L 47.609375 17.1875 
L 47.609375 0 
L 37.796875 0 
L 37.796875 17.1875 
L 4.890625 17.1875 
L 4.890625 26.703125 
z
" id="DejaVuSans-52"/>
       </defs>
       <use xlink:href="#DejaVuSans-52"/>
       <use x="63.623047" xlink:href="#DejaVuSans-48"/>
       <use x="127.246094" xlink:href="#DejaVuSans-48"/>
      </g>
     </g>
    </g>
    <g id="xtick_6">
     <g id="line2d_11">
      <path clip-path="url(#p304c686b55)" d="M 404.795553 279.010828 
L 404.795553 12.898828 
" style="fill:none;stroke:#b0b0b0;stroke-linecap:square;stroke-width:0.8;"/>
     </g>
     <g id="line2d_12">
      <g>
       <use style="stroke:#000000;stroke-width:0.8;" x="404.795553" xlink:href="#m005f0a59be" y="279.010828"/>
      </g>
     </g>
     <g id="text_6">
      <!-- 500 -->
      <g transform="translate(390.479928 297.408484)scale(0.15 -0.15)">
       <defs>
        <path d="M 10.796875 72.90625 
L 49.515625 72.90625 
L 49.515625 64.59375 
L 19.828125 64.59375 
L 19.828125 46.734375 
Q 21.96875 47.46875 24.109375 47.828125 
Q 26.265625 48.1875 28.421875 48.1875 
Q 40.625 48.1875 47.75 41.5 
Q 54.890625 34.8125 54.890625 23.390625 
Q 54.890625 11.625 47.5625 5.09375 
Q 40.234375 -1.421875 26.90625 -1.421875 
Q 22.3125 -1.421875 17.546875 -0.640625 
Q 12.796875 0.140625 7.71875 1.703125 
L 7.71875 11.625 
Q 12.109375 9.234375 16.796875 8.0625 
Q 21.484375 6.890625 26.703125 6.890625 
Q 35.15625 6.890625 40.078125 11.328125 
Q 45.015625 15.765625 45.015625 23.390625 
Q 45.015625 31 40.078125 35.4375 
Q 35.15625 39.890625 26.703125 39.890625 
Q 22.75 39.890625 18.8125 39.015625 
Q 14.890625 38.140625 10.796875 36.28125 
z
" id="DejaVuSans-53"/>
       </defs>
       <use xlink:href="#DejaVuSans-53"/>
       <use x="63.623047" xlink:href="#DejaVuSans-48"/>
       <use x="127.246094" xlink:href="#DejaVuSans-48"/>
      </g>
     </g>
    </g>
    <g id="text_7">
     <!-- Time ($\mu s$) -->
     <g transform="translate(192.570938 319.728016)scale(0.2 -0.2)">
      <defs>
       <path d="M -0.296875 72.90625 
L 61.375 72.90625 
L 61.375 64.59375 
L 35.5 64.59375 
L 35.5 0 
L 25.59375 0 
L 25.59375 64.59375 
L -0.296875 64.59375 
z
" id="DejaVuSans-84"/>
       <path d="M 9.421875 54.6875 
L 18.40625 54.6875 
L 18.40625 0 
L 9.421875 0 
z
M 9.421875 75.984375 
L 18.40625 75.984375 
L 18.40625 64.59375 
L 9.421875 64.59375 
z
" id="DejaVuSans-105"/>
       <path d="M 52 44.1875 
Q 55.375 50.25 60.0625 53.125 
Q 64.75 56 71.09375 56 
Q 79.640625 56 84.28125 50.015625 
Q 88.921875 44.046875 88.921875 33.015625 
L 88.921875 0 
L 79.890625 0 
L 79.890625 32.71875 
Q 79.890625 40.578125 77.09375 44.375 
Q 74.3125 48.1875 68.609375 48.1875 
Q 61.625 48.1875 57.5625 43.546875 
Q 53.515625 38.921875 53.515625 30.90625 
L 53.515625 0 
L 44.484375 0 
L 44.484375 32.71875 
Q 44.484375 40.625 41.703125 44.40625 
Q 38.921875 48.1875 33.109375 48.1875 
Q 26.21875 48.1875 22.15625 43.53125 
Q 18.109375 38.875 18.109375 30.90625 
L 18.109375 0 
L 9.078125 0 
L 9.078125 54.6875 
L 18.109375 54.6875 
L 18.109375 46.1875 
Q 21.1875 51.21875 25.484375 53.609375 
Q 29.78125 56 35.6875 56 
Q 41.65625 56 45.828125 52.96875 
Q 50 49.953125 52 44.1875 
z
" id="DejaVuSans-109"/>
       <path d="M 56.203125 29.59375 
L 56.203125 25.203125 
L 14.890625 25.203125 
Q 15.484375 15.921875 20.484375 11.0625 
Q 25.484375 6.203125 34.421875 6.203125 
Q 39.59375 6.203125 44.453125 7.46875 
Q 49.3125 8.734375 54.109375 11.28125 
L 54.109375 2.78125 
Q 49.265625 0.734375 44.1875 -0.34375 
Q 39.109375 -1.421875 33.890625 -1.421875 
Q 20.796875 -1.421875 13.15625 6.1875 
Q 5.515625 13.8125 5.515625 26.8125 
Q 5.515625 40.234375 12.765625 48.109375 
Q 20.015625 56 32.328125 56 
Q 43.359375 56 49.78125 48.890625 
Q 56.203125 41.796875 56.203125 29.59375 
z
M 47.21875 32.234375 
Q 47.125 39.59375 43.09375 43.984375 
Q 39.0625 48.390625 32.421875 48.390625 
Q 24.90625 48.390625 20.390625 44.140625 
Q 15.875 39.890625 15.1875 32.171875 
z
" id="DejaVuSans-101"/>
       <path id="DejaVuSans-32"/>
       <path d="M 31 75.875 
Q 24.46875 64.65625 21.28125 53.65625 
Q 18.109375 42.671875 18.109375 31.390625 
Q 18.109375 20.125 21.3125 9.0625 
Q 24.515625 -2 31 -13.1875 
L 23.1875 -13.1875 
Q 15.875 -1.703125 12.234375 9.375 
Q 8.59375 20.453125 8.59375 31.390625 
Q 8.59375 42.28125 12.203125 53.3125 
Q 15.828125 64.359375 23.1875 75.875 
z
" id="DejaVuSans-40"/>
       <path d="M -1.3125 -20.796875 
L 13.375 54.6875 
L 22.40625 54.6875 
L 15.765625 20.65625 
Q 15.578125 19.625 15.421875 18.359375 
Q 15.28125 17.09375 15.28125 15.828125 
Q 15.28125 11.28125 18.140625 8.828125 
Q 21 6.390625 26.3125 6.390625 
Q 33.546875 6.390625 37.984375 10.484375 
Q 42.4375 14.59375 44 22.796875 
L 50.203125 54.6875 
L 59.1875 54.6875 
L 51.03125 12.640625 
Q 50.828125 11.71875 50.75 11.03125 
Q 50.6875 10.359375 50.6875 9.8125 
Q 50.6875 8.296875 51.296875 7.59375 
Q 51.90625 6.890625 53.21875 6.890625 
Q 53.71875 6.890625 54.5625 7.125 
Q 55.421875 7.375 56.984375 8.015625 
L 55.609375 0.78125 
Q 53.46875 -0.296875 51.515625 -0.859375 
Q 49.5625 -1.421875 47.703125 -1.421875 
Q 44.484375 -1.421875 42.65625 0.625 
Q 40.828125 2.6875 40.828125 6.296875 
Q 38.09375 2.390625 34.296875 0.484375 
Q 30.515625 -1.421875 25.390625 -1.421875 
Q 20.84375 -1.421875 17.453125 0.671875 
Q 14.0625 2.78125 12.984375 6.203125 
L 7.71875 -20.796875 
z
" id="DejaVuSans-Oblique-956"/>
       <path d="M 50 53.078125 
L 48.296875 44.578125 
Q 44.734375 46.53125 40.765625 47.5 
Q 36.8125 48.484375 32.625 48.484375 
Q 25.53125 48.484375 21.453125 46.0625 
Q 17.390625 43.65625 17.390625 39.5 
Q 17.390625 34.671875 26.859375 32.078125 
Q 27.59375 31.890625 27.9375 31.78125 
L 30.8125 30.90625 
Q 39.796875 28.421875 42.796875 25.6875 
Q 45.796875 22.953125 45.796875 18.21875 
Q 45.796875 9.515625 38.890625 4.046875 
Q 31.984375 -1.421875 20.796875 -1.421875 
Q 16.453125 -1.421875 11.671875 -0.578125 
Q 6.890625 0.25 1.125 2 
L 2.875 11.28125 
Q 7.8125 8.734375 12.59375 7.421875 
Q 17.390625 6.109375 21.78125 6.109375 
Q 28.375 6.109375 32.5 8.9375 
Q 36.625 11.765625 36.625 16.109375 
Q 36.625 20.796875 25.78125 23.6875 
L 24.859375 23.921875 
L 21.78125 24.703125 
Q 14.9375 26.515625 11.765625 29.46875 
Q 8.59375 32.421875 8.59375 37.015625 
Q 8.59375 45.75 15.15625 50.875 
Q 21.734375 56 33.015625 56 
Q 37.453125 56 41.671875 55.265625 
Q 45.90625 54.546875 50 53.078125 
z
" id="DejaVuSans-Oblique-115"/>
       <path d="M 8.015625 75.875 
L 15.828125 75.875 
Q 23.140625 64.359375 26.78125 53.3125 
Q 30.421875 42.28125 30.421875 31.390625 
Q 30.421875 20.453125 26.78125 9.375 
Q 23.140625 -1.703125 15.828125 -13.1875 
L 8.015625 -13.1875 
Q 14.5 -2 17.703125 9.0625 
Q 20.90625 20.125 20.90625 31.390625 
Q 20.90625 42.671875 17.703125 53.65625 
Q 14.5 64.65625 8.015625 75.875 
z
" id="DejaVuSans-41"/>
      </defs>
      <use transform="translate(0 0.015625)" xlink:href="#DejaVuSans-84"/>
      <use transform="translate(61.083984 0.015625)" xlink:href="#DejaVuSans-105"/>
      <use transform="translate(88.867188 0.015625)" xlink:href="#DejaVuSans-109"/>
      <use transform="translate(186.279297 0.015625)" xlink:href="#DejaVuSans-101"/>
      <use transform="translate(247.802734 0.015625)" xlink:href="#DejaVuSans-32"/>
      <use transform="translate(279.589844 0.015625)" xlink:href="#DejaVuSans-40"/>
      <use transform="translate(318.603516 0.015625)" xlink:href="#DejaVuSans-Oblique-956"/>
      <use transform="translate(382.226562 0.015625)" xlink:href="#DejaVuSans-Oblique-115"/>
      <use transform="translate(434.326172 0.015625)" xlink:href="#DejaVuSans-41"/>
     </g>
    </g>
   </g>
   <g id="matplotlib.axis_2">
    <g id="ytick_1">
     <g id="line2d_13">
      <path clip-path="url(#p304c686b55)" d="M 61.410938 279.010828 
L 418.530938 279.010828 
" style="fill:none;stroke:#b0b0b0;stroke-linecap:square;stroke-width:0.8;"/>
     </g>
     <g id="line2d_14">
      <defs>
       <path d="M 0 0 
L -3.5 0 
" id="mc3ce260a5b" style="stroke:#000000;stroke-width:0.8;"/>
      </defs>
      <g>
       <use style="stroke:#000000;stroke-width:0.8;" x="61.410938" xlink:href="#mc3ce260a5b" y="279.010828"/>
      </g>
     </g>
     <g id="text_8">
      <!-- 0.0 -->
      <g transform="translate(30.55625 284.709656)scale(0.15 -0.15)">
       <defs>
        <path d="M 10.6875 12.40625 
L 21 12.40625 
L 21 0 
L 10.6875 0 
z
" id="DejaVuSans-46"/>
       </defs>
       <use xlink:href="#DejaVuSans-48"/>
       <use x="63.623047" xlink:href="#DejaVuSans-46"/>
       <use x="95.410156" xlink:href="#DejaVuSans-48"/>
      </g>
     </g>
    </g>
    <g id="ytick_2">
     <g id="line2d_15">
      <path clip-path="url(#p304c686b55)" d="M 61.410938 225.788428 
L 418.530938 225.788428 
" style="fill:none;stroke:#b0b0b0;stroke-linecap:square;stroke-width:0.8;"/>
     </g>
     <g id="line2d_16">
      <g>
       <use style="stroke:#000000;stroke-width:0.8;" x="61.410938" xlink:href="#mc3ce260a5b" y="225.788428"/>
      </g>
     </g>
     <g id="text_9">
      <!-- 0.2 -->
      <g transform="translate(30.55625 231.487256)scale(0.15 -0.15)">
       <use xlink:href="#DejaVuSans-48"/>
       <use x="63.623047" xlink:href="#DejaVuSans-46"/>
       <use x="95.410156" xlink:href="#DejaVuSans-50"/>
      </g>
     </g>
    </g>
    <g id="ytick_3">
     <g id="line2d_17">
      <path clip-path="url(#p304c686b55)" d="M 61.410938 172.566028 
L 418.530938 172.566028 
" style="fill:none;stroke:#b0b0b0;stroke-linecap:square;stroke-width:0.8;"/>
     </g>
     <g id="line2d_18">
      <g>
       <use style="stroke:#000000;stroke-width:0.8;" x="61.410938" xlink:href="#mc3ce260a5b" y="172.566028"/>
      </g>
     </g>
     <g id="text_10">
      <!-- 0.4 -->
      <g transform="translate(30.55625 178.264856)scale(0.15 -0.15)">
       <use xlink:href="#DejaVuSans-48"/>
       <use x="63.623047" xlink:href="#DejaVuSans-46"/>
       <use x="95.410156" xlink:href="#DejaVuSans-52"/>
      </g>
     </g>
    </g>
    <g id="ytick_4">
     <g id="line2d_19">
      <path clip-path="url(#p304c686b55)" d="M 61.410938 119.343628 
L 418.530938 119.343628 
" style="fill:none;stroke:#b0b0b0;stroke-linecap:square;stroke-width:0.8;"/>
     </g>
     <g id="line2d_20">
      <g>
       <use style="stroke:#000000;stroke-width:0.8;" x="61.410938" xlink:href="#mc3ce260a5b" y="119.343628"/>
      </g>
     </g>
     <g id="text_11">
      <!-- 0.6 -->
      <g transform="translate(30.55625 125.042456)scale(0.15 -0.15)">
       <defs>
        <path d="M 33.015625 40.375 
Q 26.375 40.375 22.484375 35.828125 
Q 18.609375 31.296875 18.609375 23.390625 
Q 18.609375 15.53125 22.484375 10.953125 
Q 26.375 6.390625 33.015625 6.390625 
Q 39.65625 6.390625 43.53125 10.953125 
Q 47.40625 15.53125 47.40625 23.390625 
Q 47.40625 31.296875 43.53125 35.828125 
Q 39.65625 40.375 33.015625 40.375 
z
M 52.59375 71.296875 
L 52.59375 62.3125 
Q 48.875 64.0625 45.09375 64.984375 
Q 41.3125 65.921875 37.59375 65.921875 
Q 27.828125 65.921875 22.671875 59.328125 
Q 17.53125 52.734375 16.796875 39.40625 
Q 19.671875 43.65625 24.015625 45.921875 
Q 28.375 48.1875 33.59375 48.1875 
Q 44.578125 48.1875 50.953125 41.515625 
Q 57.328125 34.859375 57.328125 23.390625 
Q 57.328125 12.15625 50.6875 5.359375 
Q 44.046875 -1.421875 33.015625 -1.421875 
Q 20.359375 -1.421875 13.671875 8.265625 
Q 6.984375 17.96875 6.984375 36.375 
Q 6.984375 53.65625 15.1875 63.9375 
Q 23.390625 74.21875 37.203125 74.21875 
Q 40.921875 74.21875 44.703125 73.484375 
Q 48.484375 72.75 52.59375 71.296875 
z
" id="DejaVuSans-54"/>
       </defs>
       <use xlink:href="#DejaVuSans-48"/>
       <use x="63.623047" xlink:href="#DejaVuSans-46"/>
       <use x="95.410156" xlink:href="#DejaVuSans-54"/>
      </g>
     </g>
    </g>
    <g id="ytick_5">
     <g id="line2d_21">
      <path clip-path="url(#p304c686b55)" d="M 61.410938 66.121228 
L 418.530938 66.121228 
" style="fill:none;stroke:#b0b0b0;stroke-linecap:square;stroke-width:0.8;"/>
     </g>
     <g id="line2d_22">
      <g>
       <use style="stroke:#000000;stroke-width:0.8;" x="61.410938" xlink:href="#mc3ce260a5b" y="66.121228"/>
      </g>
     </g>
     <g id="text_12">
      <!-- 0.8 -->
      <g transform="translate(30.55625 71.820056)scale(0.15 -0.15)">
       <defs>
        <path d="M 31.78125 34.625 
Q 24.75 34.625 20.71875 30.859375 
Q 16.703125 27.09375 16.703125 20.515625 
Q 16.703125 13.921875 20.71875 10.15625 
Q 24.75 6.390625 31.78125 6.390625 
Q 38.8125 6.390625 42.859375 10.171875 
Q 46.921875 13.96875 46.921875 20.515625 
Q 46.921875 27.09375 42.890625 30.859375 
Q 38.875 34.625 31.78125 34.625 
z
M 21.921875 38.8125 
Q 15.578125 40.375 12.03125 44.71875 
Q 8.5 49.078125 8.5 55.328125 
Q 8.5 64.0625 14.71875 69.140625 
Q 20.953125 74.21875 31.78125 74.21875 
Q 42.671875 74.21875 48.875 69.140625 
Q 55.078125 64.0625 55.078125 55.328125 
Q 55.078125 49.078125 51.53125 44.71875 
Q 48 40.375 41.703125 38.8125 
Q 48.828125 37.15625 52.796875 32.3125 
Q 56.78125 27.484375 56.78125 20.515625 
Q 56.78125 9.90625 50.3125 4.234375 
Q 43.84375 -1.421875 31.78125 -1.421875 
Q 19.734375 -1.421875 13.25 4.234375 
Q 6.78125 9.90625 6.78125 20.515625 
Q 6.78125 27.484375 10.78125 32.3125 
Q 14.796875 37.15625 21.921875 38.8125 
z
M 18.3125 54.390625 
Q 18.3125 48.734375 21.84375 45.5625 
Q 25.390625 42.390625 31.78125 42.390625 
Q 38.140625 42.390625 41.71875 45.5625 
Q 45.3125 48.734375 45.3125 54.390625 
Q 45.3125 60.0625 41.71875 63.234375 
Q 38.140625 66.40625 31.78125 66.40625 
Q 25.390625 66.40625 21.84375 63.234375 
Q 18.3125 60.0625 18.3125 54.390625 
z
" id="DejaVuSans-56"/>
       </defs>
       <use xlink:href="#DejaVuSans-48"/>
       <use x="63.623047" xlink:href="#DejaVuSans-46"/>
       <use x="95.410156" xlink:href="#DejaVuSans-56"/>
      </g>
     </g>
    </g>
    <g id="ytick_6">
     <g id="line2d_23">
      <path clip-path="url(#p304c686b55)" d="M 61.410938 12.898828 
L 418.530938 12.898828 
" style="fill:none;stroke:#b0b0b0;stroke-linecap:square;stroke-width:0.8;"/>
     </g>
     <g id="line2d_24">
      <g>
       <use style="stroke:#000000;stroke-width:0.8;" x="61.410938" xlink:href="#mc3ce260a5b" y="12.898828"/>
      </g>
     </g>
     <g id="text_13">
      <!-- 1.0 -->
      <g transform="translate(30.55625 18.597656)scale(0.15 -0.15)">
       <use xlink:href="#DejaVuSans-49"/>
       <use x="63.623047" xlink:href="#DejaVuSans-46"/>
       <use x="95.410156" xlink:href="#DejaVuSans-48"/>
      </g>
     </g>
    </g>
    <g id="text_14">
     <!-- F=1 population -->
     <g transform="translate(22.396875 222.840766)rotate(-90)scale(0.2 -0.2)">
      <defs>
       <path d="M 9.8125 72.90625 
L 51.703125 72.90625 
L 51.703125 64.59375 
L 19.671875 64.59375 
L 19.671875 43.109375 
L 48.578125 43.109375 
L 48.578125 34.8125 
L 19.671875 34.8125 
L 19.671875 0 
L 9.8125 0 
z
" id="DejaVuSans-70"/>
       <path d="M 10.59375 45.40625 
L 73.1875 45.40625 
L 73.1875 37.203125 
L 10.59375 37.203125 
z
M 10.59375 25.484375 
L 73.1875 25.484375 
L 73.1875 17.1875 
L 10.59375 17.1875 
z
" id="DejaVuSans-61"/>
       <path d="M 18.109375 8.203125 
L 18.109375 -20.796875 
L 9.078125 -20.796875 
L 9.078125 54.6875 
L 18.109375 54.6875 
L 18.109375 46.390625 
Q 20.953125 51.265625 25.265625 53.625 
Q 29.59375 56 35.59375 56 
Q 45.5625 56 51.78125 48.09375 
Q 58.015625 40.1875 58.015625 27.296875 
Q 58.015625 14.40625 51.78125 6.484375 
Q 45.5625 -1.421875 35.59375 -1.421875 
Q 29.59375 -1.421875 25.265625 0.953125 
Q 20.953125 3.328125 18.109375 8.203125 
z
M 48.6875 27.296875 
Q 48.6875 37.203125 44.609375 42.84375 
Q 40.53125 48.484375 33.40625 48.484375 
Q 26.265625 48.484375 22.1875 42.84375 
Q 18.109375 37.203125 18.109375 27.296875 
Q 18.109375 17.390625 22.1875 11.75 
Q 26.265625 6.109375 33.40625 6.109375 
Q 40.53125 6.109375 44.609375 11.75 
Q 48.6875 17.390625 48.6875 27.296875 
z
" id="DejaVuSans-112"/>
       <path d="M 30.609375 48.390625 
Q 23.390625 48.390625 19.1875 42.75 
Q 14.984375 37.109375 14.984375 27.296875 
Q 14.984375 17.484375 19.15625 11.84375 
Q 23.34375 6.203125 30.609375 6.203125 
Q 37.796875 6.203125 41.984375 11.859375 
Q 46.1875 17.53125 46.1875 27.296875 
Q 46.1875 37.015625 41.984375 42.703125 
Q 37.796875 48.390625 30.609375 48.390625 
z
M 30.609375 56 
Q 42.328125 56 49.015625 48.375 
Q 55.71875 40.765625 55.71875 27.296875 
Q 55.71875 13.875 49.015625 6.21875 
Q 42.328125 -1.421875 30.609375 -1.421875 
Q 18.84375 -1.421875 12.171875 6.21875 
Q 5.515625 13.875 5.515625 27.296875 
Q 5.515625 40.765625 12.171875 48.375 
Q 18.84375 56 30.609375 56 
z
" id="DejaVuSans-111"/>
       <path d="M 8.5 21.578125 
L 8.5 54.6875 
L 17.484375 54.6875 
L 17.484375 21.921875 
Q 17.484375 14.15625 20.5 10.265625 
Q 23.53125 6.390625 29.59375 6.390625 
Q 36.859375 6.390625 41.078125 11.03125 
Q 45.3125 15.671875 45.3125 23.6875 
L 45.3125 54.6875 
L 54.296875 54.6875 
L 54.296875 0 
L 45.3125 0 
L 45.3125 8.40625 
Q 42.046875 3.421875 37.71875 1 
Q 33.40625 -1.421875 27.6875 -1.421875 
Q 18.265625 -1.421875 13.375 4.4375 
Q 8.5 10.296875 8.5 21.578125 
z
M 31.109375 56 
z
" id="DejaVuSans-117"/>
       <path d="M 9.421875 75.984375 
L 18.40625 75.984375 
L 18.40625 0 
L 9.421875 0 
z
" id="DejaVuSans-108"/>
       <path d="M 34.28125 27.484375 
Q 23.390625 27.484375 19.1875 25 
Q 14.984375 22.515625 14.984375 16.5 
Q 14.984375 11.71875 18.140625 8.90625 
Q 21.296875 6.109375 26.703125 6.109375 
Q 34.1875 6.109375 38.703125 11.40625 
Q 43.21875 16.703125 43.21875 25.484375 
L 43.21875 27.484375 
z
M 52.203125 31.203125 
L 52.203125 0 
L 43.21875 0 
L 43.21875 8.296875 
Q 40.140625 3.328125 35.546875 0.953125 
Q 30.953125 -1.421875 24.3125 -1.421875 
Q 15.921875 -1.421875 10.953125 3.296875 
Q 6 8.015625 6 15.921875 
Q 6 25.140625 12.171875 29.828125 
Q 18.359375 34.515625 30.609375 34.515625 
L 43.21875 34.515625 
L 43.21875 35.40625 
Q 43.21875 41.609375 39.140625 45 
Q 35.0625 48.390625 27.6875 48.390625 
Q 23 48.390625 18.546875 47.265625 
Q 14.109375 46.140625 10.015625 43.890625 
L 10.015625 52.203125 
Q 14.9375 54.109375 19.578125 55.046875 
Q 24.21875 56 28.609375 56 
Q 40.484375 56 46.34375 49.84375 
Q 52.203125 43.703125 52.203125 31.203125 
z
" id="DejaVuSans-97"/>
       <path d="M 18.3125 70.21875 
L 18.3125 54.6875 
L 36.8125 54.6875 
L 36.8125 47.703125 
L 18.3125 47.703125 
L 18.3125 18.015625 
Q 18.3125 11.328125 20.140625 9.421875 
Q 21.96875 7.515625 27.59375 7.515625 
L 36.8125 7.515625 
L 36.8125 0 
L 27.59375 0 
Q 17.1875 0 13.234375 3.875 
Q 9.28125 7.765625 9.28125 18.015625 
L 9.28125 47.703125 
L 2.6875 47.703125 
L 2.6875 54.6875 
L 9.28125 54.6875 
L 9.28125 70.21875 
z
" id="DejaVuSans-116"/>
       <path d="M 54.890625 33.015625 
L 54.890625 0 
L 45.90625 0 
L 45.90625 32.71875 
Q 45.90625 40.484375 42.875 44.328125 
Q 39.84375 48.1875 33.796875 48.1875 
Q 26.515625 48.1875 22.3125 43.546875 
Q 18.109375 38.921875 18.109375 30.90625 
L 18.109375 0 
L 9.078125 0 
L 9.078125 54.6875 
L 18.109375 54.6875 
L 18.109375 46.1875 
Q 21.34375 51.125 25.703125 53.5625 
Q 30.078125 56 35.796875 56 
Q 45.21875 56 50.046875 50.171875 
Q 54.890625 44.34375 54.890625 33.015625 
z
" id="DejaVuSans-110"/>
      </defs>
      <use xlink:href="#DejaVuSans-70"/>
      <use x="57.519531" xlink:href="#DejaVuSans-61"/>
      <use x="141.308594" xlink:href="#DejaVuSans-49"/>
      <use x="204.931641" xlink:href="#DejaVuSans-32"/>
      <use x="236.71875" xlink:href="#DejaVuSans-112"/>
      <use x="300.195312" xlink:href="#DejaVuSans-111"/>
      <use x="361.376953" xlink:href="#DejaVuSans-112"/>
      <use x="424.853516" xlink:href="#DejaVuSans-117"/>
      <use x="488.232422" xlink:href="#DejaVuSans-108"/>
      <use x="516.015625" xlink:href="#DejaVuSans-97"/>
      <use x="577.294922" xlink:href="#DejaVuSans-116"/>
      <use x="616.503906" xlink:href="#DejaVuSans-105"/>
      <use x="644.287109" xlink:href="#DejaVuSans-111"/>
      <use x="705.46875" xlink:href="#DejaVuSans-110"/>
     </g>
    </g>
   </g>
   <g id="LineCollection_1">
    <path clip-path="url(#p304c686b55)" d="M 61.410938 279.010828 
L 61.410938 277.828108 
" style="fill:none;stroke:#1f77b4;stroke-width:1.5;"/>
    <path clip-path="url(#p304c686b55)" d="M 73.086014 229.629923 
L 73.086014 214.700691 
" style="fill:none;stroke:#1f77b4;stroke-width:1.5;"/>
    <path clip-path="url(#p304c686b55)" d="M 84.761091 148.337002 
L 84.761091 130.733917 
" style="fill:none;stroke:#1f77b4;stroke-width:1.5;"/>
    <path clip-path="url(#p304c686b55)" d="M 96.436168 71.678143 
L 96.436168 58.155068 
" style="fill:none;stroke:#1f77b4;stroke-width:1.5;"/>
    <path clip-path="url(#p304c686b55)" d="M 108.111245 85.893494 
L 108.111245 69.54847 
" style="fill:none;stroke:#1f77b4;stroke-width:1.5;"/>
    <path clip-path="url(#p304c686b55)" d="M 119.786322 128.715479 
L 119.786322 111.577626 
" style="fill:none;stroke:#1f77b4;stroke-width:1.5;"/>
    <path clip-path="url(#p304c686b55)" d="M 131.461399 228.245979 
L 131.461399 213.501515 
" style="fill:none;stroke:#1f77b4;stroke-width:1.5;"/>
    <path clip-path="url(#p304c686b55)" d="M 143.136476 248.859356 
L 143.136476 236.6943 
" style="fill:none;stroke:#1f77b4;stroke-width:1.5;"/>
    <path clip-path="url(#p304c686b55)" d="M 154.811553 199.823814 
L 154.811553 183.454769 
" style="fill:none;stroke:#1f77b4;stroke-width:1.5;"/>
    <path clip-path="url(#p304c686b55)" d="M 166.48663 139.648073 
L 166.48663 121.744152 
" style="fill:none;stroke:#1f77b4;stroke-width:1.5;"/>
    <path clip-path="url(#p304c686b55)" d="M 178.161707 64.760821 
L 178.161707 51.346337 
" style="fill:none;stroke:#1f77b4;stroke-width:1.5;"/>
    <path clip-path="url(#p304c686b55)" d="M 189.836784 69.60455 
L 189.836784 55.985106 
" style="fill:none;stroke:#1f77b4;stroke-width:1.5;"/>
    <path clip-path="url(#p304c686b55)" d="M 201.511861 153.700648 
L 201.511861 135.800754 
" style="fill:none;stroke:#1f77b4;stroke-width:1.5;"/>
    <path clip-path="url(#p304c686b55)" d="M 213.186938 229.164197 
L 213.186938 214.970544 
" style="fill:none;stroke:#1f77b4;stroke-width:1.5;"/>
    <path clip-path="url(#p304c686b55)" d="M 224.862014 236.825179 
L 224.862014 223.276477 
" style="fill:none;stroke:#1f77b4;stroke-width:1.5;"/>
    <path clip-path="url(#p304c686b55)" d="M 236.537091 185.598028 
L 236.537091 167.818647 
" style="fill:none;stroke:#1f77b4;stroke-width:1.5;"/>
    <path clip-path="url(#p304c686b55)" d="M 248.212168 109.555734 
L 248.212168 92.40057 
" style="fill:none;stroke:#1f77b4;stroke-width:1.5;"/>
    <path clip-path="url(#p304c686b55)" d="M 259.887245 71.150238 
L 259.887245 56.903418 
" style="fill:none;stroke:#1f77b4;stroke-width:1.5;"/>
    <path clip-path="url(#p304c686b55)" d="M 271.562322 85.586888 
L 271.562322 70.28345 
" style="fill:none;stroke:#1f77b4;stroke-width:1.5;"/>
    <path clip-path="url(#p304c686b55)" d="M 283.237399 156.007596 
L 283.237399 138.2675 
" style="fill:none;stroke:#1f77b4;stroke-width:1.5;"/>
    <path clip-path="url(#p304c686b55)" d="M 294.912476 220.555216 
L 294.912476 205.018002 
" style="fill:none;stroke:#1f77b4;stroke-width:1.5;"/>
    <path clip-path="url(#p304c686b55)" d="M 306.587553 225.771278 
L 306.587553 211.391178 
" style="fill:none;stroke:#1f77b4;stroke-width:1.5;"/>
    <path clip-path="url(#p304c686b55)" d="M 318.26263 185.791346 
L 318.26263 168.997095 
" style="fill:none;stroke:#1f77b4;stroke-width:1.5;"/>
    <path clip-path="url(#p304c686b55)" d="M 329.937707 127.388352 
L 329.937707 109.549812 
" style="fill:none;stroke:#1f77b4;stroke-width:1.5;"/>
    <path clip-path="url(#p304c686b55)" d="M 341.612784 87.818034 
L 341.612784 72.245222 
" style="fill:none;stroke:#1f77b4;stroke-width:1.5;"/>
    <path clip-path="url(#p304c686b55)" d="M 353.287861 110.325524 
L 353.287861 93.288906 
" style="fill:none;stroke:#1f77b4;stroke-width:1.5;"/>
    <path clip-path="url(#p304c686b55)" d="M 364.962938 158.156639 
L 364.962938 139.970587 
" style="fill:none;stroke:#1f77b4;stroke-width:1.5;"/>
    <path clip-path="url(#p304c686b55)" d="M 376.638014 223.389397 
L 376.638014 207.475294 
" style="fill:none;stroke:#1f77b4;stroke-width:1.5;"/>
    <path clip-path="url(#p304c686b55)" d="M 388.313091 216.175024 
L 388.313091 200.89748 
" style="fill:none;stroke:#1f77b4;stroke-width:1.5;"/>
    <path clip-path="url(#p304c686b55)" d="M 399.988168 194.236861 
L 399.988168 177.389165 
" style="fill:none;stroke:#1f77b4;stroke-width:1.5;"/>
    <path clip-path="url(#p304c686b55)" d="M 411.663245 125.330724 
L 411.663245 107.715449 
" style="fill:none;stroke:#1f77b4;stroke-width:1.5;"/>
   </g>
   <g id="LineCollection_2">
    <path clip-path="url(#p304c686b55)" d="M 61.410938 274.780846 
L 61.410938 267.789145 
" style="fill:none;stroke:#d62728;stroke-width:1.5;"/>
    <path clip-path="url(#p304c686b55)" d="M 73.086014 244.498795 
L 73.086014 229.226513 
" style="fill:none;stroke:#d62728;stroke-width:1.5;"/>
    <path clip-path="url(#p304c686b55)" d="M 84.761091 171.788241 
L 84.761091 151.873416 
" style="fill:none;stroke:#d62728;stroke-width:1.5;"/>
    <path clip-path="url(#p304c686b55)" d="M 96.436168 193.132676 
L 96.436168 173.949861 
" style="fill:none;stroke:#d62728;stroke-width:1.5;"/>
    <path clip-path="url(#p304c686b55)" d="M 108.111245 209.353699 
L 108.111245 190.306828 
" style="fill:none;stroke:#d62728;stroke-width:1.5;"/>
    <path clip-path="url(#p304c686b55)" d="M 119.786322 208.196763 
L 119.786322 189.535209 
" style="fill:none;stroke:#d62728;stroke-width:1.5;"/>
    <path clip-path="url(#p304c686b55)" d="M 131.461399 196.798207 
L 131.461399 176.178681 
" style="fill:none;stroke:#d62728;stroke-width:1.5;"/>
    <path clip-path="url(#p304c686b55)" d="M 143.136476 173.845857 
L 143.136476 152.990999 
" style="fill:none;stroke:#d62728;stroke-width:1.5;"/>
    <path clip-path="url(#p304c686b55)" d="M 154.811553 198.91833 
L 154.811553 178.888238 
" style="fill:none;stroke:#d62728;stroke-width:1.5;"/>
    <path clip-path="url(#p304c686b55)" d="M 166.48663 189.481254 
L 166.48663 169.739084 
" style="fill:none;stroke:#d62728;stroke-width:1.5;"/>
    <path clip-path="url(#p304c686b55)" d="M 178.161707 178.990023 
L 178.161707 159.066222 
" style="fill:none;stroke:#d62728;stroke-width:1.5;"/>
    <path clip-path="url(#p304c686b55)" d="M 189.836784 160.792204 
L 189.836784 140.454715 
" style="fill:none;stroke:#d62728;stroke-width:1.5;"/>
    <path clip-path="url(#p304c686b55)" d="M 201.511861 182.052838 
L 201.511861 161.416019 
" style="fill:none;stroke:#d62728;stroke-width:1.5;"/>
    <path clip-path="url(#p304c686b55)" d="M 213.186938 189.419048 
L 213.186938 168.583785 
" style="fill:none;stroke:#d62728;stroke-width:1.5;"/>
    <path clip-path="url(#p304c686b55)" d="M 224.862014 173.882357 
L 224.862014 152.190326 
" style="fill:none;stroke:#d62728;stroke-width:1.5;"/>
    <path clip-path="url(#p304c686b55)" d="M 236.537091 172.463294 
L 236.537091 151.447173 
" style="fill:none;stroke:#d62728;stroke-width:1.5;"/>
   </g>
   <g id="line2d_25">
    <path clip-path="url(#p304c686b55)" d="M 61.410938 278.518987 
L 63.910778 278.518987 
L 64.267898 276.394909 
L 66.767738 268.811783 
L 67.481978 265.176856 
L 67.839098 264.372743 
L 68.553338 258.856811 
L 68.910458 258.788236 
L 69.981818 251.345824 
L 70.338938 250.969302 
L 70.696058 246.553829 
L 71.053178 245.388075 
L 74.981498 216.282744 
L 75.338618 211.749343 
L 75.695738 209.974549 
L 77.124218 197.050056 
L 78.552698 184.492498 
L 79.266938 177.54327 
L 82.838138 144.91396 
L 83.195258 141.224858 
L 83.552378 139.272175 
L 83.909498 134.659653 
L 84.623738 129.953261 
L 85.337978 122.704509 
L 86.409338 113.823489 
L 87.480698 104.91576 
L 87.837818 102.898371 
L 88.552058 97.476891 
L 91.051898 79.743266 
L 91.409018 78.698389 
L 92.480378 71.324182 
L 92.837498 71.156305 
L 93.551738 66.5146 
L 93.908858 65.047179 
L 94.265978 62.988557 
L 94.623098 62.476438 
L 96.051578 56.70736 
L 96.408698 56.887099 
L 96.765818 55.125799 
L 97.480058 53.094772 
L 97.837178 53.020446 
L 98.194298 52.689368 
L 98.551418 51.357144 
L 98.908538 50.976572 
L 99.265658 50.121407 
L 99.622778 50.362827 
L 99.979898 50.420914 
L 100.337018 49.980338 
L 101.051258 50.227208 
L 101.765498 50.942521 
L 102.122618 52.060002 
L 102.479738 52.416123 
L 102.836858 51.82959 
L 103.193978 54.075159 
L 103.551098 54.524106 
L 103.908218 54.225594 
L 104.265338 56.99055 
L 104.622458 56.934122 
L 104.979578 57.63334 
L 105.336698 59.844659 
L 105.693818 60.242556 
L 106.408058 63.069499 
L 106.765178 63.621687 
L 107.479418 67.778028 
L 107.836538 69.099726 
L 108.550778 73.798602 
L 108.907898 74.523694 
L 109.622138 79.288713 
L 109.979258 81.134961 
L 110.336378 82.37811 
L 111.050618 88.163465 
L 112.479098 97.531752 
L 113.907578 108.160585 
L 114.978938 116.991511 
L 115.336058 119.183945 
L 116.050298 124.391279 
L 117.478778 135.968103 
L 118.193018 142.545601 
L 122.835578 180.858029 
L 123.192698 183.164568 
L 124.264058 192.565771 
L 124.621178 195.673912 
L 124.978298 197.179263 
L 125.692538 203.413617 
L 126.763898 210.640177 
L 127.121018 213.864584 
L 127.478138 215.338162 
L 128.906618 225.056517 
L 130.692218 235.813152 
L 131.049338 236.777194 
L 132.120698 242.773955 
L 134.263418 251.75522 
L 134.620538 254.00399 
L 135.334778 256.170842 
L 135.691898 256.925558 
L 136.049018 257.228671 
L 136.406138 259.171012 
L 136.763258 258.645906 
L 138.191738 262.868374 
L 138.548858 262.577836 
L 138.905978 262.577836 
L 139.263098 262.446175 
L 139.620218 263.322156 
L 139.977338 263.151904 
L 140.334458 263.884815 
L 140.691578 263.272144 
L 141.048698 263.902769 
L 141.762938 262.024876 
L 142.120058 262.801427 
L 142.477178 262.751218 
L 142.834298 261.537331 
L 143.191418 260.894631 
L 143.548538 261.228748 
L 143.905658 259.564725 
L 144.619898 258.605325 
L 144.977018 257.682684 
L 145.334138 255.859287 
L 146.048378 254.559212 
L 146.405498 253.429555 
L 147.119738 249.645317 
L 147.476858 248.892458 
L 147.833978 246.989892 
L 148.191098 245.731515 
L 148.548218 244.964039 
L 149.262458 240.674885 
L 149.619578 239.461267 
L 150.333818 235.345807 
L 150.690938 234.479544 
L 151.048058 230.704555 
L 151.405178 229.491553 
L 152.119418 224.558434 
L 152.476538 223.047502 
L 153.190778 218.16903 
L 153.547898 216.029123 
L 154.262138 211.029039 
L 154.619258 209.273303 
L 156.047738 198.582591 
L 156.404858 196.622885 
L 157.119098 190.915807 
L 157.476218 189.849511 
L 157.833338 186.426515 
L 158.190458 184.604617 
L 158.904698 178.20301 
L 159.261818 175.922875 
L 159.618938 172.246246 
L 159.976058 170.658468 
L 160.690298 164.747461 
L 161.047418 162.580251 
L 161.761658 157.452089 
L 163.190138 147.35845 
L 163.547258 143.333983 
L 164.975738 134.212693 
L 167.118458 118.954051 
L 168.189818 111.826729 
L 168.904058 106.848506 
L 169.261178 105.586396 
L 172.832378 86.143641 
L 173.189498 86.048796 
L 173.903738 82.307991 
L 174.617978 79.599171 
L 174.975098 77.388833 
L 175.332218 77.432584 
L 175.689338 76.0477 
L 176.046458 75.247024 
L 176.403578 73.16067 
L 176.760698 73.831519 
L 177.474938 70.568811 
L 177.832058 70.652262 
L 178.189178 69.387896 
L 178.546298 68.735268 
L 178.903418 69.416313 
L 179.260538 67.909694 
L 179.617658 67.756083 
L 179.974778 67.917009 
L 180.331898 67.289459 
L 180.689018 68.307364 
L 181.403258 67.140963 
L 181.760378 67.476611 
L 182.117498 66.837635 
L 182.474618 68.292842 
L 182.831738 68.877897 
L 183.545978 68.913675 
L 183.903098 68.372713 
L 184.260218 70.246123 
L 184.617338 70.478407 
L 184.974458 71.475049 
L 185.331578 71.225361 
L 185.688698 73.287443 
L 186.045818 73.435384 
L 186.402938 74.963037 
L 186.760058 75.376109 
L 187.117178 76.066813 
L 189.617018 86.020901 
L 189.974138 87.803381 
L 190.331258 88.712876 
L 190.688378 91.587205 
L 191.045498 92.207876 
L 191.402618 95.31197 
L 191.759738 95.967144 
L 192.116858 97.828359 
L 192.473978 101.469259 
L 193.188218 104.016636 
L 193.902458 108.932258 
L 194.259578 110.021948 
L 194.616698 112.411586 
L 194.973818 115.589312 
L 195.688058 119.543432 
L 196.402298 124.571712 
L 196.759418 126.945011 
L 197.116538 128.41785 
L 197.473658 132.521367 
L 197.830778 134.146584 
L 198.545018 139.794494 
L 198.902138 141.050114 
L 201.759098 163.53525 
L 202.116218 164.665848 
L 202.473338 167.555482 
L 202.830458 169.452885 
L 203.187578 172.287564 
L 203.544698 176.073512 
L 203.901818 177.391993 
L 204.258938 181.10065 
L 204.616058 182.241427 
L 207.115898 199.970327 
L 207.830138 203.909779 
L 208.187258 206.915505 
L 208.544378 208.313962 
L 208.901498 212.159359 
L 209.258618 213.58603 
L 209.615738 216.196405 
L 209.972858 216.383011 
L 210.329978 219.623178 
L 212.472698 230.862055 
L 212.829818 231.872657 
L 214.258298 238.207939 
L 215.686778 243.641029 
L 216.043898 245.405553 
L 216.401018 245.484202 
L 217.115258 247.741908 
L 217.472378 248.299943 
L 217.829498 249.776292 
L 218.186618 250.003414 
L 218.543738 250.755516 
L 218.900858 251.010023 
L 219.257978 251.109239 
L 219.972218 253.254002 
L 220.686458 253.408424 
L 221.757818 252.65469 
L 222.114938 252.676157 
L 222.472058 253.308862 
L 222.829178 253.386234 
L 223.186298 252.44002 
L 223.543418 252.482954 
L 223.900538 251.744715 
L 224.257658 250.479547 
L 224.614778 250.765696 
L 224.971898 250.109406 
L 225.329018 250.449317 
L 226.757498 245.616895 
L 227.114618 246.276861 
L 227.471738 243.946421 
L 227.828858 242.979683 
L 228.543098 240.49465 
L 228.900218 239.476577 
L 229.614458 235.979571 
L 229.971578 235.025162 
L 230.328698 233.623627 
L 230.685818 231.153321 
L 231.042938 230.327746 
L 231.400058 227.713581 
L 231.757178 227.334728 
L 232.114298 225.459948 
L 232.828538 220.899434 
L 233.542778 216.388437 
L 233.899898 215.151337 
L 235.328378 207.292612 
L 236.042618 201.987717 
L 237.471098 193.956682 
L 237.828218 190.248056 
L 238.185338 188.911765 
L 238.542458 184.962535 
L 238.899578 183.757072 
L 240.685178 170.998431 
L 241.042298 169.588667 
L 241.399418 165.514616 
L 241.756538 163.409271 
L 242.113658 162.039763 
L 242.470778 159.706362 
L 243.185018 152.61972 
L 243.542138 151.515322 
L 243.899258 148.366195 
L 244.256378 146.982063 
L 246.756218 129.501599 
L 247.113338 128.919973 
L 247.827578 123.382488 
L 249.613178 113.943591 
L 250.327418 109.001873 
L 250.684538 107.717591 
L 251.041658 105.310763 
L 251.398778 104.413529 
L 251.755898 102.474907 
L 252.113018 101.271834 
L 252.827258 97.237495 
L 253.184378 96.750913 
L 253.898618 93.238426 
L 254.255738 91.891861 
L 254.612858 90.031892 
L 254.969978 88.805116 
L 255.327098 86.539217 
L 255.684218 87.222763 
L 256.041338 85.175283 
L 256.398458 84.3167 
L 256.755578 83.984752 
L 257.112698 82.692465 
L 257.469818 82.605332 
L 257.826938 81.566261 
L 258.184058 80.960211 
L 258.541178 79.755309 
L 259.255418 79.160703 
L 259.612538 79.020503 
L 259.969658 77.855685 
L 260.326778 78.618653 
L 260.683898 77.363833 
L 261.041018 77.388833 
L 261.398138 77.768736 
L 261.755258 77.774946 
L 262.112378 76.646069 
L 262.469498 77.313833 
L 262.826617 76.7525 
L 263.183738 77.326333 
L 263.540858 77.669364 
L 264.255098 78.771991 
L 264.612218 78.802659 
L 264.969338 80.292585 
L 265.326458 80.460161 
L 265.683578 80.472131 
L 266.040698 81.783747 
L 266.754938 83.608756 
L 267.112058 84.041834 
L 267.469178 85.60891 
L 267.826298 86.221749 
L 268.183418 88.365622 
L 268.540538 89.33183 
L 268.897658 89.051228 
L 271.754618 101.305719 
L 272.111738 102.048266 
L 272.468858 104.81701 
L 272.825978 105.221417 
L 273.183098 108.234113 
L 273.897338 111.28563 
L 274.254458 114.028107 
L 274.611578 114.459586 
L 274.968698 117.066123 
L 275.325818 118.710437 
L 275.682938 121.754436 
L 276.040058 122.439463 
L 278.897018 140.386183 
L 279.254138 142.009176 
L 279.611258 144.327121 
L 279.968378 145.634356 
L 280.325498 149.313233 
L 281.396858 155.829175 
L 282.468218 162.832208 
L 282.825338 163.754696 
L 283.182458 166.95724 
L 284.253818 173.648204 
L 284.968058 178.98761 
L 285.682298 183.675496 
L 286.039418 184.289822 
L 287.825018 195.129598 
L 288.182138 196.498872 
L 289.253498 202.797874 
L 289.610618 204.093485 
L 290.324858 207.703454 
L 290.681978 210.553194 
L 291.039098 211.611046 
L 292.467578 218.157997 
L 293.181818 220.209259 
L 293.538938 222.954011 
L 293.896058 223.944292 
L 294.253178 226.261806 
L 294.610298 227.052852 
L 294.967418 227.52726 
L 295.324538 228.34325 
L 295.681658 230.587615 
L 296.038778 230.503158 
L 296.395898 232.689075 
L 297.110138 234.128007 
L 297.467258 235.381075 
L 297.824378 235.87709 
L 298.181498 235.820256 
L 298.538618 237.261674 
L 298.895738 237.466488 
L 299.252858 239.233757 
L 299.609978 239.583747 
L 299.967098 239.097027 
L 300.324218 240.209223 
L 300.681338 240.199179 
L 301.038458 241.000204 
L 301.395578 240.315812 
L 301.752698 240.968604 
L 302.109818 239.729192 
L 302.466938 241.537824 
L 302.824058 240.886491 
L 303.181178 241.079203 
L 303.538298 241.023904 
L 303.895418 240.800281 
L 304.609658 239.385679 
L 304.966778 239.652642 
L 305.323898 238.617014 
L 305.681018 239.846628 
L 306.038138 237.664951 
L 306.752378 236.813499 
L 307.109498 234.976137 
L 307.466618 236.001038 
L 307.823738 233.747065 
L 308.180858 233.822498 
L 308.537978 233.210509 
L 308.895098 230.920913 
L 309.252218 229.651861 
L 309.609338 229.269492 
L 310.323578 227.089883 
L 311.037818 224.003424 
L 311.394938 223.695939 
L 311.752058 221.503156 
L 312.466298 218.926558 
L 312.823418 216.85506 
L 313.180538 216.390668 
L 313.537658 214.878797 
L 313.894778 212.007852 
L 314.609018 209.908376 
L 314.966138 208.192219 
L 315.323258 205.160541 
L 315.680378 204.527094 
L 316.037498 202.173769 
L 316.394618 200.830077 
L 319.608698 182.65182 
L 319.965818 181.798716 
L 320.322938 177.879444 
L 320.680058 176.592372 
L 321.037178 173.697994 
L 322.822778 164.209844 
L 323.179898 161.730912 
L 323.537018 160.159645 
L 324.251258 156.09224 
L 324.608378 154.070754 
L 325.322618 148.855903 
L 326.036858 145.666734 
L 326.393978 142.899154 
L 326.751098 141.497135 
L 327.465338 135.819976 
L 327.822458 135.556641 
L 328.536698 130.18243 
L 328.893818 130.024095 
L 329.250938 127.361026 
L 329.608058 126.164345 
L 329.965178 124.02522 
L 330.322298 123.277349 
L 330.679418 119.552094 
L 331.036538 119.192607 
L 331.750778 114.599652 
L 332.107898 115.024768 
L 332.822138 110.172122 
L 333.536378 108.095982 
L 333.893498 107.122041 
L 334.250618 104.624211 
L 335.321978 100.903939 
L 335.679098 101.3681 
L 337.107578 95.59566 
L 337.464698 95.911723 
L 338.536058 92.05113 
L 339.250298 90.787738 
L 339.607418 90.655009 
L 339.964538 89.207718 
L 340.321658 89.777684 
L 340.678778 89.299453 
L 341.035898 87.912497 
L 341.393018 88.354771 
L 342.107258 88.316228 
L 342.464378 89.159152 
L 343.178618 87.618921 
L 343.535738 87.311698 
L 343.892858 87.288964 
L 344.249978 88.729154 
L 344.607098 88.821393 
L 344.964218 89.348019 
L 345.321338 88.185288 
L 345.678458 90.432024 
L 346.035578 89.788418 
L 346.392698 90.170677 
L 346.749818 91.086634 
L 347.464058 90.893921 
L 347.821178 93.019516 
L 348.178298 94.128822 
L 349.963898 97.927606 
L 350.321018 98.240234 
L 351.392378 103.550396 
L 351.749498 104.07806 
L 352.106618 104.93457 
L 352.463738 106.464975 
L 352.820858 107.404848 
L 353.177978 110.085658 
L 353.535098 111.276611 
L 353.892218 113.143073 
L 354.249338 113.549694 
L 354.606458 116.947622 
L 354.963578 116.277041 
L 356.392058 124.597142 
L 357.106298 127.159322 
L 357.463418 129.936595 
L 358.177658 132.430085 
L 358.534778 135.77883 
L 358.891898 136.852557 
L 361.034618 148.560459 
L 361.391738 150.156993 
L 362.105978 155.388777 
L 362.463098 157.549221 
L 362.820218 157.998457 
L 363.177338 159.746834 
L 363.534458 162.986634 
L 363.891578 164.629123 
L 364.248698 167.715286 
L 364.605818 168.034895 
L 365.677178 175.311995 
L 366.391418 178.915868 
L 367.105658 182.959615 
L 367.462778 183.581038 
L 367.819898 186.657078 
L 368.177018 187.786506 
L 368.891258 190.938048 
L 369.248378 193.9657 
L 369.962618 197.262324 
L 370.319738 198.046854 
L 370.676858 200.976549 
L 373.533818 212.913332 
L 373.890938 213.339154 
L 374.248058 214.244799 
L 374.605178 216.315122 
L 374.962298 216.893041 
L 375.319418 218.965612 
L 375.676538 220.322117 
L 376.033658 221.070677 
L 376.390778 222.371762 
L 376.747898 222.673821 
L 377.462138 225.182965 
L 377.819258 225.012444 
L 378.176378 225.9875 
L 378.533498 227.651474 
L 378.890618 226.627271 
L 379.247738 228.129397 
L 379.604858 228.406148 
L 379.961978 228.070173 
L 380.319098 229.901943 
L 380.676218 230.535641 
L 381.033338 229.910144 
L 381.747578 230.639588 
L 382.104698 232.001208 
L 382.818938 231.146738 
L 383.176058 231.456154 
L 383.533178 231.607557 
L 383.890298 230.97977 
L 384.247418 230.620098 
L 384.604538 231.038628 
L 384.961658 231.793127 
L 385.318778 230.110226 
L 385.675898 229.837819 
L 386.033018 229.968232 
L 386.390138 229.433842 
L 386.747258 228.393569 
L 387.104378 228.450177 
L 387.461498 228.001423 
L 387.818618 227.219492 
L 389.247098 223.22578 
L 389.604218 222.575071 
L 389.961338 222.165914 
L 390.675578 219.522184 
L 391.032698 219.144144 
L 391.746938 216.309725 
L 392.104058 215.931992 
L 392.461178 213.480976 
L 392.818298 213.912111 
L 393.175418 211.425889 
L 393.532538 210.609477 
L 394.246778 206.392127 
L 394.603898 206.841442 
L 396.032378 200.360627 
L 396.389498 197.986583 
L 396.746618 197.805772 
L 397.103738 195.134149 
L 397.460858 193.825916 
L 398.175098 190.093066 
L 398.532218 188.539747 
L 398.889338 185.715136 
L 399.246458 185.377304 
L 399.603578 183.855823 
L 399.960698 181.194293 
L 400.317818 180.308723 
L 400.674938 177.744974 
L 401.032058 176.035853 
L 401.389178 173.262329 
L 401.746298 173.166897 
L 402.103418 171.267001 
L 402.460538 168.063578 
L 402.817658 166.771446 
L 403.174778 166.175676 
L 403.531898 162.511166 
L 403.889018 162.275464 
L 404.603258 157.512797 
L 405.317498 154.413359 
L 406.388858 148.936846 
L 406.745978 147.589139 
L 408.174458 140.280087 
L 408.531578 139.512932 
L 408.888698 137.151678 
L 409.602938 134.943562 
L 409.960058 133.018593 
L 410.317178 131.845048 
L 411.031418 128.334163 
L 411.745658 124.923486 
L 412.102778 124.186967 
L 412.459898 122.145146 
L 413.174138 120.369152 
L 413.531258 118.623432 
L 414.245498 116.50873 
L 414.602618 114.745786 
L 414.959738 114.490723 
L 415.673978 111.55618 
L 416.031098 110.86506 
L 416.388218 111.429923 
L 416.745338 108.840397 
L 417.102458 108.523476 
L 417.816698 107.131313 
L 418.173818 105.694039 
L 418.530938 105.712759 
L 418.530938 105.712759 
" style="fill:none;stroke:#2ca02c;stroke-dasharray:5.55,2.4;stroke-dashoffset:0;stroke-width:1.5;"/>
   </g>
   <g id="line2d_26">
    <path clip-path="url(#p304c686b55)" d="M 61.410938 278.518987 
L 62.125178 278.518987 
L 62.482298 278.188961 
L 62.839418 278.518987 
L 63.196538 278.518987 
L 63.553658 277.098432 
L 63.910778 276.183919 
L 64.267898 276.183919 
L 64.625018 274.907429 
L 64.982138 274.308057 
L 65.339258 274.048236 
L 66.053498 270.498173 
L 66.410618 270.109603 
L 66.767738 267.992544 
L 67.481978 265.234941 
L 67.839098 263.20298 
L 68.553338 260.140019 
L 68.910458 257.825608 
L 69.267578 256.780115 
L 72.124538 238.096567 
L 72.838778 232.288117 
L 73.195898 230.7378 
L 73.553018 226.59047 
L 73.910138 224.451356 
L 74.981498 214.623958 
L 77.481338 193.185208 
L 77.838458 188.904028 
L 78.195578 187.327708 
L 78.552698 182.275626 
L 78.909818 179.664512 
L 79.624058 172.010731 
L 79.981178 169.806742 
L 81.052538 159.147853 
L 87.123578 102.335889 
L 87.480698 99.71251 
L 87.837818 95.057459 
L 88.194938 93.892232 
L 88.552058 90.063919 
L 89.266298 84.838828 
L 89.623418 81.742601 
L 89.980538 79.647637 
L 91.051898 70.561857 
L 91.409018 68.863585 
L 91.766138 65.7693 
L 92.480378 63.085687 
L 92.837498 59.897092 
L 94.623098 49.743299 
L 95.337338 46.193867 
L 96.051578 42.604505 
L 96.408698 41.271951 
L 96.765818 40.418023 
L 97.122938 39.92223 
L 97.480058 38.284102 
L 97.837178 37.294963 
L 98.194298 35.958544 
L 98.551418 35.134694 
L 98.908538 34.73622 
L 99.265658 32.478305 
L 99.622778 32.560586 
L 99.979898 32.192965 
L 100.337018 32.437165 
L 100.694138 30.959163 
L 101.051258 30.907199 
L 101.408378 31.971448 
L 101.765498 30.729602 
L 102.122618 31.011127 
L 102.479738 31.461972 
L 102.836858 31.363239 
L 103.193978 32.278822 
L 103.551098 31.681822 
L 103.908218 32.150036 
L 104.265338 31.881689 
L 104.622458 34.120056 
L 104.979578 34.836769 
L 105.336698 35.221819 
L 105.693818 35.872895 
L 106.050938 37.222712 
L 106.765178 39.298356 
L 108.550778 46.358446 
L 109.979258 52.871792 
L 111.407738 60.804947 
L 111.764858 63.946454 
L 112.121978 65.486065 
L 113.193338 73.187359 
L 113.550458 74.881013 
L 116.050298 94.237384 
L 116.407418 97.704301 
L 116.764538 99.277401 
L 117.121658 101.854627 
L 117.478778 106.055067 
L 118.550138 114.521861 
L 120.335738 129.10827 
L 120.692858 134.088738 
L 121.407098 141.017603 
L 122.121338 145.74363 
L 122.835578 152.394004 
L 123.192698 153.941773 
L 123.906938 162.868783 
L 124.264058 164.980056 
L 127.121018 190.022214 
L 127.478138 191.924727 
L 128.192378 198.51272 
L 128.549498 200.683605 
L 131.049338 220.056902 
L 132.477818 229.754459 
L 132.834938 230.97977 
L 133.549178 237.137322 
L 133.906298 238.400064 
L 134.263418 240.784607 
L 134.620538 242.07291 
L 135.334778 246.690927 
L 136.049018 249.508438 
L 136.406138 251.181243 
L 136.763258 251.986333 
L 137.477498 255.762948 
L 137.834618 255.931541 
L 138.191738 259.282277 
L 138.548858 259.74087 
L 138.905978 260.536344 
L 139.263098 261.929315 
L 139.620218 262.495548 
L 139.977338 264.118213 
L 140.334458 263.032728 
L 140.691578 263.784607 
L 141.048698 265.551914 
L 141.405818 265.922127 
L 141.762938 266.040331 
L 142.120058 266.394669 
L 142.477178 267.517541 
L 142.834298 267.374777 
L 143.191418 266.415678 
L 143.548538 268.185213 
L 143.905658 267.307452 
L 144.262778 267.083034 
L 144.619898 268.863752 
L 144.977018 266.394669 
L 145.334138 266.571216 
L 145.691258 265.942279 
L 146.048378 266.01976 
L 146.405498 263.678809 
L 146.762618 264.391029 
L 147.476858 262.086381 
L 147.833978 261.945241 
L 148.191098 261.076933 
L 148.548218 258.843096 
L 148.905338 259.212737 
L 149.262458 257.228671 
L 149.619578 256.379095 
L 149.976698 255.883372 
L 150.333818 252.525888 
L 151.405178 248.469916 
L 151.762298 245.96549 
L 152.119418 245.344381 
L 153.190778 239.408467 
L 154.619258 231.86603 
L 154.976378 228.267773 
L 155.333498 226.11551 
L 155.690618 224.665322 
L 157.833338 208.699941 
L 163.190138 165.600309 
L 163.547258 162.251081 
L 163.904378 160.378192 
L 165.689978 144.24213 
L 166.047098 142.273325 
L 166.404218 139.655753 
L 167.832698 126.295168 
L 168.189818 124.635286 
L 168.904058 117.970569 
L 169.261178 116.135968 
L 170.332538 106.264679 
L 172.832378 88.571804 
L 173.189498 84.78775 
L 173.546618 83.666169 
L 173.903738 80.49607 
L 174.617978 76.765079 
L 176.046458 67.066715 
L 176.403578 65.669785 
L 177.117818 60.660229 
L 177.474938 59.967003 
L 177.832058 57.670256 
L 178.546298 54.614793 
L 178.903418 53.84886 
L 179.260538 52.808084 
L 179.617658 50.987923 
L 180.689018 47.597538 
L 181.403258 44.509963 
L 181.760378 44.138324 
L 182.474618 42.131453 
L 182.831738 42.313409 
L 183.188858 41.360116 
L 183.545978 38.862606 
L 184.260218 40.19015 
L 184.617338 38.799578 
L 184.974458 39.174925 
L 185.331578 38.820587 
L 185.688698 38.020014 
L 186.402938 39.534953 
L 186.760058 39.092638 
L 187.117178 39.902868 
L 187.474298 38.883616 
L 187.831418 39.434193 
L 188.188538 40.727428 
L 188.545658 41.448282 
L 188.902778 41.501181 
L 189.974138 44.629656 
L 190.331258 45.133324 
L 190.688378 47.597538 
L 191.045498 47.948113 
L 191.402618 49.838477 
L 191.759738 50.479001 
L 192.116858 51.817927 
L 192.473978 53.744848 
L 192.831098 54.99613 
L 193.188218 56.802311 
L 193.545338 57.991525 
L 194.616698 62.78656 
L 194.973818 66.243227 
L 195.330938 68.438062 
L 196.045178 71.221317 
L 196.759418 75.512096 
L 197.116538 78.27967 
L 197.830778 82.202813 
L 198.545018 88.114362 
L 198.902138 91.234495 
L 199.616378 95.610853 
L 199.973498 99.326531 
L 200.687738 103.569387 
L 201.759098 113.594378 
L 202.473338 118.749589 
L 203.187578 126.290948 
L 203.544698 128.175158 
L 204.616058 136.860752 
L 204.973178 141.090752 
L 205.687418 146.241432 
L 206.758778 156.416014 
L 207.115898 158.856457 
L 207.830138 165.796179 
L 208.544378 171.262869 
L 212.472698 204.561146 
L 213.186938 209.589211 
L 213.901178 216.164028 
L 214.258298 217.27548 
L 216.043898 230.496661 
L 217.472378 238.919262 
L 217.829498 240.440221 
L 218.186618 243.841875 
L 218.543738 245.379336 
L 218.900858 247.581916 
L 219.257978 248.374965 
L 219.615098 251.071104 
L 219.972218 251.77623 
L 220.686458 255.400573 
L 221.043578 256.268003 
L 221.757818 259.143196 
L 222.114938 259.578831 
L 222.472058 261.491044 
L 222.829178 262.643667 
L 223.186298 264.835212 
L 223.543418 264.354457 
L 224.257658 266.226594 
L 225.329018 268.210828 
L 225.686138 268.16113 
L 226.043258 267.992544 
L 226.400378 267.44865 
L 227.114618 269.256712 
L 227.471738 269.342362 
L 227.828858 269.123277 
L 228.185978 267.643592 
L 228.543098 267.878695 
L 228.900218 266.799496 
L 229.257338 267.106699 
L 229.971578 265.760911 
L 230.328698 265.099409 
L 231.042938 262.088583 
L 231.400058 262.801427 
L 232.114298 259.157104 
L 232.828538 255.883372 
L 233.185658 255.352475 
L 233.899898 252.109866 
L 234.257018 249.914541 
L 234.614138 249.323285 
L 234.971258 247.14144 
L 235.328378 246.772463 
L 235.685498 243.828259 
L 236.042618 241.939675 
L 236.399738 239.112219 
L 236.756858 238.155966 
L 237.113978 234.583857 
L 237.471098 233.000834 
L 237.828218 230.894754 
L 238.185338 227.870173 
L 238.542458 227.219492 
L 239.256698 220.654519 
L 240.685178 211.023922 
L 241.399418 204.945446 
L 242.113658 199.493137 
L 242.827898 192.471509 
L 243.542138 187.13545 
L 244.256378 181.946457 
L 244.613498 178.089552 
L 244.970618 175.628665 
L 246.041978 165.27386 
L 246.399098 162.734676 
L 248.541818 143.252706 
L 249.256058 137.561433 
L 249.970298 131.52556 
L 250.327418 129.250538 
L 250.684538 123.92732 
L 251.041658 122.456563 
L 251.755898 114.544102 
L 252.113018 113.026896 
L 254.969978 90.026554 
L 255.327098 88.436158 
L 255.684218 85.16964 
L 256.755578 78.698389 
L 257.112698 75.698054 
L 257.469818 74.170089 
L 258.184058 69.021012 
L 258.898298 65.060037 
L 259.255418 62.664143 
L 259.612538 61.083153 
L 259.969658 58.956188 
L 260.326778 58.064673 
L 260.683898 55.389589 
L 261.041018 54.524106 
L 262.469498 47.99941 
L 262.826617 47.402642 
L 263.183738 46.113784 
L 263.540858 45.302653 
L 263.897978 43.909362 
L 264.612218 42.029302 
L 264.969338 42.063352 
L 265.326458 40.285097 
L 265.683578 39.860832 
L 266.040698 39.980315 
L 266.397818 37.571665 
L 266.754938 38.729904 
L 267.112058 38.778568 
L 267.469178 38.042455 
L 267.826298 39.277784 
L 268.183418 38.493777 
L 268.897658 39.010351 
L 269.254778 39.941591 
L 269.611898 39.595409 
L 269.969018 39.663342 
L 270.326138 40.380044 
L 270.683258 41.804522 
L 271.040378 41.624613 
L 271.397498 41.717902 
L 271.754618 43.365576 
L 272.111738 44.10794 
L 272.468858 45.302653 
L 272.825978 46.961375 
L 273.183098 47.454614 
L 274.968698 54.147163 
L 275.325818 56.409084 
L 275.682938 57.734858 
L 276.040058 58.598587 
L 276.397178 61.940872 
L 276.754298 63.029028 
L 278.182778 71.509337 
L 278.539898 73.448639 
L 279.254138 78.514382 
L 280.325498 85.423754 
L 280.682618 88.059804 
L 281.039738 91.73428 
L 281.753978 95.967144 
L 282.111098 97.788661 
L 282.468218 101.796822 
L 282.825338 103.835254 
L 283.539578 110.126615 
L 283.896698 112.39812 
L 286.039418 130.390765 
L 286.396538 132.40519 
L 287.110778 140.178072 
L 287.467898 142.736601 
L 287.825018 146.95778 
L 288.182138 148.139554 
L 288.896378 155.134846 
L 289.967738 164.718896 
L 290.681978 170.580291 
L 291.039098 173.378506 
L 291.396218 177.177682 
L 291.753338 179.109993 
L 292.824698 188.443191 
L 293.181818 190.553608 
L 293.896058 196.687187 
L 294.253178 198.731649 
L 294.610298 202.99921 
L 298.181498 227.477574 
L 298.538618 228.752761 
L 298.895738 232.568157 
L 299.252858 233.891075 
L 299.609978 237.195841 
L 300.324218 240.69056 
L 301.038458 244.299642 
L 301.395578 244.727701 
L 302.109818 250.042914 
L 302.466938 250.775877 
L 303.538298 255.058583 
L 304.252538 257.241495 
L 304.966778 259.912603 
L 305.323898 260.521606 
L 305.681018 261.913388 
L 306.038138 262.008949 
L 306.395258 263.220005 
L 306.752378 263.696442 
L 307.109498 263.48003 
L 307.466618 264.711402 
L 307.823738 264.409316 
L 308.180858 265.611161 
L 308.537978 265.334675 
L 308.895098 264.91117 
L 309.609338 265.619847 
L 309.966458 264.261843 
L 310.323578 264.711402 
L 310.680698 264.711402 
L 311.037818 264.172075 
L 311.394938 264.336171 
L 311.752058 263.920722 
L 312.466298 261.228748 
L 312.823418 261.367611 
L 313.180538 259.74087 
L 313.537658 259.395444 
L 313.894778 258.109304 
L 314.251898 257.872311 
L 314.609018 257.34409 
L 315.680378 251.522381 
L 316.037498 251.263533 
L 317.823098 240.984404 
L 318.180218 240.378017 
L 319.251578 233.692204 
L 319.608698 232.581592 
L 321.394298 220.427506 
L 322.108538 215.625413 
L 323.179898 207.451407 
L 323.537018 205.38053 
L 326.393978 181.53907 
L 327.108218 176.08188 
L 327.465338 173.975991 
L 327.822458 169.131944 
L 328.893818 161.070258 
L 329.250938 158.188674 
L 329.608058 153.937743 
L 331.393658 138.986532 
L 331.750778 135.338566 
L 332.465018 130.374098 
L 332.822138 127.377834 
L 333.179258 123.033678 
L 333.536378 121.586989 
L 334.250618 114.512965 
L 335.679098 103.997737 
L 336.393338 97.087873 
L 336.750458 95.463993 
L 338.893178 79.76133 
L 339.250298 78.397845 
L 339.964538 73.851269 
L 340.678778 69.409209 
L 341.035898 66.461833 
L 341.393018 65.715715 
L 341.750138 63.899054 
L 342.107258 61.386997 
L 342.821498 58.082959 
L 343.178618 55.843565 
L 343.535738 54.986155 
L 344.249978 52.136806 
L 344.607098 51.135477 
L 344.964218 48.435142 
L 345.321338 48.799131 
L 345.678458 47.31169 
L 346.035578 45.220453 
L 346.392698 44.315462 
L 346.749818 45.188164 
L 347.464058 42.480775 
L 347.821178 42.588047 
L 348.178298 41.804522 
L 348.535418 41.330441 
L 348.892538 41.395383 
L 349.249658 40.380044 
L 349.606778 40.503854 
L 349.963898 41.079089 
L 350.321018 40.285097 
L 350.678138 40.971367 
L 351.035258 41.025228 
L 351.392378 41.60698 
L 351.749498 41.448282 
L 352.106618 42.497512 
L 352.463738 42.740366 
L 352.820858 42.497512 
L 353.177978 44.27505 
L 353.535098 44.87051 
L 353.892218 45.147845 
L 354.249338 46.099876 
L 354.606458 47.807045 
L 354.963578 48.597638 
L 355.320698 48.885535 
L 355.677818 50.455766 
L 356.034938 51.244931 
L 356.392058 52.88241 
L 357.106298 56.821301 
L 357.463418 57.448763 
L 357.820538 59.923309 
L 358.177658 61.026281 
L 358.891898 66.004288 
L 359.606138 68.5839 
L 360.677498 76.557447 
L 361.034618 78.057483 
L 361.748858 83.008918 
L 362.463098 87.311031 
L 362.820218 90.633772 
L 363.177338 92.244451 
L 363.534458 96.319825 
L 363.891578 97.217546 
L 364.248698 101.411454 
L 364.605818 103.607368 
L 364.962938 107.523782 
L 365.320058 108.835804 
L 367.462778 127.613156 
L 368.177018 132.450831 
L 368.534138 136.627192 
L 368.891258 138.582551 
L 369.248378 142.805686 
L 369.605498 143.886663 
L 369.962618 148.345959 
L 372.462458 168.440552 
L 372.819578 173.478087 
L 373.176698 175.345329 
L 374.605178 188.004981 
L 375.319418 192.686965 
L 375.676538 196.342708 
L 377.105018 205.99681 
L 377.462138 209.822161 
L 378.890618 219.679286 
L 379.604858 224.534639 
L 381.390458 235.176522 
L 381.747578 236.703436 
L 382.104698 240.062642 
L 382.461818 240.409119 
L 383.176058 243.615924 
L 383.533178 246.027764 
L 384.247418 248.365776 
L 384.604538 250.928581 
L 384.961658 251.449619 
L 385.318778 252.269137 
L 386.033018 254.840812 
L 386.390138 255.293697 
L 386.747258 256.900238 
L 387.461498 258.754122 
L 387.818618 259.157104 
L 388.175738 260.183584 
L 389.247098 260.869871 
L 389.604218 262.086381 
L 389.961338 260.705293 
L 390.318458 261.849681 
L 390.675578 261.413898 
L 391.032698 262.151133 
L 391.389818 261.046549 
L 391.746938 261.651842 
L 392.104058 261.8019 
L 392.461178 260.595298 
L 392.818298 260.24167 
L 393.532538 258.188302 
L 393.889658 259.021389 
L 394.246778 256.938218 
L 394.603898 256.490186 
L 394.961018 254.54773 
L 395.675258 253.375139 
L 396.032378 251.418435 
L 396.746618 249.255516 
L 397.103738 249.537769 
L 398.175098 243.766558 
L 398.532218 242.469502 
L 401.032058 228.68946 
L 401.389178 225.950926 
L 401.746298 224.576281 
L 402.103418 221.316125 
L 403.174778 215.290121 
L 405.317498 199.909196 
L 405.674618 196.69178 
L 406.031738 195.338931 
L 406.745978 188.781138 
L 407.103098 186.17855 
L 407.460218 182.715944 
L 407.817338 180.938903 
L 408.174458 178.493856 
L 408.888698 171.126518 
L 409.245818 169.531062 
L 410.317178 160.268919 
L 411.031418 155.211428 
L 412.102778 145.642451 
L 413.888378 131.724722 
L 414.602618 126.261407 
L 415.673978 118.575579 
L 416.388218 112.218573 
L 416.745338 110.973777 
L 418.530938 97.481878 
L 418.530938 97.481878 
" style="fill:none;stroke:#1f77b4;stroke-linecap:square;stroke-width:1.5;"/>
   </g>
   <g id="line2d_27">
    <path clip-path="url(#p304c686b55)" d="M 61.410938 271.333963 
L 62.949301 271.333963 
L 63.333891 271.003937 
L 63.718482 269.790028 
L 64.103073 268.998895 
L 64.487664 269.46774 
L 65.256845 266.583492 
L 65.641436 265.880196 
L 66.026027 265.447389 
L 66.410618 262.445364 
L 66.795208 262.349336 
L 67.179799 262.045001 
L 67.948981 258.149651 
L 68.333571 256.771606 
L 70.256525 247.73711 
L 70.641116 246.267782 
L 71.794888 239.551201 
L 72.179479 238.150618 
L 72.56407 234.312982 
L 72.948661 232.715607 
L 73.333251 229.966928 
L 73.717842 229.16522 
L 74.487024 223.240173 
L 74.871614 221.107908 
L 75.256205 218.274924 
L 75.640796 216.399313 
L 76.025387 215.128649 
L 76.409978 211.640805 
L 77.179159 206.938318 
L 77.56375 203.664933 
L 77.948341 202.083241 
L 79.871294 189.014644 
L 80.255885 188.226719 
L 80.640476 185.30444 
L 81.025067 183.257877 
L 81.409658 179.941687 
L 82.178839 175.992424 
L 82.56343 173.420376 
L 82.948021 171.747724 
L 83.332611 168.901041 
L 83.717202 168.360307 
L 84.101793 165.408296 
L 84.486384 163.986944 
L 84.870974 163.103129 
L 85.255565 161.374357 
L 85.640156 159.096748 
L 86.409338 155.817865 
L 86.793928 153.407668 
L 87.178519 152.391829 
L 87.947701 149.951386 
L 88.332291 147.836963 
L 88.716882 147.091293 
L 89.101473 147.059048 
L 89.486064 145.390359 
L 89.870654 144.560045 
L 90.639836 142.257718 
L 91.024427 141.460426 
L 91.793608 140.82502 
L 92.178199 139.69586 
L 92.56279 139.744426 
L 92.947381 138.825719 
L 93.331971 138.445285 
L 93.716562 139.291143 
L 94.101153 138.80953 
L 94.870334 137.449682 
L 95.254925 138.251021 
L 95.639516 137.834163 
L 96.024107 137.959625 
L 96.408698 138.485757 
L 96.793288 138.684068 
L 97.177879 138.149842 
L 97.56247 139.772756 
L 97.947061 140.080341 
L 98.331651 140.590285 
L 98.716242 140.084388 
L 99.485424 141.330916 
L 99.870014 142.152492 
L 100.254605 142.589057 
L 101.408378 145.898221 
L 102.177559 146.809148 
L 102.56215 148.211814 
L 102.946741 148.010281 
L 103.331331 148.086864 
L 104.100513 151.950687 
L 104.485104 152.306838 
L 104.869694 153.585744 
L 106.023467 155.91946 
L 106.408058 155.728461 
L 106.792648 157.444099 
L 107.177239 157.476744 
L 107.56183 159.895143 
L 108.331011 161.37026 
L 108.715602 164.024131 
L 109.100193 163.650373 
L 109.484784 165.251286 
L 109.869374 164.871157 
L 110.253965 165.342187 
L 110.638556 166.712132 
L 111.023147 167.276964 
L 111.792328 170.122925 
L 112.946101 171.507177 
L 113.330691 172.988076 
L 114.099873 172.860929 
L 114.484464 173.809213 
L 114.869054 175.329998 
L 115.253645 174.498767 
L 115.638236 176.086881 
L 116.022827 175.82589 
L 116.407418 176.112642 
L 117.176599 178.958898 
L 117.945781 176.567755 
L 118.330371 178.629729 
L 118.714962 178.378521 
L 119.484144 180.43981 
L 120.253325 179.515557 
L 120.637916 178.352534 
L 121.022507 179.415501 
L 121.791688 179.472054 
L 122.176279 179.245841 
L 122.56087 179.298044 
L 122.945461 179.184937 
L 123.330051 179.672166 
L 123.714642 179.197988 
L 124.099233 178.456482 
L 124.868414 178.70769 
L 125.253005 177.307474 
L 125.637596 178.027696 
L 126.022187 177.428218 
L 126.406778 178.062345 
L 126.791368 177.044426 
L 127.175959 177.152233 
L 127.56055 176.400308 
L 127.945141 176.593516 
L 128.329731 176.953869 
L 128.714322 176.340199 
L 129.098913 176.099762 
L 129.483504 174.868306 
L 129.868094 174.804182 
L 130.252685 174.285942 
L 130.637276 174.996554 
L 131.021867 174.681796 
L 131.406458 173.272038 
L 131.791048 173.53057 
L 132.175639 173.034696 
L 132.56023 173.598382 
L 132.944821 172.233038 
L 133.714002 171.815246 
L 134.098593 171.232869 
L 134.483184 171.363693 
L 134.867774 170.6566 
L 135.252365 171.60424 
L 136.021547 170.114521 
L 136.406138 170.681813 
L 136.790728 169.908615 
L 137.175319 170.122925 
L 137.55991 169.883402 
L 137.944501 168.951253 
L 138.329091 168.921963 
L 139.098273 168.481141 
L 139.482864 169.432454 
L 139.867454 169.729544 
L 140.252045 168.930331 
L 140.636636 169.691885 
L 141.021227 168.649979 
L 141.405818 168.817354 
L 141.790408 169.281817 
L 142.174999 169.290186 
L 142.55959 169.616566 
L 142.944181 169.675147 
L 143.328771 169.407348 
L 143.713362 169.650041 
L 144.097953 170.299416 
L 144.482544 170.303618 
L 145.251725 171.351033 
L 146.020907 171.570479 
L 146.405498 170.681813 
L 146.790088 171.840567 
L 147.174679 171.313052 
L 147.943861 173.496664 
L 148.328451 173.174558 
L 148.713042 173.060126 
L 149.097633 173.685775 
L 149.482224 173.647466 
L 149.866814 174.051834 
L 150.251405 175.069228 
L 150.635996 175.436872 
L 151.020587 174.720105 
L 151.405178 175.163276 
L 152.174359 176.705147 
L 152.55895 176.932308 
L 152.943541 176.760963 
L 153.328131 177.708515 
L 153.712722 177.212605 
L 154.097313 178.148968 
L 154.481904 178.304891 
L 154.866494 179.919839 
L 155.251085 178.525781 
L 156.020267 180.160162 
L 156.789448 179.580811 
L 157.174039 180.53157 
L 157.55863 180.946553 
L 157.943221 181.095777 
L 158.327811 180.343681 
L 158.712402 182.93904 
L 159.096993 181.315223 
L 159.866174 182.806192 
L 160.250765 182.761909 
L 160.635356 182.551133 
L 161.019947 183.548405 
L 161.404538 182.436512 
L 161.789128 183.86423 
L 162.55831 183.244592 
L 162.942901 184.251226 
L 163.327491 184.393569 
L 163.712082 183.222451 
L 164.096673 183.632922 
L 164.481264 183.850885 
L 164.865854 183.173739 
L 165.250445 183.606232 
L 165.635036 184.228985 
L 166.019627 183.859782 
L 166.404218 183.036463 
L 166.788808 183.036463 
L 167.173399 182.916899 
L 167.55799 184.931843 
L 167.942581 183.71299 
L 168.327171 183.708542 
L 169.096353 183.235735 
L 169.480944 182.238129 
L 169.865534 183.169311 
L 170.250125 181.508336 
L 170.634716 181.732171 
L 171.019307 182.105873 
L 171.788488 181.139666 
L 172.173079 181.284501 
L 172.55767 180.675763 
L 172.942261 180.832441 
L 173.326851 180.417963 
L 173.711442 181.464446 
L 174.096033 179.485105 
L 174.480624 179.820075 
L 174.865214 179.628663 
L 175.249805 179.041379 
L 175.634396 178.140306 
L 176.018987 178.923922 
L 176.403578 177.829258 
L 177.172759 177.096174 
L 177.55735 177.320411 
L 177.941941 176.666506 
L 178.326531 176.59781 
L 179.095713 175.654893 
L 179.480304 175.129077 
L 179.864894 175.646343 
L 180.249485 175.483896 
L 180.634076 175.590769 
L 181.018667 174.639231 
L 181.403258 174.485997 
L 181.787848 173.996499 
L 182.172439 173.09827 
L 182.941621 173.868804 
L 183.326211 172.410283 
L 183.710802 173.621927 
L 184.095393 172.873644 
L 184.479984 172.822785 
L 184.864574 172.148636 
L 185.249165 172.346982 
L 185.633756 171.477636 
L 186.018347 172.640541 
L 186.402938 171.519838 
L 187.172119 171.431215 
L 187.55671 172.487964 
L 187.941301 171.545158 
L 188.325891 172.034693 
L 188.710482 171.756165 
L 189.095073 171.967171 
L 189.479664 170.963358 
L 189.864254 171.870108 
L 190.248845 171.701303 
L 190.633436 171.329932 
L 191.402618 171.650661 
L 191.787208 172.123315 
L 192.171799 171.308832 
L 192.55639 171.93341 
L 192.940981 171.25819 
L 193.325571 171.10203 
L 193.710162 171.996711 
L 194.094753 172.389183 
L 194.479344 172.492203 
L 194.863934 173.454282 
L 196.017707 172.245699 
L 196.786888 173.45852 
L 197.55607 173.522093 
L 197.940661 173.28899 
L 198.325251 173.873061 
L 199.094433 173.873061 
L 199.479024 175.103427 
L 199.863614 173.81347 
L 200.248205 175.082053 
L 200.632796 174.588153 
L 201.017387 174.715848 
L 201.401978 176.5377 
L 201.786568 175.595044 
L 202.940341 176.408895 
L 203.324931 175.342823 
L 203.709522 176.546287 
L 204.094113 176.370253 
L 204.478704 176.589223 
L 204.863294 177.781823 
L 205.247885 176.627864 
L 205.632476 177.712827 
L 206.017067 178.205274 
L 206.401658 177.488589 
L 206.786248 178.789982 
L 207.170839 178.391514 
L 207.55543 178.642722 
L 207.940021 178.499794 
L 208.709202 179.450303 
L 209.093793 178.426164 
L 209.478384 179.097932 
L 209.862974 179.006577 
L 210.247565 179.824425 
L 210.632156 179.311095 
L 211.016747 180.61896 
L 211.785928 178.880937 
L 212.170519 179.785273 
L 212.55511 179.963534 
L 212.939701 180.304356 
L 213.324291 179.807024 
L 213.708882 180.195118 
L 214.093473 180.278139 
L 214.478064 179.537308 
L 214.862654 180.203857 
L 215.247245 179.981012 
L 215.631836 179.541658 
L 216.016427 180.195118 
L 216.401018 179.06313 
L 216.785608 179.358948 
L 217.170199 180.033446 
L 217.939381 180.116467 
L 218.323971 179.876144 
L 218.708562 179.05878 
L 219.093153 179.880514 
L 219.862334 178.508456 
L 220.246925 179.454653 
L 220.631516 179.619963 
L 221.016107 179.324146 
L 221.400698 179.585161 
L 221.785288 179.350247 
L 222.169879 179.74177 
L 222.55447 179.006577 
L 222.939061 179.56341 
L 223.708242 178.010371 
L 224.092833 178.278904 
L 224.477424 179.010927 
L 224.862014 179.076181 
L 225.631196 177.799072 
L 226.015787 178.157631 
L 226.400378 178.209605 
L 226.784968 176.927995 
L 227.169559 178.174955 
L 227.55415 177.717139 
L 227.938741 178.603742 
L 228.323331 177.984384 
L 228.707922 178.395845 
L 229.092513 177.320411 
L 229.477104 177.949734 
L 229.861694 178.239923 
L 230.246285 178.205274 
L 231.015467 176.314438 
L 231.400058 177.329036 
L 231.784648 177.389407 
L 232.169239 176.194219 
L 232.938421 178.075338 
L 233.323011 177.117735 
L 233.707602 177.341973 
L 234.861374 176.460417 
L 235.245965 177.898254 
L 235.630556 177.061675 
L 236.015147 177.290225 
L 236.399738 177.695578 
L 236.784328 176.812485 
L 237.168919 177.182419 
L 237.55351 177.33766 
L 238.322691 177.018553 
L 238.707282 176.5377 
L 239.091873 176.434656 
L 239.476464 178.1533 
L 239.861054 177.997377 
L 240.245645 178.19228 
L 240.630236 177.773199 
L 241.014827 178.443488 
L 241.399418 177.893942 
L 241.784008 177.885318 
L 242.168599 178.07967 
L 242.55319 177.531712 
L 243.322371 178.426164 
L 244.091553 177.669704 
L 244.476144 178.443488 
L 244.860734 178.443488 
L 245.245325 178.841957 
L 246.014507 178.655716 
L 246.399098 179.150135 
L 247.168279 179.559059 
L 247.55287 179.22409 
L 247.937461 178.66871 
L 248.322051 179.315445 
L 249.091233 179.450303 
L 249.475824 180.133945 
L 249.860414 179.506856 
L 250.245005 179.167536 
L 250.629596 179.585161 
L 251.014187 179.176237 
L 251.398778 179.759171 
L 251.783368 179.91547 
L 252.167959 179.489455 
L 252.55255 179.815724 
L 252.937141 179.289343 
L 253.321731 179.680866 
L 253.706322 179.715669 
L 253.706322 179.715669 
" style="fill:none;stroke:#d62728;stroke-linecap:square;stroke-width:1.5;"/>
   </g>
   <g id="line2d_28">
    <path clip-path="url(#p304c686b55)" d="M 61.410938 23.543308 
L 418.530938 23.543308 
" style="fill:none;stroke:#99aaaa;stroke-dasharray:9.6,2.4,1.5,2.4;stroke-dashoffset:0;stroke-width:1.5;"/>
   </g>
   <g id="line2d_29">
    <defs>
     <path d="M -3 3 
L 3 3 
L 3 -3 
L -3 -3 
z
" id="m9e0ac68bfd" style="stroke:#1f77b4;stroke-linejoin:miter;"/>
    </defs>
    <g clip-path="url(#p304c686b55)">
     <use style="fill:#1f77b4;stroke:#1f77b4;stroke-linejoin:miter;" x="61.410938" xlink:href="#m9e0ac68bfd" y="278.419468"/>
     <use style="fill:#1f77b4;stroke:#1f77b4;stroke-linejoin:miter;" x="73.086014" xlink:href="#m9e0ac68bfd" y="222.165307"/>
     <use style="fill:#1f77b4;stroke:#1f77b4;stroke-linejoin:miter;" x="84.761091" xlink:href="#m9e0ac68bfd" y="139.53546"/>
     <use style="fill:#1f77b4;stroke:#1f77b4;stroke-linejoin:miter;" x="96.436168" xlink:href="#m9e0ac68bfd" y="64.916606"/>
     <use style="fill:#1f77b4;stroke:#1f77b4;stroke-linejoin:miter;" x="108.111245" xlink:href="#m9e0ac68bfd" y="77.720982"/>
     <use style="fill:#1f77b4;stroke:#1f77b4;stroke-linejoin:miter;" x="119.786322" xlink:href="#m9e0ac68bfd" y="120.146552"/>
     <use style="fill:#1f77b4;stroke:#1f77b4;stroke-linejoin:miter;" x="131.461399" xlink:href="#m9e0ac68bfd" y="220.873747"/>
     <use style="fill:#1f77b4;stroke:#1f77b4;stroke-linejoin:miter;" x="143.136476" xlink:href="#m9e0ac68bfd" y="242.776828"/>
     <use style="fill:#1f77b4;stroke:#1f77b4;stroke-linejoin:miter;" x="154.811553" xlink:href="#m9e0ac68bfd" y="191.639292"/>
     <use style="fill:#1f77b4;stroke:#1f77b4;stroke-linejoin:miter;" x="166.48663" xlink:href="#m9e0ac68bfd" y="130.696113"/>
     <use style="fill:#1f77b4;stroke:#1f77b4;stroke-linejoin:miter;" x="178.161707" xlink:href="#m9e0ac68bfd" y="58.053579"/>
     <use style="fill:#1f77b4;stroke:#1f77b4;stroke-linejoin:miter;" x="189.836784" xlink:href="#m9e0ac68bfd" y="62.794828"/>
     <use style="fill:#1f77b4;stroke:#1f77b4;stroke-linejoin:miter;" x="201.511861" xlink:href="#m9e0ac68bfd" y="144.750701"/>
     <use style="fill:#1f77b4;stroke:#1f77b4;stroke-linejoin:miter;" x="213.186938" xlink:href="#m9e0ac68bfd" y="222.06737"/>
     <use style="fill:#1f77b4;stroke:#1f77b4;stroke-linejoin:miter;" x="224.862014" xlink:href="#m9e0ac68bfd" y="230.050828"/>
     <use style="fill:#1f77b4;stroke:#1f77b4;stroke-linejoin:miter;" x="236.537091" xlink:href="#m9e0ac68bfd" y="176.708338"/>
     <use style="fill:#1f77b4;stroke:#1f77b4;stroke-linejoin:miter;" x="248.212168" xlink:href="#m9e0ac68bfd" y="100.978152"/>
     <use style="fill:#1f77b4;stroke:#1f77b4;stroke-linejoin:miter;" x="259.887245" xlink:href="#m9e0ac68bfd" y="64.026828"/>
     <use style="fill:#1f77b4;stroke:#1f77b4;stroke-linejoin:miter;" x="271.562322" xlink:href="#m9e0ac68bfd" y="77.935169"/>
     <use style="fill:#1f77b4;stroke:#1f77b4;stroke-linejoin:miter;" x="283.237399" xlink:href="#m9e0ac68bfd" y="147.137548"/>
     <use style="fill:#1f77b4;stroke:#1f77b4;stroke-linejoin:miter;" x="294.912476" xlink:href="#m9e0ac68bfd" y="212.786609"/>
     <use style="fill:#1f77b4;stroke:#1f77b4;stroke-linejoin:miter;" x="306.587553" xlink:href="#m9e0ac68bfd" y="218.581228"/>
     <use style="fill:#1f77b4;stroke:#1f77b4;stroke-linejoin:miter;" x="318.26263" xlink:href="#m9e0ac68bfd" y="177.394221"/>
     <use style="fill:#1f77b4;stroke:#1f77b4;stroke-linejoin:miter;" x="329.937707" xlink:href="#m9e0ac68bfd" y="118.469082"/>
     <use style="fill:#1f77b4;stroke:#1f77b4;stroke-linejoin:miter;" x="341.612784" xlink:href="#m9e0ac68bfd" y="80.031628"/>
     <use style="fill:#1f77b4;stroke:#1f77b4;stroke-linejoin:miter;" x="353.287861" xlink:href="#m9e0ac68bfd" y="101.807215"/>
     <use style="fill:#1f77b4;stroke:#1f77b4;stroke-linejoin:miter;" x="364.962938" xlink:href="#m9e0ac68bfd" y="149.063613"/>
     <use style="fill:#1f77b4;stroke:#1f77b4;stroke-linejoin:miter;" x="376.638014" xlink:href="#m9e0ac68bfd" y="215.432345"/>
     <use style="fill:#1f77b4;stroke:#1f77b4;stroke-linejoin:miter;" x="388.313091" xlink:href="#m9e0ac68bfd" y="208.536252"/>
     <use style="fill:#1f77b4;stroke:#1f77b4;stroke-linejoin:miter;" x="399.988168" xlink:href="#m9e0ac68bfd" y="185.813013"/>
     <use style="fill:#1f77b4;stroke:#1f77b4;stroke-linejoin:miter;" x="411.663245" xlink:href="#m9e0ac68bfd" y="116.523086"/>
    </g>
   </g>
   <g id="line2d_30">
    <defs>
     <path d="M 0 3 
C 0.795609 3 1.55874 2.683901 2.12132 2.12132 
C 2.683901 1.55874 3 0.795609 3 0 
C 3 -0.795609 2.683901 -1.55874 2.12132 -2.12132 
C 1.55874 -2.683901 0.795609 -3 0 -3 
C -0.795609 -3 -1.55874 -2.683901 -2.12132 -2.12132 
C -2.683901 -1.55874 -3 -0.795609 -3 0 
C -3 0.795609 -2.683901 1.55874 -2.12132 2.12132 
C -1.55874 2.683901 -0.795609 3 0 3 
z
" id="m4d17eb6f4c" style="stroke:#d62728;"/>
    </defs>
    <g clip-path="url(#p304c686b55)">
     <use style="fill:#d62728;stroke:#d62728;" x="61.410938" xlink:href="#m4d17eb6f4c" y="271.284996"/>
     <use style="fill:#d62728;stroke:#d62728;" x="73.086014" xlink:href="#m4d17eb6f4c" y="236.862654"/>
     <use style="fill:#d62728;stroke:#d62728;" x="84.761091" xlink:href="#m4d17eb6f4c" y="161.830828"/>
     <use style="fill:#d62728;stroke:#d62728;" x="96.436168" xlink:href="#m4d17eb6f4c" y="183.541269"/>
     <use style="fill:#d62728;stroke:#d62728;" x="108.111245" xlink:href="#m4d17eb6f4c" y="199.830264"/>
     <use style="fill:#d62728;stroke:#d62728;" x="119.786322" xlink:href="#m4d17eb6f4c" y="198.865986"/>
     <use style="fill:#d62728;stroke:#d62728;" x="131.461399" xlink:href="#m4d17eb6f4c" y="186.488444"/>
     <use style="fill:#d62728;stroke:#d62728;" x="143.136476" xlink:href="#m4d17eb6f4c" y="163.418428"/>
     <use style="fill:#d62728;stroke:#d62728;" x="154.811553" xlink:href="#m4d17eb6f4c" y="188.903284"/>
     <use style="fill:#d62728;stroke:#d62728;" x="166.48663" xlink:href="#m4d17eb6f4c" y="179.610169"/>
     <use style="fill:#d62728;stroke:#d62728;" x="178.161707" xlink:href="#m4d17eb6f4c" y="169.028123"/>
     <use style="fill:#d62728;stroke:#d62728;" x="189.836784" xlink:href="#m4d17eb6f4c" y="150.62346"/>
     <use style="fill:#d62728;stroke:#d62728;" x="201.511861" xlink:href="#m4d17eb6f4c" y="171.734428"/>
     <use style="fill:#d62728;stroke:#d62728;" x="213.186938" xlink:href="#m4d17eb6f4c" y="179.001416"/>
     <use style="fill:#d62728;stroke:#d62728;" x="224.862014" xlink:href="#m4d17eb6f4c" y="163.036342"/>
     <use style="fill:#d62728;stroke:#d62728;" x="236.537091" xlink:href="#m4d17eb6f4c" y="161.955233"/>
    </g>
   </g>
   <g id="patch_3">
    <path d="M 61.410938 279.010828 
L 61.410938 12.898828 
" style="fill:none;stroke:#000000;stroke-linecap:square;stroke-linejoin:miter;stroke-width:0.8;"/>
   </g>
   <g id="patch_4">
    <path d="M 418.530938 279.010828 
L 418.530938 12.898828 
" style="fill:none;stroke:#000000;stroke-linecap:square;stroke-linejoin:miter;stroke-width:0.8;"/>
   </g>
   <g id="patch_5">
    <path d="M 61.410938 279.010828 
L 418.530938 279.010828 
" style="fill:none;stroke:#000000;stroke-linecap:square;stroke-linejoin:miter;stroke-width:0.8;"/>
   </g>
   <g id="patch_6">
    <path d="M 61.410938 12.898828 
L 418.530938 12.898828 
" style="fill:none;stroke:#000000;stroke-linecap:square;stroke-linejoin:miter;stroke-width:0.8;"/>
   </g>
  </g>
 </g>
 <defs>
  <clipPath id="p304c686b55">
   <rect height="266.112" width="357.12" x="61.410938" y="12.898828"/>
  </clipPath>
 </defs>
</svg>
