<?xml version="1.0" encoding="utf-8" standalone="no"?>
<!DOCTYPE svg PUBLIC "-//W3C//DTD SVG 1.1//EN"
  "http://www.w3.org/Graphics/SVG/1.1/DTD/svg11.dtd">
<!-- Created with matplotlib (https://matplotlib.org/) -->
<svg height="331.128016pt" version="1.1" viewBox="0 0 425.730937 331.128016" width="425.730937pt" xmlns="http://www.w3.org/2000/svg" xmlns:xlink="http://www.w3.org/1999/xlink">
 <defs>
  <style type="text/css">*{stroke-linecap:butt;stroke-linejoin:round;}</style>
 </defs>
 <g id="figure_1">
  <g id="patch_1">
   <path d="M 0 331.128016 
L 425.730937 331.128016 
L 425.730937 0 
L 0 0 
z
" style="fill:none;"/>
  </g>
  <g id="axes_1">
   <g id="patch_2">
    <path d="M 61.410938 279.010828 
L 418.530938 279.010828 
L 418.530938 12.898828 
L 61.410938 12.898828 
z
" style="fill:none;"/>
   </g>
   <g id="matplotlib.axis_1">
    <g id="xtick_1">
     <g id="line2d_1">
      <path clip-path="url(#p304c686b55)" d="M 61.410938 279.010828 
L 61.410938 12.898828 
" style="fill:none;stroke:#b0b0b0;stroke-linecap:square;stroke-width:0.8;"/>
     </g>
     <g id="line2d_2">
      <defs>
       <path d="M 0 0 
L 0 3.5 
" id="m005f0a59be" style="stroke:#000000;stroke-width:0.8;"/>
      </defs>
      <g>
       <use style="stroke:#000000;stroke-width:0.8;" x="61.410938" xlink:href="#m005f0a59be" y="279.010828"/>
      </g>
     </g>
     <g id="text_1">
      <!-- 0 -->
      <g transform="translate(56.639063 297.408484)scale(0.15 -0.15)">
       <defs>
        <path d="M 31.78125 66.40625 
Q 24.171875 66.40625 20.328125 58.90625 
Q 16.5 51.421875 16.5 36.375 
Q 16.5 21.390625 20.328125 13.890625 
Q 24.171875 6.390625 31.78125 6.390625 
Q 39.453125 6.390625 43.28125 13.890625 
Q 47.125 21.390625 47.125 36.375 
Q 47.125 51.421875 43.28125 58.90625 
Q 39.453125 66.40625 31.78125 66.40625 
z
M 31.78125 74.21875 
Q 44.046875 74.21875 50.515625 64.515625 
Q 56.984375 54.828125 56.984375 36.375 
Q 56.984375 17.96875 50.515625 8.265625 
Q 44.046875 -1.421875 31.78125 -1.421875 
Q 19.53125 -1.421875 13.0625 8.265625 
Q 6.59375 17.96875 6.59375 36.375 
Q 6.59375 54.828125 13.0625 64.515625 
Q 19.53125 74.21875 31.78125 74.21875 
z
" id="DejaVuSans-48"/>
       </defs>
       <use xlink:href="#DejaVuSans-48"/>
      </g>
     </g>
    </g>
    <g id="xtick_2">
     <g id="line2d_3">
      <path clip-path="url(#p304c686b55)" d="M 124.063569 279.010828 
L 124.063569 12.898828 
" style="fill:none;stroke:#b0b0b0;stroke-linecap:square;stroke-width:0.8;"/>
     </g>
     <g id="line2d_4">
      <g>
       <use style="stroke:#000000;stroke-width:0.8;" x="124.063569" xlink:href="#m005f0a59be" y="279.010828"/>
      </g>
     </g>
     <g id="text_2">
      <!-- 50 -->
      <g transform="translate(114.519819 297.408484)scale(0.15 -0.15)">
       <defs>
        <path d="M 10.796875 72.90625 
L 49.515625 72.90625 
L 49.515625 64.59375 
L 19.828125 64.59375 
L 19.828125 46.734375 
Q 21.96875 47.46875 24.109375 47.828125 
Q 26.265625 48.1875 28.421875 48.1875 
Q 40.625 48.1875 47.75 41.5 
Q 54.890625 34.8125 54.890625 23.390625 
Q 54.890625 11.625 47.5625 5.09375 
Q 40.234375 -1.421875 26.90625 -1.421875 
Q 22.3125 -1.421875 17.546875 -0.640625 
Q 12.796875 0.140625 7.71875 1.703125 
L 7.71875 11.625 
Q 12.109375 9.234375 16.796875 8.0625 
Q 21.484375 6.890625 26.703125 6.890625 
Q 35.15625 6.890625 40.078125 11.328125 
Q 45.015625 15.765625 45.015625 23.390625 
Q 45.015625 31 40.078125 35.4375 
Q 35.15625 39.890625 26.703125 39.890625 
Q 22.75 39.890625 18.8125 39.015625 
Q 14.890625 38.140625 10.796875 36.28125 
z
" id="DejaVuSans-53"/>
       </defs>
       <use xlink:href="#DejaVuSans-53"/>
       <use x="63.623047" xlink:href="#DejaVuSans-48"/>
      </g>
     </g>
    </g>
    <g id="xtick_3">
     <g id="line2d_5">
      <path clip-path="url(#p304c686b55)" d="M 186.716201 279.010828 
L 186.716201 12.898828 
" style="fill:none;stroke:#b0b0b0;stroke-linecap:square;stroke-width:0.8;"/>
     </g>
     <g id="line2d_6">
      <g>
       <use style="stroke:#000000;stroke-width:0.8;" x="186.716201" xlink:href="#m005f0a59be" y="279.010828"/>
      </g>
     </g>
     <g id="text_3">
      <!-- 100 -->
      <g transform="translate(172.400576 297.408484)scale(0.15 -0.15)">
       <defs>
        <path d="M 12.40625 8.296875 
L 28.515625 8.296875 
L 28.515625 63.921875 
L 10.984375 60.40625 
L 10.984375 69.390625 
L 28.421875 72.90625 
L 38.28125 72.90625 
L 38.28125 8.296875 
L 54.390625 8.296875 
L 54.390625 0 
L 12.40625 0 
z
" id="DejaVuSans-49"/>
       </defs>
       <use xlink:href="#DejaVuSans-49"/>
       <use x="63.623047" xlink:href="#DejaVuSans-48"/>
       <use x="127.246094" xlink:href="#DejaVuSans-48"/>
      </g>
     </g>
    </g>
    <g id="xtick_4">
     <g id="line2d_7">
      <path clip-path="url(#p304c686b55)" d="M 249.368832 279.010828 
L 249.368832 12.898828 
" style="fill:none;stroke:#b0b0b0;stroke-linecap:square;stroke-width:0.8;"/>
     </g>
     <g id="line2d_8">
      <g>
       <use style="stroke:#000000;stroke-width:0.8;" x="249.368832" xlink:href="#m005f0a59be" y="279.010828"/>
      </g>
     </g>
     <g id="text_4">
      <!-- 150 -->
      <g transform="translate(235.053207 297.408484)scale(0.15 -0.15)">
       <use xlink:href="#DejaVuSans-49"/>
       <use x="63.623047" xlink:href="#DejaVuSans-53"/>
       <use x="127.246094" xlink:href="#DejaVuSans-48"/>
      </g>
     </g>
    </g>
    <g id="xtick_5">
     <g id="line2d_9">
      <path clip-path="url(#p304c686b55)" d="M 312.021464 279.010828 
L 312.021464 12.898828 
" style="fill:none;stroke:#b0b0b0;stroke-linecap:square;stroke-width:0.8;"/>
     </g>
     <g id="line2d_10">
      <g>
       <use style="stroke:#000000;stroke-width:0.8;" x="312.021464" xlink:href="#m005f0a59be" y="279.010828"/>
      </g>
     </g>
     <g id="text_5">
      <!-- 200 -->
      <g transform="translate(297.705839 297.408484)scale(0.15 -0.15)">
       <defs>
        <path d="M 19.1875 8.296875 
L 53.609375 8.296875 
L 53.609375 0 
L 7.328125 0 
L 7.328125 8.296875 
Q 12.9375 14.109375 22.625 23.890625 
Q 32.328125 33.6875 34.8125 36.53125 
Q 39.546875 41.84375 41.421875 45.53125 
Q 43.3125 49.21875 43.3125 52.78125 
Q 43.3125 58.59375 39.234375 62.25 
Q 35.15625 65.921875 28.609375 65.921875 
Q 23.96875 65.921875 18.8125 64.3125 
Q 13.671875 62.703125 7.8125 59.421875 
L 7.8125 69.390625 
Q 13.765625 71.78125 18.9375 73 
Q 24.125 74.21875 28.421875 74.21875 
Q 39.75 74.21875 46.484375 68.546875 
Q 53.21875 62.890625 53.21875 53.421875 
Q 53.21875 48.921875 51.53125 44.890625 
Q 49.859375 40.875 45.40625 35.40625 
Q 44.1875 33.984375 37.640625 27.21875 
Q 31.109375 20.453125 19.1875 8.296875 
z
" id="DejaVuSans-50"/>
       </defs>
       <use xlink:href="#DejaVuSans-50"/>
       <use x="63.623047" xlink:href="#DejaVuSans-48"/>
       <use x="127.246094" xlink:href="#DejaVuSans-48"/>
      </g>
     </g>
    </g>
    <g id="xtick_6">
     <g id="line2d_11">
      <path clip-path="url(#p304c686b55)" d="M 374.674095 279.010828 
L 374.674095 12.898828 
" style="fill:none;stroke:#b0b0b0;stroke-linecap:square;stroke-width:0.8;"/>
     </g>
     <g id="line2d_12">
      <g>
       <use style="stroke:#000000;stroke-width:0.8;" x="374.674095" xlink:href="#m005f0a59be" y="279.010828"/>
      </g>
     </g>
     <g id="text_6">
      <!-- 250 -->
      <g transform="translate(360.35847 297.408484)scale(0.15 -0.15)">
       <use xlink:href="#DejaVuSans-50"/>
       <use x="63.623047" xlink:href="#DejaVuSans-53"/>
       <use x="127.246094" xlink:href="#DejaVuSans-48"/>
      </g>
     </g>
    </g>
    <g id="text_7">
     <!-- Time ($\mathrm{\mu s}$) -->
     <g transform="translate(192.570938 319.728016)scale(0.2 -0.2)">
      <defs>
       <path d="M -0.296875 72.90625 
L 61.375 72.90625 
L 61.375 64.59375 
L 35.5 64.59375 
L 35.5 0 
L 25.59375 0 
L 25.59375 64.59375 
L -0.296875 64.59375 
z
" id="DejaVuSans-84"/>
       <path d="M 9.421875 54.6875 
L 18.40625 54.6875 
L 18.40625 0 
L 9.421875 0 
z
M 9.421875 75.984375 
L 18.40625 75.984375 
L 18.40625 64.59375 
L 9.421875 64.59375 
z
" id="DejaVuSans-105"/>
       <path d="M 52 44.1875 
Q 55.375 50.25 60.0625 53.125 
Q 64.75 56 71.09375 56 
Q 79.640625 56 84.28125 50.015625 
Q 88.921875 44.046875 88.921875 33.015625 
L 88.921875 0 
L 79.890625 0 
L 79.890625 32.71875 
Q 79.890625 40.578125 77.09375 44.375 
Q 74.3125 48.1875 68.609375 48.1875 
Q 61.625 48.1875 57.5625 43.546875 
Q 53.515625 38.921875 53.515625 30.90625 
L 53.515625 0 
L 44.484375 0 
L 44.484375 32.71875 
Q 44.484375 40.625 41.703125 44.40625 
Q 38.921875 48.1875 33.109375 48.1875 
Q 26.21875 48.1875 22.15625 43.53125 
Q 18.109375 38.875 18.109375 30.90625 
L 18.109375 0 
L 9.078125 0 
L 9.078125 54.6875 
L 18.109375 54.6875 
L 18.109375 46.1875 
Q 21.1875 51.21875 25.484375 53.609375 
Q 29.78125 56 35.6875 56 
Q 41.65625 56 45.828125 52.96875 
Q 50 49.953125 52 44.1875 
z
" id="DejaVuSans-109"/>
       <path d="M 56.203125 29.59375 
L 56.203125 25.203125 
L 14.890625 25.203125 
Q 15.484375 15.921875 20.484375 11.0625 
Q 25.484375 6.203125 34.421875 6.203125 
Q 39.59375 6.203125 44.453125 7.46875 
Q 49.3125 8.734375 54.109375 11.28125 
L 54.109375 2.78125 
Q 49.265625 0.734375 44.1875 -0.34375 
Q 39.109375 -1.421875 33.890625 -1.421875 
Q 20.796875 -1.421875 13.15625 6.1875 
Q 5.515625 13.8125 5.515625 26.8125 
Q 5.515625 40.234375 12.765625 48.109375 
Q 20.015625 56 32.328125 56 
Q 43.359375 56 49.78125 48.890625 
Q 56.203125 41.796875 56.203125 29.59375 
z
M 47.21875 32.234375 
Q 47.125 39.59375 43.09375 43.984375 
Q 39.0625 48.390625 32.421875 48.390625 
Q 24.90625 48.390625 20.390625 44.140625 
Q 15.875 39.890625 15.1875 32.171875 
z
" id="DejaVuSans-101"/>
       <path id="DejaVuSans-32"/>
       <path d="M 31 75.875 
Q 24.46875 64.65625 21.28125 53.65625 
Q 18.109375 42.671875 18.109375 31.390625 
Q 18.109375 20.125 21.3125 9.0625 
Q 24.515625 -2 31 -13.1875 
L 23.1875 -13.1875 
Q 15.875 -1.703125 12.234375 9.375 
Q 8.59375 20.453125 8.59375 31.390625 
Q 8.59375 42.28125 12.203125 53.3125 
Q 15.828125 64.359375 23.1875 75.875 
z
" id="DejaVuSans-40"/>
       <path d="M 8.5 -20.796875 
L 8.5 54.6875 
L 17.484375 54.6875 
L 17.484375 20.703125 
Q 17.484375 13.625 20.84375 10 
Q 24.21875 6.390625 30.8125 6.390625 
Q 38.03125 6.390625 41.671875 10.484375 
Q 45.3125 14.59375 45.3125 22.796875 
L 45.3125 54.6875 
L 54.296875 54.6875 
L 54.296875 12.59375 
Q 54.296875 9.671875 55.140625 8.28125 
Q 56 6.890625 57.8125 6.890625 
Q 58.25 6.890625 59.03125 7.15625 
Q 59.8125 7.421875 61.1875 8.015625 
L 61.1875 0.78125 
Q 59.1875 -0.34375 57.390625 -0.875 
Q 55.609375 -1.421875 53.90625 -1.421875 
Q 50.53125 -1.421875 48.53125 0.484375 
Q 46.53125 2.390625 45.796875 6.296875 
Q 43.359375 2.4375 39.8125 0.5 
Q 36.28125 -1.421875 31.5 -1.421875 
Q 26.515625 -1.421875 23.015625 0.484375 
Q 19.53125 2.390625 17.484375 6.203125 
L 17.484375 -20.796875 
z
" id="DejaVuSans-956"/>
       <path d="M 44.28125 53.078125 
L 44.28125 44.578125 
Q 40.484375 46.53125 36.375 47.5 
Q 32.28125 48.484375 27.875 48.484375 
Q 21.1875 48.484375 17.84375 46.4375 
Q 14.5 44.390625 14.5 40.28125 
Q 14.5 37.15625 16.890625 35.375 
Q 19.28125 33.59375 26.515625 31.984375 
L 29.59375 31.296875 
Q 39.15625 29.25 43.1875 25.515625 
Q 47.21875 21.78125 47.21875 15.09375 
Q 47.21875 7.46875 41.1875 3.015625 
Q 35.15625 -1.421875 24.609375 -1.421875 
Q 20.21875 -1.421875 15.453125 -0.5625 
Q 10.6875 0.296875 5.421875 2 
L 5.421875 11.28125 
Q 10.40625 8.6875 15.234375 7.390625 
Q 20.0625 6.109375 24.8125 6.109375 
Q 31.15625 6.109375 34.5625 8.28125 
Q 37.984375 10.453125 37.984375 14.40625 
Q 37.984375 18.0625 35.515625 20.015625 
Q 33.0625 21.96875 24.703125 23.78125 
L 21.578125 24.515625 
Q 13.234375 26.265625 9.515625 29.90625 
Q 5.8125 33.546875 5.8125 39.890625 
Q 5.8125 47.609375 11.28125 51.796875 
Q 16.75 56 26.8125 56 
Q 31.78125 56 36.171875 55.265625 
Q 40.578125 54.546875 44.28125 53.078125 
z
" id="DejaVuSans-115"/>
       <path d="M 8.015625 75.875 
L 15.828125 75.875 
Q 23.140625 64.359375 26.78125 53.3125 
Q 30.421875 42.28125 30.421875 31.390625 
Q 30.421875 20.453125 26.78125 9.375 
Q 23.140625 -1.703125 15.828125 -13.1875 
L 8.015625 -13.1875 
Q 14.5 -2 17.703125 9.0625 
Q 20.90625 20.125 20.90625 31.390625 
Q 20.90625 42.671875 17.703125 53.65625 
Q 14.5 64.65625 8.015625 75.875 
z
" id="DejaVuSans-41"/>
      </defs>
      <use transform="translate(0 0.015625)" xlink:href="#DejaVuSans-84"/>
      <use transform="translate(61.083984 0.015625)" xlink:href="#DejaVuSans-105"/>
      <use transform="translate(88.867188 0.015625)" xlink:href="#DejaVuSans-109"/>
      <use transform="translate(186.279297 0.015625)" xlink:href="#DejaVuSans-101"/>
      <use transform="translate(247.802734 0.015625)" xlink:href="#DejaVuSans-32"/>
      <use transform="translate(279.589844 0.015625)" xlink:href="#DejaVuSans-40"/>
      <use transform="translate(318.603516 0.015625)" xlink:href="#DejaVuSans-956"/>
      <use transform="translate(382.226562 0.015625)" xlink:href="#DejaVuSans-115"/>
      <use transform="translate(434.326172 0.015625)" xlink:href="#DejaVuSans-41"/>
     </g>
    </g>
   </g>
   <g id="matplotlib.axis_2">
    <g id="ytick_1">
     <g id="line2d_13">
      <path clip-path="url(#p304c686b55)" d="M 61.410938 279.010828 
L 418.530938 279.010828 
" style="fill:none;stroke:#b0b0b0;stroke-linecap:square;stroke-width:0.8;"/>
     </g>
     <g id="line2d_14">
      <defs>
       <path d="M 0 0 
L -3.5 0 
" id="mc3ce260a5b" style="stroke:#000000;stroke-width:0.8;"/>
      </defs>
      <g>
       <use style="stroke:#000000;stroke-width:0.8;" x="61.410938" xlink:href="#mc3ce260a5b" y="279.010828"/>
      </g>
     </g>
     <g id="text_8">
      <!-- 0.0 -->
      <g transform="translate(30.55625 284.709656)scale(0.15 -0.15)">
       <defs>
        <path d="M 10.6875 12.40625 
L 21 12.40625 
L 21 0 
L 10.6875 0 
z
" id="DejaVuSans-46"/>
       </defs>
       <use xlink:href="#DejaVuSans-48"/>
       <use x="63.623047" xlink:href="#DejaVuSans-46"/>
       <use x="95.410156" xlink:href="#DejaVuSans-48"/>
      </g>
     </g>
    </g>
    <g id="ytick_2">
     <g id="line2d_15">
      <path clip-path="url(#p304c686b55)" d="M 61.410938 225.788428 
L 418.530938 225.788428 
" style="fill:none;stroke:#b0b0b0;stroke-linecap:square;stroke-width:0.8;"/>
     </g>
     <g id="line2d_16">
      <g>
       <use style="stroke:#000000;stroke-width:0.8;" x="61.410938" xlink:href="#mc3ce260a5b" y="225.788428"/>
      </g>
     </g>
     <g id="text_9">
      <!-- 0.2 -->
      <g transform="translate(30.55625 231.487256)scale(0.15 -0.15)">
       <use xlink:href="#DejaVuSans-48"/>
       <use x="63.623047" xlink:href="#DejaVuSans-46"/>
       <use x="95.410156" xlink:href="#DejaVuSans-50"/>
      </g>
     </g>
    </g>
    <g id="ytick_3">
     <g id="line2d_17">
      <path clip-path="url(#p304c686b55)" d="M 61.410938 172.566028 
L 418.530938 172.566028 
" style="fill:none;stroke:#b0b0b0;stroke-linecap:square;stroke-width:0.8;"/>
     </g>
     <g id="line2d_18">
      <g>
       <use style="stroke:#000000;stroke-width:0.8;" x="61.410938" xlink:href="#mc3ce260a5b" y="172.566028"/>
      </g>
     </g>
     <g id="text_10">
      <!-- 0.4 -->
      <g transform="translate(30.55625 178.264856)scale(0.15 -0.15)">
       <defs>
        <path d="M 37.796875 64.3125 
L 12.890625 25.390625 
L 37.796875 25.390625 
z
M 35.203125 72.90625 
L 47.609375 72.90625 
L 47.609375 25.390625 
L 58.015625 25.390625 
L 58.015625 17.1875 
L 47.609375 17.1875 
L 47.609375 0 
L 37.796875 0 
L 37.796875 17.1875 
L 4.890625 17.1875 
L 4.890625 26.703125 
z
" id="DejaVuSans-52"/>
       </defs>
       <use xlink:href="#DejaVuSans-48"/>
       <use x="63.623047" xlink:href="#DejaVuSans-46"/>
       <use x="95.410156" xlink:href="#DejaVuSans-52"/>
      </g>
     </g>
    </g>
    <g id="ytick_4">
     <g id="line2d_19">
      <path clip-path="url(#p304c686b55)" d="M 61.410938 119.343628 
L 418.530938 119.343628 
" style="fill:none;stroke:#b0b0b0;stroke-linecap:square;stroke-width:0.8;"/>
     </g>
     <g id="line2d_20">
      <g>
       <use style="stroke:#000000;stroke-width:0.8;" x="61.410938" xlink:href="#mc3ce260a5b" y="119.343628"/>
      </g>
     </g>
     <g id="text_11">
      <!-- 0.6 -->
      <g transform="translate(30.55625 125.042456)scale(0.15 -0.15)">
       <defs>
        <path d="M 33.015625 40.375 
Q 26.375 40.375 22.484375 35.828125 
Q 18.609375 31.296875 18.609375 23.390625 
Q 18.609375 15.53125 22.484375 10.953125 
Q 26.375 6.390625 33.015625 6.390625 
Q 39.65625 6.390625 43.53125 10.953125 
Q 47.40625 15.53125 47.40625 23.390625 
Q 47.40625 31.296875 43.53125 35.828125 
Q 39.65625 40.375 33.015625 40.375 
z
M 52.59375 71.296875 
L 52.59375 62.3125 
Q 48.875 64.0625 45.09375 64.984375 
Q 41.3125 65.921875 37.59375 65.921875 
Q 27.828125 65.921875 22.671875 59.328125 
Q 17.53125 52.734375 16.796875 39.40625 
Q 19.671875 43.65625 24.015625 45.921875 
Q 28.375 48.1875 33.59375 48.1875 
Q 44.578125 48.1875 50.953125 41.515625 
Q 57.328125 34.859375 57.328125 23.390625 
Q 57.328125 12.15625 50.6875 5.359375 
Q 44.046875 -1.421875 33.015625 -1.421875 
Q 20.359375 -1.421875 13.671875 8.265625 
Q 6.984375 17.96875 6.984375 36.375 
Q 6.984375 53.65625 15.1875 63.9375 
Q 23.390625 74.21875 37.203125 74.21875 
Q 40.921875 74.21875 44.703125 73.484375 
Q 48.484375 72.75 52.59375 71.296875 
z
" id="DejaVuSans-54"/>
       </defs>
       <use xlink:href="#DejaVuSans-48"/>
       <use x="63.623047" xlink:href="#DejaVuSans-46"/>
       <use x="95.410156" xlink:href="#DejaVuSans-54"/>
      </g>
     </g>
    </g>
    <g id="ytick_5">
     <g id="line2d_21">
      <path clip-path="url(#p304c686b55)" d="M 61.410938 66.121228 
L 418.530938 66.121228 
" style="fill:none;stroke:#b0b0b0;stroke-linecap:square;stroke-width:0.8;"/>
     </g>
     <g id="line2d_22">
      <g>
       <use style="stroke:#000000;stroke-width:0.8;" x="61.410938" xlink:href="#mc3ce260a5b" y="66.121228"/>
      </g>
     </g>
     <g id="text_12">
      <!-- 0.8 -->
      <g transform="translate(30.55625 71.820056)scale(0.15 -0.15)">
       <defs>
        <path d="M 31.78125 34.625 
Q 24.75 34.625 20.71875 30.859375 
Q 16.703125 27.09375 16.703125 20.515625 
Q 16.703125 13.921875 20.71875 10.15625 
Q 24.75 6.390625 31.78125 6.390625 
Q 38.8125 6.390625 42.859375 10.171875 
Q 46.921875 13.96875 46.921875 20.515625 
Q 46.921875 27.09375 42.890625 30.859375 
Q 38.875 34.625 31.78125 34.625 
z
M 21.921875 38.8125 
Q 15.578125 40.375 12.03125 44.71875 
Q 8.5 49.078125 8.5 55.328125 
Q 8.5 64.0625 14.71875 69.140625 
Q 20.953125 74.21875 31.78125 74.21875 
Q 42.671875 74.21875 48.875 69.140625 
Q 55.078125 64.0625 55.078125 55.328125 
Q 55.078125 49.078125 51.53125 44.71875 
Q 48 40.375 41.703125 38.8125 
Q 48.828125 37.15625 52.796875 32.3125 
Q 56.78125 27.484375 56.78125 20.515625 
Q 56.78125 9.90625 50.3125 4.234375 
Q 43.84375 -1.421875 31.78125 -1.421875 
Q 19.734375 -1.421875 13.25 4.234375 
Q 6.78125 9.90625 6.78125 20.515625 
Q 6.78125 27.484375 10.78125 32.3125 
Q 14.796875 37.15625 21.921875 38.8125 
z
M 18.3125 54.390625 
Q 18.3125 48.734375 21.84375 45.5625 
Q 25.390625 42.390625 31.78125 42.390625 
Q 38.140625 42.390625 41.71875 45.5625 
Q 45.3125 48.734375 45.3125 54.390625 
Q 45.3125 60.0625 41.71875 63.234375 
Q 38.140625 66.40625 31.78125 66.40625 
Q 25.390625 66.40625 21.84375 63.234375 
Q 18.3125 60.0625 18.3125 54.390625 
z
" id="DejaVuSans-56"/>
       </defs>
       <use xlink:href="#DejaVuSans-48"/>
       <use x="63.623047" xlink:href="#DejaVuSans-46"/>
       <use x="95.410156" xlink:href="#DejaVuSans-56"/>
      </g>
     </g>
    </g>
    <g id="ytick_6">
     <g id="line2d_23">
      <path clip-path="url(#p304c686b55)" d="M 61.410938 12.898828 
L 418.530938 12.898828 
" style="fill:none;stroke:#b0b0b0;stroke-linecap:square;stroke-width:0.8;"/>
     </g>
     <g id="line2d_24">
      <g>
       <use style="stroke:#000000;stroke-width:0.8;" x="61.410938" xlink:href="#mc3ce260a5b" y="12.898828"/>
      </g>
     </g>
     <g id="text_13">
      <!-- 1.0 -->
      <g transform="translate(30.55625 18.597656)scale(0.15 -0.15)">
       <use xlink:href="#DejaVuSans-49"/>
       <use x="63.623047" xlink:href="#DejaVuSans-46"/>
       <use x="95.410156" xlink:href="#DejaVuSans-48"/>
      </g>
     </g>
    </g>
    <g id="text_14">
     <!-- F=1 Population -->
     <g transform="translate(22.396875 222.159516)rotate(-90)scale(0.2 -0.2)">
      <defs>
       <path d="M 9.8125 72.90625 
L 51.703125 72.90625 
L 51.703125 64.59375 
L 19.671875 64.59375 
L 19.671875 43.109375 
L 48.578125 43.109375 
L 48.578125 34.8125 
L 19.671875 34.8125 
L 19.671875 0 
L 9.8125 0 
z
" id="DejaVuSans-70"/>
       <path d="M 10.59375 45.40625 
L 73.1875 45.40625 
L 73.1875 37.203125 
L 10.59375 37.203125 
z
M 10.59375 25.484375 
L 73.1875 25.484375 
L 73.1875 17.1875 
L 10.59375 17.1875 
z
" id="DejaVuSans-61"/>
       <path d="M 19.671875 64.796875 
L 19.671875 37.40625 
L 32.078125 37.40625 
Q 38.96875 37.40625 42.71875 40.96875 
Q 46.484375 44.53125 46.484375 51.125 
Q 46.484375 57.671875 42.71875 61.234375 
Q 38.96875 64.796875 32.078125 64.796875 
z
M 9.8125 72.90625 
L 32.078125 72.90625 
Q 44.34375 72.90625 50.609375 67.359375 
Q 56.890625 61.8125 56.890625 51.125 
Q 56.890625 40.328125 50.609375 34.8125 
Q 44.34375 29.296875 32.078125 29.296875 
L 19.671875 29.296875 
L 19.671875 0 
L 9.8125 0 
z
" id="DejaVuSans-80"/>
       <path d="M 30.609375 48.390625 
Q 23.390625 48.390625 19.1875 42.75 
Q 14.984375 37.109375 14.984375 27.296875 
Q 14.984375 17.484375 19.15625 11.84375 
Q 23.34375 6.203125 30.609375 6.203125 
Q 37.796875 6.203125 41.984375 11.859375 
Q 46.1875 17.53125 46.1875 27.296875 
Q 46.1875 37.015625 41.984375 42.703125 
Q 37.796875 48.390625 30.609375 48.390625 
z
M 30.609375 56 
Q 42.328125 56 49.015625 48.375 
Q 55.71875 40.765625 55.71875 27.296875 
Q 55.71875 13.875 49.015625 6.21875 
Q 42.328125 -1.421875 30.609375 -1.421875 
Q 18.84375 -1.421875 12.171875 6.21875 
Q 5.515625 13.875 5.515625 27.296875 
Q 5.515625 40.765625 12.171875 48.375 
Q 18.84375 56 30.609375 56 
z
" id="DejaVuSans-111"/>
       <path d="M 18.109375 8.203125 
L 18.109375 -20.796875 
L 9.078125 -20.796875 
L 9.078125 54.6875 
L 18.109375 54.6875 
L 18.109375 46.390625 
Q 20.953125 51.265625 25.265625 53.625 
Q 29.59375 56 35.59375 56 
Q 45.5625 56 51.78125 48.09375 
Q 58.015625 40.1875 58.015625 27.296875 
Q 58.015625 14.40625 51.78125 6.484375 
Q 45.5625 -1.421875 35.59375 -1.421875 
Q 29.59375 -1.421875 25.265625 0.953125 
Q 20.953125 3.328125 18.109375 8.203125 
z
M 48.6875 27.296875 
Q 48.6875 37.203125 44.609375 42.84375 
Q 40.53125 48.484375 33.40625 48.484375 
Q 26.265625 48.484375 22.1875 42.84375 
Q 18.109375 37.203125 18.109375 27.296875 
Q 18.109375 17.390625 22.1875 11.75 
Q 26.265625 6.109375 33.40625 6.109375 
Q 40.53125 6.109375 44.609375 11.75 
Q 48.6875 17.390625 48.6875 27.296875 
z
" id="DejaVuSans-112"/>
       <path d="M 8.5 21.578125 
L 8.5 54.6875 
L 17.484375 54.6875 
L 17.484375 21.921875 
Q 17.484375 14.15625 20.5 10.265625 
Q 23.53125 6.390625 29.59375 6.390625 
Q 36.859375 6.390625 41.078125 11.03125 
Q 45.3125 15.671875 45.3125 23.6875 
L 45.3125 54.6875 
L 54.296875 54.6875 
L 54.296875 0 
L 45.3125 0 
L 45.3125 8.40625 
Q 42.046875 3.421875 37.71875 1 
Q 33.40625 -1.421875 27.6875 -1.421875 
Q 18.265625 -1.421875 13.375 4.4375 
Q 8.5 10.296875 8.5 21.578125 
z
M 31.109375 56 
z
" id="DejaVuSans-117"/>
       <path d="M 9.421875 75.984375 
L 18.40625 75.984375 
L 18.40625 0 
L 9.421875 0 
z
" id="DejaVuSans-108"/>
       <path d="M 34.28125 27.484375 
Q 23.390625 27.484375 19.1875 25 
Q 14.984375 22.515625 14.984375 16.5 
Q 14.984375 11.71875 18.140625 8.90625 
Q 21.296875 6.109375 26.703125 6.109375 
Q 34.1875 6.109375 38.703125 11.40625 
Q 43.21875 16.703125 43.21875 25.484375 
L 43.21875 27.484375 
z
M 52.203125 31.203125 
L 52.203125 0 
L 43.21875 0 
L 43.21875 8.296875 
Q 40.140625 3.328125 35.546875 0.953125 
Q 30.953125 -1.421875 24.3125 -1.421875 
Q 15.921875 -1.421875 10.953125 3.296875 
Q 6 8.015625 6 15.921875 
Q 6 25.140625 12.171875 29.828125 
Q 18.359375 34.515625 30.609375 34.515625 
L 43.21875 34.515625 
L 43.21875 35.40625 
Q 43.21875 41.609375 39.140625 45 
Q 35.0625 48.390625 27.6875 48.390625 
Q 23 48.390625 18.546875 47.265625 
Q 14.109375 46.140625 10.015625 43.890625 
L 10.015625 52.203125 
Q 14.9375 54.109375 19.578125 55.046875 
Q 24.21875 56 28.609375 56 
Q 40.484375 56 46.34375 49.84375 
Q 52.203125 43.703125 52.203125 31.203125 
z
" id="DejaVuSans-97"/>
       <path d="M 18.3125 70.21875 
L 18.3125 54.6875 
L 36.8125 54.6875 
L 36.8125 47.703125 
L 18.3125 47.703125 
L 18.3125 18.015625 
Q 18.3125 11.328125 20.140625 9.421875 
Q 21.96875 7.515625 27.59375 7.515625 
L 36.8125 7.515625 
L 36.8125 0 
L 27.59375 0 
Q 17.1875 0 13.234375 3.875 
Q 9.28125 7.765625 9.28125 18.015625 
L 9.28125 47.703125 
L 2.6875 47.703125 
L 2.6875 54.6875 
L 9.28125 54.6875 
L 9.28125 70.21875 
z
" id="DejaVuSans-116"/>
       <path d="M 54.890625 33.015625 
L 54.890625 0 
L 45.90625 0 
L 45.90625 32.71875 
Q 45.90625 40.484375 42.875 44.328125 
Q 39.84375 48.1875 33.796875 48.1875 
Q 26.515625 48.1875 22.3125 43.546875 
Q 18.109375 38.921875 18.109375 30.90625 
L 18.109375 0 
L 9.078125 0 
L 9.078125 54.6875 
L 18.109375 54.6875 
L 18.109375 46.1875 
Q 21.34375 51.125 25.703125 53.5625 
Q 30.078125 56 35.796875 56 
Q 45.21875 56 50.046875 50.171875 
Q 54.890625 44.34375 54.890625 33.015625 
z
" id="DejaVuSans-110"/>
      </defs>
      <use xlink:href="#DejaVuSans-70"/>
      <use x="57.519531" xlink:href="#DejaVuSans-61"/>
      <use x="141.308594" xlink:href="#DejaVuSans-49"/>
      <use x="204.931641" xlink:href="#DejaVuSans-32"/>
      <use x="236.71875" xlink:href="#DejaVuSans-80"/>
      <use x="293.396484" xlink:href="#DejaVuSans-111"/>
      <use x="354.578125" xlink:href="#DejaVuSans-112"/>
      <use x="418.054688" xlink:href="#DejaVuSans-117"/>
      <use x="481.433594" xlink:href="#DejaVuSans-108"/>
      <use x="509.216797" xlink:href="#DejaVuSans-97"/>
      <use x="570.496094" xlink:href="#DejaVuSans-116"/>
      <use x="609.705078" xlink:href="#DejaVuSans-105"/>
      <use x="637.488281" xlink:href="#DejaVuSans-111"/>
      <use x="698.669922" xlink:href="#DejaVuSans-110"/>
     </g>
    </g>
   </g>
   <g id="LineCollection_1">
    <path clip-path="url(#p304c686b55)" d="M 61.410938 279.010828 
L 61.410938 277.828108 
" style="fill:none;stroke:#1f77b4;stroke-width:1.5;"/>
    <path clip-path="url(#p304c686b55)" d="M 70.182306 220.133296 
L 70.182306 205.379915 
" style="fill:none;stroke:#1f77b4;stroke-width:1.5;"/>
    <path clip-path="url(#p304c686b55)" d="M 78.953674 123.345403 
L 78.953674 105.949665 
" style="fill:none;stroke:#1f77b4;stroke-width:1.5;"/>
    <path clip-path="url(#p304c686b55)" d="M 87.725043 65.616799 
L 87.725043 52.596322 
" style="fill:none;stroke:#1f77b4;stroke-width:1.5;"/>
    <path clip-path="url(#p304c686b55)" d="M 96.496411 120.11301 
L 96.496411 103.269951 
" style="fill:none;stroke:#1f77b4;stroke-width:1.5;"/>
    <path clip-path="url(#p304c686b55)" d="M 105.26778 221.604747 
L 105.26778 206.743689 
" style="fill:none;stroke:#1f77b4;stroke-width:1.5;"/>
    <path clip-path="url(#p304c686b55)" d="M 114.039148 272.325449 
L 114.039148 265.678933 
" style="fill:none;stroke:#1f77b4;stroke-width:1.5;"/>
    <path clip-path="url(#p304c686b55)" d="M 122.810516 229.392238 
L 122.810516 214.402098 
" style="fill:none;stroke:#1f77b4;stroke-width:1.5;"/>
    <path clip-path="url(#p304c686b55)" d="M 131.581885 121.569266 
L 131.581885 104.921191 
" style="fill:none;stroke:#1f77b4;stroke-width:1.5;"/>
    <path clip-path="url(#p304c686b55)" d="M 140.353253 63.193491 
L 140.353253 50.584051 
" style="fill:none;stroke:#1f77b4;stroke-width:1.5;"/>
    <path clip-path="url(#p304c686b55)" d="M 149.124622 95.621413 
L 149.124622 79.717058 
" style="fill:none;stroke:#1f77b4;stroke-width:1.5;"/>
    <path clip-path="url(#p304c686b55)" d="M 157.89599 203.400885 
L 157.89599 186.614577 
" style="fill:none;stroke:#1f77b4;stroke-width:1.5;"/>
    <path clip-path="url(#p304c686b55)" d="M 166.667359 267.92228 
L 166.667359 260.036514 
" style="fill:none;stroke:#1f77b4;stroke-width:1.5;"/>
    <path clip-path="url(#p304c686b55)" d="M 175.438727 234.721184 
L 175.438727 221.122447 
" style="fill:none;stroke:#1f77b4;stroke-width:1.5;"/>
    <path clip-path="url(#p304c686b55)" d="M 184.210095 140.919712 
L 184.210095 123.579266 
" style="fill:none;stroke:#1f77b4;stroke-width:1.5;"/>
    <path clip-path="url(#p304c686b55)" d="M 192.981464 60.289696 
L 192.981464 47.479961 
" style="fill:none;stroke:#1f77b4;stroke-width:1.5;"/>
    <path clip-path="url(#p304c686b55)" d="M 201.752832 102.511098 
L 201.752832 86.236197 
" style="fill:none;stroke:#1f77b4;stroke-width:1.5;"/>
    <path clip-path="url(#p304c686b55)" d="M 210.524201 185.761045 
L 210.524201 168.555407 
" style="fill:none;stroke:#1f77b4;stroke-width:1.5;"/>
    <path clip-path="url(#p304c686b55)" d="M 219.295569 262.74553 
L 219.295569 253.131692 
" style="fill:none;stroke:#1f77b4;stroke-width:1.5;"/>
    <path clip-path="url(#p304c686b55)" d="M 228.066938 236.260039 
L 228.066938 222.553197 
" style="fill:none;stroke:#1f77b4;stroke-width:1.5;"/>
    <path clip-path="url(#p304c686b55)" d="M 236.838306 163.92286 
L 236.838306 145.643517 
" style="fill:none;stroke:#1f77b4;stroke-width:1.5;"/>
    <path clip-path="url(#p304c686b55)" d="M 245.609674 85.908754 
L 245.609674 70.547496 
" style="fill:none;stroke:#1f77b4;stroke-width:1.5;"/>
    <path clip-path="url(#p304c686b55)" d="M 254.381043 86.391087 
L 254.381043 71.315534 
" style="fill:none;stroke:#1f77b4;stroke-width:1.5;"/>
    <path clip-path="url(#p304c686b55)" d="M 263.152411 155.057737 
L 263.152411 137.951556 
" style="fill:none;stroke:#1f77b4;stroke-width:1.5;"/>
    <path clip-path="url(#p304c686b55)" d="M 271.92378 234.152953 
L 271.92378 220.049223 
" style="fill:none;stroke:#1f77b4;stroke-width:1.5;"/>
    <path clip-path="url(#p304c686b55)" d="M 280.695148 243.796886 
L 280.695148 230.991501 
" style="fill:none;stroke:#1f77b4;stroke-width:1.5;"/>
    <path clip-path="url(#p304c686b55)" d="M 289.466516 182.004788 
L 289.466516 164.76129 
" style="fill:none;stroke:#1f77b4;stroke-width:1.5;"/>
    <path clip-path="url(#p304c686b55)" d="M 298.237885 99.467222 
L 298.237885 83.081338 
" style="fill:none;stroke:#1f77b4;stroke-width:1.5;"/>
    <path clip-path="url(#p304c686b55)" d="M 307.009253 70.090828 
L 307.009253 56.366585 
" style="fill:none;stroke:#1f77b4;stroke-width:1.5;"/>
    <path clip-path="url(#p304c686b55)" d="M 315.780622 149.559242 
L 315.780622 132.534808 
" style="fill:none;stroke:#1f77b4;stroke-width:1.5;"/>
    <path clip-path="url(#p304c686b55)" d="M 324.55199 212.10466 
L 324.55199 196.579882 
" style="fill:none;stroke:#1f77b4;stroke-width:1.5;"/>
    <path clip-path="url(#p304c686b55)" d="M 333.323359 239.246923 
L 333.323359 225.635533 
" style="fill:none;stroke:#1f77b4;stroke-width:1.5;"/>
    <path clip-path="url(#p304c686b55)" d="M 342.094727 188.409026 
L 342.094727 171.21663 
" style="fill:none;stroke:#1f77b4;stroke-width:1.5;"/>
    <path clip-path="url(#p304c686b55)" d="M 350.866095 121.591074 
L 350.866095 104.097163 
" style="fill:none;stroke:#1f77b4;stroke-width:1.5;"/>
    <path clip-path="url(#p304c686b55)" d="M 359.637464 92.521172 
L 359.637464 77.328848 
" style="fill:none;stroke:#1f77b4;stroke-width:1.5;"/>
    <path clip-path="url(#p304c686b55)" d="M 368.408832 118.318229 
L 368.408832 100.903427 
" style="fill:none;stroke:#1f77b4;stroke-width:1.5;"/>
    <path clip-path="url(#p304c686b55)" d="M 377.180201 193.462999 
L 377.180201 176.506177 
" style="fill:none;stroke:#1f77b4;stroke-width:1.5;"/>
    <path clip-path="url(#p304c686b55)" d="M 385.951569 235.283694 
L 385.951569 221.305137 
" style="fill:none;stroke:#1f77b4;stroke-width:1.5;"/>
    <path clip-path="url(#p304c686b55)" d="M 394.722938 203.778178 
L 394.722938 186.644094 
" style="fill:none;stroke:#1f77b4;stroke-width:1.5;"/>
    <path clip-path="url(#p304c686b55)" d="M 403.494306 158.028777 
L 403.494306 140.675228 
" style="fill:none;stroke:#1f77b4;stroke-width:1.5;"/>
    <path clip-path="url(#p304c686b55)" d="M 412.265674 92.649874 
L 412.265674 76.627524 
" style="fill:none;stroke:#1f77b4;stroke-width:1.5;"/>
   </g>
   <g id="LineCollection_2">
    <path clip-path="url(#p304c686b55)" d="M 61.410938 274.780846 
L 61.410938 267.789145 
" style="fill:none;stroke:#d62728;stroke-width:1.5;"/>
    <path clip-path="url(#p304c686b55)" d="M 70.182306 269.128867 
L 70.182306 260.164789 
" style="fill:none;stroke:#d62728;stroke-width:1.5;"/>
    <path clip-path="url(#p304c686b55)" d="M 78.953674 249.233364 
L 78.953674 235.532742 
" style="fill:none;stroke:#d62728;stroke-width:1.5;"/>
    <path clip-path="url(#p304c686b55)" d="M 87.725043 228.372129 
L 87.725043 210.819641 
" style="fill:none;stroke:#d62728;stroke-width:1.5;"/>
    <path clip-path="url(#p304c686b55)" d="M 96.496411 214.585949 
L 96.496411 196.455242 
" style="fill:none;stroke:#d62728;stroke-width:1.5;"/>
    <path clip-path="url(#p304c686b55)" d="M 105.26778 218.989454 
L 105.26778 201.440202 
" style="fill:none;stroke:#d62728;stroke-width:1.5;"/>
    <path clip-path="url(#p304c686b55)" d="M 114.039148 234.109032 
L 114.039148 217.128828 
" style="fill:none;stroke:#d62728;stroke-width:1.5;"/>
    <path clip-path="url(#p304c686b55)" d="M 122.810516 220.170157 
L 122.810516 202.461184 
" style="fill:none;stroke:#d62728;stroke-width:1.5;"/>
    <path clip-path="url(#p304c686b55)" d="M 131.581885 238.872267 
L 131.581885 222.535479 
" style="fill:none;stroke:#d62728;stroke-width:1.5;"/>
    <path clip-path="url(#p304c686b55)" d="M 140.353253 230.579366 
L 140.353253 213.394291 
" style="fill:none;stroke:#d62728;stroke-width:1.5;"/>
    <path clip-path="url(#p304c686b55)" d="M 149.124622 228.614995 
L 149.124622 210.543301 
" style="fill:none;stroke:#d62728;stroke-width:1.5;"/>
    <path clip-path="url(#p304c686b55)" d="M 157.89599 238.342716 
L 157.89599 221.818399 
" style="fill:none;stroke:#d62728;stroke-width:1.5;"/>
    <path clip-path="url(#p304c686b55)" d="M 166.667359 242.896573 
L 166.667359 226.997083 
" style="fill:none;stroke:#d62728;stroke-width:1.5;"/>
    <path clip-path="url(#p304c686b55)" d="M 175.438727 247.146267 
L 175.438727 232.213352 
" style="fill:none;stroke:#d62728;stroke-width:1.5;"/>
    <path clip-path="url(#p304c686b55)" d="M 184.210095 226.214092 
L 184.210095 207.741835 
" style="fill:none;stroke:#d62728;stroke-width:1.5;"/>
    <path clip-path="url(#p304c686b55)" d="M 192.981464 231.58658 
L 192.981464 214.115076 
" style="fill:none;stroke:#d62728;stroke-width:1.5;"/>
   </g>
   <g id="line2d_25">
    <path clip-path="url(#p304c686b55)" d="M 61.410938 278.518987 
L 62.125178 278.518987 
L 62.482298 277.728048 
L 62.839418 277.248374 
L 63.196538 275.590714 
L 63.553658 274.969134 
L 63.910778 274.000117 
L 64.267898 271.552528 
L 64.625018 270.99646 
L 64.982138 267.925715 
L 65.696378 265.025106 
L 66.767738 255.590931 
L 67.124858 253.474996 
L 67.839098 246.3294 
L 68.196218 243.39056 
L 68.910458 234.667307 
L 69.624698 227.870173 
L 71.767418 199.918601 
L 76.052858 140.329055 
L 77.481338 120.08916 
L 79.624058 91.12888 
L 80.695418 78.959546 
L 81.052538 74.196248 
L 81.409658 71.762156 
L 82.838138 54.946257 
L 83.195258 53.744848 
L 83.552378 49.239471 
L 83.909498 47.68849 
L 84.266618 44.001937 
L 84.623738 41.908464 
L 84.980858 39.030923 
L 85.337978 38.1305 
L 86.766458 30.619901 
L 87.837818 27.993444 
L 88.194938 28.820348 
L 88.552058 27.870063 
L 88.909178 27.602512 
L 89.266298 26.696269 
L 89.623418 28.116824 
L 89.980538 27.766992 
L 90.337658 29.583787 
L 90.694778 29.69506 
L 91.051898 30.949005 
L 91.409018 32.701327 
L 91.766138 35.337985 
L 92.123258 36.038605 
L 92.837498 40.209139 
L 94.623098 53.495378 
L 96.408698 71.004382 
L 97.837178 87.651838 
L 99.622778 110.520792 
L 101.051258 129.443018 
L 101.408378 135.597787 
L 102.122618 144.355451 
L 103.193978 160.487466 
L 103.908218 169.913722 
L 104.265338 175.989825 
L 104.979578 184.130268 
L 105.336698 190.093066 
L 105.693818 193.902572 
L 106.408058 203.394349 
L 106.765178 208.559585 
L 107.122298 211.909618 
L 107.479418 217.330038 
L 108.193658 225.333499 
L 109.622138 240.253608 
L 110.693498 250.570234 
L 111.407738 255.750905 
L 111.764858 258.815666 
L 112.121978 260.67537 
L 112.479098 263.254055 
L 112.836218 264.487828 
L 113.193338 267.563468 
L 113.550458 268.210828 
L 113.907578 270.725888 
L 114.264698 270.840885 
L 114.621818 272.736951 
L 114.978938 273.022291 
L 115.336058 273.627467 
L 115.693178 273.802651 
L 116.764538 275.357937 
L 117.121658 273.753284 
L 117.478778 273.674483 
L 117.835898 271.869902 
L 118.550138 269.602176 
L 118.907258 269.479503 
L 121.049978 256.642618 
L 122.478458 245.067985 
L 122.835578 241.947703 
L 123.549818 233.609912 
L 124.264058 226.824492 
L 124.978298 218.334534 
L 127.121018 191.871107 
L 127.835258 181.564609 
L 128.192378 178.051732 
L 128.549498 172.312355 
L 129.263738 163.42959 
L 130.335098 147.957431 
L 131.763578 129.501599 
L 132.120698 123.603826 
L 132.834938 114.621794 
L 134.977658 88.223479 
L 135.334778 85.310712 
L 136.406138 73.007207 
L 136.763258 70.183091 
L 137.477498 62.252032 
L 138.548858 54.896384 
L 138.905978 51.124127 
L 139.263098 49.731401 
L 139.977338 44.244666 
L 140.334458 43.047936 
L 141.405818 38.579642 
L 141.762938 37.595175 
L 142.120058 37.246796 
L 142.477178 35.500233 
L 142.834298 35.818038 
L 143.548538 33.814156 
L 143.905658 34.612794 
L 144.262778 35.872895 
L 144.619898 36.496446 
L 144.977018 37.454113 
L 145.334138 37.78957 
L 145.691258 38.493777 
L 146.048378 39.92223 
L 146.405498 40.787654 
L 147.476858 47.558559 
L 147.833978 48.372643 
L 148.905338 56.399496 
L 149.262458 58.885856 
L 149.619578 63.142347 
L 149.976698 65.57027 
L 151.048058 75.875684 
L 152.833658 95.590596 
L 153.547898 105.530234 
L 153.905018 108.789873 
L 154.976378 123.072153 
L 155.690618 131.728871 
L 157.476218 156.610278 
L 157.833338 160.127268 
L 160.690298 197.59457 
L 161.761658 208.910546 
L 162.118778 215.364851 
L 162.475898 218.202131 
L 163.190138 225.931117 
L 164.975738 242.698013 
L 165.689978 247.769856 
L 166.404218 252.237283 
L 167.118458 257.039497 
L 168.189818 262.396802 
L 168.546938 262.968793 
L 168.904058 263.324116 
L 169.261178 264.873191 
L 169.618298 265.571663 
L 169.975418 265.781063 
L 170.332538 266.122618 
L 170.689658 267.106699 
L 171.403898 266.226594 
L 171.761018 265.176856 
L 172.118138 265.080047 
L 172.475258 264.450566 
L 173.546618 261.182461 
L 174.260858 256.912898 
L 174.975098 253.674712 
L 175.689338 248.748649 
L 178.546298 222.983227 
L 179.260538 216.045312 
L 181.760378 185.892714 
L 182.117498 182.420974 
L 183.188858 167.657921 
L 184.974458 145.266064 
L 185.331578 138.97021 
L 185.688698 136.145031 
L 187.831418 107.251854 
L 190.688378 77.607257 
L 191.045498 75.305112 
L 191.759738 68.300103 
L 192.831098 59.519009 
L 193.188218 57.559509 
L 193.902458 52.275054 
L 194.259578 50.805314 
L 194.616698 48.410142 
L 194.973818 47.79422 
L 195.688058 44.168707 
L 196.045178 44.375309 
L 196.759418 42.012277 
L 197.116538 41.769874 
L 197.473658 41.856493 
L 197.830778 41.430649 
L 198.187898 41.589347 
L 198.545018 40.933944 
L 198.902138 41.483548 
L 199.259258 42.246463 
L 199.616378 43.500718 
L 199.973498 45.749279 
L 200.330618 45.905163 
L 200.687738 47.4806 
L 201.044858 49.695709 
L 201.401978 50.30474 
L 202.116218 54.534182 
L 203.187578 60.983717 
L 203.544698 64.728382 
L 204.258938 70.225112 
L 204.616058 74.523234 
L 204.973178 77.08586 
L 206.758778 95.972183 
L 207.115898 100.449799 
L 207.473018 103.379482 
L 207.830138 108.675047 
L 208.544378 116.381451 
L 209.258618 125.470218 
L 210.329978 138.745776 
L 213.901178 184.423502 
L 216.758138 217.870642 
L 217.115258 220.000473 
L 217.472378 223.269544 
L 217.829498 228.107673 
L 218.900858 237.569149 
L 219.257978 239.892916 
L 219.972218 245.466725 
L 220.686458 249.865166 
L 221.400698 254.136531 
L 222.114938 257.472333 
L 222.472058 257.845978 
L 222.829178 259.769492 
L 223.186298 260.600561 
L 223.543418 260.869871 
L 223.900538 261.897461 
L 224.257658 262.512005 
L 224.614778 261.52645 
L 224.971898 262.380344 
L 225.329018 263.802241 
L 225.686138 261.213319 
L 226.043258 261.993022 
L 226.400378 260.110976 
L 226.757498 260.824986 
L 227.114618 259.171012 
L 227.471738 258.497109 
L 228.543098 252.907648 
L 229.257338 250.239076 
L 229.614458 246.223483 
L 230.685818 239.165392 
L 233.185658 216.773672 
L 233.899898 208.905508 
L 235.328378 193.442637 
L 236.399738 178.131573 
L 236.756858 174.745324 
L 238.185338 156.743835 
L 239.613818 138.929403 
L 240.328058 128.346716 
L 240.685178 125.037918 
L 241.399418 116.193279 
L 243.542138 91.40348 
L 243.899258 89.142964 
L 244.613498 81.359662 
L 244.970618 77.370083 
L 246.041978 69.14266 
L 246.756218 62.78656 
L 247.113338 61.133794 
L 249.256058 48.087139 
L 249.613178 48.137779 
L 249.970298 45.988612 
L 250.327418 44.811557 
L 250.684538 45.031673 
L 251.041658 44.435155 
L 251.398778 44.539887 
L 252.113018 43.128875 
L 252.827258 44.590482 
L 253.184378 45.594105 
L 253.541498 45.359897 
L 254.612858 48.422642 
L 255.327098 52.10389 
L 256.041338 54.786092 
L 257.469818 63.900415 
L 257.826938 67.506089 
L 258.541178 72.410569 
L 258.898298 76.519466 
L 259.255418 79.136321 
L 259.969658 85.842369 
L 260.326778 91.208092 
L 261.755258 104.901653 
L 262.469498 114.953915 
L 262.826618 117.572944 
L 263.540858 126.35847 
L 264.612218 139.386432 
L 264.969338 144.837064 
L 265.683578 153.059061 
L 267.112058 172.085104 
L 267.469178 175.086993 
L 269.254778 198.494088 
L 269.611898 201.028523 
L 271.754618 223.531435 
L 273.897338 241.338733 
L 274.254458 243.448648 
L 274.968698 248.92122 
L 275.325818 249.904666 
L 275.682938 252.449645 
L 276.040058 253.768341 
L 276.754298 257.215846 
L 277.825658 259.912603 
L 278.182778 259.157104 
L 278.539898 260.869871 
L 278.897018 260.615523 
L 279.611258 260.985782 
L 280.682618 259.310093 
L 281.039738 258.952815 
L 281.396858 256.490186 
L 281.753978 255.883372 
L 282.111098 254.678169 
L 282.468218 252.568822 
L 282.825338 251.828756 
L 283.182458 248.224706 
L 283.539578 246.926475 
L 284.968058 237.503062 
L 285.325178 234.639491 
L 285.682298 230.646085 
L 286.396538 226.03017 
L 286.753658 222.505365 
L 287.467898 213.622799 
L 287.825018 210.040722 
L 288.182138 207.738365 
L 288.896378 198.713017 
L 289.253498 195.632766 
L 291.039098 173.677248 
L 291.396218 170.674927 
L 292.824698 152.486709 
L 295.681658 115.986078 
L 296.038778 113.974729 
L 297.110138 100.749036 
L 298.895738 82.582097 
L 302.109818 57.679485 
L 303.538298 51.503022 
L 304.252538 49.512521 
L 304.609658 47.68849 
L 305.323898 45.766083 
L 305.681018 45.706959 
L 306.038138 46.385875 
L 306.395258 46.704621 
L 306.752378 46.016428 
L 307.109498 47.382445 
L 307.466618 47.571552 
L 307.823738 47.014752 
L 308.180858 49.10537 
L 308.895098 51.379587 
L 309.609338 54.70548 
L 309.966458 55.73615 
L 310.323578 57.49198 
L 311.037818 62.948086 
L 311.394938 64.294052 
L 312.466298 73.686685 
L 312.823418 75.762177 
L 316.394618 111.677927 
L 317.108858 120.584765 
L 318.180218 132.729364 
L 318.894458 141.086688 
L 322.108538 181.428401 
L 322.465658 184.164766 
L 323.179898 193.334417 
L 323.894138 200.839527 
L 324.965498 210.773208 
L 325.322618 216.610897 
L 325.679738 218.395218 
L 326.393978 225.207051 
L 327.465338 234.052046 
L 328.179578 239.744502 
L 329.608058 247.471169 
L 329.965178 249.815792 
L 330.679418 252.070375 
L 331.036538 254.068429 
L 331.393658 255.152628 
L 331.750778 255.738863 
L 332.107898 256.642618 
L 332.465018 256.717616 
L 332.822138 257.799621 
L 333.179258 256.403782 
L 333.536378 256.012358 
L 333.893498 256.780115 
L 334.250618 256.655118 
L 334.964858 254.536248 
L 335.321978 255.293697 
L 335.679098 252.611756 
L 336.036218 251.881282 
L 336.750458 249.236153 
L 337.107578 246.781523 
L 337.464698 245.265731 
L 337.821818 241.698823 
L 338.178938 240.667048 
L 340.321658 224.260994 
L 341.035898 217.100894 
L 341.750138 209.99491 
L 342.107258 207.118931 
L 342.821498 199.357413 
L 346.035578 161.954422 
L 346.749818 152.917988 
L 347.106938 149.353704 
L 348.892538 126.248747 
L 349.249658 123.991168 
L 349.963898 114.856493 
L 350.678138 107.154494 
L 352.106618 92.092929 
L 353.892218 76.386533 
L 354.606458 70.344172 
L 354.963578 68.409018 
L 355.320698 64.821688 
L 356.034938 61.649544 
L 356.749178 57.128659 
L 357.106298 56.054355 
L 358.534778 50.168429 
L 358.891898 50.316357 
L 359.606138 49.992094 
L 359.963258 49.178516 
L 360.320378 48.774444 
L 360.677498 48.07448 
L 361.034618 49.343927 
L 361.391738 50.050872 
L 361.748858 50.351209 
L 362.105978 51.390809 
L 362.463098 52.967355 
L 363.534458 56.134003 
L 364.962938 64.540371 
L 365.320058 67.24491 
L 365.677178 68.963766 
L 366.034298 72.140021 
L 366.391418 74.061935 
L 366.748538 76.941194 
L 367.105658 81.336009 
L 367.819898 87.317184 
L 368.534138 94.662062 
L 368.891258 97.227521 
L 370.319738 113.567567 
L 370.676858 116.930067 
L 371.391098 125.46598 
L 371.748218 129.200326 
L 372.462458 138.513181 
L 373.176698 145.98646 
L 373.533818 152.168287 
L 373.890938 154.832547 
L 374.605178 164.234227 
L 375.676538 177.530664 
L 376.390778 184.470937 
L 376.747898 190.062068 
L 377.819258 201.17972 
L 378.533498 209.182614 
L 380.676218 229.472316 
L 381.747578 236.74815 
L 382.461818 243.34077 
L 382.818938 244.223026 
L 383.890298 250.816598 
L 384.247418 251.719878 
L 384.961658 254.674035 
L 385.318778 254.864047 
L 385.675898 256.630118 
L 386.033018 257.228671 
L 386.390138 257.115457 
L 386.747258 257.513774 
L 387.104378 257.630711 
L 387.461498 256.705116 
L 387.818618 258.003974 
L 388.175738 257.039497 
L 388.532858 256.580119 
L 388.889978 254.922134 
L 389.247098 254.250034 
L 389.604218 253.275946 
L 389.961338 250.989662 
L 390.318458 250.836958 
L 390.675578 248.25292 
L 391.746938 243.103119 
L 392.104058 241.197702 
L 393.175418 232.554722 
L 393.889658 227.601788 
L 395.318138 213.302385 
L 399.246458 169.60924 
L 399.603578 164.075738 
L 399.960698 161.171437 
L 400.674938 151.019552 
L 401.389178 143.34211 
L 402.103418 133.187998 
L 404.603258 105.113262 
L 404.960378 100.240623 
L 405.317498 98.170761 
L 406.031738 88.821393 
L 406.745978 82.942245 
L 407.103098 79.014407 
L 407.817338 74.101435 
L 408.174458 69.904717 
L 409.245818 62.460116 
L 409.602938 59.178596 
L 409.960058 57.688714 
L 410.317178 55.540608 
L 410.674298 54.266315 
L 411.031418 51.32348 
L 411.388538 50.690491 
L 411.745658 49.10537 
L 412.102778 48.372643 
L 412.817018 45.608212 
L 413.174138 45.636425 
L 413.531258 45.848026 
L 413.888378 44.78208 
L 414.245498 45.579998 
L 414.602618 45.173853 
L 414.959738 44.48004 
L 415.673978 46.961375 
L 416.031098 47.90964 
L 416.388218 49.660017 
L 416.745338 49.141943 
L 417.102458 51.817927 
L 417.459578 53.630508 
L 417.816698 54.695404 
L 418.173818 56.236513 
L 418.530938 58.661427 
L 418.530938 58.661427 
" style="fill:none;stroke:#1f77b4;stroke-linecap:square;stroke-width:1.5;"/>
   </g>
   <g id="line2d_26">
    <path clip-path="url(#p304c686b55)" d="M 61.410938 271.333963 
L 62.914601 271.333963 
L 63.215333 270.740375 
L 63.516066 271.333963 
L 63.816799 271.003937 
L 64.117531 271.333963 
L 64.418264 271.333963 
L 64.718996 270.543024 
L 65.019729 271.333963 
L 65.320462 271.003937 
L 65.621194 270.06335 
L 66.22266 269.407313 
L 66.523392 269.790028 
L 66.824125 269.178382 
L 67.124858 268.041277 
L 67.42559 269.178382 
L 67.726323 266.811248 
L 68.027055 267.78411 
L 68.327788 266.617627 
L 68.628521 266.489459 
L 68.929253 265.675347 
L 69.229986 265.923125 
L 69.530719 264.859275 
L 69.831451 264.438032 
L 70.132184 264.684878 
L 71.034382 262.614635 
L 71.335114 262.212194 
L 71.635847 261.483149 
L 71.93658 261.483149 
L 72.237312 261.272661 
L 72.838778 258.475127 
L 73.13951 258.896451 
L 73.440243 257.726146 
L 74.041708 256.897282 
L 74.342441 256.753652 
L 74.643173 256.405619 
L 75.244639 254.198016 
L 75.545371 254.498166 
L 75.846104 252.99856 
L 76.146836 253.115507 
L 76.748302 251.781506 
L 77.049034 250.858449 
L 77.349767 250.445687 
L 77.6505 250.236012 
L 77.951232 248.650178 
L 78.251965 248.863907 
L 78.552698 248.144165 
L 78.85343 247.748728 
L 79.154163 246.047034 
L 79.454895 246.178699 
L 80.056361 245.052259 
L 80.357093 244.068223 
L 80.657826 244.441303 
L 80.958559 242.411407 
L 81.259291 242.660393 
L 81.560024 242.041448 
L 81.860756 240.926826 
L 82.462222 239.723332 
L 82.762954 238.449505 
L 83.063687 238.810997 
L 83.665152 236.98084 
L 83.965885 238.004232 
L 84.56735 235.529311 
L 84.868083 235.187371 
L 85.168815 233.902079 
L 85.469548 234.70648 
L 85.770281 234.185563 
L 86.071013 234.075878 
L 86.672479 232.291553 
L 86.973211 231.85883 
L 87.273944 232.162674 
L 87.574676 231.237483 
L 87.875409 231.141712 
L 88.176142 230.487297 
L 88.476874 230.718499 
L 88.777607 229.244508 
L 89.07834 230.003502 
L 89.379072 229.16522 
L 89.980538 228.160783 
L 90.28127 227.405787 
L 90.582003 227.329291 
L 90.882735 227.053472 
L 91.183468 227.259749 
L 92.085666 225.988853 
L 92.687131 224.415906 
L 92.987864 225.023025 
L 93.288596 224.535201 
L 93.589329 223.807826 
L 93.890062 224.389395 
L 94.190794 223.519531 
L 94.491527 223.755508 
L 95.393725 222.738029 
L 95.694458 223.331127 
L 95.99519 221.874226 
L 96.596655 221.69434 
L 96.897388 221.982532 
L 97.198121 222.970382 
L 97.498853 221.650029 
L 97.799586 221.637369 
L 98.100319 221.189675 
L 98.401051 221.126777 
L 98.701784 221.738651 
L 99.603982 220.255286 
L 99.904714 220.218022 
L 100.205447 221.836 
L 100.50618 220.304972 
L 100.806912 221.089038 
L 101.107645 219.861656 
L 101.408378 221.561407 
L 101.70911 221.265153 
L 102.611308 219.337977 
L 102.912041 220.29255 
L 103.212773 219.756734 
L 103.513506 219.929546 
L 103.814239 220.503899 
L 104.114971 219.387045 
L 104.415704 219.849312 
L 104.716436 219.966578 
L 105.017169 220.616399 
L 105.618634 219.417713 
L 106.2201 219.227573 
L 106.520832 219.22144 
L 106.821565 219.577185 
L 107.122298 219.356378 
L 107.42303 220.447818 
L 107.723763 220.460239 
L 108.024495 220.081386 
L 108.325228 219.904859 
L 108.625961 219.97275 
L 108.926693 219.830796 
L 109.227426 219.362511 
L 109.528159 219.387045 
L 109.828891 220.373289 
L 110.129624 219.966578 
L 110.430356 220.3795 
L 110.731089 220.535149 
L 111.031822 219.282775 
L 111.332554 220.46645 
L 111.633287 220.317393 
L 111.93402 219.682671 
L 112.234752 220.304972 
L 112.535485 220.003609 
L 112.836218 219.911031 
L 113.13695 220.131072 
L 113.437683 219.460648 
L 113.738415 220.323604 
L 114.339881 219.966578 
L 114.640613 219.64564 
L 114.941346 220.853899 
L 115.242079 219.94189 
L 115.542811 219.818453 
L 116.144276 220.503899 
L 116.445009 219.84314 
L 116.745742 220.317393 
L 117.046474 220.137283 
L 117.347207 220.100019 
L 117.64794 219.497449 
L 117.948672 221.271443 
L 118.249405 219.966578 
L 118.550138 220.685149 
L 119.151603 220.797649 
L 119.452335 219.84314 
L 119.753068 219.880171 
L 120.053801 220.236654 
L 120.354533 221.177096 
L 120.655266 221.309182 
L 120.955999 220.835149 
L 121.256731 220.585149 
L 121.557464 219.935718 
L 121.858196 220.242865 
L 122.459662 220.218022 
L 122.760394 221.321761 
L 123.36186 219.497449 
L 123.662592 221.529757 
L 123.963325 220.828899 
L 124.264058 219.387045 
L 124.56479 220.398132 
L 124.865523 219.960406 
L 125.466988 221.183386 
L 125.767721 220.956952 
L 126.369186 219.264375 
L 126.669919 220.528899 
L 126.970651 220.230443 
L 127.271384 220.747649 
L 127.572116 218.912199 
L 127.872849 220.685149 
L 128.173582 220.348446 
L 128.474314 220.516399 
L 128.775047 221.68801 
L 129.07578 220.691399 
L 129.677245 220.230443 
L 129.977978 220.610149 
L 130.579443 219.793765 
L 130.880175 221.01985 
L 131.180908 220.304972 
L 131.481641 220.635149 
L 131.782373 219.806109 
L 132.083106 220.578899 
L 132.383839 219.923374 
L 132.684571 220.354657 
L 132.985304 220.286339 
L 133.286036 219.681456 
L 133.586769 219.923374 
L 133.887502 219.497449 
L 134.188234 220.249075 
L 134.488967 219.162122 
L 134.7897 220.255286 
L 135.090432 220.131072 
L 135.391165 218.582519 
L 135.691898 220.678899 
L 135.99263 220.547649 
L 136.293363 219.830796 
L 136.594095 220.348446 
L 136.894828 220.298761 
L 137.195561 219.929546 
L 137.496293 219.904859 
L 137.797026 219.143835 
L 138.097759 219.929546 
L 138.398491 219.701187 
L 138.699224 219.935718 
L 139.300689 219.613987 
L 139.601422 220.391921 
L 139.902154 220.242865 
L 140.202887 220.816399 
L 140.804352 220.860149 
L 141.105085 219.509716 
L 141.70655 220.124861 
L 142.007283 219.639468 
L 142.308015 218.942677 
L 142.608748 220.137283 
L 142.909481 220.329814 
L 143.510946 219.873999 
L 143.811679 220.672649 
L 144.112411 219.627124 
L 144.413144 220.360868 
L 144.713876 220.224232 
L 145.014609 220.317393 
L 145.315342 221.01985 
L 145.616074 219.775249 
L 145.916807 220.935149 
L 146.21754 220.510149 
L 146.518272 219.861656 
L 146.819005 221.555077 
L 147.119738 220.168336 
L 147.42047 221.02614 
L 148.021935 220.872649 
L 148.322668 220.478871 
L 149.224866 221.3595 
L 149.525599 220.560149 
L 149.826331 220.760149 
L 150.127064 221.158226 
L 150.427796 220.822649 
L 151.029262 221.555077 
L 151.329994 220.641399 
L 151.630727 221.612048 
L 151.93146 221.643699 
L 152.232192 221.03243 
L 152.532925 222.261643 
L 152.833658 221.70067 
L 153.13439 222.351415 
L 153.435123 221.662689 
L 154.036588 222.402714 
L 154.638053 221.453795 
L 154.938786 221.861484 
L 155.239519 221.624709 
L 155.540251 222.524548 
L 155.840984 221.944306 
L 156.141716 222.351415 
L 156.442449 221.315472 
L 156.743182 222.892931 
L 157.043914 222.377065 
L 157.344647 222.789663 
L 157.64538 222.071726 
L 157.946112 222.944565 
L 158.246845 223.402591 
L 158.547578 222.796117 
L 159.449775 223.585475 
L 159.750508 224.020964 
L 160.051241 223.002653 
L 160.351973 223.984398 
L 160.652706 223.559316 
L 160.953439 224.244797 
L 161.254171 223.461061 
L 161.554904 224.027547 
L 161.855636 223.396094 
L 162.156369 223.781667 
L 162.457102 223.448068 
L 162.757834 223.513035 
L 163.058567 225.329391 
L 163.3593 224.488808 
L 163.660032 224.681006 
L 163.960765 223.833985 
L 164.56223 225.47718 
L 164.862963 224.989664 
L 165.163695 224.780419 
L 165.765161 225.043042 
L 166.065893 225.579081 
L 166.366626 225.16145 
L 166.667359 225.896975 
L 166.968091 225.248779 
L 167.268824 225.978139 
L 167.569556 224.976319 
L 168.471754 226.616902 
L 168.772487 225.356262 
L 169.07322 226.159111 
L 169.373952 225.049714 
L 169.674685 225.242062 
L 169.975418 226.111439 
L 170.27615 226.016094 
L 170.576883 226.050146 
L 170.877615 226.220404 
L 171.178348 225.856393 
L 171.479081 227.101811 
L 172.080546 226.295318 
L 172.381279 227.032756 
L 172.682011 226.466034 
L 172.982744 227.238886 
L 173.283476 226.949889 
L 173.584209 227.503146 
L 173.884942 226.186352 
L 174.185674 226.472891 
L 174.486407 226.582613 
L 174.78714 227.308428 
L 175.087872 226.610044 
L 175.388605 227.088 
L 175.689338 227.122528 
L 175.99007 228.167837 
L 176.290803 226.575756 
L 176.591535 227.440558 
L 177.493733 228.407895 
L 177.794466 226.9637 
L 178.095199 227.693064 
L 178.395931 227.503146 
L 178.696664 227.770103 
L 179.298129 227.273657 
L 179.598862 228.167837 
L 179.899594 227.749092 
L 180.200327 227.991498 
L 180.50106 228.777318 
L 180.801792 228.188997 
L 181.102525 228.301854 
L 181.403258 227.78411 
L 181.70399 228.407895 
L 182.004723 227.329291 
L 182.305455 229.266132 
L 182.606188 227.896166 
L 182.906921 228.887572 
L 183.207653 228.372373 
L 183.508386 229.123713 
L 183.809119 227.551825 
L 184.410584 228.801703 
L 184.711316 229.059311 
L 185.012049 228.585502 
L 185.312782 228.571293 
L 185.613514 228.734692 
L 185.914247 228.203104 
L 186.21498 228.422103 
L 186.515712 227.882159 
L 187.117178 229.555865 
L 187.718643 228.763109 
L 188.019375 227.721078 
L 188.320108 228.37239 
L 188.921573 228.514459 
L 189.222306 229.395876 
L 189.523039 228.528668 
L 189.823771 229.044999 
L 190.124504 229.044999 
L 190.425236 228.429207 
L 190.725969 229.073622 
L 191.026702 229.158012 
L 191.327434 228.188997 
L 191.9289 228.684962 
L 192.229632 227.847141 
L 192.530365 229.511204 
L 192.831098 229.599431 
L 193.432563 228.866105 
L 193.733295 228.844637 
L 194.034028 228.670753 
L 194.334761 229.27334 
L 194.635493 229.374252 
L 194.936226 228.266586 
L 195.838424 229.359836 
L 196.139156 228.132569 
L 196.439889 229.555865 
L 196.740622 228.837482 
L 197.041354 229.944983 
L 197.342087 228.642336 
L 197.64282 229.331004 
L 197.943552 229.403084 
L 198.244285 229.911655 
L 198.545018 229.996187 
L 198.84575 228.663649 
L 199.146483 230.120538 
L 199.447215 230.157112 
L 199.747948 229.27334 
L 200.349413 229.606692 
L 200.650146 228.816014 
L 200.950879 229.194052 
L 201.251611 229.80274 
L 201.552344 229.116557 
L 201.853076 230.755623 
L 202.454542 229.642997 
L 203.056007 229.152336 
L 203.35674 229.613953 
L 203.657472 229.475164 
L 203.958205 230.420972 
L 204.55967 229.287756 
L 204.860403 230.105909 
L 205.161135 229.974243 
L 205.461868 230.164427 
L 205.762601 229.202426 
L 206.063333 229.374252 
L 206.364066 228.414999 
L 206.664799 228.111408 
L 206.965531 229.722868 
L 207.266264 229.052155 
L 207.867729 229.715607 
L 208.168462 228.951974 
L 208.469194 229.482372 
L 208.769927 229.266132 
L 209.07066 228.894728 
L 209.371392 229.730129 
L 209.672125 230.179057 
L 209.972858 229.810001 
L 210.27359 228.471833 
L 210.574323 228.628128 
L 211.175788 230.339909 
L 211.476521 228.528668 
L 211.777253 228.980597 
L 211.777253 228.980597 
" style="fill:none;stroke:#d62728;stroke-linecap:square;stroke-width:1.5;"/>
   </g>
   <g id="line2d_27">
    <path clip-path="url(#p304c686b55)" d="M 61.410938 23.543308 
L 418.530938 23.543308 
" style="fill:none;stroke:#99aaaa;stroke-dasharray:9.6,2.4,1.5,2.4;stroke-dashoffset:0;stroke-width:1.5;"/>
   </g>
   <g id="line2d_28">
    <defs>
     <path d="M -3 3 
L 3 3 
L 3 -3 
L -3 -3 
z
" id="m9e0ac68bfd" style="stroke:#1f77b4;stroke-linejoin:miter;"/>
    </defs>
    <g clip-path="url(#p304c686b55)">
     <use style="fill:#1f77b4;stroke:#1f77b4;stroke-linejoin:miter;" x="61.410938" xlink:href="#m9e0ac68bfd" y="278.419468"/>
     <use style="fill:#1f77b4;stroke:#1f77b4;stroke-linejoin:miter;" x="70.182306" xlink:href="#m9e0ac68bfd" y="212.756606"/>
     <use style="fill:#1f77b4;stroke:#1f77b4;stroke-linejoin:miter;" x="78.953674" xlink:href="#m9e0ac68bfd" y="114.647534"/>
     <use style="fill:#1f77b4;stroke:#1f77b4;stroke-linejoin:miter;" x="87.725043" xlink:href="#m9e0ac68bfd" y="59.10656"/>
     <use style="fill:#1f77b4;stroke:#1f77b4;stroke-linejoin:miter;" x="96.496411" xlink:href="#m9e0ac68bfd" y="111.69148"/>
     <use style="fill:#1f77b4;stroke:#1f77b4;stroke-linejoin:miter;" x="105.26778" xlink:href="#m9e0ac68bfd" y="214.174218"/>
     <use style="fill:#1f77b4;stroke:#1f77b4;stroke-linejoin:miter;" x="114.039148" xlink:href="#m9e0ac68bfd" y="269.002191"/>
     <use style="fill:#1f77b4;stroke:#1f77b4;stroke-linejoin:miter;" x="122.810516" xlink:href="#m9e0ac68bfd" y="221.897168"/>
     <use style="fill:#1f77b4;stroke:#1f77b4;stroke-linejoin:miter;" x="131.581885" xlink:href="#m9e0ac68bfd" y="113.245228"/>
     <use style="fill:#1f77b4;stroke:#1f77b4;stroke-linejoin:miter;" x="140.353253" xlink:href="#m9e0ac68bfd" y="56.888771"/>
     <use style="fill:#1f77b4;stroke:#1f77b4;stroke-linejoin:miter;" x="149.124622" xlink:href="#m9e0ac68bfd" y="87.669235"/>
     <use style="fill:#1f77b4;stroke:#1f77b4;stroke-linejoin:miter;" x="157.89599" xlink:href="#m9e0ac68bfd" y="195.007731"/>
     <use style="fill:#1f77b4;stroke:#1f77b4;stroke-linejoin:miter;" x="166.667359" xlink:href="#m9e0ac68bfd" y="263.979397"/>
     <use style="fill:#1f77b4;stroke:#1f77b4;stroke-linejoin:miter;" x="175.438727" xlink:href="#m9e0ac68bfd" y="227.921815"/>
     <use style="fill:#1f77b4;stroke:#1f77b4;stroke-linejoin:miter;" x="184.210095" xlink:href="#m9e0ac68bfd" y="132.249489"/>
     <use style="fill:#1f77b4;stroke:#1f77b4;stroke-linejoin:miter;" x="192.981464" xlink:href="#m9e0ac68bfd" y="53.884828"/>
     <use style="fill:#1f77b4;stroke:#1f77b4;stroke-linejoin:miter;" x="201.752832" xlink:href="#m9e0ac68bfd" y="94.373648"/>
     <use style="fill:#1f77b4;stroke:#1f77b4;stroke-linejoin:miter;" x="210.524201" xlink:href="#m9e0ac68bfd" y="177.158226"/>
     <use style="fill:#1f77b4;stroke:#1f77b4;stroke-linejoin:miter;" x="219.295569" xlink:href="#m9e0ac68bfd" y="257.938611"/>
     <use style="fill:#1f77b4;stroke:#1f77b4;stroke-linejoin:miter;" x="228.066938" xlink:href="#m9e0ac68bfd" y="229.406618"/>
     <use style="fill:#1f77b4;stroke:#1f77b4;stroke-linejoin:miter;" x="236.838306" xlink:href="#m9e0ac68bfd" y="154.783188"/>
     <use style="fill:#1f77b4;stroke:#1f77b4;stroke-linejoin:miter;" x="245.609674" xlink:href="#m9e0ac68bfd" y="78.228125"/>
     <use style="fill:#1f77b4;stroke:#1f77b4;stroke-linejoin:miter;" x="254.381043" xlink:href="#m9e0ac68bfd" y="78.853311"/>
     <use style="fill:#1f77b4;stroke:#1f77b4;stroke-linejoin:miter;" x="263.152411" xlink:href="#m9e0ac68bfd" y="146.504646"/>
     <use style="fill:#1f77b4;stroke:#1f77b4;stroke-linejoin:miter;" x="271.92378" xlink:href="#m9e0ac68bfd" y="227.101088"/>
     <use style="fill:#1f77b4;stroke:#1f77b4;stroke-linejoin:miter;" x="280.695148" xlink:href="#m9e0ac68bfd" y="237.394194"/>
     <use style="fill:#1f77b4;stroke:#1f77b4;stroke-linejoin:miter;" x="289.466516" xlink:href="#m9e0ac68bfd" y="173.383039"/>
     <use style="fill:#1f77b4;stroke:#1f77b4;stroke-linejoin:miter;" x="298.237885" xlink:href="#m9e0ac68bfd" y="91.27428"/>
     <use style="fill:#1f77b4;stroke:#1f77b4;stroke-linejoin:miter;" x="307.009253" xlink:href="#m9e0ac68bfd" y="63.228706"/>
     <use style="fill:#1f77b4;stroke:#1f77b4;stroke-linejoin:miter;" x="315.780622" xlink:href="#m9e0ac68bfd" y="141.047025"/>
     <use style="fill:#1f77b4;stroke:#1f77b4;stroke-linejoin:miter;" x="324.55199" xlink:href="#m9e0ac68bfd" y="204.342271"/>
     <use style="fill:#1f77b4;stroke:#1f77b4;stroke-linejoin:miter;" x="333.323359" xlink:href="#m9e0ac68bfd" y="232.441228"/>
     <use style="fill:#1f77b4;stroke:#1f77b4;stroke-linejoin:miter;" x="342.094727" xlink:href="#m9e0ac68bfd" y="179.812828"/>
     <use style="fill:#1f77b4;stroke:#1f77b4;stroke-linejoin:miter;" x="350.866095" xlink:href="#m9e0ac68bfd" y="112.844118"/>
     <use style="fill:#1f77b4;stroke:#1f77b4;stroke-linejoin:miter;" x="359.637464" xlink:href="#m9e0ac68bfd" y="84.92501"/>
     <use style="fill:#1f77b4;stroke:#1f77b4;stroke-linejoin:miter;" x="368.408832" xlink:href="#m9e0ac68bfd" y="109.610828"/>
     <use style="fill:#1f77b4;stroke:#1f77b4;stroke-linejoin:miter;" x="377.180201" xlink:href="#m9e0ac68bfd" y="184.984588"/>
     <use style="fill:#1f77b4;stroke:#1f77b4;stroke-linejoin:miter;" x="385.951569" xlink:href="#m9e0ac68bfd" y="228.294416"/>
     <use style="fill:#1f77b4;stroke:#1f77b4;stroke-linejoin:miter;" x="394.722938" xlink:href="#m9e0ac68bfd" y="195.211136"/>
     <use style="fill:#1f77b4;stroke:#1f77b4;stroke-linejoin:miter;" x="403.494306" xlink:href="#m9e0ac68bfd" y="149.352003"/>
     <use style="fill:#1f77b4;stroke:#1f77b4;stroke-linejoin:miter;" x="412.265674" xlink:href="#m9e0ac68bfd" y="84.638699"/>
    </g>
   </g>
   <g id="line2d_29">
    <defs>
     <path d="M 0 3 
C 0.795609 3 1.55874 2.683901 2.12132 2.12132 
C 2.683901 1.55874 3 0.795609 3 0 
C 3 -0.795609 2.683901 -1.55874 2.12132 -2.12132 
C 1.55874 -2.683901 0.795609 -3 0 -3 
C -0.795609 -3 -1.55874 -2.683901 -2.12132 -2.12132 
C -2.683901 -1.55874 -3 -0.795609 -3 0 
C -3 0.795609 -2.683901 1.55874 -2.12132 2.12132 
C -1.55874 2.683901 -0.795609 3 0 3 
z
" id="m4d17eb6f4c" style="stroke:#d62728;"/>
    </defs>
    <g clip-path="url(#p304c686b55)">
     <use style="fill:#d62728;stroke:#d62728;" x="61.410938" xlink:href="#m4d17eb6f4c" y="271.284996"/>
     <use style="fill:#d62728;stroke:#d62728;" x="70.182306" xlink:href="#m4d17eb6f4c" y="264.646828"/>
     <use style="fill:#d62728;stroke:#d62728;" x="78.953674" xlink:href="#m4d17eb6f4c" y="242.383053"/>
     <use style="fill:#d62728;stroke:#d62728;" x="87.725043" xlink:href="#m4d17eb6f4c" y="219.595885"/>
     <use style="fill:#d62728;stroke:#d62728;" x="96.496411" xlink:href="#m4d17eb6f4c" y="205.520596"/>
     <use style="fill:#d62728;stroke:#d62728;" x="105.26778" xlink:href="#m4d17eb6f4c" y="210.214828"/>
     <use style="fill:#d62728;stroke:#d62728;" x="114.039148" xlink:href="#m4d17eb6f4c" y="225.61893"/>
     <use style="fill:#d62728;stroke:#d62728;" x="122.810516" xlink:href="#m4d17eb6f4c" y="211.31567"/>
     <use style="fill:#d62728;stroke:#d62728;" x="131.581885" xlink:href="#m4d17eb6f4c" y="230.703873"/>
     <use style="fill:#d62728;stroke:#d62728;" x="140.353253" xlink:href="#m4d17eb6f4c" y="221.986828"/>
     <use style="fill:#d62728;stroke:#d62728;" x="149.124622" xlink:href="#m4d17eb6f4c" y="219.579148"/>
     <use style="fill:#d62728;stroke:#d62728;" x="157.89599" xlink:href="#m4d17eb6f4c" y="230.080557"/>
     <use style="fill:#d62728;stroke:#d62728;" x="166.667359" xlink:href="#m4d17eb6f4c" y="234.946828"/>
     <use style="fill:#d62728;stroke:#d62728;" x="175.438727" xlink:href="#m4d17eb6f4c" y="239.679809"/>
     <use style="fill:#d62728;stroke:#d62728;" x="184.210095" xlink:href="#m4d17eb6f4c" y="216.977963"/>
     <use style="fill:#d62728;stroke:#d62728;" x="192.981464" xlink:href="#m4d17eb6f4c" y="222.850828"/>
    </g>
   </g>
   <g id="patch_3">
    <path d="M 61.410938 279.010828 
L 61.410938 12.898828 
" style="fill:none;stroke:#000000;stroke-linecap:square;stroke-linejoin:miter;stroke-width:0.8;"/>
   </g>
   <g id="patch_4">
    <path d="M 418.530938 279.010828 
L 418.530938 12.898828 
" style="fill:none;stroke:#000000;stroke-linecap:square;stroke-linejoin:miter;stroke-width:0.8;"/>
   </g>
   <g id="patch_5">
    <path d="M 61.410938 279.010828 
L 418.530938 279.010828 
" style="fill:none;stroke:#000000;stroke-linecap:square;stroke-linejoin:miter;stroke-width:0.8;"/>
   </g>
   <g id="patch_6">
    <path d="M 61.410938 12.898828 
L 418.530938 12.898828 
" style="fill:none;stroke:#000000;stroke-linecap:square;stroke-linejoin:miter;stroke-width:0.8;"/>
   </g>
  </g>
 </g>
 <defs>
  <clipPath id="p304c686b55">
   <rect height="266.112" width="357.12" x="61.410938" y="12.898828"/>
  </clipPath>
 </defs>
</svg>
