<?xml version="1.0" encoding="utf-8" standalone="no"?>
<!DOCTYPE svg PUBLIC "-//W3C//DTD SVG 1.1//EN"
  "http://www.w3.org/Graphics/SVG/1.1/DTD/svg11.dtd">
<!-- Created with matplotlib (https://matplotlib.org/) -->
<svg height="371.781187pt" version="1.1" viewBox="0 0 443.077031 371.781187" width="443.077031pt" xmlns="http://www.w3.org/2000/svg" xmlns:xlink="http://www.w3.org/1999/xlink">
 <defs>
  <style type="text/css">*{stroke-linecap:butt;stroke-linejoin:round;}</style>
 </defs>
 <g id="figure_1">
  <g id="patch_1">
   <path d="M 0 371.781187 
L 443.077031 371.781187 
L 443.077031 0 
L 0 0 
z
" style="fill:none;"/>
  </g>
  <g id="axes_1">
   <g id="patch_2">
    <path d="M 78.757031 317.664 
L 435.877031 317.664 
L 435.877031 7.2 
L 78.757031 7.2 
z
" style="fill:none;"/>
   </g>
   <g id="matplotlib.axis_1">
    <g id="xtick_1">
     <g id="line2d_1">
      <defs>
       <path d="M 0 0 
L 0 3.5 
" id="m005f0a59be" style="stroke:#000000;stroke-width:0.8;"/>
      </defs>
      <g>
       <use style="stroke:#000000;stroke-width:0.8;" x="102.886761" xlink:href="#m005f0a59be" y="317.664"/>
      </g>
     </g>
     <g id="text_1">
      <!-- 3 -->
      <g transform="translate(98.114886 336.061656)scale(0.15 -0.15)">
       <defs>
        <path d="M 40.578125 39.3125 
Q 47.65625 37.796875 51.625 33 
Q 55.609375 28.21875 55.609375 21.1875 
Q 55.609375 10.40625 48.1875 4.484375 
Q 40.765625 -1.421875 27.09375 -1.421875 
Q 22.515625 -1.421875 17.65625 -0.515625 
Q 12.796875 0.390625 7.625 2.203125 
L 7.625 11.71875 
Q 11.71875 9.328125 16.59375 8.109375 
Q 21.484375 6.890625 26.8125 6.890625 
Q 36.078125 6.890625 40.9375 10.546875 
Q 45.796875 14.203125 45.796875 21.1875 
Q 45.796875 27.640625 41.28125 31.265625 
Q 36.765625 34.90625 28.71875 34.90625 
L 20.21875 34.90625 
L 20.21875 43.015625 
L 29.109375 43.015625 
Q 36.375 43.015625 40.234375 45.921875 
Q 44.09375 48.828125 44.09375 54.296875 
Q 44.09375 59.90625 40.109375 62.90625 
Q 36.140625 65.921875 28.71875 65.921875 
Q 24.65625 65.921875 20.015625 65.03125 
Q 15.375 64.15625 9.8125 62.3125 
L 9.8125 71.09375 
Q 15.4375 72.65625 20.34375 73.4375 
Q 25.25 74.21875 29.59375 74.21875 
Q 40.828125 74.21875 47.359375 69.109375 
Q 53.90625 64.015625 53.90625 55.328125 
Q 53.90625 49.265625 50.4375 45.09375 
Q 46.96875 40.921875 40.578125 39.3125 
z
" id="DejaVuSans-51"/>
       </defs>
       <use xlink:href="#DejaVuSans-51"/>
      </g>
     </g>
    </g>
    <g id="xtick_2">
     <g id="line2d_2">
      <g>
       <use style="stroke:#000000;stroke-width:0.8;" x="151.14622" xlink:href="#m005f0a59be" y="317.664"/>
      </g>
     </g>
     <g id="text_2">
      <!-- 4 -->
      <g transform="translate(146.374345 336.061656)scale(0.15 -0.15)">
       <defs>
        <path d="M 37.796875 64.3125 
L 12.890625 25.390625 
L 37.796875 25.390625 
z
M 35.203125 72.90625 
L 47.609375 72.90625 
L 47.609375 25.390625 
L 58.015625 25.390625 
L 58.015625 17.1875 
L 47.609375 17.1875 
L 47.609375 0 
L 37.796875 0 
L 37.796875 17.1875 
L 4.890625 17.1875 
L 4.890625 26.703125 
z
" id="DejaVuSans-52"/>
       </defs>
       <use xlink:href="#DejaVuSans-52"/>
      </g>
     </g>
    </g>
    <g id="xtick_3">
     <g id="line2d_3">
      <g>
       <use style="stroke:#000000;stroke-width:0.8;" x="199.40568" xlink:href="#m005f0a59be" y="317.664"/>
      </g>
     </g>
     <g id="text_3">
      <!-- 5 -->
      <g transform="translate(194.633805 336.061656)scale(0.15 -0.15)">
       <defs>
        <path d="M 10.796875 72.90625 
L 49.515625 72.90625 
L 49.515625 64.59375 
L 19.828125 64.59375 
L 19.828125 46.734375 
Q 21.96875 47.46875 24.109375 47.828125 
Q 26.265625 48.1875 28.421875 48.1875 
Q 40.625 48.1875 47.75 41.5 
Q 54.890625 34.8125 54.890625 23.390625 
Q 54.890625 11.625 47.5625 5.09375 
Q 40.234375 -1.421875 26.90625 -1.421875 
Q 22.3125 -1.421875 17.546875 -0.640625 
Q 12.796875 0.140625 7.71875 1.703125 
L 7.71875 11.625 
Q 12.109375 9.234375 16.796875 8.0625 
Q 21.484375 6.890625 26.703125 6.890625 
Q 35.15625 6.890625 40.078125 11.328125 
Q 45.015625 15.765625 45.015625 23.390625 
Q 45.015625 31 40.078125 35.4375 
Q 35.15625 39.890625 26.703125 39.890625 
Q 22.75 39.890625 18.8125 39.015625 
Q 14.890625 38.140625 10.796875 36.28125 
z
" id="DejaVuSans-53"/>
       </defs>
       <use xlink:href="#DejaVuSans-53"/>
      </g>
     </g>
    </g>
    <g id="xtick_4">
     <g id="line2d_4">
      <g>
       <use style="stroke:#000000;stroke-width:0.8;" x="247.665139" xlink:href="#m005f0a59be" y="317.664"/>
      </g>
     </g>
     <g id="text_4">
      <!-- 6 -->
      <g transform="translate(242.893264 336.061656)scale(0.15 -0.15)">
       <defs>
        <path d="M 33.015625 40.375 
Q 26.375 40.375 22.484375 35.828125 
Q 18.609375 31.296875 18.609375 23.390625 
Q 18.609375 15.53125 22.484375 10.953125 
Q 26.375 6.390625 33.015625 6.390625 
Q 39.65625 6.390625 43.53125 10.953125 
Q 47.40625 15.53125 47.40625 23.390625 
Q 47.40625 31.296875 43.53125 35.828125 
Q 39.65625 40.375 33.015625 40.375 
z
M 52.59375 71.296875 
L 52.59375 62.3125 
Q 48.875 64.0625 45.09375 64.984375 
Q 41.3125 65.921875 37.59375 65.921875 
Q 27.828125 65.921875 22.671875 59.328125 
Q 17.53125 52.734375 16.796875 39.40625 
Q 19.671875 43.65625 24.015625 45.921875 
Q 28.375 48.1875 33.59375 48.1875 
Q 44.578125 48.1875 50.953125 41.515625 
Q 57.328125 34.859375 57.328125 23.390625 
Q 57.328125 12.15625 50.6875 5.359375 
Q 44.046875 -1.421875 33.015625 -1.421875 
Q 20.359375 -1.421875 13.671875 8.265625 
Q 6.984375 17.96875 6.984375 36.375 
Q 6.984375 53.65625 15.1875 63.9375 
Q 23.390625 74.21875 37.203125 74.21875 
Q 40.921875 74.21875 44.703125 73.484375 
Q 48.484375 72.75 52.59375 71.296875 
z
" id="DejaVuSans-54"/>
       </defs>
       <use xlink:href="#DejaVuSans-54"/>
      </g>
     </g>
    </g>
    <g id="xtick_5">
     <g id="line2d_5">
      <g>
       <use style="stroke:#000000;stroke-width:0.8;" x="295.924599" xlink:href="#m005f0a59be" y="317.664"/>
      </g>
     </g>
     <g id="text_5">
      <!-- 7 -->
      <g transform="translate(291.152724 336.061656)scale(0.15 -0.15)">
       <defs>
        <path d="M 8.203125 72.90625 
L 55.078125 72.90625 
L 55.078125 68.703125 
L 28.609375 0 
L 18.3125 0 
L 43.21875 64.59375 
L 8.203125 64.59375 
z
" id="DejaVuSans-55"/>
       </defs>
       <use xlink:href="#DejaVuSans-55"/>
      </g>
     </g>
    </g>
    <g id="xtick_6">
     <g id="line2d_6">
      <g>
       <use style="stroke:#000000;stroke-width:0.8;" x="344.184058" xlink:href="#m005f0a59be" y="317.664"/>
      </g>
     </g>
     <g id="text_6">
      <!-- 8 -->
      <g transform="translate(339.412183 336.061656)scale(0.15 -0.15)">
       <defs>
        <path d="M 31.78125 34.625 
Q 24.75 34.625 20.71875 30.859375 
Q 16.703125 27.09375 16.703125 20.515625 
Q 16.703125 13.921875 20.71875 10.15625 
Q 24.75 6.390625 31.78125 6.390625 
Q 38.8125 6.390625 42.859375 10.171875 
Q 46.921875 13.96875 46.921875 20.515625 
Q 46.921875 27.09375 42.890625 30.859375 
Q 38.875 34.625 31.78125 34.625 
z
M 21.921875 38.8125 
Q 15.578125 40.375 12.03125 44.71875 
Q 8.5 49.078125 8.5 55.328125 
Q 8.5 64.0625 14.71875 69.140625 
Q 20.953125 74.21875 31.78125 74.21875 
Q 42.671875 74.21875 48.875 69.140625 
Q 55.078125 64.0625 55.078125 55.328125 
Q 55.078125 49.078125 51.53125 44.71875 
Q 48 40.375 41.703125 38.8125 
Q 48.828125 37.15625 52.796875 32.3125 
Q 56.78125 27.484375 56.78125 20.515625 
Q 56.78125 9.90625 50.3125 4.234375 
Q 43.84375 -1.421875 31.78125 -1.421875 
Q 19.734375 -1.421875 13.25 4.234375 
Q 6.78125 9.90625 6.78125 20.515625 
Q 6.78125 27.484375 10.78125 32.3125 
Q 14.796875 37.15625 21.921875 38.8125 
z
M 18.3125 54.390625 
Q 18.3125 48.734375 21.84375 45.5625 
Q 25.390625 42.390625 31.78125 42.390625 
Q 38.140625 42.390625 41.71875 45.5625 
Q 45.3125 48.734375 45.3125 54.390625 
Q 45.3125 60.0625 41.71875 63.234375 
Q 38.140625 66.40625 31.78125 66.40625 
Q 25.390625 66.40625 21.84375 63.234375 
Q 18.3125 60.0625 18.3125 54.390625 
z
" id="DejaVuSans-56"/>
       </defs>
       <use xlink:href="#DejaVuSans-56"/>
      </g>
     </g>
    </g>
    <g id="xtick_7">
     <g id="line2d_7">
      <g>
       <use style="stroke:#000000;stroke-width:0.8;" x="392.443518" xlink:href="#m005f0a59be" y="317.664"/>
      </g>
     </g>
     <g id="text_7">
      <!-- 9 -->
      <g transform="translate(387.671643 336.061656)scale(0.15 -0.15)">
       <defs>
        <path d="M 10.984375 1.515625 
L 10.984375 10.5 
Q 14.703125 8.734375 18.5 7.8125 
Q 22.3125 6.890625 25.984375 6.890625 
Q 35.75 6.890625 40.890625 13.453125 
Q 46.046875 20.015625 46.78125 33.40625 
Q 43.953125 29.203125 39.59375 26.953125 
Q 35.25 24.703125 29.984375 24.703125 
Q 19.046875 24.703125 12.671875 31.3125 
Q 6.296875 37.9375 6.296875 49.421875 
Q 6.296875 60.640625 12.9375 67.421875 
Q 19.578125 74.21875 30.609375 74.21875 
Q 43.265625 74.21875 49.921875 64.515625 
Q 56.59375 54.828125 56.59375 36.375 
Q 56.59375 19.140625 48.40625 8.859375 
Q 40.234375 -1.421875 26.421875 -1.421875 
Q 22.703125 -1.421875 18.890625 -0.6875 
Q 15.09375 0.046875 10.984375 1.515625 
z
M 30.609375 32.421875 
Q 37.25 32.421875 41.125 36.953125 
Q 45.015625 41.5 45.015625 49.421875 
Q 45.015625 57.28125 41.125 61.84375 
Q 37.25 66.40625 30.609375 66.40625 
Q 23.96875 66.40625 20.09375 61.84375 
Q 16.21875 57.28125 16.21875 49.421875 
Q 16.21875 41.5 20.09375 36.953125 
Q 23.96875 32.421875 30.609375 32.421875 
z
" id="DejaVuSans-57"/>
       </defs>
       <use xlink:href="#DejaVuSans-57"/>
      </g>
     </g>
    </g>
    <g id="text_8">
     <!-- Internuclear Distance ($\mathrm{\AA}$) -->
     <g transform="translate(131.717031 360.421812)scale(0.2 -0.2)">
      <defs>
       <path d="M 9.8125 72.90625 
L 19.671875 72.90625 
L 19.671875 0 
L 9.8125 0 
z
" id="DejaVuSans-73"/>
       <path d="M 54.890625 33.015625 
L 54.890625 0 
L 45.90625 0 
L 45.90625 32.71875 
Q 45.90625 40.484375 42.875 44.328125 
Q 39.84375 48.1875 33.796875 48.1875 
Q 26.515625 48.1875 22.3125 43.546875 
Q 18.109375 38.921875 18.109375 30.90625 
L 18.109375 0 
L 9.078125 0 
L 9.078125 54.6875 
L 18.109375 54.6875 
L 18.109375 46.1875 
Q 21.34375 51.125 25.703125 53.5625 
Q 30.078125 56 35.796875 56 
Q 45.21875 56 50.046875 50.171875 
Q 54.890625 44.34375 54.890625 33.015625 
z
" id="DejaVuSans-110"/>
       <path d="M 18.3125 70.21875 
L 18.3125 54.6875 
L 36.8125 54.6875 
L 36.8125 47.703125 
L 18.3125 47.703125 
L 18.3125 18.015625 
Q 18.3125 11.328125 20.140625 9.421875 
Q 21.96875 7.515625 27.59375 7.515625 
L 36.8125 7.515625 
L 36.8125 0 
L 27.59375 0 
Q 17.1875 0 13.234375 3.875 
Q 9.28125 7.765625 9.28125 18.015625 
L 9.28125 47.703125 
L 2.6875 47.703125 
L 2.6875 54.6875 
L 9.28125 54.6875 
L 9.28125 70.21875 
z
" id="DejaVuSans-116"/>
       <path d="M 56.203125 29.59375 
L 56.203125 25.203125 
L 14.890625 25.203125 
Q 15.484375 15.921875 20.484375 11.0625 
Q 25.484375 6.203125 34.421875 6.203125 
Q 39.59375 6.203125 44.453125 7.46875 
Q 49.3125 8.734375 54.109375 11.28125 
L 54.109375 2.78125 
Q 49.265625 0.734375 44.1875 -0.34375 
Q 39.109375 -1.421875 33.890625 -1.421875 
Q 20.796875 -1.421875 13.15625 6.1875 
Q 5.515625 13.8125 5.515625 26.8125 
Q 5.515625 40.234375 12.765625 48.109375 
Q 20.015625 56 32.328125 56 
Q 43.359375 56 49.78125 48.890625 
Q 56.203125 41.796875 56.203125 29.59375 
z
M 47.21875 32.234375 
Q 47.125 39.59375 43.09375 43.984375 
Q 39.0625 48.390625 32.421875 48.390625 
Q 24.90625 48.390625 20.390625 44.140625 
Q 15.875 39.890625 15.1875 32.171875 
z
" id="DejaVuSans-101"/>
       <path d="M 41.109375 46.296875 
Q 39.59375 47.171875 37.8125 47.578125 
Q 36.03125 48 33.890625 48 
Q 26.265625 48 22.1875 43.046875 
Q 18.109375 38.09375 18.109375 28.8125 
L 18.109375 0 
L 9.078125 0 
L 9.078125 54.6875 
L 18.109375 54.6875 
L 18.109375 46.1875 
Q 20.953125 51.171875 25.484375 53.578125 
Q 30.03125 56 36.53125 56 
Q 37.453125 56 38.578125 55.875 
Q 39.703125 55.765625 41.0625 55.515625 
z
" id="DejaVuSans-114"/>
       <path d="M 8.5 21.578125 
L 8.5 54.6875 
L 17.484375 54.6875 
L 17.484375 21.921875 
Q 17.484375 14.15625 20.5 10.265625 
Q 23.53125 6.390625 29.59375 6.390625 
Q 36.859375 6.390625 41.078125 11.03125 
Q 45.3125 15.671875 45.3125 23.6875 
L 45.3125 54.6875 
L 54.296875 54.6875 
L 54.296875 0 
L 45.3125 0 
L 45.3125 8.40625 
Q 42.046875 3.421875 37.71875 1 
Q 33.40625 -1.421875 27.6875 -1.421875 
Q 18.265625 -1.421875 13.375 4.4375 
Q 8.5 10.296875 8.5 21.578125 
z
M 31.109375 56 
z
" id="DejaVuSans-117"/>
       <path d="M 48.78125 52.59375 
L 48.78125 44.1875 
Q 44.96875 46.296875 41.140625 47.34375 
Q 37.3125 48.390625 33.40625 48.390625 
Q 24.65625 48.390625 19.8125 42.84375 
Q 14.984375 37.3125 14.984375 27.296875 
Q 14.984375 17.28125 19.8125 11.734375 
Q 24.65625 6.203125 33.40625 6.203125 
Q 37.3125 6.203125 41.140625 7.25 
Q 44.96875 8.296875 48.78125 10.40625 
L 48.78125 2.09375 
Q 45.015625 0.34375 40.984375 -0.53125 
Q 36.96875 -1.421875 32.421875 -1.421875 
Q 20.0625 -1.421875 12.78125 6.34375 
Q 5.515625 14.109375 5.515625 27.296875 
Q 5.515625 40.671875 12.859375 48.328125 
Q 20.21875 56 33.015625 56 
Q 37.15625 56 41.109375 55.140625 
Q 45.0625 54.296875 48.78125 52.59375 
z
" id="DejaVuSans-99"/>
       <path d="M 9.421875 75.984375 
L 18.40625 75.984375 
L 18.40625 0 
L 9.421875 0 
z
" id="DejaVuSans-108"/>
       <path d="M 34.28125 27.484375 
Q 23.390625 27.484375 19.1875 25 
Q 14.984375 22.515625 14.984375 16.5 
Q 14.984375 11.71875 18.140625 8.90625 
Q 21.296875 6.109375 26.703125 6.109375 
Q 34.1875 6.109375 38.703125 11.40625 
Q 43.21875 16.703125 43.21875 25.484375 
L 43.21875 27.484375 
z
M 52.203125 31.203125 
L 52.203125 0 
L 43.21875 0 
L 43.21875 8.296875 
Q 40.140625 3.328125 35.546875 0.953125 
Q 30.953125 -1.421875 24.3125 -1.421875 
Q 15.921875 -1.421875 10.953125 3.296875 
Q 6 8.015625 6 15.921875 
Q 6 25.140625 12.171875 29.828125 
Q 18.359375 34.515625 30.609375 34.515625 
L 43.21875 34.515625 
L 43.21875 35.40625 
Q 43.21875 41.609375 39.140625 45 
Q 35.0625 48.390625 27.6875 48.390625 
Q 23 48.390625 18.546875 47.265625 
Q 14.109375 46.140625 10.015625 43.890625 
L 10.015625 52.203125 
Q 14.9375 54.109375 19.578125 55.046875 
Q 24.21875 56 28.609375 56 
Q 40.484375 56 46.34375 49.84375 
Q 52.203125 43.703125 52.203125 31.203125 
z
" id="DejaVuSans-97"/>
       <path id="DejaVuSans-32"/>
       <path d="M 19.671875 64.796875 
L 19.671875 8.109375 
L 31.59375 8.109375 
Q 46.6875 8.109375 53.6875 14.9375 
Q 60.6875 21.78125 60.6875 36.53125 
Q 60.6875 51.171875 53.6875 57.984375 
Q 46.6875 64.796875 31.59375 64.796875 
z
M 9.8125 72.90625 
L 30.078125 72.90625 
Q 51.265625 72.90625 61.171875 64.09375 
Q 71.09375 55.28125 71.09375 36.53125 
Q 71.09375 17.671875 61.125 8.828125 
Q 51.171875 0 30.078125 0 
L 9.8125 0 
z
" id="DejaVuSans-68"/>
       <path d="M 9.421875 54.6875 
L 18.40625 54.6875 
L 18.40625 0 
L 9.421875 0 
z
M 9.421875 75.984375 
L 18.40625 75.984375 
L 18.40625 64.59375 
L 9.421875 64.59375 
z
" id="DejaVuSans-105"/>
       <path d="M 44.28125 53.078125 
L 44.28125 44.578125 
Q 40.484375 46.53125 36.375 47.5 
Q 32.28125 48.484375 27.875 48.484375 
Q 21.1875 48.484375 17.84375 46.4375 
Q 14.5 44.390625 14.5 40.28125 
Q 14.5 37.15625 16.890625 35.375 
Q 19.28125 33.59375 26.515625 31.984375 
L 29.59375 31.296875 
Q 39.15625 29.25 43.1875 25.515625 
Q 47.21875 21.78125 47.21875 15.09375 
Q 47.21875 7.46875 41.1875 3.015625 
Q 35.15625 -1.421875 24.609375 -1.421875 
Q 20.21875 -1.421875 15.453125 -0.5625 
Q 10.6875 0.296875 5.421875 2 
L 5.421875 11.28125 
Q 10.40625 8.6875 15.234375 7.390625 
Q 20.0625 6.109375 24.8125 6.109375 
Q 31.15625 6.109375 34.5625 8.28125 
Q 37.984375 10.453125 37.984375 14.40625 
Q 37.984375 18.0625 35.515625 20.015625 
Q 33.0625 21.96875 24.703125 23.78125 
L 21.578125 24.515625 
Q 13.234375 26.265625 9.515625 29.90625 
Q 5.8125 33.546875 5.8125 39.890625 
Q 5.8125 47.609375 11.28125 51.796875 
Q 16.75 56 26.8125 56 
Q 31.78125 56 36.171875 55.265625 
Q 40.578125 54.546875 44.28125 53.078125 
z
" id="DejaVuSans-115"/>
       <path d="M 31 75.875 
Q 24.46875 64.65625 21.28125 53.65625 
Q 18.109375 42.671875 18.109375 31.390625 
Q 18.109375 20.125 21.3125 9.0625 
Q 24.515625 -2 31 -13.1875 
L 23.1875 -13.1875 
Q 15.875 -1.703125 12.234375 9.375 
Q 8.59375 20.453125 8.59375 31.390625 
Q 8.59375 42.28125 12.203125 53.3125 
Q 15.828125 64.359375 23.1875 75.875 
z
" id="DejaVuSans-40"/>
       <path d="M 41.609375 79.390625 
Q 41.609375 82.46875 39.421875 84.640625 
Q 37.25 86.8125 34.1875 86.8125 
Q 31.0625 86.8125 28.9375 84.6875 
Q 26.8125 82.5625 26.8125 79.390625 
Q 26.8125 76.3125 28.953125 74.15625 
Q 31.109375 72.015625 34.1875 72.015625 
Q 37.25 72.015625 39.421875 74.15625 
Q 41.609375 76.3125 41.609375 79.390625 
z
M 34.1875 63.1875 
L 20.90625 26.90625 
L 47.515625 26.90625 
z
M 26.8125 68.21875 
Q 23.828125 70.21875 22.3125 73.015625 
Q 20.796875 75.828125 20.796875 79.390625 
Q 20.796875 85.015625 24.671875 88.921875 
Q 28.5625 92.828125 34.1875 92.828125 
Q 39.75 92.828125 43.671875 88.890625 
Q 47.609375 84.96875 47.609375 79.390625 
Q 47.609375 75.984375 46.0625 73.09375 
Q 44.53125 70.21875 41.609375 68.21875 
L 67.578125 0 
L 57.328125 0 
L 50.6875 18.703125 
L 17.828125 18.703125 
L 11.1875 0 
L 0.78125 0 
z
" id="DejaVuSans-197"/>
       <path d="M 8.015625 75.875 
L 15.828125 75.875 
Q 23.140625 64.359375 26.78125 53.3125 
Q 30.421875 42.28125 30.421875 31.390625 
Q 30.421875 20.453125 26.78125 9.375 
Q 23.140625 -1.703125 15.828125 -13.1875 
L 8.015625 -13.1875 
Q 14.5 -2 17.703125 9.0625 
Q 20.90625 20.125 20.90625 31.390625 
Q 20.90625 42.671875 17.703125 53.65625 
Q 14.5 64.65625 8.015625 75.875 
z
" id="DejaVuSans-41"/>
      </defs>
      <use transform="translate(0 0.171875)" xlink:href="#DejaVuSans-73"/>
      <use transform="translate(29.492188 0.171875)" xlink:href="#DejaVuSans-110"/>
      <use transform="translate(92.871094 0.171875)" xlink:href="#DejaVuSans-116"/>
      <use transform="translate(132.080078 0.171875)" xlink:href="#DejaVuSans-101"/>
      <use transform="translate(193.603516 0.171875)" xlink:href="#DejaVuSans-114"/>
      <use transform="translate(234.716797 0.171875)" xlink:href="#DejaVuSans-110"/>
      <use transform="translate(298.095703 0.171875)" xlink:href="#DejaVuSans-117"/>
      <use transform="translate(361.474609 0.171875)" xlink:href="#DejaVuSans-99"/>
      <use transform="translate(416.455078 0.171875)" xlink:href="#DejaVuSans-108"/>
      <use transform="translate(444.238281 0.171875)" xlink:href="#DejaVuSans-101"/>
      <use transform="translate(505.761719 0.171875)" xlink:href="#DejaVuSans-97"/>
      <use transform="translate(567.041016 0.171875)" xlink:href="#DejaVuSans-114"/>
      <use transform="translate(608.154297 0.171875)" xlink:href="#DejaVuSans-32"/>
      <use transform="translate(639.941406 0.171875)" xlink:href="#DejaVuSans-68"/>
      <use transform="translate(716.943359 0.171875)" xlink:href="#DejaVuSans-105"/>
      <use transform="translate(744.726562 0.171875)" xlink:href="#DejaVuSans-115"/>
      <use transform="translate(796.826172 0.171875)" xlink:href="#DejaVuSans-116"/>
      <use transform="translate(836.035156 0.171875)" xlink:href="#DejaVuSans-97"/>
      <use transform="translate(897.314453 0.171875)" xlink:href="#DejaVuSans-110"/>
      <use transform="translate(960.693359 0.171875)" xlink:href="#DejaVuSans-99"/>
      <use transform="translate(1015.673828 0.171875)" xlink:href="#DejaVuSans-101"/>
      <use transform="translate(1077.197266 0.171875)" xlink:href="#DejaVuSans-32"/>
      <use transform="translate(1108.984375 0.171875)" xlink:href="#DejaVuSans-40"/>
      <use transform="translate(1147.998047 0.171875)" xlink:href="#DejaVuSans-197"/>
      <use transform="translate(1216.40625 0.171875)" xlink:href="#DejaVuSans-41"/>
     </g>
    </g>
   </g>
   <g id="matplotlib.axis_2">
    <g id="ytick_1">
     <g id="line2d_8">
      <defs>
       <path d="M 0 0 
L -3.5 0 
" id="mc3ce260a5b" style="stroke:#000000;stroke-width:0.8;"/>
      </defs>
      <g>
       <use style="stroke:#000000;stroke-width:0.8;" x="78.757031" xlink:href="#mc3ce260a5b" y="285.408"/>
      </g>
     </g>
     <g id="text_9">
      <!-- −100 -->
      <g transform="translate(30.55625 291.106828)scale(0.15 -0.15)">
       <defs>
        <path d="M 10.59375 35.5 
L 73.1875 35.5 
L 73.1875 27.203125 
L 10.59375 27.203125 
z
" id="DejaVuSans-8722"/>
        <path d="M 12.40625 8.296875 
L 28.515625 8.296875 
L 28.515625 63.921875 
L 10.984375 60.40625 
L 10.984375 69.390625 
L 28.421875 72.90625 
L 38.28125 72.90625 
L 38.28125 8.296875 
L 54.390625 8.296875 
L 54.390625 0 
L 12.40625 0 
z
" id="DejaVuSans-49"/>
        <path d="M 31.78125 66.40625 
Q 24.171875 66.40625 20.328125 58.90625 
Q 16.5 51.421875 16.5 36.375 
Q 16.5 21.390625 20.328125 13.890625 
Q 24.171875 6.390625 31.78125 6.390625 
Q 39.453125 6.390625 43.28125 13.890625 
Q 47.125 21.390625 47.125 36.375 
Q 47.125 51.421875 43.28125 58.90625 
Q 39.453125 66.40625 31.78125 66.40625 
z
M 31.78125 74.21875 
Q 44.046875 74.21875 50.515625 64.515625 
Q 56.984375 54.828125 56.984375 36.375 
Q 56.984375 17.96875 50.515625 8.265625 
Q 44.046875 -1.421875 31.78125 -1.421875 
Q 19.53125 -1.421875 13.0625 8.265625 
Q 6.59375 17.96875 6.59375 36.375 
Q 6.59375 54.828125 13.0625 64.515625 
Q 19.53125 74.21875 31.78125 74.21875 
z
" id="DejaVuSans-48"/>
       </defs>
       <use xlink:href="#DejaVuSans-8722"/>
       <use x="83.789062" xlink:href="#DejaVuSans-49"/>
       <use x="147.412109" xlink:href="#DejaVuSans-48"/>
       <use x="211.035156" xlink:href="#DejaVuSans-48"/>
      </g>
     </g>
    </g>
    <g id="ytick_2">
     <g id="line2d_9">
      <g>
       <use style="stroke:#000000;stroke-width:0.8;" x="78.757031" xlink:href="#mc3ce260a5b" y="245.088"/>
      </g>
     </g>
     <g id="text_10">
      <!-- 0 -->
      <g transform="translate(62.213281 250.786828)scale(0.15 -0.15)">
       <use xlink:href="#DejaVuSans-48"/>
      </g>
     </g>
    </g>
    <g id="ytick_3">
     <g id="line2d_10">
      <g>
       <use style="stroke:#000000;stroke-width:0.8;" x="78.757031" xlink:href="#mc3ce260a5b" y="204.768"/>
      </g>
     </g>
     <g id="text_11">
      <!-- 100 -->
      <g transform="translate(43.125781 210.466828)scale(0.15 -0.15)">
       <use xlink:href="#DejaVuSans-49"/>
       <use x="63.623047" xlink:href="#DejaVuSans-48"/>
       <use x="127.246094" xlink:href="#DejaVuSans-48"/>
      </g>
     </g>
    </g>
    <g id="ytick_4">
     <g id="line2d_11">
      <g>
       <use style="stroke:#000000;stroke-width:0.8;" x="78.757031" xlink:href="#mc3ce260a5b" y="164.448"/>
      </g>
     </g>
     <g id="text_12">
      <!-- 200 -->
      <g transform="translate(43.125781 170.146828)scale(0.15 -0.15)">
       <defs>
        <path d="M 19.1875 8.296875 
L 53.609375 8.296875 
L 53.609375 0 
L 7.328125 0 
L 7.328125 8.296875 
Q 12.9375 14.109375 22.625 23.890625 
Q 32.328125 33.6875 34.8125 36.53125 
Q 39.546875 41.84375 41.421875 45.53125 
Q 43.3125 49.21875 43.3125 52.78125 
Q 43.3125 58.59375 39.234375 62.25 
Q 35.15625 65.921875 28.609375 65.921875 
Q 23.96875 65.921875 18.8125 64.3125 
Q 13.671875 62.703125 7.8125 59.421875 
L 7.8125 69.390625 
Q 13.765625 71.78125 18.9375 73 
Q 24.125 74.21875 28.421875 74.21875 
Q 39.75 74.21875 46.484375 68.546875 
Q 53.21875 62.890625 53.21875 53.421875 
Q 53.21875 48.921875 51.53125 44.890625 
Q 49.859375 40.875 45.40625 35.40625 
Q 44.1875 33.984375 37.640625 27.21875 
Q 31.109375 20.453125 19.1875 8.296875 
z
" id="DejaVuSans-50"/>
       </defs>
       <use xlink:href="#DejaVuSans-50"/>
       <use x="63.623047" xlink:href="#DejaVuSans-48"/>
       <use x="127.246094" xlink:href="#DejaVuSans-48"/>
      </g>
     </g>
    </g>
    <g id="ytick_5">
     <g id="line2d_12">
      <g>
       <use style="stroke:#000000;stroke-width:0.8;" x="78.757031" xlink:href="#mc3ce260a5b" y="124.128"/>
      </g>
     </g>
     <g id="text_13">
      <!-- 300 -->
      <g transform="translate(43.125781 129.826828)scale(0.15 -0.15)">
       <use xlink:href="#DejaVuSans-51"/>
       <use x="63.623047" xlink:href="#DejaVuSans-48"/>
       <use x="127.246094" xlink:href="#DejaVuSans-48"/>
      </g>
     </g>
    </g>
    <g id="ytick_6">
     <g id="line2d_13">
      <g>
       <use style="stroke:#000000;stroke-width:0.8;" x="78.757031" xlink:href="#mc3ce260a5b" y="83.808"/>
      </g>
     </g>
     <g id="text_14">
      <!-- 400 -->
      <g transform="translate(43.125781 89.506828)scale(0.15 -0.15)">
       <use xlink:href="#DejaVuSans-52"/>
       <use x="63.623047" xlink:href="#DejaVuSans-48"/>
       <use x="127.246094" xlink:href="#DejaVuSans-48"/>
      </g>
     </g>
    </g>
    <g id="ytick_7">
     <g id="line2d_14">
      <g>
       <use style="stroke:#000000;stroke-width:0.8;" x="78.757031" xlink:href="#mc3ce260a5b" y="43.488"/>
      </g>
     </g>
     <g id="text_15">
      <!-- 500 -->
      <g transform="translate(43.125781 49.186828)scale(0.15 -0.15)">
       <use xlink:href="#DejaVuSans-53"/>
       <use x="63.623047" xlink:href="#DejaVuSans-48"/>
       <use x="127.246094" xlink:href="#DejaVuSans-48"/>
      </g>
     </g>
    </g>
    <g id="text_16">
     <!-- Energy (THz) -->
     <g transform="translate(22.396875 227.302312)rotate(-90)scale(0.2 -0.2)">
      <defs>
       <path d="M 9.8125 72.90625 
L 55.90625 72.90625 
L 55.90625 64.59375 
L 19.671875 64.59375 
L 19.671875 43.015625 
L 54.390625 43.015625 
L 54.390625 34.71875 
L 19.671875 34.71875 
L 19.671875 8.296875 
L 56.78125 8.296875 
L 56.78125 0 
L 9.8125 0 
z
" id="DejaVuSans-69"/>
       <path d="M 45.40625 27.984375 
Q 45.40625 37.75 41.375 43.109375 
Q 37.359375 48.484375 30.078125 48.484375 
Q 22.859375 48.484375 18.828125 43.109375 
Q 14.796875 37.75 14.796875 27.984375 
Q 14.796875 18.265625 18.828125 12.890625 
Q 22.859375 7.515625 30.078125 7.515625 
Q 37.359375 7.515625 41.375 12.890625 
Q 45.40625 18.265625 45.40625 27.984375 
z
M 54.390625 6.78125 
Q 54.390625 -7.171875 48.1875 -13.984375 
Q 42 -20.796875 29.203125 -20.796875 
Q 24.46875 -20.796875 20.265625 -20.09375 
Q 16.0625 -19.390625 12.109375 -17.921875 
L 12.109375 -9.1875 
Q 16.0625 -11.328125 19.921875 -12.34375 
Q 23.78125 -13.375 27.78125 -13.375 
Q 36.625 -13.375 41.015625 -8.765625 
Q 45.40625 -4.15625 45.40625 5.171875 
L 45.40625 9.625 
Q 42.625 4.78125 38.28125 2.390625 
Q 33.9375 0 27.875 0 
Q 17.828125 0 11.671875 7.65625 
Q 5.515625 15.328125 5.515625 27.984375 
Q 5.515625 40.671875 11.671875 48.328125 
Q 17.828125 56 27.875 56 
Q 33.9375 56 38.28125 53.609375 
Q 42.625 51.21875 45.40625 46.390625 
L 45.40625 54.6875 
L 54.390625 54.6875 
z
" id="DejaVuSans-103"/>
       <path d="M 32.171875 -5.078125 
Q 28.375 -14.84375 24.75 -17.8125 
Q 21.140625 -20.796875 15.09375 -20.796875 
L 7.90625 -20.796875 
L 7.90625 -13.28125 
L 13.1875 -13.28125 
Q 16.890625 -13.28125 18.9375 -11.515625 
Q 21 -9.765625 23.484375 -3.21875 
L 25.09375 0.875 
L 2.984375 54.6875 
L 12.5 54.6875 
L 29.59375 11.921875 
L 46.6875 54.6875 
L 56.203125 54.6875 
z
" id="DejaVuSans-121"/>
       <path d="M -0.296875 72.90625 
L 61.375 72.90625 
L 61.375 64.59375 
L 35.5 64.59375 
L 35.5 0 
L 25.59375 0 
L 25.59375 64.59375 
L -0.296875 64.59375 
z
" id="DejaVuSans-84"/>
       <path d="M 9.8125 72.90625 
L 19.671875 72.90625 
L 19.671875 43.015625 
L 55.515625 43.015625 
L 55.515625 72.90625 
L 65.375 72.90625 
L 65.375 0 
L 55.515625 0 
L 55.515625 34.71875 
L 19.671875 34.71875 
L 19.671875 0 
L 9.8125 0 
z
" id="DejaVuSans-72"/>
       <path d="M 5.515625 54.6875 
L 48.1875 54.6875 
L 48.1875 46.484375 
L 14.40625 7.171875 
L 48.1875 7.171875 
L 48.1875 0 
L 4.296875 0 
L 4.296875 8.203125 
L 38.09375 47.515625 
L 5.515625 47.515625 
z
" id="DejaVuSans-122"/>
      </defs>
      <use xlink:href="#DejaVuSans-69"/>
      <use x="63.183594" xlink:href="#DejaVuSans-110"/>
      <use x="126.5625" xlink:href="#DejaVuSans-101"/>
      <use x="188.085938" xlink:href="#DejaVuSans-114"/>
      <use x="227.449219" xlink:href="#DejaVuSans-103"/>
      <use x="290.925781" xlink:href="#DejaVuSans-121"/>
      <use x="350.105469" xlink:href="#DejaVuSans-32"/>
      <use x="381.892578" xlink:href="#DejaVuSans-40"/>
      <use x="420.90625" xlink:href="#DejaVuSans-84"/>
      <use x="481.990234" xlink:href="#DejaVuSans-72"/>
      <use x="557.185547" xlink:href="#DejaVuSans-122"/>
      <use x="609.675781" xlink:href="#DejaVuSans-41"/>
     </g>
    </g>
   </g>
   <g id="line2d_15">
    <path clip-path="url(#pa9a29d472b)" d="M 78.757031 245.088 
L 435.877031 245.088 
" style="fill:none;stroke:#808080;stroke-dasharray:5.55,2.4;stroke-dashoffset:0;stroke-width:1.5;"/>
   </g>
   <g id="line2d_16">
    <path clip-path="url(#pa9a29d472b)" d="M 78.612253 175.505509 
L 81.314783 189.405847 
L 84.017312 202.138274 
L 86.719842 213.82292 
L 89.422372 224.565384 
L 92.124902 234.45875 
L 94.827431 243.585279 
L 97.192145 250.956647 
L 99.556858 257.536598 
L 101.921572 263.550211 
L 104.286285 269.020501 
L 106.650999 273.98382 
L 109.015712 278.473498 
L 111.380426 282.520045 
L 113.745139 286.150201 
L 116.109853 289.387665 
L 118.474566 292.255008 
L 120.83928 294.774164 
L 123.203993 296.966052 
L 125.568707 298.850403 
L 127.93342 300.445976 
L 130.298134 301.770822 
L 132.662847 302.842404 
L 135.027561 303.677584 
L 137.392274 304.292579 
L 140.094804 304.745717 
L 142.797334 304.95367 
L 145.499864 304.937481 
L 148.54021 304.676203 
L 151.580556 304.183431 
L 154.958718 303.395082 
L 158.33688 302.384414 
L 162.052858 301.051539 
L 166.444469 299.226035 
L 171.173896 297.016355 
L 176.916772 294.079065 
L 184.348729 290.010116 
L 211.374026 274.974136 
L 218.805983 271.229282 
L 225.562307 268.074299 
L 231.980815 265.319007 
L 238.399323 262.809321 
L 244.817831 260.54648 
L 251.236339 258.524861 
L 257.654847 256.733524 
L 264.411172 255.080409 
L 271.505312 253.579567 
L 278.937269 252.238496 
L 287.044858 251.011732 
L 295.82808 249.920159 
L 305.286934 248.973916 
L 315.759237 248.149897 
L 327.92062 247.422217 
L 342.108902 246.804462 
L 359.337529 246.288348 
L 380.957766 245.875351 
L 410.009961 245.557215 
L 436.02181 245.396349 
L 436.02181 245.396349 
" style="fill:none;stroke:#1f77b4;stroke-linecap:square;stroke-width:1.5;"/>
   </g>
   <g id="line2d_17">
    <path clip-path="url(#pa9a29d472b)" d="M 78.612253 138.661827 
L 81.314783 146.659854 
L 84.017312 153.985885 
L 86.719842 160.709039 
L 89.422372 166.890078 
L 92.462718 173.262186 
L 95.503064 179.082709 
L 98.54341 184.41006 
L 101.583756 189.295385 
L 104.624102 193.783596 
L 108.002264 198.35268 
L 111.380426 202.527794 
L 114.758588 206.350503 
L 118.13675 209.857215 
L 121.852729 213.387686 
L 125.568707 216.611717 
L 129.622502 219.817475 
L 133.676296 222.733964 
L 138.067907 225.603964 
L 142.459518 228.206977 
L 147.188945 230.746346 
L 152.256188 233.199495 
L 157.323431 235.409373 
L 162.728491 237.531508 
L 168.471366 239.553664 
L 174.552058 241.467267 
L 181.308383 243.356036 
L 188.402523 245.107886 
L 190.091604 245.407934 
L 195.496664 246.039923 
L 202.92862 246.726414 
L 210.698393 247.207104 
L 219.819431 247.537815 
L 230.62955 247.699264 
L 244.480015 247.670837 
L 264.748988 247.38355 
L 351.567756 245.933397 
L 394.470415 245.562443 
L 436.02181 245.36111 
L 436.02181 245.36111 
" style="fill:none;stroke:#ff7f0e;stroke-linecap:square;stroke-width:1.5;"/>
   </g>
   <g id="line2d_18">
    <path clip-path="url(#pa9a29d472b)" d="M 81.193564 -1 
L 83.34168 12.467765 
L 85.706393 26.037939 
L 88.071107 38.444587 
L 90.773637 51.367784 
L 93.476166 63.111707 
L 96.178696 73.817554 
L 98.881226 83.603637 
L 101.583756 92.569023 
L 104.286285 100.796733 
L 106.988815 108.356549 
L 109.691345 115.307434 
L 112.393874 121.699604 
L 115.096404 127.576273 
L 117.798934 132.975103 
L 120.501464 137.929377 
L 123.203993 142.46894 
L 125.906523 146.62093 
L 128.609053 150.410326 
L 131.311583 153.860369 
L 134.351929 157.363115 
L 137.392274 160.49307 
L 140.43262 163.277647 
L 143.472966 165.742669 
L 146.513312 167.912463 
L 149.553658 169.809923 
L 152.594004 171.456551 
L 155.972166 173.01641 
L 159.350329 174.317163 
L 162.728491 175.382575 
L 166.444469 176.308761 
L 170.160447 177.003176 
L 174.214242 177.524526 
L 178.268037 177.826427 
L 182.659647 177.934294 
L 187.389074 177.825793 
L 192.456318 177.482958 
L 197.861377 176.891384 
L 203.604253 176.039139 
L 209.684945 174.915641 
L 216.103453 173.510821 
L 223.197593 171.724687 
L 230.62955 169.618383 
L 238.399323 167.187851 
L 246.844729 164.31551 
L 256.303583 160.861632 
L 267.451518 156.548 
L 283.32888 150.139383 
L 310.354177 139.221989 
L 322.853377 134.431676 
L 333.663496 130.518918 
L 343.797983 127.087856 
L 353.256837 124.120147 
L 362.377874 121.490929 
L 371.161096 119.185391 
L 379.944318 117.106779 
L 388.727539 115.254833 
L 397.510761 113.624461 
L 406.631799 112.155759 
L 416.090653 110.858557 
L 425.887323 109.73644 
L 436.02181 108.78669 
L 436.02181 108.78669 
" style="fill:none;stroke:#2ca02c;stroke-linecap:square;stroke-width:1.5;"/>
   </g>
   <g id="line2d_19">
    <path clip-path="url(#pa9a29d472b)" d="M 78.612253 88.901841 
L 85.030761 108.821252 
L 88.746739 119.623576 
L 92.124902 128.727635 
L 95.165247 136.256585 
L 97.867777 142.392029 
L 100.570307 147.996705 
L 103.272837 153.076299 
L 105.975366 157.644784 
L 108.34008 161.23827 
L 110.704793 164.470881 
L 113.069507 167.35936 
L 115.43422 169.921091 
L 117.798934 172.173627 
L 120.163647 174.134345 
L 122.528361 175.820208 
L 124.893074 177.247601 
L 127.257788 178.43224 
L 129.622502 179.389121 
L 131.987215 180.132508 
L 134.689745 180.738013 
L 137.392274 181.101443 
L 140.094804 181.240799 
L 142.797334 181.173051 
L 145.83768 180.869203 
L 148.878026 180.34502 
L 152.256188 179.528779 
L 155.63435 178.491642 
L 159.350329 177.124901 
L 163.404123 175.398805 
L 167.795734 173.293644 
L 172.862977 170.615814 
L 178.943669 167.132351 
L 186.375626 162.604184 
L 200.901723 153.41784 
L 211.711842 146.714985 
L 219.819431 141.946414 
L 226.913572 138.027065 
L 233.669896 134.549997 
L 240.088404 131.496864 
L 246.506912 128.696565 
L 252.92542 126.150724 
L 259.343929 123.854835 
L 265.762437 121.799494 
L 272.180945 119.971613 
L 278.937269 118.276063 
L 286.03141 116.726438 
L 293.463366 115.33072 
L 301.570956 114.042168 
L 310.016361 112.924202 
L 319.475215 111.901146 
L 329.947518 111.000302 
L 341.771085 110.215636 
L 355.283734 109.549342 
L 371.161096 108.994931 
L 390.754437 108.542717 
L 416.090653 108.194067 
L 436.02181 108.031705 
L 436.02181 108.031705 
" style="fill:none;stroke:#d62728;stroke-linecap:square;stroke-width:1.5;"/>
   </g>
   <g id="line2d_20">
    <path clip-path="url(#pa9a29d472b)" d="M 124.481656 -1 
L 125.568707 13.13336 
L 126.919972 28.296983 
L 128.271237 41.120944 
L 129.622502 51.930732 
L 130.973766 61.051838 
L 132.325031 68.809752 
L 134.014112 77.086019 
L 136.04101 85.772377 
L 139.419172 99.217482 
L 140.770437 103.834203 
L 141.783885 106.746436 
L 142.797334 109.119433 
L 143.810783 111.015748 
L 144.824231 112.509818 
L 145.83768 113.676082 
L 147.188945 114.845648 
L 148.54021 115.679671 
L 149.891474 116.260682 
L 151.918372 116.836765 
L 158.33688 118.212505 
L 161.715042 118.737769 
L 165.093204 119.040067 
L 169.146999 119.17793 
L 174.552058 119.132471 
L 180.294934 118.871996 
L 186.713442 118.356402 
L 195.83448 117.377662 
L 230.62955 113.462997 
L 251.574156 111.438336 
L 270.491864 109.820992 
L 287.382674 108.6052 
L 304.273485 107.615073 
L 322.177745 106.783797 
L 340.757637 106.15411 
L 378.593053 105.158568 
L 405.61835 104.658865 
L 436.02181 104.262599 
L 436.02181 104.262599 
" style="fill:none;stroke:#9467bd;stroke-linecap:square;stroke-width:1.5;"/>
   </g>
   <g id="line2d_21">
    <path clip-path="url(#pa9a29d472b)" d="M 82.779514 -1 
L 85.030761 9.578318 
L 87.395474 19.630641 
L 89.760188 28.736008 
L 92.124902 37.03188 
L 94.827431 45.6921 
L 97.529961 53.575857 
L 100.232491 60.717413 
L 102.597204 66.382801 
L 105.299734 72.237634 
L 108.34008 78.218634 
L 112.393874 85.632203 
L 117.123302 93.918686 
L 119.825831 98.221681 
L 121.852729 101.088416 
L 123.879626 103.564419 
L 125.906523 105.662014 
L 127.93342 107.428041 
L 129.960318 108.909439 
L 132.325031 110.34069 
L 135.027561 111.694882 
L 142.121702 115.092196 
L 145.162047 116.945786 
L 151.918372 121.168496 
L 154.958718 122.70974 
L 158.33688 124.155021 
L 162.390674 125.64092 
L 166.444469 126.901742 
L 169.822631 127.723051 
L 172.862977 128.245848 
L 176.578956 128.647737 
L 181.646199 128.941553 
L 187.051258 129.048074 
L 191.442869 128.921543 
L 196.847929 128.51337 
L 206.982415 127.46153 
L 216.103453 126.302314 
L 225.900123 124.821191 
L 237.048058 122.901174 
L 250.222891 120.415795 
L 262.046458 117.952104 
L 289.747388 112.05418 
L 296.503712 111.045778 
L 304.611302 110.063303 
L 314.070156 109.145245 
L 326.569356 108.163647 
L 344.135799 107.0477 
L 359.675345 106.25897 
L 385.011561 105.229535 
L 405.61835 104.684312 
L 431.630199 104.240433 
L 436.02181 104.180395 
L 436.02181 104.180395 
" style="fill:none;stroke:#8c564b;stroke-linecap:square;stroke-width:1.5;"/>
   </g>
   <g id="patch_3">
    <path d="M 78.757031 317.664 
L 78.757031 7.2 
" style="fill:none;stroke:#000000;stroke-linecap:square;stroke-linejoin:miter;stroke-width:0.8;"/>
   </g>
   <g id="patch_4">
    <path d="M 78.757031 317.664 
L 435.877031 317.664 
" style="fill:none;stroke:#000000;stroke-linecap:square;stroke-linejoin:miter;stroke-width:0.8;"/>
   </g>
   <g id="text_17">
    <!-- $\mathrm{X^1\Sigma}$ -->
    <g style="fill:#1f77b4;" transform="translate(199.40568 297.504)scale(0.15 -0.15)">
     <defs>
      <path d="M 6.296875 72.90625 
L 16.890625 72.90625 
L 35.015625 45.796875 
L 53.21875 72.90625 
L 63.8125 72.90625 
L 40.375 37.890625 
L 65.375 0 
L 54.78125 0 
L 34.28125 31 
L 13.625 0 
L 2.984375 0 
L 29 38.921875 
z
" id="DejaVuSans-88"/>
      <path d="M 21.140625 8.296875 
L 56.78125 8.296875 
L 56.78125 0 
L 9.8125 0 
L 9.8125 8.296875 
L 33.203125 38.765625 
L 9.8125 64.59375 
L 9.8125 72.90625 
L 55.90625 72.90625 
L 55.90625 64.59375 
L 21.140625 64.59375 
L 44.53125 38.96875 
z
" id="DejaVuSans-931"/>
     </defs>
     <use transform="translate(0 0.684375)" xlink:href="#DejaVuSans-88"/>
     <use transform="translate(69.462891 38.965625)scale(0.7)" xlink:href="#DejaVuSans-49"/>
     <use transform="translate(116.733398 0.684375)" xlink:href="#DejaVuSans-931"/>
    </g>
   </g>
   <g id="text_18">
    <!-- $\mathrm{a^3\Sigma}$ -->
    <g style="fill:#ff7f0e;" transform="translate(175.27595 238.6368)scale(0.15 -0.15)">
     <use transform="translate(0 0.765625)" xlink:href="#DejaVuSans-97"/>
     <use transform="translate(62.236328 39.046875)scale(0.7)" xlink:href="#DejaVuSans-51"/>
     <use transform="translate(109.506836 0.765625)" xlink:href="#DejaVuSans-931"/>
    </g>
   </g>
   <g id="text_19">
    <!-- $\mathrm{A^1\Sigma}$ -->
    <g style="fill:#2ca02c;" transform="translate(293.511626 160.416)scale(0.15 -0.15)">
     <defs>
      <path d="M 34.1875 63.1875 
L 20.796875 26.90625 
L 47.609375 26.90625 
z
M 28.609375 72.90625 
L 39.796875 72.90625 
L 67.578125 0 
L 57.328125 0 
L 50.6875 18.703125 
L 17.828125 18.703125 
L 11.1875 0 
L 0.78125 0 
z
" id="DejaVuSans-65"/>
     </defs>
     <use transform="translate(0 0.684375)" xlink:href="#DejaVuSans-65"/>
     <use transform="translate(69.365234 38.965625)scale(0.7)" xlink:href="#DejaVuSans-49"/>
     <use transform="translate(116.635742 0.684375)" xlink:href="#DejaVuSans-931"/>
    </g>
   </g>
   <g id="text_20">
    <!-- $\mathrm{b^3\Pi}$ -->
    <g style="fill:#d62728;" transform="translate(257.317031 139.0464)scale(0.15 -0.15)">
     <defs>
      <path d="M 48.6875 27.296875 
Q 48.6875 37.203125 44.609375 42.84375 
Q 40.53125 48.484375 33.40625 48.484375 
Q 26.265625 48.484375 22.1875 42.84375 
Q 18.109375 37.203125 18.109375 27.296875 
Q 18.109375 17.390625 22.1875 11.75 
Q 26.265625 6.109375 33.40625 6.109375 
Q 40.53125 6.109375 44.609375 11.75 
Q 48.6875 17.390625 48.6875 27.296875 
z
M 18.109375 46.390625 
Q 20.953125 51.265625 25.265625 53.625 
Q 29.59375 56 35.59375 56 
Q 45.5625 56 51.78125 48.09375 
Q 58.015625 40.1875 58.015625 27.296875 
Q 58.015625 14.40625 51.78125 6.484375 
Q 45.5625 -1.421875 35.59375 -1.421875 
Q 29.59375 -1.421875 25.265625 0.953125 
Q 20.953125 3.328125 18.109375 8.203125 
L 18.109375 0 
L 9.078125 0 
L 9.078125 75.984375 
L 18.109375 75.984375 
z
" id="DejaVuSans-98"/>
      <path d="M 65.375 72.90625 
L 65.375 0 
L 55.515625 0 
L 55.515625 64.59375 
L 19.671875 64.59375 
L 19.671875 0 
L 9.8125 0 
L 9.8125 72.90625 
z
" id="DejaVuSans-928"/>
     </defs>
     <use transform="translate(0 0.765625)" xlink:href="#DejaVuSans-98"/>
     <use transform="translate(64.433594 39.046875)scale(0.7)" xlink:href="#DejaVuSans-51"/>
     <use transform="translate(111.704102 0.765625)" xlink:href="#DejaVuSans-928"/>
    </g>
   </g>
   <g id="text_21">
    <!-- $\mathrm{B^1\Pi}$ -->
    <g style="fill:#9467bd;" transform="translate(170.450004 114.048)scale(0.15 -0.15)">
     <defs>
      <path d="M 19.671875 34.8125 
L 19.671875 8.109375 
L 35.5 8.109375 
Q 43.453125 8.109375 47.28125 11.40625 
Q 51.125 14.703125 51.125 21.484375 
Q 51.125 28.328125 47.28125 31.5625 
Q 43.453125 34.8125 35.5 34.8125 
z
M 19.671875 64.796875 
L 19.671875 42.828125 
L 34.28125 42.828125 
Q 41.5 42.828125 45.03125 45.53125 
Q 48.578125 48.25 48.578125 53.8125 
Q 48.578125 59.328125 45.03125 62.0625 
Q 41.5 64.796875 34.28125 64.796875 
z
M 9.8125 72.90625 
L 35.015625 72.90625 
Q 46.296875 72.90625 52.390625 68.21875 
Q 58.5 63.53125 58.5 54.890625 
Q 58.5 48.1875 55.375 44.234375 
Q 52.25 40.28125 46.1875 39.3125 
Q 53.46875 37.75 57.5 32.78125 
Q 61.53125 27.828125 61.53125 20.40625 
Q 61.53125 10.640625 54.890625 5.3125 
Q 48.25 0 35.984375 0 
L 9.8125 0 
z
" id="DejaVuSans-66"/>
     </defs>
     <use transform="translate(0 0.684375)" xlink:href="#DejaVuSans-66"/>
     <use transform="translate(69.560547 38.965625)scale(0.7)" xlink:href="#DejaVuSans-49"/>
     <use transform="translate(116.831055 0.684375)" xlink:href="#DejaVuSans-928"/>
    </g>
   </g>
   <g id="text_22">
    <!-- $\mathrm{c^3\Sigma}$ -->
    <g style="fill:#8c564b;" transform="translate(146.320274 144.288)scale(0.15 -0.15)">
     <use transform="translate(0 0.765625)" xlink:href="#DejaVuSans-99"/>
     <use transform="translate(55.9375 39.046875)scale(0.7)" xlink:href="#DejaVuSans-51"/>
     <use transform="translate(103.208008 0.765625)" xlink:href="#DejaVuSans-931"/>
    </g>
   </g>
  </g>
 </g>
 <defs>
  <clipPath id="pa9a29d472b">
   <rect height="310.464" width="357.12" x="78.757031" y="7.2"/>
  </clipPath>
 </defs>
</svg>
