<?xml version="1.0" encoding="utf-8" standalone="no"?>
<!DOCTYPE svg PUBLIC "-//W3C//DTD SVG 1.1//EN"
  "http://www.w3.org/Graphics/SVG/1.1/DTD/svg11.dtd">
<!-- Created with matplotlib (https://matplotlib.org/) -->
<svg height="325.385437pt" version="1.1" viewBox="0 0 480.969856 325.385437" width="480.969856pt" xmlns="http://www.w3.org/2000/svg" xmlns:xlink="http://www.w3.org/1999/xlink">
 <defs>
  <style type="text/css">*{stroke-linecap:butt;stroke-linejoin:round;}</style>
 </defs>
 <g id="figure_1">
  <g id="patch_1">
   <path d="M 0 325.385437 
L 480.969856 325.385437 
L 480.969856 0 
L 0 0 
z
" style="fill:none;"/>
  </g>
  <g id="axes_1">
   <g id="patch_2">
    <path d="M 62.955006 273.312 
L 420.075006 273.312 
L 420.075006 7.2 
L 62.955006 7.2 
z
" style="fill:none;"/>
   </g>
   <g id="matplotlib.axis_1">
    <g id="xtick_1">
     <g id="line2d_1">
      <path clip-path="url(#pfe9ccd126f)" d="M 88.463578 273.312 
L 88.463578 7.2 
" style="fill:none;stroke:#b0b0b0;stroke-linecap:square;stroke-width:0.8;"/>
     </g>
     <g id="line2d_2">
      <defs>
       <path d="M 0 0 
L 0 3.5 
" id="m005f0a59be" style="stroke:#000000;stroke-width:0.8;"/>
      </defs>
      <g>
       <use style="stroke:#000000;stroke-width:0.8;" x="88.463578" xlink:href="#m005f0a59be" y="273.312"/>
      </g>
     </g>
     <g id="text_1">
      <!-- −30 -->
      <g transform="translate(72.635062 291.709656)scale(0.15 -0.15)">
       <defs>
        <path d="M 10.59375 35.5 
L 73.1875 35.5 
L 73.1875 27.203125 
L 10.59375 27.203125 
z
" id="DejaVuSans-8722"/>
        <path d="M 40.578125 39.3125 
Q 47.65625 37.796875 51.625 33 
Q 55.609375 28.21875 55.609375 21.1875 
Q 55.609375 10.40625 48.1875 4.484375 
Q 40.765625 -1.421875 27.09375 -1.421875 
Q 22.515625 -1.421875 17.65625 -0.515625 
Q 12.796875 0.390625 7.625 2.203125 
L 7.625 11.71875 
Q 11.71875 9.328125 16.59375 8.109375 
Q 21.484375 6.890625 26.8125 6.890625 
Q 36.078125 6.890625 40.9375 10.546875 
Q 45.796875 14.203125 45.796875 21.1875 
Q 45.796875 27.640625 41.28125 31.265625 
Q 36.765625 34.90625 28.71875 34.90625 
L 20.21875 34.90625 
L 20.21875 43.015625 
L 29.109375 43.015625 
Q 36.375 43.015625 40.234375 45.921875 
Q 44.09375 48.828125 44.09375 54.296875 
Q 44.09375 59.90625 40.109375 62.90625 
Q 36.140625 65.921875 28.71875 65.921875 
Q 24.65625 65.921875 20.015625 65.03125 
Q 15.375 64.15625 9.8125 62.3125 
L 9.8125 71.09375 
Q 15.4375 72.65625 20.34375 73.4375 
Q 25.25 74.21875 29.59375 74.21875 
Q 40.828125 74.21875 47.359375 69.109375 
Q 53.90625 64.015625 53.90625 55.328125 
Q 53.90625 49.265625 50.4375 45.09375 
Q 46.96875 40.921875 40.578125 39.3125 
z
" id="DejaVuSans-51"/>
        <path d="M 31.78125 66.40625 
Q 24.171875 66.40625 20.328125 58.90625 
Q 16.5 51.421875 16.5 36.375 
Q 16.5 21.390625 20.328125 13.890625 
Q 24.171875 6.390625 31.78125 6.390625 
Q 39.453125 6.390625 43.28125 13.890625 
Q 47.125 21.390625 47.125 36.375 
Q 47.125 51.421875 43.28125 58.90625 
Q 39.453125 66.40625 31.78125 66.40625 
z
M 31.78125 74.21875 
Q 44.046875 74.21875 50.515625 64.515625 
Q 56.984375 54.828125 56.984375 36.375 
Q 56.984375 17.96875 50.515625 8.265625 
Q 44.046875 -1.421875 31.78125 -1.421875 
Q 19.53125 -1.421875 13.0625 8.265625 
Q 6.59375 17.96875 6.59375 36.375 
Q 6.59375 54.828125 13.0625 64.515625 
Q 19.53125 74.21875 31.78125 74.21875 
z
" id="DejaVuSans-48"/>
       </defs>
       <use xlink:href="#DejaVuSans-8722"/>
       <use x="83.789062" xlink:href="#DejaVuSans-51"/>
       <use x="147.412109" xlink:href="#DejaVuSans-48"/>
      </g>
     </g>
    </g>
    <g id="xtick_2">
     <g id="line2d_3">
      <path clip-path="url(#pfe9ccd126f)" d="M 139.480721 273.312 
L 139.480721 7.2 
" style="fill:none;stroke:#b0b0b0;stroke-linecap:square;stroke-width:0.8;"/>
     </g>
     <g id="line2d_4">
      <g>
       <use style="stroke:#000000;stroke-width:0.8;" x="139.480721" xlink:href="#m005f0a59be" y="273.312"/>
      </g>
     </g>
     <g id="text_2">
      <!-- −20 -->
      <g transform="translate(123.652205 291.709656)scale(0.15 -0.15)">
       <defs>
        <path d="M 19.1875 8.296875 
L 53.609375 8.296875 
L 53.609375 0 
L 7.328125 0 
L 7.328125 8.296875 
Q 12.9375 14.109375 22.625 23.890625 
Q 32.328125 33.6875 34.8125 36.53125 
Q 39.546875 41.84375 41.421875 45.53125 
Q 43.3125 49.21875 43.3125 52.78125 
Q 43.3125 58.59375 39.234375 62.25 
Q 35.15625 65.921875 28.609375 65.921875 
Q 23.96875 65.921875 18.8125 64.3125 
Q 13.671875 62.703125 7.8125 59.421875 
L 7.8125 69.390625 
Q 13.765625 71.78125 18.9375 73 
Q 24.125 74.21875 28.421875 74.21875 
Q 39.75 74.21875 46.484375 68.546875 
Q 53.21875 62.890625 53.21875 53.421875 
Q 53.21875 48.921875 51.53125 44.890625 
Q 49.859375 40.875 45.40625 35.40625 
Q 44.1875 33.984375 37.640625 27.21875 
Q 31.109375 20.453125 19.1875 8.296875 
z
" id="DejaVuSans-50"/>
       </defs>
       <use xlink:href="#DejaVuSans-8722"/>
       <use x="83.789062" xlink:href="#DejaVuSans-50"/>
       <use x="147.412109" xlink:href="#DejaVuSans-48"/>
      </g>
     </g>
    </g>
    <g id="xtick_3">
     <g id="line2d_5">
      <path clip-path="url(#pfe9ccd126f)" d="M 190.497863 273.312 
L 190.497863 7.2 
" style="fill:none;stroke:#b0b0b0;stroke-linecap:square;stroke-width:0.8;"/>
     </g>
     <g id="line2d_6">
      <g>
       <use style="stroke:#000000;stroke-width:0.8;" x="190.497863" xlink:href="#m005f0a59be" y="273.312"/>
      </g>
     </g>
     <g id="text_3">
      <!-- −10 -->
      <g transform="translate(174.669348 291.709656)scale(0.15 -0.15)">
       <defs>
        <path d="M 12.40625 8.296875 
L 28.515625 8.296875 
L 28.515625 63.921875 
L 10.984375 60.40625 
L 10.984375 69.390625 
L 28.421875 72.90625 
L 38.28125 72.90625 
L 38.28125 8.296875 
L 54.390625 8.296875 
L 54.390625 0 
L 12.40625 0 
z
" id="DejaVuSans-49"/>
       </defs>
       <use xlink:href="#DejaVuSans-8722"/>
       <use x="83.789062" xlink:href="#DejaVuSans-49"/>
       <use x="147.412109" xlink:href="#DejaVuSans-48"/>
      </g>
     </g>
    </g>
    <g id="xtick_4">
     <g id="line2d_7">
      <path clip-path="url(#pfe9ccd126f)" d="M 241.515006 273.312 
L 241.515006 7.2 
" style="fill:none;stroke:#b0b0b0;stroke-linecap:square;stroke-width:0.8;"/>
     </g>
     <g id="line2d_8">
      <g>
       <use style="stroke:#000000;stroke-width:0.8;" x="241.515006" xlink:href="#m005f0a59be" y="273.312"/>
      </g>
     </g>
     <g id="text_4">
      <!-- 0 -->
      <g transform="translate(236.743131 291.709656)scale(0.15 -0.15)">
       <use xlink:href="#DejaVuSans-48"/>
      </g>
     </g>
    </g>
    <g id="xtick_5">
     <g id="line2d_9">
      <path clip-path="url(#pfe9ccd126f)" d="M 292.532149 273.312 
L 292.532149 7.2 
" style="fill:none;stroke:#b0b0b0;stroke-linecap:square;stroke-width:0.8;"/>
     </g>
     <g id="line2d_10">
      <g>
       <use style="stroke:#000000;stroke-width:0.8;" x="292.532149" xlink:href="#m005f0a59be" y="273.312"/>
      </g>
     </g>
     <g id="text_5">
      <!-- 10 -->
      <g transform="translate(282.988399 291.709656)scale(0.15 -0.15)">
       <use xlink:href="#DejaVuSans-49"/>
       <use x="63.623047" xlink:href="#DejaVuSans-48"/>
      </g>
     </g>
    </g>
    <g id="xtick_6">
     <g id="line2d_11">
      <path clip-path="url(#pfe9ccd126f)" d="M 343.549292 273.312 
L 343.549292 7.2 
" style="fill:none;stroke:#b0b0b0;stroke-linecap:square;stroke-width:0.8;"/>
     </g>
     <g id="line2d_12">
      <g>
       <use style="stroke:#000000;stroke-width:0.8;" x="343.549292" xlink:href="#m005f0a59be" y="273.312"/>
      </g>
     </g>
     <g id="text_6">
      <!-- 20 -->
      <g transform="translate(334.005542 291.709656)scale(0.15 -0.15)">
       <use xlink:href="#DejaVuSans-50"/>
       <use x="63.623047" xlink:href="#DejaVuSans-48"/>
      </g>
     </g>
    </g>
    <g id="xtick_7">
     <g id="line2d_13">
      <path clip-path="url(#pfe9ccd126f)" d="M 394.566435 273.312 
L 394.566435 7.2 
" style="fill:none;stroke:#b0b0b0;stroke-linecap:square;stroke-width:0.8;"/>
     </g>
     <g id="line2d_14">
      <g>
       <use style="stroke:#000000;stroke-width:0.8;" x="394.566435" xlink:href="#m005f0a59be" y="273.312"/>
      </g>
     </g>
     <g id="text_7">
      <!-- 30 -->
      <g transform="translate(385.022685 291.709656)scale(0.15 -0.15)">
       <use xlink:href="#DejaVuSans-51"/>
       <use x="63.623047" xlink:href="#DejaVuSans-48"/>
      </g>
     </g>
    </g>
    <g id="text_8">
     <!-- One-Photon Detuning (GHz) -->
     <g transform="translate(102.093131 314.026062)scale(0.2 -0.2)">
      <defs>
       <path d="M 39.40625 66.21875 
Q 28.65625 66.21875 22.328125 58.203125 
Q 16.015625 50.203125 16.015625 36.375 
Q 16.015625 22.609375 22.328125 14.59375 
Q 28.65625 6.59375 39.40625 6.59375 
Q 50.140625 6.59375 56.421875 14.59375 
Q 62.703125 22.609375 62.703125 36.375 
Q 62.703125 50.203125 56.421875 58.203125 
Q 50.140625 66.21875 39.40625 66.21875 
z
M 39.40625 74.21875 
Q 54.734375 74.21875 63.90625 63.9375 
Q 73.09375 53.65625 73.09375 36.375 
Q 73.09375 19.140625 63.90625 8.859375 
Q 54.734375 -1.421875 39.40625 -1.421875 
Q 24.03125 -1.421875 14.8125 8.828125 
Q 5.609375 19.09375 5.609375 36.375 
Q 5.609375 53.65625 14.8125 63.9375 
Q 24.03125 74.21875 39.40625 74.21875 
z
" id="DejaVuSans-79"/>
       <path d="M 54.890625 33.015625 
L 54.890625 0 
L 45.90625 0 
L 45.90625 32.71875 
Q 45.90625 40.484375 42.875 44.328125 
Q 39.84375 48.1875 33.796875 48.1875 
Q 26.515625 48.1875 22.3125 43.546875 
Q 18.109375 38.921875 18.109375 30.90625 
L 18.109375 0 
L 9.078125 0 
L 9.078125 54.6875 
L 18.109375 54.6875 
L 18.109375 46.1875 
Q 21.34375 51.125 25.703125 53.5625 
Q 30.078125 56 35.796875 56 
Q 45.21875 56 50.046875 50.171875 
Q 54.890625 44.34375 54.890625 33.015625 
z
" id="DejaVuSans-110"/>
       <path d="M 56.203125 29.59375 
L 56.203125 25.203125 
L 14.890625 25.203125 
Q 15.484375 15.921875 20.484375 11.0625 
Q 25.484375 6.203125 34.421875 6.203125 
Q 39.59375 6.203125 44.453125 7.46875 
Q 49.3125 8.734375 54.109375 11.28125 
L 54.109375 2.78125 
Q 49.265625 0.734375 44.1875 -0.34375 
Q 39.109375 -1.421875 33.890625 -1.421875 
Q 20.796875 -1.421875 13.15625 6.1875 
Q 5.515625 13.8125 5.515625 26.8125 
Q 5.515625 40.234375 12.765625 48.109375 
Q 20.015625 56 32.328125 56 
Q 43.359375 56 49.78125 48.890625 
Q 56.203125 41.796875 56.203125 29.59375 
z
M 47.21875 32.234375 
Q 47.125 39.59375 43.09375 43.984375 
Q 39.0625 48.390625 32.421875 48.390625 
Q 24.90625 48.390625 20.390625 44.140625 
Q 15.875 39.890625 15.1875 32.171875 
z
" id="DejaVuSans-101"/>
       <path d="M 4.890625 31.390625 
L 31.203125 31.390625 
L 31.203125 23.390625 
L 4.890625 23.390625 
z
" id="DejaVuSans-45"/>
       <path d="M 19.671875 64.796875 
L 19.671875 37.40625 
L 32.078125 37.40625 
Q 38.96875 37.40625 42.71875 40.96875 
Q 46.484375 44.53125 46.484375 51.125 
Q 46.484375 57.671875 42.71875 61.234375 
Q 38.96875 64.796875 32.078125 64.796875 
z
M 9.8125 72.90625 
L 32.078125 72.90625 
Q 44.34375 72.90625 50.609375 67.359375 
Q 56.890625 61.8125 56.890625 51.125 
Q 56.890625 40.328125 50.609375 34.8125 
Q 44.34375 29.296875 32.078125 29.296875 
L 19.671875 29.296875 
L 19.671875 0 
L 9.8125 0 
z
" id="DejaVuSans-80"/>
       <path d="M 54.890625 33.015625 
L 54.890625 0 
L 45.90625 0 
L 45.90625 32.71875 
Q 45.90625 40.484375 42.875 44.328125 
Q 39.84375 48.1875 33.796875 48.1875 
Q 26.515625 48.1875 22.3125 43.546875 
Q 18.109375 38.921875 18.109375 30.90625 
L 18.109375 0 
L 9.078125 0 
L 9.078125 75.984375 
L 18.109375 75.984375 
L 18.109375 46.1875 
Q 21.34375 51.125 25.703125 53.5625 
Q 30.078125 56 35.796875 56 
Q 45.21875 56 50.046875 50.171875 
Q 54.890625 44.34375 54.890625 33.015625 
z
" id="DejaVuSans-104"/>
       <path d="M 30.609375 48.390625 
Q 23.390625 48.390625 19.1875 42.75 
Q 14.984375 37.109375 14.984375 27.296875 
Q 14.984375 17.484375 19.15625 11.84375 
Q 23.34375 6.203125 30.609375 6.203125 
Q 37.796875 6.203125 41.984375 11.859375 
Q 46.1875 17.53125 46.1875 27.296875 
Q 46.1875 37.015625 41.984375 42.703125 
Q 37.796875 48.390625 30.609375 48.390625 
z
M 30.609375 56 
Q 42.328125 56 49.015625 48.375 
Q 55.71875 40.765625 55.71875 27.296875 
Q 55.71875 13.875 49.015625 6.21875 
Q 42.328125 -1.421875 30.609375 -1.421875 
Q 18.84375 -1.421875 12.171875 6.21875 
Q 5.515625 13.875 5.515625 27.296875 
Q 5.515625 40.765625 12.171875 48.375 
Q 18.84375 56 30.609375 56 
z
" id="DejaVuSans-111"/>
       <path d="M 18.3125 70.21875 
L 18.3125 54.6875 
L 36.8125 54.6875 
L 36.8125 47.703125 
L 18.3125 47.703125 
L 18.3125 18.015625 
Q 18.3125 11.328125 20.140625 9.421875 
Q 21.96875 7.515625 27.59375 7.515625 
L 36.8125 7.515625 
L 36.8125 0 
L 27.59375 0 
Q 17.1875 0 13.234375 3.875 
Q 9.28125 7.765625 9.28125 18.015625 
L 9.28125 47.703125 
L 2.6875 47.703125 
L 2.6875 54.6875 
L 9.28125 54.6875 
L 9.28125 70.21875 
z
" id="DejaVuSans-116"/>
       <path id="DejaVuSans-32"/>
       <path d="M 19.671875 64.796875 
L 19.671875 8.109375 
L 31.59375 8.109375 
Q 46.6875 8.109375 53.6875 14.9375 
Q 60.6875 21.78125 60.6875 36.53125 
Q 60.6875 51.171875 53.6875 57.984375 
Q 46.6875 64.796875 31.59375 64.796875 
z
M 9.8125 72.90625 
L 30.078125 72.90625 
Q 51.265625 72.90625 61.171875 64.09375 
Q 71.09375 55.28125 71.09375 36.53125 
Q 71.09375 17.671875 61.125 8.828125 
Q 51.171875 0 30.078125 0 
L 9.8125 0 
z
" id="DejaVuSans-68"/>
       <path d="M 8.5 21.578125 
L 8.5 54.6875 
L 17.484375 54.6875 
L 17.484375 21.921875 
Q 17.484375 14.15625 20.5 10.265625 
Q 23.53125 6.390625 29.59375 6.390625 
Q 36.859375 6.390625 41.078125 11.03125 
Q 45.3125 15.671875 45.3125 23.6875 
L 45.3125 54.6875 
L 54.296875 54.6875 
L 54.296875 0 
L 45.3125 0 
L 45.3125 8.40625 
Q 42.046875 3.421875 37.71875 1 
Q 33.40625 -1.421875 27.6875 -1.421875 
Q 18.265625 -1.421875 13.375 4.4375 
Q 8.5 10.296875 8.5 21.578125 
z
M 31.109375 56 
z
" id="DejaVuSans-117"/>
       <path d="M 9.421875 54.6875 
L 18.40625 54.6875 
L 18.40625 0 
L 9.421875 0 
z
M 9.421875 75.984375 
L 18.40625 75.984375 
L 18.40625 64.59375 
L 9.421875 64.59375 
z
" id="DejaVuSans-105"/>
       <path d="M 45.40625 27.984375 
Q 45.40625 37.75 41.375 43.109375 
Q 37.359375 48.484375 30.078125 48.484375 
Q 22.859375 48.484375 18.828125 43.109375 
Q 14.796875 37.75 14.796875 27.984375 
Q 14.796875 18.265625 18.828125 12.890625 
Q 22.859375 7.515625 30.078125 7.515625 
Q 37.359375 7.515625 41.375 12.890625 
Q 45.40625 18.265625 45.40625 27.984375 
z
M 54.390625 6.78125 
Q 54.390625 -7.171875 48.1875 -13.984375 
Q 42 -20.796875 29.203125 -20.796875 
Q 24.46875 -20.796875 20.265625 -20.09375 
Q 16.0625 -19.390625 12.109375 -17.921875 
L 12.109375 -9.1875 
Q 16.0625 -11.328125 19.921875 -12.34375 
Q 23.78125 -13.375 27.78125 -13.375 
Q 36.625 -13.375 41.015625 -8.765625 
Q 45.40625 -4.15625 45.40625 5.171875 
L 45.40625 9.625 
Q 42.625 4.78125 38.28125 2.390625 
Q 33.9375 0 27.875 0 
Q 17.828125 0 11.671875 7.65625 
Q 5.515625 15.328125 5.515625 27.984375 
Q 5.515625 40.671875 11.671875 48.328125 
Q 17.828125 56 27.875 56 
Q 33.9375 56 38.28125 53.609375 
Q 42.625 51.21875 45.40625 46.390625 
L 45.40625 54.6875 
L 54.390625 54.6875 
z
" id="DejaVuSans-103"/>
       <path d="M 31 75.875 
Q 24.46875 64.65625 21.28125 53.65625 
Q 18.109375 42.671875 18.109375 31.390625 
Q 18.109375 20.125 21.3125 9.0625 
Q 24.515625 -2 31 -13.1875 
L 23.1875 -13.1875 
Q 15.875 -1.703125 12.234375 9.375 
Q 8.59375 20.453125 8.59375 31.390625 
Q 8.59375 42.28125 12.203125 53.3125 
Q 15.828125 64.359375 23.1875 75.875 
z
" id="DejaVuSans-40"/>
       <path d="M 59.515625 10.40625 
L 59.515625 29.984375 
L 43.40625 29.984375 
L 43.40625 38.09375 
L 69.28125 38.09375 
L 69.28125 6.78125 
Q 63.578125 2.734375 56.6875 0.65625 
Q 49.8125 -1.421875 42 -1.421875 
Q 24.90625 -1.421875 15.25 8.5625 
Q 5.609375 18.5625 5.609375 36.375 
Q 5.609375 54.25 15.25 64.234375 
Q 24.90625 74.21875 42 74.21875 
Q 49.125 74.21875 55.546875 72.453125 
Q 61.96875 70.703125 67.390625 67.28125 
L 67.390625 56.78125 
Q 61.921875 61.421875 55.765625 63.765625 
Q 49.609375 66.109375 42.828125 66.109375 
Q 29.4375 66.109375 22.71875 58.640625 
Q 16.015625 51.171875 16.015625 36.375 
Q 16.015625 21.625 22.71875 14.15625 
Q 29.4375 6.6875 42.828125 6.6875 
Q 48.046875 6.6875 52.140625 7.59375 
Q 56.25 8.5 59.515625 10.40625 
z
" id="DejaVuSans-71"/>
       <path d="M 9.8125 72.90625 
L 19.671875 72.90625 
L 19.671875 43.015625 
L 55.515625 43.015625 
L 55.515625 72.90625 
L 65.375 72.90625 
L 65.375 0 
L 55.515625 0 
L 55.515625 34.71875 
L 19.671875 34.71875 
L 19.671875 0 
L 9.8125 0 
z
" id="DejaVuSans-72"/>
       <path d="M 5.515625 54.6875 
L 48.1875 54.6875 
L 48.1875 46.484375 
L 14.40625 7.171875 
L 48.1875 7.171875 
L 48.1875 0 
L 4.296875 0 
L 4.296875 8.203125 
L 38.09375 47.515625 
L 5.515625 47.515625 
z
" id="DejaVuSans-122"/>
       <path d="M 8.015625 75.875 
L 15.828125 75.875 
Q 23.140625 64.359375 26.78125 53.3125 
Q 30.421875 42.28125 30.421875 31.390625 
Q 30.421875 20.453125 26.78125 9.375 
Q 23.140625 -1.703125 15.828125 -13.1875 
L 8.015625 -13.1875 
Q 14.5 -2 17.703125 9.0625 
Q 20.90625 20.125 20.90625 31.390625 
Q 20.90625 42.671875 17.703125 53.65625 
Q 14.5 64.65625 8.015625 75.875 
z
" id="DejaVuSans-41"/>
      </defs>
      <use xlink:href="#DejaVuSans-79"/>
      <use x="78.710938" xlink:href="#DejaVuSans-110"/>
      <use x="142.089844" xlink:href="#DejaVuSans-101"/>
      <use x="203.613281" xlink:href="#DejaVuSans-45"/>
      <use x="239.697266" xlink:href="#DejaVuSans-80"/>
      <use x="300" xlink:href="#DejaVuSans-104"/>
      <use x="363.378906" xlink:href="#DejaVuSans-111"/>
      <use x="424.560547" xlink:href="#DejaVuSans-116"/>
      <use x="463.769531" xlink:href="#DejaVuSans-111"/>
      <use x="524.951172" xlink:href="#DejaVuSans-110"/>
      <use x="588.330078" xlink:href="#DejaVuSans-32"/>
      <use x="620.117188" xlink:href="#DejaVuSans-68"/>
      <use x="697.119141" xlink:href="#DejaVuSans-101"/>
      <use x="758.642578" xlink:href="#DejaVuSans-116"/>
      <use x="797.851562" xlink:href="#DejaVuSans-117"/>
      <use x="861.230469" xlink:href="#DejaVuSans-110"/>
      <use x="924.609375" xlink:href="#DejaVuSans-105"/>
      <use x="952.392578" xlink:href="#DejaVuSans-110"/>
      <use x="1015.771484" xlink:href="#DejaVuSans-103"/>
      <use x="1079.248047" xlink:href="#DejaVuSans-32"/>
      <use x="1111.035156" xlink:href="#DejaVuSans-40"/>
      <use x="1150.048828" xlink:href="#DejaVuSans-71"/>
      <use x="1227.539062" xlink:href="#DejaVuSans-72"/>
      <use x="1302.734375" xlink:href="#DejaVuSans-122"/>
      <use x="1355.224609" xlink:href="#DejaVuSans-41"/>
     </g>
    </g>
   </g>
   <g id="matplotlib.axis_2">
    <g id="ytick_1">
     <g id="line2d_15">
      <path clip-path="url(#pfe9ccd126f)" d="M 62.955006 273.312 
L 420.075006 273.312 
" style="fill:none;stroke:#b0b0b0;stroke-linecap:square;stroke-width:0.8;"/>
     </g>
     <g id="line2d_16">
      <defs>
       <path d="M 0 0 
L -3.5 0 
" id="mc3ce260a5b" style="stroke:#000000;stroke-width:0.8;"/>
      </defs>
      <g>
       <use style="stroke:#000000;stroke-width:0.8;" x="62.955006" xlink:href="#mc3ce260a5b" y="273.312"/>
      </g>
     </g>
     <g id="text_9">
      <!-- 0 -->
      <g transform="translate(46.411256 279.010828)scale(0.15 -0.15)">
       <use xlink:href="#DejaVuSans-48"/>
      </g>
     </g>
    </g>
    <g id="ytick_2">
     <g id="line2d_17">
      <path clip-path="url(#pfe9ccd126f)" d="M 62.955006 228.662336 
L 420.075006 228.662336 
" style="fill:none;stroke:#b0b0b0;stroke-linecap:square;stroke-width:0.8;"/>
     </g>
     <g id="line2d_18">
      <g>
       <use style="stroke:#000000;stroke-width:0.8;" x="62.955006" xlink:href="#mc3ce260a5b" y="228.662336"/>
      </g>
     </g>
     <g id="text_10">
      <!-- 100 -->
      <g transform="translate(27.323756 234.361164)scale(0.15 -0.15)">
       <use xlink:href="#DejaVuSans-49"/>
       <use x="63.623047" xlink:href="#DejaVuSans-48"/>
       <use x="127.246094" xlink:href="#DejaVuSans-48"/>
      </g>
     </g>
    </g>
    <g id="ytick_3">
     <g id="line2d_19">
      <path clip-path="url(#pfe9ccd126f)" d="M 62.955006 184.012671 
L 420.075006 184.012671 
" style="fill:none;stroke:#b0b0b0;stroke-linecap:square;stroke-width:0.8;"/>
     </g>
     <g id="line2d_20">
      <g>
       <use style="stroke:#000000;stroke-width:0.8;" x="62.955006" xlink:href="#mc3ce260a5b" y="184.012671"/>
      </g>
     </g>
     <g id="text_11">
      <!-- 200 -->
      <g transform="translate(27.323756 189.711499)scale(0.15 -0.15)">
       <use xlink:href="#DejaVuSans-50"/>
       <use x="63.623047" xlink:href="#DejaVuSans-48"/>
       <use x="127.246094" xlink:href="#DejaVuSans-48"/>
      </g>
     </g>
    </g>
    <g id="ytick_4">
     <g id="line2d_21">
      <path clip-path="url(#pfe9ccd126f)" d="M 62.955006 139.363007 
L 420.075006 139.363007 
" style="fill:none;stroke:#b0b0b0;stroke-linecap:square;stroke-width:0.8;"/>
     </g>
     <g id="line2d_22">
      <g>
       <use style="stroke:#000000;stroke-width:0.8;" x="62.955006" xlink:href="#mc3ce260a5b" y="139.363007"/>
      </g>
     </g>
     <g id="text_12">
      <!-- 300 -->
      <g transform="translate(27.323756 145.061835)scale(0.15 -0.15)">
       <use xlink:href="#DejaVuSans-51"/>
       <use x="63.623047" xlink:href="#DejaVuSans-48"/>
       <use x="127.246094" xlink:href="#DejaVuSans-48"/>
      </g>
     </g>
    </g>
    <g id="ytick_5">
     <g id="line2d_23">
      <path clip-path="url(#pfe9ccd126f)" d="M 62.955006 94.713342 
L 420.075006 94.713342 
" style="fill:none;stroke:#b0b0b0;stroke-linecap:square;stroke-width:0.8;"/>
     </g>
     <g id="line2d_24">
      <g>
       <use style="stroke:#000000;stroke-width:0.8;" x="62.955006" xlink:href="#mc3ce260a5b" y="94.713342"/>
      </g>
     </g>
     <g id="text_13">
      <!-- 400 -->
      <g transform="translate(27.323756 100.41217)scale(0.15 -0.15)">
       <defs>
        <path d="M 37.796875 64.3125 
L 12.890625 25.390625 
L 37.796875 25.390625 
z
M 35.203125 72.90625 
L 47.609375 72.90625 
L 47.609375 25.390625 
L 58.015625 25.390625 
L 58.015625 17.1875 
L 47.609375 17.1875 
L 47.609375 0 
L 37.796875 0 
L 37.796875 17.1875 
L 4.890625 17.1875 
L 4.890625 26.703125 
z
" id="DejaVuSans-52"/>
       </defs>
       <use xlink:href="#DejaVuSans-52"/>
       <use x="63.623047" xlink:href="#DejaVuSans-48"/>
       <use x="127.246094" xlink:href="#DejaVuSans-48"/>
      </g>
     </g>
    </g>
    <g id="ytick_6">
     <g id="line2d_25">
      <path clip-path="url(#pfe9ccd126f)" d="M 62.955006 50.063678 
L 420.075006 50.063678 
" style="fill:none;stroke:#b0b0b0;stroke-linecap:square;stroke-width:0.8;"/>
     </g>
     <g id="line2d_26">
      <g>
       <use style="stroke:#000000;stroke-width:0.8;" x="62.955006" xlink:href="#mc3ce260a5b" y="50.063678"/>
      </g>
     </g>
     <g id="text_14">
      <!-- 500 -->
      <g transform="translate(27.323756 55.762506)scale(0.15 -0.15)">
       <defs>
        <path d="M 10.796875 72.90625 
L 49.515625 72.90625 
L 49.515625 64.59375 
L 19.828125 64.59375 
L 19.828125 46.734375 
Q 21.96875 47.46875 24.109375 47.828125 
Q 26.265625 48.1875 28.421875 48.1875 
Q 40.625 48.1875 47.75 41.5 
Q 54.890625 34.8125 54.890625 23.390625 
Q 54.890625 11.625 47.5625 5.09375 
Q 40.234375 -1.421875 26.90625 -1.421875 
Q 22.3125 -1.421875 17.546875 -0.640625 
Q 12.796875 0.140625 7.71875 1.703125 
L 7.71875 11.625 
Q 12.109375 9.234375 16.796875 8.0625 
Q 21.484375 6.890625 26.703125 6.890625 
Q 35.15625 6.890625 40.078125 11.328125 
Q 45.015625 15.765625 45.015625 23.390625 
Q 45.015625 31 40.078125 35.4375 
Q 35.15625 39.890625 26.703125 39.890625 
Q 22.75 39.890625 18.8125 39.015625 
Q 14.890625 38.140625 10.796875 36.28125 
z
" id="DejaVuSans-53"/>
       </defs>
       <use xlink:href="#DejaVuSans-53"/>
       <use x="63.623047" xlink:href="#DejaVuSans-48"/>
       <use x="127.246094" xlink:href="#DejaVuSans-48"/>
      </g>
     </g>
    </g>
    <g id="text_15">
     <!-- $\Omega_{\mathrm{R}}$ and $\Gamma_{\mathrm{s}}$ ($\mathrm{2\pi\times kHz})$ -->
     <g transform="translate(19.858997 225.1387)rotate(-90)scale(0.1666 -0.1666)">
      <defs>
       <path d="M 72.609375 8.6875 
L 72.609375 0 
L 43.3125 0 
L 43.3125 8.6875 
Q 51.953125 13.421875 56.78125 21.53125 
Q 61.625 29.640625 61.625 39.5 
Q 61.625 51.21875 55.171875 58.296875 
Q 48.734375 65.375 38.1875 65.375 
Q 27.640625 65.375 21.171875 58.265625 
Q 14.703125 51.171875 14.703125 39.5 
Q 14.703125 29.640625 19.53125 21.53125 
Q 24.421875 13.421875 33.109375 8.6875 
L 33.109375 0 
L 3.8125 0 
L 3.8125 8.6875 
L 19.390625 8.6875 
Q 11.671875 15.484375 8.109375 22.75 
Q 4.59375 30.03125 4.59375 39.015625 
Q 4.59375 54.546875 13.96875 64.15625 
Q 23.296875 73.78125 38.1875 73.78125 
Q 52.984375 73.78125 62.40625 64.15625 
Q 71.78125 54.59375 71.78125 39.5 
Q 71.78125 30.03125 68.3125 22.796875 
Q 64.84375 15.578125 56.984375 8.6875 
z
" id="DejaVuSans-937"/>
       <path d="M 44.390625 34.1875 
Q 47.5625 33.109375 50.5625 29.59375 
Q 53.5625 26.078125 56.59375 19.921875 
L 66.609375 0 
L 56 0 
L 46.6875 18.703125 
Q 43.0625 26.03125 39.671875 28.421875 
Q 36.28125 30.8125 30.421875 30.8125 
L 19.671875 30.8125 
L 19.671875 0 
L 9.8125 0 
L 9.8125 72.90625 
L 32.078125 72.90625 
Q 44.578125 72.90625 50.734375 67.671875 
Q 56.890625 62.453125 56.890625 51.90625 
Q 56.890625 45.015625 53.6875 40.46875 
Q 50.484375 35.9375 44.390625 34.1875 
z
M 19.671875 64.796875 
L 19.671875 38.921875 
L 32.078125 38.921875 
Q 39.203125 38.921875 42.84375 42.21875 
Q 46.484375 45.515625 46.484375 51.90625 
Q 46.484375 58.296875 42.84375 61.546875 
Q 39.203125 64.796875 32.078125 64.796875 
z
" id="DejaVuSans-82"/>
       <path d="M 34.28125 27.484375 
Q 23.390625 27.484375 19.1875 25 
Q 14.984375 22.515625 14.984375 16.5 
Q 14.984375 11.71875 18.140625 8.90625 
Q 21.296875 6.109375 26.703125 6.109375 
Q 34.1875 6.109375 38.703125 11.40625 
Q 43.21875 16.703125 43.21875 25.484375 
L 43.21875 27.484375 
z
M 52.203125 31.203125 
L 52.203125 0 
L 43.21875 0 
L 43.21875 8.296875 
Q 40.140625 3.328125 35.546875 0.953125 
Q 30.953125 -1.421875 24.3125 -1.421875 
Q 15.921875 -1.421875 10.953125 3.296875 
Q 6 8.015625 6 15.921875 
Q 6 25.140625 12.171875 29.828125 
Q 18.359375 34.515625 30.609375 34.515625 
L 43.21875 34.515625 
L 43.21875 35.40625 
Q 43.21875 41.609375 39.140625 45 
Q 35.0625 48.390625 27.6875 48.390625 
Q 23 48.390625 18.546875 47.265625 
Q 14.109375 46.140625 10.015625 43.890625 
L 10.015625 52.203125 
Q 14.9375 54.109375 19.578125 55.046875 
Q 24.21875 56 28.609375 56 
Q 40.484375 56 46.34375 49.84375 
Q 52.203125 43.703125 52.203125 31.203125 
z
" id="DejaVuSans-97"/>
       <path d="M 45.40625 46.390625 
L 45.40625 75.984375 
L 54.390625 75.984375 
L 54.390625 0 
L 45.40625 0 
L 45.40625 8.203125 
Q 42.578125 3.328125 38.25 0.953125 
Q 33.9375 -1.421875 27.875 -1.421875 
Q 17.96875 -1.421875 11.734375 6.484375 
Q 5.515625 14.40625 5.515625 27.296875 
Q 5.515625 40.1875 11.734375 48.09375 
Q 17.96875 56 27.875 56 
Q 33.9375 56 38.25 53.625 
Q 42.578125 51.265625 45.40625 46.390625 
z
M 14.796875 27.296875 
Q 14.796875 17.390625 18.875 11.75 
Q 22.953125 6.109375 30.078125 6.109375 
Q 37.203125 6.109375 41.296875 11.75 
Q 45.40625 17.390625 45.40625 27.296875 
Q 45.40625 37.203125 41.296875 42.84375 
Q 37.203125 48.484375 30.078125 48.484375 
Q 22.953125 48.484375 18.875 42.84375 
Q 14.796875 37.203125 14.796875 27.296875 
z
" id="DejaVuSans-100"/>
       <path d="M 9.8125 0 
L 9.8125 72.90625 
L 55.171875 72.90625 
L 55.171875 64.59375 
L 19.671875 64.59375 
L 19.671875 0 
z
" id="DejaVuSans-915"/>
       <path d="M 44.28125 53.078125 
L 44.28125 44.578125 
Q 40.484375 46.53125 36.375 47.5 
Q 32.28125 48.484375 27.875 48.484375 
Q 21.1875 48.484375 17.84375 46.4375 
Q 14.5 44.390625 14.5 40.28125 
Q 14.5 37.15625 16.890625 35.375 
Q 19.28125 33.59375 26.515625 31.984375 
L 29.59375 31.296875 
Q 39.15625 29.25 43.1875 25.515625 
Q 47.21875 21.78125 47.21875 15.09375 
Q 47.21875 7.46875 41.1875 3.015625 
Q 35.15625 -1.421875 24.609375 -1.421875 
Q 20.21875 -1.421875 15.453125 -0.5625 
Q 10.6875 0.296875 5.421875 2 
L 5.421875 11.28125 
Q 10.40625 8.6875 15.234375 7.390625 
Q 20.0625 6.109375 24.8125 6.109375 
Q 31.15625 6.109375 34.5625 8.28125 
Q 37.984375 10.453125 37.984375 14.40625 
Q 37.984375 18.0625 35.515625 20.015625 
Q 33.0625 21.96875 24.703125 23.78125 
L 21.578125 24.515625 
Q 13.234375 26.265625 9.515625 29.90625 
Q 5.8125 33.546875 5.8125 39.890625 
Q 5.8125 47.609375 11.28125 51.796875 
Q 16.75 56 26.8125 56 
Q 31.78125 56 36.171875 55.265625 
Q 40.578125 54.546875 44.28125 53.078125 
z
" id="DejaVuSans-115"/>
       <path d="M 3.609375 54.6875 
L 56 54.6875 
L 56 45.703125 
L 49.125 45.703125 
L 49.125 12.109375 
Q 49.125 8.59375 50.3125 7.046875 
Q 51.515625 5.515625 54.203125 5.515625 
Q 54.9375 5.515625 56 5.640625 
Q 57.078125 5.765625 57.421875 5.8125 
L 57.421875 -0.6875 
Q 55.71875 -1.3125 53.90625 -1.609375 
Q 52.09375 -1.90625 50.296875 -1.90625 
Q 44.4375 -1.90625 42.1875 1.296875 
Q 39.9375 4.5 39.9375 13.09375 
L 39.9375 45.703125 
L 19.78125 45.703125 
L 19.78125 0 
L 10.59375 0 
L 10.59375 45.703125 
L 3.609375 45.703125 
z
" id="DejaVuSans-960"/>
       <path d="M 70.125 53.71875 
L 47.796875 31.296875 
L 70.125 8.984375 
L 64.3125 3.078125 
L 41.890625 25.484375 
L 19.484375 3.078125 
L 13.71875 8.984375 
L 35.984375 31.296875 
L 13.71875 53.71875 
L 19.484375 59.625 
L 41.890625 37.203125 
L 64.3125 59.625 
z
" id="DejaVuSans-215"/>
       <path d="M 9.078125 75.984375 
L 18.109375 75.984375 
L 18.109375 31.109375 
L 44.921875 54.6875 
L 56.390625 54.6875 
L 27.390625 29.109375 
L 57.625 0 
L 45.90625 0 
L 18.109375 26.703125 
L 18.109375 0 
L 9.078125 0 
z
" id="DejaVuSans-107"/>
      </defs>
      <use transform="translate(0 0.015625)" xlink:href="#DejaVuSans-937"/>
      <use transform="translate(77.373047 -16.390625)scale(0.7)" xlink:href="#DejaVuSans-82"/>
      <use transform="translate(128.745117 0.015625)" xlink:href="#DejaVuSans-32"/>
      <use transform="translate(160.532227 0.015625)" xlink:href="#DejaVuSans-97"/>
      <use transform="translate(221.811523 0.015625)" xlink:href="#DejaVuSans-110"/>
      <use transform="translate(285.19043 0.015625)" xlink:href="#DejaVuSans-100"/>
      <use transform="translate(348.666992 0.015625)" xlink:href="#DejaVuSans-32"/>
      <use transform="translate(380.454102 0.015625)" xlink:href="#DejaVuSans-915"/>
      <use transform="translate(437.124023 -16.390625)scale(0.7)" xlink:href="#DejaVuSans-115"/>
      <use transform="translate(476.328125 0.015625)" xlink:href="#DejaVuSans-32"/>
      <use transform="translate(508.115234 0.015625)" xlink:href="#DejaVuSans-40"/>
      <use transform="translate(547.128906 0.015625)" xlink:href="#DejaVuSans-50"/>
      <use transform="translate(610.751953 0.015625)" xlink:href="#DejaVuSans-960"/>
      <use transform="translate(690.439453 0.015625)" xlink:href="#DejaVuSans-215"/>
      <use transform="translate(793.710938 0.015625)" xlink:href="#DejaVuSans-107"/>
      <use transform="translate(851.621094 0.015625)" xlink:href="#DejaVuSans-72"/>
      <use transform="translate(926.816406 0.015625)" xlink:href="#DejaVuSans-122"/>
      <use transform="translate(979.306641 0.015625)" xlink:href="#DejaVuSans-41"/>
     </g>
    </g>
   </g>
   <g id="line2d_27">
    <path clip-path="url(#pfe9ccd126f)" d="M 62.782479 268.747938 
L 91.556291 267.931255 
L 113.901912 267.084731 
L 131.655966 266.196645 
L 145.736768 265.279855 
L 157.368735 264.307598 
L 166.857971 263.302591 
L 174.816685 262.248965 
L 181.550981 261.146782 
L 187.366965 259.980676 
L 192.570739 258.707998 
L 196.856201 257.441572 
L 200.835558 256.030572 
L 204.202706 254.604767 
L 207.26375 253.068086 
L 210.018689 251.432146 
L 212.467524 249.719581 
L 214.610255 247.96711 
L 216.752986 245.91312 
L 218.589612 243.848478 
L 220.426239 241.42572 
L 221.956761 239.060396 
L 223.487282 236.294634 
L 225.017804 233.016952 
L 226.242222 229.92277 
L 227.466639 226.290106 
L 228.691057 221.964657 
L 229.915475 216.726946 
L 231.139892 210.253831 
L 232.058205 204.299442 
L 232.976518 197.064499 
L 233.894832 188.085732 
L 234.813145 176.645759 
L 235.731458 161.571167 
L 236.343667 148.545072 
L 236.955876 132.017541 
L 237.568084 110.357129 
L 238.180293 80.732495 
L 238.792502 37.760764 
L 239.171287 -1 
M 243.818722 -1 
L 244.302381 47.797293 
L 244.91459 88.690413 
L 245.526798 117.119667 
L 246.139007 138.030147 
L 247.05732 160.743483 
L 247.975633 177.006355 
L 248.893947 189.225384 
L 249.81226 198.74242 
L 250.730573 206.364761 
L 251.954991 214.444318 
L 253.179408 220.829741 
L 254.403826 226.003661 
L 255.628243 230.281285 
L 256.852661 233.877198 
L 258.383183 237.639525 
L 259.913705 240.777431 
L 261.444227 243.434745 
L 263.280853 246.131859 
L 265.117479 248.410846 
L 266.954106 250.362255 
L 269.096836 252.31217 
L 271.545671 254.202011 
L 273.994506 255.808937 
L 276.749446 257.352006 
L 279.81049 258.808739 
L 283.177638 260.166822 
L 287.156995 261.517098 
L 291.442457 262.734552 
L 296.340127 263.897567 
L 302.15611 265.040584 
L 308.890407 266.124884 
L 316.543016 267.129489 
L 325.726148 268.105115 
L 336.745906 269.041977 
L 349.908395 269.93008 
L 366.131927 270.791907 
L 386.334817 271.630466 
L 411.741481 272.452873 
L 420.312404 272.690388 
L 420.312404 272.690388 
" style="fill:none;stroke:#1f77b4;stroke-linecap:square;stroke-width:1.5;"/>
   </g>
   <g id="line2d_28">
    <path clip-path="url(#pfe9ccd126f)" d="M 62.782479 246.389179 
L 130.737653 244.770832 
L 168.082388 243.683537 
L 187.06086 242.930901 
L 198.080618 242.294229 
L 205.427124 241.664738 
L 210.630898 241.009516 
L 214.610255 240.287696 
L 217.671299 239.506804 
L 220.120134 238.652004 
L 221.956761 237.805841 
L 223.793387 236.698708 
L 225.323909 235.487039 
L 226.548326 234.247547 
L 227.772744 232.67101 
L 228.691057 231.186832 
L 229.60937 229.351778 
L 230.527683 227.043711 
L 231.445997 224.082319 
L 232.36431 220.192408 
L 233.282623 214.936998 
L 233.894832 210.333835 
L 234.50704 204.475763 
L 235.119249 196.859503 
L 235.731458 186.701642 
L 236.343667 172.728345 
L 236.955876 152.754917 
L 237.568084 122.775811 
L 238.180293 74.786039 
L 238.74071 -1 
M 244.27769 -1 
L 244.608485 48.719249 
L 245.220694 107.234159 
L 245.832903 142.695657 
L 246.445112 165.793839 
L 247.05732 181.670841 
L 247.669529 193.048919 
L 248.281738 201.478708 
L 249.200051 210.544164 
L 250.118364 216.858873 
L 251.036677 221.430271 
L 251.954991 224.843509 
L 252.873304 227.45734 
L 253.791617 229.501644 
L 255.016034 231.598289 
L 256.240452 233.186123 
L 257.464869 234.415143 
L 258.995391 235.593746 
L 260.525913 236.489555 
L 262.36254 237.303261 
L 264.50527 238.002417 
L 267.26021 238.636824 
L 270.627358 239.152908 
L 274.91282 239.558491 
L 280.422699 239.840764 
L 288.075308 239.992707 
L 299.095066 239.971342 
L 316.236912 239.695198 
L 344.70462 238.99107 
L 390.926383 237.609038 
L 420.312404 236.647296 
L 420.312404 236.647296 
" style="fill:none;stroke:#ff7f0e;stroke-linecap:square;stroke-width:1.5;"/>
   </g>
   <g id="patch_3">
    <path d="M 62.955006 273.312 
L 62.955006 7.2 
" style="fill:none;stroke:#000000;stroke-linecap:square;stroke-linejoin:miter;stroke-width:0.8;"/>
   </g>
   <g id="patch_4">
    <path d="M 420.075006 273.312 
L 420.075006 7.2 
" style="fill:none;stroke:#000000;stroke-linecap:square;stroke-linejoin:miter;stroke-width:0.8;"/>
   </g>
   <g id="patch_5">
    <path d="M 62.955006 273.312 
L 420.075006 273.312 
" style="fill:none;stroke:#000000;stroke-linecap:square;stroke-linejoin:miter;stroke-width:0.8;"/>
   </g>
   <g id="patch_6">
    <path d="M 62.955006 7.2 
L 420.075006 7.2 
" style="fill:none;stroke:#000000;stroke-linecap:square;stroke-linejoin:miter;stroke-width:0.8;"/>
   </g>
   <g id="text_16">
    <!-- v'=63 -->
    <g transform="translate(78.260149 215.267436)scale(0.1666 -0.1666)">
     <defs>
      <path d="M 2.984375 54.6875 
L 12.5 54.6875 
L 29.59375 8.796875 
L 46.6875 54.6875 
L 56.203125 54.6875 
L 35.6875 0 
L 23.484375 0 
z
" id="DejaVuSans-118"/>
      <path d="M 17.921875 72.90625 
L 17.921875 45.796875 
L 9.625 45.796875 
L 9.625 72.90625 
z
" id="DejaVuSans-39"/>
      <path d="M 10.59375 45.40625 
L 73.1875 45.40625 
L 73.1875 37.203125 
L 10.59375 37.203125 
z
M 10.59375 25.484375 
L 73.1875 25.484375 
L 73.1875 17.1875 
L 10.59375 17.1875 
z
" id="DejaVuSans-61"/>
      <path d="M 33.015625 40.375 
Q 26.375 40.375 22.484375 35.828125 
Q 18.609375 31.296875 18.609375 23.390625 
Q 18.609375 15.53125 22.484375 10.953125 
Q 26.375 6.390625 33.015625 6.390625 
Q 39.65625 6.390625 43.53125 10.953125 
Q 47.40625 15.53125 47.40625 23.390625 
Q 47.40625 31.296875 43.53125 35.828125 
Q 39.65625 40.375 33.015625 40.375 
z
M 52.59375 71.296875 
L 52.59375 62.3125 
Q 48.875 64.0625 45.09375 64.984375 
Q 41.3125 65.921875 37.59375 65.921875 
Q 27.828125 65.921875 22.671875 59.328125 
Q 17.53125 52.734375 16.796875 39.40625 
Q 19.671875 43.65625 24.015625 45.921875 
Q 28.375 48.1875 33.59375 48.1875 
Q 44.578125 48.1875 50.953125 41.515625 
Q 57.328125 34.859375 57.328125 23.390625 
Q 57.328125 12.15625 50.6875 5.359375 
Q 44.046875 -1.421875 33.015625 -1.421875 
Q 20.359375 -1.421875 13.671875 8.265625 
Q 6.984375 17.96875 6.984375 36.375 
Q 6.984375 53.65625 15.1875 63.9375 
Q 23.390625 74.21875 37.203125 74.21875 
Q 40.921875 74.21875 44.703125 73.484375 
Q 48.484375 72.75 52.59375 71.296875 
z
" id="DejaVuSans-54"/>
     </defs>
     <use xlink:href="#DejaVuSans-118"/>
     <use x="59.179688" xlink:href="#DejaVuSans-39"/>
     <use x="86.669922" xlink:href="#DejaVuSans-61"/>
     <use x="170.458984" xlink:href="#DejaVuSans-54"/>
     <use x="234.082031" xlink:href="#DejaVuSans-51"/>
    </g>
   </g>
  </g>
  <g id="axes_2">
   <g id="matplotlib.axis_3">
    <g id="ytick_7">
     <g id="line2d_29">
      <defs>
       <path d="M 0 0 
L 3.5 0 
" id="m0e71f88706" style="stroke:#000000;stroke-width:0.8;"/>
      </defs>
      <g>
       <use style="stroke:#000000;stroke-width:0.8;" x="420.075006" xlink:href="#m0e71f88706" y="273.312"/>
      </g>
     </g>
     <g id="text_17">
      <!-- 0.0 -->
      <g style="fill:#2ca02c;" transform="translate(427.075006 279.010828)scale(0.15 -0.15)">
       <defs>
        <path d="M 46 36.53125 
Q 46 50.203125 43.4375 55.78125 
Q 40.875 61.375 34.8125 61.375 
Q 28.765625 61.375 26.171875 55.78125 
Q 23.578125 50.203125 23.578125 36.53125 
Q 23.578125 22.703125 26.171875 17.03125 
Q 28.765625 11.375 34.8125 11.375 
Q 40.828125 11.375 43.40625 17.03125 
Q 46 22.703125 46 36.53125 
z
M 64.796875 36.375 
Q 64.796875 18.265625 56.984375 8.421875 
Q 49.171875 -1.421875 34.8125 -1.421875 
Q 20.40625 -1.421875 12.59375 8.421875 
Q 4.78125 18.265625 4.78125 36.375 
Q 4.78125 54.546875 12.59375 64.375 
Q 20.40625 74.21875 34.8125 74.21875 
Q 49.171875 74.21875 56.984375 64.375 
Q 64.796875 54.546875 64.796875 36.375 
z
" id="DejaVuSans-Bold-48"/>
        <path d="M 10.203125 18.890625 
L 27.78125 18.890625 
L 27.78125 0 
L 10.203125 0 
z
" id="DejaVuSans-Bold-46"/>
       </defs>
       <use xlink:href="#DejaVuSans-Bold-48"/>
       <use x="69.580078" xlink:href="#DejaVuSans-Bold-46"/>
       <use x="107.568359" xlink:href="#DejaVuSans-Bold-48"/>
      </g>
     </g>
    </g>
    <g id="ytick_8">
     <g id="line2d_30">
      <g>
       <use style="stroke:#000000;stroke-width:0.8;" x="420.075006" xlink:href="#m0e71f88706" y="237.592268"/>
      </g>
     </g>
     <g id="text_18">
      <!-- 0.2 -->
      <g style="fill:#2ca02c;" transform="translate(427.075006 243.291097)scale(0.15 -0.15)">
       <defs>
        <path d="M 28.8125 13.8125 
L 60.890625 13.8125 
L 60.890625 0 
L 7.90625 0 
L 7.90625 13.8125 
L 34.515625 37.3125 
Q 38.09375 40.53125 39.796875 43.609375 
Q 41.5 46.6875 41.5 50 
Q 41.5 55.125 38.0625 58.25 
Q 34.625 61.375 28.90625 61.375 
Q 24.515625 61.375 19.28125 59.5 
Q 14.0625 57.625 8.109375 53.90625 
L 8.109375 69.921875 
Q 14.453125 72.015625 20.65625 73.109375 
Q 26.859375 74.21875 32.8125 74.21875 
Q 45.90625 74.21875 53.15625 68.453125 
Q 60.40625 62.703125 60.40625 52.390625 
Q 60.40625 46.4375 57.328125 41.28125 
Q 54.25 36.140625 44.390625 27.484375 
z
" id="DejaVuSans-Bold-50"/>
       </defs>
       <use xlink:href="#DejaVuSans-Bold-48"/>
       <use x="69.580078" xlink:href="#DejaVuSans-Bold-46"/>
       <use x="107.568359" xlink:href="#DejaVuSans-Bold-50"/>
      </g>
     </g>
    </g>
    <g id="ytick_9">
     <g id="line2d_31">
      <g>
       <use style="stroke:#000000;stroke-width:0.8;" x="420.075006" xlink:href="#m0e71f88706" y="201.872537"/>
      </g>
     </g>
     <g id="text_19">
      <!-- 0.4 -->
      <g style="fill:#2ca02c;" transform="translate(427.075006 207.571365)scale(0.15 -0.15)">
       <defs>
        <path d="M 36.8125 57.421875 
L 16.21875 26.90625 
L 36.8125 26.90625 
z
M 33.6875 72.90625 
L 54.59375 72.90625 
L 54.59375 26.90625 
L 64.984375 26.90625 
L 64.984375 13.28125 
L 54.59375 13.28125 
L 54.59375 0 
L 36.8125 0 
L 36.8125 13.28125 
L 4.5 13.28125 
L 4.5 29.390625 
z
" id="DejaVuSans-Bold-52"/>
       </defs>
       <use xlink:href="#DejaVuSans-Bold-48"/>
       <use x="69.580078" xlink:href="#DejaVuSans-Bold-46"/>
       <use x="107.568359" xlink:href="#DejaVuSans-Bold-52"/>
      </g>
     </g>
    </g>
    <g id="ytick_10">
     <g id="line2d_32">
      <g>
       <use style="stroke:#000000;stroke-width:0.8;" x="420.075006" xlink:href="#m0e71f88706" y="166.152805"/>
      </g>
     </g>
     <g id="text_20">
      <!-- 0.6 -->
      <g style="fill:#2ca02c;" transform="translate(427.075006 171.851633)scale(0.15 -0.15)">
       <defs>
        <path d="M 36.1875 35.984375 
Q 31.25 35.984375 28.78125 32.78125 
Q 26.3125 29.59375 26.3125 23.1875 
Q 26.3125 16.796875 28.78125 13.59375 
Q 31.25 10.40625 36.1875 10.40625 
Q 41.15625 10.40625 43.625 13.59375 
Q 46.09375 16.796875 46.09375 23.1875 
Q 46.09375 29.59375 43.625 32.78125 
Q 41.15625 35.984375 36.1875 35.984375 
z
M 59.421875 71 
L 59.421875 57.515625 
Q 54.78125 59.71875 50.671875 60.765625 
Q 46.578125 61.8125 42.671875 61.8125 
Q 34.28125 61.8125 29.59375 57.140625 
Q 24.90625 52.484375 24.125 43.3125 
Q 27.34375 45.703125 31.09375 46.890625 
Q 34.859375 48.09375 39.3125 48.09375 
Q 50.484375 48.09375 57.34375 41.546875 
Q 64.203125 35.015625 64.203125 24.421875 
Q 64.203125 12.703125 56.53125 5.640625 
Q 48.875 -1.421875 35.984375 -1.421875 
Q 21.78125 -1.421875 13.984375 8.171875 
Q 6.203125 17.78125 6.203125 35.40625 
Q 6.203125 53.46875 15.3125 63.796875 
Q 24.421875 74.125 40.28125 74.125 
Q 45.3125 74.125 50.046875 73.34375 
Q 54.78125 72.5625 59.421875 71 
z
" id="DejaVuSans-Bold-54"/>
       </defs>
       <use xlink:href="#DejaVuSans-Bold-48"/>
       <use x="69.580078" xlink:href="#DejaVuSans-Bold-46"/>
       <use x="107.568359" xlink:href="#DejaVuSans-Bold-54"/>
      </g>
     </g>
    </g>
    <g id="ytick_11">
     <g id="line2d_33">
      <g>
       <use style="stroke:#000000;stroke-width:0.8;" x="420.075006" xlink:href="#m0e71f88706" y="130.433074"/>
      </g>
     </g>
     <g id="text_21">
      <!-- 0.8 -->
      <g style="fill:#2ca02c;" transform="translate(427.075006 136.131902)scale(0.15 -0.15)">
       <defs>
        <path d="M 34.8125 32.625 
Q 29.546875 32.625 26.703125 29.734375 
Q 23.875 26.859375 23.875 21.484375 
Q 23.875 16.109375 26.703125 13.25 
Q 29.546875 10.40625 34.8125 10.40625 
Q 40.046875 10.40625 42.828125 13.25 
Q 45.609375 16.109375 45.609375 21.484375 
Q 45.609375 26.90625 42.828125 29.765625 
Q 40.046875 32.625 34.8125 32.625 
z
M 21.09375 38.8125 
Q 14.453125 40.828125 11.078125 44.96875 
Q 7.71875 49.125 7.71875 55.328125 
Q 7.71875 64.546875 14.59375 69.375 
Q 21.484375 74.21875 34.8125 74.21875 
Q 48.046875 74.21875 54.921875 69.40625 
Q 61.8125 64.59375 61.8125 55.328125 
Q 61.8125 49.125 58.421875 44.96875 
Q 55.03125 40.828125 48.390625 38.8125 
Q 55.8125 36.765625 59.59375 32.15625 
Q 63.375 27.546875 63.375 20.515625 
Q 63.375 9.671875 56.171875 4.125 
Q 48.96875 -1.421875 34.8125 -1.421875 
Q 20.609375 -1.421875 13.359375 4.125 
Q 6.109375 9.671875 6.109375 20.515625 
Q 6.109375 27.546875 9.890625 32.15625 
Q 13.671875 36.765625 21.09375 38.8125 
z
M 25.484375 53.421875 
Q 25.484375 49.078125 27.90625 46.734375 
Q 30.328125 44.390625 34.8125 44.390625 
Q 39.203125 44.390625 41.59375 46.734375 
Q 44 49.078125 44 53.421875 
Q 44 57.765625 41.59375 60.078125 
Q 39.203125 62.40625 34.8125 62.40625 
Q 30.328125 62.40625 27.90625 60.0625 
Q 25.484375 57.71875 25.484375 53.421875 
z
" id="DejaVuSans-Bold-56"/>
       </defs>
       <use xlink:href="#DejaVuSans-Bold-48"/>
       <use x="69.580078" xlink:href="#DejaVuSans-Bold-46"/>
       <use x="107.568359" xlink:href="#DejaVuSans-Bold-56"/>
      </g>
     </g>
    </g>
    <g id="ytick_12">
     <g id="line2d_34">
      <g>
       <use style="stroke:#000000;stroke-width:0.8;" x="420.075006" xlink:href="#m0e71f88706" y="94.713342"/>
      </g>
     </g>
     <g id="text_22">
      <!-- 1.0 -->
      <g style="fill:#2ca02c;" transform="translate(427.075006 100.41217)scale(0.15 -0.15)">
       <defs>
        <path d="M 11.71875 12.984375 
L 28.328125 12.984375 
L 28.328125 60.109375 
L 11.28125 56.59375 
L 11.28125 69.390625 
L 28.21875 72.90625 
L 46.09375 72.90625 
L 46.09375 12.984375 
L 62.703125 12.984375 
L 62.703125 0 
L 11.71875 0 
z
" id="DejaVuSans-Bold-49"/>
       </defs>
       <use xlink:href="#DejaVuSans-Bold-49"/>
       <use x="69.580078" xlink:href="#DejaVuSans-Bold-46"/>
       <use x="107.568359" xlink:href="#DejaVuSans-Bold-48"/>
      </g>
     </g>
    </g>
    <g id="ytick_13">
     <g id="line2d_35">
      <g>
       <use style="stroke:#000000;stroke-width:0.8;" x="420.075006" xlink:href="#m0e71f88706" y="58.993611"/>
      </g>
     </g>
     <g id="text_23">
      <!-- 1.2 -->
      <g style="fill:#2ca02c;" transform="translate(427.075006 64.692439)scale(0.15 -0.15)">
       <use xlink:href="#DejaVuSans-Bold-49"/>
       <use x="69.580078" xlink:href="#DejaVuSans-Bold-46"/>
       <use x="107.568359" xlink:href="#DejaVuSans-Bold-50"/>
      </g>
     </g>
    </g>
    <g id="ytick_14">
     <g id="line2d_36">
      <g>
       <use style="stroke:#000000;stroke-width:0.8;" x="420.075006" xlink:href="#m0e71f88706" y="23.273879"/>
      </g>
     </g>
     <g id="text_24">
      <!-- 1.4 -->
      <g style="fill:#2ca02c;" transform="translate(427.075006 28.972707)scale(0.15 -0.15)">
       <use xlink:href="#DejaVuSans-Bold-49"/>
       <use x="69.580078" xlink:href="#DejaVuSans-Bold-46"/>
       <use x="107.568359" xlink:href="#DejaVuSans-Bold-52"/>
      </g>
     </g>
    </g>
    <g id="text_25">
     <!-- $\Omega_{\mathrm{R}}/\Gamma_{\mathrm{s}}$ -->
     <g style="fill:#2ca02c;" transform="translate(470.305097 161.8307)rotate(-90)scale(0.1666 -0.1666)">
      <defs>
       <path d="M 25.390625 72.90625 
L 33.6875 72.90625 
L 8.296875 -9.28125 
L 0 -9.28125 
z
" id="DejaVuSans-47"/>
      </defs>
      <use transform="translate(0 0.21875)" xlink:href="#DejaVuSans-937"/>
      <use transform="translate(77.373047 -16.1875)scale(0.7)" xlink:href="#DejaVuSans-82"/>
      <use transform="translate(128.745117 0.21875)" xlink:href="#DejaVuSans-47"/>
      <use transform="translate(162.436523 0.21875)" xlink:href="#DejaVuSans-915"/>
      <use transform="translate(219.106445 -16.1875)scale(0.7)" xlink:href="#DejaVuSans-115"/>
     </g>
    </g>
   </g>
   <g id="line2d_37">
    <path clip-path="url(#pfe9ccd126f)" d="M 62.782479 243.035257 
L 75.944968 241.105107 
L 87.576934 239.180202 
L 97.984484 237.239601 
L 107.47372 235.247582 
L 116.044642 233.224117 
L 123.697252 231.198404 
L 130.737653 229.114186 
L 137.165845 226.989711 
L 143.287933 224.731323 
L 148.797812 222.465339 
L 154.001586 220.084169 
L 158.899257 217.589995 
L 163.490822 214.988396 
L 167.776284 212.289188 
L 171.755641 209.507314 
L 175.428894 206.663731 
L 178.796042 203.786201 
L 182.16319 200.607143 
L 185.224234 197.413305 
L 188.285278 193.882884 
L 191.040217 190.371832 
L 193.795157 186.49381 
L 196.243992 182.690738 
L 198.692827 178.500567 
L 201.141662 173.863131 
L 203.590497 168.706055 
L 205.733228 163.699049 
L 207.875959 158.157497 
L 210.018689 151.998522 
L 212.16142 145.124288 
L 214.304151 137.42018 
L 216.446882 128.754189 
L 218.283508 120.44963 
L 220.120134 111.23497 
L 222.262865 99.220625 
L 224.405596 85.78159 
L 226.854431 68.857442 
L 230.527683 43.092402 
L 231.752101 36.258912 
L 232.36431 33.712016 
L 232.976518 32.011465 
L 233.282623 31.556492 
L 233.588727 31.41281 
L 233.894832 31.620345 
L 234.200936 32.222389 
L 234.50704 33.265601 
L 235.119249 36.878265 
L 235.731458 42.891952 
L 236.343667 51.772964 
L 236.955876 63.992065 
L 237.568084 79.97961 
L 238.486397 111.69584 
L 239.404711 152.846911 
L 240.629128 220.054758 
L 241.547441 271.017276 
L 243.384068 165.793878 
L 244.302381 123.748108 
L 245.220694 91.318667 
L 246.139007 68.421969 
L 246.751216 57.920159 
L 247.363425 50.692942 
L 247.975633 46.24403 
L 248.281738 44.909725 
L 248.587842 44.092412 
L 248.893947 43.738543 
L 249.200051 43.797985 
L 249.506155 44.224167 
L 250.118364 46.008455 
L 250.730573 48.789754 
L 251.648886 54.299305 
L 252.873304 63.183936 
L 259.6076 114.861794 
L 261.750331 128.508372 
L 263.893062 140.552477 
L 266.035792 151.157606 
L 268.178523 160.508858 
L 270.321254 168.781585 
L 272.463984 176.130803 
L 274.606715 182.689318 
L 276.749446 188.569279 
L 278.892177 193.864833 
L 281.341012 199.30196 
L 283.789847 204.17631 
L 286.238682 208.568331 
L 288.687517 212.544503 
L 291.442457 216.589054 
L 294.197396 220.242094 
L 297.25844 223.906759 
L 300.319484 227.214559 
L 303.380528 230.215059 
L 306.747676 233.209346 
L 310.420929 236.16081 
L 314.094181 238.829847 
L 318.073538 241.447812 
L 322.359 243.994326 
L 326.950565 246.454476 
L 331.848236 248.818064 
L 337.05201 251.078832 
L 342.561889 253.233729 
L 348.683977 255.3843 
L 355.112169 257.40942 
L 362.15257 259.39741 
L 369.80518 261.329926 
L 378.376103 263.259535 
L 387.559234 265.099264 
L 397.966783 266.950636 
L 409.292646 268.73532 
L 420.312404 270.284044 
L 420.312404 270.284044 
" style="fill:none;stroke:#2ca02c;stroke-linecap:square;stroke-width:2;"/>
   </g>
   <g id="patch_7">
    <path d="M 62.955006 273.312 
L 62.955006 7.2 
" style="fill:none;stroke:#000000;stroke-linecap:square;stroke-linejoin:miter;stroke-width:0.8;"/>
   </g>
   <g id="patch_8">
    <path d="M 420.075006 273.312 
L 420.075006 7.2 
" style="fill:none;stroke:#000000;stroke-linecap:square;stroke-linejoin:miter;stroke-width:0.8;"/>
   </g>
   <g id="patch_9">
    <path d="M 62.955006 273.312 
L 420.075006 273.312 
" style="fill:none;stroke:#000000;stroke-linecap:square;stroke-linejoin:miter;stroke-width:0.8;"/>
   </g>
   <g id="patch_10">
    <path d="M 62.955006 7.2 
L 420.075006 7.2 
" style="fill:none;stroke:#000000;stroke-linecap:square;stroke-linejoin:miter;stroke-width:0.8;"/>
   </g>
   <g id="legend_1">
    <g id="patch_11">
     <path d="M 74.617006 104.088312 
L 149.420406 104.088312 
Q 152.752406 104.088312 152.752406 100.756312 
L 152.752406 18.862 
Q 152.752406 15.53 149.420406 15.53 
L 74.617006 15.53 
Q 71.285006 15.53 71.285006 18.862 
L 71.285006 100.756312 
Q 71.285006 104.088312 74.617006 104.088312 
z
" style="fill:#ffffff;opacity:0.8;stroke:#cccccc;stroke-linejoin:miter;"/>
    </g>
    <g id="line2d_38">
     <path d="M 77.949006 29.021997 
L 111.269006 29.021997 
" style="fill:none;stroke:#1f77b4;stroke-linecap:square;stroke-width:1.5;"/>
    </g>
    <g id="line2d_39"/>
    <g id="text_26">
     <!-- $\Omega_{\mathrm{R}}$ -->
     <g transform="translate(124.597006 34.852997)scale(0.1666 -0.1666)">
      <use transform="translate(0 0.21875)" xlink:href="#DejaVuSans-937"/>
      <use transform="translate(77.373047 -16.1875)scale(0.7)" xlink:href="#DejaVuSans-82"/>
     </g>
    </g>
    <g id="line2d_40">
     <path d="M 77.949006 53.475753 
L 111.269006 53.475753 
" style="fill:none;stroke:#ff7f0e;stroke-linecap:square;stroke-width:1.5;"/>
    </g>
    <g id="line2d_41"/>
    <g id="text_27">
     <!-- $\Gamma_{\mathrm{s}}$ -->
     <g transform="translate(124.597006 59.306753)scale(0.1666 -0.1666)">
      <use transform="translate(0 0.09375)" xlink:href="#DejaVuSans-915"/>
      <use transform="translate(56.669922 -16.3125)scale(0.7)" xlink:href="#DejaVuSans-115"/>
     </g>
    </g>
    <g id="line2d_42">
     <path d="M 77.949006 83.096712 
L 111.269006 83.096712 
" style="fill:none;stroke:#2ca02c;stroke-linecap:square;stroke-width:2;"/>
    </g>
    <g id="line2d_43"/>
    <g id="text_28">
     <!-- $\frac{\Omega_{\mathrm{R}}}{\Gamma_{\mathrm{s}}}$ -->
     <g transform="translate(124.597006 88.927712)scale(0.1666 -0.1666)">
      <use transform="translate(0 55.353125)scale(0.7)" xlink:href="#DejaVuSans-937"/>
      <use transform="translate(54.161133 43.86875)scale(0.49)" xlink:href="#DejaVuSans-82"/>
      <use transform="translate(12 -38.415625)scale(0.7)" xlink:href="#DejaVuSans-915"/>
      <use transform="translate(51.668945 -49.9)scale(0.49)" xlink:href="#DejaVuSans-115"/>
      <path d="M 0 18.86875 
L 0 25.11875 
L 90.121582 25.11875 
L 90.121582 18.86875 
L 0 18.86875 
z
"/>
     </g>
    </g>
   </g>
  </g>
 </g>
 <defs>
  <clipPath id="pfe9ccd126f">
   <rect height="266.112" width="357.12" x="62.955006" y="7.2"/>
  </clipPath>
 </defs>
</svg>
