<?xml version="1.0" encoding="utf-8" standalone="no"?>
<!DOCTYPE svg PUBLIC "-//W3C//DTD SVG 1.1//EN"
  "http://www.w3.org/Graphics/SVG/1.1/DTD/svg11.dtd">
<!-- Created with matplotlib (https://matplotlib.org/) -->
<svg height="325.385437pt" version="1.1" viewBox="0 0 425.730937 325.385437" width="425.730937pt" xmlns="http://www.w3.org/2000/svg" xmlns:xlink="http://www.w3.org/1999/xlink">
 <defs>
  <style type="text/css">*{stroke-linecap:butt;stroke-linejoin:round;}</style>
 </defs>
 <g id="figure_1">
  <g id="patch_1">
   <path d="M 0 325.385437 
L 425.730937 325.385437 
L 425.730937 0 
L 0 0 
z
" style="fill:none;"/>
  </g>
  <g id="axes_1">
   <g id="patch_2">
    <path d="M 61.410938 273.312 
L 418.530938 273.312 
L 418.530938 7.2 
L 61.410938 7.2 
z
" style="fill:none;"/>
   </g>
   <g id="matplotlib.axis_1">
    <g id="xtick_1">
     <g id="line2d_1">
      <path clip-path="url(#pee92595c7c)" d="M 131.752756 273.312 
L 131.752756 7.2 
" style="fill:none;stroke:#b0b0b0;stroke-linecap:square;stroke-width:0.8;"/>
     </g>
     <g id="line2d_2">
      <defs>
       <path d="M 0 0 
L 0 3.5 
" id="m005f0a59be" style="stroke:#000000;stroke-width:0.8;"/>
      </defs>
      <g>
       <use style="stroke:#000000;stroke-width:0.8;" x="131.752756" xlink:href="#m005f0a59be" y="273.312"/>
      </g>
     </g>
     <g id="text_1">
      <!-- 105 -->
      <g transform="translate(117.437131 291.709656)scale(0.15 -0.15)">
       <defs>
        <path d="M 12.40625 8.296875 
L 28.515625 8.296875 
L 28.515625 63.921875 
L 10.984375 60.40625 
L 10.984375 69.390625 
L 28.421875 72.90625 
L 38.28125 72.90625 
L 38.28125 8.296875 
L 54.390625 8.296875 
L 54.390625 0 
L 12.40625 0 
z
" id="DejaVuSans-49"/>
        <path d="M 31.78125 66.40625 
Q 24.171875 66.40625 20.328125 58.90625 
Q 16.5 51.421875 16.5 36.375 
Q 16.5 21.390625 20.328125 13.890625 
Q 24.171875 6.390625 31.78125 6.390625 
Q 39.453125 6.390625 43.28125 13.890625 
Q 47.125 21.390625 47.125 36.375 
Q 47.125 51.421875 43.28125 58.90625 
Q 39.453125 66.40625 31.78125 66.40625 
z
M 31.78125 74.21875 
Q 44.046875 74.21875 50.515625 64.515625 
Q 56.984375 54.828125 56.984375 36.375 
Q 56.984375 17.96875 50.515625 8.265625 
Q 44.046875 -1.421875 31.78125 -1.421875 
Q 19.53125 -1.421875 13.0625 8.265625 
Q 6.59375 17.96875 6.59375 36.375 
Q 6.59375 54.828125 13.0625 64.515625 
Q 19.53125 74.21875 31.78125 74.21875 
z
" id="DejaVuSans-48"/>
        <path d="M 10.796875 72.90625 
L 49.515625 72.90625 
L 49.515625 64.59375 
L 19.828125 64.59375 
L 19.828125 46.734375 
Q 21.96875 47.46875 24.109375 47.828125 
Q 26.265625 48.1875 28.421875 48.1875 
Q 40.625 48.1875 47.75 41.5 
Q 54.890625 34.8125 54.890625 23.390625 
Q 54.890625 11.625 47.5625 5.09375 
Q 40.234375 -1.421875 26.90625 -1.421875 
Q 22.3125 -1.421875 17.546875 -0.640625 
Q 12.796875 0.140625 7.71875 1.703125 
L 7.71875 11.625 
Q 12.109375 9.234375 16.796875 8.0625 
Q 21.484375 6.890625 26.703125 6.890625 
Q 35.15625 6.890625 40.078125 11.328125 
Q 45.015625 15.765625 45.015625 23.390625 
Q 45.015625 31 40.078125 35.4375 
Q 35.15625 39.890625 26.703125 39.890625 
Q 22.75 39.890625 18.8125 39.015625 
Q 14.890625 38.140625 10.796875 36.28125 
z
" id="DejaVuSans-53"/>
       </defs>
       <use xlink:href="#DejaVuSans-49"/>
       <use x="63.623047" xlink:href="#DejaVuSans-48"/>
       <use x="127.246094" xlink:href="#DejaVuSans-53"/>
      </g>
     </g>
    </g>
    <g id="xtick_2">
     <g id="line2d_3">
      <path clip-path="url(#pee92595c7c)" d="M 221.934574 273.312 
L 221.934574 7.2 
" style="fill:none;stroke:#b0b0b0;stroke-linecap:square;stroke-width:0.8;"/>
     </g>
     <g id="line2d_4">
      <g>
       <use style="stroke:#000000;stroke-width:0.8;" x="221.934574" xlink:href="#m005f0a59be" y="273.312"/>
      </g>
     </g>
     <g id="text_2">
      <!-- 110 -->
      <g transform="translate(207.618949 291.709656)scale(0.15 -0.15)">
       <use xlink:href="#DejaVuSans-49"/>
       <use x="63.623047" xlink:href="#DejaVuSans-49"/>
       <use x="127.246094" xlink:href="#DejaVuSans-48"/>
      </g>
     </g>
    </g>
    <g id="xtick_3">
     <g id="line2d_5">
      <path clip-path="url(#pee92595c7c)" d="M 312.116392 273.312 
L 312.116392 7.2 
" style="fill:none;stroke:#b0b0b0;stroke-linecap:square;stroke-width:0.8;"/>
     </g>
     <g id="line2d_6">
      <g>
       <use style="stroke:#000000;stroke-width:0.8;" x="312.116392" xlink:href="#m005f0a59be" y="273.312"/>
      </g>
     </g>
     <g id="text_3">
      <!-- 115 -->
      <g transform="translate(297.800767 291.709656)scale(0.15 -0.15)">
       <use xlink:href="#DejaVuSans-49"/>
       <use x="63.623047" xlink:href="#DejaVuSans-49"/>
       <use x="127.246094" xlink:href="#DejaVuSans-53"/>
      </g>
     </g>
    </g>
    <g id="xtick_4">
     <g id="line2d_7">
      <path clip-path="url(#pee92595c7c)" d="M 402.29821 273.312 
L 402.29821 7.2 
" style="fill:none;stroke:#b0b0b0;stroke-linecap:square;stroke-width:0.8;"/>
     </g>
     <g id="line2d_8">
      <g>
       <use style="stroke:#000000;stroke-width:0.8;" x="402.29821" xlink:href="#m005f0a59be" y="273.312"/>
      </g>
     </g>
     <g id="text_4">
      <!-- 120 -->
      <g transform="translate(387.982585 291.709656)scale(0.15 -0.15)">
       <defs>
        <path d="M 19.1875 8.296875 
L 53.609375 8.296875 
L 53.609375 0 
L 7.328125 0 
L 7.328125 8.296875 
Q 12.9375 14.109375 22.625 23.890625 
Q 32.328125 33.6875 34.8125 36.53125 
Q 39.546875 41.84375 41.421875 45.53125 
Q 43.3125 49.21875 43.3125 52.78125 
Q 43.3125 58.59375 39.234375 62.25 
Q 35.15625 65.921875 28.609375 65.921875 
Q 23.96875 65.921875 18.8125 64.3125 
Q 13.671875 62.703125 7.8125 59.421875 
L 7.8125 69.390625 
Q 13.765625 71.78125 18.9375 73 
Q 24.125 74.21875 28.421875 74.21875 
Q 39.75 74.21875 46.484375 68.546875 
Q 53.21875 62.890625 53.21875 53.421875 
Q 53.21875 48.921875 51.53125 44.890625 
Q 49.859375 40.875 45.40625 35.40625 
Q 44.1875 33.984375 37.640625 27.21875 
Q 31.109375 20.453125 19.1875 8.296875 
z
" id="DejaVuSans-50"/>
       </defs>
       <use xlink:href="#DejaVuSans-49"/>
       <use x="63.623047" xlink:href="#DejaVuSans-50"/>
       <use x="127.246094" xlink:href="#DejaVuSans-48"/>
      </g>
     </g>
    </g>
    <g id="text_5">
     <!-- Raman Frequency (MHz) -->
     <g transform="translate(117.6975 314.026062)scale(0.2 -0.2)">
      <defs>
       <path d="M 44.390625 34.1875 
Q 47.5625 33.109375 50.5625 29.59375 
Q 53.5625 26.078125 56.59375 19.921875 
L 66.609375 0 
L 56 0 
L 46.6875 18.703125 
Q 43.0625 26.03125 39.671875 28.421875 
Q 36.28125 30.8125 30.421875 30.8125 
L 19.671875 30.8125 
L 19.671875 0 
L 9.8125 0 
L 9.8125 72.90625 
L 32.078125 72.90625 
Q 44.578125 72.90625 50.734375 67.671875 
Q 56.890625 62.453125 56.890625 51.90625 
Q 56.890625 45.015625 53.6875 40.46875 
Q 50.484375 35.9375 44.390625 34.1875 
z
M 19.671875 64.796875 
L 19.671875 38.921875 
L 32.078125 38.921875 
Q 39.203125 38.921875 42.84375 42.21875 
Q 46.484375 45.515625 46.484375 51.90625 
Q 46.484375 58.296875 42.84375 61.546875 
Q 39.203125 64.796875 32.078125 64.796875 
z
" id="DejaVuSans-82"/>
       <path d="M 34.28125 27.484375 
Q 23.390625 27.484375 19.1875 25 
Q 14.984375 22.515625 14.984375 16.5 
Q 14.984375 11.71875 18.140625 8.90625 
Q 21.296875 6.109375 26.703125 6.109375 
Q 34.1875 6.109375 38.703125 11.40625 
Q 43.21875 16.703125 43.21875 25.484375 
L 43.21875 27.484375 
z
M 52.203125 31.203125 
L 52.203125 0 
L 43.21875 0 
L 43.21875 8.296875 
Q 40.140625 3.328125 35.546875 0.953125 
Q 30.953125 -1.421875 24.3125 -1.421875 
Q 15.921875 -1.421875 10.953125 3.296875 
Q 6 8.015625 6 15.921875 
Q 6 25.140625 12.171875 29.828125 
Q 18.359375 34.515625 30.609375 34.515625 
L 43.21875 34.515625 
L 43.21875 35.40625 
Q 43.21875 41.609375 39.140625 45 
Q 35.0625 48.390625 27.6875 48.390625 
Q 23 48.390625 18.546875 47.265625 
Q 14.109375 46.140625 10.015625 43.890625 
L 10.015625 52.203125 
Q 14.9375 54.109375 19.578125 55.046875 
Q 24.21875 56 28.609375 56 
Q 40.484375 56 46.34375 49.84375 
Q 52.203125 43.703125 52.203125 31.203125 
z
" id="DejaVuSans-97"/>
       <path d="M 52 44.1875 
Q 55.375 50.25 60.0625 53.125 
Q 64.75 56 71.09375 56 
Q 79.640625 56 84.28125 50.015625 
Q 88.921875 44.046875 88.921875 33.015625 
L 88.921875 0 
L 79.890625 0 
L 79.890625 32.71875 
Q 79.890625 40.578125 77.09375 44.375 
Q 74.3125 48.1875 68.609375 48.1875 
Q 61.625 48.1875 57.5625 43.546875 
Q 53.515625 38.921875 53.515625 30.90625 
L 53.515625 0 
L 44.484375 0 
L 44.484375 32.71875 
Q 44.484375 40.625 41.703125 44.40625 
Q 38.921875 48.1875 33.109375 48.1875 
Q 26.21875 48.1875 22.15625 43.53125 
Q 18.109375 38.875 18.109375 30.90625 
L 18.109375 0 
L 9.078125 0 
L 9.078125 54.6875 
L 18.109375 54.6875 
L 18.109375 46.1875 
Q 21.1875 51.21875 25.484375 53.609375 
Q 29.78125 56 35.6875 56 
Q 41.65625 56 45.828125 52.96875 
Q 50 49.953125 52 44.1875 
z
" id="DejaVuSans-109"/>
       <path d="M 54.890625 33.015625 
L 54.890625 0 
L 45.90625 0 
L 45.90625 32.71875 
Q 45.90625 40.484375 42.875 44.328125 
Q 39.84375 48.1875 33.796875 48.1875 
Q 26.515625 48.1875 22.3125 43.546875 
Q 18.109375 38.921875 18.109375 30.90625 
L 18.109375 0 
L 9.078125 0 
L 9.078125 54.6875 
L 18.109375 54.6875 
L 18.109375 46.1875 
Q 21.34375 51.125 25.703125 53.5625 
Q 30.078125 56 35.796875 56 
Q 45.21875 56 50.046875 50.171875 
Q 54.890625 44.34375 54.890625 33.015625 
z
" id="DejaVuSans-110"/>
       <path id="DejaVuSans-32"/>
       <path d="M 9.8125 72.90625 
L 51.703125 72.90625 
L 51.703125 64.59375 
L 19.671875 64.59375 
L 19.671875 43.109375 
L 48.578125 43.109375 
L 48.578125 34.8125 
L 19.671875 34.8125 
L 19.671875 0 
L 9.8125 0 
z
" id="DejaVuSans-70"/>
       <path d="M 41.109375 46.296875 
Q 39.59375 47.171875 37.8125 47.578125 
Q 36.03125 48 33.890625 48 
Q 26.265625 48 22.1875 43.046875 
Q 18.109375 38.09375 18.109375 28.8125 
L 18.109375 0 
L 9.078125 0 
L 9.078125 54.6875 
L 18.109375 54.6875 
L 18.109375 46.1875 
Q 20.953125 51.171875 25.484375 53.578125 
Q 30.03125 56 36.53125 56 
Q 37.453125 56 38.578125 55.875 
Q 39.703125 55.765625 41.0625 55.515625 
z
" id="DejaVuSans-114"/>
       <path d="M 56.203125 29.59375 
L 56.203125 25.203125 
L 14.890625 25.203125 
Q 15.484375 15.921875 20.484375 11.0625 
Q 25.484375 6.203125 34.421875 6.203125 
Q 39.59375 6.203125 44.453125 7.46875 
Q 49.3125 8.734375 54.109375 11.28125 
L 54.109375 2.78125 
Q 49.265625 0.734375 44.1875 -0.34375 
Q 39.109375 -1.421875 33.890625 -1.421875 
Q 20.796875 -1.421875 13.15625 6.1875 
Q 5.515625 13.8125 5.515625 26.8125 
Q 5.515625 40.234375 12.765625 48.109375 
Q 20.015625 56 32.328125 56 
Q 43.359375 56 49.78125 48.890625 
Q 56.203125 41.796875 56.203125 29.59375 
z
M 47.21875 32.234375 
Q 47.125 39.59375 43.09375 43.984375 
Q 39.0625 48.390625 32.421875 48.390625 
Q 24.90625 48.390625 20.390625 44.140625 
Q 15.875 39.890625 15.1875 32.171875 
z
" id="DejaVuSans-101"/>
       <path d="M 14.796875 27.296875 
Q 14.796875 17.390625 18.875 11.75 
Q 22.953125 6.109375 30.078125 6.109375 
Q 37.203125 6.109375 41.296875 11.75 
Q 45.40625 17.390625 45.40625 27.296875 
Q 45.40625 37.203125 41.296875 42.84375 
Q 37.203125 48.484375 30.078125 48.484375 
Q 22.953125 48.484375 18.875 42.84375 
Q 14.796875 37.203125 14.796875 27.296875 
z
M 45.40625 8.203125 
Q 42.578125 3.328125 38.25 0.953125 
Q 33.9375 -1.421875 27.875 -1.421875 
Q 17.96875 -1.421875 11.734375 6.484375 
Q 5.515625 14.40625 5.515625 27.296875 
Q 5.515625 40.1875 11.734375 48.09375 
Q 17.96875 56 27.875 56 
Q 33.9375 56 38.25 53.625 
Q 42.578125 51.265625 45.40625 46.390625 
L 45.40625 54.6875 
L 54.390625 54.6875 
L 54.390625 -20.796875 
L 45.40625 -20.796875 
z
" id="DejaVuSans-113"/>
       <path d="M 8.5 21.578125 
L 8.5 54.6875 
L 17.484375 54.6875 
L 17.484375 21.921875 
Q 17.484375 14.15625 20.5 10.265625 
Q 23.53125 6.390625 29.59375 6.390625 
Q 36.859375 6.390625 41.078125 11.03125 
Q 45.3125 15.671875 45.3125 23.6875 
L 45.3125 54.6875 
L 54.296875 54.6875 
L 54.296875 0 
L 45.3125 0 
L 45.3125 8.40625 
Q 42.046875 3.421875 37.71875 1 
Q 33.40625 -1.421875 27.6875 -1.421875 
Q 18.265625 -1.421875 13.375 4.4375 
Q 8.5 10.296875 8.5 21.578125 
z
M 31.109375 56 
z
" id="DejaVuSans-117"/>
       <path d="M 48.78125 52.59375 
L 48.78125 44.1875 
Q 44.96875 46.296875 41.140625 47.34375 
Q 37.3125 48.390625 33.40625 48.390625 
Q 24.65625 48.390625 19.8125 42.84375 
Q 14.984375 37.3125 14.984375 27.296875 
Q 14.984375 17.28125 19.8125 11.734375 
Q 24.65625 6.203125 33.40625 6.203125 
Q 37.3125 6.203125 41.140625 7.25 
Q 44.96875 8.296875 48.78125 10.40625 
L 48.78125 2.09375 
Q 45.015625 0.34375 40.984375 -0.53125 
Q 36.96875 -1.421875 32.421875 -1.421875 
Q 20.0625 -1.421875 12.78125 6.34375 
Q 5.515625 14.109375 5.515625 27.296875 
Q 5.515625 40.671875 12.859375 48.328125 
Q 20.21875 56 33.015625 56 
Q 37.15625 56 41.109375 55.140625 
Q 45.0625 54.296875 48.78125 52.59375 
z
" id="DejaVuSans-99"/>
       <path d="M 32.171875 -5.078125 
Q 28.375 -14.84375 24.75 -17.8125 
Q 21.140625 -20.796875 15.09375 -20.796875 
L 7.90625 -20.796875 
L 7.90625 -13.28125 
L 13.1875 -13.28125 
Q 16.890625 -13.28125 18.9375 -11.515625 
Q 21 -9.765625 23.484375 -3.21875 
L 25.09375 0.875 
L 2.984375 54.6875 
L 12.5 54.6875 
L 29.59375 11.921875 
L 46.6875 54.6875 
L 56.203125 54.6875 
z
" id="DejaVuSans-121"/>
       <path d="M 31 75.875 
Q 24.46875 64.65625 21.28125 53.65625 
Q 18.109375 42.671875 18.109375 31.390625 
Q 18.109375 20.125 21.3125 9.0625 
Q 24.515625 -2 31 -13.1875 
L 23.1875 -13.1875 
Q 15.875 -1.703125 12.234375 9.375 
Q 8.59375 20.453125 8.59375 31.390625 
Q 8.59375 42.28125 12.203125 53.3125 
Q 15.828125 64.359375 23.1875 75.875 
z
" id="DejaVuSans-40"/>
       <path d="M 9.8125 72.90625 
L 24.515625 72.90625 
L 43.109375 23.296875 
L 61.8125 72.90625 
L 76.515625 72.90625 
L 76.515625 0 
L 66.890625 0 
L 66.890625 64.015625 
L 48.09375 14.015625 
L 38.1875 14.015625 
L 19.390625 64.015625 
L 19.390625 0 
L 9.8125 0 
z
" id="DejaVuSans-77"/>
       <path d="M 9.8125 72.90625 
L 19.671875 72.90625 
L 19.671875 43.015625 
L 55.515625 43.015625 
L 55.515625 72.90625 
L 65.375 72.90625 
L 65.375 0 
L 55.515625 0 
L 55.515625 34.71875 
L 19.671875 34.71875 
L 19.671875 0 
L 9.8125 0 
z
" id="DejaVuSans-72"/>
       <path d="M 5.515625 54.6875 
L 48.1875 54.6875 
L 48.1875 46.484375 
L 14.40625 7.171875 
L 48.1875 7.171875 
L 48.1875 0 
L 4.296875 0 
L 4.296875 8.203125 
L 38.09375 47.515625 
L 5.515625 47.515625 
z
" id="DejaVuSans-122"/>
       <path d="M 8.015625 75.875 
L 15.828125 75.875 
Q 23.140625 64.359375 26.78125 53.3125 
Q 30.421875 42.28125 30.421875 31.390625 
Q 30.421875 20.453125 26.78125 9.375 
Q 23.140625 -1.703125 15.828125 -13.1875 
L 8.015625 -13.1875 
Q 14.5 -2 17.703125 9.0625 
Q 20.90625 20.125 20.90625 31.390625 
Q 20.90625 42.671875 17.703125 53.65625 
Q 14.5 64.65625 8.015625 75.875 
z
" id="DejaVuSans-41"/>
      </defs>
      <use xlink:href="#DejaVuSans-82"/>
      <use x="67.232422" xlink:href="#DejaVuSans-97"/>
      <use x="128.511719" xlink:href="#DejaVuSans-109"/>
      <use x="225.923828" xlink:href="#DejaVuSans-97"/>
      <use x="287.203125" xlink:href="#DejaVuSans-110"/>
      <use x="350.582031" xlink:href="#DejaVuSans-32"/>
      <use x="382.369141" xlink:href="#DejaVuSans-70"/>
      <use x="432.638672" xlink:href="#DejaVuSans-114"/>
      <use x="471.501953" xlink:href="#DejaVuSans-101"/>
      <use x="533.025391" xlink:href="#DejaVuSans-113"/>
      <use x="596.501953" xlink:href="#DejaVuSans-117"/>
      <use x="659.880859" xlink:href="#DejaVuSans-101"/>
      <use x="721.404297" xlink:href="#DejaVuSans-110"/>
      <use x="784.783203" xlink:href="#DejaVuSans-99"/>
      <use x="839.763672" xlink:href="#DejaVuSans-121"/>
      <use x="898.943359" xlink:href="#DejaVuSans-32"/>
      <use x="930.730469" xlink:href="#DejaVuSans-40"/>
      <use x="969.744141" xlink:href="#DejaVuSans-77"/>
      <use x="1056.023438" xlink:href="#DejaVuSans-72"/>
      <use x="1131.21875" xlink:href="#DejaVuSans-122"/>
      <use x="1183.708984" xlink:href="#DejaVuSans-41"/>
     </g>
    </g>
   </g>
   <g id="matplotlib.axis_2">
    <g id="ytick_1">
     <g id="line2d_9">
      <path clip-path="url(#pee92595c7c)" d="M 61.410938 265.102071 
L 418.530938 265.102071 
" style="fill:none;stroke:#b0b0b0;stroke-linecap:square;stroke-width:0.8;"/>
     </g>
     <g id="line2d_10">
      <defs>
       <path d="M 0 0 
L -3.5 0 
" id="mc3ce260a5b" style="stroke:#000000;stroke-width:0.8;"/>
      </defs>
      <g>
       <use style="stroke:#000000;stroke-width:0.8;" x="61.410938" xlink:href="#mc3ce260a5b" y="265.102071"/>
      </g>
     </g>
     <g id="text_6">
      <!-- 0.0 -->
      <g transform="translate(30.55625 270.800899)scale(0.15 -0.15)">
       <defs>
        <path d="M 10.6875 12.40625 
L 21 12.40625 
L 21 0 
L 10.6875 0 
z
" id="DejaVuSans-46"/>
       </defs>
       <use xlink:href="#DejaVuSans-48"/>
       <use x="63.623047" xlink:href="#DejaVuSans-46"/>
       <use x="95.410156" xlink:href="#DejaVuSans-48"/>
      </g>
     </g>
    </g>
    <g id="ytick_2">
     <g id="line2d_11">
      <path clip-path="url(#pee92595c7c)" d="M 61.410938 221.935626 
L 418.530938 221.935626 
" style="fill:none;stroke:#b0b0b0;stroke-linecap:square;stroke-width:0.8;"/>
     </g>
     <g id="line2d_12">
      <g>
       <use style="stroke:#000000;stroke-width:0.8;" x="61.410938" xlink:href="#mc3ce260a5b" y="221.935626"/>
      </g>
     </g>
     <g id="text_7">
      <!-- 0.1 -->
      <g transform="translate(30.55625 227.634454)scale(0.15 -0.15)">
       <use xlink:href="#DejaVuSans-48"/>
       <use x="63.623047" xlink:href="#DejaVuSans-46"/>
       <use x="95.410156" xlink:href="#DejaVuSans-49"/>
      </g>
     </g>
    </g>
    <g id="ytick_3">
     <g id="line2d_13">
      <path clip-path="url(#pee92595c7c)" d="M 61.410938 178.769181 
L 418.530938 178.769181 
" style="fill:none;stroke:#b0b0b0;stroke-linecap:square;stroke-width:0.8;"/>
     </g>
     <g id="line2d_14">
      <g>
       <use style="stroke:#000000;stroke-width:0.8;" x="61.410938" xlink:href="#mc3ce260a5b" y="178.769181"/>
      </g>
     </g>
     <g id="text_8">
      <!-- 0.2 -->
      <g transform="translate(30.55625 184.468009)scale(0.15 -0.15)">
       <use xlink:href="#DejaVuSans-48"/>
       <use x="63.623047" xlink:href="#DejaVuSans-46"/>
       <use x="95.410156" xlink:href="#DejaVuSans-50"/>
      </g>
     </g>
    </g>
    <g id="ytick_4">
     <g id="line2d_15">
      <path clip-path="url(#pee92595c7c)" d="M 61.410938 135.602736 
L 418.530938 135.602736 
" style="fill:none;stroke:#b0b0b0;stroke-linecap:square;stroke-width:0.8;"/>
     </g>
     <g id="line2d_16">
      <g>
       <use style="stroke:#000000;stroke-width:0.8;" x="61.410938" xlink:href="#mc3ce260a5b" y="135.602736"/>
      </g>
     </g>
     <g id="text_9">
      <!-- 0.3 -->
      <g transform="translate(30.55625 141.301564)scale(0.15 -0.15)">
       <defs>
        <path d="M 40.578125 39.3125 
Q 47.65625 37.796875 51.625 33 
Q 55.609375 28.21875 55.609375 21.1875 
Q 55.609375 10.40625 48.1875 4.484375 
Q 40.765625 -1.421875 27.09375 -1.421875 
Q 22.515625 -1.421875 17.65625 -0.515625 
Q 12.796875 0.390625 7.625 2.203125 
L 7.625 11.71875 
Q 11.71875 9.328125 16.59375 8.109375 
Q 21.484375 6.890625 26.8125 6.890625 
Q 36.078125 6.890625 40.9375 10.546875 
Q 45.796875 14.203125 45.796875 21.1875 
Q 45.796875 27.640625 41.28125 31.265625 
Q 36.765625 34.90625 28.71875 34.90625 
L 20.21875 34.90625 
L 20.21875 43.015625 
L 29.109375 43.015625 
Q 36.375 43.015625 40.234375 45.921875 
Q 44.09375 48.828125 44.09375 54.296875 
Q 44.09375 59.90625 40.109375 62.90625 
Q 36.140625 65.921875 28.71875 65.921875 
Q 24.65625 65.921875 20.015625 65.03125 
Q 15.375 64.15625 9.8125 62.3125 
L 9.8125 71.09375 
Q 15.4375 72.65625 20.34375 73.4375 
Q 25.25 74.21875 29.59375 74.21875 
Q 40.828125 74.21875 47.359375 69.109375 
Q 53.90625 64.015625 53.90625 55.328125 
Q 53.90625 49.265625 50.4375 45.09375 
Q 46.96875 40.921875 40.578125 39.3125 
z
" id="DejaVuSans-51"/>
       </defs>
       <use xlink:href="#DejaVuSans-48"/>
       <use x="63.623047" xlink:href="#DejaVuSans-46"/>
       <use x="95.410156" xlink:href="#DejaVuSans-51"/>
      </g>
     </g>
    </g>
    <g id="ytick_5">
     <g id="line2d_17">
      <path clip-path="url(#pee92595c7c)" d="M 61.410938 92.436291 
L 418.530938 92.436291 
" style="fill:none;stroke:#b0b0b0;stroke-linecap:square;stroke-width:0.8;"/>
     </g>
     <g id="line2d_18">
      <g>
       <use style="stroke:#000000;stroke-width:0.8;" x="61.410938" xlink:href="#mc3ce260a5b" y="92.436291"/>
      </g>
     </g>
     <g id="text_10">
      <!-- 0.4 -->
      <g transform="translate(30.55625 98.135119)scale(0.15 -0.15)">
       <defs>
        <path d="M 37.796875 64.3125 
L 12.890625 25.390625 
L 37.796875 25.390625 
z
M 35.203125 72.90625 
L 47.609375 72.90625 
L 47.609375 25.390625 
L 58.015625 25.390625 
L 58.015625 17.1875 
L 47.609375 17.1875 
L 47.609375 0 
L 37.796875 0 
L 37.796875 17.1875 
L 4.890625 17.1875 
L 4.890625 26.703125 
z
" id="DejaVuSans-52"/>
       </defs>
       <use xlink:href="#DejaVuSans-48"/>
       <use x="63.623047" xlink:href="#DejaVuSans-46"/>
       <use x="95.410156" xlink:href="#DejaVuSans-52"/>
      </g>
     </g>
    </g>
    <g id="ytick_6">
     <g id="line2d_19">
      <path clip-path="url(#pee92595c7c)" d="M 61.410938 49.269846 
L 418.530938 49.269846 
" style="fill:none;stroke:#b0b0b0;stroke-linecap:square;stroke-width:0.8;"/>
     </g>
     <g id="line2d_20">
      <g>
       <use style="stroke:#000000;stroke-width:0.8;" x="61.410938" xlink:href="#mc3ce260a5b" y="49.269846"/>
      </g>
     </g>
     <g id="text_11">
      <!-- 0.5 -->
      <g transform="translate(30.55625 54.968674)scale(0.15 -0.15)">
       <use xlink:href="#DejaVuSans-48"/>
       <use x="63.623047" xlink:href="#DejaVuSans-46"/>
       <use x="95.410156" xlink:href="#DejaVuSans-53"/>
      </g>
     </g>
    </g>
    <g id="text_12">
     <!-- Atom Survival -->
     <g transform="translate(22.396875 210.198187)rotate(-90)scale(0.2 -0.2)">
      <defs>
       <path d="M 34.1875 63.1875 
L 20.796875 26.90625 
L 47.609375 26.90625 
z
M 28.609375 72.90625 
L 39.796875 72.90625 
L 67.578125 0 
L 57.328125 0 
L 50.6875 18.703125 
L 17.828125 18.703125 
L 11.1875 0 
L 0.78125 0 
z
" id="DejaVuSans-65"/>
       <path d="M 18.3125 70.21875 
L 18.3125 54.6875 
L 36.8125 54.6875 
L 36.8125 47.703125 
L 18.3125 47.703125 
L 18.3125 18.015625 
Q 18.3125 11.328125 20.140625 9.421875 
Q 21.96875 7.515625 27.59375 7.515625 
L 36.8125 7.515625 
L 36.8125 0 
L 27.59375 0 
Q 17.1875 0 13.234375 3.875 
Q 9.28125 7.765625 9.28125 18.015625 
L 9.28125 47.703125 
L 2.6875 47.703125 
L 2.6875 54.6875 
L 9.28125 54.6875 
L 9.28125 70.21875 
z
" id="DejaVuSans-116"/>
       <path d="M 30.609375 48.390625 
Q 23.390625 48.390625 19.1875 42.75 
Q 14.984375 37.109375 14.984375 27.296875 
Q 14.984375 17.484375 19.15625 11.84375 
Q 23.34375 6.203125 30.609375 6.203125 
Q 37.796875 6.203125 41.984375 11.859375 
Q 46.1875 17.53125 46.1875 27.296875 
Q 46.1875 37.015625 41.984375 42.703125 
Q 37.796875 48.390625 30.609375 48.390625 
z
M 30.609375 56 
Q 42.328125 56 49.015625 48.375 
Q 55.71875 40.765625 55.71875 27.296875 
Q 55.71875 13.875 49.015625 6.21875 
Q 42.328125 -1.421875 30.609375 -1.421875 
Q 18.84375 -1.421875 12.171875 6.21875 
Q 5.515625 13.875 5.515625 27.296875 
Q 5.515625 40.765625 12.171875 48.375 
Q 18.84375 56 30.609375 56 
z
" id="DejaVuSans-111"/>
       <path d="M 53.515625 70.515625 
L 53.515625 60.890625 
Q 47.90625 63.578125 42.921875 64.890625 
Q 37.9375 66.21875 33.296875 66.21875 
Q 25.25 66.21875 20.875 63.09375 
Q 16.5 59.96875 16.5 54.203125 
Q 16.5 49.359375 19.40625 46.890625 
Q 22.3125 44.4375 30.421875 42.921875 
L 36.375 41.703125 
Q 47.40625 39.59375 52.65625 34.296875 
Q 57.90625 29 57.90625 20.125 
Q 57.90625 9.515625 50.796875 4.046875 
Q 43.703125 -1.421875 29.984375 -1.421875 
Q 24.8125 -1.421875 18.96875 -0.25 
Q 13.140625 0.921875 6.890625 3.21875 
L 6.890625 13.375 
Q 12.890625 10.015625 18.65625 8.296875 
Q 24.421875 6.59375 29.984375 6.59375 
Q 38.421875 6.59375 43.015625 9.90625 
Q 47.609375 13.234375 47.609375 19.390625 
Q 47.609375 24.75 44.3125 27.78125 
Q 41.015625 30.8125 33.5 32.328125 
L 27.484375 33.5 
Q 16.453125 35.6875 11.515625 40.375 
Q 6.59375 45.0625 6.59375 53.421875 
Q 6.59375 63.09375 13.40625 68.65625 
Q 20.21875 74.21875 32.171875 74.21875 
Q 37.3125 74.21875 42.625 73.28125 
Q 47.953125 72.359375 53.515625 70.515625 
z
" id="DejaVuSans-83"/>
       <path d="M 2.984375 54.6875 
L 12.5 54.6875 
L 29.59375 8.796875 
L 46.6875 54.6875 
L 56.203125 54.6875 
L 35.6875 0 
L 23.484375 0 
z
" id="DejaVuSans-118"/>
       <path d="M 9.421875 54.6875 
L 18.40625 54.6875 
L 18.40625 0 
L 9.421875 0 
z
M 9.421875 75.984375 
L 18.40625 75.984375 
L 18.40625 64.59375 
L 9.421875 64.59375 
z
" id="DejaVuSans-105"/>
       <path d="M 9.421875 75.984375 
L 18.40625 75.984375 
L 18.40625 0 
L 9.421875 0 
z
" id="DejaVuSans-108"/>
      </defs>
      <use xlink:href="#DejaVuSans-65"/>
      <use x="66.658203" xlink:href="#DejaVuSans-116"/>
      <use x="105.867188" xlink:href="#DejaVuSans-111"/>
      <use x="167.048828" xlink:href="#DejaVuSans-109"/>
      <use x="264.460938" xlink:href="#DejaVuSans-32"/>
      <use x="296.248047" xlink:href="#DejaVuSans-83"/>
      <use x="359.724609" xlink:href="#DejaVuSans-117"/>
      <use x="423.103516" xlink:href="#DejaVuSans-114"/>
      <use x="464.216797" xlink:href="#DejaVuSans-118"/>
      <use x="523.396484" xlink:href="#DejaVuSans-105"/>
      <use x="551.179688" xlink:href="#DejaVuSans-118"/>
      <use x="610.359375" xlink:href="#DejaVuSans-97"/>
      <use x="671.638672" xlink:href="#DejaVuSans-108"/>
     </g>
    </g>
   </g>
   <g id="LineCollection_1">
    <path clip-path="url(#pee92595c7c)" d="M 77.643665 63.387085 
L 77.643665 33.015655 
" style="fill:none;stroke:#1f77b4;stroke-width:1.5;"/>
    <path clip-path="url(#pee92595c7c)" d="M 79.808028 87.087745 
L 79.808028 56.184015 
" style="fill:none;stroke:#1f77b4;stroke-width:1.5;"/>
    <path clip-path="url(#pee92595c7c)" d="M 81.972392 93.003175 
L 81.972392 61.53623 
" style="fill:none;stroke:#1f77b4;stroke-width:1.5;"/>
    <path clip-path="url(#pee92595c7c)" d="M 84.136756 85.608492 
L 84.136756 55.459718 
" style="fill:none;stroke:#1f77b4;stroke-width:1.5;"/>
    <path clip-path="url(#pee92595c7c)" d="M 86.301119 102.97883 
L 86.301119 72.6438 
" style="fill:none;stroke:#1f77b4;stroke-width:1.5;"/>
    <path clip-path="url(#pee92595c7c)" d="M 88.465483 110.822701 
L 88.465483 81.823934 
" style="fill:none;stroke:#1f77b4;stroke-width:1.5;"/>
    <path clip-path="url(#pee92595c7c)" d="M 90.629847 115.989974 
L 90.629847 86.061092 
" style="fill:none;stroke:#1f77b4;stroke-width:1.5;"/>
    <path clip-path="url(#pee92595c7c)" d="M 92.79421 88.024983 
L 92.79421 57.761565 
" style="fill:none;stroke:#1f77b4;stroke-width:1.5;"/>
    <path clip-path="url(#pee92595c7c)" d="M 94.958574 95.766338 
L 94.958574 65.943762 
" style="fill:none;stroke:#1f77b4;stroke-width:1.5;"/>
    <path clip-path="url(#pee92595c7c)" d="M 97.122938 91.426671 
L 97.122938 59.580523 
" style="fill:none;stroke:#1f77b4;stroke-width:1.5;"/>
    <path clip-path="url(#pee92595c7c)" d="M 99.287301 78.416072 
L 99.287301 48.764864 
" style="fill:none;stroke:#1f77b4;stroke-width:1.5;"/>
    <path clip-path="url(#pee92595c7c)" d="M 101.451665 76.781428 
L 101.451665 45.091478 
" style="fill:none;stroke:#1f77b4;stroke-width:1.5;"/>
    <path clip-path="url(#pee92595c7c)" d="M 103.616028 75.098418 
L 103.616028 45.629635 
" style="fill:none;stroke:#1f77b4;stroke-width:1.5;"/>
    <path clip-path="url(#pee92595c7c)" d="M 105.780392 74.946119 
L 105.780392 43.827844 
" style="fill:none;stroke:#1f77b4;stroke-width:1.5;"/>
    <path clip-path="url(#pee92595c7c)" d="M 107.944756 81.918216 
L 107.944756 50.700248 
" style="fill:none;stroke:#1f77b4;stroke-width:1.5;"/>
    <path clip-path="url(#pee92595c7c)" d="M 110.109119 87.087745 
L 110.109119 56.184015 
" style="fill:none;stroke:#1f77b4;stroke-width:1.5;"/>
    <path clip-path="url(#pee92595c7c)" d="M 112.273483 88.048945 
L 112.273483 56.055329 
" style="fill:none;stroke:#1f77b4;stroke-width:1.5;"/>
    <path clip-path="url(#pee92595c7c)" d="M 114.437847 117.480399 
L 114.437847 86.629403 
" style="fill:none;stroke:#1f77b4;stroke-width:1.5;"/>
    <path clip-path="url(#pee92595c7c)" d="M 116.60221 71.19178 
L 116.60221 39.206826 
" style="fill:none;stroke:#1f77b4;stroke-width:1.5;"/>
    <path clip-path="url(#pee92595c7c)" d="M 118.766574 99.931756 
L 118.766574 69.037399 
" style="fill:none;stroke:#1f77b4;stroke-width:1.5;"/>
    <path clip-path="url(#pee92595c7c)" d="M 120.930938 82.722977 
L 120.930938 51.006752 
" style="fill:none;stroke:#1f77b4;stroke-width:1.5;"/>
    <path clip-path="url(#pee92595c7c)" d="M 123.095301 110.848196 
L 123.095301 80.665378 
" style="fill:none;stroke:#1f77b4;stroke-width:1.5;"/>
    <path clip-path="url(#pee92595c7c)" d="M 125.259665 117.657854 
L 125.259665 87.066677 
" style="fill:none;stroke:#1f77b4;stroke-width:1.5;"/>
    <path clip-path="url(#pee92595c7c)" d="M 127.424028 73.071692 
L 127.424028 42.648675 
" style="fill:none;stroke:#1f77b4;stroke-width:1.5;"/>
    <path clip-path="url(#pee92595c7c)" d="M 129.588392 60.195279 
L 129.588392 29.754076 
" style="fill:none;stroke:#1f77b4;stroke-width:1.5;"/>
    <path clip-path="url(#pee92595c7c)" d="M 131.752756 58.055292 
L 131.752756 27.469392 
" style="fill:none;stroke:#1f77b4;stroke-width:1.5;"/>
    <path clip-path="url(#pee92595c7c)" d="M 133.917119 93.788721 
L 133.917119 61.988247 
" style="fill:none;stroke:#1f77b4;stroke-width:1.5;"/>
    <path clip-path="url(#pee92595c7c)" d="M 136.081483 90.426984 
L 136.081483 58.473561 
" style="fill:none;stroke:#1f77b4;stroke-width:1.5;"/>
    <path clip-path="url(#pee92595c7c)" d="M 138.245847 95.31297 
L 138.245847 63.893077 
" style="fill:none;stroke:#1f77b4;stroke-width:1.5;"/>
    <path clip-path="url(#pee92595c7c)" d="M 140.41021 86.06234 
L 140.41021 54.477137 
" style="fill:none;stroke:#1f77b4;stroke-width:1.5;"/>
    <path clip-path="url(#pee92595c7c)" d="M 142.574574 87.412716 
L 142.574574 56.909569 
" style="fill:none;stroke:#1f77b4;stroke-width:1.5;"/>
    <path clip-path="url(#pee92595c7c)" d="M 144.738938 64.199273 
L 144.738938 34.340419 
" style="fill:none;stroke:#1f77b4;stroke-width:1.5;"/>
    <path clip-path="url(#pee92595c7c)" d="M 146.903301 67.696431 
L 146.903301 35.613035 
" style="fill:none;stroke:#1f77b4;stroke-width:1.5;"/>
    <path clip-path="url(#pee92595c7c)" d="M 149.067665 74.644575 
L 149.067665 42.765694 
" style="fill:none;stroke:#1f77b4;stroke-width:1.5;"/>
    <path clip-path="url(#pee92595c7c)" d="M 151.232028 107.369926 
L 151.232028 76.087363 
" style="fill:none;stroke:#1f77b4;stroke-width:1.5;"/>
    <path clip-path="url(#pee92595c7c)" d="M 153.396392 78.870552 
L 153.396392 47.369533 
" style="fill:none;stroke:#1f77b4;stroke-width:1.5;"/>
    <path clip-path="url(#pee92595c7c)" d="M 155.560756 85.399621 
L 155.560756 55.899286 
" style="fill:none;stroke:#1f77b4;stroke-width:1.5;"/>
    <path clip-path="url(#pee92595c7c)" d="M 157.725119 87.722115 
L 157.725119 57.06734 
" style="fill:none;stroke:#1f77b4;stroke-width:1.5;"/>
    <path clip-path="url(#pee92595c7c)" d="M 159.889483 65.401904 
L 159.889483 33.137788 
" style="fill:none;stroke:#1f77b4;stroke-width:1.5;"/>
    <path clip-path="url(#pee92595c7c)" d="M 162.053847 128.205173 
L 162.053847 97.977233 
" style="fill:none;stroke:#1f77b4;stroke-width:1.5;"/>
    <path clip-path="url(#pee92595c7c)" d="M 164.21821 108.451322 
L 164.21821 78.579583 
" style="fill:none;stroke:#1f77b4;stroke-width:1.5;"/>
    <path clip-path="url(#pee92595c7c)" d="M 166.382574 139.178193 
L 166.382574 109.994407 
" style="fill:none;stroke:#1f77b4;stroke-width:1.5;"/>
    <path clip-path="url(#pee92595c7c)" d="M 168.546938 139.015102 
L 168.546938 110.053732 
" style="fill:none;stroke:#1f77b4;stroke-width:1.5;"/>
    <path clip-path="url(#pee92595c7c)" d="M 170.711301 203.097808 
L 170.711301 180.38295 
" style="fill:none;stroke:#1f77b4;stroke-width:1.5;"/>
    <path clip-path="url(#pee92595c7c)" d="M 172.875665 238.118233 
L 172.875665 220.907197 
" style="fill:none;stroke:#1f77b4;stroke-width:1.5;"/>
    <path clip-path="url(#pee92595c7c)" d="M 175.040028 234.514856 
L 175.040028 216.58847 
" style="fill:none;stroke:#1f77b4;stroke-width:1.5;"/>
    <path clip-path="url(#pee92595c7c)" d="M 177.204392 197.000356 
L 177.204392 172.742132 
" style="fill:none;stroke:#1f77b4;stroke-width:1.5;"/>
    <path clip-path="url(#pee92595c7c)" d="M 179.368756 136.732926 
L 179.368756 107.87504 
" style="fill:none;stroke:#1f77b4;stroke-width:1.5;"/>
    <path clip-path="url(#pee92595c7c)" d="M 181.533119 133.388037 
L 181.533119 103.738663 
" style="fill:none;stroke:#1f77b4;stroke-width:1.5;"/>
    <path clip-path="url(#pee92595c7c)" d="M 183.697483 126.807966 
L 183.697483 97.543476 
" style="fill:none;stroke:#1f77b4;stroke-width:1.5;"/>
    <path clip-path="url(#pee92595c7c)" d="M 185.861847 117.375783 
L 185.861847 87.419774 
" style="fill:none;stroke:#1f77b4;stroke-width:1.5;"/>
    <path clip-path="url(#pee92595c7c)" d="M 188.02621 154.224645 
L 188.02621 127.258552 
" style="fill:none;stroke:#1f77b4;stroke-width:1.5;"/>
    <path clip-path="url(#pee92595c7c)" d="M 190.190574 169.829928 
L 190.190574 142.195987 
" style="fill:none;stroke:#1f77b4;stroke-width:1.5;"/>
    <path clip-path="url(#pee92595c7c)" d="M 192.354938 159.593904 
L 192.354938 132.668371 
" style="fill:none;stroke:#1f77b4;stroke-width:1.5;"/>
    <path clip-path="url(#pee92595c7c)" d="M 194.519301 181.580236 
L 194.519301 155.510862 
" style="fill:none;stroke:#1f77b4;stroke-width:1.5;"/>
    <path clip-path="url(#pee92595c7c)" d="M 196.683665 198.771517 
L 196.683665 175.064381 
" style="fill:none;stroke:#1f77b4;stroke-width:1.5;"/>
    <path clip-path="url(#pee92595c7c)" d="M 198.848028 231.342337 
L 198.848028 212.969389 
" style="fill:none;stroke:#1f77b4;stroke-width:1.5;"/>
    <path clip-path="url(#pee92595c7c)" d="M 201.012392 214.483759 
L 201.012392 191.299453 
" style="fill:none;stroke:#1f77b4;stroke-width:1.5;"/>
    <path clip-path="url(#pee92595c7c)" d="M 203.176756 238.512279 
L 203.176756 222.204415 
" style="fill:none;stroke:#1f77b4;stroke-width:1.5;"/>
    <path clip-path="url(#pee92595c7c)" d="M 205.341119 247.287081 
L 205.341119 232.274863 
" style="fill:none;stroke:#1f77b4;stroke-width:1.5;"/>
    <path clip-path="url(#pee92595c7c)" d="M 207.505483 224.499233 
L 207.505483 204.533553 
" style="fill:none;stroke:#1f77b4;stroke-width:1.5;"/>
    <path clip-path="url(#pee92595c7c)" d="M 209.669847 185.437548 
L 209.669847 160.387306 
" style="fill:none;stroke:#1f77b4;stroke-width:1.5;"/>
    <path clip-path="url(#pee92595c7c)" d="M 211.83421 164.156668 
L 211.83421 137.642498 
" style="fill:none;stroke:#1f77b4;stroke-width:1.5;"/>
    <path clip-path="url(#pee92595c7c)" d="M 213.998574 144.026663 
L 213.998574 114.646615 
" style="fill:none;stroke:#1f77b4;stroke-width:1.5;"/>
    <path clip-path="url(#pee92595c7c)" d="M 216.162938 134.367102 
L 216.162938 104.107769 
" style="fill:none;stroke:#1f77b4;stroke-width:1.5;"/>
    <path clip-path="url(#pee92595c7c)" d="M 218.327301 142.460634 
L 218.327301 113.844746 
" style="fill:none;stroke:#1f77b4;stroke-width:1.5;"/>
    <path clip-path="url(#pee92595c7c)" d="M 220.491665 125.10427 
L 220.491665 94.396339 
" style="fill:none;stroke:#1f77b4;stroke-width:1.5;"/>
    <path clip-path="url(#pee92595c7c)" d="M 222.656028 161.341833 
L 222.656028 132.758549 
" style="fill:none;stroke:#1f77b4;stroke-width:1.5;"/>
    <path clip-path="url(#pee92595c7c)" d="M 224.820392 135.541183 
L 224.820392 104.362306 
" style="fill:none;stroke:#1f77b4;stroke-width:1.5;"/>
    <path clip-path="url(#pee92595c7c)" d="M 226.984756 135.829392 
L 226.984756 105.816449 
" style="fill:none;stroke:#1f77b4;stroke-width:1.5;"/>
    <path clip-path="url(#pee92595c7c)" d="M 229.149119 122.184417 
L 229.149119 91.773577 
" style="fill:none;stroke:#1f77b4;stroke-width:1.5;"/>
    <path clip-path="url(#pee92595c7c)" d="M 231.313483 160.676552 
L 231.313483 131.621615 
" style="fill:none;stroke:#1f77b4;stroke-width:1.5;"/>
    <path clip-path="url(#pee92595c7c)" d="M 233.477847 166.970117 
L 233.477847 139.322519 
" style="fill:none;stroke:#1f77b4;stroke-width:1.5;"/>
    <path clip-path="url(#pee92595c7c)" d="M 235.64221 194.204524 
L 235.64221 168.669017 
" style="fill:none;stroke:#1f77b4;stroke-width:1.5;"/>
    <path clip-path="url(#pee92595c7c)" d="M 237.806574 179.115406 
L 237.806574 152.043463 
" style="fill:none;stroke:#1f77b4;stroke-width:1.5;"/>
    <path clip-path="url(#pee92595c7c)" d="M 239.970937 208.492479 
L 239.970937 185.98212 
" style="fill:none;stroke:#1f77b4;stroke-width:1.5;"/>
    <path clip-path="url(#pee92595c7c)" d="M 242.135301 219.412372 
L 242.135301 198.283483 
" style="fill:none;stroke:#1f77b4;stroke-width:1.5;"/>
    <path clip-path="url(#pee92595c7c)" d="M 244.299665 239.879589 
L 244.299665 223.022032 
" style="fill:none;stroke:#1f77b4;stroke-width:1.5;"/>
    <path clip-path="url(#pee92595c7c)" d="M 246.464028 239.758127 
L 246.464028 223.538025 
" style="fill:none;stroke:#1f77b4;stroke-width:1.5;"/>
    <path clip-path="url(#pee92595c7c)" d="M 248.628392 237.843927 
L 248.628392 221.760889 
" style="fill:none;stroke:#1f77b4;stroke-width:1.5;"/>
    <path clip-path="url(#pee92595c7c)" d="M 250.792756 257.861505 
L 250.792756 247.74 
" style="fill:none;stroke:#1f77b4;stroke-width:1.5;"/>
    <path clip-path="url(#pee92595c7c)" d="M 252.957119 261.216 
L 252.957119 253.084715 
" style="fill:none;stroke:#1f77b4;stroke-width:1.5;"/>
    <path clip-path="url(#pee92595c7c)" d="M 255.121483 256.926395 
L 255.121483 246.93203 
" style="fill:none;stroke:#1f77b4;stroke-width:1.5;"/>
    <path clip-path="url(#pee92595c7c)" d="M 257.285847 254.355318 
L 257.285847 242.643867 
" style="fill:none;stroke:#1f77b4;stroke-width:1.5;"/>
    <path clip-path="url(#pee92595c7c)" d="M 259.45021 244.403555 
L 259.45021 229.002634 
" style="fill:none;stroke:#1f77b4;stroke-width:1.5;"/>
    <path clip-path="url(#pee92595c7c)" d="M 261.614574 240.933132 
L 261.614574 224.74385 
" style="fill:none;stroke:#1f77b4;stroke-width:1.5;"/>
    <path clip-path="url(#pee92595c7c)" d="M 263.778938 226.768352 
L 263.778938 206.724083 
" style="fill:none;stroke:#1f77b4;stroke-width:1.5;"/>
    <path clip-path="url(#pee92595c7c)" d="M 265.943301 198.424699 
L 265.943301 174.609311 
" style="fill:none;stroke:#1f77b4;stroke-width:1.5;"/>
    <path clip-path="url(#pee92595c7c)" d="M 268.107665 183.070351 
L 268.107665 158.660581 
" style="fill:none;stroke:#1f77b4;stroke-width:1.5;"/>
    <path clip-path="url(#pee92595c7c)" d="M 270.272028 182.161561 
L 270.272028 156.907576 
" style="fill:none;stroke:#1f77b4;stroke-width:1.5;"/>
    <path clip-path="url(#pee92595c7c)" d="M 272.436392 191.607526 
L 272.436392 167.232337 
" style="fill:none;stroke:#1f77b4;stroke-width:1.5;"/>
    <path clip-path="url(#pee92595c7c)" d="M 274.600756 175.055026 
L 274.600756 147.663994 
" style="fill:none;stroke:#1f77b4;stroke-width:1.5;"/>
    <path clip-path="url(#pee92595c7c)" d="M 276.765119 169.586369 
L 276.765119 142.537296 
" style="fill:none;stroke:#1f77b4;stroke-width:1.5;"/>
    <path clip-path="url(#pee92595c7c)" d="M 278.929483 144.349034 
L 278.929483 116.064827 
" style="fill:none;stroke:#1f77b4;stroke-width:1.5;"/>
    <path clip-path="url(#pee92595c7c)" d="M 281.093847 141.817941 
L 281.093847 113.089996 
" style="fill:none;stroke:#1f77b4;stroke-width:1.5;"/>
    <path clip-path="url(#pee92595c7c)" d="M 283.25821 146.180035 
L 283.25821 118.220875 
" style="fill:none;stroke:#1f77b4;stroke-width:1.5;"/>
    <path clip-path="url(#pee92595c7c)" d="M 285.422574 136.317137 
L 285.422574 105.274146 
" style="fill:none;stroke:#1f77b4;stroke-width:1.5;"/>
    <path clip-path="url(#pee92595c7c)" d="M 287.586937 123.217336 
L 287.586937 93.646622 
" style="fill:none;stroke:#1f77b4;stroke-width:1.5;"/>
    <path clip-path="url(#pee92595c7c)" d="M 289.751301 120.17928 
L 289.751301 88.729164 
" style="fill:none;stroke:#1f77b4;stroke-width:1.5;"/>
    <path clip-path="url(#pee92595c7c)" d="M 291.915665 128.215385 
L 291.915665 98.474691 
" style="fill:none;stroke:#1f77b4;stroke-width:1.5;"/>
    <path clip-path="url(#pee92595c7c)" d="M 294.080028 122.645297 
L 294.080028 93.426795 
" style="fill:none;stroke:#1f77b4;stroke-width:1.5;"/>
    <path clip-path="url(#pee92595c7c)" d="M 296.244392 109.99686 
L 296.244392 79.05312 
" style="fill:none;stroke:#1f77b4;stroke-width:1.5;"/>
    <path clip-path="url(#pee92595c7c)" d="M 298.408756 129.68616 
L 298.408756 99.934884 
" style="fill:none;stroke:#1f77b4;stroke-width:1.5;"/>
    <path clip-path="url(#pee92595c7c)" d="M 300.573119 117.375783 
L 300.573119 87.419774 
" style="fill:none;stroke:#1f77b4;stroke-width:1.5;"/>
    <path clip-path="url(#pee92595c7c)" d="M 302.737483 121.274616 
L 302.737483 90.488539 
" style="fill:none;stroke:#1f77b4;stroke-width:1.5;"/>
    <path clip-path="url(#pee92595c7c)" d="M 304.901847 116.241206 
L 304.901847 84.727339 
" style="fill:none;stroke:#1f77b4;stroke-width:1.5;"/>
    <path clip-path="url(#pee92595c7c)" d="M 307.06621 121.392352 
L 307.06621 90.865394 
" style="fill:none;stroke:#1f77b4;stroke-width:1.5;"/>
    <path clip-path="url(#pee92595c7c)" d="M 309.230574 95.95301 
L 309.230574 65.211577 
" style="fill:none;stroke:#1f77b4;stroke-width:1.5;"/>
    <path clip-path="url(#pee92595c7c)" d="M 311.394937 131.008436 
L 311.394937 102.159278 
" style="fill:none;stroke:#1f77b4;stroke-width:1.5;"/>
    <path clip-path="url(#pee92595c7c)" d="M 313.559301 105.989588 
L 313.559301 75.815329 
" style="fill:none;stroke:#1f77b4;stroke-width:1.5;"/>
    <path clip-path="url(#pee92595c7c)" d="M 315.723665 109.804108 
L 315.723665 80.490347 
" style="fill:none;stroke:#1f77b4;stroke-width:1.5;"/>
    <path clip-path="url(#pee92595c7c)" d="M 317.888028 139.015102 
L 317.888028 110.053732 
" style="fill:none;stroke:#1f77b4;stroke-width:1.5;"/>
    <path clip-path="url(#pee92595c7c)" d="M 320.052392 105.285941 
L 320.052392 74.61459 
" style="fill:none;stroke:#1f77b4;stroke-width:1.5;"/>
    <path clip-path="url(#pee92595c7c)" d="M 322.216756 128.900939 
L 322.216756 100.383275 
" style="fill:none;stroke:#1f77b4;stroke-width:1.5;"/>
    <path clip-path="url(#pee92595c7c)" d="M 324.381119 121.48929 
L 324.381119 89.436413 
" style="fill:none;stroke:#1f77b4;stroke-width:1.5;"/>
    <path clip-path="url(#pee92595c7c)" d="M 326.545483 95.726567 
L 326.545483 64.142501 
" style="fill:none;stroke:#1f77b4;stroke-width:1.5;"/>
    <path clip-path="url(#pee92595c7c)" d="M 328.709847 109.634022 
L 328.709847 77.705215 
" style="fill:none;stroke:#1f77b4;stroke-width:1.5;"/>
    <path clip-path="url(#pee92595c7c)" d="M 330.87421 110.31613 
L 330.87421 80.873494 
" style="fill:none;stroke:#1f77b4;stroke-width:1.5;"/>
    <path clip-path="url(#pee92595c7c)" d="M 333.038574 125.215389 
L 333.038574 95.016941 
" style="fill:none;stroke:#1f77b4;stroke-width:1.5;"/>
    <path clip-path="url(#pee92595c7c)" d="M 335.202937 105.791258 
L 335.202937 74.970234 
" style="fill:none;stroke:#1f77b4;stroke-width:1.5;"/>
    <path clip-path="url(#pee92595c7c)" d="M 337.367301 74.6803 
L 337.367301 44.712747 
" style="fill:none;stroke:#1f77b4;stroke-width:1.5;"/>
    <path clip-path="url(#pee92595c7c)" d="M 339.531665 101.117372 
L 339.531665 72.055894 
" style="fill:none;stroke:#1f77b4;stroke-width:1.5;"/>
    <path clip-path="url(#pee92595c7c)" d="M 341.696028 119.117285 
L 341.696028 88.498909 
" style="fill:none;stroke:#1f77b4;stroke-width:1.5;"/>
    <path clip-path="url(#pee92595c7c)" d="M 343.860392 98.114878 
L 343.860392 67.011352 
" style="fill:none;stroke:#1f77b4;stroke-width:1.5;"/>
    <path clip-path="url(#pee92595c7c)" d="M 346.024756 92.248827 
L 346.024756 61.105399 
" style="fill:none;stroke:#1f77b4;stroke-width:1.5;"/>
    <path clip-path="url(#pee92595c7c)" d="M 348.189119 129.570704 
L 348.189119 101.153318 
" style="fill:none;stroke:#1f77b4;stroke-width:1.5;"/>
    <path clip-path="url(#pee92595c7c)" d="M 350.353483 72.07622 
L 350.353483 41.571729 
" style="fill:none;stroke:#1f77b4;stroke-width:1.5;"/>
    <path clip-path="url(#pee92595c7c)" d="M 352.517847 88.336376 
L 352.517847 57.925014 
" style="fill:none;stroke:#1f77b4;stroke-width:1.5;"/>
    <path clip-path="url(#pee92595c7c)" d="M 354.68221 94.042749 
L 354.68221 64.036868 
" style="fill:none;stroke:#1f77b4;stroke-width:1.5;"/>
    <path clip-path="url(#pee92595c7c)" d="M 356.846574 107.179118 
L 356.846574 76.315812 
" style="fill:none;stroke:#1f77b4;stroke-width:1.5;"/>
    <path clip-path="url(#pee92595c7c)" d="M 359.010937 93.96093 
L 359.010937 64.811011 
" style="fill:none;stroke:#1f77b4;stroke-width:1.5;"/>
    <path clip-path="url(#pee92595c7c)" d="M 361.175301 111.525764 
L 361.175301 83.157374 
" style="fill:none;stroke:#1f77b4;stroke-width:1.5;"/>
    <path clip-path="url(#pee92595c7c)" d="M 363.339665 100.844918 
L 363.339665 69.63885 
" style="fill:none;stroke:#1f77b4;stroke-width:1.5;"/>
    <path clip-path="url(#pee92595c7c)" d="M 365.504028 109.440455 
L 365.504028 78.64665 
" style="fill:none;stroke:#1f77b4;stroke-width:1.5;"/>
    <path clip-path="url(#pee92595c7c)" d="M 367.668392 100.338614 
L 367.668392 70.836924 
" style="fill:none;stroke:#1f77b4;stroke-width:1.5;"/>
    <path clip-path="url(#pee92595c7c)" d="M 369.832756 96.535864 
L 369.832756 66.431358 
" style="fill:none;stroke:#1f77b4;stroke-width:1.5;"/>
    <path clip-path="url(#pee92595c7c)" d="M 371.997119 102.452658 
L 371.997119 72.638366 
" style="fill:none;stroke:#1f77b4;stroke-width:1.5;"/>
    <path clip-path="url(#pee92595c7c)" d="M 374.161483 114.954797 
L 374.161483 83.750127 
" style="fill:none;stroke:#1f77b4;stroke-width:1.5;"/>
    <path clip-path="url(#pee92595c7c)" d="M 376.325847 110.306881 
L 376.325847 80.262796 
" style="fill:none;stroke:#1f77b4;stroke-width:1.5;"/>
    <path clip-path="url(#pee92595c7c)" d="M 378.49021 72.912176 
L 378.49021 42.638923 
" style="fill:none;stroke:#1f77b4;stroke-width:1.5;"/>
    <path clip-path="url(#pee92595c7c)" d="M 380.654574 51.954561 
L 380.654574 19.296 
" style="fill:none;stroke:#1f77b4;stroke-width:1.5;"/>
    <path clip-path="url(#pee92595c7c)" d="M 382.818937 100.393459 
L 382.818937 68.473588 
" style="fill:none;stroke:#1f77b4;stroke-width:1.5;"/>
    <path clip-path="url(#pee92595c7c)" d="M 384.983301 64.344223 
L 384.983301 34.19547 
" style="fill:none;stroke:#1f77b4;stroke-width:1.5;"/>
    <path clip-path="url(#pee92595c7c)" d="M 387.147665 114.093539 
L 387.147665 82.769723 
" style="fill:none;stroke:#1f77b4;stroke-width:1.5;"/>
    <path clip-path="url(#pee92595c7c)" d="M 389.312028 90.064665 
L 389.312028 58.282464 
" style="fill:none;stroke:#1f77b4;stroke-width:1.5;"/>
    <path clip-path="url(#pee92595c7c)" d="M 391.476392 117.480399 
L 391.476392 86.629403 
" style="fill:none;stroke:#1f77b4;stroke-width:1.5;"/>
    <path clip-path="url(#pee92595c7c)" d="M 393.640756 118.303422 
L 393.640756 87.569053 
" style="fill:none;stroke:#1f77b4;stroke-width:1.5;"/>
    <path clip-path="url(#pee92595c7c)" d="M 395.805119 113.257696 
L 395.805119 83.387553 
" style="fill:none;stroke:#1f77b4;stroke-width:1.5;"/>
    <path clip-path="url(#pee92595c7c)" d="M 397.969483 59.220254 
L 397.969483 28.078177 
" style="fill:none;stroke:#1f77b4;stroke-width:1.5;"/>
    <path clip-path="url(#pee92595c7c)" d="M 400.133847 73.036362 
L 400.133847 41.575943 
" style="fill:none;stroke:#1f77b4;stroke-width:1.5;"/>
    <path clip-path="url(#pee92595c7c)" d="M 402.29821 108.149083 
L 402.29821 78.038213 
" style="fill:none;stroke:#1f77b4;stroke-width:1.5;"/>
   </g>
   <g id="line2d_21">
    <path clip-path="url(#pee92595c7c)" d="M 77.643665 48.20137 
L 79.808028 71.63588 
L 81.972392 77.269702 
L 84.136756 70.534105 
L 86.301119 87.811315 
L 88.465483 96.323317 
L 90.629847 101.025533 
L 92.79421 72.893274 
L 94.958574 80.85505 
L 97.122938 75.503597 
L 99.287301 63.590468 
L 101.451665 60.936453 
L 103.616028 60.364026 
L 105.780392 59.386982 
L 107.944756 66.309232 
L 110.109119 71.63588 
L 112.273483 72.052137 
L 114.437847 102.054901 
L 116.60221 55.199303 
L 118.766574 84.484578 
L 120.930938 66.864865 
L 123.095301 95.756787 
L 125.259665 102.362265 
L 127.424028 57.860184 
L 129.588392 44.974678 
L 131.752756 42.762342 
L 133.917119 77.888484 
L 136.081483 74.450273 
L 138.245847 79.603024 
L 140.41021 70.269738 
L 142.574574 72.161143 
L 144.738938 49.269846 
L 146.903301 51.654733 
L 149.067665 58.705135 
L 151.232028 91.728645 
L 153.396392 63.120043 
L 155.560756 70.649453 
L 157.725119 72.394728 
L 159.889483 49.269846 
L 162.053847 113.091203 
L 164.21821 93.515452 
L 166.382574 124.5863 
L 168.546938 124.534417 
L 170.711301 191.740379 
L 172.875665 229.512715 
L 175.040028 225.551663 
L 177.204392 184.871244 
L 179.368756 122.303983 
L 181.533119 118.56335 
L 183.697483 112.175721 
L 185.861847 102.397779 
L 188.02621 140.741599 
L 190.190574 156.012957 
L 192.354938 146.131137 
L 194.519301 168.545549 
L 196.683665 186.917949 
L 198.848028 222.155863 
L 201.012392 202.891606 
L 203.176756 230.358347 
L 205.341119 239.780972 
L 207.505483 214.516393 
L 209.669847 172.912427 
L 213.998574 129.336639 
L 216.162938 119.237436 
L 218.327301 128.15269 
L 220.491665 109.750305 
L 222.656028 147.050191 
L 224.820392 119.951744 
L 226.984756 120.822921 
L 229.149119 106.978997 
L 231.313483 146.149084 
L 233.477847 153.146318 
L 235.64221 181.43677 
L 237.806574 165.579434 
L 239.970937 197.237299 
L 242.135301 208.847927 
L 244.299665 231.45081 
L 246.464028 231.648076 
L 248.628392 229.802408 
L 250.792756 252.800753 
L 252.957119 257.150358 
L 255.121483 251.929212 
L 257.285847 248.499592 
L 259.45021 236.703094 
L 261.614574 232.838491 
L 263.778938 216.746217 
L 265.943301 186.517005 
L 268.107665 170.865466 
L 270.272028 169.534569 
L 272.436392 179.419932 
L 274.600756 161.35951 
L 276.765119 156.061833 
L 278.929483 130.206931 
L 281.093847 127.453969 
L 283.25821 132.200455 
L 285.422574 120.795642 
L 287.586937 108.431979 
L 289.751301 104.454222 
L 291.915665 113.345038 
L 294.080028 108.036046 
L 296.244392 94.52499 
L 298.408756 114.810522 
L 300.573119 102.397779 
L 302.737483 105.881577 
L 304.901847 100.484273 
L 307.06621 106.128873 
L 309.230574 80.582293 
L 311.394937 116.583857 
L 313.559301 90.902458 
L 315.723665 95.147227 
L 317.888028 124.534417 
L 320.052392 89.950266 
L 322.216756 114.642107 
L 324.381119 105.462852 
L 326.545483 79.934534 
L 328.709847 93.669618 
L 330.87421 95.594812 
L 333.038574 110.116165 
L 335.202937 90.380746 
L 337.367301 59.696524 
L 339.531665 86.586633 
L 341.696028 103.808097 
L 343.860392 82.563115 
L 346.024756 76.677113 
L 348.189119 115.362011 
L 350.353483 56.823974 
L 352.517847 73.130695 
L 354.68221 79.039808 
L 356.846574 91.747465 
L 359.010937 79.385971 
L 361.175301 97.341569 
L 363.339665 85.241884 
L 365.504028 94.043552 
L 367.668392 85.587769 
L 369.832756 81.483611 
L 371.997119 87.545512 
L 374.161483 99.352462 
L 376.325847 95.284838 
L 378.49021 57.77555 
L 380.654574 35.62528 
L 382.818937 84.433523 
L 384.983301 49.269846 
L 387.147665 98.431631 
L 389.312028 74.173565 
L 391.476392 102.054901 
L 393.640756 102.936237 
L 395.805119 98.322625 
L 397.969483 43.649215 
L 400.133847 57.306153 
L 402.29821 93.093648 
L 402.29821 93.093648 
" style="fill:none;stroke:#1f77b4;stroke-linecap:square;stroke-width:1.5;"/>
    <defs>
     <path d="M 0 3 
C 0.795609 3 1.55874 2.683901 2.12132 2.12132 
C 2.683901 1.55874 3 0.795609 3 0 
C 3 -0.795609 2.683901 -1.55874 2.12132 -2.12132 
C 1.55874 -2.683901 0.795609 -3 0 -3 
C -0.795609 -3 -1.55874 -2.683901 -2.12132 -2.12132 
C -2.683901 -1.55874 -3 -0.795609 -3 0 
C -3 0.795609 -2.683901 1.55874 -2.12132 2.12132 
C -1.55874 2.683901 -0.795609 3 0 3 
z
" id="mcb2457e3ba" style="stroke:#1f77b4;"/>
    </defs>
    <g clip-path="url(#pee92595c7c)">
     <use style="fill:#1f77b4;stroke:#1f77b4;" x="77.643665" xlink:href="#mcb2457e3ba" y="48.20137"/>
     <use style="fill:#1f77b4;stroke:#1f77b4;" x="79.808028" xlink:href="#mcb2457e3ba" y="71.63588"/>
     <use style="fill:#1f77b4;stroke:#1f77b4;" x="81.972392" xlink:href="#mcb2457e3ba" y="77.269702"/>
     <use style="fill:#1f77b4;stroke:#1f77b4;" x="84.136756" xlink:href="#mcb2457e3ba" y="70.534105"/>
     <use style="fill:#1f77b4;stroke:#1f77b4;" x="86.301119" xlink:href="#mcb2457e3ba" y="87.811315"/>
     <use style="fill:#1f77b4;stroke:#1f77b4;" x="88.465483" xlink:href="#mcb2457e3ba" y="96.323317"/>
     <use style="fill:#1f77b4;stroke:#1f77b4;" x="90.629847" xlink:href="#mcb2457e3ba" y="101.025533"/>
     <use style="fill:#1f77b4;stroke:#1f77b4;" x="92.79421" xlink:href="#mcb2457e3ba" y="72.893274"/>
     <use style="fill:#1f77b4;stroke:#1f77b4;" x="94.958574" xlink:href="#mcb2457e3ba" y="80.85505"/>
     <use style="fill:#1f77b4;stroke:#1f77b4;" x="97.122938" xlink:href="#mcb2457e3ba" y="75.503597"/>
     <use style="fill:#1f77b4;stroke:#1f77b4;" x="99.287301" xlink:href="#mcb2457e3ba" y="63.590468"/>
     <use style="fill:#1f77b4;stroke:#1f77b4;" x="101.451665" xlink:href="#mcb2457e3ba" y="60.936453"/>
     <use style="fill:#1f77b4;stroke:#1f77b4;" x="103.616028" xlink:href="#mcb2457e3ba" y="60.364026"/>
     <use style="fill:#1f77b4;stroke:#1f77b4;" x="105.780392" xlink:href="#mcb2457e3ba" y="59.386982"/>
     <use style="fill:#1f77b4;stroke:#1f77b4;" x="107.944756" xlink:href="#mcb2457e3ba" y="66.309232"/>
     <use style="fill:#1f77b4;stroke:#1f77b4;" x="110.109119" xlink:href="#mcb2457e3ba" y="71.63588"/>
     <use style="fill:#1f77b4;stroke:#1f77b4;" x="112.273483" xlink:href="#mcb2457e3ba" y="72.052137"/>
     <use style="fill:#1f77b4;stroke:#1f77b4;" x="114.437847" xlink:href="#mcb2457e3ba" y="102.054901"/>
     <use style="fill:#1f77b4;stroke:#1f77b4;" x="116.60221" xlink:href="#mcb2457e3ba" y="55.199303"/>
     <use style="fill:#1f77b4;stroke:#1f77b4;" x="118.766574" xlink:href="#mcb2457e3ba" y="84.484578"/>
     <use style="fill:#1f77b4;stroke:#1f77b4;" x="120.930938" xlink:href="#mcb2457e3ba" y="66.864865"/>
     <use style="fill:#1f77b4;stroke:#1f77b4;" x="123.095301" xlink:href="#mcb2457e3ba" y="95.756787"/>
     <use style="fill:#1f77b4;stroke:#1f77b4;" x="125.259665" xlink:href="#mcb2457e3ba" y="102.362265"/>
     <use style="fill:#1f77b4;stroke:#1f77b4;" x="127.424028" xlink:href="#mcb2457e3ba" y="57.860184"/>
     <use style="fill:#1f77b4;stroke:#1f77b4;" x="129.588392" xlink:href="#mcb2457e3ba" y="44.974678"/>
     <use style="fill:#1f77b4;stroke:#1f77b4;" x="131.752756" xlink:href="#mcb2457e3ba" y="42.762342"/>
     <use style="fill:#1f77b4;stroke:#1f77b4;" x="133.917119" xlink:href="#mcb2457e3ba" y="77.888484"/>
     <use style="fill:#1f77b4;stroke:#1f77b4;" x="136.081483" xlink:href="#mcb2457e3ba" y="74.450273"/>
     <use style="fill:#1f77b4;stroke:#1f77b4;" x="138.245847" xlink:href="#mcb2457e3ba" y="79.603024"/>
     <use style="fill:#1f77b4;stroke:#1f77b4;" x="140.41021" xlink:href="#mcb2457e3ba" y="70.269738"/>
     <use style="fill:#1f77b4;stroke:#1f77b4;" x="142.574574" xlink:href="#mcb2457e3ba" y="72.161143"/>
     <use style="fill:#1f77b4;stroke:#1f77b4;" x="144.738938" xlink:href="#mcb2457e3ba" y="49.269846"/>
     <use style="fill:#1f77b4;stroke:#1f77b4;" x="146.903301" xlink:href="#mcb2457e3ba" y="51.654733"/>
     <use style="fill:#1f77b4;stroke:#1f77b4;" x="149.067665" xlink:href="#mcb2457e3ba" y="58.705135"/>
     <use style="fill:#1f77b4;stroke:#1f77b4;" x="151.232028" xlink:href="#mcb2457e3ba" y="91.728645"/>
     <use style="fill:#1f77b4;stroke:#1f77b4;" x="153.396392" xlink:href="#mcb2457e3ba" y="63.120043"/>
     <use style="fill:#1f77b4;stroke:#1f77b4;" x="155.560756" xlink:href="#mcb2457e3ba" y="70.649453"/>
     <use style="fill:#1f77b4;stroke:#1f77b4;" x="157.725119" xlink:href="#mcb2457e3ba" y="72.394728"/>
     <use style="fill:#1f77b4;stroke:#1f77b4;" x="159.889483" xlink:href="#mcb2457e3ba" y="49.269846"/>
     <use style="fill:#1f77b4;stroke:#1f77b4;" x="162.053847" xlink:href="#mcb2457e3ba" y="113.091203"/>
     <use style="fill:#1f77b4;stroke:#1f77b4;" x="164.21821" xlink:href="#mcb2457e3ba" y="93.515452"/>
     <use style="fill:#1f77b4;stroke:#1f77b4;" x="166.382574" xlink:href="#mcb2457e3ba" y="124.5863"/>
     <use style="fill:#1f77b4;stroke:#1f77b4;" x="168.546938" xlink:href="#mcb2457e3ba" y="124.534417"/>
     <use style="fill:#1f77b4;stroke:#1f77b4;" x="170.711301" xlink:href="#mcb2457e3ba" y="191.740379"/>
     <use style="fill:#1f77b4;stroke:#1f77b4;" x="172.875665" xlink:href="#mcb2457e3ba" y="229.512715"/>
     <use style="fill:#1f77b4;stroke:#1f77b4;" x="175.040028" xlink:href="#mcb2457e3ba" y="225.551663"/>
     <use style="fill:#1f77b4;stroke:#1f77b4;" x="177.204392" xlink:href="#mcb2457e3ba" y="184.871244"/>
     <use style="fill:#1f77b4;stroke:#1f77b4;" x="179.368756" xlink:href="#mcb2457e3ba" y="122.303983"/>
     <use style="fill:#1f77b4;stroke:#1f77b4;" x="181.533119" xlink:href="#mcb2457e3ba" y="118.56335"/>
     <use style="fill:#1f77b4;stroke:#1f77b4;" x="183.697483" xlink:href="#mcb2457e3ba" y="112.175721"/>
     <use style="fill:#1f77b4;stroke:#1f77b4;" x="185.861847" xlink:href="#mcb2457e3ba" y="102.397779"/>
     <use style="fill:#1f77b4;stroke:#1f77b4;" x="188.02621" xlink:href="#mcb2457e3ba" y="140.741599"/>
     <use style="fill:#1f77b4;stroke:#1f77b4;" x="190.190574" xlink:href="#mcb2457e3ba" y="156.012957"/>
     <use style="fill:#1f77b4;stroke:#1f77b4;" x="192.354938" xlink:href="#mcb2457e3ba" y="146.131137"/>
     <use style="fill:#1f77b4;stroke:#1f77b4;" x="194.519301" xlink:href="#mcb2457e3ba" y="168.545549"/>
     <use style="fill:#1f77b4;stroke:#1f77b4;" x="196.683665" xlink:href="#mcb2457e3ba" y="186.917949"/>
     <use style="fill:#1f77b4;stroke:#1f77b4;" x="198.848028" xlink:href="#mcb2457e3ba" y="222.155863"/>
     <use style="fill:#1f77b4;stroke:#1f77b4;" x="201.012392" xlink:href="#mcb2457e3ba" y="202.891606"/>
     <use style="fill:#1f77b4;stroke:#1f77b4;" x="203.176756" xlink:href="#mcb2457e3ba" y="230.358347"/>
     <use style="fill:#1f77b4;stroke:#1f77b4;" x="205.341119" xlink:href="#mcb2457e3ba" y="239.780972"/>
     <use style="fill:#1f77b4;stroke:#1f77b4;" x="207.505483" xlink:href="#mcb2457e3ba" y="214.516393"/>
     <use style="fill:#1f77b4;stroke:#1f77b4;" x="209.669847" xlink:href="#mcb2457e3ba" y="172.912427"/>
     <use style="fill:#1f77b4;stroke:#1f77b4;" x="211.83421" xlink:href="#mcb2457e3ba" y="150.899583"/>
     <use style="fill:#1f77b4;stroke:#1f77b4;" x="213.998574" xlink:href="#mcb2457e3ba" y="129.336639"/>
     <use style="fill:#1f77b4;stroke:#1f77b4;" x="216.162938" xlink:href="#mcb2457e3ba" y="119.237436"/>
     <use style="fill:#1f77b4;stroke:#1f77b4;" x="218.327301" xlink:href="#mcb2457e3ba" y="128.15269"/>
     <use style="fill:#1f77b4;stroke:#1f77b4;" x="220.491665" xlink:href="#mcb2457e3ba" y="109.750305"/>
     <use style="fill:#1f77b4;stroke:#1f77b4;" x="222.656028" xlink:href="#mcb2457e3ba" y="147.050191"/>
     <use style="fill:#1f77b4;stroke:#1f77b4;" x="224.820392" xlink:href="#mcb2457e3ba" y="119.951744"/>
     <use style="fill:#1f77b4;stroke:#1f77b4;" x="226.984756" xlink:href="#mcb2457e3ba" y="120.822921"/>
     <use style="fill:#1f77b4;stroke:#1f77b4;" x="229.149119" xlink:href="#mcb2457e3ba" y="106.978997"/>
     <use style="fill:#1f77b4;stroke:#1f77b4;" x="231.313483" xlink:href="#mcb2457e3ba" y="146.149084"/>
     <use style="fill:#1f77b4;stroke:#1f77b4;" x="233.477847" xlink:href="#mcb2457e3ba" y="153.146318"/>
     <use style="fill:#1f77b4;stroke:#1f77b4;" x="235.64221" xlink:href="#mcb2457e3ba" y="181.43677"/>
     <use style="fill:#1f77b4;stroke:#1f77b4;" x="237.806574" xlink:href="#mcb2457e3ba" y="165.579434"/>
     <use style="fill:#1f77b4;stroke:#1f77b4;" x="239.970937" xlink:href="#mcb2457e3ba" y="197.237299"/>
     <use style="fill:#1f77b4;stroke:#1f77b4;" x="242.135301" xlink:href="#mcb2457e3ba" y="208.847927"/>
     <use style="fill:#1f77b4;stroke:#1f77b4;" x="244.299665" xlink:href="#mcb2457e3ba" y="231.45081"/>
     <use style="fill:#1f77b4;stroke:#1f77b4;" x="246.464028" xlink:href="#mcb2457e3ba" y="231.648076"/>
     <use style="fill:#1f77b4;stroke:#1f77b4;" x="248.628392" xlink:href="#mcb2457e3ba" y="229.802408"/>
     <use style="fill:#1f77b4;stroke:#1f77b4;" x="250.792756" xlink:href="#mcb2457e3ba" y="252.800753"/>
     <use style="fill:#1f77b4;stroke:#1f77b4;" x="252.957119" xlink:href="#mcb2457e3ba" y="257.150358"/>
     <use style="fill:#1f77b4;stroke:#1f77b4;" x="255.121483" xlink:href="#mcb2457e3ba" y="251.929212"/>
     <use style="fill:#1f77b4;stroke:#1f77b4;" x="257.285847" xlink:href="#mcb2457e3ba" y="248.499592"/>
     <use style="fill:#1f77b4;stroke:#1f77b4;" x="259.45021" xlink:href="#mcb2457e3ba" y="236.703094"/>
     <use style="fill:#1f77b4;stroke:#1f77b4;" x="261.614574" xlink:href="#mcb2457e3ba" y="232.838491"/>
     <use style="fill:#1f77b4;stroke:#1f77b4;" x="263.778938" xlink:href="#mcb2457e3ba" y="216.746217"/>
     <use style="fill:#1f77b4;stroke:#1f77b4;" x="265.943301" xlink:href="#mcb2457e3ba" y="186.517005"/>
     <use style="fill:#1f77b4;stroke:#1f77b4;" x="268.107665" xlink:href="#mcb2457e3ba" y="170.865466"/>
     <use style="fill:#1f77b4;stroke:#1f77b4;" x="270.272028" xlink:href="#mcb2457e3ba" y="169.534569"/>
     <use style="fill:#1f77b4;stroke:#1f77b4;" x="272.436392" xlink:href="#mcb2457e3ba" y="179.419932"/>
     <use style="fill:#1f77b4;stroke:#1f77b4;" x="274.600756" xlink:href="#mcb2457e3ba" y="161.35951"/>
     <use style="fill:#1f77b4;stroke:#1f77b4;" x="276.765119" xlink:href="#mcb2457e3ba" y="156.061833"/>
     <use style="fill:#1f77b4;stroke:#1f77b4;" x="278.929483" xlink:href="#mcb2457e3ba" y="130.206931"/>
     <use style="fill:#1f77b4;stroke:#1f77b4;" x="281.093847" xlink:href="#mcb2457e3ba" y="127.453969"/>
     <use style="fill:#1f77b4;stroke:#1f77b4;" x="283.25821" xlink:href="#mcb2457e3ba" y="132.200455"/>
     <use style="fill:#1f77b4;stroke:#1f77b4;" x="285.422574" xlink:href="#mcb2457e3ba" y="120.795642"/>
     <use style="fill:#1f77b4;stroke:#1f77b4;" x="287.586937" xlink:href="#mcb2457e3ba" y="108.431979"/>
     <use style="fill:#1f77b4;stroke:#1f77b4;" x="289.751301" xlink:href="#mcb2457e3ba" y="104.454222"/>
     <use style="fill:#1f77b4;stroke:#1f77b4;" x="291.915665" xlink:href="#mcb2457e3ba" y="113.345038"/>
     <use style="fill:#1f77b4;stroke:#1f77b4;" x="294.080028" xlink:href="#mcb2457e3ba" y="108.036046"/>
     <use style="fill:#1f77b4;stroke:#1f77b4;" x="296.244392" xlink:href="#mcb2457e3ba" y="94.52499"/>
     <use style="fill:#1f77b4;stroke:#1f77b4;" x="298.408756" xlink:href="#mcb2457e3ba" y="114.810522"/>
     <use style="fill:#1f77b4;stroke:#1f77b4;" x="300.573119" xlink:href="#mcb2457e3ba" y="102.397779"/>
     <use style="fill:#1f77b4;stroke:#1f77b4;" x="302.737483" xlink:href="#mcb2457e3ba" y="105.881577"/>
     <use style="fill:#1f77b4;stroke:#1f77b4;" x="304.901847" xlink:href="#mcb2457e3ba" y="100.484273"/>
     <use style="fill:#1f77b4;stroke:#1f77b4;" x="307.06621" xlink:href="#mcb2457e3ba" y="106.128873"/>
     <use style="fill:#1f77b4;stroke:#1f77b4;" x="309.230574" xlink:href="#mcb2457e3ba" y="80.582293"/>
     <use style="fill:#1f77b4;stroke:#1f77b4;" x="311.394937" xlink:href="#mcb2457e3ba" y="116.583857"/>
     <use style="fill:#1f77b4;stroke:#1f77b4;" x="313.559301" xlink:href="#mcb2457e3ba" y="90.902458"/>
     <use style="fill:#1f77b4;stroke:#1f77b4;" x="315.723665" xlink:href="#mcb2457e3ba" y="95.147227"/>
     <use style="fill:#1f77b4;stroke:#1f77b4;" x="317.888028" xlink:href="#mcb2457e3ba" y="124.534417"/>
     <use style="fill:#1f77b4;stroke:#1f77b4;" x="320.052392" xlink:href="#mcb2457e3ba" y="89.950266"/>
     <use style="fill:#1f77b4;stroke:#1f77b4;" x="322.216756" xlink:href="#mcb2457e3ba" y="114.642107"/>
     <use style="fill:#1f77b4;stroke:#1f77b4;" x="324.381119" xlink:href="#mcb2457e3ba" y="105.462852"/>
     <use style="fill:#1f77b4;stroke:#1f77b4;" x="326.545483" xlink:href="#mcb2457e3ba" y="79.934534"/>
     <use style="fill:#1f77b4;stroke:#1f77b4;" x="328.709847" xlink:href="#mcb2457e3ba" y="93.669618"/>
     <use style="fill:#1f77b4;stroke:#1f77b4;" x="330.87421" xlink:href="#mcb2457e3ba" y="95.594812"/>
     <use style="fill:#1f77b4;stroke:#1f77b4;" x="333.038574" xlink:href="#mcb2457e3ba" y="110.116165"/>
     <use style="fill:#1f77b4;stroke:#1f77b4;" x="335.202937" xlink:href="#mcb2457e3ba" y="90.380746"/>
     <use style="fill:#1f77b4;stroke:#1f77b4;" x="337.367301" xlink:href="#mcb2457e3ba" y="59.696524"/>
     <use style="fill:#1f77b4;stroke:#1f77b4;" x="339.531665" xlink:href="#mcb2457e3ba" y="86.586633"/>
     <use style="fill:#1f77b4;stroke:#1f77b4;" x="341.696028" xlink:href="#mcb2457e3ba" y="103.808097"/>
     <use style="fill:#1f77b4;stroke:#1f77b4;" x="343.860392" xlink:href="#mcb2457e3ba" y="82.563115"/>
     <use style="fill:#1f77b4;stroke:#1f77b4;" x="346.024756" xlink:href="#mcb2457e3ba" y="76.677113"/>
     <use style="fill:#1f77b4;stroke:#1f77b4;" x="348.189119" xlink:href="#mcb2457e3ba" y="115.362011"/>
     <use style="fill:#1f77b4;stroke:#1f77b4;" x="350.353483" xlink:href="#mcb2457e3ba" y="56.823974"/>
     <use style="fill:#1f77b4;stroke:#1f77b4;" x="352.517847" xlink:href="#mcb2457e3ba" y="73.130695"/>
     <use style="fill:#1f77b4;stroke:#1f77b4;" x="354.68221" xlink:href="#mcb2457e3ba" y="79.039808"/>
     <use style="fill:#1f77b4;stroke:#1f77b4;" x="356.846574" xlink:href="#mcb2457e3ba" y="91.747465"/>
     <use style="fill:#1f77b4;stroke:#1f77b4;" x="359.010937" xlink:href="#mcb2457e3ba" y="79.385971"/>
     <use style="fill:#1f77b4;stroke:#1f77b4;" x="361.175301" xlink:href="#mcb2457e3ba" y="97.341569"/>
     <use style="fill:#1f77b4;stroke:#1f77b4;" x="363.339665" xlink:href="#mcb2457e3ba" y="85.241884"/>
     <use style="fill:#1f77b4;stroke:#1f77b4;" x="365.504028" xlink:href="#mcb2457e3ba" y="94.043552"/>
     <use style="fill:#1f77b4;stroke:#1f77b4;" x="367.668392" xlink:href="#mcb2457e3ba" y="85.587769"/>
     <use style="fill:#1f77b4;stroke:#1f77b4;" x="369.832756" xlink:href="#mcb2457e3ba" y="81.483611"/>
     <use style="fill:#1f77b4;stroke:#1f77b4;" x="371.997119" xlink:href="#mcb2457e3ba" y="87.545512"/>
     <use style="fill:#1f77b4;stroke:#1f77b4;" x="374.161483" xlink:href="#mcb2457e3ba" y="99.352462"/>
     <use style="fill:#1f77b4;stroke:#1f77b4;" x="376.325847" xlink:href="#mcb2457e3ba" y="95.284838"/>
     <use style="fill:#1f77b4;stroke:#1f77b4;" x="378.49021" xlink:href="#mcb2457e3ba" y="57.77555"/>
     <use style="fill:#1f77b4;stroke:#1f77b4;" x="380.654574" xlink:href="#mcb2457e3ba" y="35.62528"/>
     <use style="fill:#1f77b4;stroke:#1f77b4;" x="382.818937" xlink:href="#mcb2457e3ba" y="84.433523"/>
     <use style="fill:#1f77b4;stroke:#1f77b4;" x="384.983301" xlink:href="#mcb2457e3ba" y="49.269846"/>
     <use style="fill:#1f77b4;stroke:#1f77b4;" x="387.147665" xlink:href="#mcb2457e3ba" y="98.431631"/>
     <use style="fill:#1f77b4;stroke:#1f77b4;" x="389.312028" xlink:href="#mcb2457e3ba" y="74.173565"/>
     <use style="fill:#1f77b4;stroke:#1f77b4;" x="391.476392" xlink:href="#mcb2457e3ba" y="102.054901"/>
     <use style="fill:#1f77b4;stroke:#1f77b4;" x="393.640756" xlink:href="#mcb2457e3ba" y="102.936237"/>
     <use style="fill:#1f77b4;stroke:#1f77b4;" x="395.805119" xlink:href="#mcb2457e3ba" y="98.322625"/>
     <use style="fill:#1f77b4;stroke:#1f77b4;" x="397.969483" xlink:href="#mcb2457e3ba" y="43.649215"/>
     <use style="fill:#1f77b4;stroke:#1f77b4;" x="400.133847" xlink:href="#mcb2457e3ba" y="57.306153"/>
     <use style="fill:#1f77b4;stroke:#1f77b4;" x="402.29821" xlink:href="#mcb2457e3ba" y="93.093648"/>
    </g>
   </g>
   <g id="patch_3">
    <path d="M 61.410938 273.312 
L 61.410938 7.2 
" style="fill:none;stroke:#000000;stroke-linecap:square;stroke-linejoin:miter;stroke-width:0.8;"/>
   </g>
   <g id="patch_4">
    <path d="M 418.530938 273.312 
L 418.530938 7.2 
" style="fill:none;stroke:#000000;stroke-linecap:square;stroke-linejoin:miter;stroke-width:0.8;"/>
   </g>
   <g id="patch_5">
    <path d="M 61.410938 273.312 
L 418.530937 273.312 
" style="fill:none;stroke:#000000;stroke-linecap:square;stroke-linejoin:miter;stroke-width:0.8;"/>
   </g>
   <g id="patch_6">
    <path d="M 61.410938 7.2 
L 418.530937 7.2 
" style="fill:none;stroke:#000000;stroke-linecap:square;stroke-linejoin:miter;stroke-width:0.8;"/>
   </g>
  </g>
 </g>
 <defs>
  <clipPath id="pee92595c7c">
   <rect height="266.112" width="357.12" x="61.410938" y="7.2"/>
  </clipPath>
 </defs>
</svg>
